<?xml version="1.0" encoding="utf-8"?>
<!-- Generator: Adobe Illustrator 22.0.1, SVG Export Plug-In . SVG Version: 6.00 Build 0)  -->
<svg version="1.1" id="Layer_1" xmlns="http://www.w3.org/2000/svg" xmlns:xlink="http://www.w3.org/1999/xlink" x="0px" y="0px"
	 viewBox="0 0 722 737.3" enable-background="new 0 0 722 737.3" xml:space="preserve">
<g>
	<path fill="#FFFFFF" d="M136.5,572.7c15.1-68.4,35.4-136.2,60.1-203.6c-2-0.3-3.2,0.3-4.4,0.7c-13.9,4.7-27.5,9.8-40.5,15.4
		c-11.3,4.9-22.2,10-33.3,15.1c-1.5,0.7-2.9,1.3-5.3,2.4c0.5-1.2,0.6-1.8,0.9-2.3c22.4-39.2,133-196.8,151.3-215.4
		c-0.3,1.1-0.4,1.7-0.6,2.2c-8.5,16.6-17,33.2-25.5,49.8c-19.9,38.8-39.8,77.6-59.8,116.4c-0.5,1-1,2-1.5,3c1.7,0.6,2.6-0.3,3.5-0.7
		c13.8-5.7,27.4-11.6,41.3-17.1c15.1-6,30.5-11.7,45.7-17.5c1.4-0.5,2.9-1,4.4-1.6c1.3,0.9,0.2,1.6-0.2,2.3
		c-5.8,8.5-11.8,17-17.5,25.5c-39.2,58.4-72.3,118.1-99.2,179.1c-6.3,14.2-12,28.5-18,42.8C137.5,570.5,137,571.6,136.5,572.7z"/>
	<path fill="#FFFFFF" d="M427.1,186.1c-0.5,1.4-0.8,2.8-1.5,4.1c-19.2,37.5-38.5,74.9-57.7,112.4c-8.7,16.9-17.4,33.9-26.1,50.8
		c-0.6,1.1-1,2.2-1.8,3.8c5.5-1.6,9.4-3.7,13.7-5.5c4.6-1.8,9-3.8,13.6-5.7c4.4-1.8,8.8-3.6,13.2-5.4c4.6-1.8,9.2-3.7,13.8-5.5
		c4.5-1.7,8.9-3.5,13.4-5.2c4.7-1.8,9.3-3.6,14-5.3c4.5-1.6,8.9-3.5,13.7-4.8c1,1.3-0.4,2.1-1.1,3c-8.3,12.3-16.9,24.5-25,36.9
		c-43.6,66.5-79.3,134.7-106.9,204.5c-0.7,1.7-1.3,3.4-2.1,5.1c-0.4,1-1,1.9-1.8,2.8c15.4-68.1,35.6-135.7,60.2-203
		c-2.1-0.3-3.2,0.4-4.4,0.8c-17.5,6-34.5,12.5-50.7,19.7c-8,3.5-15.7,7.3-23.5,10.9c-1.3,0.6-2.6,1.1-4.2,1.9
		c-0.4-1.6,0.7-2.6,1.4-3.6c6.9-10.9,13.8-21.8,20.8-32.6c38.8-59.7,80.6-118.6,125.5-176.6c0.9-1.2,1.3-2.7,3.5-3.4
		C427.3,186.2,427.1,186.1,427.1,186.1z"/>
	<path fill="#FFFFFF" d="M502.6,357.1c5.4-1.7,9.4-3.8,13.7-5.6c4.6-1.9,9-3.8,13.6-5.7c4.4-1.8,8.8-3.6,13.2-5.4
		c4.6-1.8,9.2-3.7,13.8-5.5c4.5-1.7,8.9-3.5,13.4-5.2c4.7-1.8,9.3-3.5,14-5.3c4.5-1.6,8.9-3.4,14.3-5.1c-0.9,2.8-2.9,4.8-4.3,6.9
		c-1.4,2.2-3,4.3-4.5,6.4c-1.5,2.1-3,4.3-4.4,6.5c-1.5,2.2-2.9,4.3-4.4,6.5c-1.5,2.2-2.9,4.3-4.3,6.5c-1.4,2.2-2.9,4.3-4.3,6.5
		c-1.4,2.2-2.8,4.3-4.2,6.5c-1.4,2.2-2.8,4.3-4.2,6.5c-1.4,2.2-2.8,4.4-4.1,6.5c-1.4,2.2-2.7,4.4-4.1,6.5c-1.4,2.2-2.7,4.4-4.1,6.6
		c-1.3,2.2-2.6,4.4-4,6.6c-1.3,2.2-2.7,4.4-4,6.6c-1.3,2.2-2.6,4.4-3.9,6.6c-1.3,2.2-2.6,4.4-3.9,6.6c-1.3,2.2-2.6,4.4-3.8,6.6
		c-1.3,2.2-2.5,4.4-3.7,6.6c-1.2,2.2-2.5,4.4-3.7,6.6c-1.2,2.2-2.5,4.4-3.7,6.6c-1.2,2.1-2.3,4.2-3.4,6.3c-1.2,2.2-2.4,4.4-3.5,6.7
		c-1.2,2.2-2.3,4.4-3.5,6.7c-1.2,2.2-2.3,4.5-3.4,6.7c-1.1,2.2-2.3,4.5-3.4,6.7c-1.1,2.2-2.2,4.5-3.3,6.7c-1.1,2.2-2.2,4.5-3.3,6.7
		c-1.1,2.2-2.2,4.5-3.2,6.7c-1.1,2.2-2.1,4.5-3.2,6.7c-1,2.2-2.1,4.5-3.1,6.7c-1,2.2-2.1,4.5-3.1,6.7c-1,2.3-2.1,4.5-3.1,6.8
		c-1,2.3-1.9,4.5-2.9,6.8c-1,2.3-2,4.5-3,6.8c-1,2.3-1.9,4.5-2.9,6.8c-0.9,2.3-1.9,4.5-2.8,6.8c-0.9,2.3-1.8,4.5-2.8,6.8
		c-0.9,2.3-1.8,4.5-2.8,6.8c-0.9,2.3-1.8,4.5-3.1,6.7c0.2-5.2,1.9-10.3,3-15.5c1.2-5.2,2.5-10.4,3.9-15.6c1.3-5.3,2.7-10.6,4.1-15.9
		c1.4-5.2,2.8-10.4,4.2-15.6c1.4-5.2,2.9-10.4,4.3-15.6s3-10.4,4.5-15.5c1.6-5.3,3.1-10.6,4.7-15.9c1.6-5.2,3.1-10.3,4.7-15.5
		c1.6-5.2,3.3-10.3,4.9-15.5c1.7-5.2,3.4-10.3,5.1-15.5c1.8-5.3,3.6-10.5,5.4-15.8c1.8-5.1,3.6-10.3,5.4-15.4
		c1.8-5.1,3.8-10.2,5.5-15.6c-2.6-0.1-4,0.7-5.6,1.2c-16.8,5.8-33.1,12.1-48.7,19c-8.6,3.8-16.9,7.8-25.4,11.7
		c-1,0.5-1.7,1.3-3.2,1.1c-0.1-0.2-0.3-0.5-0.2-0.6c36.2-58.3,75.8-115.7,117.9-172.4c11-14.8,22-29.5,34.2-43.9
		c-0.7,1.5-1.2,2.9-2,4.4c-13.3,25.9-26.6,51.7-39.9,77.6c-14.8,28.7-29.6,57.5-44.3,86.2C503.6,354.4,503.2,355.5,502.6,357.1z"/>
	<path fill="#FFFFFF" d="M427.3,186.2c0.1-0.3,0.2-0.5,0.3-0.8c0.1,0.1,0.2,0.2,0.2,0.2c-0.2,0.2-0.4,0.3-0.6,0.5
		C427.1,186.1,427.3,186.2,427.3,186.2z"/>
</g>
</svg>
