<?xml version="1.0" encoding="utf-8"?>
<!-- Generator: Adobe Illustrator 22.0.1, SVG Export Plug-In . SVG Version: 6.00 Build 0)  -->
<svg version="1.1" id="Layer_1" xmlns="http://www.w3.org/2000/svg" xmlns:xlink="http://www.w3.org/1999/xlink" x="0px" y="0px"
	 viewBox="0 0 277.9 349.6" enable-background="new 0 0 277.9 349.6" xml:space="preserve">
<polygon fill="none" stroke="#000000" stroke-width="2" stroke-miterlimit="10" points="244.7,179.7 226.7,219.7 232.7,269.7 
	215.7,268.7 203.7,277.7 203.7,285.7 201.7,286.7 198.7,284.7 195.7,279.7 190.7,278.7 185.7,281.7 180.7,279.7 178.7,283.7 
	171.7,278.7 165.7,274.7 165.7,272.7 163.7,274.7 160.7,272.7 155.7,267.7 147.7,264.7 137.7,271.7 138.7,281.7 131.7,289.7 
	131.7,296.7 127.7,300.7 125.7,312.7 121.7,317.7 112.7,314.7 108.7,309.7 104.7,303.7 100.7,300.7 99.7,295.7 94.7,291.7 
	80.7,288.7 74.7,280.7 75.7,270.7 71.7,269.7 73.7,267.7 74.7,262.7 66.7,258.7 66.7,253.7 52.7,251.7 50.7,249.7 51.7,241.7 
	51.7,234.7 48.7,223.7 45.7,222.7 45.7,218.7 40.7,213.7 35.7,201.7 47.7,201.7 51.7,199.7 58.7,199.7 58.7,189.7 56.7,182.7 
	51.7,171.7 48.7,159.7 52.7,159.7 52.7,156.7 53.7,153.7 56.7,142.7 56.7,135.7 58.7,117.7 57.7,106.7 55.7,103.7 50.7,101.7 
	50.7,73.7 72.7,74.7 72.7,55.7 74.7,55.7 132.7,57.7 134.7,58.7 139.7,61.7 144.7,66.7 159.7,83.7 163.7,86.7 173.7,96.7 
	183.7,100.7 187.7,108.7 193.7,112.7 194.7,119.7 199.7,128.7 201.7,141.7 210.7,154.7 215.7,156.7 221.7,162.7 229.7,163.7 
	234.7,170.7 242.7,171.7 245.7,177.7 245.9,177.6 "/>
</svg>
