<?xml version="1.0" encoding="utf-8"?>
<!-- Generator: Adobe Illustrator 22.0.1, SVG Export Plug-In . SVG Version: 6.00 Build 0)  -->
<svg version="1.1" id="Layer_1" xmlns="http://www.w3.org/2000/svg" xmlns:xlink="http://www.w3.org/1999/xlink" x="0px" y="0px"
	 viewBox="0 0 522.2 810.1" style="enable-background:new 0 0 522.2 810.1;" xml:space="preserve">
<style type="text/css">
	.st0{fill:#F21F42;}
	.st1{fill:none;stroke:#000000;stroke-miterlimit:10;}
</style>
<g>
	<path class="st1" d="M238.5,411.1c0.8,6.5,0.5,11.5,0,14.9c-0.3,2.2-0.7,4.5-0.7,8.2c0,1.6,0.1,4.2,0.7,8.2c1,5.8,2.1,8.6,3,11.9
		c1.6,6.3,0.2,7.4,0.7,16.3c0.1,1.5,0.7,9.7,3.3,18.9c1.4,4.8,3.4,9.2,7.4,17.8c3.5,7.5,3.4,6.8,11.1,22.3
		c2.9,5.8,6.4,11.2,8.9,17.1c2.4,5.6,3.4,8.8,6.7,10.4c2.4,1.2,3.8,0.4,11.1,0.7c5.2,0.2,6.6,0.7,8.9,0.7c6.1,0.2,10.6-2.4,19.3-7.4
		c24.3-14,25.2-14.5,28.2-17.1c6.2-5.3,9.9-8.4,13.4-14.1c2.2-3.5,10.5-17.1,8.2-32.7c-0.6-4.3-1.8-7.3,0-10.4
		c2.5-4.1,7.5-3.2,13.4-6.7c6-3.5,8.7-9.1,11.1-14.1c1.9-3.9,6.6-15.1,3-27.5c-1.1-3.6-2.8-9.5-6.7-10.4c-4.8-1-10.2,6.2-13.4,10.4
		c-1.6,2.2-4.2,5.7-5.9,11.1c-1.7,5.3-4.1,12.2-0.7,17.8c0.3,0.5,3.3,5.3,7.4,5.2c4.6-0.1,8-5.9,8.9-10.4c1.1-5.2-1.5-7-2.2-12.6
		c-1.5-11.2,6.9-15.2,8.9-29.7c0.8-5.6,0.2-9.6-0.7-15.6c-3.1-20.4-13.5-34.4-17.8-40.1c-4.3-5.7-12.6-16.4-27.5-24.5
		c-4.9-2.7-13.8-7.5-26-8.9c-22.5-2.7-40.1,8-49,13.4c-12.4,7.5-35.1,19.8-34.2,34.9c0.5,8.9,8.8,12.2,7.4,22.3
		c-1.2,8.8-8.7,16.6-11.1,15.6c-1.4-0.6-1.8-4.5-0.7-7.4c2.5-7.2,13.7-8.4,43.1-12.6c30.3-4.3,38.9-6,41.6-1.5
		c2.7,4.5-2,12.8-3.7,12.6c-1.4-0.2-1.9-7.3-3-21.5c-0.9-12.7-0.5-14.1-2.2-16.3c-5.2-6.8-17.5-5.3-29.7-3.7
		c-16,2-20.3,7.1-21.5,8.9c-1.7,2.3-3.6,6.4-2.2,8.2c1.2,1.6,4.4,0.8,11.9-0.7c0,0,6.8-1.4,14.9-3c1.4-0.3,13.3-2.5,23.8,1.5
		c10.4,3.9,9.3,10.2,25.3,22.3c4.2,3.2,8.2,5.6,16.3,10.4c19,11.3,19.9,9.5,26,14.1c9.5,7.2,14.2,20.4,23.8,46.8
		c5.8,16.1,6.5,22.1,3.7,24.5c-2.9,2.4-8.7,0.4-11.1-0.7c-0.6-0.3-7.5-3.7-7.4-8.9c0-2,1-4.3,2.2-4.5c1.4-0.2,3.4,2.5,3.7,5.2
		c0.5,4.4-3.8,5.8-5.2,11.1c-1.1,4.1-0.4,10.1,3,12.6c3.6,2.7,7.4-0.8,17.8,0c5.3,0.4,9.3,0.7,10.4,3c2.5,4.9-10.2,16.1-21.5,26
		c-19,16.6-28.5,24.8-37.9,26c-7.2,0.9-16.3-0.2-30.5,4.5c-0.5,0.2-3.3,0.4-5.9,2.2c-0.7,0.5-3.9,2.7-3.7,5.2c0.2,3.1,6,5,6.7,5.2
		c10.5,3.4,25.3-15.6,49-36.4c17.6-15.4,38.3-33.3,49.8-27.5c5.1,2.6,4.2,7.8,13.4,17.1c6.6,6.7,12.6,9.6,17.8,12.6
		c17.4,10,30.8,23.6,36.4,30.5c12.1,15,14.2,31.4,16.3,48.3c2.7,21.1-1.9,46.3-11.1,95.8c-0.4,2.1-1.7,11.2-4.5,23
		c-2.3,9.7-3.6,15.5-5.9,20.8c0,0-6.7,15.4-24.5,26.7c-26,16.5-50.1-6.3-104-5.2c-29.3,0.6-37,7.7-92.9,10.4
		c-17,0.8-37.5,1.2-44.6-10.4c-3.2-5.2-2.6-12.6-1.5-27.5c1.6-20.7,5.9-30.3,1.5-33.4c-3.2-2.3-9.8-0.4-11.1,3
		c-1.6,3.9,4.1,9.6,5.9,11.1c11.7,10.1,32.4-4.4,74.3-15.6c14.9-4,39.4-9.4,72.8-20.1c6.2-2,16.9-5.5,23.8-15.6
		c0.8-1.1,9.2-13.9,5.2-28.2c-2.3-8-8.7-13.6-21.5-24.5c-10.9-9.3-16.4-13.9-21.5-16.3c-19.7-9.2-45.3-4.6-63.1,5.9
		c-18.6,11-21.8,24.5-34.9,23.8c-7.3-0.4-12.6-4.9-21.5-12.6c-11.3-9.7-12.5-15.6-24.5-28.2c-9.4-9.9-11-8.7-18.6-16.3
		c-9.7-9.9-11-15.8-26.7-47.5c-8.2-16.4-14.5-28.3-23.8-41.6c0,0-8.4-12.1-25.3-23c-3.7-2.4-7.6-4.5-11.9-3.7
		c-4.2,0.8-4.2,3.5-12.6,8.9c-5,3.2-7.9,4.1-8.2,6.7c-0.3,2.9,3.1,4.8,2.2,6.7c-0.8,1.6-3.6,0.4-5.9,2.2c-1.5,1.2-1.7,2.8-3,11.9
		c-1,7.4-1.1,7.9-1.5,8.9c-1.5,3.9-3,4.7-3,7.4c0,1.6,0.6,2.4,3,6.7c4,7.3,3.4,7.1,4.5,8.2c3.2,3.4,9.4,6.2,12.6,3.7
		c2.9-2.2,2.9-8.5,0.7-9.7c-1.7-0.9-5,1.1-6.7,3.7c-2.9,4.3,0.2,7.7-1.5,12.6c-1.2,3.4-3.3,3.5-13.4,10.4c-8.8,6-13.2,9.1-15.6,13.4
		c-2.3,4-1.8,5.9-4.5,8.2c-4.4,3.8-12.2,4.5-14.1,1.5c-1.7-2.7,1-9,4.5-9.7c4.5-0.9,12.4,7.2,11.1,14.9c-1.2,7.7-11,11.6-17.8,10.4
		c-3.9-0.7-9-3.5-8.9-6.7c0.1-2.6,3.6-4.9,6.7-5.2c4.3-0.5,7.4,2.9,8.9,4.5c0.7,0.8,5.2,5.5,4.5,11.1c-1.2,9.1-15.3,14.9-22.3,11.1
		c-2.2-1.2-4.8-3.8-4.5-6.7c0.4-3.3,4.6-5,5.2-5.2c5-1.9,12.1,0,14.1,4.5c2.1,4.7-1.6,11.7-5.9,14.9c-1.6,1.1-3.6,2-3.7,3.7
		c-0.1,2,2.8,3.6,3,3.7c4.2,2.3,8-1.4,14.1-2.2c10.1-1.4,12.6,6.9,21.5,5.2c5.1-1,11-5,13.4-10.4c1.9-4.3,0.6-7.4,3.7-10.4
		c2.7-2.6,5.3-1.8,6.7-4.5c1.6-3-1-5.5,0.7-8.2c1.6-2.4,4.4-1.3,5.9-3.7c1.6-2.4-0.7-4.3,0-7.4c1.4-6.2,12.1-6.6,12.6-11.1
		c0.2-1.8-1.6-3.5-5.2-6.7c-8.4-7.5-14.2-8.2-14.9-12.6c-0.4-2.3,0.8-4.6,2.2-5.9c4.7-4.3,15.4,0.3,20.8,3.7
		c11.1,7.1,15,18.8,16.3,23c2.7,8.6,1.6,13,2.2,21.5c0.7,10.2,5.2,20.9,14.1,42.3c9,21.6,13.5,32.4,20.1,40.9
		c8.2,10.6,12.7,12,17.1,22.3c4.3,9.9,3.6,16.7,9.7,22.3c6.3,5.8,15.5,8.1,17.1,5.9c1.5-2.1-5.8-6.4-7.4-13.4
		c-3.9-17.1,32.6-26.4,39.4-53.5c0.8-3.2,0.3-3.2-19.3-59.4c-5.9-16.8-10.5-30.2-23-36.4c-6.1-3-7.1-0.9-14.9-3.7
		c-16.2-5.9-30.2-21.9-34.2-39.4c-3.4-14.7,3.1-18.4-2.2-27.5c-7.9-13.5-28.9-17.1-33.4-17.8c-13.8-2.3-23.4,0.6-26.7-5.2
		c-1.2-2.2,0.1-2.6-0.7-12.6c-0.7-7.6-1.6-9.3-0.7-13.4c1-4.8,2.8-4.5,3.7-8.9c1.7-8-3.3-12.3-0.7-15.6c2.5-3.2,8.1,0.1,11.9-3.7
		c2.8-2.8,0.8-5.9,3-9.7c4.1-7.2,19.4-9.7,24.5-3.7c2.6,3,3.3,9.3,0,11.9c-2.4,1.9-6.9,2.1-8.9,0c-3.4-3.5,1.4-12.1,7.4-26
		c13.2-30.1,20.8-47.4,17.1-64.6c-1-4.6-2.5-8-2.2-14.1c0.5-10.5,5.6-13.6,5.9-24.5c0.2-4.9,0.4-11.6-3.7-14.9
		c-5.7-4.6-17.8-1.1-25.3,4.5c-6.3,4.7-8,9.9-12.6,9.7c-3.9-0.2-6.7-4-8.2-5.9c-1.6-2.1-4.3-6.6-4.5-14.1
		c-0.1-4.7,0.7-14.6,16.3-37.1c10.9-15.7,15-17.5,15.6-25.3c0.3-3.7-0.5-6.7-8.9-23.8c-11.1-22.4-12.8-23.1-15.6-31.2
		c-4.9-14.2-4.6-26.4-4.5-32.7c0.1-3.6,0.8-20.4,9.7-40.1c3-6.6,19-42.3,56.5-57.9c0,0,20.3-8.5,53.5-8.9c10.3-0.1,12.2,2,22.3,0.7
		c3.3-0.4,6.8-1.1,8.2,0.7c1.6,2.2-0.3,7.5-3,8.2c-4.3,1.1-12.6-9.3-10.4-13.4c1.7-3.2,9.9-2.6,15.6,0c4.5,2.1,6.2,4.8,8.9,7.4
		c8.4,7.9,17.9,5.2,28.2,8.2c13.2,3.8,20.5,14.6,29.7,28.2c5.5,8.1,15.5,22.9,16.3,43.8c0.6,15.7-4.3,27.2-10.4,41.6
		c-4.4,10.5-9.8,23.4-21.5,36.4c-3.7,4.1-17.2,18.3-33.4,31.2c-2.6,2.1-7.5,5.9-11.1,12.6c-4.1,7.6-4.4,15-4.5,18.6
		c-0.3,11.6,3.7,12.3,4.5,24.5c0.3,5.3,0.2,15.2-4.5,26c-2.8,6.6-6.3,11.2-8.2,13.4c-7.3,8.7-15.2,12.5-26.7,17.8
		c-13.6,6.3-23.3,10.6-31.9,6.7c-1.9-0.9-6.3-3.3-5.9-5.2c0.4-2.2,7.4-3.9,9.7-1.5c2.6,2.8-2,10.1-6.7,20.1c0,0-7.8,16.5-13.4,37.9
		c-6.2,23.8-3.2,35.5-11.9,40.1c-3.5,1.9-7.7,2-14.9,6.7c-6.8,4.5-7.3,7.2-7.4,8.2c-0.4,4,3.1,8,6.7,9.7c8.8,4,19.2-5.9,20.1-6.7
		c3.9-3.8,11.2-13.1,7.4-19.3c-3.6-5.9-15.7-5.9-17.1-3c-1.4,2.8,6.3,9.9,11.1,13.4c6,4.3,8.3,3.7,9.7,6.7c2,4.1-2,6.5-5.2,19.3
		c-2.1,8.2-0.6,7.9-3,17.1c-0.6,2.3-1.2,4.2-0.7,6.7c0.7,4.6,4.1,7.4,6.7,9.7c18.2,15.6,18.5,16.4,22.3,17.8c5.4,2,11,4.1,15.6,1.5
		c4-2.3,4.7-6.7,8.9-7.4c2.9-0.5,4.7,1.1,7.4,2.2c3.8,1.5,9.8,2.1,19.3-2.2"/>
	<path class="st1" d="M299.8,447.1c2.4-1.5,5.6-3.4,9.7-5.2c4.8-2.1,8.5-3.8,13.4-4.5c9.1-1.3,14.6,1.9,16.3-0.7
		c1.2-1.9-0.6-4.9-0.7-5.2c-2.1-3.6-6.7-4.2-8.9-4.5c-5.9-0.7-10.4,1.3-17.1,4.5c-7.8,3.7-13,6.2-15.6,11.9
		c-0.6,1.4-2.2,4.9-0.7,8.2c1.2,2.6,3.7,3.8,5.2,4.5c2.2,1,4.2,1.2,11.9,0.7c6.1-0.4,11.2-0.9,17.1-3c2.9-1,3.6-1.5,3.7-2.2
		c0.3-2.3-6.2-6.1-12.6-6.7c-7.3-0.7-14.7,2.6-18.6,8.2c-1,1.4-3.5,4.9-2.2,7.4c1.3,2.7,6.4,2.8,11.9,3c6.3,0.1,8.4-0.9,13.4,0
		c3,0.6,5.3,1.5,6.7,2.2"/>
	<path class="st1" d="M267.9,452.3c-4.8-4.3-9.3-7.1-12.6-8.9c-6.1-3.3-9.3-4.3-13.4-5.9c-2.7-1.1-4.6-0.7-5.9-2.2
		c-2.6-3-1.8-9.2,0.7-10.4c1.8-0.8,4.3,1,5.9,2.2c17.3,13.1,26.7,22.3,26.7,22.3c1.4,1.5,3.5,3.8,5.9,6.7c-4.2,3.1-8.2,4.1-10.4,4.5
		c-1.2,0.2-11.2,1.9-15.6-3.7c-0.5-0.6-2-2.5-1.5-4.5c0.7-3,5.6-4.4,8.9-4.5c7.4,0,14.9,7,15.6,14.1c0.2,1.7-0.3,1.2-2.2,9.7
		c-2.3,9.7-2.3,12.8-2.2,14.9c0.1,2.3,0.2,5,1.5,8.2c1.1,2.9,3.1,7.9,8.2,9.7c3.4,1.2,7.6,0.7,10.4-1.5c2.8-2.2,2-4.3,5.2-6.7
		c2.6-2,3.6-0.9,7.4-3c4.1-2.2,6.3-5.2,7.4-6.7c1.8-2.4,4.1-5.7,3-8.2c-0.7-1.6-2.8-2.8-3.7-2.2c-1.1,0.7-0.1,4,0,4.5
		c0.5,1.8,1.9,5.2,8.2,9.7c5.6,4,6.8,2.9,9.7,5.9c3.6,3.8,4.3,8.3,4.5,9.7c0.9,5.9-1.4,10.4-2.2,11.9"/>
	<path class="st1" d="M269.4,507.3c1.2-1.1,3.4,0.9,8.2,2.2c5.1,1.4,5.3-0.1,18.6,0c7.9,0,9.8,0.6,13.4-0.7c1.7-0.6,2.9-1.4,5.2-1.5
		c3.9-0.2,5.6,1.8,7.4,0.7c1.8-1.1,2.5-4.4,1.5-5.2c-0.8-0.7-3.1,0.2-4.5,1.5c-2.2,2.1-1.6,4.9-2.2,7.4c-1.3,5-7.2,7.4-14.9,10.4
		c-9.1,3.6-16.7,6.6-23,3c-3.3-1.9-5.2-5-6.7-7.4C270.6,514.8,267.6,508.8,269.4,507.3z"/>
</g>
</svg>
