<?xml version="1.0" standalone="no"?>
<!DOCTYPE svg PUBLIC "-//W3C//DTD SVG 1.1//EN" "http://www.w3.org/Graphics/SVG/1.1/DTD/svg11.dtd" >
<svg xmlns="http://www.w3.org/2000/svg" xmlns:xlink="http://www.w3.org/1999/xlink" version="1.1">
<metadata>
Created by FontForge 20170731 at Wed Dec 15 15:41:00 2010
 By Aleksey,,,
Copyright (c) 2010 by Emil Bertell. All rights reserved. wf-rip
</metadata>
<defs>
<font id="Signor-Ultra" horiz-adv-x="630" >
  <font-face 
    font-family="Signor"
    font-weight="900"
    font-stretch="normal"
    units-per-em="1000"
    panose-1="0 0 0 0 0 0 0 0 0 0"
    ascent="750"
    descent="-250"
    x-height="703"
    cap-height="704"
    bbox="-194 -420.633 2017 1080"
    underline-thickness="50"
    underline-position="-150"
    unicode-range="U+0020-FB02"
  />
<missing-glyph horiz-adv-x="222" 
 />
    <glyph glyph-name=".notdef" horiz-adv-x="222" 
 />
    <glyph glyph-name=".null" horiz-adv-x="0" 
 />
    <glyph glyph-name="nonmarkingreturn" horiz-adv-x="333" 
 />
    <glyph glyph-name="space" unicode=" " horiz-adv-x="222" 
 />
    <glyph glyph-name="exclam" unicode="!" horiz-adv-x="221" 
d="M7 553q-3 81 22 106.5t111 25.5q64 0 84.5 -25t18.5 -99q-2 -61 -13 -231q-4 -79 -24 -101q38 -35 38 -104q0 -65 -33 -98t-85 -33q-51 0 -84 33t-33 98q0 61 30 96q-13 18 -19 91zM22 554l13 -241q4 -48 10.5 -66t24.5 -22q-46 -29 -46 -100q0 -56 28.5 -84.5
t73.5 -28.5t74 28.5t29 84.5q0 78 -56 105q21 8 30.5 30.5t11.5 70.5q11 168 13 230q2 63 -16 84.5t-72 21.5q-76 0 -98 -22t-20 -91zM37 555q-2 58 17 76t86 18q45 0 60 -17.5t13 -69.5q-1 -58 -13 -229q-3 -61 -19.5 -76.5t-67.5 -15.5q-39 0 -49 10.5t-14 63.5zM39 125
q0 48 24.5 72.5t62.5 24.5q39 0 63.5 -24.5t24.5 -72.5q0 -47 -24.5 -71t-63.5 -24q-38 0 -62.5 24t-24.5 71z" />
    <glyph glyph-name="quotedbl" unicode="&#x22;" horiz-adv-x="399" 
d="M12 516q-1 20 1 34t4 24t12 16t15 9.5t24.5 5t29 1.5h38.5q67 0 87 -9q24 9 89 9q74 0 94 -14.5t16 -74.5l-8 -132q-3 -52 -29 -68.5t-90 -16.5q-66 0 -82 19q-24 -19 -96 -19q-52 0 -72 12.5t-26 61.5l-4 86zM28 516l4 -55q2 -72 4 -85q4 -40 20.5 -50t60.5 -10
q46 0 68 8.5t30 32.5q6 -28 22 -34.5t58 -6.5q55 0 77.5 13.5t24.5 56.5l8 132q4 49 -13 60.5t-80 11.5q-74 0 -92 -17q-8 11 -26 14t-58 3q-71 0 -90.5 -10.5t-17.5 -63.5zM45 517q-1 41 15 49t76 8q51 0 64.5 -8.5t11.5 -45.5q-4 -41 -9 -134q-2 -33 -20.5 -43.5
t-65.5 -10.5q-35 0 -48 7.5t-16 38.5q-4 34 -4 84zM223 517q-1 37 17 47t72 10q51 0 65 -8.5t12 -45.5q-4 -41 -9 -134q-1 -33 -20 -43.5t-65 -10.5q-20 0 -28.5 0.5t-18.5 5t-13.5 14t-5.5 26.5l-2 43l-1 34z" />
    <glyph glyph-name="numbersign" unicode="#" horiz-adv-x="529" 
d="M11 200q9 83 20 101q-14 14 -10 78q3 37 5 51t7 34.5t12.5 27t21 13.5t33.5 9l2 25l4 34q2 24 5.5 40.5t7 29t13.5 20t17 12t25.5 6t31 2t41.5 0.5q43 0 63 -12q21 12 102 12q58 0 72.5 -21t8.5 -81q0 -8 -2 -28l-4 -43q32 -6 42 -28.5t9 -70.5q-7 -73 -20 -92
q13 -14 10 -75q-3 -37 -8 -60t-22 -44.5t-45 -28.5v-2q-6 -71 -34.5 -89t-107.5 -18q-54 0 -70 13q-26 -13 -95 -13q-53 0 -68 11.5t-15 52.5q0 11 1 20q0 1 0.5 2.5t0.5 3.5l1 17q-60 9 -55 91zM29 200q-4 -42 8.5 -57t46.5 -16l-2 -35q0 -7 -1 -11t-1 -15q0 -30 12 -38
t54 -8q78 0 101 23q4 -13 18 -18t46 -5q70 0 94.5 14.5t29.5 73.5q-1 4 0 18q66 12 76 119q2 37 -3 51t-25 18q11 5 18 13.5t10.5 24t5 25.5t3.5 35q2 42 -8.5 60.5t-43.5 22.5l5 60q3 12 3 28q5 48 -6.5 65t-57.5 17q-35 0 -50.5 -1t-30.5 -5.5t-24 -15.5q-10 22 -60 22
q-76 0 -97.5 -13.5t-26.5 -79.5l-3 -35l-4 -39q-33 -2 -48.5 -15.5t-20 -34t-9.5 -70.5q-2 -40 3 -53.5t27 -16.5q-21 -10 -28 -33t-11 -75zM46 198q5 60 16.5 80t53.5 22l4 24h-10q-39 0 -48 8t-6 45q6 65 17.5 83.5t58.5 19.5l5 55l4 35q4 55 22.5 66t83.5 11
q34 0 42 -12.5t5 -50.5v-1q-1 -1 -1 -2l-10 -102h15l1 19l3 34l4 38q5 55 23 66t83 11q34 0 42 -12.5t5 -50.5q0 -12 -3 -26l-6 -80h3q32 0 42 -14.5t8 -50.5q-3 -28 -4.5 -38.5t-8 -25.5t-19.5 -20.5t-35 -6.5q0 -2 -0.5 -5t-0.5 -5q-1 -9 -1 -13h10q35 0 43 -8.5t6 -43.5
q-4 -50 -19 -77t-55 -27l-1 -36q-4 -46 -25.5 -57.5t-81.5 -11.5q-36 0 -43 9t-4 44q0 2 0.5 7.5t1.5 12.5t1 12q0 3 1 10t1 11h-15l-1 -38q-6 -42 -28 -55t-79 -13q-31 0 -40 5t-9 23q0 3 1.5 12t1.5 13l2 54q-34 -2 -46 8.5t-10 44.5zM267 300h13l3 23h-13z" />
    <glyph glyph-name="dollar" unicode="$" horiz-adv-x="453" 
d="M15 499q0 66 33.5 114.5t90.5 74.5q0 3 -0.5 11t-0.5 12q-1 32 7.5 52.5t27 29t35 11t43.5 2.5q24 0 38 -2t31.5 -10t25 -27.5t6.5 -51.5q0 -4 -2 -22q53 -20 74.5 -61t8.5 -86q-27 -91 -90 -91q-18 0 -40 7q-2 1 -3 1l20 -9l3 -1q75 -40 110 -89.5t35 -144.5
q0 -70 -32.5 -121t-87.5 -79v-7q0 -2 0.5 -4.5t0.5 -3.5v-5q1 -27 -5.5 -45.5t-15 -27.5t-28 -13.5t-30 -5t-34.5 -0.5t-38 2t-31 10t-24.5 28t-6.5 51v1v1q-135 26 -114 148q11 54 30.5 75.5t56.5 21.5q9 0 35 -4q25 -8 47 -9l-38 22q-77 46 -107.5 106t-30.5 139zM32 499
q0 -74 28.5 -130.5t100.5 -98.5q79 -45 79 -51q0 -5 -38 -5q-19 0 -56 7q-22 6 -37 6q-29 0 -45 -18.5t-26 -64.5q-20 -108 117 -128q-2 -12 -2 -18v-1q-1 -25 5 -40t20.5 -21.5t26 -8t31.5 -1.5q25 0 37 1t29 7.5t24 22.5t6 42v5q0 1 -0.5 3.5t-0.5 4.5v19q55 24 87.5 71.5
t32.5 116.5q0 60 -17.5 102.5t-45 66.5t-73.5 48h-1l-43 20q-13 6 -18.5 9t-10 7.5t-4.5 10.5q0 5 29 5q13 0 42 -9q19 -6 34 -6q26 0 44 18t30 60q11 41 -11 77.5t-74 52.5q0 1 3 35q1 25 -5.5 40.5t-20.5 21.5t-26.5 8t-31.5 2q-23 0 -37 -2t-30.5 -8.5t-23 -23
t-5.5 -42.5l3 -36q-59 -22 -92.5 -67.5t-33.5 -109.5zM49 499q0 61 34.5 103.5t92.5 60.5l-4 51q-1 16 3 27.5t10 17t19.5 8t21.5 3t25 0.5q21 0 33.5 -2t23.5 -14.5t10 -36.5q-2 -31 -6 -50q54 -12 77 -43t12 -67q-10 -38 -23.5 -52t-34.5 -14q-14 0 -29 7v-1q-32 9 -47 9
t-24 -1t-15.5 -6.5t-6.5 -15.5q0 -12 5.5 -19.5t12 -11t25.5 -12.5l44 -20q65 -35 95.5 -78t30.5 -123q0 -66 -32.5 -110.5t-88.5 -64.5l1 -32q0 -3 0.5 -7.5t0.5 -5.5q1 -16 -3.5 -27t-10.5 -16.5t-19.5 -8t-21 -3t-24.5 -0.5q-21 0 -33.5 2t-23 14.5t-9.5 35.5l3 36
q-71 6 -98.5 34t-19.5 75q7 37 19.5 52t34.5 15q18 0 29 -3l1 -1h2q30 -8 61 -8q30 0 42.5 4t12.5 19q0 12 -16 24t-72 44q-120 71 -120 212zM146 241l8 -2q-2 0 -8 2z" />
    <glyph glyph-name="percent" unicode="%" horiz-adv-x="602" 
d="M19 487q0 94 41 147t124 53q117 0 149 -106q31 52 62.5 77t80.5 25q65 0 90.5 -14t25.5 -61q0 -5 -1 -10.5t-1.5 -9t-3 -9.5t-4 -9t-6 -10.5t-6 -10.5t-7.5 -12t-8 -13l-5 -9l-6 -10h1l-76 -118q135 -18 135 -185q0 -95 -40.5 -148t-124.5 -53q-116 0 -148 103l-9 -14
q-35 -57 -66.5 -73t-99.5 -16q-52 0 -71.5 13t-19.5 57q0 26 34 79l23 35l75 115q-138 14 -138 187zM37 487q0 -170 149 -170h3l-92 -141q-4 -7 -12.5 -19t-10.5 -16q-32 -51 -32 -70q0 -33 16 -42.5t58 -9.5q59 0 89.5 15.5t61.5 64.5l33 51q16 -131 139 -131
q148 0 148 183q0 169 -150 169l93 144l6 10l5 9q33 51 33 74q0 36 -21 46.5t-77 10.5q-51 0 -78 -26t-66 -95l-7 -13q-17 138 -141 138q-75 0 -111 -48.5t-36 -133.5zM55 487q0 164 129 164q125 0 125 -159q0 -16 -1 -23l39 66q37 65 61 88.5t68 23.5q46 0 63.5 -7t17.5 -32
q0 -18 -36 -73l-118 -186q13 4 34 4q132 0 132 -151q0 -165 -130 -165q-124 0 -124 159q0 7 -1 7q0 1 1 4l-63 -98q-28 -46 -54 -59t-82 -13q-32 0 -44 6t-12 28q0 15 29 61l23 35l113 172q-16 -4 -39 -4q-131 0 -131 152zM171 491q0 -33 12 -33q9 0 9 35t-10 35
q-11 0 -11 -37zM431 195q0 -36 11 -36q10 0 10 39q0 31 -11 31q-10 0 -10 -34z" />
    <glyph glyph-name="ampersand" unicode="&#x26;" horiz-adv-x="703" 
d="M16 235q0 111 87 180q-19 48 -19 101q0 47 12 80.5t30 52.5t48 30t58 14t68 3q98 0 161 -42t63 -135q0 -42 -14 -73q21 2 44 -1q109 -15 109 -111q0 -35 -30 -98q25 -10 39.5 -40t14.5 -68q0 -51 -24.5 -88.5t-71.5 -37.5h-44q-79 0 -125 18q-73 -32 -143 -32
q-111 0 -187 67.5t-76 179.5zM279 6q71 0 144 34q49 -20 124 -20h44q38 0 58 32t20 76q0 40 -17.5 68t-45.5 27q39 76 39 111q0 81 -94 93h1q-45 6 -63.5 -8.5t-37.5 -59.5q-16 -36 -26 -54q-32 43 -35 47q55 31 86 69.5t31 97.5q0 84 -58.5 121.5t-148.5 37.5
q-46 0 -77 -5.5t-61 -21t-45 -49.5t-15 -86q0 -48 23 -107q-91 -70 -91 -174t71 -166.5t174 -62.5zM52 235q0 104 95 167q-27 60 -27 114q0 46 13.5 76t41 44t55.5 19t70 5q39 0 71.5 -7t59.5 -23t42.5 -44t15.5 -67q0 -57 -33 -93t-92 -67q14 -21 64 -85l3 6q16 26 36 72
q16 37 31 49.5t51 7.5q78 -11 78 -75q0 -44 -52 -129v-2q-3 -6 -9 -12q8 3 29 12h1q24 9 39.5 -15t15.5 -60q0 -37 -15.5 -63.5t-44.5 -26.5h-44q-76 0 -125 21q-77 -35 -143 -35q-96 0 -161.5 57.5t-65.5 153.5zM220 235q0 -22 17 -34.5t44 -12.5l1 -1q2 0 4 1
q-38 47 -59 77q-7 -14 -7 -30zM284 509q0 -10 10 -36q21 16 21 36q0 13 -15 13q-10 0 -13 -2.5t-3 -10.5zM416 347l6 -8l7 15q-2 -2 -6.5 -4t-6.5 -3z" />
    <glyph glyph-name="quotesingle" unicode="'" horiz-adv-x="180" 
d="M5 516q1 55 23 72.5t83 17.5q63 0 80 -14t13 -75q-7 -101 -7 -133q-3 -52 -24.5 -68t-77.5 -16q-45 0 -62.5 12.5t-20.5 62.5v-1l-5 86zM19 516l2 -55l5 -85q4 -39 18 -49.5t51 -10.5q48 0 66.5 13t21.5 56q0 28 7 133q3 49 -11 60.5t-68 11.5q-52 0 -71.5 -14.5
t-20.5 -59.5zM34 517q0 34 16.5 45.5t60.5 11.5q43 0 55 -9t10 -46q-7 -101 -7 -133q-2 -34 -18 -44.5t-56 -10.5q-30 0 -41 8t-13 38q-3 27 -5 84z" />
    <glyph glyph-name="parenleft" unicode="(" horiz-adv-x="291" 
d="M5 314q0 100 20 181t50.5 128t63 72t62.5 25q36 0 67 -34l5 -2q1 -2 3 -6.5t4 -6.5q0 -2 6 -10l-2 -3q12 -36 -15 -94q-49 -122 -49 -244t53 -233q24 -46 24 -75q0 -25 -13 -47q-32 -44 -77 -44q-30 0 -64 25.5t-65.5 72t-52 124.5t-20.5 171zM20 314q0 -89 19 -163
t48 -118.5t60.5 -69t59.5 -24.5q39 0 64 36q10 17 10 37q0 24 -22 66q-55 113 -55 242q0 123 51 252q13 29 16 43.5t-3 40.5l1 1l-3 3l-4 9l-2 1q-25 32 -59 32q-63 0 -122 -102.5t-59 -285.5zM36 314q0 91 16.5 165t42 117t53.5 65.5t53 22.5q32 0 49 -29l2 -1
q7 -21 4.5 -33t-15.5 -41q-52 -126 -52 -260t57 -251q11 -23 14.5 -32t4.5 -23.5t-7 -27.5q-20 -29 -51 -29q-58 0 -114.5 97.5t-56.5 259.5z" />
    <glyph glyph-name="parenright" unicode=")" horiz-adv-x="292" 
d="M22 630q0 25 13 47l2 2q29 41 75 41q70 0 137 -106.5t67 -285.5q0 -99 -20 -180.5t-51 -128.5t-64 -72t-63 -25q-52 0 -76 49l1 -4q-15 32 -14 48t13 49l1 1q0 3 3 6l6 15q47 108 47 237q0 122 -53 231q-24 48 -24 76zM38 630q0 -24 22 -66q55 -113 55 -241
q0 -134 -50 -248l-6 -14l1 2l-3 -7q-10 -28 -11 -41t10 -37q20 -38 62 -38q63 0 123 103t60 285q0 170 -62 272t-127 102q-39 0 -63 -35v-1q-11 -18 -11 -36zM61 656q19 27 51 27q59 0 116 -96.5t57 -258.5q0 -173 -54.5 -271.5t-112.5 -98.5q-33 0 -50 32v-1q-2 3 -3.5 6.5
t-2 7t-0.5 6t0.5 7t1 6.5t2 7.5t2.5 7.5t3 8.5t3 9.5l5 13q52 118 52 255q0 131 -58 250q-11 23 -14.5 32.5t-4.5 24t7 26.5z" />
    <glyph glyph-name="asterisk" unicode="*" horiz-adv-x="372" 
d="M8 365v5q0 66 42 86v11q0 26 11.5 41t37.5 31q28 14 49 14q23 0 45 -12q21 18 49 18q20 0 50 -17q45 -30 48 -73q36 -4 43.5 -21t7.5 -69q0 -65 -44 -84q1 -5 1 -13q0 -19 -6 -31.5t-14 -18.5t-25 -16l1 1q-30 -18 -57 -18q-23 0 -40 9q-19 -18 -46 -18q-18 0 -48 15
q-18 12 -26.5 18t-18.5 23t-11 39q-31 4 -40 20.5t-9 59.5zM25 365q0 -38 8.5 -50.5t40.5 -14.5q-2 -6 -1 -6t1 -4q0 -20 8.5 -35t16 -20.5t22.5 -14.5q25 -14 40 -14q24 0 42 23q21 -14 44 -14q18 0 48 16q13 7 19 12t11.5 15t5.5 24q0 13 -4 24q47 14 47 73
q0 43 -8.5 57.5t-41.5 17.5v11q0 36 -38 63q-26 14 -44 14q-27 0 -48 -22q-18 17 -46 17q-19 0 -40 -12q-22 -13 -32 -25t-10 -33q0 -9 3 -21q-14 -4 -23 -11t-13 -12t-6 -18t-2 -16v-19v-5zM41 365v4q0 19 1.5 29t13.5 21.5t35 15.5q-8 19 -8 32q0 25 33 44q16 9 32 9
q26 0 48 -25q22 31 46 31q10 0 34 -12q31 -22 31 -49q0 -15 -4 -26q39 -1 47 -11t8 -49q0 -30 -12.5 -43.5t-43.5 -18.5q12 -20 12 -35q0 -14 -6 -21t-22 -16q-19 -13 -39 -13q-28 0 -48 23q-17 -32 -38 -32q-11 0 -31 11q-1 0 -5.5 3.5t-5.5 4t-5.5 3.5t-5.5 4.5t-4.5 5
t-4.5 5.5t-3.5 6t-3 7.5t-1.5 7.5t-1 9q0 16 4 26q-35 0 -44 9t-9 40z" />
    <glyph glyph-name="plus" unicode="+" horiz-adv-x="395" 
d="M101 418q3 26 13.5 45t21.5 28t29 14t29.5 6t29.5 1q29 0 42 -1.5t27.5 -10.5t20 -28.5t6.5 -54.5q58 -6 76.5 -30t18.5 -77q0 -51 -20.5 -78.5t-74.5 -33.5q-8 -53 -34.5 -73t-77.5 -20q-61 0 -76 7q-29 15 -33 85q-27 1 -44.5 6.5t-27 11.5t-14 20.5t-5 25t-0.5 33.5
t2 37.5t10 35.5t28.5 33.5t52.5 17.5zM24 294q0 -24 1.5 -35t10 -23.5t27.5 -17t53 -4.5q1 -35 5 -54t16.5 -27.5t23.5 -10t37 -1.5h10q47 0 69.5 19t27.5 74q52 4 72.5 27.5t20.5 68.5q0 48 -18 68t-76 24q0 34 -4 53.5t-16.5 28t-23.5 10t-36 1.5q-20 0 -33.5 -2.5
t-31.5 -10.5t-28.5 -28t-13.5 -51q-31 -3 -51.5 -14t-28.5 -29t-10.5 -32t-2.5 -34zM41 294q0 19 2 31t10 28t28 24.5t51 8.5h1v1q0 32 8 52t24.5 27.5t28 9.5t30.5 2q20 0 28.5 -1.5t18.5 -8.5t13 -23t3 -44v-15q58 -1 76 -17.5t18 -58.5q0 -41 -19.5 -60t-72.5 -20
q-2 -53 -21 -72.5t-60 -19.5q-45 0 -55 8q-20 14 -20 81v4h-16q-28 0 -44 3.5t-22.5 13t-8 18t-1.5 28.5z" />
    <glyph glyph-name="comma" unicode="," horiz-adv-x="239" 
d="M5 124q0 60 35 91t94 31q74 0 102 -34.5t28 -131.5q0 -72 -48.5 -122.5t-109.5 -63.5q-39 -7 -67 16t-28 61q0 34 22 58q-28 27 -28 95zM20 124q0 -76 40 -95q-33 -17 -33 -58q0 -30 22 -48.5t54 -13.5q56 12 100.5 58t44.5 113q0 88 -24.5 119t-89.5 31q-52 0 -83 -26.5
t-31 -79.5zM35 124q0 44 27 67t72 23q57 0 78 -27.5t21 -106.5q0 -60 -40.5 -101.5t-91.5 -52.5q-25 -4 -42 9t-17 36q0 15 6.5 25t14 14.5t20.5 9.5q16 6 26 16q-40 0 -57 21.5t-17 66.5z" />
    <glyph glyph-name="hyphen" unicode="-" horiz-adv-x="375" 
d="M10 193q0 21 2.5 32t12.5 25.5t36 21t68 6.5h136q85 0 106 -12t21 -62q0 -45 -32 -61t-110 -16l-137 1q-64 1 -83.5 12.5t-19.5 52.5zM26 193q0 -33 16.5 -41.5t71.5 -10.5h136q69 0 97 12.5t28 50.5q0 42 -18 51.5t-92 9.5h-136q-36 0 -58.5 -5.5t-31.5 -17.5t-11 -21.5
t-2 -27.5zM43 193q0 14 1.5 22t9 18t26.5 14.5t49 4.5h136q63 0 78.5 -7.5t15.5 -40.5q0 -30 -24.5 -40t-84.5 -10h-136q-44 1 -57.5 7.5t-13.5 31.5z" />
    <glyph glyph-name="period" unicode="." horiz-adv-x="217" 
d="M4 114q0 58 33 88t86 30q52 0 85 -30.5t33 -87.5q0 -59 -33 -89t-85 -30q-53 0 -86 30t-33 89zM19 114q0 -52 29 -78t75 -26q45 0 74.5 26t29.5 78q0 51 -29.5 77t-74.5 26q-46 0 -75 -26t-29 -77zM34 114q0 43 24.5 65.5t64.5 22.5q38 0 63.5 -22.5t25.5 -65.5
q0 -44 -25 -66.5t-64 -22.5q-40 0 -64.5 22.5t-24.5 66.5z" />
    <glyph glyph-name="slash" unicode="/" horiz-adv-x="495" 
d="M22 65q0 26 16 62q24 51 102.5 242t95.5 243q28 75 64 108.5t94 33.5q54 0 77 -15t23 -66q0 -31 -21 -79l-205 -514q-11 -28 -24 -47t-24 -29t-29 -14.5t-30 -5.5t-36 -1q-55 0 -79 15.5t-24 66.5zM39 65q0 -40 20 -52t66 -12q26 0 39.5 1.5t31 9.5t30.5 26t26 49
l205 515q20 49 20 71q0 39 -19 51t-64 12q-52 0 -84 -30.5t-58 -100.5q-15 -47 -87.5 -223t-110.5 -262q-15 -35 -15 -55zM56 65q0 15 13 46q29 65 106 252t93 237q23 62 52 90t74 28q36 0 51 -8.5t15 -36.5q0 -19 -19 -64q-147 -362 -204 -515q-11 -27 -22.5 -43t-27 -22.5
t-27.5 -8t-35 -1.5q-36 0 -52.5 8.5t-16.5 37.5z" />
    <glyph glyph-name="zero" unicode="0" horiz-adv-x="499" 
d="M12 327q0 164 67.5 262.5t186.5 98.5t181.5 -94.5t62.5 -255.5q0 -155 -66 -248.5t-176 -93.5q-117 0 -186.5 80.5t-69.5 250.5zM29 327q0 -160 65.5 -237t173.5 -77q103 0 164 89t61 236q0 152 -58.5 242t-168.5 90q-112 0 -174.5 -93.5t-62.5 -249.5zM47 327
q0 148 58 236.5t161 88.5q102 0 156 -85t54 -229q0 -140 -56.5 -223.5t-151.5 -83.5q-101 0 -161 72.5t-60 223.5zM226 330q0 -91 8.5 -120t30.5 -29q18 0 24.5 35.5t6.5 122.5q0 90 -6.5 126.5t-25.5 36.5q-23 0 -30.5 -38.5t-7.5 -133.5zM243 330q0 86 4 120t17 34
q9 0 11.5 -31t2.5 -114q0 -140 -13 -140q-8 0 -12.5 9.5t-7 38.5t-2.5 83z" />
    <glyph glyph-name="one" unicode="1" horiz-adv-x="334" 
d="M4 473q0 69 17 93.5t73 24.5q26 0 26 -7q0 63 33 81t116 18q60 0 72.5 -18t12.5 -86v-458q0 -43 -5 -66.5t-21 -35.5t-35.5 -15t-58.5 -3q-52 0 -81.5 18.5t-29.5 76.5q0 214 1 238q-12 -4 -28 -4q-63 0 -77.5 23t-14.5 120zM20 473q0 -85 11.5 -105t64.5 -20q15 0 45 12
q-2 -47 -2 -264q0 -47 25.5 -62t69.5 -15q65 0 84.5 16.5t19.5 85.5v458q0 57 -10 71.5t-59 14.5q-75 0 -104 -15t-29 -66q0 -7 -8 -9t-34 -2q-46 0 -60 -21t-14 -79zM37 473q0 48 11 65t46 17q34 0 46 6.5t12 22.5q0 40 26 51.5t91 11.5q37 0 45 -11.5t8 -56.5v-458
q0 -56 -17 -70t-71 -14q-37 0 -58 11.5t-21 47.5q0 223 3 292q-44 -22 -62 -22q-41 0 -50 17t-9 90z" />
    <glyph glyph-name="two" unicode="2" horiz-adv-x="486" 
d="M31 548q0 61 52.5 99.5t165.5 38.5q137 0 187 -55t50 -195q0 -94 -92 -192q70 -1 87 -22.5t17 -102.5q0 -24 -1.5 -37.5t-9.5 -31.5t-23 -27t-44 -16t-71 -7l-165 1h-50t-36 2t-27.5 2.5t-17 7t-12 10.5t-4.5 16.5t-3 21.5v30q0 86 14.5 129.5t74.5 86.5l30 20l11 6
q25 14 36.5 22t23 25t11.5 38t-4.5 28.5t-15.5 7.5q-19 0 -41 -13q-30 -17 -51 -17q-43 0 -73 52q-19 33 -19 72zM48 548q0 -31 18 -64q24 -42 57 -42q15 0 43 14q27 16 49 16q20 0 28.5 -12t8.5 -42q0 -25 -12 -45t-26.5 -30t-39.5 -24q-2 -3 -18 -11q-9 -6 -24 -15
q-51 -38 -66 -82t-15 -120v-31t6 -19.5t10.5 -13t24.5 -5.5t36 -3h56l165 -1q46 0 74.5 7t40 23.5t14.5 30.5t3 40q0 72 -16.5 89.5t-87.5 17.5h-25q117 110 117 210q0 130 -46 181t-174 51q-104 0 -152.5 -33.5t-48.5 -86.5zM65 548q0 46 44.5 74t139.5 28q118 0 160.5 -47
t42.5 -167q0 -110 -148 -228h73q60 0 73.5 -14.5t13.5 -74.5q0 -21 -2.5 -32.5t-12.5 -25t-35 -19.5t-65 -6l-165 1q-89 0 -103 8q-13 13 -13 46q0 42 1 60t7.5 44.5t22.5 45t43 37.5l24 16q13 5 18 10q29 16 43.5 27t28 33.5t13.5 53.5q0 41 -12 56.5t-42 15.5
q-28 0 -57 -18q-24 -12 -35 -12q-24 0 -43 33q-15 28 -15 55z" />
    <glyph glyph-name="three" unicode="3" horiz-adv-x="476" 
d="M22 126q0 22 5 42q12 44 32.5 61t52.5 17q16 0 34 -7h5q45 -15 75 -15q15 0 15 9q0 6 -37 6q-34 0 -55 9t-29.5 28.5t-10.5 34.5t-2 43q0 67 13 89q-36 5 -58 44q-18 29 -18 67q0 58 50 95.5t159 37.5q61 0 103.5 -17t64 -48t30 -64.5t8.5 -76.5q0 -68 -32 -112
q62 -56 62 -159q0 -54 -17 -94.5t-43 -63t-62.5 -36.5t-68 -18t-67.5 -4q-209 0 -209 132zM39 126q0 -114 192 -114q34 0 63.5 4t63.5 16.5t58 33.5t40 58t16 86q0 109 -71 158q41 43 41 113q0 39 -7.5 70t-27 59t-58.5 43.5t-96 15.5q-100 0 -146 -32t-46 -83q0 -32 15 -57
q18 -37 60 -37q12 0 38 6h-2l4 1h1q1 0 2 0.5t2 0.5q17 7 31 7q15 0 15 -11q0 -12 -15 -12q-56 0 -72 -16t-16 -82q0 -23 1.5 -36t8.5 -29.5t24.5 -24t45.5 -7.5q54 0 54 -24q0 -27 -32 -27q-33 0 -78 15q-1 0 -3.5 0.5t-4.5 0.5q-13 6 -28 6q-25 0 -41 -14.5t-27 -51.5
q-5 -18 -5 -36zM56 126q0 15 5 32q8 29 20 40.5t31 11.5q9 0 24 -6l9 -1v1q41 -16 81 -16q49 0 49 45q0 22 -16 32t-55 10q-22 0 -36 6.5t-19 19.5t-6.5 23.5t-1.5 29.5q0 54 12.5 67t58.5 13q32 0 32 30q0 14 -6 21.5t-26 7.5q-8 0 -34 -7h-2l-2 -1q-23 -7 -38 -7
q-31 0 -46 29q-12 19 -12 47q0 42 42 69.5t133 27.5q98 0 135 -47t37 -123q0 -78 -54 -116q84 -43 84 -155q0 -180 -224 -180q-175 0 -175 96z" />
    <glyph glyph-name="four" unicode="4" horiz-adv-x="635" 
d="M14 210q0 112 50 181l179 238q27 34 66.5 43.5t100.5 9.5h17q56 0 84 -22t28 -82v-214h8q54 0 72 -32.5t18 -86.5q0 -74 -16.5 -98.5t-81.5 -26.5q0 -32 -9 -55t-22.5 -35.5t-36.5 -19.5t-43.5 -8.5t-50.5 -1.5q-67 0 -79.5 14.5t-12.5 80.5v25h-172q-65 0 -82 14t-17 76
zM32 210q0 -50 14 -61t67 -11h190v-43q0 -54 10 -65.5t64 -11.5q27 0 45 1.5t38.5 7t32.5 16.5t20 30t8 47v18h4q63 0 78.5 20.5t15.5 86.5q0 46 -14.5 73.5t-57.5 27.5h-26v232q0 50 -23.5 68t-70.5 18h-17q-56 0 -92.5 -8.5t-60.5 -37.5l-179 -237q-46 -63 -46 -171z
M50 210q0 102 42 161l179 237q20 24 53 31t86 7h17q38 0 57 -14t19 -54v-250h44q55 0 55 -83q0 -55 -13 -72t-64 -17h-22v-36q0 -53 -32 -68.5t-94 -15.5q-41 0 -48.5 9t-7.5 50v61h-208q-42 0 -52.5 8t-10.5 46zM282 328h39v7l-1 41l-15 -19l-18 -21z" />
    <glyph glyph-name="five" unicode="5" horiz-adv-x="485" 
d="M20 101q0 25 8 55q22 84 90 84q25 0 56 -8h2q4 -2 7 -2l-7 2q7 0 7 -2l18 -4q13 -3 23 -3q26 0 26 18q0 15 -16 19t-65 4q-67 0 -85 12.5t-18 73.5q0 7 2 29l4 52l3 29l7 88q2 34 3.5 46t5.5 33.5t10.5 28t19.5 16t31.5 11.5t45.5 2h151q69 0 94 -15t25 -70q0 -22 -5 -41
v1q-9 -53 -17 -77t-22 -34q73 -61 73 -190q0 -64 -17 -113.5t-43.5 -79t-64 -48.5t-73 -26t-75.5 -7q-30 0 -45 2h3q-94 8 -128 33t-34 81zM37 101q0 -46 30.5 -67t115.5 -30h-1q11 -1 42 -1q37 0 70.5 6.5t68.5 24t60 45t41 74t16 106.5q0 148 -101 197q32 4 44 24.5
t24 82.5q3 11 3 37q0 43 -21 55t-80 12h-151q-16 0 -28 -1.5t-21.5 -3t-16.5 -7.5t-11.5 -8.5t-8 -13.5t-5.5 -15t-4 -20.5t-2.5 -22.5t-1.5 -28q-1 -16 -3.5 -48t-3.5 -40l-3 -30l-4 -51q-2 -20 -2 -28q0 -48 15.5 -58t70.5 -10q59 0 78.5 -7t19.5 -34q0 -35 -43 -35
q-18 0 -27 2l-22 6h1q-32 8 -58 8q-54 0 -73 -70q-8 -30 -8 -51zM54 101q0 19 8 46q7 29 20 43t36 14q24 0 49 -7h3l24 -6q11 -3 30 -3q60 0 60 53q0 38 -23 48.5t-92 10.5q-32 0 -43.5 2t-18.5 12.5t-7 35.5q0 7 2 23v3l4 52q8 73 10 119q2 30 3.5 40.5t6 27t12.5 21
t22.5 9t37.5 4.5h151q49 0 66.5 -9t17.5 -40q0 -14 -3 -34q-12 -66 -24.5 -80t-59.5 -14h-63l-1 -13q21 0 40.5 -3t46.5 -15t46 -32.5t33 -59t14 -90.5q0 -69 -21.5 -118t-58 -74t-75.5 -35.5t-83 -10.5q-29 0 -40 1h1q-77 7 -104 24t-27 55z" />
    <glyph glyph-name="six" unicode="6" horiz-adv-x="490" 
d="M12 317q0 86 19.5 154t49.5 108.5t68.5 67.5t73 36.5t66.5 9.5q105 0 147 -25t42 -85q0 -18 -8 -47q-15 -54 -42 -76q74 -49 74 -215q0 -70 -21.5 -121t-58 -78.5t-79 -40.5t-91.5 -13q-240 0 -240 325zM29 317q0 -307 223 -307q45 0 84.5 12t74 38t54.5 73.5t20 111.5
q0 100 -25.5 150t-78.5 65q51 6 73 80q7 28 7 43q0 51 -38 71.5t-134 20.5q-30 0 -62.5 -9t-68.5 -34.5t-64 -64t-46.5 -103.5t-18.5 -147zM46 317q0 78 17 140t43.5 98.5t60 60.5t63.5 32.5t59 8.5q86 0 120.5 -16.5t34.5 -57.5q0 -11 -6 -37q-12 -39 -28.5 -53.5
t-43.5 -14.5q-20 0 -29 2h1q-24 4 -40 4q-24 0 -51 -46q32 13 64 13q82 0 119.5 -43.5t37.5 -162.5q0 -60 -18.5 -103.5t-50.5 -67.5t-68.5 -35t-78.5 -11q-206 0 -206 289zM233 247q0 -34 4.5 -47t19.5 -13q20 0 29 13.5t9 49.5q0 33 -6.5 44.5t-26.5 11.5q-19 0 -24 -13
t-5 -46zM250 247q0 41 12 41q10 0 13 -8t3 -30q0 -45 -21 -45q-7 0 -7 42z" />
    <glyph glyph-name="seven" unicode="7" horiz-adv-x="464" 
d="M11 551q0 45 3.5 67.5t18 39t41 21t75.5 4.5h194q36 0 55.5 -0.5t37 -6.5t24.5 -12.5t12.5 -25t6 -37t0.5 -55.5q0 -48 -9 -64.5t-52 -52.5l-25 -22q-58 -61 -58 -276q0 -34 -2 -55.5t-10.5 -36.5t-16 -22.5t-29 -11.5t-37.5 -4.5t-54 -0.5q-70 0 -86.5 18t-16.5 93
q0 201 72 323h-23q-78 0 -99.5 23.5t-21.5 93.5zM28 551q0 -60 18.5 -79.5t85.5 -19.5h55q-87 -117 -87 -341q0 -63 14 -78t72 -15q33 0 47.5 0.5t33.5 4t25.5 9.5t14.5 19.5t9.5 32t1.5 47.5q0 224 62 289l27 22q39 33 47 47.5t8 56.5q0 32 -0.5 48t-5.5 32t-10.5 22
t-21 11t-32.5 5.5t-49 0.5h-194q-81 0 -101 -20.5t-20 -93.5zM45 551q0 61 17.5 78.5t86.5 17.5h194q73 0 87.5 -14.5t14.5 -86.5q0 -36 -7 -48t-42 -41l-26 -23q-69 -65 -69 -303q0 -24 -1.5 -40t-8 -27t-12.5 -16.5t-22.5 -8t-29 -3t-41.5 -0.5q-47 0 -58 12t-11 63
q0 243 108 360q-30 -1 -93 -1q-56 0 -71.5 16.5t-15.5 64.5z" />
    <glyph glyph-name="eight" unicode="8" horiz-adv-x="486" 
d="M12 234q0 74 52 131q-37 47 -37 108q0 95 53 153t172 58h5q120 0 172 -57.5t52 -153.5q0 -60 -33 -107q50 -47 50 -132q0 -108 -59.5 -173t-180.5 -65h-6q-122 0 -181 65t-59 173zM29 234q0 -100 55 -160t168 -60h6q112 0 167.5 60t55.5 160q0 78 -57 130q40 43 40 109
q0 87 -48 140t-159 53h-5q-111 0 -159 -53t-48 -140q0 -64 42 -109q-58 -51 -58 -130zM46 234q0 83 69 128q-25 19 -39 50t-14 61q0 79 44.5 127.5t145.5 48.5h5q101 0 145.5 -48.5t44.5 -127.5q0 -73 -50 -111q67 -42 67 -128q0 -91 -51 -146.5t-155 -55.5h-6
q-104 0 -155 55t-51 147zM222 225q0 -48 34 -48q35 0 35 51q0 31 -10 43.5t-32 12.5q-15 0 -21 -13.5t-6 -45.5zM231 471q0 -52 21 -52q24 0 24 55q0 26 -25 26q-20 0 -20 -29zM239 225q0 41 10 41q25 0 25 -38q0 -33 -18 -33q-17 0 -17 30zM248 471q0 11 3 11q7 0 7 -8
q0 -37 -6 -37q-4 0 -4 34z" />
    <glyph glyph-name="nine" unicode="9" horiz-adv-x="489" 
d="M12 440q0 70 21 121t58 79t79 40.5t92 12.5q239 0 239 -325q0 -86 -20 -154.5t-49.5 -109t-68.5 -67t-73 -36t-67 -9.5q-105 0 -146 24t-41 85q0 21 6 47q16 57 41 76q-71 54 -71 216zM29 440q0 -180 96 -217q-23 -5 -38.5 -23t-27.5 -57q-6 -25 -6 -42q0 -51 37 -71
t133 -20q30 0 62.5 9t69 34.5t64.5 64t46.5 103.5t18.5 147q0 307 -222 307q-99 0 -166 -55.5t-67 -179.5zM46 440q0 60 18.5 104t50.5 67.5t68.5 34.5t78.5 11q205 0 205 -289q0 -96 -25.5 -167t-65 -106.5t-78 -51t-75.5 -15.5q-86 0 -119.5 16t-33.5 57q0 16 6 37
q11 41 27.5 55t43.5 14q12 0 28 -2h-1q36 -3 41 -3q32 0 57 38q-27 -12 -65 -12q-81 0 -121 46.5t-40 165.5zM218 435q0 -33 6.5 -44t26.5 -11q19 0 23.5 12.5t4.5 45.5q0 36 -4 48t-20 12q-20 0 -28.5 -13.5t-8.5 -49.5zM235 435q0 45 20 45q7 0 7 -42q0 -40 -11 -40
q-10 0 -13 7.5t-3 29.5z" />
    <glyph glyph-name="colon" unicode=":" horiz-adv-x="164" 
d="M3 112q0 59 25.5 88.5t67.5 29.5q41 0 67 -29.5t26 -88.5t-26 -89t-67 -30q-42 0 -67.5 29.5t-25.5 89.5zM3 507q0 59 25.5 88.5t67.5 29.5q41 0 67 -29.5t26 -88.5q0 -60 -25.5 -89.5t-67.5 -29.5t-67.5 29.5t-25.5 89.5zM17 112q0 -50 22 -75.5t57 -25.5q36 0 58 25.5
t22 75.5t-22 75t-58 25q-35 0 -57 -25.5t-22 -74.5zM17 507q0 -51 22 -76t57 -25q36 0 58 25t22 76q0 50 -22 75t-58 25q-35 0 -57 -25.5t-22 -74.5zM31 112q0 41 18 61.5t47 20.5t47.5 -20.5t18.5 -61.5q0 -42 -18.5 -63t-47.5 -21t-47 21t-18 63zM31 507q0 41 18 61.5
t47 20.5t47.5 -20.5t18.5 -61.5q0 -42 -18 -63t-48 -21q-29 0 -47 21t-18 63z" />
    <glyph glyph-name="semicolon" unicode=";" horiz-adv-x="222" 
d="M5 -32q0 48 30 71q-21 32 -21 88q0 60 29.5 90.5t82.5 30.5q61 0 92 -37.5t31 -135.5q0 -82 -46.5 -130t-109.5 -63q-42 -8 -65 16.5t-23 69.5zM5 516q0 60 28 90.5t73 30.5q44 0 72 -30.5t28 -90.5q0 -61 -28 -91t-72 -30q-45 0 -73 30t-28 91zM20 -32q0 -36 18.5 -55.5
t51.5 -12.5q58 14 100.5 57.5t42.5 117.5q0 88 -27 121.5t-80 33.5q-46 0 -71.5 -26.5t-25.5 -76.5q0 -67 33 -92q-42 -20 -42 -67zM106 619q-38 0 -62 -26t-24 -77t24 -77t62 -26t61.5 26t23.5 77t-24 77t-61 26zM35 -32q0 23 11.5 35t31.5 20q23 7 29 16v1h-1
q-62 0 -62 87q0 85 82 85q45 0 68.5 -30t23.5 -107q0 -67 -38.5 -105.5t-91.5 -51.5q-25 -5 -39 9t-14 41zM55 452q-20 22 -20 64t20 63.5t51 21.5t50.5 -21.5t19.5 -63.5t-19.5 -63.5t-50.5 -21.5t-51 21z" />
    <glyph glyph-name="less" unicode="&#x3c;" horiz-adv-x="377" 
d="M22 286q0 51 73 107h-1l109 86q58 44 87 44q23 0 39 -10.5t34 -35.5q17 -28 17 -54q0 -51 -76 -111q-4 -3 -32 -26l47 -37h-2q39 -28 54.5 -49t15.5 -48t-24 -59q-32 -40 -71 -40q-40 0 -99 49l-105 84q-66 48 -66 100zM39 286q0 -45 59 -86l-2 1l107 -86q55 -45 89 -45
q33 0 58 33q21 27 21 49t-14.5 40t-48.5 43l-64 51q31 23 50 40q69 53 69 97q0 22 -14 45q-30 38 -59 38q-22 0 -77 -41q-12 -10 -50.5 -39.5t-58.5 -46.5q-65 -50 -65 -93zM55 286q0 36 59 80l109 85q50 38 67 38q21 0 44 -28q13 -22 13 -38q0 -35 -62 -84l-59 -45
q-2 -3 -12 -9l17 -10l68 -54q30 -23 42.5 -38t12.5 -31t-17 -38q-19 -27 -45 -27q-28 0 -80 42l-105 85q-52 37 -52 72z" />
    <glyph glyph-name="equal" unicode="=" horiz-adv-x="375" 
d="M10 166q0 59 24 80q-24 18 -24 63q0 25 2.5 38.5t12.5 31.5t36 26t68 8h136q86 0 106.5 -13.5t20.5 -76.5q0 -45 -21 -66q21 -15 21 -77q0 -57 -32 -76.5t-110 -19.5l-137 2q-55 2 -79 18t-24 62zM26 166q0 -37 20.5 -49.5t67.5 -14.5q76 -1 136 -1q69 0 97 16t28 63
q0 40 -8.5 54t-37.5 18q46 14 46 71q0 52 -17.5 63t-92.5 11h-136q-36 0 -58.5 -7t-31.5 -22t-11 -26.5t-2 -32.5q0 -28 12 -42t38 -18q-17 -5 -28 -13.5t-15.5 -21t-5.5 -22.5t-1 -26zM43 166q0 18 1.5 27.5t9 21.5t26.5 17.5t49 5.5h136q64 0 79 -8.5t15 -49.5
q0 -37 -24.5 -50t-84.5 -13l-136 1q-41 1 -56 10t-15 38zM43 309q0 17 1.5 26.5t9 22t26.5 18t49 5.5h136q64 0 79 -8.5t15 -49.5q0 -37 -24.5 -50t-84.5 -13l-136 1q-40 1 -55.5 10t-15.5 38z" />
    <glyph glyph-name="greater" unicode="&#x3e;" horiz-adv-x="378" 
d="M17 425q0 28 23 59q28 39 71 39q38 0 100 -47l106 -86q35 -28 50 -49.5t15 -50.5q0 -48 -73 -106q-9 -8 -28 -23t-28 -23q-29 -21 -52 -41q-57 -43 -88 -43q-38 0 -71 45q-17 31 -17 55q0 52 73 111l-3 -4l8 7l4 4l23 18l-45 37q-68 53 -68 98zM34 425q0 -36 61 -84
l64 -52q-14 -10 -18 -12l-23 -18q-3 -3 -6 -4l-5 -6l1 2q-67 -53 -67 -97q0 -19 16 -49q25 -34 56 -34q25 0 78 40l52 41l56 45q67 52 67 93q0 24 -13.5 43t-44.5 43l-107 86q-55 44 -90 44q-34 0 -58 -33q-19 -28 -19 -48zM50 425q0 13 16 38q20 26 45 26q28 0 80 -41
l107 -86q51 -39 51 -72t-59 -79l-109 -86q-48 -37 -68 -37q-22 0 -42 28q-14 24 -14 38q0 36 61 83q1 1 6 5t6 6l49 35l-1 -1l12 7l-19 13l-66 53q-55 41 -55 70z" />
    <glyph glyph-name="question" unicode="?" horiz-adv-x="423" 
d="M12 561q0 81 122 127h-1q48 19 100 19q61 0 110.5 -29t70.5 -74q19 -39 19 -91q0 -56 -28.5 -107t-84.5 -80q-29 -15 -31 -15q0 -48 -21 -75q50 -35 50 -111q0 -65 -36.5 -99t-93.5 -34t-93 34t-36 99q0 66 36 100q-40 27 -40 106q0 73 37 111q-37 8 -60 53l1 -1
q-21 34 -21 67zM29 561q0 -25 18 -57q27 -47 70 -47q16 0 32 4q-41 -24 -59.5 -51.5t-18.5 -78.5q0 -86 61 -103q-56 -26 -56 -103q0 -57 31 -86t81 -29t81.5 29t31.5 86q0 84 -69 108q40 18 40 80q0 7 5.5 11t35.5 19q51 26 77 72.5t26 97.5q0 45 -17 84q-17 40 -63 66
t-103 26q-51 0 -94 -18q-110 -43 -110 -110zM45 561q0 55 100 93q43 17 88 17q52 0 93.5 -23t57.5 -59q15 -33 15 -76q0 -47 -23.5 -89t-69.5 -65q-37 -18 -44 -24.5t-7 -21.5q0 -37 -17 -53.5t-57 -16.5q-20 0 -32.5 2t-28.5 9.5t-24 26.5t-8 50q0 52 22 77t76 52l21 11
l12 7h-1q22 12 18 25q-4 4 -11 4q-9 0 -22 -5q-62 -27 -86 -27q-21 0 -33 9t-23 29q-16 28 -16 48zM118 52q-26 25 -26 73t26.5 72.5t69.5 24.5t69.5 -24.5t26.5 -72.5t-26.5 -72.5t-69.5 -24.5t-70 24z" />
    <glyph glyph-name="at" unicode="@" horiz-adv-x="787" 
d="M14 278q0 115 29 197.5t84 128.5t123 66.5t157 20.5q391 0 391 -411q0 -289 -215 -292q-4 -46 -60.5 -82.5t-134.5 -36.5q-164 0 -269 105.5t-105 303.5zM32 278q0 -189 100 -290t256 -101q74 0 125.5 33.5t51.5 74.5q0 4 -2 12q4 -1 10 -1q25 0 44 2t52 17t54.5 41.5
t38.5 81.5t17 132q0 393 -372 393q-84 0 -149.5 -19.5t-117.5 -63.5t-80 -123t-28 -189zM50 278q0 105 26.5 180t76 117t112 60.5t142.5 18.5q354 0 354 -374q0 -52 -8 -93.5t-20 -67.5t-30.5 -45t-34 -28t-36.5 -14t-32 -6t-27 -1q-31 0 -55.5 20.5t-33.5 52.5
q-41 -37 -99 -37q-93 0 -135.5 39t-42.5 104q0 85 50 121t152 36q53 0 61 -1q-5 26 -17.5 35t-36.5 9q-55 0 -67 -24q-4 -14 -19 -22t-33 -8q-31 0 -56.5 17.5t-20.5 43.5q14 60 58 87.5t138 27.5q82 0 136.5 -57t54.5 -161q0 -64 -15 -147q-8 -29 -10 -30q12 1 22 13.5
t17.5 46.5t7.5 86q0 47 -4.5 82.5t-18.5 71t-37.5 58.5t-64 37t-95.5 14q-70 0 -116.5 -18.5t-71 -55.5t-34 -82.5t-9.5 -109.5q0 -117 56.5 -180.5t156.5 -63.5q56 0 88 16q17 8 26 5.5t28 -23.5q14 -17 14 -33q0 -34 -46.5 -62t-112.5 -28q-148 0 -243 96t-95 277z
M196 264v10q0 66 9 106q12 -24 43 -38q-39 -27 -52 -78zM345 209q0 -16 9.5 -23.5t32.5 -7.5q67 0 81 71q-21 -5 -61 -5q-37 0 -49.5 -8.5t-12.5 -26.5zM363 209q0 9 8.5 13t35.5 4q22 0 34 1q-16 -31 -54 -31q-24 0 -24 13z" />
    <glyph glyph-name="A" unicode="A" horiz-adv-x="574" 
d="M18 87q0 28 7 49q46 173 68 266v-1l10 36l43 168l-1 -1q18 67 50 84.5t135 17.5q73 0 100 -17.5t39 -66.5l55 -217l69 -278l2 -16q4 -14 4 -24q0 -58 -28.5 -72.5t-120.5 -14.5q-26 0 -41.5 0.5t-28.5 5.5t-18.5 9t-12 18.5t-8.5 25t-8 38.5v-3l-1 4v-1q0 1 -1 3h-48
q-15 -69 -40.5 -84.5t-115.5 -15.5q-61 0 -85 15.5t-24 71.5zM35 87q0 -45 20.5 -57t71.5 -12q86 0 107.5 14.5t35.5 84.5v1h76l5 -18l-1 1q12 -59 25.5 -71t74.5 -12q82 0 106.5 11.5t24.5 57.5q0 7 -4 21l-1 14l-70 279l-54 216q-11 41 -34.5 56t-87.5 15
q-66 0 -95.5 -6.5t-45 -24t-26.5 -58.5v1q-2 -6 -8.5 -31t-16.5 -66t-18 -70l-9 -37v1l-68 -267v2q-8 -23 -8 -45zM53 87q0 21 8 40l-1 -1l67 267q9 33 21 81t20.5 81t10.5 40q13 49 39 62t112 13q56 0 76 -12t29 -45l55 -217l68 -275l2 -13q3 -10 3 -21q0 -34 -21.5 -42.5
t-91.5 -8.5q-50 0 -61.5 10t-21.5 58l-8 32h-105l-2 -16q-12 -59 -31 -71.5t-94 -12.5q-41 0 -57.5 9t-16.5 42zM283 286h47q-6 23 -24 121l-8 -48z" />
    <glyph glyph-name="B" unicode="B" horiz-adv-x="505" 
d="M12 103v465v57t6 36.5t11.5 25.5t26.5 10.5t40.5 6.5h63.5q101 0 168 -13.5t103 -42t50.5 -64.5t14.5 -88q0 -70 -31 -117q60 -49 60 -164q0 -107 -67.5 -160.5t-213.5 -53.5h-122q-43 0 -63 2.5t-32 15.5t-13.5 29t-1.5 55zM29 103q0 -58 13.5 -71t79.5 -13h122
q137 0 200.5 49t63.5 147q0 117 -68 161q39 47 39 120q0 47 -13.5 80t-48 59t-98.5 38.5t-159 12.5h-44t-31.5 -2.5t-24 -3.5t-15 -10t-10 -13.5t-4 -21.5t-2.5 -28v-39v-465zM47 103v465v42t4.5 27t8.5 18.5t20 7.5t31 5h49q90 0 150.5 -11.5t92.5 -35t45 -53t13 -72.5
q0 -81 -51 -125q81 -34 81 -156q0 -88 -59.5 -133t-187.5 -45h-122q-54 0 -64.5 10t-10.5 56zM228 424h22q19 0 27.5 8.5t8.5 28.5q0 21 -13.5 29.5t-43.5 8.5h-1v-75zM231 196h37q28 0 38.5 9.5t10.5 31.5q0 27 -10 38t-39 11h-37v-90zM246 442v38q22 -2 22 -19
q0 -19 -18 -19h-4zM248 214v54h20q19 0 25 -7t6 -24q0 -23 -31 -23h-20zM266 232h2q14 0 14 5q0 13 -14 13h-2v-18z" />
    <glyph glyph-name="C" unicode="C" horiz-adv-x="495" 
d="M10 351q0 71 13.5 128.5t34 94.5t50 64.5t56 41t58 22t50 10t37.5 1.5q50 0 99.5 -15.5t83.5 -54.5t21 -93q-27 -85 -99 -85q-23 0 -40 4q-1 0 -3 1h-2q-23 5 -44 5q-15 0 -24 -3t-19.5 -13t-16 -36t-5.5 -67q0 -82 13.5 -106.5t40.5 -24.5q15 0 41 6l15 3h-2q22 7 49 7
q63 0 96 -74q24 -63 -40 -119t-180 -56q-46 0 -83.5 7.5t-76 30.5t-64.5 61.5t-42.5 104.5t-16.5 155zM27 351q0 -84 15.5 -147t40 -99.5t61 -58.5t71.5 -29t78 -7q105 0 165 48t39 101q-28 64 -80 64q-23 0 -44 -7l1 1l-14 -3q-37 -7 -46 -7q-37 0 -54 27.5t-17 121.5
q0 38 5 65t12 40.5t19.5 21t21.5 9t24 1.5q19 0 42 -5h3q3 -1 4 -1q22 -4 40 -4q58 0 81 71q11 47 -20 80.5t-76 47t-90 13.5q-18 0 -35.5 -1.5t-47 -9.5t-54.5 -21t-53 -39t-47.5 -61t-32 -89.5t-12.5 -122.5zM44 351q0 64 12 116t30 85t44 57.5t50 37t51.5 20t44 9
t33.5 1.5q41 0 81.5 -11t69.5 -38.5t20 -66.5q-20 -60 -66 -60q-17 0 -37 4q-1 0 -3.5 0.5t-3.5 0.5q-25 5 -45 5q-22 0 -36 -3.5t-30.5 -17.5t-24.5 -47.5t-8 -86.5q0 -56 6 -90.5t19 -50.5t27 -21t36 -5q14 0 49 7l14 3q21 6 40 6q42 0 65 -52q17 -45 -38.5 -85
t-150.5 -40q-41 0 -73.5 6.5t-66.5 27.5t-57 55.5t-37.5 94t-14.5 139.5z" />
    <glyph glyph-name="D" unicode="D" horiz-adv-x="516" 
d="M10 98v476q0 34 1 54.5t8 36.5t12.5 23t24.5 11t34 4.5t50 0.5q50 0 81 -1t71 -4.5t64.5 -10t53.5 -18.5t45.5 -29.5t34 -43t26.5 -59t14.5 -77.5t5.5 -98q0 -63 -7 -112.5t-22.5 -86.5t-34.5 -64t-50 -45t-61 -29t-75.5 -16.5t-85.5 -7.5t-98 -2q-24 0 -38.5 1t-26 6
t-16 9t-7.5 18.5t-3.5 25.5t-0.5 38zM28 98q0 -56 10 -68t64 -12q64 0 106.5 2t91 10t78.5 22.5t59.5 39.5t45.5 61.5t26 89t10 120.5q0 51 -5.5 92.5t-14 73.5t-25 56t-32.5 40.5t-44 28t-51 18t-61 9.5t-68 4t-78 1h-33.5t-25.5 -1.5t-20 -4t-13.5 -8.5t-10.5 -13.5
t-5 -20t-3.5 -27.5t-0.5 -37v-476zM45 98v476q0 37 2 54.5t15 27.5t27 11t51 1q41 0 67 -0.5t59.5 -3t54.5 -7t46.5 -12t41 -19.5t32.5 -28.5t27 -39t18.5 -51t12 -64.5t3.5 -80q0 -65 -9.5 -114.5t-25 -84t-44 -58.5t-57.5 -37.5t-75 -21t-86.5 -9.5t-102.5 -2
q-41 0 -49 9.5t-8 52.5zM228 199h9q54 0 68 32t14 142q0 84 -12.5 103.5t-78.5 19.5v-297zM246 217v261q39 -2 47.5 -20.5t8.5 -84.5q0 -94 -10 -124t-46 -32zM263 242q14 9 18 36.5t4 94.5q0 62 -7 73q-5 7 -15 10v-214z" />
    <glyph glyph-name="E" unicode="E" horiz-adv-x="452" 
d="M10 98v476q0 34 1 54.5t8 36.5t12.5 23t24.5 11t33.5 4.5t49.5 0.5h94q6 0 20 0.5t21 0.5h86q37 0 50.5 -1t26 -11t14.5 -27.5t2 -55.5q0 -73 -8.5 -104t-38.5 -42q20 -10 27 -32t7 -64q0 -55 -5 -81.5t-23 -39.5q38 -6 50 -32t12 -78q0 -93 -18 -114.5t-99 -21.5
q-225 0 -256 -1q-66 0 -78.5 15t-12.5 83zM27 98q0 -56 10 -68t64 -12l256 1q70 0 85 18.5t15 99.5q0 51 -14.5 73t-61.5 22h-139v17h85q64 0 80 21.5t16 97.5q0 50 -13.5 69t-60.5 19h-107v17h94q67 0 83.5 25.5t16.5 111.5q0 56 -12 66.5t-64 10.5h-86q-7 0 -21 -0.5
t-20 -0.5h-94q-30 0 -42.5 -0.5t-29 -4t-21.5 -9.5t-11 -19.5t-7 -31.5t-1 -47v-476zM44 98v476q0 37 2 54.5t15 27.5t27 11t51 1h56q12 0 38.5 0.5t40.5 0.5h86q41 0 50 -8t9 -51q0 -74 -14 -96.5t-69 -22.5h-111v-53h124q36 0 46.5 -15t10.5 -55q0 -64 -13 -82.5
t-66 -18.5h-102v-53h156q37 0 48 -18t11 -59q0 -68 -12.5 -84t-70.5 -16q-225 0 -256 -1q-41 0 -49 9.5t-8 52.5z" />
    <glyph glyph-name="F" unicode="F" horiz-adv-x="437" 
d="M9 98v476q0 36 0.5 55t8.5 36t14 23t29.5 10.5t41.5 5t63 0.5h63q7 0 21 0.5t20 0.5h100q64 0 78.5 -13t14.5 -82q0 -61 -10 -95t-42 -49q24 -9 32 -31.5t8 -66.5q0 -80 -20 -108.5t-94 -28.5h-80v-108q0 -41 -11.5 -67t-36 -37.5t-48.5 -15t-62 -3.5q-65 0 -77.5 15
t-12.5 83zM26 98q0 -56 10 -68t63 -12q34 0 55.5 3t43 12.5t32 32t10.5 57.5v126h97q63 0 80 25t17 94q0 50 -14 69t-61 19h-119v17h106q64 0 81.5 31.5t17.5 105.5q0 56 -11.5 66.5t-63.5 10.5h-100q-6 0 -20 -0.5t-21 -0.5h-63h-43.5t-32.5 -2t-25.5 -4t-16.5 -8t-12 -13
t-5.5 -20.5t-4 -27.5t-0.5 -37v-476zM43 98v476q0 69 17.5 81.5t105.5 12.5h63q13 0 40.5 0.5t39.5 0.5h61q40 0 49 -8t9 -51q0 -64 -14.5 -91.5t-67.5 -27.5h-123v-24q0 -5 0.5 -12.5t0.5 -16.5h135q36 0 47 -15t11 -55q0 -59 -14 -80t-66 -21h-114v-144q0 -55 -31 -71
t-93 -16q-41 0 -48.5 9.5t-7.5 52.5z" />
    <glyph glyph-name="G" unicode="G" horiz-adv-x="575" 
d="M11 351q0 93 25 162.5t60.5 106.5t82.5 59t81 28t67 6q118 0 172 -35.5t54 -96.5q0 -14 -7 -44v1q-17 -60 -61 -74q73 -3 90 -31t17 -131q0 -132 -77 -221t-200 -89q-47 0 -86 7.5t-81 30.5t-71 61t-47.5 104.5t-18.5 155.5zM28 351q0 -84 17.5 -147t45 -99.5t67 -58.5
t76.5 -29t81 -7q114 0 186.5 84t72.5 208q0 38 -1 58.5t-6.5 39.5t-12.5 26t-25.5 13t-38 7t-56.5 1q-45 0 -65.5 -0.5t-47.5 -5t-37 -13.5t-18 -26t-8 -43q0 -38 2.5 -56.5t16 -28.5t26.5 -11t49 -1h9q-10 -49 -46 -49q-34 0 -49 27t-15 116q0 46 8 75.5t23.5 41t28.5 14.5
t33 3t52 -6h1q8 -2 9 -2q24 -4 43 -4q32 0 50.5 14t29.5 52v-1q6 17 6 38q0 114 -208 114q-31 0 -63.5 -5.5t-77 -27t-77.5 -56t-57 -101t-24 -154.5zM46 351q0 83 22.5 146t53.5 96t73 53t72.5 25.5t59.5 5.5q191 0 191 -96q0 -15 -6 -33q-8 -29 -23 -40.5t-40 -11.5
q-15 0 -39 4q-2 0 -6 1t-5 1q-34 6 -55 6q-19 0 -31 -1.5t-29 -9.5t-26.5 -23.5t-16.5 -45t-7 -72.5q0 -101 18.5 -131t62.5 -30q58 0 66 85h-29q-51 0 -63.5 11t-12.5 68q0 21 7 34.5t16.5 20.5t33.5 10.5t42 4t59 0.5q86 0 104 -19t18 -108q0 -117 -67 -195.5t-174 -78.5
q-41 0 -76 6.5t-72 27.5t-62.5 55.5t-42 94t-16.5 139.5zM283 248q10 -17 32 -17q13 0 21 13q-40 0 -53 4zM291 454q26 9 104 11q-1 0 -1 1q-34 6 -50 6q-37 0 -53 -18z" />
    <glyph glyph-name="H" unicode="H" horiz-adv-x="527" 
d="M12 98v476q0 34 1.5 55t9.5 36.5t14.5 22.5t27.5 11t36.5 4.5t53.5 0.5q65 0 87.5 -21t22.5 -85v-120h26v96q0 34 1.5 55t9.5 36.5t15 22.5t27.5 11t36 4.5t52.5 0.5q66 0 88 -20.5t22 -85.5v-475q0 -42 -7.5 -67t-28 -37.5t-44 -15.5t-68.5 -3q-70 0 -87 16.5t-17 81.5
v138h-26v-113q0 -42 -7.5 -67t-28.5 -37.5t-44.5 -15.5t-68.5 -3q-70 0 -87 16.5t-17 81.5zM30 98q0 -54 13.5 -67t72.5 -13q77 0 104.5 18t27.5 87v131h61v-156q0 -54 13.5 -67t72.5 -13q77 0 104 18t27 87v475q0 54 -18.5 71t-74.5 17h-35.5t-27 -1.5t-22.5 -4t-15.5 -8.5
t-12 -13.5t-6.5 -20t-4.5 -27.5t-0.5 -37v-114h-61v138q0 53 -19 70.5t-74 17.5q-33 0 -46.5 -0.5t-32 -4t-24.5 -9.5t-12.5 -19.5t-8 -31.5t-1.5 -47v-476zM47 98v476q0 37 3 55t18 27.5t30.5 10.5t56.5 1q45 0 60 -13.5t15 -56.5v-156h96v132q0 36 3 54.5t18 27.5
t30.5 10.5t55.5 1.5q45 0 60 -13.5t15 -56.5v-475q0 -57 -23.5 -72t-89.5 -15q-47 0 -58 10t-11 52v174h-96v-149q0 -57 -24 -72t-90 -15q-47 0 -58 10t-11 52z" />
    <glyph glyph-name="I" unicode="I" horiz-adv-x="208" 
d="M14 98v476q0 34 1.5 55t8 36.5t12 22.5t23 11t30.5 4.5t44 0.5q55 0 73 -20.5t18 -85.5v-475q0 -80 -25.5 -101.5t-97.5 -21.5q-59 0 -73 16.5t-14 81.5zM29 98q0 -54 11.5 -67t60.5 -13q64 0 86.5 18t22.5 87v475q0 54 -15.5 71t-61.5 17q-39 0 -54 -1.5t-29.5 -12.5
t-17.5 -33t-3 -65v-476zM43 98v476q0 36 2.5 54.5t15 27.5t25.5 10.5t47 1.5q37 0 50 -13.5t13 -56.5v-475q0 -57 -20 -72t-75 -15q-39 0 -48.5 10.5t-9.5 51.5z" />
    <glyph glyph-name="J" unicode="J" horiz-adv-x="273" 
d="M-26 -94q0 68 9.5 99.5t29.5 36t50 -1.5l1 -1v-1v530q0 35 1.5 57t10 37.5t15.5 23t28 11.5t36.5 4.5t51.5 0.5q55 0 73 -21t18 -88v-577q0 -123 -41 -173.5t-120 -50.5q-88 0 -125.5 28t-37.5 86zM-10 -94q0 -49 34 -72.5t113 -23.5q71 0 107.5 46.5t36.5 159.5v577
q0 55 -14.5 72.5t-59.5 17.5h-36t-27.5 -1.5t-22.5 -4.5t-16 -8.5t-12.5 -13.5t-6.5 -20.5t-5 -28.5t-1 -38v-530q0 -18 -20 -16q-38 8 -54 -13t-16 -103zM6 -94q0 70 11 87t40 11q14 -2 26.5 6t12.5 28v530q0 21 2 36t4 26t9.5 17t13 10t21 5.5t26 2t35.5 0.5
q35 0 46.5 -14t11.5 -58v-577q0 -103 -32.5 -145t-95.5 -42q-71 0 -101 19t-30 58zM60 41l1 -1h2z" />
    <glyph glyph-name="K" unicode="K" horiz-adv-x="553" 
d="M11 98v476q0 25 1 43t5 32t7 23t14 15.5t18 9.5t26 5t31.5 2h40.5q63 0 86.5 -18.5t24.5 -75.5q31 42 54 60.5t55 26t91 7.5q49 0 70.5 -16t21.5 -57q0 -39 -62 -110l2 2q-3 -4 -9.5 -12t-8.5 -11l-62 -79l-1 -1l-1 -1l-2 -1q78 -178 109 -240q25 -51 25 -87
q0 -59 -32.5 -74.5t-124.5 -15.5q-56 0 -69.5 9t-35.5 62l-20 48q-1 -78 -32 -99t-118 -21q-70 0 -87 16.5t-17 81.5zM29 98q0 -54 14 -67t72 -13q78 0 105.5 18t27.5 87v84l11 -27l43 -101q19 -45 30 -52.5t58 -7.5q81 0 110 12t29 60q0 30 -23 79q-35 72 -113 249
q1 1 10 13l1 1l62 79q2 4 8 11t9 10l-1 -1q58 69 58 99q0 31 -18 43t-57 12q-83 0 -116 -17t-79 -82q-2 -4 -8 -12l-9 -12l-5 -7v42q0 53 -19 70.5t-75 17.5q-33 0 -46.5 -0.5t-32 -4t-24 -9.5t-12.5 -19.5t-8.5 -31.5t-1.5 -47v-476zM46 98v476q0 24 1 39.5t7.5 26.5
t11.5 16.5t20.5 8t27.5 3t40 0.5q46 0 61 -13.5t15 -56.5v-97q1 2 8.5 13t11.5 16q32 43 35 47q43 60 73 75.5t107 15.5q30 0 43.5 -8t13.5 -29q0 -23 -53 -88v1l-17 -21l-62 -79l-17 -21q95 -215 117 -261q22 -45 22 -71q0 -36 -25.5 -45t-96.5 -9q-38 0 -47.5 6t-25.5 43
q-4 11 -16 39t-30 71t-27 64l-14 -20v-117q0 -57 -24 -72t-91 -15q-47 0 -58 10t-11 52z" />
    <glyph glyph-name="L" unicode="L" horiz-adv-x="420" 
d="M8 98v476q0 34 1 55t8 36.5t12.5 22.5t24 11t33 4.5t48.5 0.5q78 0 99 -19.5t21 -86.5v-346h92q62 0 80.5 -21t18.5 -102q0 -80 -17.5 -103.5t-91.5 -23.5h-240q-36 0 -52 1.5t-25.5 14t-10.5 27t-1 53.5zM25 98q0 -56 9.5 -67t62.5 -11h240q62 0 77.5 20.5t15.5 88.5
q0 69 -15.5 87t-67.5 18h-109v364q0 55 -18 71.5t-85 16.5q-30 0 -42.5 -0.5t-28.5 -4t-21 -9.5t-10.5 -19.5t-6.5 -31t-1 -47.5v-476zM42 98v476q0 37 2 54.5t14.5 27.5t26 11t50.5 1q56 0 71.5 -13t15.5 -57v-382h125q41 0 53.5 -15t12.5 -72t-12.5 -74t-63.5 -17h-240
q-40 0 -47.5 8.5t-7.5 51.5z" />
    <glyph glyph-name="M" unicode="M" horiz-adv-x="751" 
d="M17 98q0 58 5 248l2 111q2 98 2 117q1 25 2.5 43t8 32t11 23t19 15.5t24 9.5t34.5 5t41.5 2h53.5q82 0 120 -18t49 -80l3 -16q17 75 47.5 95.5t117.5 20.5q25 0 37.5 -0.5t34 -1.5t33 -4.5t27.5 -9t24 -15t17 -22.5t13 -31t4 -41q4 -275 9 -444q2 -91 -24.5 -113.5
t-134.5 -22.5q-45 0 -65.5 5t-28.5 22q-19 -19 -48 -24t-87 -5q-53 1 -71.5 6.5t-27.5 26.5q-13 -20 -46.5 -26t-111.5 -6q-68 0 -81 15t-13 83zM35 98q0 -56 10.5 -68t65.5 -12q101 0 126.5 13t26.5 69l8 -20q9 -26 12 -35t14.5 -17.5t25 -9.5t45.5 -1q66 -1 96 9.5
t46 48.5q2 -36 18.5 -46t67.5 -10q96 0 119.5 19.5t21.5 98.5q-3 76 -9 443v1q-1 31 -11 52t-23 32t-39.5 16t-44.5 6t-54 1q-86 0 -112.5 -25.5t-44.5 -121.5l-10 -44q-1 7 -2 13.5t-2.5 13.5t-5 28l-8.5 51q-10 53 -44 68t-108 15q-44 0 -62.5 -0.5t-44 -4t-34.5 -9.5
t-19 -19t-12.5 -31.5t-3.5 -47.5q0 -20 -2 -118l-2 -111q-5 -190 -5 -247zM53 98q0 57 5 247q4 190 4 229q0 21 3 35t6.5 24.5t14.5 17t19 10t29.5 5t36.5 2t49 0.5q33 0 52.5 -2t38.5 -8.5t29 -20.5t14 -37q28 -161 34 -226q18 107 30 163q17 91 39 112t100 21
q32 0 48 -0.5t40 -5t35.5 -13.5t20.5 -26.5t10 -43.5v-1q6 -367 9 -443q1 -67 -19.5 -83.5t-103.5 -16.5q-47 0 -58 12.5t-11 65.5q0 47 2 121q-3 -18 -8.5 -44t-11 -50t-6.5 -26q-13 -54 -39.5 -68t-95.5 -13q-16 0 -24.5 1t-17 1t-12.5 3.5t-8 5t-7 9.5t-5 12.5t-6.5 18.5
t-7.5 23q-22 66 -36 129l2 -115q0 -34 -3 -48.5t-18.5 -25t-39 -12t-75.5 -1.5q-42 0 -50 9.5t-8 52.5z" />
    <glyph glyph-name="N" unicode="N" horiz-adv-x="569" 
d="M13 98v476q0 34 1.5 55t9 36.5t13.5 22.5t25.5 11t34.5 4.5t50 0.5q31 0 50.5 -2t46 -9t47 -25t35.5 -46q4 58 32.5 70t132.5 12q66 0 80 -18.5t14 -87.5v-475q0 -78 -36.5 -100.5t-118.5 -22.5q-45 0 -76.5 19.5t-64.5 81.5l-7 9l-11 26l1 -13q0 -83 -29.5 -103
t-137.5 -20q-24 0 -38.5 1t-26 6t-16 9t-7.5 18.5t-3.5 25.5t-0.5 38zM31 98q0 -56 10 -68t64 -12q97 0 123 17t26 88q-1 37 -2 93q26 -58 52 -106q30 -57 58 -74.5t68 -17.5q29 0 46.5 1.5t37 7.5t30 17t17.5 30.5t7 48.5v475q0 58 -11.5 73t-65.5 15q-41 0 -58 -0.5
t-39 -4t-28 -9t-13.5 -19.5t-8.5 -31.5t-1 -47.5v-29l-16 37v-1l-2 4l-9 20q-14 28 -32.5 45.5t-44 24.5t-44 9t-48.5 2t-43 -0.5t-30 -4t-22.5 -9.5t-12 -19.5t-7.5 -31.5t-1 -47v-476zM48 98v476q0 36 3 54.5t16.5 27.5t28 10.5t51.5 1.5q27 0 44.5 -1.5t40.5 -7.5
t40 -21.5t28 -39.5q37 -83 61 -143v119q0 69 19.5 81.5t110.5 12.5q42 0 50.5 -12t8.5 -58v-475q0 -56 -28.5 -71.5t-91.5 -15.5q-34 0 -58.5 16t-52.5 67q-41 77 -86 182l4 -178q0 -59 -23 -73t-109 -14q-41 0 -49 9.5t-8 52.5zM282 110q0 -3 4 -9z" />
    <glyph glyph-name="O" unicode="O" horiz-adv-x="562" 
d="M11 337q0 170 78 271.5t219 101.5t207 -95.5t66 -265.5q0 -164 -70 -258.5t-200 -94.5q-137 0 -218.5 83t-81.5 258zM28 337q0 -166 77 -245t206 -79q122 0 187 90t65 246q0 161 -61.5 252t-193.5 91q-133 0 -206.5 -96.5t-73.5 -258.5zM46 337q0 154 68.5 245.5
t193.5 91.5q123 0 180 -86t57 -239q0 -148 -60 -233t-174 -85q-121 0 -193 75t-72 231zM230 341q0 -95 17 -125.5t60 -30.5q33 0 45 39t12 126q0 90 -11.5 129.5t-47.5 39.5q-43 0 -59 -41t-16 -137zM247 341q0 86 12.5 123t45.5 37q25 0 33 -35t8 -116q0 -77 -8.5 -112
t-30.5 -35q-34 0 -47 27t-13 111zM265 341q0 -73 9 -96.5t33 -23.5q22 0 22 129q0 70 -5 101.5t-19 31.5q-23 0 -31.5 -32.5t-8.5 -109.5z" />
    <glyph glyph-name="P" unicode="P" horiz-adv-x="465" 
d="M11 98v476q0 34 1 55t8 36.5t12.5 22.5t24.5 11t33 4.5t49 0.5h73q154 0 216 -54t62 -167q0 -108 -59.5 -182t-170.5 -77v-101q0 -82 -27 -102.5t-120 -20.5q-59 0 -80.5 18t-21.5 80zM28 98q0 -51 18 -65.5t67 -14.5q82 0 105.5 17t23.5 88v119h9q108 0 165 69.5
t57 171.5q0 103 -58.5 153t-202.5 50h-73q-30 0 -42.5 -0.5t-29 -4t-21.5 -9.5t-10.5 -19.5t-6.5 -31t-1 -47.5v-476zM45 98v476q0 68 14.5 81t79.5 13h73q134 0 189 -45.5t55 -139.5q0 -95 -52.5 -159t-152.5 -64h-26v-137q0 -58 -20.5 -72.5t-91.5 -14.5q-39 0 -53.5 11.5
t-14.5 50.5zM225 426h29q15 0 19.5 9t4.5 38q0 16 -10 20.5t-43 4.5v-72zM242 444v36q19 0 19 -7q0 -29 -7 -29h-12z" />
    <glyph glyph-name="Q" unicode="Q" horiz-adv-x="561" 
d="M10 341q0 172 78.5 274.5t219.5 102.5q272 0 272 -365q0 -201 -103 -295q2 -9 2 -26q0 -49 -25 -73t-80 -43q-18 -5 -40 -5q-75 0 -95 75v-1l-4 17q-103 24 -164 108t-61 231zM27 341q0 -142 60 -222t161 -101l8 -27q16 -62 78 -62q17 0 35 5q48 17 70 37.5t22 60.5
q0 17 -4 34q105 88 105 287q0 347 -254 347q-133 0 -207 -97.5t-74 -261.5zM45 341q0 156 69 248t194 92q237 0 237 -328q0 -204 -109 -282q8 -18 8 -39q0 -33 -19 -50t-60 -30q-17 -5 -31 -5q-50 0 -61 48l-12 40q-99 15 -157.5 90.5t-58.5 215.5zM230 345q0 -45 13 -106
q6 11 31 21l30 13v1q30 9 56 -17q3 42 3 97q0 91 -11.5 131t-47.5 40q-43 0 -58.5 -41t-15.5 -139zM247 345q0 88 12 125t45 37q25 0 33.5 -36t8.5 -117q0 -43 -1 -64q-21 10 -45 1l-2 -1l-44 -18q-7 42 -7 73zM265 345q0 -24 3 -48l24 11h3q18 5 33 4v42q0 71 -5 103
t-19 32q-23 0 -31 -33t-8 -111z" />
    <glyph glyph-name="R" unicode="R" horiz-adv-x="487" 
d="M11 98v476v55.5t6 35.5t10 23.5t23.5 10t35.5 5.5h55h79q154 0 217 -54.5t63 -166.5q0 -129 -65 -197l17 -42l30 -66q30 -65 30 -93q0 -56 -30 -69.5t-116 -13.5q-56 0 -75.5 9.5t-35.5 48.5q-12 -38 -42 -49t-93 -11q-67 0 -88 17.5t-21 80.5zM28 98q0 -52 17.5 -66
t74.5 -14q71 0 98.5 18.5t27.5 86.5v5l20 -48v1q15 -42 31.5 -51.5t68.5 -9.5q77 0 103 10.5t26 54.5q0 24 -28 85v-1l-31 68l-22 52q69 66 69 194q0 103 -59.5 153t-203.5 50h-79h-48t-30.5 -4.5t-20.5 -8.5t-9 -20.5t-5 -30.5v-48v-476zM46 98v476q0 70 12 82t83 12h79
q135 0 190.5 -45.5t55.5 -139.5q0 -130 -74 -189l29 -64l30 -68q27 -59 27 -77q0 -31 -23 -39t-89 -8q-43 0 -57.5 7.5t-26.5 41.5l-53 123v-87q0 -56 -24 -71.5t-85 -15.5q-46 0 -60 11t-14 51zM229 422h33q13 0 18 9t5 39q0 13 -10 17t-42 4h-4v-69zM246 440v33
q21 -1 21 -3q0 -30 -5 -30h-16z" />
    <glyph glyph-name="S" unicode="S" horiz-adv-x="461" 
d="M20 146q12 58 31.5 78.5t58.5 20.5q16 0 24 -3l15 -3q30 -10 67 -10l-47 25q-81 46 -111 103.5t-30 138.5q0 112 64 163.5t173 51.5q108 0 159 -50.5t33 -115.5q-15 -49 -32.5 -67t-48.5 -18q-15 0 -38 5q-1 0 -10.5 1.5t-15.5 2.5l23 -10q76 -40 112 -94t36 -149
q0 -105 -66.5 -165.5t-176.5 -60.5q-109 0 -171 47t-49 109zM36 141q-12 -52 46 -92.5t158 -40.5q102 0 164 55.5t62 152.5q0 90 -33.5 140t-104.5 87q-77 36 -77 38q0 8 34 8q24 0 57 -7h-1q24 -4 35 -4q24 0 38 15t26 57q15 57 -31 100t-144 43q-101 0 -160.5 -47
t-59.5 -150q0 -76 28.5 -130t104.5 -96q50 -27 62.5 -37t12.5 -21q-11 -1 -35 -1q-43 0 -73 10l-14 4v-1q-8 3 -21 3q-31 0 -47.5 -18t-26.5 -68zM53 138q9 41 21.5 56t35.5 15q11 0 17 -2l15 -4q42 -10 76 -10q53 0 53 19t-15 31.5t-71 42.5q-71 40 -97 90t-26 120
q0 93 55 136t148 43q87 0 129.5 -36t29.5 -84q-10 -34 -20 -46.5t-28 -12.5q-7 0 -31 4q-35 7 -60 7q-51 0 -51 -26q0 -9 17.5 -19.5t67.5 -34.5h2q66 -35 97 -81.5t31 -129.5q0 -89 -57.5 -139.5t-151.5 -50.5q-91 0 -143.5 34t-43.5 78z" />
    <glyph glyph-name="T" unicode="T" horiz-adv-x="480" 
d="M9 558q0 42 0.5 59t4.5 39t10 28t22 13.5t34.5 8t52.5 0.5h275q58 0 76 -23.5t18 -84.5q0 -98 -18.5 -122.5t-99.5 -24.5h-6v-328q0 -42 -8 -67t-28.5 -37t-43 -15.5t-62.5 -3.5q-58 0 -84 19t-26 79v353h-16q-61 0 -81 23.5t-20 83.5zM26 558q0 -50 16.5 -69.5
t67.5 -19.5h34v-371q0 -50 21.5 -65t70.5 -15q70 0 97.5 18.5t27.5 86.5v346h23q69 0 84.5 21.5t15.5 107.5q0 51 -14 70.5t-62 19.5h-275q-30 0 -45.5 -0.5t-29.5 -7t-19 -11.5t-9 -24.5t-4 -34.5v-52zM43 558q0 80 12 96t78 16h275q37 0 48 -15.5t11 -56.5
q0 -74 -13 -92.5t-70 -18.5h-41v-364q0 -56 -23.5 -71.5t-83.5 -15.5q-40 0 -57.5 12t-17.5 50v389h-51q-40 0 -53.5 15.5t-13.5 55.5z" />
    <glyph glyph-name="U" unicode="U" horiz-adv-x="529" 
d="M12 274v301q0 35 1 56t8 37t13 23t25 11t34 4.5t50 0.5q79 0 102.5 -20.5t23.5 -87.5l-7 -305q0 -47 9 -47q14 0 19 8.5t5 31.5l-5 286q0 47 4.5 70t22.5 39.5t48.5 20.5t88.5 4q63 0 77.5 -19t14.5 -88v-322q0 -133 -69 -207.5t-196 -74.5q-133 0 -201 74t-68 204z
M30 274q0 -122 63.5 -191.5t187.5 -69.5q119 0 183.5 70.5t64.5 194.5v322q0 57 -12 73t-63 16q-68 0 -97.5 -9t-39 -31t-9.5 -75q4 -194 4 -287q0 -33 -8.5 -45.5t-32.5 -12.5q-17 0 -22 15t-5 51l7 305q0 55 -20.5 72t-87.5 17q-31 0 -43.5 -0.5t-29 -4t-21.5 -9.5
t-11 -20t-7 -32t-1 -48v-301zM47 274v301q0 25 1 40.5t6 27t9 16.5t18 8t25 3.5t37 0.5q57 0 74 -13.5t17 -57.5l-7 -305q0 -47 8 -65.5t36 -18.5q34 0 46.5 16.5t12.5 59.5l-5 287q0 63 21.5 80t107.5 17q39 0 48 -12.5t9 -58.5v-322q0 -115 -60 -181t-170 -66
q-116 0 -175 65t-59 178z" />
    <glyph glyph-name="V" unicode="V" horiz-adv-x="566" 
d="M23 610q0 34 6.5 54t25.5 28.5t37 10.5t56 2q63 0 88.5 -7.5t35.5 -25.5t20 -68q3 -15 6 -43q0 2 1 3q9 48 18 73t29 42t48.5 21.5t80.5 4.5q59 0 81 -14.5t22 -64.5q0 -15 -11 -55q-5 -15 -43 -187v1l-10 -52q-37 -175 -47 -213v1q-19 -75 -49 -99t-121 -24q-32 0 -49 1
t-37 5.5t-30.5 13t-22.5 25t-20 40.5t-17 60l-32 148l-16 77v-1q-22 112 -39 170q-11 43 -11 73zM40 610q0 -22 12 -67q5 -21 38 -171l16 -76l32 -150q11 -48 22.5 -74t32.5 -38.5t40.5 -15t63.5 -2.5q78 0 107 24t45 86q18 64 48 211l11 52q31 147 43 188q9 34 9 49
q0 39 -18 50t-67 11q-86 0 -115 -24.5t-44 -101.5q-10 -45 -20 -131q-17 152 -21 170q-5 26 -9 38.5t-11.5 24.5t-21 16t-33 6t-52.5 2q-34 0 -49 -1.5t-31.5 -8.5t-22 -23t-5.5 -44zM58 610q0 21 4.5 33.5t18.5 18t26.5 6.5t40.5 1q68 0 84 -11t26 -61q6 -31 21.5 -171.5
t16.5 -160.5q25 229 37 293q13 71 38 91t104 20q39 0 53.5 -7.5t14.5 -35.5q0 -12 -9 -44q-5 -16 -44 -189l-10 -53q-34 -163 -47 -210q-15 -58 -39 -77t-97 -19q-38 0 -55.5 2t-36.5 13.5t-29 35t-20 66.5l-33 148l-15 77q-28 130 -40 171q-10 40 -10 63z" />
    <glyph glyph-name="W" unicode="W" horiz-adv-x="886" 
d="M25 610q0 24 2 40t10.5 26.5t15.5 16t26 8t33 3t45 0.5q85 0 109 -10.5t29 -53.5q15 41 50 52.5t122 11.5q82 0 106.5 -13t34.5 -62q9 53 35.5 64.5t120.5 11.5q72 0 95.5 -17.5t23.5 -73.5q0 -22 -4 -37v-2q-9 -69 -47 -280l1 3q-1 -4 -3 -13t-2 -13l-25 -145
q-13 -74 -40 -100t-114 -26q-111 0 -147 17.5t-50 91.5q-12 -51 -25 -71t-43.5 -29t-98.5 -9q-61 0 -89.5 3t-51 19.5t-31 43.5t-15.5 82q-8 62 -33 204l-9 47l-26 155l-2 21h-1q-2 24 -2 34zM27 576v1l1 -4v1zM43 610q0 -20 3 -34v2l1 -2l1 -18l26 -154l8 -48
q31 -174 34 -205q13 -91 40.5 -111.5t128.5 -20.5q26 0 43 0.5t32.5 4.5t24.5 5.5t17.5 12t12 14.5t9.5 23t8.5 28t8.5 37l12 65l17 -97q13 -63 45.5 -78t133.5 -15q77 0 101 22.5t36 87.5l24 146q0 4 2 12l3 12q39 229 46 278q0 5 1 7v-2q2 18 2 32q0 45 -20 59t-80 14
q-38 0 -55 -0.5t-36.5 -5.5t-25.5 -10t-13.5 -22.5t-9 -34.5t-4.5 -53q-3 -48 -7 -84q-6 21 -14 93q-4 33 -6 46t-8.5 30.5t-13 22t-21.5 10.5t-33 6.5t-50 0.5q-100 0 -128.5 -19t-38.5 -99l-11 -71q-5 40 -7 92q-2 29 -3 39.5t-6.5 25.5t-11 18t-21 8t-33 5.5t-50.5 0.5
q-40 0 -56 -1t-32.5 -8.5t-21 -22.5t-4.5 -44zM61 610q0 41 17.5 49.5t78.5 8.5h44t28.5 -4.5t18 -7t9 -15t5 -21t1.5 -32.5l23 -230q27 175 32 208q8 69 34 85.5t115 16.5q27 0 42.5 -0.5t29 -6t18.5 -9t10.5 -19t7.5 -26t6 -39.5q4 -32 13 -86.5t16 -93.5l7 -39
q18 143 21 211q3 31 4 45.5t7.5 30t11.5 20t22 9t32 4.5h49q50 0 66 -10.5t16 -44.5q0 -16 -3 -29q0 -1 -0.5 -2.5t-0.5 -3.5q-3 -30 -50 -302l-25 -144q-10 -57 -30.5 -76.5t-87.5 -19.5q-92 0 -121 12.5t-40 66.5l-35 204q-15 -93 -30 -173q-6 -25 -7.5 -33t-7 -24.5
t-8.5 -20t-11 -13t-15.5 -10.5t-21.5 -4.5t-29 -4t-38 -0.5q-90 0 -115 18.5t-36 98.5q-6 50 -42 253l-25 153l-2 16q-4 22 -4 34z" />
    <glyph glyph-name="X" unicode="X" horiz-adv-x="575" 
d="M21 74q0 28 30 85l-1 -1l96 198l-26 61l1 -1q-29 60 -45 97l-11 27q-26 58 -26 84q0 51 24.5 65.5t88.5 14.5q74 0 103 -14.5t43 -49.5q16 42 45 53t115 11q59 0 81.5 -14t22.5 -62q0 -20 -19 -63l-2 -7l1 5l-3 -8l2 12l-3 -16q-10 -24 -40 -91.5t-39 -87.5l-7 -16l7 -14
q7 -16 36 -76.5t42 -90.5v-2q36 -67 36 -95q0 -49 -23.5 -63t-88.5 -14q-46 0 -71 3t-42.5 17t-25 28.5t-22.5 50.5l-5 8v2l-1 -1l1 -1h-1q-14 -29 -20 -41.5t-18 -28t-21 -20.5t-28 -10.5t-40 -6t-56 -0.5q-51 0 -70.5 13t-19.5 60zM38 74q0 -36 15.5 -45.5t57.5 -9.5
q64 0 91 7.5t40.5 24t36.5 66.5q5 9 17 48q12 -39 20 -58q12 -30 17 -39.5t15 -23.5t24 -17t34 -5.5t55 -2.5q54 0 74 10.5t20 48.5q0 23 -32 85q-2 1 -2 3l-1 5l-77 164v-1l-11 22l11 24q58 130 78 178l2 9l-1 -6l3 6l3 5q16 41 16 56q0 37 -18.5 47.5t-67.5 10.5
q-46 0 -71.5 -3t-43 -15.5t-25.5 -28.5t-18 -50l-2 -9l-8 30q-14 45 -37.5 60.5t-100.5 15.5q-54 0 -74.5 -11t-20.5 -51q0 -19 24 -77l12 -26q36 -82 43 -98v1l29 -67l-99 -207v1q-28 -53 -28 -77zM56 74q0 18 25 68l103 214l-32 75l-55 123q-23 54 -23 70q0 28 17 36t61 8
q48 0 72.5 -7.5t32.5 -18.5t16 -37l25 -91l11 44l9 26h-1q9 33 15 47t22.5 24t37 11.5t66.5 1.5q39 0 54 -7.5t15 -32.5q0 -13 -15 -48q-6 -11 -6 -13v-1l-93 -210l14 -29l75 -160l2 -5q2 -6 4 -8q30 -57 30 -76q0 -26 -16 -33.5t-61 -7.5q-53 0 -74 6t-29.5 18t-25.5 53
q-14 35 -36 119q-15 -67 -32 -108q-13 -28 -20 -40t-17.5 -24.5t-25 -16t-34.5 -5.5t-56 -2q-31 0 -43 6.5t-12 30.5z" />
    <glyph glyph-name="Y" unicode="Y" horiz-adv-x="580" 
d="M21 622q0 53 28 66.5t107 13.5q55 0 79.5 -8t36.5 -25.5t31 -66.5l4 -10l8 16q29 63 56.5 79t110.5 16q36 0 51.5 -1t32 -8t21.5 -22t5 -43q0 -27 -19 -65l-3 -6q-22 -45 -135 -253q0 -1 0.5 -3.5t0.5 -3.5q2 -78 2 -175q0 -85 -23.5 -104t-125.5 -19q-59 0 -85.5 19
t-26.5 79l5 205l-130 234q-31 54 -31 85zM39 622q0 -24 29 -76l133 -238q-6 -93 -6 -210q0 -49 22.5 -64.5t71.5 -15.5q90 0 110.5 16t20.5 89q0 96 -2 174v13q107 197 136 257l3 5q18 39 18 57q0 21 -4.5 32.5t-18.5 16.5t-26.5 6t-43.5 1q-75 0 -100 -14.5t-51 -70.5
l-25 -56q-2 3 -19 52q-13 34 -19.5 47t-21 25t-33.5 14t-57 2q-68 0 -92.5 -10.5t-24.5 -51.5zM56 622q0 29 21 36.5t79 7.5q61 0 78 -12t36 -64l36 -93q19 50 40 96q23 49 45 61.5t91 12.5q32 0 44.5 -1.5t21.5 -9.5t9 -27q0 -17 -16 -49l-2 -5q-29 -60 -139 -260
q0 -1 0.5 -8t0.5 -10q2 -74 2 -174q0 -60 -18 -73.5t-96 -13.5q-41 0 -59 12t-18 50l6 213l-136 244q-26 50 -26 67z" />
    <glyph glyph-name="Z" unicode="Z" horiz-adv-x="498" 
d="M10 113q0 42 8 72.5t36 86.5q20 37 119 185h-22q-79 0 -94.5 15t-15.5 89q0 37 1 57t6.5 39t13 26t25.5 13t38 7t57 1h176q42 0 65 -2.5t41 -7.5t25 -19t10 -31.5t3 -49.5t-12.5 -70t-57.5 -118l-99 -169h59q48 0 68 -1.5t36 -13.5t18.5 -30.5t2.5 -59.5q0 -36 -0.5 -53
t-6.5 -35.5t-13.5 -24.5t-27.5 -12t-42.5 -6.5t-64.5 -0.5l-196 1h-51.5t-38 2.5t-28.5 3.5t-17.5 8.5t-12.5 13t-5 20.5t-3 26.5v37.5zM166 19l196 -1q37 0 57 0.5t38 5.5t24.5 10.5t12 21t6 30.5t0.5 46q0 62 -16.5 74.5t-91.5 12.5h-90l115 196q43 77 55.5 113t12.5 66
q0 62 -20.5 77t-106.5 15h-176q-87 0 -105 -18.5t-18 -106.5q0 -61 13 -73.5t79 -12.5h55q-110 -163 -137 -212q-27 -51 -34 -80t-7 -70v-39.5t6 -25.5t11 -17.5t25 -7.5t37.5 -4h58.5zM45 113q0 37 7 64t33 78q12 22 50.5 81.5t71.5 108.5l33 49q-30 -1 -89 -1
q-54 0 -64.5 10t-10.5 58q0 75 15.5 91t90.5 16h176q74 0 91.5 -12t17.5 -62q0 -19 -3 -34t-18 -50t-44 -86l-132 -223h122q63 0 77 -10t14 -59q0 -38 -1.5 -53.5t-15.5 -27.5t-35 -13.5t-69 -1.5l-196 1h-40t-29.5 1.5t-22 2.5t-13.5 6t-9.5 8.5t-4 14t-2.5 18.5v25z" />
    <glyph glyph-name="bracketleft" unicode="[" horiz-adv-x="247" 
d="M7 19v572q0 32 1 51t6.5 33.5t10.5 21t20.5 10t27 4t40.5 0.5h78q49 0 63.5 -22t14.5 -80q0 -75 -8.5 -96.5t-45.5 -26.5v-334q35 -1 44.5 -20t9.5 -81q0 -77 -16.5 -101t-80.5 -24h-89q-55 0 -65.5 14.5t-10.5 78.5zM22 19q0 -51 8.5 -62.5t52.5 -11.5h89q54 0 68 20.5
t14 85.5q0 54 -9.5 68.5t-44.5 15.5v368q36 2 45 21t9 85q0 48 -11.5 66t-51.5 18h-78q-24 0 -34.5 -0.5t-24 -3.5t-17.5 -8.5t-8.5 -18t-5.5 -28.5t-1 -43v-572zM38 19v572q0 61 11.5 72.5t63.5 11.5h78q30 0 38.5 -14.5t8.5 -51.5q0 -60 -7.5 -73.5t-45.5 -14.5v-404h6
q32 0 39.5 -10.5t7.5 -55.5q0 -54 -11 -71t-55 -17h-89q-33 0 -39 8.5t-6 47.5z" />
    <glyph glyph-name="backslash" unicode="\" horiz-adv-x="490" 
d="M21 673q0 51 24 65.5t87 14.5q56 0 79.5 -15.5t50.5 -80.5l206 -516l-1 1q27 -65 27 -86q0 -48 -20 -61t-74 -13q-76 0 -103 22.5t-61 117.5q-30 87 -175 432l-11 25l1 -1l-11 27q-19 47 -19 68zM38 673q0 -21 18 -61l11 -26l10 -24q147 -350 175 -433q31 -87 55.5 -108
t92.5 -21q44 0 60 9.5t16 46.5q0 17 -24 78l-207 518v-2q-23 58 -43.5 71.5t-69.5 13.5q-53 0 -73.5 -11.5t-20.5 -50.5zM55 673q0 28 16.5 36t60.5 8q42 0 59.5 -12t38.5 -63l2 -2q62 -165 204 -513q23 -53 23 -71q0 -25 -12.5 -31.5t-46.5 -6.5q-59 0 -81 19t-50 98
q-28 84 -187 458l-13 32l-1 6v-4q-13 33 -13 46z" />
    <glyph glyph-name="bracketright" unicode="]" horiz-adv-x="248" 
d="M7 28q0 66 11 91t44 32v334q-35 1 -45 20t-10 81q0 77 16.5 101t80.5 24h89q56 0 66.5 -14.5t10.5 -78.5v-571q0 -32 -1 -51t-6.5 -34t-10 -21t-20.5 -10t-28 -4.5t-41 -0.5h-77q-50 0 -64.5 22t-14.5 80zM22 28q0 -47 12 -65t52 -18h77q36 0 49.5 1t26 12t14.5 30t2 59
v571q0 51 -8.5 63t-53.5 12h-89q-55 0 -68.5 -20t-13.5 -87q0 -54 9.5 -68t45.5 -15v-369q-35 -4 -45 -24t-10 -82zM38 28q0 57 9 72.5t46 16.5v404h-7q-33 0 -40.5 10t-7.5 55q0 55 11 72t55 17h89q33 0 39.5 -9t6.5 -48v-571q0 -61 -11.5 -72.5t-64.5 -11.5h-77
q-30 0 -39 14t-9 51z" />
    <glyph glyph-name="asciicircum" unicode="^" horiz-adv-x="435" 
d="M-1 212q0 35 53 141v-1q30 60 49 92.5t39 49.5t35.5 20.5t44.5 3.5q27 0 38 -1t29 -8.5t30.5 -24t30 -46.5t39.5 -78q48 -112 48 -144q0 -30 -11.5 -45t-38.5 -31q-19 -11 -46 -11q-33 0 -59 26t-59 79q-38 -58 -65.5 -83.5t-56.5 -25.5q-28 0 -48 13l1 -1l-7 3l-8 4
t-7.5 4t-6.5 4t-6.5 4.5t-5 5.5t-4.5 7t-3 7.5t-3 9.5t-1.5 11.5t-0.5 14.5zM16 212q0 -19 5.5 -30.5t11 -15t21.5 -11.5q2 -2 4 -2q19 -12 41 -12q25 0 52 27.5t67 91.5l11 19l22 -36l3 -9q6 -10 16.5 -28t16 -26t14 -17.5t17.5 -13.5t21 -4q16 0 38 10q22 13 31.5 25
t9.5 36q0 27 -47 137q-25 56 -42.5 86.5t-36.5 44t-31.5 15.5t-40.5 2q-48 0 -75.5 -26t-77.5 -129q-51 -107 -51 -134zM33 212q0 27 50 126q49 100 72 123.5t65 23.5q32 0 46.5 -5t36.5 -35t52 -98q46 -105 46 -131q0 -18 -7.5 -27.5t-24.5 -18.5q-16 -8 -30 -8
q-11 0 -20 6t-13 12t-14 24t-15 26l-3 9q-14 14 -48 82q-5 -25 -23 -53q-37 -59 -60.5 -84.5t-43.5 -25.5q-17 0 -33 9h1l-6 3q-12 6 -15.5 8.5t-8 11t-4.5 22.5z" />
    <glyph glyph-name="underscore" unicode="_" horiz-adv-x="316" 
d="M-47 -20q0 30 43.5 46.5t156.5 16.5q61 0 89.5 -7t34.5 -17.5t6 -33.5q0 -63 -196 -63q-63 0 -91 5.5t-35.5 16.5t-7.5 36zM-31 -20q0 -20 6.5 -28.5t31 -13t80.5 -4.5q180 0 180 51q0 19 -5.5 27t-30.5 13.5t-78 5.5q-71 0 -113 -7t-56.5 -17.5t-14.5 -26.5zM-14 -20
q0 39 167 39q65 0 81.5 -7t16.5 -27q0 -39 -164 -39q-48 0 -69 3.5t-26.5 9.5t-5.5 21z" />
    <glyph glyph-name="grave" unicode="`" horiz-adv-x="264" 
d="M28 701q0 33 58 90q23 20 52 20q27 0 50 -21t57 -74q55 -89 55 -121q0 -37 -38 -69q-29 -22 -54 -22q-26 0 -50.5 18.5t-68.5 69.5q-35 42 -48 63.5t-13 45.5zM43 701q0 -14 8 -30t16 -26.5t33 -41.5q41 -48 63.5 -65.5t44.5 -17.5q20 0 45 19q31 26 31 56q0 31 -51 112
q-33 49 -53 68.5t-42 19.5q-23 0 -45 -19l-7 -6l-1 -1q-42 -41 -42 -68zM59 701q0 24 30 51q29 27 49 27q17 0 35 -18t46 -63q50 -78 50 -103q0 -23 -26 -44q-18 -15 -35 -15q-18 0 -38 16.5t-58 60.5q-30 36 -41.5 54t-11.5 34z" />
    <glyph glyph-name="a" unicode="a" horiz-adv-x="573" 
d="M23 80q0 24 8 48l70 273q46 185 53 207q17 67 47 82.5t134 15.5q70 0 95.5 -16t37.5 -63l56 -223l70 -283l2 -15q5 -25 5 -26q0 -54 -27 -67t-116 -13q-67 0 -83 14.5t-28 77.5l-1 4q1 0 -1 6h-67q-7 -31 -13 -47.5t-14.5 -29.5t-26.5 -17t-38 -6t-60 -2
q-58 0 -80.5 13.5t-22.5 66.5zM40 80q0 -40 19 -51t67 -11q82 0 102.5 14t35.5 80v8h94l6 -25q10 -53 23.5 -65t70.5 -12q77 0 101 10.5t24 51.5q0 12 -3 22l-4 15l-70 283l-55 222q-11 39 -33 52.5t-83 13.5q-97 0 -123 -12.5t-41 -71.5v1q-12 -45 -52 -209l-71 -274v2
q-8 -23 -8 -44zM58 80q0 15 7 39v-1l70 274q36 147 53 208v-1q13 50 36 60.5t111 10.5q53 0 71.5 -10.5t27.5 -41.5l55 -223l71 -282q1 -6 3.5 -17.5t2.5 -15.5q0 -29 -21 -36.5t-87 -7.5q-47 0 -57.5 9t-19.5 54l-9 39h-123q0 -13 -3 -22q-12 -56 -30 -68t-90 -12
q-38 0 -53 8t-15 36zM275 275h66q-24 108 -34 162l-16 -82zM297 293l10 52l12 -52h-22z" />
    <glyph glyph-name="b" unicode="b" horiz-adv-x="504" 
d="M17 96v479v42t2.5 30.5t4 24t10.5 14.5t16.5 11t26.5 4t35 3h48q101 0 168 -13.5t103 -41t50 -62.5t14 -86q0 -68 -36 -122q66 -51 66 -168q0 -105 -67 -157.5t-212 -52.5h-125q-52 0 -72.5 7t-26 24t-5.5 64zM35 96q0 -53 12.5 -65t73.5 -12h125q137 0 199.5 48
t62.5 144q0 70 -18.5 107.5t-58.5 54.5q47 51 47 128q0 46 -13.5 78t-48 57t-98 37.5t-158.5 12.5h-53.5t-34.5 -5.5t-22.5 -8.5t-9.5 -20.5t-5 -29.5v-47v-479zM52 96v479v25t1 19.5t1.5 16t4 11t6 9.5t10 5.5t13.5 4t19 1t23.5 1.5h29.5q90 0 150 -11t92.5 -34t45.5 -51.5
t13 -70.5q0 -93 -65 -133q95 -25 95 -157q0 -87 -58.5 -130.5t-186.5 -43.5h-125q-49 0 -59 9t-10 50zM221 417h31q24 0 34.5 10.5t10.5 37.5q0 26 -15.5 37t-49.5 11h-11v-96zM225 182h46q33 0 45.5 12.5t12.5 38.5q0 34 -11.5 47.5t-46.5 13.5h-46v-112zM239 435v60
q41 -1 41 -30q0 -30 -28 -30h-13zM242 200v76h29q24 0 32.5 -9.5t8.5 -33.5q0 -33 -41 -33h-29zM256 453q7 0 7 12q0 5 -7 9v-21zM259 218h12q24 0 24 15q0 14 -5 19.5t-19 5.5h-12v-40z" />
    <glyph glyph-name="c" unicode="c" horiz-adv-x="494" 
d="M15 351q0 71 13.5 128.5t34 94.5t49.5 64.5t55.5 41t58 22t50 10t37.5 1.5q35 0 72 -9.5t70 -27.5t49.5 -51t6.5 -74q-22 -72 -90 -72q-8 0 -41 3h1l-4 1q-30 6 -47 6t-28 -3.5t-24 -15t-19 -40.5t-6 -74q0 -48 4.5 -78t14 -44t20 -18t26.5 -4q24 0 46 6l13 3q30 7 47 7
q59 0 91 -70q22 -60 -40.5 -113t-177.5 -53q-46 0 -83 7.5t-75.5 30.5t-64.5 61.5t-42.5 104.5t-16.5 155zM32 351q0 -84 15.5 -147t40 -99.5t60.5 -58.5t71 -29t78 -7q104 0 162.5 45t38.5 96q-26 59 -74 59q-17 0 -43 -7l-14 -2q-26 -7 -49 -7q-21 0 -33.5 4.5t-25 20
t-18 49.5t-5.5 88q0 52 7.5 84.5t23 46t29 17t34.5 3.5q15 0 45 -6q1 0 2.5 -0.5t3.5 -0.5q36 -3 40 -3q55 0 73 57q11 47 -19.5 80.5t-74 47t-87.5 13.5q-27 0 -53.5 -3.5t-71 -23.5t-76.5 -53.5t-56 -102t-24 -161.5zM49 351q0 64 12 116t30 85t44 57.5t49.5 37t51 20
t44 9t33.5 1.5q40 0 79 -11t67 -38t19 -65q-15 -48 -57 -48q-5 0 -11.5 0.5t-14.5 1.5t-12 1q-37 7 -53 7q-25 0 -41 -4t-34 -19t-27 -51.5t-9 -94.5q0 -60 7 -97.5t21.5 -54.5t30 -22.5t40.5 -5.5q7 0 67 9h-1q28 7 40 7q38 0 59 -48q17 -42 -37.5 -79t-148.5 -37
q-41 0 -73.5 6.5t-66.5 27.5t-56.5 55.5t-37 94t-14.5 139.5z" />
    <glyph glyph-name="d" unicode="d" horiz-adv-x="515" 
d="M16 91v489q0 33 1 52.5t7.5 34.5t12 21.5t23.5 10.5t32 4.5t48 0.5q50 0 81 -1t71 -4.5t64.5 -10t53.5 -18.5t46 -29.5t34.5 -43t26.5 -59t14.5 -77.5t5.5 -98q0 -72 -10.5 -126.5t-27 -93t-47.5 -65t-63 -42t-82 -23.5t-95 -10.5t-112 -2.5q-61 0 -72.5 14t-11.5 77z
M33 91q0 -51 9 -62t58 -11q65 0 108 2t91 10t78.5 22.5t60 39.5t45.5 61.5t26 89t10 120.5q0 51 -5.5 92.5t-14 73.5t-25 56t-32.5 40.5t-44 28t-51 18t-61 9.5t-68 4t-78 1q-29 0 -41 -0.5t-27.5 -3.5t-20.5 -9t-10.5 -18.5t-6.5 -29.5t-1 -45v-489zM50 91v489
q0 63 14 75.5t76 12.5q46 0 74.5 -1t65 -4t58.5 -9t48.5 -16.5t42 -26.5t31 -38.5t24 -52.5t13.5 -69t5 -88q0 -65 -9.5 -114.5t-25 -84t-44 -58.5t-57.5 -37.5t-75.5 -21t-87.5 -9.5t-103 -2q-36 0 -43 8.5t-7 46.5zM221 186h18q61 0 77 34.5t16 153.5q0 31 -0.5 45
t-2 32.5t-6 25.5t-11 15.5t-18.5 10.5t-26.5 4t-37.5 2h-9v-323zM238 204v287q55 -1 66 -20.5t11 -96.5q0 -108 -13 -139t-63 -31h-1zM256 223q26 5 33.5 35t7.5 116q0 59 -6.5 77t-34.5 21v-249z" />
    <glyph glyph-name="e" unicode="e" horiz-adv-x="451" 
d="M16 91v489q0 33 1 52.5t7.5 34.5t12 21.5t23.5 10.5t32 4.5t47 0.5h58q12 0 39 0.5t41 0.5h88q59 0 72.5 -12t13.5 -76q0 -90 -16.5 -119t-78.5 -30q51 -1 66.5 -22.5t15.5 -76.5q0 -79 -14.5 -104.5t-71.5 -27.5h35q54 0 70 -24.5t16 -82.5q0 -88 -16.5 -108.5
t-93.5 -20.5q-231 0 -263 -1q-61 0 -72.5 14t-11.5 77zM33 91q0 -51 9 -62t58 -11l263 1q65 0 79 17.5t14 93.5q0 48 -13 68.5t-56 20.5h-151v36h95q61 0 75.5 21t14.5 93q0 46 -12 63.5t-55 17.5h-118v36h105q63 0 78 24.5t15 106.5q0 51 -10.5 60.5t-58.5 9.5h-88
q-14 0 -41 -0.5t-39 -0.5h-58q-29 0 -41 -0.5t-27.5 -4t-20 -9t-10 -18t-6.5 -29.5t-1 -45v-489zM50 91v489q0 64 14 76t75 12q16 0 64 0.5t74 0.5h88q36 0 44 -7t8 -45q0 -71 -12.5 -92t-63.5 -21h-122v-72h135q31 0 40.5 -13.5t9.5 -49.5q0 -61 -12 -78.5t-61 -17.5h-112
v-72h168q33 0 42.5 -16t9.5 -55q0 -63 -11.5 -78t-64.5 -15q-231 0 -263 -1q-36 0 -43 8.5t-7 46.5z" />
    <glyph glyph-name="f" unicode="f" horiz-adv-x="436" 
d="M14 91v489q0 26 0.5 41.5t4 30t6 22t13.5 14.5t17.5 9.5t27.5 4.5t35.5 2h47.5h65q14 0 42 0.5t40 0.5h63q59 0 72 -12t13 -76q0 -78 -18.5 -112.5t-83.5 -36.5h6q53 0 68.5 -21.5t15.5 -77.5q0 -77 -18.5 -104.5t-88.5 -27.5h-92v-120q0 -39 -11 -64t-34.5 -36
t-46.5 -14t-60 -3q-61 0 -72.5 14t-11.5 77zM31 91q0 -51 9 -62t58 -11q33 0 53 2.5t41 12t31 30.5t10 54v138h109q59 0 74.5 23.5t15.5 90.5q0 46 -12.5 63.5t-54.5 17.5h-131q0 8 -0.5 11.5t-0.5 9.5v15h118q32 0 51.5 8.5t28 28t11 39.5t2.5 55q0 51 -10 60.5t-58 9.5
h-63q-12 0 -40 -0.5t-42 -0.5h-65h-54t-36 -4t-25 -9t-12 -18.5t-7.5 -29.5t-0.5 -45v-489zM48 91v489q0 64 17 76t101 12q18 0 70 0.5t77 0.5h63q36 0 43.5 -7t7.5 -45q0 -60 -13.5 -86.5t-62.5 -26.5h-135q0 -12 0.5 -34t0.5 -38h148q31 0 40.5 -13.5t9.5 -49.5
q0 -56 -12.5 -76t-60.5 -20h-126v-156q0 -27 -8.5 -44.5t-27 -25t-36 -9.5t-46.5 -2q-36 0 -43 8.5t-7 46.5z" />
    <glyph glyph-name="g" unicode="g" horiz-adv-x="574" 
d="M16 351q0 93 25 162.5t60.5 106t82.5 59t80.5 28.5t66.5 6q222 0 222 -125q0 -23 -7 -43v1q-12 -41 -33 -57t-56 -16q-21 0 -45 6q-4 1 -11 1q-40 5 -52 5q-20 0 -32 -2.5t-27 -17t-22 -42.5q17 24 54 29.5t120 5.5q40 0 61.5 -1t41 -7.5t27.5 -14t14 -28t7 -43t1 -63.5
q0 -131 -77 -220t-198 -89q-47 0 -85.5 7.5t-80.5 30.5t-71 61t-47.5 104.5t-18.5 155.5zM33 351q0 -84 17.5 -147t45 -99.5t67 -58.5t76 -29t80.5 -7q114 0 185.5 83.5t71.5 207.5q0 37 -1 56.5t-6.5 37.5t-12 25t-24 12.5t-36.5 6.5t-54 1q-38 0 -54.5 -0.5t-41.5 -2.5
t-35 -7t-22 -14t-15.5 -23t-3.5 -34q0 -65 14 -77.5t73 -12.5h21q-10 -69 -59 -69q-27 0 -41.5 9.5t-24 44.5t-9.5 102q0 51 9 83t27 45t32 16t37 3q13 0 55 -5q1 0 5 -1t6 -1q20 -5 42 -5q55 0 73 60q6 18 6 37q0 107 -205 107q-31 0 -63 -5.5t-76.5 -27t-77.5 -56
t-57 -101t-24 -154.5zM51 351q0 83 22.5 146t53.5 96t73 53t72 25.5t59 5.5q116 0 157.5 -33.5t24.5 -87.5q-8 -27 -21 -37t-35 -10q-17 0 -39 5q-44 7 -69 7q-22 0 -34.5 -1.5t-31.5 -10t-29.5 -25t-18.5 -49t-8 -79.5q0 -75 11.5 -114t29.5 -49.5t51 -10.5q73 0 78 106
q-11 -1 -28 -1h-12q-47 0 -58.5 10t-11.5 62q0 16 3.5 26.5t14 17.5t19.5 11t31.5 5.5t37.5 2t49 0.5q83 0 100 -18t17 -103q0 -116 -67 -194.5t-173 -78.5q-41 0 -75.5 6.5t-71.5 27.5t-62.5 55.5t-42 94t-16.5 139.5zM268 267q6 -30 18 -39.5t33 -9.5q28 0 37 33h-7
q-38 0 -54.5 2.5t-26.5 13.5z" />
    <glyph glyph-name="h" unicode="h" horiz-adv-x="526" 
d="M17 91v489q0 32 1.5 52t9 35t14 21.5t26.5 10.5t35.5 4.5t51.5 0.5q61 0 82 -19.5t21 -79.5v-134h47v109q0 32 1.5 52t9 35t13.5 21.5t26 10.5t35 4.5t50 0.5q62 0 83 -19t21 -80v-488q0 -77 -30 -97t-113 -20q-65 0 -80.5 15t-15.5 76v152h-47v-126q0 -77 -30 -97
t-113 -20q-66 0 -82 15.5t-16 75.5zM35 91q0 -49 13 -61t67 -12q73 0 99 17t26 82v144h82v-170q0 -49 12.5 -61t66.5 -12q74 0 100 17t26 82v488q0 50 -17 65.5t-70 15.5q-31 0 -44 -0.5t-30.5 -3.5t-22.5 -9t-12 -18.5t-8 -29.5t-1 -45v-127h-82v152q0 50 -17 65.5
t-68 15.5q-32 0 -45 -0.5t-30.5 -3.5t-23 -9t-12.5 -18.5t-8 -29.5t-1 -45v-489zM52 91v489q0 34 3 51t17 26t29 10t54 1q40 0 54 -12.5t14 -50.5v-169h116v144q0 63 16.5 75.5t84.5 12.5q42 0 56 -12.5t14 -50.5v-488q0 -53 -22.5 -67t-86.5 -14q-42 0 -52 9t-10 46v188
h-116v-162q0 -53 -22.5 -67t-85.5 -14q-43 0 -53 9t-10 46z" />
    <glyph glyph-name="i" unicode="i" horiz-adv-x="190" 
d="M13 91v489q0 32 1 52t7.5 35t11.5 21.5t21.5 10.5t29 4.5t41.5 0.5q50 0 67 -19t17 -80v-488q0 -77 -24.5 -97t-92.5 -20q-53 0 -66 15t-13 76zM28 91q0 -49 10 -61t54 -12q60 0 81.5 17t21.5 82v488q0 50 -14 65.5t-56 15.5q-37 0 -51 -1.5t-27.5 -12t-16 -31
t-2.5 -61.5v-489zM42 91v489q0 63 13.5 75.5t69.5 12.5q33 0 44.5 -12.5t11.5 -50.5v-488q0 -54 -18 -67.5t-71 -13.5q-34 0 -42 9t-8 46z" />
    <glyph glyph-name="j" unicode="j" horiz-adv-x="263" 
d="M-28 -107q-1 89 17.5 112t62.5 15q12 0 12 9v546q0 33 1.5 53.5t9.5 35.5t14.5 22t26.5 11t35 4.5t50 0.5q51 0 67 -19t16 -82v-595q0 -121 -39 -170.5t-115 -49.5q-86 0 -122 26.5t-36 80.5zM-12 -107q0 -45 32.5 -66.5t109.5 -21.5q68 0 103 45.5t35 155.5v595
q0 52 -13 67.5t-54 15.5q-31 0 -44 -0.5t-30.5 -3.5t-23.5 -9.5t-13 -19t-8.5 -30.5t-1.5 -46v-546q0 -16 -10.5 -22.5t-20.5 -3.5q-21 5 -34.5 1t-20 -30t-6.5 -81zM4 -107q-1 64 8.5 80.5t33.5 10.5q18 -3 34 7.5t16 37.5v546q0 23 1.5 38t7.5 25.5t11 15.5t20 7.5t26.5 3
t38.5 0.5q32 0 41.5 -12t9.5 -52v-595q0 -101 -31 -142t-91 -41q-68 0 -97 17t-29 53z" />
    <glyph glyph-name="k" unicode="k" horiz-adv-x="552" 
d="M17 91v489q0 32 1.5 52t9 35t13.5 21.5t26 10.5t35 4.5t51 0.5q63 0 84 -19t21 -80v-20l10 14q50 69 84.5 87t120.5 18q44 0 65 -14t21 -51q0 -34 -62 -107l1 1l-18 -23l-68 -85l-3 -5q80 -184 114 -252q25 -56 25 -84q0 -55 -31.5 -69t-120.5 -14q-53 0 -65.5 8.5
t-33.5 58.5l-39 95v-46q0 -77 -30 -97t-114 -20q-66 0 -81.5 15t-15.5 76zM34 91q0 -49 13 -61t67 -12q74 0 100.5 17t26.5 82v118l3 5l70 -165q17 -42 27.5 -49t54.5 -7q33 0 51 1t37 4t27.5 10t14 19t5.5 31q0 24 -24 77q-39 78 -118 262l14 18l63 80l18 23v-1
q57 70 57 96q0 27 -16 37t-52 10q-57 0 -87 -7.5t-51 -26t-54 -63.5q-5 -8 -17 -24l-18 -24l-5 -7v71q0 50 -17.5 65.5t-70.5 15.5q-31 0 -44 -0.5t-30.5 -3.5t-23 -9t-12 -18.5t-8 -29.5t-1.5 -45v-489zM51 91v489q0 63 17 75.5t85 12.5q42 0 56 -12.5t14 -50.5v-125l37 50
l35 48q43 59 73 74.5t105 15.5q51 0 51 -29q0 -22 -53 -84l-82 -102h1l-21 -26q91 -208 122 -274q22 -49 22 -69q0 -31 -24.5 -39t-92.5 -8q-35 0 -43.5 5.5t-23.5 40.5q-19 48 -81 191l-7 -9l-18 -23v-125q0 -53 -22.5 -67t-86.5 -14q-43 0 -53 9t-10 46z" />
    <glyph glyph-name="l" unicode="l" horiz-adv-x="419" 
d="M14 91v489q0 33 1 52.5t7.5 34.5t11.5 21.5t23 10.5t31.5 4.5t46.5 0.5q74 0 94 -18t20 -81v-365h103q58 0 75.5 -20t17.5 -97q0 -75 -17 -98t-86 -23h-246q-60 0 -71 12.5t-11 76.5zM31 91q0 -51 8.5 -61t56.5 -10h246q58 0 72 19t14 84t-14.5 82t-61.5 17h-120v383
q0 51 -17 66t-80 15q-25 0 -35.5 -0.5t-25 -2t-19.5 -6t-11.5 -11t-8 -19t-3 -28t-1.5 -39.5v-489zM48 91v489q0 64 13.5 76t73.5 12q52 0 66 -11.5t14 -51.5v-383q0 -12 -1 -19q5 1 15 1h123q37 0 48.5 -14t11.5 -67t-11.5 -69t-58.5 -16h-246q-35 0 -41.5 7.5t-6.5 45.5z
" />
    <glyph glyph-name="m" unicode="m" horiz-adv-x="751" 
d="M22 91q0 98 4 255q1 37 2 93t2 91.5t1 49.5q0 24 2 41t8 30.5t10.5 22t19 15t23.5 9t33.5 4.5t40.5 2h52q32 0 51.5 -1.5t41 -6.5t34 -14.5t22.5 -27t15 -42.5q9 -52 11 -71l2 7v-1q11 59 19.5 87.5t28.5 46.5t45 21.5t77 3.5q32 0 48 -0.5t42 -3.5t39.5 -10.5t28 -20
t21 -33.5t7.5 -50q6 -372 9 -457v1q1 -21 1 -35.5t-2 -28.5t-2.5 -22.5t-7 -16.5t-10 -12t-16 -7.5t-19.5 -5t-26.5 -2.5t-32 -1h-40.5q-41 0 -59.5 4.5t-27.5 20.5q-15 -19 -42.5 -23t-103.5 -4q-56 0 -77.5 6t-32.5 30q-11 -22 -43.5 -28.5t-112.5 -6.5q-62 0 -74 14
t-12 77zM40 91q0 -51 9.5 -62t58.5 -11q47 0 70 2t42 6t25 16.5t9 28t3 46.5l-1 23l8 -40q13 -58 30 -70.5t80 -12.5q94 0 116.5 11t37.5 72q0 -54 13.5 -67.5t65.5 -13.5q95 0 117 17.5t20 94.5q-3 86 -9 456v1q0 24 -6 42t-19.5 28.5t-25.5 17t-35 9t-38 3t-44 0.5
q-84 0 -109 -23.5t-44 -120.5q-2 -12 -9 -49t-11 -59q-4 47 -28 173q-9 50 -41.5 63.5t-104.5 13.5h-47.5t-36.5 -1.5t-30.5 -4t-21.5 -8t-17 -12.5t-9.5 -18.5t-7 -26.5t-1.5 -35q0 -14 -1 -49.5t-2 -92t-2 -93.5q-4 -236 -4 -254zM58 91q0 18 4.5 239t4.5 250
q1 63 27.5 75.5t125.5 12.5q64 0 92.5 -11t35.5 -51q23 -120 45 -298q15 109 39 233q17 89 38.5 109t96.5 20q39 0 58 -1.5t44 -8.5t36 -25t12 -47v-1q6 -372 9 -457q2 -68 -15.5 -80.5t-103.5 -12.5q-41 0 -51 11.5t-10 60.5l5 225q-3 -19 -12 -73t-16 -95t-10 -55
q-13 -56 -33 -66t-106 -10q-53 0 -67 10t-24 58q-5 27 -17 82t-20.5 95.5t-9.5 49.5l3 -213q0 -21 -1 -32.5t-6.5 -22t-12 -14.5t-23.5 -7.5t-35.5 -4t-52.5 -0.5q-36 0 -43 8.5t-7 46.5z" />
    <glyph glyph-name="n" unicode="n" horiz-adv-x="569" 
d="M18 91v489q0 32 1.5 52.5t8.5 35t13 21t25 10.5t33 4.5t47 0.5q32 0 52 -2t47 -9.5t47.5 -26.5t34.5 -49l12 -28q0 30 1.5 48t10 32t15.5 20.5t30.5 10t42 4t61.5 0.5q61 0 73.5 -17t12.5 -82v-488q0 -75 -35 -96t-114 -21q-30 0 -48 4.5t-41.5 27t-46.5 68.5
q-7 13 -10.5 17.5t-6 10t-21.5 48.5l2 -59q0 -34 -4.5 -54t-13 -34t-29.5 -19.5t-45 -7.5t-70 -2q-61 0 -73 14t-12 77zM36 91q0 -51 9 -62t58 -11q94 0 119 15.5t25 83.5q-2 61 -3 142q42 -99 72 -151v1q21 -41 42 -62t36.5 -25t42.5 -4q35 0 55 2.5t40 12t28.5 30
t8.5 54.5v488q0 54 -10 67.5t-59 13.5h-43.5t-33 -1.5t-26 -4t-17 -8t-13 -12t-6 -19t-4 -26.5t-0.5 -35v-75q-13 32 -46 104q-13 27 -31 43.5t-43 23.5t-43 8.5t-48 1.5q-29 0 -41 -0.5t-28 -3.5t-21 -9t-11.5 -18.5t-7.5 -29.5t-1 -45v-489zM53 91v489q0 63 15.5 75.5
t77.5 12.5q27 0 44 -1.5t39.5 -7.5t38.5 -20t27 -37q25 -54 80 -192q-1 84 -1 170q0 64 19 76t107 12q36 0 43.5 -11t7.5 -52v-488q0 -52 -26.5 -66.5t-87.5 -14.5q-34 0 -56.5 14t-49.5 67q-29 54 -105 224l4 -224q0 -55 -22 -68t-105 -13q-36 0 -43 8.5t-7 46.5z" />
    <glyph glyph-name="o" unicode="o" horiz-adv-x="561" 
d="M16 337q0 171 77.5 272t218.5 101q140 0 205 -95.5t65 -265.5q0 -165 -68.5 -259t-198.5 -94q-136 0 -217.5 83t-81.5 258zM33 337q0 -166 77 -245t205 -79q121 0 185 90t64 246q0 161 -61 252t-191 91q-133 0 -206 -96.5t-73 -258.5zM51 337q0 154 68.5 245.5
t192.5 91.5q122 0 178.5 -86t56.5 -239q0 -148 -59.5 -233t-172.5 -85q-120 0 -192 75t-72 231zM223 341q0 -103 19 -136t69 -33q38 0 52.5 42t14.5 136q0 98 -13.5 140t-55.5 42q-50 0 -68 -43.5t-18 -147.5zM240 341q0 94 14.5 133.5t54.5 39.5q22 0 33.5 -20t14.5 -52.5
t3 -91.5q0 -84 -10.5 -122t-38.5 -38q-40 0 -55.5 29.5t-15.5 121.5zM258 341q0 -81 11.5 -107t41.5 -26q18 0 25 33.5t7 108.5q0 78 -7 112t-27 34q-30 0 -40.5 -35.5t-10.5 -119.5z" />
    <glyph glyph-name="p" unicode="p" horiz-adv-x="464" 
d="M17 91v489q0 33 1 52.5t7.5 34.5t11.5 21.5t23 10.5t32 4.5t47 0.5h74q152 0 214 -53t62 -164q0 -109 -60.5 -183t-174.5 -74h-1v-113q0 -79 -26 -98t-115 -19q-55 0 -75 17t-20 74zM34 91q0 -46 16 -59.5t62 -13.5q78 0 101 16t23 83v131h18q106 0 162 69t56 170
t-58.5 150t-200.5 49h-74q-29 0 -40.5 -0.5t-27.5 -4t-20 -9t-9.5 -18.5t-6.5 -29.5t-1 -44.5v-489zM51 91v489q0 64 13.5 76t74.5 12h74q133 0 187.5 -44.5t54.5 -136.5q0 -94 -52 -157.5t-149 -63.5h-35v-149q0 -55 -19.5 -68t-87.5 -13q-35 0 -48 10t-13 45zM219 418h38
q21 0 27.5 12t6.5 47q0 22 -12.5 28.5t-51.5 6.5h-8v-94zM236 436v58q22 -1 30 -4t8 -13q0 -24 -3.5 -32.5t-13.5 -8.5h-21z" />
    <glyph glyph-name="q" unicode="q" horiz-adv-x="561" 
d="M15 341q0 173 78 275t219 102q269 0 269 -365q0 -212 -107 -301q4 -16 4 -29q0 -47 -23.5 -69t-76.5 -40q-18 -6 -40 -6q-67 0 -87 70v-1l-7 24q-103 25 -166 110t-63 230zM32 341q0 -144 62 -224.5t164 -99.5q3 -9 9 -34q9 -27 28 -42t43 -15q16 0 33 6q48 16 68.5 34.5
t20.5 56.5q0 20 -5 36q108 85 108 294q0 347 -251 347q-133 0 -206.5 -97.5t-73.5 -261.5zM50 341q0 156 69 248.5t193 92.5q234 0 234 -329q0 -212 -112 -287l2 -7q6 -13 6 -36q0 -30 -17.5 -45.5t-57.5 -28.5q-17 -5 -29 -5q-41 0 -54 44l-13 46q-101 14 -161 90t-60 217z
M223 345q0 -67 20 -141q1 11 3 16.5t10.5 14t23.5 14.5l31 13q28 9 60 -27q6 41 6 119q0 99 -13.5 142t-55.5 43q-50 0 -67.5 -44t-17.5 -150zM240 345q0 96 14 136t54 40q32 0 41.5 -38.5t9.5 -128.5q0 -28 -2 -82q-28 16 -51 7h-1l-31 -12q-20 -10 -25 -14q-9 47 -9 92z
M258 345q0 -38 5 -64q1 0 2 1t2 1l32 14h2q22 6 40 2q1 18 1 55q0 79 -6.5 113.5t-27.5 34.5q-30 0 -40 -35.5t-10 -121.5z" />
    <glyph glyph-name="r" unicode="r" horiz-adv-x="486" 
d="M17 91v489v52.5t5.5 34t9.5 22.5t22.5 9.5t33.5 5.5h52h81q154 0 216 -53t62 -164q0 -130 -69 -201l22 -49l-1 1l31 -70v1q30 -67 30 -91q0 -51 -28.5 -63.5t-112.5 -12.5q-59 0 -75 9.5t-35 58.5v-1l-6 15q-7 -54 -37.5 -69t-98.5 -15q-63 0 -82.5 16.5t-19.5 74.5z
M34 91q0 -47 16.5 -60t68.5 -13q67 0 93.5 17t26.5 82v48l38 -89l-1 1q16 -41 30 -49t65 -8q74 0 99 9.5t25 48.5q0 22 -28 83v-1l-31 70l-28 60q74 64 74 197q0 101 -58.5 150t-202.5 49h-81h-45t-28.5 -4.5t-19 -8t-8.5 -19t-5 -29v-45.5v-489zM52 91v489q0 66 11 77
t77 11h81q134 0 189 -44.5t55 -136.5q0 -136 -78 -192l33 -73v1l31 -70q27 -59 27 -75q0 -27 -22 -33.5t-85 -6.5q-42 0 -54 6.5t-25 39.5h1l-71 166v-133q0 -53 -22.5 -67t-80.5 -14q-42 0 -54.5 9.5t-12.5 45.5zM222 415h43q17 0 24 11.5t7 46.5q0 19 -12 25.5t-49 6.5
h-13v-90zM239 433v54q40 -1 40 -14q0 -24 -3 -32t-11 -8h-26z" />
    <glyph glyph-name="s" unicode="s" horiz-adv-x="460" 
d="M26 138q11 54 29.5 74t53.5 20q9 0 24 -3h-3l16 -4q42 -10 73 -10q16 -1 17 4q0 2 -0.5 3t-1.5 2.5t-2.5 3t-4.5 3.5t-5.5 3.5t-8 4.5t-10.5 5.5t-12.5 7t-15.5 8.5q-83 45 -112 101t-29 139q0 110 63 160.5t170 50.5q106 0 156 -47.5t32 -110.5q-14 -46 -29.5 -63
t-44.5 -17q-15 0 -36 6h1q-22 5 -57 5l-5 -6l50 -24l3 -1q74 -39 109.5 -92.5t35.5 -148.5q0 -103 -66 -162.5t-174 -59.5q-107 0 -167.5 44.5t-48.5 103.5zM42 133q-11 -50 45.5 -87.5t154.5 -37.5q101 0 162 54.5t61 149.5q0 89 -33 138t-103 86l-3 1q-82 40 -82 47
q0 18 45 18q30 0 60 -6h-1q20 -5 33 -5q21 0 33 14t24 53q15 54 -30 94.5t-141 40.5q-99 0 -157.5 -46t-58.5 -147q0 -79 25.5 -130t105.5 -94q55 -29 69 -40.5t14 -26.5q0 -12 -46 -12q-36 0 -76 10q-3 1 -8 3t-8 2l2 -1q-15 3 -20 3q-27 0 -42.5 -17t-24.5 -64zM59 130
q8 39 19 52.5t31 13.5q3 0 31 -6q37 -11 79 -11q63 0 63 30q0 22 -15 36t-77 48q-74 39 -98 86t-24 121q0 91 53.5 133t145.5 42q85 0 126.5 -34t28.5 -78q-13 -42 -26.5 -50t-43.5 1q-32 6 -63 6q-34 0 -48 -8.5t-14 -27.5q0 -13 17.5 -24t76.5 -40l1 -1q65 -33 95.5 -79
t30.5 -128q0 -87 -56.5 -136.5t-149.5 -49.5q-88 0 -139.5 31.5t-42.5 73.5z" />
    <glyph glyph-name="t" unicode="t" horiz-adv-x="480" 
d="M15 564v57.5t4.5 37.5t10 26.5t20.5 12.5t32.5 7.5t50.5 0.5h282q54 0 70.5 -22t16.5 -79q0 -93 -18 -117.5t-94 -24.5h-16v-346q0 -76 -30 -96.5t-106 -20.5q-55 0 -78.5 17.5t-23.5 73.5v372h-27q-58 0 -76 21.5t-18 79.5zM32 564q0 -47 15 -65t62 -18h44v-390
q0 -45 19.5 -59t65.5 -14q66 0 92.5 17t26.5 82v364h33q64 0 79 21t15 103q0 47 -13 65t-56 18h-282q-28 0 -43 -0.5t-28 -6.5t-17.5 -11t-8.5 -23t-4 -32.5v-50.5zM49 564q0 76 11 91t73 15h282q32 0 42 -14t10 -51q0 -70 -12 -88t-65 -18h-50v-382q0 -53 -22.5 -67
t-79.5 -14q-37 0 -52.5 10.5t-15.5 44.5v408h-61q-37 0 -48.5 14t-11.5 51z" />
    <glyph glyph-name="u" unicode="u" horiz-adv-x="528" 
d="M17 272v310q0 33 1 53t8 35t12.5 21.5t24 10.5t32.5 4.5t47 0.5q75 0 97.5 -19t22.5 -82l-7 -314q0 -23 1 -33t5.5 -17t13.5 -7q19 0 26 10.5t7 39.5l-5 295q0 44 4.5 66.5t22 37.5t47 19t85.5 4q58 0 71.5 -17.5t13.5 -82.5v-331q0 -132 -68.5 -206t-194.5 -74
q-131 0 -199 73.5t-68 202.5zM35 272q0 -121 63.5 -190t185.5 -69q118 0 182 70t64 193v331q0 53 -10.5 67.5t-57.5 14.5q-94 0 -117.5 -19t-23.5 -90q5 -199 5 -295q0 -39 -11 -53.5t-40 -14.5q-24 0 -31 17t-7 59l7 314q0 51 -18.5 66.5t-83.5 15.5q-29 0 -40.5 -0.5
t-27.5 -3.5t-20.5 -9t-10.5 -19t-7 -30t-1 -45v-310zM52 272v310q0 64 14 76.5t76 12.5q54 0 69.5 -12t15.5 -52l-7 -314q0 -53 10 -73.5t45 -20.5q39 0 53.5 18.5t14.5 67.5l-5 296q0 59 20.5 74.5t103.5 15.5q35 0 43 -11.5t8 -52.5v-331q0 -115 -59.5 -180t-169.5 -65
q-114 0 -173 64.5t-59 176.5z" />
    <glyph glyph-name="v" unicode="v" horiz-adv-x="566" 
d="M28 617q0 60 25 74t94 14q84 0 104 -14.5t35 -81.5q12 -69 14 -113l12 74q12 61 27 87.5t46.5 37t97.5 10.5q56 0 76 -13t20 -58q0 -17 -11 -53q-9 -29 -43 -194l-12 -52q-36 -175 -48 -218v1q-10 -41 -18 -60t-26 -35t-45 -20.5t-76 -4.5q-47 0 -68 2.5t-43.5 16.5
t-34.5 42t-24 80l-33 153l-17 78q-28 134 -40 176v-1q-12 43 -12 72zM45 617q0 -21 13 -66q9 -36 39 -176l17 -79l33 -153q11 -47 21.5 -72.5t30.5 -37.5t39.5 -14.5t61.5 -2.5q78 0 105 22t43 84q22 84 49 217l11 53q38 172 44 194q9 30 9 48q0 34 -16.5 43.5t-61.5 9.5
q-85 0 -112.5 -22.5t-42.5 -98.5q-16 -92 -28 -220q-25 229 -31 259q-12 57 -29.5 69.5t-92.5 12.5q-32 0 -46 -1.5t-29.5 -7.5t-21 -21t-5.5 -40zM63 617q0 25 10.5 36.5t25 13.5t48.5 2q64 0 79 -10t25 -57q3 -15 49 -431q0 7 7.5 82t18.5 171t20 138q13 73 35 90t102 17
q36 0 48.5 -6t12.5 -29q0 -14 -9 -43q-6 -21 -56 -249q-31 -153 -48 -215q-11 -42 -21 -59t-34.5 -25.5t-75.5 -8.5q-37 0 -54 2t-35 13t-28 34t-19 64l-33 152q-51 232 -57 256q-11 40 -11 62z" />
    <glyph glyph-name="w" unicode="w" horiz-adv-x="887" 
d="M28 617q0 26 5 42.5t11.5 26t25.5 13t34 4.5t51 1h43t32.5 -3t24 -4t15.5 -9t10.5 -12.5t5.5 -20t3.5 -25.5t1.5 -34l2 -22v1q4 34 7.5 54.5t14.5 36t19.5 22.5t32.5 11t43.5 4.5t62.5 0.5q26 0 42.5 -0.5t32 -3.5t23.5 -5t16.5 -11.5t11.5 -15t7.5 -23t6 -28.5t5.5 -39
l3 -23q0 3 0.5 7.5t0.5 5.5q3 38 5 57t9.5 37.5t14.5 24.5t28 11.5t40 6t60 0.5q67 0 89.5 -16t22.5 -68q0 -18 -2 -31q0 -2 -0.5 -4.5t-0.5 -3.5q-9 -62 -53 -311v1l-26 -150q-9 -49 -19 -71t-40 -36t-88 -14q-49 0 -72.5 1.5t-49 6t-36.5 16.5t-20 30.5t-15 49.5v-1
l-11 55l-4 -23q-19 -81 -31 -100q-20 -29 -81 -33q-21 -2 -56 -2q-48 0 -72.5 2.5t-46.5 9t-32.5 24t-18 41.5t-13.5 67q-8 70 -43 259l-26 159l-2 16q-4 24 -4 38zM47 617l3 -36l2 -15l27 -158q35 -198 43 -262q12 -88 38.5 -107.5t125.5 -19.5q25 0 41.5 0.5t31.5 4.5
t23.5 5t17 11.5t12 14.5t9.5 22.5t8 27t8 35.5q4 18 21 121q4 -20 10.5 -56t11 -60t7.5 -37v1q11 -63 41.5 -76.5t133.5 -13.5q39 0 62.5 5.5t37 20.5t19 31t11.5 49l25 150q45 256 52 309l1 2v4q3 14 3 31q0 41 -18.5 53.5t-75.5 12.5q-37 0 -53.5 -0.5t-35.5 -5t-24.5 -10
t-12.5 -21.5t-8.5 -32.5t-3.5 -50.5q-1 -15 -3 -38.5t-6 -58.5t-6 -57q-17 89 -27 163q-4 32 -6 43.5t-8 28.5t-12 21t-21 10t-32 6.5t-47 0.5q-33 0 -48.5 -0.5t-36 -2t-29 -6.5t-19 -12.5t-14.5 -20.5t-8 -29.5t-7 -41.5v1q-11 -74 -22 -146q-13 113 -16 167
q-2 39 -3.5 52t-15 25t-33 13t-66.5 1q-26 0 -37 -0.5t-27 -2.5t-21.5 -6t-12 -11.5t-8.5 -19.5t-2 -29zM65 617q0 36 16.5 43.5t73.5 7.5q71 0 84 -10t15 -64l32 -302q37 229 43 280v-1q3 25 6 40.5t11.5 27t15.5 17t26.5 8.5t35 3.5t49.5 0.5q70 0 84.5 -13.5t23.5 -80.5
q9 -74 50 -286q21 188 28 278q5 75 21.5 89t98.5 14q46 0 61 -9t15 -39q0 -7 -4 -35q-6 -49 -52 -309l-26 -149q-10 -54 -29 -72.5t-82 -18.5q-93 0 -120.5 11.5t-36.5 63.5v-1q-5 26 -16.5 89t-21 118t-9.5 57q-24 -163 -41 -232l1 1q-10 -43 -14 -57.5t-18.5 -29.5
t-35.5 -17.5t-64 -2.5q-87 0 -111 17.5t-35 94.5q-5 43 -43 261l-27 158q-1 7 -2 17.5t-2 17.5t-1 14z" />
    <glyph glyph-name="x" unicode="x" horiz-adv-x="574" 
d="M26 66q0 25 29 81l101 210q-4 11 -14 33l-15 33v-1l-56 127q-26 60 -26 83q0 46 23 59t83 13q58 0 88 -10t40.5 -25t20.5 -49l1 -6q18 62 44 76t120 14q56 0 77 -12.5t21 -55.5q0 -21 -18 -60q-1 -2 -2.5 -6t-2.5 -6l-1 -3l-90 -205l9 -18q8 -17 77 -164l3 -9v-1
q36 -68 36 -94q0 -44 -22 -56.5t-83 -12.5h-51t-35 5t-24 6.5t-16.5 16.5t-13 22.5t-13.5 35.5q-3 7 -4 10v-1q-2 4 -4.5 10t-5 13t-4.5 11l-8 -23q-25 -54 -39.5 -72t-43.5 -26t-98 -8q-48 0 -65.5 11t-17.5 54zM44 66q0 -31 14 -39t51 -8q63 0 89.5 7t40 23.5t35.5 65.5
q10 22 25 77q13 -48 29 -89q23 -55 34 -65q19 -18 84 -19h23q50 0 69 9t19 42q0 18 -33 84q-2 0 -2 5l-3 7l-77 164l-13 26l94 212l1 2q0 3 1 5t2.5 4.5t2.5 4.5l-1 -1q16 41 16 53q0 32 -17 41t-63 9q-64 0 -89 -6t-37 -23t-26 -65v1l-8 -27q0 -1 -1 -7t-2 -9l-18 65
q-12 42 -35.5 56.5t-97.5 14.5q-50 0 -69 -9.5t-19 -44.5q0 -17 24 -75q12 -30 56 -127q31 -70 32 -73l-104 -218q-27 -54 -27 -73zM61 66q0 13 25 65l109 225l-92 208q-23 54 -23 68q0 23 15.5 29.5t55.5 6.5q66 0 86 -12t30 -46l33 -122q6 17 16 52t14 47q11 41 22.5 56
t33.5 20t79 5q35 0 49 -6t14 -26q0 -11 -21 -60q-26 -62 -97 -219l93 -199q1 -2 3 -7t4 -7q29 -58 29 -74q0 -21 -14.5 -27t-55.5 -6q-70 0 -86.5 8.5t-34.5 54.5q-3 6 -4 10q-29 66 -46 163q-14 -93 -40 -151q-11 -23 -16 -33.5t-14 -22.5t-16.5 -15.5t-23 -8t-33 -5
t-46.5 -0.5q-27 0 -37.5 5t-10.5 24z" />
    <glyph glyph-name="y" unicode="y" horiz-adv-x="579" 
d="M26 630q0 48 26.5 60t102.5 12q53 0 77 -7.5t35.5 -24t29.5 -63.5l13 -34l18 38q29 64 53.5 78t108.5 14q28 0 40.5 -0.5t28 -3.5t21 -10t10 -19.5t4.5 -32.5t-19 -63l-3 -6q-29 -61 -139 -260v-12q3 -114 3 -179q0 -81 -23 -99t-121 -18q-55 0 -80 17.5t-25 73.5
q0 53 1.5 106t3.5 79l1 27l-136 245h1q-32 54 -32 82zM44 630q0 -26 29 -73l138 -248q-7 -103 -7 -218q0 -45 20.5 -59t67.5 -14q87 0 106.5 15t19.5 84q0 67 -3 178v17q112 203 142 264l2 6q18 39 18 55q0 14 -3.5 23.5t-8.5 14.5t-18 7t-23.5 2.5t-33.5 0.5
q-57 0 -78 -4.5t-35 -19.5t-33 -58v1q-5 -11 -11 -24t-13 -29.5t-11 -25.5l-28 76q-16 41 -26.5 55.5t-31 21t-68.5 6.5q-65 0 -88 -9t-23 -45zM61 630q0 24 19.5 30t74.5 6q58 0 74.5 -11t35.5 -61l44 -115q18 45 50 117q24 51 42.5 61t88.5 10q30 0 41.5 -1t19.5 -7.5
t8 -21.5q0 -10 -18 -53q-30 -61 -144 -267q0 -2 1 -33t2 -78.5t1 -88.5q0 -56 -17 -68.5t-92 -12.5q-37 0 -53.5 10.5t-16.5 44.5q0 120 7 221l-141 254q-27 44 -27 64z" />
    <glyph glyph-name="z" unicode="z" horiz-adv-x="498" 
d="M16 106q0 42 7.5 72.5t36.5 86.5q25 45 131 206h-40q-73 0 -88 14t-15 83q0 36 1 54.5t6 36.5t12 25t24.5 12.5t36.5 6.5t55 1h180q94 0 116 -16.5t22 -86.5q0 -21 -3 -37.5t-19.5 -56t-48.5 -95.5l-109 -188h77q82 0 101 -14.5t19 -83.5q0 -34 -0.5 -51t-6.5 -34
t-13.5 -23t-27 -11.5t-41 -6t-62.5 -0.5l-201 1h-49.5t-36 2t-27 3.5t-17.5 8.5t-12 12t-5 19.5t-3 25.5v34zM166 19l201 -1h43t32 2.5t24 4.5t16 9t10.5 13t5 19.5t2.5 25.5v34q0 56 -15.5 68t-86.5 12h-108l126 215q43 78 55.5 114.5t12.5 65.5q0 58 -19.5 71.5
t-101.5 13.5h-180q-83 0 -100 -17.5t-17 -100.5q0 -57 12 -68.5t73 -11.5q49 0 74 1q-125 -186 -150 -233q-27 -53 -34.5 -81.5t-7.5 -68.5v-37t6 -23.5t11 -15.5t24 -7t36 -4h56zM50 106q0 37 7 64t34 78q33 62 169 260q-64 -2 -109 -2q-49 0 -58.5 9t-9.5 53
q0 71 14.5 85.5t85.5 14.5h180q71 0 87.5 -10.5t16.5 -56.5q0 -53 -66 -171l-143 -242h140q59 0 72 -9t13 -53q0 -25 -0.5 -36.5t-5 -24t-10 -16.5t-20.5 -8t-31.5 -4.5t-48.5 -0.5l-201 1q-86 0 -101 9t-15 60z" />
    <glyph glyph-name="braceleft" unicode="{" horiz-adv-x="273" 
d="M-39 322q0 52 11.5 76t37.5 31q0 35 -4 90q-4 64 8 107t38 63.5t54 28t65 7.5q55 0 82 -21.5t27 -74.5q0 -96 -47 -107v-1q0 -2 0.5 -8.5t0.5 -9.5l1 -18q2 -18 2 -36q0 -66 -23 -112q30 -48 27 -117q0 -12 -2 -21l1 6q-1 -1 -1 -3q0 -1 -0.5 -3t-0.5 -3v-8
q-4 -54 -4 -69q33 -2 43 -22.5t10 -73.5q0 -57 -28.5 -80.5t-94.5 -23.5q-77 0 -117 40t-36 145l4 52q1 1 1 5q0 1 0.5 6t0.5 6q2 28 2 39q-36 -1 -47 21t-11 89zM-23 322q0 -63 13 -78.5t61 -10.5q-16 -4 -16 -9v-11h-3q0 -1 3 -1q0 -8 -2 -40q0 -2 -0.5 -6t-0.5 -5
q0 -4 -1 -5l-4 -53q-4 -93 32 -129.5t105 -36.5q57 0 82 19.5t25 66.5q0 46 -10 62t-41 16q-1 1 -2 0v10q0 17 4 79v6q0 1 0.5 3t0.5 3q0 2 1 3v-2q1 4 1 18q3 80 -30 114q26 45 26 114q0 16 -2 34l-1 20q0 3 -0.5 9t-0.5 8q-1 8 -1 19q48 0 48 90q0 43 -23 60.5t-70 17.5
q-34 0 -59 -7t-48.5 -25.5t-34.5 -58t-7 -97.5q4 -55 4 -91v-14q-26 -4 -37.5 -24t-11.5 -68zM-7 322q0 44 11.5 59.5t38.5 15.5v31q0 23 -5 93q-6 99 31 133.5t102 34.5q39 0 58 -13.5t19 -46.5q0 -38 -10 -57t-39 -13q1 -1 1 -14q0 -4 2 -42l1 -22q2 -18 2 -32
q0 -76 -32 -117q39 -29 36 -110q0 -11 -1 -14v-2q-1 -2 -1 -4t-0.5 -5t-0.5 -5q-4 -62 -4 -81q0 -28 -5 -30h1q37 4 47 -7t10 -51q0 -37 -21.5 -52.5t-69.5 -15.5q-60 0 -92 32.5t-29 114.5l4 53q0 1 0.5 3t0.5 3q3 37 3 63v8t-0.5 7t-0.5 5.5t-0.5 4t-1.5 2t-2 0.5
q-34 -4 -43.5 9t-9.5 62zM35 212q5 0 12 3q-8 -2 -12 -2v-1z" />
    <glyph glyph-name="bar" unicode="|" horiz-adv-x="230" 
d="M12 1v648q0 65 10.5 95.5t30.5 39t64 8.5q46 0 64.5 -7.5t27.5 -37t9 -99.5v-649q0 -94 -19.5 -119t-82.5 -25q-35 0 -51.5 3t-30.5 18t-18 43.5t-4 81.5zM26 1q0 -46 3.5 -71t15.5 -38t26 -15.5t45 -2.5q54 0 70.5 22t16.5 103v649q0 61 -8 87t-23.5 32.5t-54.5 6.5
q-55 0 -73 -22t-18 -103v-648zM40 1v648q0 69 15 87.5t62 18.5t59.5 -16.5t12.5 -90.5v-649q0 -70 -14 -88.5t-59 -18.5q-33 0 -47 5.5t-21.5 28.5t-7.5 75z" />
    <glyph glyph-name="braceright" unicode="}" horiz-adv-x="274" 
d="M-33 622q0 57 29 80t96 23q78 0 116.5 -39t34.5 -147l-5 -57v-7q-3 -25 -3 -43q35 0 46.5 -22t11.5 -88q0 -58 -10 -81.5t-39 -27.5q0 -35 4 -87q13 -207 -165 -207q-57 0 -83 21.5t-26 75.5q0 94 48 106l-2 21q0 2 -0.5 7.5t-0.5 8.5q-1 10 -1 37q0 63 21 110
q-31 40 -25 121v7q5 44 5 92q-30 2 -41 23.5t-11 72.5zM-17 622q0 -44 11 -61t41 -17v-13q0 -48 -4 -99q0 -1 -1 -3v-2v-2q-6 -74 28 -117q-24 -42 -24 -112q0 -6 0.5 -18.5t0.5 -17.5q0 -3 0.5 -9t0.5 -8l3 -38q-49 -2 -49 -89q0 -44 22.5 -61.5t70.5 -17.5q33 0 58.5 7.5
t49 26.5t34.5 58t7 95q-4 53 -4 91v15q34 1 41.5 17t7.5 75q3 37 -5.5 59t-20.5 27t-22 8t-10 5q0 22 3 55v8l5 56q4 96 -31 131.5t-104 35.5q-59 0 -84 -19t-25 -66zM-1 622q0 36 21.5 51.5t71.5 15.5q61 0 91.5 -31t27.5 -116l-5 -56v-8q-3 -33 -3 -57v-12t0.5 -9
t1.5 -5.5t2 -1.5h1q34 4 43.5 -8.5t9.5 -62.5q0 -47 -9.5 -61t-40.5 -13q1 -1 1 -33q0 -39 4 -92q11 -168 -133 -168q-40 0 -58.5 13.5t-18.5 47.5q0 37 10.5 56t38.5 13v14q0 9 -4 63q0 6 -0.5 17t-0.5 17q0 74 30 116q-41 28 -34 111q0 2 0.5 4t0.5 3q4 51 4 101
q0 27 3 33q-33 -4 -44 7.5t-11 50.5z" />
    <glyph glyph-name="asciitilde" unicode="~" horiz-adv-x="469" 
d="M37 437q0 41 49.5 80t106.5 39q53 0 101 -27h-2l4 -4q5 0 13 6q28 18 53 18q32 0 62 -26q29 -25 29 -56q0 -40 -52.5 -76.5t-115.5 -36.5q-62 0 -102 25l-11 -4l-1 2q-34 -17 -50 -17q-27 0 -56 21q-28 27 -28 56zM54 437q0 -24 22 -46q25 -17 45 -17q13 0 45 14l12 5
q7 2 7 4l3 -3l3 -1l-4 1q43 -26 98 -26q56 0 103.5 32t47.5 67q0 26 -23 46q-26 22 -51 22q-20 0 -42 -16q-14 -8 -25 -8l-12 6q-42 25 -90 25q-51 0 -95 -34t-44 -71zM70 437q0 31 39 60.5t84 29.5q46 0 80 -22h1q18 -9 21 -9q18 0 35 13q19 12 32 12q17 0 39 -18
q18 -17 18 -36q0 -30 -42 -57t-92 -27q-54 0 -87 22h-1q-3 0 -3 3q-8 4 -9 4q-4 0 -16 -7l-8 -3l3 1q-24 -15 -43 -15q-13 0 -33 13q-18 18 -18 36zM185 380l3 -1l-2 1h-1z" />
    <glyph glyph-name="uni00A0" unicode="&#xa0;" horiz-adv-x="222" 
 />
    <glyph glyph-name="exclamdown" unicode="&#xa1;" horiz-adv-x="223" 
d="M7 -39l5 83l4 79l5 85q3 54 14 84q-26 37 -26 97q0 69 32.5 104.5t83.5 35.5t84 -35.5t33 -104.5q0 -52 -21 -89q5 -15 10 -71v-4l6 -115l2 -53l4 -88q3 -78 -23 -105t-109 -27q-38 0 -54.5 2.5t-30.5 15t-17 36.5t-2 70zM22 -39q-2 -73 13.5 -89.5t75.5 -16.5
q74 0 96.5 23t20.5 90l-4 89l-2 52l-6 115v3q-6 61 -15 74q26 31 26 88q0 60 -28.5 91t-73.5 31t-73 -31t-28 -91q0 -61 31 -94q-18 -22 -19 -88l-5 -86l-4 -79v1zM37 -39l5 80l4 79l5 87v-1q1 19 2.5 31.5t5.5 21t7 13t12.5 6.5t14.5 2t20.5 -0.5t24.5 -0.5q10 0 24.5 1.5
t18 1t9.5 -6t7.5 -16.5t3.5 -34v-2l6 -115l2 -52l4 -89q3 -58 -16.5 -76t-85.5 -18q-49 0 -62 13.5t-12 74.5zM39 389q0 52 24 78t62 26t62.5 -26.5t24.5 -77.5q0 -49 -22.5 -66t-64.5 -17t-64 16.5t-22 66.5z" />
    <glyph glyph-name="cent" unicode="&#xa2;" horiz-adv-x="387" 
d="M8 360q0 194 160 249v16q-3 60 18.5 76.5t77.5 16.5q48 0 65 -17.5t18 -71.5l-1 -4q0 -2 -0.5 -5.5t-0.5 -4.5v-5q63 -31 63 -100q0 -23 -7 -44q-17 -53 -35 -63t-65 -6q-7 1 -21 1q-19 0 -26 1q-21 0 -21 -37q0 -23 5 -34.5t9.5 -13t13.5 -1.5h13q11 0 25 2q17 4 30 4
q27 0 42.5 -13.5t31.5 -53.5q7 -18 7 -39q0 -73 -65 -105q2 -16 2 -30q1 -27 -3.5 -44t-10.5 -26.5t-21.5 -14t-26.5 -5t-36 -0.5q-49 0 -67 18t-14 72l1 25q-161 52 -161 257zM25 360q0 -199 162 -244l-3 -39q-2 -43 12 -57t53 -14q26 0 37 1t24 7.5t17 22t3 41.5
q0 5 -0.5 14.5t-0.5 13.5v2q0 2 -0.5 6t-0.5 6q31 14 48.5 39t17.5 54q0 11 -7 32q-13 33 -25.5 44.5t-32.5 11.5q-12 0 -27 -3q-24 -3 -28 -3h-13q-11 -1 -17 0.5t-13.5 7t-11 20t-3.5 39.5t7 38t15 15.5t19 1.5q7 -1 23 -1q15 0 23 -1q23 -3 37.5 -1t24.5 15t20 43
q6 19 6 38q0 30 -17.5 53t-44.5 35v27q1 3 1 4q-1 42 -14.5 56.5t-51.5 14.5q-26 0 -37 -1t-24 -8t-16.5 -22t-2.5 -42v-4v-3l1 -1q0 -17 1 -22v-1q-161 -49 -161 -236zM42 360q0 183 162 222q0 6 -1 17.5t-1 16.5q0 1 -0.5 3t-0.5 4v5q-1 16 1.5 26.5t6 16t13.5 8t17.5 3
t24.5 0.5q32 0 41 -8t9 -42q0 -1 -0.5 -3t-0.5 -4q0 -4 -0.5 -10t-0.5 -8v-23q62 -16 62 -74q0 -19 -5 -32q-11 -34 -22.5 -40.5t-42.5 -4.5q-7 1 -24 1q-15 0 -21 1q-16 1 -27.5 -1.5t-22 -20.5t-10.5 -51q0 -31 5 -50t16 -26t19 -8.5t23 -0.5h12q19 0 31 3q30 5 42 -1
t25 -40q12 -33 -4.5 -63t-57.5 -44l2 -24q2 -22 2 -30q0 -20 -3 -31t-13.5 -16t-19 -6t-29.5 -1q-29 0 -39.5 10t-8.5 42l3 40v15q-68 14 -115 68.5t-47 160.5z" />
    <glyph glyph-name="sterling" unicode="&#xa3;" horiz-adv-x="581" 
d="M14 345q0 42 13 69t53 42q7 243 247 243q93 0 138.5 -34.5t45.5 -95.5q0 -19 -7 -41l1 1q-10 -40 -29.5 -55t-53.5 -15h-18q49 -19 49 -101q0 -57 -21 -78q9 3 21 3q14 0 35 -7l-1 1q66 -27 66 -99q0 -66 -54.5 -127.5t-143.5 -61.5q-59 0 -123 33l-6 4v-1
q-32 -24 -62 -24q-16 0 -39 7q-89 41 -89 106q0 36 23 68l17 20l-2 -2q18 25 20 53q-49 2 -64.5 19t-15.5 73zM31 345q0 -48 15 -61t66 -13v-5q0 -46 -23 -75l-17 -21q-19 -25 -19 -56q0 -54 78 -89q18 -6 33 -6q25 0 50 21l12 7q1 0 15 -9q55 -31 114 -31q81 0 131 56
t50 115q0 61 -54 82q-15 5 -29 5q-35 0 -70 -39q-7 -8 -11 -12.5t-3 -4.5q-10 0 -28 12h1q-21 17 -41 24l6 24q78 1 103 21t25 68t-18 70t-67 22h-39q3 22 11 29t25 7q16 0 36 -5h3q5 -2 8 -2q14 -2 28 -2q26 0 41.5 12t24.5 45v-1q6 21 6 36q0 52 -41 82t-126 30
q-229 0 -229 -238q-41 -12 -54 -36t-13 -62zM49 345q0 34 12.5 54.5t53.5 29.5v12q0 222 212 222q149 0 149 -94q0 -17 -6 -31h1q-6 -25 -17.5 -34t-31.5 -9q-11 0 -27 2l-5 1q-26 6 -43 6q-31 0 -42.5 -13t-12.5 -59h58q39 0 53.5 -18t14.5 -56q0 -41 -23 -56t-103 -15
q-7 -39 -12 -56q22 -2 50 -22q24 -18 39 -18q8 0 25 19v-1q17 23 35.5 33t47.5 1h-2l3 -1q40 -15 40 -64q0 -53 -44.5 -103t-118.5 -50q-54 0 -105 29q-18 11 -24 11q-5 0 -23 -11h1q-30 -26 -66 -12q-67 32 -67 72q0 25 15 45l16 21v-1q10 14 14.5 21t9 24.5t4.5 41.5
q0 3 -0.5 10.5t-0.5 12.5h-8q-46 0 -59 9.5t-13 46.5zM330 252q2 -1 23 -17l-1 1q10 -8 14 -9q-2 2 9 17h1l16 16q-22 -6 -62 -8z" />
    <glyph glyph-name="currency" unicode="&#xa4;" horiz-adv-x="405" 
d="M20 453q0 33 40 71q16 16 24 23.5t21 13t28 5.5q30 0 57 -25q16 2 26 2h15q31 29 61 29q34 0 72 -40q17 -17 23.5 -25t12 -20.5t5.5 -27.5q0 -30 -25 -57q2 -18 2 -26v-13q29 -31 29 -63q0 -20 -8.5 -34.5t-31.5 -38.5q-15 -15 -24 -22t-21.5 -12t-27.5 -5q-30 0 -56 24
q-5 0 -13.5 -0.5t-12.5 -0.5h-15q-28 -29 -62 -29q-32 0 -72 40q-40 38 -40 72q0 29 23 55q-1 9 -1 27v14q-29 31 -29 63zM37 453q0 -30 29 -56v-21q0 -22 2 -32q-25 -27 -25 -50q0 -17 8 -29t28 -32q35 -35 60 -35t54 30q5 -1 23 -1q22 0 31 2q22 -25 51 -25q26 0 61 35
q20 20 27.5 32.5t7.5 28.5q0 30 -30 55q1 5 1 21q0 15 -2 33q26 22 26 50q0 18 -7.5 29t-28.5 32q-35 35 -61 35q-29 0 -55 -30q-5 1 -21 1q-13 0 -33 -2q-22 25 -50 25q-12 0 -22.5 -5t-17.5 -10.5t-22 -20.5q-34 -36 -34 -60zM53 453q0 18 30 48q32 32 50 32q20 0 45 -28
q13 4 38 4q19 0 27 -2q29 32 49 32q19 0 49 -30q31 -31 31 -50q0 -22 -27 -44q4 -24 4 -39t-3 -27q32 -26 32 -49q0 -17 -30 -49q-30 -30 -50 -30q-22 0 -44 27q-24 -4 -38 -4q-10 0 -28 2q-28 -31 -49 -31q-17 0 -49 30q-30 30 -30 49q0 20 27 45q-5 15 -5 37q0 20 2 27
q-31 27 -31 50zM189 403q-10 -10 -10 -27t10.5 -26.5t26.5 -9.5t26 9.5t10 26.5t-10 27t-26 10t-27 -10zM196 376q0 21 20 21q19 0 19 -21q0 -19 -19 -19q-20 0 -20 19zM213 376q0 -3 3 -3q2 0 2 3q0 4 -2 4q-3 0 -3 -4z" />
    <glyph glyph-name="yen" unicode="&#xa5;" horiz-adv-x="577" 
d="M37 593q0 25 7 41.5t16.5 25.5t29.5 13.5t36.5 5.5t46.5 1q55 0 82.5 -19.5t46.5 -68.5q29 61 56 75t94 14q29 0 42 -0.5t30.5 -4.5t24 -12.5t12 -23.5t5.5 -39q0 -26 -16 -61q-2 -4 -5.5 -10.5t-4.5 -8.5q-3 -6 -2 -6.5t-7 -15.5q19 -9 24 -27.5t5 -58.5q0 -61 -14 -86
q14 -22 14 -75q0 -79 -24.5 -105.5t-106.5 -29.5q0 -39 -10 -63.5t-31.5 -35.5t-44 -14.5t-61.5 -3.5q-56 0 -84.5 18.5t-28.5 76.5v24h-9q-77 0 -98 20t-21 99q0 55 11 78q-11 25 -11 82q0 48 5 69.5t24 31.5l-5 10l-1 1l-5 12q-22 38 -22 71zM55 593q0 -29 21 -65
q0 -2 2 -6t2 -5h1l15 -28q-24 -7 -31 -26.5t-7 -64.5q0 -61 18 -82q-18 -19 -18 -78q0 -67 18 -84t84 -17h26v-42q0 -47 24 -62t72 -15q69 0 99.5 18.5t30.5 83.5v15q83 1 107 23.5t24 93.5q0 56 -22 70q22 23 22 91q0 36 -7 53t-29 23l9 18t5 11l4 10l9 21v-1q15 30 15 53
q0 18 -4.5 30t-10.5 18.5t-21 9.5t-26 3.5t-35 0.5q-61 0 -85 -13t-51 -70v1q-5 -10 -15 -34l-12 31q-17 47 -41.5 65.5t-74.5 18.5q-33 0 -50 -1.5t-35 -8t-25.5 -21t-7.5 -38.5zM72 593q0 24 14 35.5t31.5 13.5t55.5 2q43 0 64 -15.5t36 -56.5l27 -78q13 37 32 79
q23 50 44 61t76 11q20 0 29 -0.5t21.5 -2.5t17 -6.5t8.5 -13t4 -21.5q0 -18 -13 -45q-2 -3 -14.5 -29.5t-24.5 -50.5q29 -4 37.5 -16.5t8.5 -46.5q0 -48 -12.5 -69t-49.5 -27q39 -2 50.5 -14.5t11.5 -50.5q0 -62 -23 -80.5t-103 -18.5h-6v-33q0 -54 -26 -69t-86 -15
q-39 0 -59 11.5t-20 47.5v28v32h-43q-55 0 -69.5 14t-14.5 69q0 43 9 58.5t40 19.5q-31 3 -40 19.5t-9 62.5q0 45 7.5 59.5t38.5 18.5l-26 50l-6 13v-1q-18 29 -18 55z" />
    <glyph glyph-name="brokenbar" unicode="&#xa6;" horiz-adv-x="155" 
d="M5 -69v259q0 38 2.5 58.5t6 34.5t16.5 18.5t24.5 6t40.5 1.5q47 0 65 -20t18 -79v-259q0 -74 -23.5 -93.5t-84.5 -19.5q-47 0 -56 14.5t-9 78.5zM5 429v261q0 37 2.5 57.5t6 34t16.5 18t24.5 6t40.5 1.5q47 0 65 -19t18 -79v-259q0 -74 -23.5 -93.5t-84.5 -19.5
q-47 0 -56 13.5t-9 78.5zM18 -69q0 -51 7.5 -62.5t44.5 -11.5q53 0 73.5 16t20.5 78v259q0 48 -15 64t-54 16q-30 0 -41 -1.5t-21.5 -11.5t-12.5 -29t-2 -58v-259zM18 429q0 -51 7 -62t45 -11q53 0 73.5 16t20.5 78v259q0 49 -15 64.5t-54 15.5q-30 0 -41 -1.5t-21.5 -11.5
t-12.5 -28.5t-2 -57.5v-261zM32 -69v259q0 59 10 70.5t53 11.5q31 0 43 -12.5t12 -49.5v-259q0 -50 -17.5 -63t-62.5 -13q-27 0 -32.5 9t-5.5 47zM32 429v261q0 58 10 69t53 11q31 0 43 -12t12 -49v-259q0 -50 -17.5 -63t-62.5 -13q-28 0 -33 8.5t-5 46.5z" />
    <glyph glyph-name="section" unicode="&#xa7;" horiz-adv-x="392" 
d="M11 351q0 44 33 82q-22 36 -22 82q0 34 13 60q28 56 75.5 80.5t96.5 24.5q89 0 129.5 -38t30.5 -96q-12 -53 -30 -67q45 -31 58 -65.5t13 -85.5q0 -43 -33 -84q21 -40 21 -80q0 -38 -13 -63l1 1q-47 -104 -173 -104q-88 0 -129 38.5t-30 95.5q10 52 29 68
q-24 16 -39 33.5t-21.5 38.5t-8 37t-1.5 42zM27 351q0 -26 2.5 -43t11 -38.5t29 -40t52.5 -34.5q-19 -1 -30 -11t-15 -21t-10 -35q-8 -48 29 -80t115 -32q116 0 158 94l-1 -1q12 23 12 55q0 44 -25 83q36 35 36 81q0 26 -2.5 42t-11 37.5t-29.5 39.5t-54 35q28 3 38.5 18
t17.5 50q10 48 -27 80t-116 32q-116 0 -157 -94l1 1q-13 -25 -13 -54q0 -44 28 -84q-39 -37 -39 -80zM44 351q0 42 45 78q-34 40 -34 86q0 25 10 46v-1q37 84 142 84q70 0 102.5 -25.5t25.5 -64.5q-7 -30 -16 -42t-34 -12q-14 0 -44 8q-9 4 -16 4q-4 0 -13 -6q0 -3 69 -36
q42 -20 64 -45.5t26 -45t4 -51.5q0 -43 -45 -79q33 -37 33 -85q0 -28 -9 -47v1q-39 -84 -143 -84q-69 0 -101.5 26t-25.5 64q7 30 15.5 42t33.5 12q17 0 43 -9q9 -3 19 -3t12 6q0 3 -71 37q-32 15 -51.5 31t-28 36t-10.5 35t-2 40zM191 352q0 -4 1.5 -7t7 -7.5t10 -7
t17.5 -10.5q1 1 1 7q0 7 -7.5 13t-29.5 18v-6z" />
    <glyph glyph-name="dieresis" unicode="&#xa8;" horiz-adv-x="442" 
d="M13 621q0 53 34.5 80t89.5 27q63 0 96 -33q35 33 97 33q53 0 89 -27t36 -80q0 -52 -36 -79t-89 -27q-64 0 -97 33q-32 -33 -96 -33q-55 0 -89.5 27t-34.5 79zM30 621q0 -45 29.5 -68t77.5 -23q73 0 97 46q24 -46 96 -46q47 0 77.5 23t30.5 68q0 46 -30.5 69.5t-77.5 23.5
q-70 0 -96 -48q-26 48 -97 48q-48 0 -77.5 -23.5t-29.5 -69.5zM47 621q0 39 25 58.5t65 19.5t65 -19.5t25 -58.5q0 -38 -25 -57.5t-65 -19.5t-65 19.5t-25 57.5zM240 621q0 39 25 58.5t65 19.5q39 0 65 -20t26 -58t-26 -57.5t-65 -19.5q-40 0 -65 19.5t-25 57.5z" />
    <glyph glyph-name="copyright" unicode="&#xa9;" horiz-adv-x="713" 
d="M22 344q0 170 97.5 259t249.5 89q153 0 250.5 -89t97.5 -259q0 -169 -97.5 -258t-250.5 -89q-152 0 -249.5 89t-97.5 258zM132 589q-92 -84 -92 -245t92 -245t237 -84t237.5 84t92.5 245t-92.5 245.5t-237.5 84.5t-237 -85zM58 344q0 153 87 232.5t224 79.5
q138 0 225.5 -79.5t87.5 -232.5q0 -152 -87.5 -231.5t-225.5 -79.5q-137 0 -224 79.5t-87 231.5zM369 149q97 0 147 44t50 151t-50 152t-147 45q-96 0 -145.5 -45t-49.5 -152t49.5 -151t145.5 -44zM192 344q0 102 51 144q-45 -50 -45 -136q0 -124 83 -173q-89 34 -89 165z
M216 352q0 50 17.5 86.5t40 53.5t54 27t48 11.5t33.5 1.5q44 0 69.5 -21.5t12.5 -63.5v1q-6 -25 -16 -30.5t-36 -3.5q-7 1 -20 1q-3 0 -8.5 0.5t-8.5 0.5q-10 2 -20 0.5t-18 -5.5t-13.5 -18.5t-5.5 -37.5q0 -26 4.5 -42t14.5 -22t18 -7t21 -1h9q2 0 29 3q13 2 22 1.5
t16 -7.5t15 -24q13 -33 -13 -60t-82 -27q-31 0 -59 7t-58 25t-48 57t-18 94zM363 355q0 17 3.5 27t9 12.5t12.5 3.5t13 0q1 0 5 -0.5t5 -0.5h8q11 0 17 -1q35 -3 48.5 4.5t23.5 43.5v-1q4 15 6 27q34 -45 34 -126q0 -79 -34 -124q5 21 -4 43q-11 23 -20.5 32.5t-21 10
t-29.5 -1.5q-2 -1 -8 -1q-14 -2 -19 -2h-10q-10 0 -14.5 1t-11.5 5.5t-10 16t-3 31.5zM381 355q0 -17 3.5 -25.5t7 -9.5t10.5 -1h10q1 0 17 2q1 0 6 0.5t6 0.5q19 2 32.5 1.5t24.5 -11t24 -34.5q8 30 8 66q0 41 -11 74q-8 -21 -18.5 -30.5t-26.5 -10.5t-40 1q-6 1 -15 1h-8
q-1 0 -5 0.5t-6 0.5q-6 0 -9 -0.5t-6.5 -6.5t-3.5 -18z" />
    <glyph glyph-name="ordfeminine" unicode="&#xaa;" horiz-adv-x="29" 
d="M12 61q0 15 4 30q20 70 41 161v-1l7 22l26 102h-1q11 40 30 50.5t82 10.5q45 0 61 -10.5t24 -40.5l33 -131l42 -169l1 -10q3 -6 3 -14q0 -35 -17.5 -44t-73.5 -9q-43 0 -52.5 8.5t-18.5 50.5v-2l-1 4h-29q-10 -42 -25.5 -51.5t-69.5 -9.5q-37 0 -51.5 9.5t-14.5 43.5z
M22 61q0 -28 12.5 -35t43.5 -7q52 0 65 9t22 51v1h46l3 -11q7 -35 15 -42.5t45 -7.5q50 0 65 7t15 35q0 5 -3 13v8l-43 169l-32 131q-7 26 -21.5 34.5t-53.5 8.5q-57 0 -74 -9t-27 -45v1q-1 -1 -26 -101l-6 -23v1q-6 -27 -20 -81l-21 -81v1q-5 -12 -5 -27zM33 61q0 11 5 24
l-1 -1l41 162q6 20 13 49.5t12.5 49.5t6.5 24q8 30 23.5 38t67.5 8q34 0 46.5 -7.5t17.5 -27.5l34 -132l41 -167l1 -7q2 -10 2 -13q0 -21 -13 -26t-56 -5q-31 0 -37.5 6t-12.5 35l-5 20h-64l-1 -10q-7 -36 -18.5 -43.5t-57.5 -7.5q-25 0 -35 5.5t-10 25.5zM173 182h28
q-3 11 -14 73l-5 -29z" />
    <glyph glyph-name="guillemotleft" unicode="&#xab;" horiz-adv-x="679" 
d="M29 280q0 69 64 115l117 87q58 40 92 40q44 0 80 -44l16 -23l36 27q58 40 93 40q44 0 80 -44q34 -45 34 -78q0 -48 -57 -92q-7 -5 -20 -14.5t-16 -12.5l50 -35l2 -1q53 -41 53 -82q0 -14 -5.5 -26t-9.5 -17.5t-16 -17.5l-2 -4q-4 -3 -9 -10q-35 -41 -82 -41
q-46 0 -105 44l-21 15l-8 -8l-9 -10q-33 -41 -82 -41q-44 0 -105 45h1q-48 33 -117 86q-24 19 -39 47.5t-15 54.5zM47 280q0 -53 48 -89h-1l116 -86q57 -41 94 -41q40 0 68 34q8 10 11 12q13 13 18 21q8 -5 16 -12.5t18 -13.5h-1q59 -41 95 -41q39 0 68 34q4 6 10 12l3 4
q26 28 26 49q0 32 -47 69l-72 50q48 34 56 40q50 37 50 78q0 28 -30 67q-32 38 -66 38q-30 0 -82 -37l-52 -38q-8 15 -25 37q-32 38 -66 38q-29 0 -81 -37l-117 -86q-57 -42 -57 -102zM65 280q0 51 49 88l117 86q47 34 71 34q27 0 52 -31q26 -35 26 -56q0 -5 2 -1l74 54
q46 34 71 34q27 0 52 -31q26 -35 26 -57q0 -34 -42 -65l-54 -38l-11 -7l-12 -7q2 -1 14 -9l78 -56q40 -30 40 -55q0 -16 -21 -37l-2 -4q-7 -5 -13 -13q-23 -28 -53 -28t-84 38l-53 38q-2 -15 -22 -35l-12 -13q-23 -28 -54 -28t-83 38q-48 33 -116 86q-40 30 -40 75zM261 282
q3 -1 8 -4t7 -4l14 -11q-1 5 -1 17q0 7 2 21l-18 -11q-2 -1 -6 -4t-6 -4zM380 399l2 1q0 1 -0.5 1t-1.5 -2z" />
    <glyph glyph-name="logicalnot" unicode="&#xac;" horiz-adv-x="390" 
d="M8 297q0 52 12.5 61.5t70.5 9.5h205q18 0 28.5 -0.5t28 -4.5t27.5 -12t17.5 -24t7.5 -39v-58q0 -69 -17 -82t-92 -13q-53 0 -66.5 11t-14.5 52h-105q-68 0 -85 19t-17 80zM25 297q0 -52 14 -68t71 -16h121q0 -41 10 -52t55 -11q63 0 78 11t15 69v58q0 23 -8.5 38t-25 20
t-28 6.5t-31.5 1.5h-205q-46 0 -56 -8t-10 -49zM42 297q0 31 7.5 36.5t41.5 5.5h205q16 0 25.5 -1t23 -5t20.5 -15.5t7 -29.5v-58q0 -47 -12 -56t-64 -9q-33 0 -40.5 8.5t-7.5 40.5v14h-138q-45 0 -56.5 13t-11.5 56z" />
    <glyph glyph-name="uni00AD" unicode="&#xad;" horiz-adv-x="375" 
d="M10 193q0 21 2.5 32t12.5 25.5t36 21t68 6.5h136q85 0 106 -12t21 -62q0 -45 -32 -61t-110 -16l-137 1q-64 1 -83.5 12.5t-19.5 52.5zM26 193q0 -33 16.5 -41.5t71.5 -10.5h136q69 0 97 12.5t28 50.5q0 42 -18 51.5t-92 9.5h-136q-36 0 -58.5 -5.5t-31.5 -17.5t-11 -21.5
t-2 -27.5zM43 193q0 14 1.5 22t9 18t26.5 14.5t49 4.5h136q63 0 78.5 -7.5t15.5 -40.5q0 -30 -24.5 -40t-84.5 -10h-136q-44 1 -57.5 7.5t-13.5 31.5z" />
    <glyph glyph-name="registered" unicode="&#xae;" horiz-adv-x="713" 
d="M369 694q153 0 250.5 -88.5t97.5 -258.5t-97.5 -259t-250.5 -89q-152 0 -249.5 89t-97.5 259t97.5 258.5t249.5 88.5zM132 592q-92 -84 -92 -245t92 -245.5t237 -84.5t237.5 84.5t92.5 245.5t-92.5 245t-237.5 84t-237 -84zM58 347q0 153 87 232t224 79q138 0 225.5 -79
t87.5 -232q0 -152 -87.5 -232t-225.5 -80q-136 0 -223.5 80t-87.5 232zM369 152q97 0 147 44t50 151t-50 151.5t-147 44.5q-96 0 -145.5 -44.5t-49.5 -151.5t49.5 -151t145.5 -44zM192 347q0 92 41 135v-269q-41 43 -41 134zM251 212v253q0 38 11.5 46t50.5 8h40
q148 0 148 -102q0 -68 -44 -96l14 -29l21 -46v1q10 -19 10 -35q0 -23 -16 -29.5t-54 -6.5q-23 0 -28.5 3.5t-15.5 24.5q-5 14 -27 68v-47q0 -22 -11.5 -33.5t-25 -13.5t-38.5 -2q-26 0 -30.5 5t-4.5 31zM354 169q13 9 19 25q8 -17 13 -25h-32zM361 394h15q9 0 11 3t2 12
q0 7 -28 7v-22zM480 315q39 34 39 102q0 45 -22 73q51 -42 51 -143q0 -77 -31 -120q-1 8 -9 28zM501 310l2 -2l16 -35q11 30 11 74v12q-7 -25 -29 -49z" />
    <glyph glyph-name="macron" unicode="&#xaf;" horiz-adv-x="291" 
d="M9 419q0 23 0.5 33t7 23t17 17t34 8.5t55 5.5t83.5 1q71 0 88.5 -15.5t17.5 -62.5q0 -43 -10 -58t-50 -22t-143 -7q-49 0 -70.5 8.5t-25.5 21.5t-4 47zM25 419q0 -39 12.5 -51t71.5 -12q73 0 107.5 1.5t54.5 11t22.5 21t2.5 39.5q0 39 -14.5 52t-75.5 13
q-56 0 -88.5 -2.5t-53 -5.5t-28 -14t-9.5 -20.5t-2 -32.5zM41 419q0 30 7 40t40 15.5t118 5.5q50 0 62 -10t12 -41q0 -19 -2 -27t-9 -16.5t-27.5 -11t-49.5 -4t-83 -1.5q-48 0 -58 9.5t-10 40.5z" />
    <glyph glyph-name="degree" unicode="&#xb0;" horiz-adv-x="334" 
d="M180 630q75 0 124.5 -47t49.5 -125t-49.5 -125t-124.5 -47q-72 0 -121.5 47t-49.5 125t49.5 125t121.5 47zM180 303q68 0 113 42.5t45 112.5t-45 113t-113 43q-65 0 -110 -43t-45 -113t45 -112.5t110 -42.5zM180 598q61 0 101 -38.5t40 -101.5t-40 -101t-101 -38
q-58 0 -98.5 38t-40.5 101t40.5 101.5t98.5 38.5zM180 429q29 0 29 29q0 30 -29 30q-12 0 -20 -8t-8 -22t8 -21.5t20 -7.5zM180 471q13 0 13 -13t-13 -13q-12 0 -12 13t12 13zM177 458q0 -3 3 -3q4 0 4 3q0 4 -4 4q-3 0 -3 -4z" />
    <glyph glyph-name="plusminus" unicode="&#xb1;" horiz-adv-x="396" 
d="M10 394q0 20 1 31.5t6 28t15 26.5t29 18t46 10q2 35 11.5 57t27 30.5t31.5 11t39 2.5q19 0 28 -1q1 0 5.5 -0.5t5.5 -0.5t5.5 -1t6 -1.5t5.5 -2t6 -3.5t6 -5t6.5 -6t6 -8t6.5 -10q9 -21 10 -61q63 -1 80.5 -19.5t17.5 -79.5q0 -62 -18 -86.5t-81 -28.5l-2 -13
q67 -1 85 -18t18 -79q0 -70 -27 -94t-117 -24l-138 1q-61 2 -83 24t-22 72q0 27 1.5 41.5t9 32.5t25 28t45.5 14q-1 4 -1 14q-34 0 -54.5 6.5t-29 22.5t-10.5 29.5t-2 41.5zM27 394q0 -24 1.5 -35t9.5 -24.5t26.5 -18.5t50.5 -5h8q0 -35 2 -47q-28 -3 -45.5 -11t-25 -23.5
t-9.5 -28.5t-2 -37q0 -41 18.5 -59.5t69.5 -19.5h138q79 0 103 20t24 80q0 53 -18 66t-88 14q5 16 7 46q63 4 80 24t17 75q0 50 -18.5 65t-78.5 16q-1 3 -1 7q0 42 -8 61q-10 23 -27 28q-12 5 -45 5q-22 0 -34.5 -2t-28 -11t-23 -31t-7.5 -57q-34 -1 -55 -8.5t-29 -24
t-10 -29t-2 -35.5zM129 474h10v10q0 31 6 50.5t19 27.5t23.5 10t28.5 2t26.5 -1.5t19 -8t14.5 -22.5t4 -44v-24h2q63 0 79 -10.5t16 -53.5q0 -49 -16.5 -65t-80.5 -17q0 -60 -21 -81h26q63 0 79 -10t16 -52q0 -50 -21 -66.5t-90 -16.5l-137 1q-43 1 -58 15t-15 46
q0 22 2 33.5t9.5 25t26 19t49.5 5.5h2q-9 15 -9 78v4h-24q-26 0 -41.5 4t-21.5 14.5t-7.5 19t-1.5 27.5t2 29.5t9.5 24t26 20t48.5 6.5z" />
    <glyph glyph-name="uni00B2" unicode="&#xb2;" horiz-adv-x="313" 
d="M20 337q0 37 31.5 60t99.5 23q82 0 112 -33t30 -117q0 -57 -55 -116q42 -1 52 -13.5t10 -61.5q0 -18 -2 -27.5t-9.5 -21.5t-27 -17t-50.5 -5l-100 1q-67 0 -78.5 7t-11.5 47q0 51 9 77.5t45 51.5l18 12l6 4q43 22 43 51q0 22 -12 22q-9 0 -25 -8q-15 -10 -30 -10
q-26 0 -44 31q-11 19 -11 43zM30 337q0 -19 11 -38q14 -26 34 -26q6 0 26 9q16 9 29 9q12 0 17 -7t5 -25q0 -22 -12 -34.5t-35 -25.5q-2 -2 -10 -6q-2 -1 -5 -3t-5.5 -3.5t-4.5 -2.5q-31 -23 -39.5 -49t-8.5 -72q0 -33 10 -38.5t69 -5.5h100q28 0 45 4t24 14t8.5 18.5
t1.5 23.5q0 44 -10 54.5t-53 10.5h-15q71 64 71 126q0 78 -28 108.5t-104 30.5q-63 0 -92 -20t-29 -52zM40 337q0 61 111 61q70 0 95.5 -28t25.5 -100q0 -67 -88 -137h43q36 0 44.5 -9t8.5 -45q0 -17 -3 -25.5t-18.5 -16t-47.5 -7.5h-100q-52 0 -60.5 4t-8.5 29
q0 26 0.5 36.5t4.5 26.5t13.5 27t25.5 22l15 9q8 4 10 6q17 10 26 16.5t17.5 20.5t8.5 32q0 25 -7.5 34t-25.5 9q-16 0 -34 -11q-16 -7 -21 -7q-15 0 -26 20q-9 18 -9 33z" />
    <glyph glyph-name="uni00B3" unicode="&#xb3;" horiz-adv-x="294" 
d="M14 84q0 2 3 26q14 47 52 47q9 0 20 -4h3q28 -10 46 -10q9 0 9 6q0 4 -23 4q-21 0 -33.5 5.5t-17.5 17t-6 20.5t-1 26q0 41 8 54q-23 3 -35 27q-11 15 -11 40q0 35 30 57.5t96 22.5q71 0 98 -34t27 -90q0 -41 -20 -68q38 -34 38 -96q0 -131 -156 -131q-127 0 -127 80z
M25 84q0 -69 116 -69q146 0 146 120q0 66 -43 96q24 24 24 68q0 114 -114 114q-60 0 -88 -19.5t-28 -50.5q0 -18 9 -34q10 -23 36 -23q7 0 23 4h-1h2h1h1q1 1 2 1q12 4 18 4q9 0 9 -6q0 -8 -9 -8q-34 0 -43.5 -9.5t-9.5 -49.5q0 -18 2 -28.5t13 -20.5t33 -10q33 0 33 -14
q0 -16 -19 -16q-24 0 -47 9h-5q-9 4 -17 4q-16 0 -25 -8.5t-16 -31.5q-3 -10 -3 -22zM35 84q0 11 3 20q9 31 31 31q6 0 14 -4h6q25 -9 49 -9q29 0 29 27q0 25 -43 25q-25 0 -31.5 12.5t-6.5 35.5q0 32 8 40t35 8q20 0 20 19q0 17 -20 17q-8 0 -20 -4h-1l-2 -1q-16 -4 -23 -4
q-18 0 -28 18q-7 12 -7 28q0 26 25.5 42.5t80.5 16.5q59 0 81.5 -28.5t22.5 -74.5q0 -47 -33 -70q51 -27 51 -94q0 -109 -135 -109q-106 0 -106 58z" />
    <glyph glyph-name="acute" unicode="&#xb4;" horiz-adv-x="275" 
d="M14 596q0 35 56 120l-1 -1q32 51 56.5 73.5t50.5 22.5q30 0 69 -36l1 1q40 -37 40 -75q0 -24 -13.5 -46t-48.5 -62l1 2q-72 -91 -119 -91q-31 0 -58 27l1 -2q-35 31 -35 67zM29 596q0 -28 30 -54h-1q22 -22 48 -22q39 0 106 85q32 37 45 57t13 39q0 32 -34 63
q-36 31 -60 31q-39 0 -94 -88q-53 -80 -53 -111zM45 596q0 26 50 103v-1q27 43 45.5 62t35.5 19q20 0 50 -28v1q29 -26 29 -51q0 -15 -11.5 -32.5t-42.5 -53.5q-63 -79 -95 -79q-19 0 -37 18q-24 21 -24 42z" />
    <glyph glyph-name="mu" unicode="&#xb5;" horiz-adv-x="485" 
d="M15 -59l4 292v265q0 35 8 58.5t18 35.5t33 18t38.5 7t48.5 1q56 0 72.5 -19t16.5 -80l-6 -256q0 -42 6 -42t8 15v99l-3 162q0 31 1.5 51t9 34t13.5 21t23.5 10.5t30.5 4t44 0.5q111 0 111 -99v-242l4 -181q0 -58 -25.5 -79t-76.5 -21h-8q-49 0 -70 9q-21 -10 -54 -10h-14
l1 -33q0 -35 -8 -58.5t-18.5 -35.5t-33 -18t-38.5 -7t-49 -1q-58 0 -72.5 17.5t-14.5 81.5zM32 -59q0 -52 12 -66.5t58 -14.5q29 0 43 1t34 6t29 15t16 30t7 50v53q9 -1 31 -1q30 0 55 12q21 -11 69 -11h8q42 0 63 16.5t21 64.5l-3 180v243q0 81 -94 81q-38 0 -53 -1.5
t-30 -11.5t-18.5 -30.5t-3.5 -59.5q3 -85 4 -162v-98q-2 -34 -26 -34q-16 0 -19.5 12t-3.5 49l6 255q0 50 -13.5 65.5t-58.5 15.5q-29 0 -43 -1t-34 -6t-29 -15t-16 -30t-7 -50v-265zM49 -59l4 292v265q0 30 7 48t25.5 25.5t33 9t46.5 1.5q35 0 44.5 -12t9.5 -51l-6 -255
q0 -47 7.5 -63t33.5 -16q20 0 30 10.5t13 39.5v100l-4 163q0 60 15.5 72t72.5 12q77 0 77 -63v-243l3 -180q0 -37 -16.5 -50t-50.5 -13h-8q-51 0 -68 14q-26 -15 -56 -15q-26 0 -49 3l1 -73q0 -24 -6 -40.5t-14 -25t-25.5 -12.5t-29.5 -4.5t-37 -0.5q-35 0 -44 11t-9 51z
" />
    <glyph glyph-name="mu" unicode="&#x3bc;" horiz-adv-x="485" 
d="M15 -59l4 292v265q0 35 8 58.5t18 35.5t33 18t38.5 7t48.5 1q56 0 72.5 -19t16.5 -80l-6 -256q0 -42 6 -42t8 15v99l-3 162q0 31 1.5 51t9 34t13.5 21t23.5 10.5t30.5 4t44 0.5q111 0 111 -99v-242l4 -181q0 -58 -25.5 -79t-76.5 -21h-8q-49 0 -70 9q-21 -10 -54 -10h-14
l1 -33q0 -35 -8 -58.5t-18.5 -35.5t-33 -18t-38.5 -7t-49 -1q-58 0 -72.5 17.5t-14.5 81.5zM32 -59q0 -52 12 -66.5t58 -14.5q29 0 43 1t34 6t29 15t16 30t7 50v53q9 -1 31 -1q30 0 55 12q21 -11 69 -11h8q42 0 63 16.5t21 64.5l-3 180v243q0 81 -94 81q-38 0 -53 -1.5
t-30 -11.5t-18.5 -30.5t-3.5 -59.5q3 -85 4 -162v-98q-2 -34 -26 -34q-16 0 -19.5 12t-3.5 49l6 255q0 50 -13.5 65.5t-58.5 15.5q-29 0 -43 -1t-34 -6t-29 -15t-16 -30t-7 -50v-265zM49 -59l4 292v265q0 30 7 48t25.5 25.5t33 9t46.5 1.5q35 0 44.5 -12t9.5 -51l-6 -255
q0 -47 7.5 -63t33.5 -16q20 0 30 10.5t13 39.5v100l-4 163q0 60 15.5 72t72.5 12q77 0 77 -63v-243l3 -180q0 -37 -16.5 -50t-50.5 -13h-8q-51 0 -68 14q-26 -15 -56 -15q-26 0 -49 3l1 -73q0 -24 -6 -40.5t-14 -25t-25.5 -12.5t-29.5 -4.5t-37 -0.5q-35 0 -44 11t-9 51z
" />
    <glyph glyph-name="paragraph" unicode="&#xb6;" horiz-adv-x="566" 
d="M14 475q0 59 19 102.5t47 67t66.5 37.5t69 18t64.5 4h250v-4q42 -8 54 -35t12 -107v-602q0 -95 -18.5 -118.5t-91.5 -23.5q-44 0 -67 5.5t-37 24.5q-23 -30 -100 -30q-28 0 -42.5 1t-29 6t-20 12.5t-10 25.5t-5.5 39.5t-1 58.5v295q-74 14 -117 64.5t-43 158.5zM32 475
q0 -104 43 -150t117 -56v-312q0 -39 2 -59t5.5 -35.5t15.5 -21t25.5 -7.5t41.5 -2q47 0 70.5 12t31.5 51q8 -41 30 -52t72 -11q62 0 77 20t15 104v602q0 70 -9 93.5t-43 30.5v3h-246q-32 0 -60.5 -3.5t-64.5 -16.5t-61.5 -34.5t-43.5 -61.5t-18 -94zM49 475q0 61 23.5 102
t62.5 59t73 24.5t72 6.5h242l-8 -2q31 -4 39 -23.5t8 -83.5v-602q0 -71 -12.5 -88.5t-62.5 -17.5q-27 0 -40.5 2.5t-26.5 12.5t-17.5 32t-4.5 60v581h-25v-582q0 -67 -20 -86.5t-70 -19.5q-51 0 -62 15.5t-11 91.5v328q-74 8 -117 49t-43 141z" />
    <glyph glyph-name="periodcentered" unicode="&#xb7;" horiz-adv-x="216" 
d="M5 244q0 57 33 86.5t85 29.5t84.5 -29.5t32.5 -86.5q0 -59 -32.5 -88.5t-84.5 -29.5q-53 0 -85.5 29.5t-32.5 88.5zM20 244q0 -51 28.5 -77t74.5 -26q45 0 73.5 26t28.5 77q0 50 -28.5 75.5t-73.5 25.5q-46 0 -74.5 -25.5t-28.5 -75.5zM35 244q0 42 24.5 64t63.5 22
t63 -22t24 -64q0 -44 -24 -66t-63 -22t-63.5 22t-24.5 66z" />
    <glyph glyph-name="cedilla" unicode="&#xb8;" horiz-adv-x="316" 
d="M-11 -118q0 50 26 71q-11 19 -11 47q0 25 17 78q14 36 33.5 51.5t62.5 15.5q68 0 74 -54q53 -7 93.5 -37.5t40.5 -86.5q0 -45 -15 -79q-45 -98 -174 -98q-53 0 -98 16q-49 21 -49 76zM6 -118q0 -42 39 -62q42 -13 91 -13q119 0 160 88q13 36 13 72q0 28 -13 50t-34 34
t-42.5 18t-43.5 8v1q0 51 -59 51q-36 0 -52.5 -13t-28.5 -43q-16 -47 -16 -73q0 -34 22 -51q-36 -14 -36 -67zM22 -118q0 58 65 58l16 -2q14 -2 20 -2q18 0 17 8q0 13 -19 13q-11 0 -18 -1q-1 0 -3.5 -0.5t-4.5 -0.5q-59 -5 -59 45q0 23 16 67q9 24 22.5 35t42.5 11
q43 0 43 -35q0 -3 -3 -18h2q3 0 5 1q44 2 86.5 -21t42.5 -73q0 -36 -12 -66q-35 -78 -145 -78q-47 0 -89 15q-25 11 -25 44z" />
    <glyph glyph-name="uni00B9" unicode="&#xb9;" horiz-adv-x="228" 
d="M3 296q0 41 10.5 56t44.5 15q16 0 16 -4q0 38 20 49t70 11q37 0 44.5 -11t7.5 -52v-278q0 -49 -13.5 -61t-59.5 -12q-32 0 -49.5 11t-17.5 46v145q-5 -2 -17 -2q-38 0 -47 14t-9 73zM13 296q0 -52 7 -64t39 -12q12 0 28 7q-2 -29 -2 -161q0 -28 15.5 -37t42.5 -9
q39 0 51 10t12 52v278q0 35 -6 43.5t-36 8.5q-45 0 -62.5 -9t-17.5 -40q0 -7 -26 -7q-28 0 -36.5 -12.5t-8.5 -47.5zM23 296q0 29 6.5 39t28.5 10q21 0 28 4t7 14q0 24 15.5 31t55.5 7q23 0 28 -7t5 -34v-278q0 -34 -10.5 -43t-43.5 -9q-48 0 -48 36q0 122 2 178
q-26 -13 -38 -13q-25 0 -30.5 10.5t-5.5 54.5z" />
    <glyph glyph-name="ordmasculine" unicode="&#xba;" horiz-adv-x="369" 
d="M8 216q0 106 48 168.5t135 62.5q169 0 169 -223q0 -102 -43 -160t-124 -58q-85 0 -135 51t-50 159zM18 216q0 -102 48 -151t127 -49q76 0 116 55.5t40 152.5q0 211 -158 211q-82 0 -127.5 -59.5t-45.5 -159.5zM29 216q0 95 42.5 151.5t119.5 56.5q147 0 147 -200
q0 -92 -37 -144.5t-108 -52.5q-74 0 -119 46.5t-45 142.5zM143 219q0 -59 10.5 -78t37.5 -19q20 0 27.5 24t7.5 78q0 56 -7 80.5t-29 24.5q-27 0 -37 -25t-10 -85zM190 317q15 0 20 -21.5t5 -71.5q0 -91 -24 -91q-21 0 -29 16.5t-8 69.5t7.5 75.5t28.5 22.5zM165 219
q0 -46 5.5 -60.5t20.5 -14.5q13 0 13 80q0 82 -14 82t-19.5 -20t-5.5 -67z" />
    <glyph glyph-name="guillemotright" unicode="&#xbb;" horiz-adv-x="679" 
d="M41 407q0 30 27 59l-5 -8l6 8l12 12q35 44 84 44q45 0 106 -44l20 -15l9 9q4 4 9 12q32 38 81 38q45 0 105 -44l117 -85h-1q54 -39 54 -104q0 -67 -63 -115l-118 -86q-57 -41 -92 -41q-28 0 -44 10.5t-35 34.5q-6 7 -10.5 8t-5.5 2.5t-1 11.5l-36 -27q-59 -40 -93 -40
q-26 0 -43 10.5t-36 34.5q-35 44 -35 78q0 50 59 92l10 8l10 7l14 11l-3 2v-1q-43 32 -47 35q-55 38 -55 83zM58 407q0 -35 48 -69q16 -11 48 -35l22 -16q-2 -1 -33 -23l-12 -9l1 1l-11 -8q-50 -35 -50 -78q0 -29 31 -67q16 -21 29.5 -30t35.5 -9q28 0 83 38l52 38
q7 -14 25 -37q31 -39 65 -39q28 0 81 38l118 85q56 44 56 102q0 57 -47 90l-115 86q-57 40 -95 40q-42 0 -66 -32l-11 -13l-6 -6q-5 -5 -13 -15l-33 26q-55 40 -96 40t-68 -36l-13 -12l-3 -4q-23 -25 -23 -46zM76 407q0 16 19 35l4 6l6 6l7 6q22 28 53 28q34 0 85 -37
l51 -39q3 13 23 35q10 10 15 17q19 24 51 24t84 -37l115 -86q40 -27 40 -76t-48 -88l-118 -85q-48 -35 -71 -35q-27 0 -51 32q-27 34 -27 57l-75 -54q-49 -35 -72 -35q-27 0 -51 32q-27 34 -27 57q0 33 43 65l10 6l11 9q5 3 14.5 10t17 12t13.5 8l11 5l-16 11q-9 6 -35.5 26
t-40.5 30q-41 28 -41 55zM404 269l20 12l10 5l-16 10l-13 9q1 -5 1 -16q0 -13 -2 -20z" />
    <glyph glyph-name="onequarter" unicode="&#xbc;" horiz-adv-x="982" 
d="M26 505q0 59 17 80.5t73 21.5q4 0 6 -15q1 52 31.5 67.5t108.5 15.5q61 0 74.5 -16t13.5 -76v-217q117 175 136 210q41 71 79.5 96.5t102.5 25.5q58 0 82 -13.5t24 -61.5q0 -31 -38 -86v1l-10 -14q21 4 67 4h15q53 0 76.5 -18.5t23.5 -73.5v-142q47 -3 62 -31t15 -73
q0 -61 -13 -82.5t-65 -24.5q-2 -24 -10.5 -41t-19.5 -26t-31 -14t-35.5 -6t-41.5 -1q-63 0 -74.5 12.5t-11.5 73.5v1h-116q-56 0 -72.5 9.5t-19.5 50.5l-41 -65q-35 -52 -70 -67t-89 -15q-56 0 -82 14t-26 61q0 30 27 68l3 5q-35 4 -54 22.5t-19 60.5q0 121 1 157h-7
q-64 0 -78 19.5t-14 102.5zM44 505q0 -71 11.5 -87.5t62.5 -16.5q9 0 25 4q-1 -38 -1 -179q0 -40 23.5 -53.5t63.5 -13.5l-19 -30q-24 -35 -24 -59q0 -36 21 -46.5t68 -10.5q49 0 80 13.5t63 60.5l77 119q-1 -14 -1 -41q0 -46 12 -55.5t61 -9.5h134v-19q0 -48 9 -58t59 -10
q24 0 38 1t32 5.5t27.5 13.5t16.5 25.5t7 40.5v1q51 1 63.5 18.5t12.5 71.5q0 26 -3.5 42.5t-19 30.5t-44.5 14h-9v159q0 44 -19.5 59t-62.5 15h-15q-85 0 -116 -27l44 65h-1q36 50 36 75q0 37 -19.5 47t-68.5 10q-58 0 -93 -23.5t-73 -89.5q-26 -48 -171 -259v275
q0 49 -10.5 61.5t-58.5 12.5q-69 0 -95.5 -13t-26.5 -58q-2 3 -24 3q-45 0 -58.5 -17.5t-13.5 -66.5zM63 505q0 39 10 52.5t43 13.5q43 0 43 14q0 35 22.5 44.5t80.5 9.5q35 0 43 -10t8 -46v-334l17 24q170 251 189 286q34 60 65.5 81.5t83.5 21.5q38 0 53.5 -7t15.5 -32
q0 -20 -32 -66v1l-303 -461q-27 -42 -55 -54t-72 -12q-37 0 -54 7t-17 32q0 20 21 49l37 56q1 1 1 2h-29q-35 0 -54 9.5t-19 39.5q0 62 0.5 128.5t0.5 76.5q-34 -12 -44 -12q-38 0 -46.5 13.5t-8.5 72.5zM512 165q0 78 33 122l138 175q11 14 31 21t34 8t45 1h15q33 0 48 -11
t15 -45v-177h28q30 0 39.5 -18.5t9.5 -50.5q0 -44 -11 -58t-56 -14h-10v-19q0 -24 -7.5 -38.5t-24 -20.5t-30.5 -7.5t-40 -1.5q-36 0 -42.5 7.5t-6.5 42.5v37h-153q-36 0 -45.5 7t-9.5 40z" />
    <glyph glyph-name="onehalf" unicode="&#xbd;" horiz-adv-x="985" 
d="M26 505q0 59 18 80.5t73 21.5q3 0 5 -15q1 52 32.5 67.5t108.5 15.5q60 0 73 -16t13 -76v-216q101 148 136 210q40 67 81 94t101 27q58 0 82 -13.5t24 -61.5q0 -33 -38 -86v1l-5 -7h16q118 0 161 -44t43 -156q0 -57 -56 -127q42 -4 54 -24.5t12 -81.5q0 -26 -3 -40.5
t-15.5 -31t-41.5 -24t-76 -7.5h-130h-57.5t-36.5 3.5t-24.5 6.5t-10.5 15t-6 22v35q0 68 13 103.5t65 69.5l34 21q47 23 47 47v10q-5 0 -24 -8q-23 -15 -50 -15q-29 0 -50 18q-125 -186 -160 -245q-35 -52 -70 -67.5t-89 -15.5q-57 0 -82.5 14.5t-25.5 61.5q0 28 27 69v-1
l2 4q-72 9 -72 83q0 121 1 157h-6q-64 0 -78.5 19.5t-14.5 102.5zM44 505q0 -71 11.5 -87.5t63.5 -16.5q7 0 25 4q-1 -38 -1 -179q0 -40 23 -53.5t63 -13.5l-20 -30q-24 -34 -24 -58q0 -35 21.5 -46.5t68.5 -11.5q49 0 80 13.5t63 60.5l174 267q19 -31 52 -31q17 0 41 13
q23 10 33 10q18 0 18 -28q0 -36 -55 -63l-34 -20q-46 -30 -57.5 -62.5t-11.5 -95.5v-27.5t5 -17t9 -11.5t21 -5t31.5 -3h49.5h130q41 0 66 6t35.5 20t13 26t2.5 33q0 59 -14.5 74t-71.5 16q76 78 76 143q0 102 -38.5 142t-146.5 40q-21 0 -51 -2l25 37h-1q35 48 35 75
q0 37 -19.5 47t-67.5 10q-54 0 -91.5 -25.5t-73.5 -86.5q-40 -67 -171 -261v276q0 49 -10.5 61.5t-57.5 12.5q-69 0 -96 -13t-27 -59q0 4 -23 4q-44 0 -58.5 -18t-14.5 -66zM63 505q0 38 10.5 52t43.5 14q41 0 41 14q0 34 23 44t82 10q34 0 41.5 -10t7.5 -46v-334
q155 224 206 310q33 57 66.5 80t82.5 23q38 0 53.5 -7t15.5 -32q0 -22 -31 -66v1l-50 -74q32 11 91 11q97 0 132 -36t35 -128q0 -73 -103 -161h37q52 0 64 -11.5t12 -60.5q0 -17 -2.5 -26.5t-11.5 -20t-30 -15.5t-55 -5h-130q-73 0 -85.5 6t-12.5 40q0 57 10.5 86.5
t51.5 56.5h-1l33 20q21 11 32 18.5t21.5 23t10.5 36.5q0 27 -7.5 36.5t-28.5 9.5q-16 0 -42 -12q-18 -11 -32 -11q-23 0 -39 29q-7 14 -9 23q-160 -241 -193 -296q-28 -42 -56 -54t-72 -12q-38 0 -54.5 8t-16.5 32q0 19 21 49v-1l39 59q-8 -1 -31 -1q-34 0 -53 9.5t-19 39.5
q0 131 2 205q-36 -12 -44 -12q-39 0 -47.5 13.5t-8.5 72.5z" />
    <glyph glyph-name="threequarters" unicode="&#xbe;" horiz-adv-x="1042" 
d="M37 273q0 20 6 36q11 36 27 52.5t42 18.5q-9 20 -9 62q0 34 3 56q-24 10 -38 36q-15 28 -15 55q0 50 44.5 82t138.5 32q103 0 142 -46t39 -121q0 -44 -21 -79q21 -20 33 -52q100 152 112 173q40 67 80.5 93.5t101.5 26.5q57 0 81 -13t24 -61q0 -35 -37 -87v1l-9 -13
q28 3 57 3h14q53 0 77.5 -18t24.5 -73v-142q45 -3 60.5 -31.5t15.5 -73.5q0 -60 -13.5 -81.5t-63.5 -25.5q-2 -24 -10.5 -41t-19.5 -26t-31 -14t-36 -6t-42 -1q-63 0 -75 12.5t-12 73.5v1h-115q-52 0 -69 8t-21 40l-34 -53q-35 -52 -70.5 -67t-89.5 -15q-57 0 -83 14.5
t-26 61.5q0 29 27 69l15 23q-15 -2 -44 -2q-181 0 -181 112zM56 273q0 -94 162 -94q48 0 84 9l-39 -58q-24 -31 -24 -59q0 -35 21.5 -46.5t68.5 -11.5q50 0 81 13.5t63 60.5l67 103v-25q0 -45 12.5 -55t60.5 -10h134v-19q0 -48 9 -58t59 -10q24 0 38.5 1t32.5 5.5t27.5 13.5
t16.5 25.5t7 40.5v1q50 1 63 19.5t13 70.5q0 40 -13.5 64t-54.5 24h-8v159q0 44 -20 58.5t-64 14.5h-14q-69 0 -100 -17q15 23 38 55h-1q34 48 34 76q0 37 -19.5 46.5t-67.5 9.5q-54 0 -91.5 -25t-73.5 -86q-15 -28 -138 -210q-5 64 -48 96q27 30 27 81q0 67 -35 108
t-128 41q-85 0 -125 -26.5t-40 -69.5q0 -23 13 -47q15 -29 49 -33q-12 -16 -12 -67q0 -26 3 -41t21 -28.5t53 -13.5q32 0 32 -6q0 -7 -14 -7q-35 0 -58 9l-17 3q-4 0 -11 2t-11 2q-22 0 -35.5 -12.5t-23.5 -44.5q-4 -12 -4 -32zM74 273q0 15 5 26h-1q7 25 16.5 35t24.5 10
l35 -7q23 -9 62 -9q32 0 32 25q0 24 -50 24q-26 0 -39.5 10.5t-16 22t-2.5 32.5q0 44 12 55t53 11q19 0 19 15t-20 15q-12 0 -28 -6v1q-16 -6 -32 -6q-30 0 -43 24q-11 17 -11 38q0 34 35.5 56t110.5 22q82 0 113 -36t31 -95q0 -55 -37 -85q60 -31 60 -115q0 -24 -6 -43
q144 211 177 267t66.5 79t82.5 23q37 0 52.5 -7t15.5 -31t-30 -66l-304 -461q-28 -42 -56 -54t-72 -12q-38 0 -55 8t-17 32q0 21 22 49l42 62l34 49q-46 -34 -137 -34q-144 0 -144 76zM558 165q0 80 34 123l137 175q25 29 110 29h14q34 0 49.5 -11t15.5 -44v-177h27
q49 0 49 -70q0 -43 -11.5 -57.5t-54.5 -14.5h-10v-19q0 -24 -7.5 -38.5t-24 -20.5t-31 -7.5t-40.5 -1.5q-37 0 -43.5 7.5t-6.5 42.5v37h-152q-36 0 -45.5 7t-9.5 40z" />
    <glyph glyph-name="questiondown" unicode="&#xbf;" horiz-adv-x="441" 
d="M135 198q31 15 32 13q0 41 14 70q-42 37 -42 109q0 69 36.5 104.5t94.5 35.5t94.5 -35.5t36.5 -104.5q0 -57 -25 -91q26 -40 26 -106q0 -77 -36 -112q34 -7 59 -52q20 -42 20 -66q0 -40 -28 -71t-94 -57q-54 -18 -99 -18q-62 0 -112 29t-70 73l1 -1q-20 40 -20 95
t28.5 105.5t83.5 79.5zM40 13q0 -52 17 -87q18 -40 64 -65.5t103 -25.5q46 0 93 18q59 23 85 49.5t26 60.5q0 25 -18 57q-14 24 -29 35t-41 11q-16 0 -37 -6q47 25 64.5 51t17.5 82q0 76 -33 107q32 32 32 90q0 61 -31.5 91.5t-82.5 30.5t-82.5 -30.5t-31.5 -91.5
q0 -70 47 -102q-19 -33 -19 -77q0 -7 -6.5 -11t-35.5 -18q-50 -26 -76 -72t-26 -97zM56 13q0 45 24 86.5t70 65.5q35 17 43 24.5t8 21.5q0 57 30 82q-59 20 -59 97q0 52 27 78.5t71 26.5q43 0 70 -26.5t27 -78.5q0 -64 -43 -91q44 -20 44 -106q0 -55 -19.5 -77.5
t-77.5 -51.5l-34 -17h1q-21 -13 -17 -27v1q2 -5 8 -5q7 0 23 6q59 26 88 26q34 0 57 -37h-1q15 -28 15 -48q0 -28 -23 -50.5t-76 -42.5q-45 -17 -88 -17q-52 0 -94 23t-58 58q-16 33 -16 79z" />
    <glyph glyph-name="Agrave" unicode="&#xc0;" 
d="M18 87q0 28 7 49q46 173 68 266v-1l10 36l43 168l-1 -1q18 67 50 84.5t135 17.5q73 0 100 -17.5t39 -66.5l55 -217l69 -278l2 -16q4 -14 4 -24q0 -58 -28.5 -72.5t-120.5 -14.5q-26 0 -41.5 0.5t-28.5 5.5t-18.5 9t-12 18.5t-8.5 25t-8 38.5v-3l-1 4v-1q0 1 -1 3h-48
q-15 -69 -40.5 -84.5t-115.5 -15.5q-61 0 -85 15.5t-24 71.5zM35 87q0 -45 20.5 -57t71.5 -12q86 0 107.5 14.5t35.5 84.5v1h76l5 -18l-1 1q12 -59 25.5 -71t74.5 -12q82 0 106.5 11.5t24.5 57.5q0 7 -4 21l-1 14l-70 279l-54 216q-11 41 -34.5 56t-87.5 15
q-66 0 -95.5 -6.5t-45 -24t-26.5 -58.5v1q-2 -6 -8.5 -31t-16.5 -66t-18 -70l-9 -37v1l-68 -267v2q-8 -23 -8 -45zM53 87q0 21 8 40l-1 -1l67 267q9 33 21 81t20.5 81t10.5 40q13 49 39 62t112 13q56 0 76 -12t29 -45l55 -217l68 -275l2 -13q3 -10 3 -21q0 -34 -21.5 -42.5
t-91.5 -8.5q-50 0 -61.5 10t-21.5 58l-8 32h-105l-2 -16q-12 -59 -31 -71.5t-94 -12.5q-41 0 -57.5 9t-16.5 42zM182 911q0 33 58 90q23 20 52 20q27 0 50 -21t57 -74q55 -89 55 -121q0 -37 -38 -69q-29 -22 -54 -22q-26 0 -50.5 18.5t-68.5 69.5q-35 42 -48 63.5t-13 45.5z
M197 911q0 -14 8 -30t16 -26.5t33 -41.5q41 -48 63.5 -65.5t44.5 -17.5q20 0 45 19q31 26 31 56q0 31 -51 112q-33 49 -53 68.5t-42 19.5q-23 0 -45 -19l-7 -6l-1 -1q-42 -41 -42 -68zM213 911q0 24 30 51q29 27 49 27q17 0 35 -18t46 -63q50 -78 50 -103q0 -23 -26 -44
q-18 -15 -35 -15q-18 0 -38 16.5t-58 60.5q-30 36 -41.5 54t-11.5 34zM283 286h47q-6 23 -24 121l-8 -48z" />
    <glyph glyph-name="Aacute" unicode="&#xc1;" 
d="M18 87q0 28 7 49q46 173 68 266v-1l10 36l43 168l-1 -1q18 67 50 84.5t135 17.5q73 0 100 -17.5t39 -66.5l55 -217l69 -278l2 -16q4 -14 4 -24q0 -58 -28.5 -72.5t-120.5 -14.5q-26 0 -41.5 0.5t-28.5 5.5t-18.5 9t-12 18.5t-8.5 25t-8 38.5v-3l-1 4v-1q0 1 -1 3h-48
q-15 -69 -40.5 -84.5t-115.5 -15.5q-61 0 -85 15.5t-24 71.5zM35 87q0 -45 20.5 -57t71.5 -12q86 0 107.5 14.5t35.5 84.5v1h76l5 -18l-1 1q12 -59 25.5 -71t74.5 -12q82 0 106.5 11.5t24.5 57.5q0 7 -4 21l-1 14l-70 279l-54 216q-11 41 -34.5 56t-87.5 15
q-66 0 -95.5 -6.5t-45 -24t-26.5 -58.5v1q-2 -6 -8.5 -31t-16.5 -66t-18 -70l-9 -37v1l-68 -267v2q-8 -23 -8 -45zM53 87q0 21 8 40l-1 -1l67 267q9 33 21 81t20.5 81t10.5 40q13 49 39 62t112 13q56 0 76 -12t29 -45l55 -217l68 -275l2 -13q3 -10 3 -21q0 -34 -21.5 -42.5
t-91.5 -8.5q-50 0 -61.5 10t-21.5 58l-8 32h-105l-2 -16q-12 -59 -31 -71.5t-94 -12.5q-41 0 -57.5 9t-16.5 42zM167 796q0 35 56 120l-1 -1q32 51 56.5 73.5t50.5 22.5q30 0 69 -36l1 1q40 -37 40 -75q0 -24 -13.5 -46t-48.5 -62l1 2q-72 -91 -119 -91q-31 0 -58 27l1 -2
q-35 31 -35 67zM182 796q0 -28 30 -54h-1q22 -22 48 -22q39 0 106 85q32 37 45 57t13 39q0 32 -34 63q-36 31 -60 31q-39 0 -94 -88q-53 -80 -53 -111zM198 796q0 26 50 103v-1q27 43 45.5 62t35.5 19q20 0 50 -28v1q29 -26 29 -51q0 -15 -11.5 -32.5t-42.5 -53.5
q-63 -79 -95 -79q-19 0 -37 18q-24 21 -24 42zM283 286h47q-6 23 -24 121l-8 -48z" />
    <glyph glyph-name="Acircumflex" unicode="&#xc2;" 
d="M18 87q0 28 7 49q46 173 68 266v-1l10 36l43 168l-1 -1q18 67 50 84.5t135 17.5q73 0 100 -17.5t39 -66.5l55 -217l69 -278l2 -16q4 -14 4 -24q0 -58 -28.5 -72.5t-120.5 -14.5q-26 0 -41.5 0.5t-28.5 5.5t-18.5 9t-12 18.5t-8.5 25t-8 38.5v-3l-1 4v-1q0 1 -1 3h-48
q-15 -69 -40.5 -84.5t-115.5 -15.5q-61 0 -85 15.5t-24 71.5zM35 87q0 -45 20.5 -57t71.5 -12q86 0 107.5 14.5t35.5 84.5v1h76l5 -18l-1 1q12 -59 25.5 -71t74.5 -12q82 0 106.5 11.5t24.5 57.5q0 7 -4 21l-1 14l-70 279l-54 216q-11 41 -34.5 56t-87.5 15
q-66 0 -95.5 -6.5t-45 -24t-26.5 -58.5v1q-2 -6 -8.5 -31t-16.5 -66t-18 -70l-9 -37v1l-68 -267v2q-8 -23 -8 -45zM53 87q0 21 8 40l-1 -1l67 267q9 33 21 81t20.5 81t10.5 40q13 49 39 62t112 13q56 0 76 -12t29 -45l55 -217l68 -275l2 -13q3 -10 3 -21q0 -34 -21.5 -42.5
t-91.5 -8.5q-50 0 -61.5 10t-21.5 58l-8 32h-105l-2 -16q-12 -59 -31 -71.5t-94 -12.5q-41 0 -57.5 9t-16.5 42zM134 787q0 25 34 77q39 61 63 77t74 16q46 0 69 -14t58 -70v1q37 -56 37 -83q0 -38 -46 -68l-3 -3q-31 -17 -53 -17q-38 0 -65 35q-27 -33 -69 -33
q-23 0 -47 12q-30 17 -41 30.5t-11 39.5zM150 787q0 -21 9.5 -32t34.5 -25q22 -10 39 -10q38 0 63 35l-1 -1l8 11q5 -6 12 -16h-1q24 -31 53 -31q17 0 44 15l5 4l-2 -2q39 24 39 56q0 20 -34 75q-32 49 -53.5 62.5t-60.5 13.5q-43 0 -65 -15t-59 -71q-31 -49 -31 -69z
M166 787q0 15 29 61q33 52 52.5 65.5t57.5 13.5q35 0 53 -11.5t47 -57.5q31 -47 31 -67q0 -23 -31 -43l-4 -3q-21 -12 -34 -12q-22 0 -40 26q-1 1 -25 37q-14 -26 -20 -33q-19 -28 -49 -28q-15 0 -31 9v-1q-15 9 -20.5 13.5t-10.5 12t-5 18.5zM283 286h47q-6 23 -24 121
l-8 -48z" />
    <glyph glyph-name="Atilde" unicode="&#xc3;" 
d="M18 87q0 28 7 49q46 173 68 266v-1l10 36l43 168l-1 -1q18 67 50 84.5t135 17.5q73 0 100 -17.5t39 -66.5l55 -217l69 -278l2 -16q4 -14 4 -24q0 -58 -28.5 -72.5t-120.5 -14.5q-26 0 -41.5 0.5t-28.5 5.5t-18.5 9t-12 18.5t-8.5 25t-8 38.5v-3l-1 4v-1q0 1 -1 3h-48
q-15 -69 -40.5 -84.5t-115.5 -15.5q-61 0 -85 15.5t-24 71.5zM35 87q0 -45 20.5 -57t71.5 -12q86 0 107.5 14.5t35.5 84.5v1h76l5 -18l-1 1q12 -59 25.5 -71t74.5 -12q82 0 106.5 11.5t24.5 57.5q0 7 -4 21l-1 14l-70 279l-54 216q-11 41 -34.5 56t-87.5 15
q-66 0 -95.5 -6.5t-45 -24t-26.5 -58.5v1q-2 -6 -8.5 -31t-16.5 -66t-18 -70l-9 -37v1l-68 -267v2q-8 -23 -8 -45zM53 87q0 21 8 40l-1 -1l67 267q9 33 21 81t20.5 81t10.5 40q13 49 39 62t112 13q56 0 76 -12t29 -45l55 -217l68 -275l2 -13q3 -10 3 -21q0 -34 -21.5 -42.5
t-91.5 -8.5q-50 0 -61.5 10t-21.5 58l-8 32h-105l-2 -16q-12 -59 -31 -71.5t-94 -12.5q-41 0 -57.5 9t-16.5 42zM91 771q0 42 49 80.5t107 38.5q57 0 101 -27h-2l4 -4q5 0 13 6q31 20 53 20q29 0 62 -27q29 -26 29 -56q0 -41 -52.5 -77.5t-115.5 -36.5q-62 0 -102 25l-11 -4
l-1 2q-34 -17 -50 -17q-27 0 -56 21q-28 27 -28 56zM108 771q0 -23 22 -46q25 -17 45 -17q15 0 45 15l12 4l7 4l3 -3l3 -1l-4 1q41 -25 98 -25q56 0 103.5 32t47.5 67q0 24 -23 46q-27 22 -51 22q-17 0 -42 -16q-13 -9 -25 -9l-12 7q-40 24 -90 24q-51 0 -95 -34t-44 -71z
M124 771q0 32 39 61.5t84 29.5q44 0 80 -23h1q16 -8 21 -8q17 0 35 12q20 13 32 13q17 0 39 -18q18 -18 18 -36q0 -31 -42 -58t-92 -27t-87 22l-1 1q-3 0 -3 2q-5 4 -9 4q-6 0 -16 -6l-8 -4l3 1q-26 -14 -43 -14q-16 0 -33 13q-18 16 -18 35zM239 714l3 -1l-2 2zM283 286h47
q-6 23 -24 121l-8 -48z" />
    <glyph glyph-name="Adieresis" unicode="&#xc4;" 
d="M18 87q0 28 7 49q46 173 68 266v-1l10 36l43 168l-1 -1q18 67 50 84.5t135 17.5q73 0 100 -17.5t39 -66.5l55 -217l69 -278l2 -16q4 -14 4 -24q0 -58 -28.5 -72.5t-120.5 -14.5q-26 0 -41.5 0.5t-28.5 5.5t-18.5 9t-12 18.5t-8.5 25t-8 38.5v-3l-1 4v-1q0 1 -1 3h-48
q-15 -69 -40.5 -84.5t-115.5 -15.5q-61 0 -85 15.5t-24 71.5zM35 87q0 -45 20.5 -57t71.5 -12q86 0 107.5 14.5t35.5 84.5v1h76l5 -18l-1 1q12 -59 25.5 -71t74.5 -12q82 0 106.5 11.5t24.5 57.5q0 7 -4 21l-1 14l-70 279l-54 216q-11 41 -34.5 56t-87.5 15
q-66 0 -95.5 -6.5t-45 -24t-26.5 -58.5v1q-2 -6 -8.5 -31t-16.5 -66t-18 -70l-9 -37v1l-68 -267v2q-8 -23 -8 -45zM53 87q0 21 8 40l-1 -1l67 267q9 33 21 81t20.5 81t10.5 40q13 49 39 62t112 13q56 0 76 -12t29 -45l55 -217l68 -275l2 -13q3 -10 3 -21q0 -34 -21.5 -42.5
t-91.5 -8.5q-50 0 -61.5 10t-21.5 58l-8 32h-105l-2 -16q-12 -59 -31 -71.5t-94 -12.5q-41 0 -57.5 9t-16.5 42zM84 821q0 53 34.5 80t89.5 27q63 0 96 -33q34 33 97 33q53 0 89 -27t36 -80q0 -52 -36 -79t-89 -27q-64 0 -97 33q-32 -33 -96 -33q-55 0 -89.5 27t-34.5 79z
M101 821q0 -45 29.5 -68t77.5 -23q73 0 97 46q24 -46 96 -46q47 0 77.5 23t30.5 68q0 46 -30.5 69.5t-77.5 23.5q-71 0 -96 -48q-25 48 -97 48q-48 0 -77.5 -23.5t-29.5 -69.5zM118 821q0 39 25 58.5t65 19.5t65 -19.5t25 -58.5q0 -38 -25 -57.5t-65 -19.5t-65 19.5
t-25 57.5zM283 286h47q-6 23 -24 121l-8 -48zM311 821q0 39 25 58.5t65 19.5q39 0 65 -20t26 -58t-26 -57.5t-65 -19.5q-40 0 -65 19.5t-25 57.5z" />
    <glyph glyph-name="Aring" unicode="&#xc5;" 
d="M18 87q0 28 7 49q46 173 68 266v-1l10 36l43 168l-1 -1q18 67 50 84.5t135 17.5q73 0 100 -17.5t39 -66.5l55 -217l69 -278l2 -16q4 -14 4 -24q0 -58 -28.5 -72.5t-120.5 -14.5q-26 0 -41.5 0.5t-28.5 5.5t-18.5 9t-12 18.5t-8.5 25t-8 38.5v-3l-1 4v-1q0 1 -1 3h-48
q-15 -69 -40.5 -84.5t-115.5 -15.5q-61 0 -85 15.5t-24 71.5zM35 87q0 -45 20.5 -57t71.5 -12q86 0 107.5 14.5t35.5 84.5v1h76l5 -18l-1 1q12 -59 25.5 -71t74.5 -12q82 0 106.5 11.5t24.5 57.5q0 7 -4 21l-1 14l-70 279l-54 216q-11 41 -34.5 56t-87.5 15
q-66 0 -95.5 -6.5t-45 -24t-26.5 -58.5v1q-2 -6 -8.5 -31t-16.5 -66t-18 -70l-9 -37v1l-68 -267v2q-8 -23 -8 -45zM53 87q0 21 8 40l-1 -1l67 267q9 33 21 81t20.5 81t10.5 40q13 49 39 62t112 13q56 0 76 -12t29 -45l55 -217l68 -275l2 -13q3 -10 3 -21q0 -34 -21.5 -42.5
t-91.5 -8.5q-50 0 -61.5 10t-21.5 58l-8 32h-105l-2 -16q-12 -59 -31 -71.5t-94 -12.5q-41 0 -57.5 9t-16.5 42zM175 840q0 60 38 97t95 37t96 -37t39 -97q0 -62 -38.5 -98.5t-96.5 -36.5q-57 0 -95 36.5t-38 98.5zM190 840q0 -55 33.5 -87.5t84.5 -32.5t85.5 32.5
t34.5 87.5q0 53 -34.5 85.5t-85.5 32.5q-50 0 -84 -32.5t-34 -85.5zM206 840q0 46 29 74.5t73 28.5q45 0 74.5 -28.5t29.5 -74.5q0 -48 -29.5 -76.5t-74.5 -28.5q-44 0 -73 28.5t-29 76.5zM283 286h47q-6 23 -24 121l-8 -48zM287 840q0 -23 21 -23q9 0 16 6.5t7 16.5
q0 21 -23 21q-21 0 -21 -21zM301 840q0 -10 7 -10q9 0 9 10q0 8 -9 8q-7 0 -7 -8z" />
    <glyph glyph-name="AE" unicode="&#xc6;" horiz-adv-x="804" 
d="M3 79q0 25 19 66l129 262l102 207q22 42 41.5 60t53.5 25t106 7q27 0 48 -3q11 1 43 1h166q27 0 38.5 -0.5t26 -3.5t19 -8t9.5 -16t6 -26t1 -40q0 -72 -9.5 -103t-41.5 -43q22 -10 29 -31.5t7 -64.5q0 -57 -5 -82.5t-23 -38.5q40 -8 52.5 -33.5t12.5 -76.5
q0 -93 -19 -114.5t-105 -21.5h-198q-14 -2 -64 -2q-25 0 -32 1q-35 3 -58 27q-21 23 -21 73h-51v-2q-30 -62 -60.5 -80.5t-110.5 -18.5q-31 0 -47.5 2t-33.5 9.5t-23.5 24t-6.5 44.5zM21 79q0 -41 21 -51.5t72 -10.5q74 0 101.5 17t55.5 74l4 10h79v-9q0 -51 16 -69
q19 -20 48 -22q6 -1 29 -1q48 0 62 2h200q73 0 89 18.5t16 99.5q0 51 -15 73t-65 22h-148v17h89q71 0 87 20.5t16 98.5q0 50 -14.5 68.5t-64.5 18.5h-114v18h101q71 0 89 25.5t18 111.5q0 55 -12.5 65.5t-69.5 10.5h-166q-36 0 -42 -1q-12 3 -49 3q-94 0 -125.5 -14.5
t-59.5 -67.5l-101 -206l-129 -263q-18 -39 -18 -58zM39 79q0 14 17 51l128 262l101 206q24 47 53 59.5t116 12.5q28 0 48 -3q12 1 43 1h166q44 0 53.5 -8t9.5 -50q0 -74 -14.5 -96.5t-73.5 -22.5h-120v-24q0 -5 0.5 -13t0.5 -17h132q39 0 50 -14.5t11 -54.5
q0 -66 -13.5 -83.5t-71.5 -17.5h-109l2 -47v-6h166q39 0 50.5 -18t11.5 -59q0 -68 -13.5 -84t-73.5 -16h-203q-13 -2 -59 -2q-20 0 -27 1q-24 2 -36 15q-12 14 -12 58v6v21h-109l-9 -22q-24 -49 -49 -64t-91 -15q-41 0 -58 7.5t-17 36.5zM336 298h38v91l-6 -15z" />
    <glyph glyph-name="Ccedilla" unicode="&#xc7;" horiz-adv-x="495" 
d="M10 362q0 73 13.5 132.5t34 97.5t50 66t56 42.5t58 22.5t50 10t37.5 2q36 0 74 -9.5t71.5 -28.5t51 -53t7.5 -77q-27 -87 -99 -87q-20 0 -40 3q-1 0 -3 1h-2q-28 6 -44 6q-15 0 -24 -3t-19.5 -14t-16 -37.5t-5.5 -68.5q0 -58 7.5 -89t18 -38.5t28.5 -7.5q15 0 41 6l15 3
h-2q26 8 49 8q62 0 96 -77q17 -46 -13.5 -92t-96.5 -70q48 -39 48 -103q0 -48 -16 -90q-48 -111 -187 -111q-53 0 -104 17q-52 25 -52 88q0 56 26 80q-11 20 -11 53q0 31 18 88l1 4q-116 82 -116 326zM27 362q0 -241 122 -317l-2.5 -5t-2.5 -7t-2 -6q-17 -51 -17 -83
q0 -40 23 -57q-39 -15 -39 -76q0 -50 42 -71q45 -16 97 -16q128 0 171 101q15 37 15 82q0 77 -76 110q77 15 116.5 58.5t22.5 88.5q-27 66 -80 66q-18 0 -44 -7l1 1l-14 -3q-32 -8 -46 -8q-24 0 -37.5 8.5t-23.5 43.5t-10 102q0 48 6.5 79t20.5 43t25 15.5t30 3.5t42 -5
l3 -1h4q22 -4 40 -4q59 0 81 73q11 48 -20 83t-76 48.5t-90 13.5q-28 0 -54.5 -3.5t-71 -24t-76 -55t-56 -105t-24.5 -166.5zM44 362q0 91 23 158t53 99.5t71.5 52t66.5 23t51 3.5q41 0 81.5 -11.5t69.5 -40t20 -68.5q-19 -61 -66 -61q-17 0 -37 4h-7q-30 6 -45 6
q-22 0 -36 -4t-30.5 -18t-24.5 -48.5t-8 -89.5q0 -75 12 -114t29 -48.5t47 -9.5q14 0 49 7l14 3q25 7 40 7q41 0 65 -54q17 -46 -38.5 -87.5t-150.5 -41.5q-13 0 -19 1l-3 -17h2q4 0 5 1q20 1 42.5 -4t45 -16.5t37 -34t14.5 -52.5q0 -39 -13 -75q-38 -89 -156 -89
q-52 0 -95 17q-27 13 -27 51q0 65 70 65l18 -2q2 0 9 -1l11 -2q19 0 18 9q0 10 -4 12.5t-15 2.5q-13 0 -19 -1q-2 0 -5 -0.5t-4 -0.5q-63 -5 -63 51q0 27 16 76q9 23 16 31q-130 61 -130 311z" />
    <glyph glyph-name="Egrave" unicode="&#xc8;" horiz-adv-x="487" 
d="M10 98v476q0 34 1 54.5t8 36.5t12.5 23t24.5 11t33.5 4.5t49.5 0.5h94q6 0 20 0.5t21 0.5h86q37 0 50.5 -1t26 -11t14.5 -27.5t2 -55.5q0 -73 -8.5 -104t-38.5 -42q20 -10 27 -32t7 -64q0 -55 -5 -81.5t-23 -39.5q38 -6 50 -32t12 -78q0 -93 -18 -114.5t-99 -21.5
q-225 0 -256 -1q-66 0 -78.5 15t-12.5 83zM27 98q0 -56 10 -68t64 -12l256 1q70 0 85 18.5t15 99.5q0 51 -14.5 73t-61.5 22h-139v17h85q64 0 80 21.5t16 97.5q0 50 -13.5 69t-60.5 19h-107v17h94q67 0 83.5 25.5t16.5 111.5q0 56 -12 66.5t-64 10.5h-86q-7 0 -21 -0.5
t-20 -0.5h-94q-30 0 -42.5 -0.5t-29 -4t-21.5 -9.5t-11 -19.5t-7 -31.5t-1 -47v-476zM44 98v476q0 37 2 54.5t15 27.5t27 11t51 1h56q12 0 38.5 0.5t40.5 0.5h86q41 0 50 -8t9 -51q0 -74 -14 -96.5t-69 -22.5h-111v-53h124q36 0 46.5 -15t10.5 -55q0 -64 -13 -82.5
t-66 -18.5h-102v-53h156q37 0 48 -18t11 -59q0 -68 -12.5 -84t-70.5 -16q-225 0 -256 -1q-41 0 -49 9.5t-8 52.5zM115 901q0 33 58 90q23 20 52 20q27 0 50 -21t57 -74q55 -89 55 -121q0 -37 -38 -69q-29 -22 -54 -22q-26 0 -50.5 18.5t-68.5 69.5q-35 42 -48 63.5t-13 45.5
zM130 901q0 -14 8 -30t16 -26.5t33 -41.5q41 -48 63.5 -65.5t44.5 -17.5q20 0 45 19q31 26 31 56q0 31 -51 112q-33 49 -53 68.5t-42 19.5q-23 0 -45 -19l-7 -6l-1 -1q-42 -41 -42 -68zM146 901q0 24 30 51q29 27 49 27q17 0 35 -18t46 -63q50 -78 50 -103q0 -23 -26 -44
q-18 -15 -35 -15q-18 0 -38 16.5t-58 60.5q-30 36 -41.5 54t-11.5 34z" />
    <glyph glyph-name="Eacute" unicode="&#xc9;" horiz-adv-x="487" 
d="M10 98v476q0 34 1 54.5t8 36.5t12.5 23t24.5 11t33.5 4.5t49.5 0.5h94q6 0 20 0.5t21 0.5h86q37 0 50.5 -1t26 -11t14.5 -27.5t2 -55.5q0 -73 -8.5 -104t-38.5 -42q20 -10 27 -32t7 -64q0 -55 -5 -81.5t-23 -39.5q38 -6 50 -32t12 -78q0 -93 -18 -114.5t-99 -21.5
q-225 0 -256 -1q-66 0 -78.5 15t-12.5 83zM27 98q0 -56 10 -68t64 -12l256 1q70 0 85 18.5t15 99.5q0 51 -14.5 73t-61.5 22h-139v17h85q64 0 80 21.5t16 97.5q0 50 -13.5 69t-60.5 19h-107v17h94q67 0 83.5 25.5t16.5 111.5q0 56 -12 66.5t-64 10.5h-86q-7 0 -21 -0.5
t-20 -0.5h-94q-30 0 -42.5 -0.5t-29 -4t-21.5 -9.5t-11 -19.5t-7 -31.5t-1 -47v-476zM44 98v476q0 37 2 54.5t15 27.5t27 11t51 1h56q12 0 38.5 0.5t40.5 0.5h86q41 0 50 -8t9 -51q0 -74 -14 -96.5t-69 -22.5h-111v-53h124q36 0 46.5 -15t10.5 -55q0 -64 -13 -82.5
t-66 -18.5h-102v-53h156q37 0 48 -18t11 -59q0 -68 -12.5 -84t-70.5 -16q-225 0 -256 -1q-41 0 -49 9.5t-8 52.5zM100 796q0 35 56 120l-1 -1q32 51 56.5 73.5t50.5 22.5q30 0 69 -36l1 1q40 -37 40 -75q0 -24 -13.5 -46t-48.5 -62l1 2q-72 -91 -119 -91q-31 0 -58 27l1 -2
q-35 31 -35 67zM115 796q0 -28 30 -54h-1q22 -22 48 -22q39 0 106 85q32 37 45 57t13 39q0 32 -34 63q-36 31 -60 31q-39 0 -94 -88q-53 -80 -53 -111zM131 796q0 26 50 103v-1q27 43 45.5 62t35.5 19q20 0 50 -28v1q29 -26 29 -51q0 -15 -11.5 -32.5t-42.5 -53.5
q-63 -79 -95 -79q-19 0 -37 18q-24 21 -24 42z" />
    <glyph glyph-name="Ecircumflex" unicode="&#xca;" horiz-adv-x="487" 
d="M10 98v476q0 34 1 54.5t8 36.5t12.5 23t24.5 11t33.5 4.5t49.5 0.5h94q6 0 20 0.5t21 0.5h86q37 0 50.5 -1t26 -11t14.5 -27.5t2 -55.5q0 -73 -8.5 -104t-38.5 -42q20 -10 27 -32t7 -64q0 -55 -5 -81.5t-23 -39.5q38 -6 50 -32t12 -78q0 -93 -18 -114.5t-99 -21.5
q-225 0 -256 -1q-66 0 -78.5 15t-12.5 83zM27 98q0 -56 10 -68t64 -12l256 1q70 0 85 18.5t15 99.5q0 51 -14.5 73t-61.5 22h-139v17h85q64 0 80 21.5t16 97.5q0 50 -13.5 69t-60.5 19h-107v17h94q67 0 83.5 25.5t16.5 111.5q0 56 -12 66.5t-64 10.5h-86q-7 0 -21 -0.5
t-20 -0.5h-94q-30 0 -42.5 -0.5t-29 -4t-21.5 -9.5t-11 -19.5t-7 -31.5t-1 -47v-476zM44 98v476q0 37 2 54.5t15 27.5t27 11t51 1h56q12 0 38.5 0.5t40.5 0.5h86q41 0 50 -8t9 -51q0 -74 -14 -96.5t-69 -22.5h-111v-53h124q36 0 46.5 -15t10.5 -55q0 -64 -13 -82.5
t-66 -18.5h-102v-53h156q37 0 48 -18t11 -59q0 -68 -12.5 -84t-70.5 -16q-225 0 -256 -1q-41 0 -49 9.5t-8 52.5zM89 787q0 25 34 77q39 61 63 77t74 16q46 0 69 -14t58 -70v1q37 -56 37 -83q0 -38 -46 -68l-3 -3q-31 -17 -53 -17q-38 0 -65 35q-27 -33 -69 -33
q-23 0 -47 12q-30 17 -41 30.5t-11 39.5zM105 787q0 -21 9.5 -32t34.5 -25q22 -10 39 -10q38 0 63 35l-1 -1l8 11q5 -6 12 -16h-1q24 -31 53 -31q17 0 44 15l5 4l-2 -2q39 24 39 56q0 20 -34 75q-32 49 -53.5 62.5t-60.5 13.5q-43 0 -65 -15t-59 -71q-31 -49 -31 -69z
M121 787q0 15 29 61q33 52 52.5 65.5t57.5 13.5q35 0 53 -11.5t47 -57.5q31 -47 31 -67q0 -23 -31 -43l-4 -3q-21 -12 -34 -12q-22 0 -40 26q-1 1 -25 37q-14 -26 -20 -33q-19 -28 -49 -28q-14 0 -31 9v-1q-15 9 -20.5 13.5t-10.5 12t-5 18.5z" />
    <glyph glyph-name="Edieresis" unicode="&#xcb;" horiz-adv-x="487" 
d="M15 98v476q0 34 1 54.5t8 36.5t12.5 23t24.5 11t33.5 4.5t49.5 0.5h94q6 0 20 0.5t21 0.5h86q37 0 50.5 -1t26 -11t14.5 -27.5t2 -55.5q0 -73 -8.5 -104t-38.5 -42q20 -10 27 -32t7 -64q0 -55 -5 -81.5t-23 -39.5q38 -6 50 -32t12 -78q0 -93 -18 -114.5t-99 -21.5
q-225 0 -256 -1q-66 0 -78.5 15t-12.5 83zM16 821q0 53 34.5 80t89.5 27q63 0 96 -33q34 33 97 33q53 0 89 -27t36 -80q0 -52 -36 -79t-89 -27q-64 0 -97 33q-32 -33 -96 -33q-55 0 -89.5 27t-34.5 79zM32 98q0 -56 10 -68t64 -12l256 1q70 0 85 18.5t15 99.5q0 51 -14.5 73
t-61.5 22h-139v17h85q64 0 80 21.5t16 97.5q0 50 -13.5 69t-60.5 19h-107v17h94q67 0 83.5 25.5t16.5 111.5q0 56 -11.5 66.5t-64.5 10.5h-86q-7 0 -21 -0.5t-20 -0.5h-94q-30 0 -42.5 -0.5t-29 -4t-21.5 -9.5t-11 -19.5t-7 -31.5t-1 -47v-476zM33 821q0 -45 29.5 -68
t77.5 -23q73 0 97 46q24 -46 96 -46q47 0 77.5 23t30.5 68q0 46 -30.5 69.5t-77.5 23.5q-71 0 -96 -48q-25 48 -97 48q-48 0 -77.5 -23.5t-29.5 -69.5zM49 98v476q0 37 2 54.5t15 27.5t27 11t51 1h56q12 0 38.5 0.5t40.5 0.5h86q41 0 50 -8t9 -51q0 -74 -14 -96.5t-69 -22.5
h-111v-53h124q36 0 46.5 -15t10.5 -55q0 -64 -13 -82.5t-66 -18.5h-102v-53h156q37 0 48 -18t11 -59q0 -68 -12.5 -84t-70.5 -16q-225 0 -256 -1q-41 0 -49 9.5t-8 52.5zM50 821q0 39 25 58.5t65 19.5t65 -19.5t25 -58.5q0 -38 -25 -57.5t-65 -19.5t-65 19.5t-25 57.5z
M243 821q0 39 25 58.5t65 19.5q39 0 65 -20t26 -58t-26 -57.5t-65 -19.5q-40 0 -65 19.5t-25 57.5z" />
    <glyph glyph-name="Igrave" unicode="&#xcc;" horiz-adv-x="240" 
d="M-27 901q0 33 58 90q23 20 52 20q27 0 50 -21t57 -74q55 -89 55 -121q0 -37 -38 -69q-29 -22 -54 -22q-26 0 -50.5 18.5t-68.5 69.5q-35 42 -48 63.5t-13 45.5zM-12 901q0 -14 8 -30t16 -26.5t33 -41.5q41 -48 63.5 -65.5t44.5 -17.5q20 0 45 19q31 26 31 56
q0 31 -51 112q-33 49 -53 68.5t-42 19.5q-23 0 -45 -19l-7 -6l-1 -1q-42 -41 -42 -68zM4 98v476q0 34 1.5 55t8 36.5t12 22.5t23 11t30.5 4.5t44 0.5q55 0 73 -20.5t18 -85.5v-475q0 -80 -25.5 -101.5t-97.5 -21.5q-59 0 -73 16.5t-14 81.5zM4 901q0 24 30 51q29 27 49 27
q17 0 35 -18t46 -63q50 -78 50 -103q0 -23 -26 -44q-18 -15 -35 -15q-18 0 -38 16.5t-58 60.5q-30 36 -41.5 54t-11.5 34zM19 98q0 -54 11.5 -67t60.5 -13q64 0 86.5 18t22.5 87v475q0 54 -15.5 71t-61.5 17q-39 0 -54 -1.5t-29.5 -12.5t-17.5 -33t-3 -65v-476zM33 98v476
q0 36 2.5 54.5t15 27.5t25.5 10.5t47 1.5q37 0 50 -13.5t13 -56.5v-475q0 -57 -20 -72t-75 -15q-39 0 -48.5 10.5t-9.5 51.5z" />
    <glyph glyph-name="Iacute" unicode="&#xcd;" horiz-adv-x="240" 
d="M-23 796q0 35 56 120l-1 -1q32 51 56.5 73.5t50.5 22.5q30 0 69 -36l1 1q40 -37 40 -75q0 -24 -13.5 -46t-48.5 -62l1 2q-72 -91 -119 -91q-31 0 -58 27l1 -2q-35 31 -35 67zM-8 796q0 -28 30 -54h-1q22 -22 48 -22q39 0 106 85q32 37 45 57t13 39q0 32 -34 63
q-36 31 -60 31q-39 0 -94 -88q-53 -80 -53 -111zM4 98v476q0 34 1.5 55t8 36.5t12 22.5t23 11t30.5 4.5t44 0.5q55 0 73 -20.5t18 -85.5v-475q0 -80 -25.5 -101.5t-97.5 -21.5q-59 0 -73 16.5t-14 81.5zM8 796q0 26 50 103v-1q27 43 45.5 62t35.5 19q20 0 50 -28v1
q29 -26 29 -51q0 -15 -11.5 -32.5t-42.5 -53.5q-63 -79 -95 -79q-19 0 -37 18q-24 21 -24 42zM19 98q0 -54 11.5 -67t60.5 -13q64 0 86.5 18t22.5 87v475q0 54 -15.5 71t-61.5 17q-39 0 -54 -1.5t-29.5 -12.5t-17.5 -33t-3 -65v-476zM33 98v476q0 36 2.5 54.5t15 27.5
t25.5 10.5t47 1.5q37 0 50 -13.5t13 -56.5v-475q0 -57 -20 -72t-75 -15q-39 0 -48.5 10.5t-9.5 51.5z" />
    <glyph glyph-name="Icircumflex" unicode="&#xce;" horiz-adv-x="240" 
d="M-55 787q0 25 34 77q39 61 63 77t74 16q46 0 69 -14t58 -70v1q37 -56 37 -83q0 -38 -46 -68l-3 -3q-31 -17 -53 -17q-38 0 -65 35q-27 -33 -69 -33q-23 0 -47 12q-30 17 -41 30.5t-11 39.5zM-39 787q0 -21 9.5 -32t34.5 -25q22 -10 39 -10q38 0 63 35l-1 -1l8 11
q5 -6 12 -16h-1q24 -31 53 -31q17 0 44 15l5 4l-2 -2q39 24 39 56q0 20 -34 75q-32 49 -53.5 62.5t-60.5 13.5q-43 0 -65 -15t-59 -71q-31 -49 -31 -69zM-23 787q0 15 29 61q33 52 52.5 65.5t57.5 13.5q35 0 53 -11.5t47 -57.5q31 -47 31 -67q0 -23 -31 -43l-4 -3
q-21 -12 -34 -12q-22 0 -40 26q-1 1 -25 37q-14 -26 -20 -33q-19 -28 -49 -28q-14 0 -31 9v-1q-15 9 -20.5 13.5t-10.5 12t-5 18.5zM4 98v476q0 34 1.5 55t8 36.5t12 22.5t23 11t30.5 4.5t44 0.5q55 0 73 -20.5t18 -85.5v-475q0 -80 -25.5 -101.5t-97.5 -21.5
q-59 0 -73 16.5t-14 81.5zM19 98q0 -54 11.5 -67t60.5 -13q64 0 86.5 18t22.5 87v475q0 54 -15.5 71t-61.5 17q-39 0 -54 -1.5t-29.5 -12.5t-17.5 -33t-3 -65v-476zM33 98v476q0 36 2.5 54.5t15 27.5t25.5 10.5t47 1.5q37 0 50 -13.5t13 -56.5v-475q0 -57 -20 -72t-75 -15
q-39 0 -48.5 10.5t-9.5 51.5z" />
    <glyph glyph-name="Idieresis" unicode="&#xcf;" horiz-adv-x="240" 
d="M-107 821q0 53 34.5 80t89.5 27q63 0 96 -33q35 33 97 33q53 0 89 -27t36 -80q0 -52 -36 -79t-89 -27q-64 0 -97 33q-32 -33 -96 -33q-55 0 -89.5 27t-34.5 79zM-90 821q0 -45 29.5 -68t77.5 -23q73 0 97 46q24 -46 96 -46q47 0 77.5 23t30.5 68q0 46 -30.5 69.5
t-77.5 23.5q-70 0 -96 -48q-26 48 -97 48q-48 0 -77.5 -23.5t-29.5 -69.5zM-73 821q0 39 25 58.5t65 19.5t65 -19.5t25 -58.5q0 -38 -25 -57.5t-65 -19.5t-65 19.5t-25 57.5zM4 98v476q0 34 1.5 55t8 36.5t12 22.5t23 11t30.5 4.5t44 0.5q55 0 73 -20.5t18 -85.5v-475
q0 -80 -25.5 -101.5t-97.5 -21.5q-59 0 -73 16.5t-14 81.5zM19 98q0 -54 11.5 -67t60.5 -13q64 0 86.5 18t22.5 87v475q0 54 -15.5 71t-61.5 17q-39 0 -54 -1.5t-29.5 -12.5t-17.5 -33t-3 -65v-476zM33 98v476q0 36 2.5 54.5t15 27.5t25.5 10.5t47 1.5q37 0 50 -13.5
t13 -56.5v-475q0 -57 -20 -72t-75 -15q-39 0 -48.5 10.5t-9.5 51.5zM120 821q0 39 25 58.5t65 19.5q39 0 65 -20t26 -58t-26 -57.5t-65 -19.5q-40 0 -65 19.5t-25 57.5z" />
    <glyph glyph-name="Eth" unicode="&#xd0;" horiz-adv-x="524" 
d="M11 272q0 22 1.5 34.5t7 30t19.5 28.5t37 18v191q0 34 1 54.5t8 36.5t12.5 23t25 11t34 4.5t50.5 0.5q51 0 83 -1t72.5 -4.5t65 -10t54 -18.5t46.5 -29.5t35 -43t27 -59t14.5 -77.5t5.5 -98q0 -72 -10.5 -126.5t-27.5 -93t-48 -65t-63 -42t-83 -23.5t-96.5 -10.5
t-113.5 -2.5q-24 0 -38.5 1t-26 6t-16 9t-7.5 18.5t-3.5 25.5t-0.5 38v84q-45 4 -55 20t-10 70zM28 272q0 -43 12.5 -57t53.5 -16v-101q0 -56 10 -68t64 -12q57 0 96 1.5t83.5 7t73.5 16t59.5 27.5t49 42.5t34 60.5t22 82.5t6.5 107.5q0 51 -5.5 92.5t-14 73.5t-25.5 56
t-33.5 40.5t-44.5 28t-51.5 18t-62 9.5t-69.5 4t-79 1q-31 0 -43.5 -0.5t-29.5 -4t-21.5 -9.5t-10.5 -19.5t-7 -31t-1 -47.5v-204q-23 -5 -37.5 -14.5t-20 -25t-7 -27t-1.5 -31.5zM46 272q0 18 1 27.5t6.5 23t20 21.5t37.5 11v219q0 37 2 54.5t15.5 27.5t27.5 11t51 1
q46 0 75.5 -1t66 -4t59 -9t49.5 -16.5t42.5 -26.5t31.5 -38.5t24.5 -52.5t13.5 -69t5 -88q0 -65 -9.5 -114.5t-25 -84t-44.5 -58.5t-58 -37.5t-76 -21t-88.5 -9.5t-104.5 -2q-41 0 -49 9.5t-8 52.5v119q-46 1 -55.5 9.5t-9.5 45.5zM297 199h10q54 0 68.5 32.5t14.5 141.5
q0 32 -0.5 46.5t-3.5 32t-8 23.5t-16 12.5t-26 7.5t-39 1v-140q46 -3 46 -68q0 -61 -46 -71v-18zM315 372v106q40 -2 48.5 -20.5t8.5 -84.5q0 -74 -5 -105t-22 -43q16 22 16 63q0 69 -46 84zM333 383q13 -7 22 -18v8q0 62 -7 73q-5 7 -15 10v-73z" />
    <glyph glyph-name="Ntilde" unicode="&#xd1;" horiz-adv-x="626" 
d="M13 98v476q0 34 1.5 55t9 36.5t13.5 22.5t25.5 11t34.5 4.5t50 0.5q31 0 50.5 -2t46 -9t47 -25t35.5 -46q4 58 32.5 70t132.5 12q66 0 80 -18.5t14 -87.5v-475q0 -78 -36.5 -100.5t-118.5 -22.5q-45 0 -76.5 19.5t-64.5 81.5l-7 9l-11 26l1 -13q0 -83 -29.5 -103
t-137.5 -20q-24 0 -38.5 1t-26 6t-16 9t-7.5 18.5t-3.5 25.5t-0.5 38zM31 98q0 -56 10 -68t64 -12q97 0 123 17t26 88q-1 37 -2 93q26 -58 52 -106q30 -57 58 -74.5t68 -17.5q29 0 46.5 1.5t37 7.5t30 17t17.5 30.5t7 48.5v475q0 58 -11.5 73t-65.5 15q-41 0 -58 -0.5
t-39 -4t-28 -9t-13.5 -19.5t-8.5 -31.5t-1 -47.5v-29l-16 37v-1l-2 4l-9 20q-14 28 -32.5 45.5t-44 24.5t-44 9t-48.5 2t-43 -0.5t-30 -4t-22.5 -9.5t-12 -19.5t-7.5 -31.5t-1 -47v-476zM48 98v476q0 36 3 54.5t16.5 27.5t28 10.5t51.5 1.5q27 0 44.5 -1.5t40.5 -7.5
t40 -21.5t28 -39.5q37 -83 61 -143v119q0 69 19.5 81.5t110.5 12.5q42 0 50.5 -12t8.5 -58v-475q0 -56 -28.5 -71.5t-91.5 -15.5q-34 0 -58.5 16t-52.5 67q-41 77 -86 182l4 -178q0 -59 -23 -73t-109 -14q-41 0 -49 9.5t-8 52.5zM101 771q0 42 49 80.5t107 38.5
q57 0 101 -27h-2l4 -4q5 0 13 6q31 20 53 20q29 0 62 -27q29 -26 29 -56q0 -41 -52.5 -77.5t-115.5 -36.5q-62 0 -102 25l-11 -4l-1 2q-34 -17 -50 -17q-27 0 -56 21q-28 27 -28 56zM118 771q0 -23 22 -46q25 -17 45 -17q15 0 45 15l12 4l7 4l3 -3l3 -1l-4 1q41 -25 98 -25
q56 0 103.5 32t47.5 67q0 24 -23 46q-27 22 -51 22q-17 0 -42 -16q-13 -9 -25 -9l-12 7q-40 24 -90 24q-51 0 -95 -34t-44 -71zM134 771q0 32 39 61.5t84 29.5q44 0 80 -23h1q16 -8 21 -8q17 0 35 12q20 13 32 13q17 0 39 -18q18 -18 18 -36q0 -31 -42 -58t-92 -27t-87 22
l-1 1q-3 0 -3 2q-5 4 -9 4q-6 0 -16 -6l-8 -4l3 1q-26 -14 -43 -14q-16 0 -33 13q-18 16 -18 35zM249 714l3 -1l-2 2zM282 110q0 -3 4 -9z" />
    <glyph glyph-name="Ograve" unicode="&#xd2;" horiz-adv-x="598" 
d="M11 337q0 170 78 271.5t219 101.5t207 -95.5t66 -265.5q0 -164 -70 -258.5t-200 -94.5q-137 0 -218.5 83t-81.5 258zM28 337q0 -166 77 -245t206 -79q122 0 187 90t65 246q0 161 -61.5 252t-193.5 91q-133 0 -206.5 -96.5t-73.5 -258.5zM46 337q0 154 68.5 245.5
t193.5 91.5q123 0 180 -86t57 -239q0 -148 -60 -233t-174 -85q-121 0 -193 75t-72 231zM168 901q0 33 58 90q23 20 52 20q27 0 50 -21t57 -74q55 -89 55 -121q0 -37 -38 -69q-29 -22 -54 -22q-26 0 -50.5 18.5t-68.5 69.5q-35 42 -48 63.5t-13 45.5zM183 901q0 -14 8 -30
t16 -26.5t33 -41.5q41 -48 63.5 -65.5t44.5 -17.5q20 0 45 19q31 26 31 56q0 31 -51 112q-33 49 -53 68.5t-42 19.5q-23 0 -45 -19l-7 -6l-1 -1q-42 -41 -42 -68zM199 901q0 24 30 51q29 27 49 27q17 0 35 -18t46 -63q50 -78 50 -103q0 -23 -26 -44q-18 -15 -35 -15
q-18 0 -38 16.5t-58 60.5q-30 36 -41.5 54t-11.5 34zM230 341q0 -95 17 -125.5t60 -30.5q33 0 45 39t12 126q0 90 -11.5 129.5t-47.5 39.5q-43 0 -59 -41t-16 -137zM247 341q0 86 12.5 123t45.5 37q25 0 33 -35t8 -116q0 -77 -8.5 -112t-30.5 -35q-34 0 -47 27t-13 111z
M265 341q0 -73 9 -96.5t33 -23.5q22 0 22 129q0 70 -5 101.5t-19 31.5q-23 0 -31.5 -32.5t-8.5 -109.5z" />
    <glyph glyph-name="Oacute" unicode="&#xd3;" horiz-adv-x="598" 
d="M11 337q0 170 78 271.5t219 101.5t207 -95.5t66 -265.5q0 -164 -70 -258.5t-200 -94.5q-137 0 -218.5 83t-81.5 258zM28 337q0 -166 77 -245t206 -79q122 0 187 90t65 246q0 161 -61.5 252t-193.5 91q-133 0 -206.5 -96.5t-73.5 -258.5zM46 337q0 154 68.5 245.5
t193.5 91.5q123 0 180 -86t57 -239q0 -148 -60 -233t-174 -85q-121 0 -193 75t-72 231zM153 796q0 35 56 120l-1 -1q32 51 56.5 73.5t50.5 22.5q30 0 69 -36l1 1q40 -37 40 -75q0 -24 -13.5 -46t-48.5 -62l1 2q-72 -91 -119 -91q-31 0 -58 27l1 -2q-35 31 -35 67zM168 796
q0 -28 30 -54h-1q22 -22 48 -22q39 0 106 85q32 37 45 57t13 39q0 32 -34 63q-36 31 -60 31q-39 0 -94 -88q-53 -80 -53 -111zM184 796q0 26 50 103v-1q27 43 45.5 62t35.5 19q20 0 50 -28v1q29 -26 29 -51q0 -15 -11.5 -32.5t-42.5 -53.5q-63 -79 -95 -79q-19 0 -37 18
q-24 21 -24 42zM230 341q0 -95 17 -125.5t60 -30.5q33 0 45 39t12 126q0 90 -11.5 129.5t-47.5 39.5q-43 0 -59 -41t-16 -137zM247 341q0 86 12.5 123t45.5 37q25 0 33 -35t8 -116q0 -77 -8.5 -112t-30.5 -35q-34 0 -47 27t-13 111zM265 341q0 -73 9 -96.5t33 -23.5
q22 0 22 129q0 70 -5 101.5t-19 31.5q-23 0 -31.5 -32.5t-8.5 -109.5z" />
    <glyph glyph-name="Ocircumflex" unicode="&#xd4;" horiz-adv-x="598" 
d="M11 337q0 170 78 271.5t219 101.5t207 -95.5t66 -265.5q0 -164 -70 -258.5t-200 -94.5q-137 0 -218.5 83t-81.5 258zM28 337q0 -166 77 -245t206 -79q122 0 187 90t65 246q0 161 -61.5 252t-193.5 91q-133 0 -206.5 -96.5t-73.5 -258.5zM46 337q0 154 68.5 245.5
t193.5 91.5q123 0 180 -86t57 -239q0 -148 -60 -233t-174 -85q-121 0 -193 75t-72 231zM142 787q0 25 34 77q39 61 63 77t74 16q46 0 69 -14t58 -70v1q37 -56 37 -83q0 -38 -46 -68l-3 -3q-31 -17 -53 -17q-38 0 -65 35q-27 -33 -69 -33q-23 0 -47 12q-30 17 -41 30.5
t-11 39.5zM158 787q0 -21 9.5 -32t34.5 -25q22 -10 39 -10q38 0 63 35l-1 -1l8 11q5 -6 12 -16h-1q24 -31 53 -31q17 0 44 15l5 4l-2 -2q39 24 39 56q0 20 -34 75q-32 49 -53.5 62.5t-60.5 13.5q-43 0 -65 -15t-59 -71q-31 -49 -31 -69zM174 787q0 15 29 61q33 52 52.5 65.5
t57.5 13.5q35 0 53 -11.5t47 -57.5q31 -47 31 -67q0 -23 -31 -43l-4 -3q-21 -12 -34 -12q-22 0 -40 26q-1 1 -25 37q-14 -26 -20 -33q-19 -28 -49 -28q-15 0 -31 9v-1q-15 9 -20.5 13.5t-10.5 12t-5 18.5zM230 341q0 -95 17 -125.5t60 -30.5q33 0 45 39t12 126
q0 90 -11.5 129.5t-47.5 39.5q-43 0 -59 -41t-16 -137zM247 341q0 86 12.5 123t45.5 37q25 0 33 -35t8 -116q0 -77 -8.5 -112t-30.5 -35q-34 0 -47 27t-13 111zM265 341q0 -73 9 -96.5t33 -23.5q22 0 22 129q0 70 -5 101.5t-19 31.5q-23 0 -31.5 -32.5t-8.5 -109.5z" />
    <glyph glyph-name="Otilde" unicode="&#xd5;" horiz-adv-x="598" 
d="M11 337q0 170 78 271.5t219 101.5t207 -95.5t66 -265.5q0 -164 -70 -258.5t-200 -94.5q-137 0 -218.5 83t-81.5 258zM28 337q0 -166 77 -245t206 -79q122 0 187 90t65 246q0 161 -61.5 252t-193.5 91q-133 0 -206.5 -96.5t-73.5 -258.5zM46 337q0 154 68.5 245.5
t193.5 91.5q123 0 180 -86t57 -239q0 -148 -60 -233t-174 -85q-121 0 -193 75t-72 231zM111 771q0 42 49 80.5t107 38.5q57 0 101 -27h-2l4 -4q5 0 13 6q31 20 53 20q29 0 62 -27q29 -26 29 -56q0 -41 -52.5 -77.5t-115.5 -36.5q-62 0 -102 25l-11 -4l-1 2q-34 -17 -50 -17
q-27 0 -56 21q-28 27 -28 56zM128 771q0 -23 22 -46q25 -17 45 -17q15 0 45 15l12 4l7 4l3 -3l3 -1l-4 1q41 -25 98 -25q56 0 103.5 32t47.5 67q0 24 -23 46q-27 22 -51 22q-17 0 -42 -16q-13 -9 -25 -9l-12 7q-40 24 -90 24q-51 0 -95 -34t-44 -71zM144 771q0 32 39 61.5
t84 29.5q44 0 80 -23h1q16 -8 21 -8q17 0 35 12q20 13 32 13q17 0 39 -18q18 -18 18 -36q0 -31 -42 -58t-92 -27t-87 22l-1 1q-3 0 -3 2q-5 4 -9 4q-6 0 -16 -6l-8 -4l3 1q-26 -14 -43 -14q-16 0 -33 13q-18 16 -18 35zM230 341q0 -95 17 -125.5t60 -30.5q33 0 45 39t12 126
q0 90 -11.5 129.5t-47.5 39.5q-43 0 -59 -41t-16 -137zM247 341q0 86 12.5 123t45.5 37q25 0 33 -35t8 -116q0 -77 -8.5 -112t-30.5 -35q-34 0 -47 27t-13 111zM259 714l3 -1l-2 2zM265 341q0 -73 9 -96.5t33 -23.5q22 0 22 129q0 70 -5 101.5t-19 31.5q-23 0 -31.5 -32.5
t-8.5 -109.5z" />
    <glyph glyph-name="Odieresis" unicode="&#xd6;" horiz-adv-x="598" 
d="M11 337q0 170 78 271.5t219 101.5t207 -95.5t66 -265.5q0 -164 -70 -258.5t-200 -94.5q-137 0 -218.5 83t-81.5 258zM28 337q0 -166 77 -245t206 -79q122 0 187 90t65 246q0 161 -61.5 252t-193.5 91q-133 0 -206.5 -96.5t-73.5 -258.5zM46 337q0 154 68.5 245.5
t193.5 91.5q123 0 180 -86t57 -239q0 -148 -60 -233t-174 -85q-121 0 -193 75t-72 231zM63 821q0 53 34.5 80t89.5 27q63 0 96 -33q35 33 97 33q53 0 89 -27t36 -80q0 -52 -36 -79t-89 -27q-64 0 -97 33q-32 -33 -96 -33q-55 0 -89.5 27t-34.5 79zM80 821q0 -45 29.5 -68
t77.5 -23q73 0 97 46q24 -46 96 -46q47 0 77.5 23t30.5 68q0 46 -30.5 69.5t-77.5 23.5q-70 0 -96 -48q-26 48 -97 48q-48 0 -77.5 -23.5t-29.5 -69.5zM97 821q0 39 25 58.5t65 19.5t65 -19.5t25 -58.5q0 -38 -25 -57.5t-65 -19.5t-65 19.5t-25 57.5zM230 341
q0 -95 17 -125.5t60 -30.5q33 0 45 39t12 126q0 90 -11.5 129.5t-47.5 39.5q-43 0 -59 -41t-16 -137zM247 341q0 86 12.5 123t45.5 37q25 0 33 -35t8 -116q0 -77 -8.5 -112t-30.5 -35q-34 0 -47 27t-13 111zM265 341q0 -73 9 -96.5t33 -23.5q22 0 22 129q0 70 -5 101.5
t-19 31.5q-23 0 -31.5 -32.5t-8.5 -109.5zM290 821q0 39 25 58.5t65 19.5q39 0 65 -20t26 -58t-26 -57.5t-65 -19.5q-40 0 -65 19.5t-25 57.5z" />
    <glyph glyph-name="multiply" unicode="&#xd7;" horiz-adv-x="368" 
d="M17 241q0 31 26 56l3 3q-25 33 -25 61q0 38 46 84q38 36 69 36q25 0 54 -26l6 -6q31 28 63 28q35 0 80 -45q36 -40 36 -70q0 -33 -30 -62h1l-1 -1q26 -31 26 -60q0 -25 -10 -40.5t-37 -43.5q-34 -32 -67 -32q-36 0 -59 26l-2 1q-27 -24 -60 -24q-37 0 -83 46
q-36 36 -36 69zM34 241q0 -28 31 -57q42 -42 71 -42t59 30v1q4 -5 15 -14q17 -20 47 -20q27 0 55 28q18 18 24.5 25t12.5 20t6 27q0 30 -33 62l12 11v-1q25 25 25 51q0 21 -27 55q-45 43 -73 43q-30 0 -63 -33l-17 17q-23 20 -43 20q-25 0 -58 -31q-40 -40 -40 -72
q0 -27 28 -58l3 -2l-15 -16q-20 -20 -20 -44zM50 241q0 17 15 33l27 27l-14 14q-24 25 -24 46q0 25 36 61q28 26 46 26q15 0 32 -16l28 -27l12 10q28 29 51 29q21 0 61 -38q22 -26 22 -44q0 -20 -19 -38l-24 -23l11 -12q28 -25 28 -50q0 -11 -5.5 -21.5t-11 -17.5t-20.5 -22
q-23 -23 -44 -23q-22 0 -37 18l2 -1q-8 6 -18 17l-8 8l-14 -14q-21 -24 -46 -24q-22 0 -60 36q-26 26 -26 46z" />
    <glyph glyph-name="Oslash" unicode="&#xd8;" horiz-adv-x="675" 
d="M24 91q0 34 31 75q-28 75 -28 171q0 171 79 272t221 101q72 0 121 -25l10 13q22 31 35 43.5t28 12.5q16 0 27 -10t24 -33q48 -85 48 -115q0 -29 -28 -68q-4 -6 -14 -18q19 -66 19 -160q0 -165 -68.5 -259t-198.5 -94q-61 0 -127 19q-41 -54 -76 -54q-43 0 -84 70
q-19 35 -19 59zM239 401l101 136q-12 2 -17 2q-43 0 -61.5 -32.5t-22.5 -105.5zM318 168h7q27 0 41.5 20.5t19.5 67.5l-29 -37l-15 -20z" />
    <glyph glyph-name="Ugrave" unicode="&#xd9;" horiz-adv-x="565" 
d="M12 274v301q0 35 1 56t8 37t13 23t25 11t34 4.5t50 0.5q79 0 102.5 -20.5t23.5 -87.5l-7 -305q0 -47 9 -47q14 0 19 8.5t5 31.5l-5 286q0 47 4.5 70t22.5 39.5t48.5 20.5t88.5 4q63 0 77.5 -19t14.5 -88v-322q0 -133 -69 -207.5t-196 -74.5q-133 0 -201 74t-68 204z
M30 274q0 -122 63.5 -191.5t187.5 -69.5q119 0 183.5 70.5t64.5 194.5v322q0 57 -12 73t-63 16q-68 0 -97.5 -9t-39 -31t-9.5 -75q4 -194 4 -287q0 -33 -8.5 -45.5t-32.5 -12.5q-17 0 -22 15t-5 51l7 305q0 55 -20.5 72t-87.5 17q-31 0 -43.5 -0.5t-29 -4t-21.5 -9.5
t-11 -20t-7 -32t-1 -48v-301zM47 274v301q0 25 1 40.5t6 27t9 16.5t18 8t25 3.5t37 0.5q57 0 74 -13.5t17 -57.5l-7 -305q0 -47 8 -65.5t36 -18.5q34 0 46.5 16.5t12.5 59.5l-5 287q0 63 21.5 80t107.5 17q39 0 48 -12.5t9 -58.5v-322q0 -115 -60 -181t-170 -66
q-116 0 -175 65t-59 178zM143 901q0 33 58 90q23 20 52 20q27 0 50 -21t57 -74q55 -89 55 -121q0 -37 -38 -69q-29 -22 -54 -22q-26 0 -50.5 18.5t-68.5 69.5q-35 42 -48 63.5t-13 45.5zM158 901q0 -14 8 -30t16 -26.5t33 -41.5q41 -48 63.5 -65.5t44.5 -17.5q20 0 45 19
q31 26 31 56q0 31 -51 112q-33 49 -53 68.5t-42 19.5q-23 0 -45 -19l-7 -6l-1 -1q-42 -41 -42 -68zM174 901q0 24 30 51q29 27 49 27q17 0 35 -18t46 -63q50 -78 50 -103q0 -23 -26 -44q-18 -15 -35 -15q-18 0 -38 16.5t-58 60.5q-30 36 -41.5 54t-11.5 34z" />
    <glyph glyph-name="Uacute" unicode="&#xda;" horiz-adv-x="565" 
d="M12 274v301q0 35 1 56t8 37t13 23t25 11t34 4.5t50 0.5q79 0 102.5 -20.5t23.5 -87.5l-7 -305q0 -47 9 -47q14 0 19 8.5t5 31.5l-5 286q0 47 4.5 70t22.5 39.5t48.5 20.5t88.5 4q63 0 77.5 -19t14.5 -88v-322q0 -133 -69 -207.5t-196 -74.5q-133 0 -201 74t-68 204z
M30 274q0 -122 63.5 -191.5t187.5 -69.5q119 0 183.5 70.5t64.5 194.5v322q0 57 -12 73t-63 16q-68 0 -97.5 -9t-39 -31t-9.5 -75q4 -194 4 -287q0 -33 -8.5 -45.5t-32.5 -12.5q-17 0 -22 15t-5 51l7 305q0 55 -20.5 72t-87.5 17q-31 0 -43.5 -0.5t-29 -4t-21.5 -9.5
t-11 -20t-7 -32t-1 -48v-301zM47 274v301q0 25 1 40.5t6 27t9 16.5t18 8t25 3.5t37 0.5q57 0 74 -13.5t17 -57.5l-7 -305q0 -47 8 -65.5t36 -18.5q34 0 46.5 16.5t12.5 59.5l-5 287q0 63 21.5 80t107.5 17q39 0 48 -12.5t9 -58.5v-322q0 -115 -60 -181t-170 -66
q-116 0 -175 65t-59 178zM128 796q0 35 56 120l-1 -1q32 51 56.5 73.5t50.5 22.5q30 0 69 -36l1 1q40 -37 40 -75q0 -24 -13.5 -46t-48.5 -62l1 2q-72 -91 -119 -91q-31 0 -58 27l1 -2q-35 31 -35 67zM143 796q0 -28 30 -54h-1q22 -22 48 -22q39 0 106 85q32 37 45 57t13 39
q0 32 -34 63q-36 31 -60 31q-39 0 -94 -88q-53 -80 -53 -111zM159 796q0 26 50 103v-1q27 43 45.5 62t35.5 19q20 0 50 -28v1q29 -26 29 -51q0 -15 -11.5 -32.5t-42.5 -53.5q-63 -79 -95 -79q-19 0 -37 18q-24 21 -24 42z" />
    <glyph glyph-name="Ucircumflex" unicode="&#xdb;" horiz-adv-x="565" 
d="M12 274v301q0 35 1 56t8 37t13 23t25 11t34 4.5t50 0.5q79 0 102.5 -20.5t23.5 -87.5l-7 -305q0 -47 9 -47q14 0 19 8.5t5 31.5l-5 286q0 47 4.5 70t22.5 39.5t48.5 20.5t88.5 4q63 0 77.5 -19t14.5 -88v-322q0 -133 -69 -207.5t-196 -74.5q-133 0 -201 74t-68 204z
M30 274q0 -122 63.5 -191.5t187.5 -69.5q119 0 183.5 70.5t64.5 194.5v322q0 57 -12 73t-63 16q-68 0 -97.5 -9t-39 -31t-9.5 -75q4 -194 4 -287q0 -33 -8.5 -45.5t-32.5 -12.5q-17 0 -22 15t-5 51l7 305q0 55 -20.5 72t-87.5 17q-31 0 -43.5 -0.5t-29 -4t-21.5 -9.5
t-11 -20t-7 -32t-1 -48v-301zM47 274v301q0 25 1 40.5t6 27t9 16.5t18 8t25 3.5t37 0.5q57 0 74 -13.5t17 -57.5l-7 -305q0 -47 8 -65.5t36 -18.5q34 0 46.5 16.5t12.5 59.5l-5 287q0 63 21.5 80t107.5 17q39 0 48 -12.5t9 -58.5v-322q0 -115 -60 -181t-170 -66
q-116 0 -175 65t-59 178zM113 787q0 25 34 77q39 61 63 77t74 16q46 0 69 -14t58 -70v1q37 -56 37 -83q0 -38 -46 -68l-3 -3q-31 -17 -53 -17q-38 0 -65 35q-27 -33 -69 -33q-23 0 -47 12q-30 17 -41 30.5t-11 39.5zM129 787q0 -21 9.5 -32t34.5 -25q22 -10 39 -10
q38 0 63 35l-1 -1l8 11q5 -6 12 -16h-1q24 -31 53 -31q17 0 44 15l5 4l-2 -2q39 24 39 56q0 20 -34 75q-32 49 -53.5 62.5t-60.5 13.5q-43 0 -65 -15t-59 -71q-31 -49 -31 -69zM145 787q0 15 29 61q33 52 52.5 65.5t57.5 13.5q35 0 53 -11.5t47 -57.5q31 -47 31 -67
q0 -23 -31 -43l-4 -3q-21 -12 -34 -12q-22 0 -40 26q-1 1 -25 37q-14 -26 -20 -33q-19 -28 -49 -28q-14 0 -31 9v-1q-15 9 -20.5 13.5t-10.5 12t-5 18.5z" />
    <glyph glyph-name="Udieresis" unicode="&#xdc;" horiz-adv-x="565" 
d="M12 274v301q0 35 1 56t8 37t13 23t25 11t34 4.5t50 0.5q79 0 102.5 -20.5t23.5 -87.5l-7 -305q0 -47 9 -47q14 0 19 8.5t5 31.5l-5 286q0 47 4.5 70t22.5 39.5t48.5 20.5t88.5 4q63 0 77.5 -19t14.5 -88v-322q0 -133 -69 -207.5t-196 -74.5q-133 0 -201 74t-68 204z
M30 274q0 -122 63.5 -191.5t187.5 -69.5q119 0 183.5 70.5t64.5 194.5v322q0 57 -12 73t-63 16q-68 0 -97.5 -9t-39 -31t-9.5 -75q4 -194 4 -287q0 -33 -8.5 -45.5t-32.5 -12.5q-17 0 -22 15t-5 51l7 305q0 55 -20.5 72t-87.5 17q-31 0 -43.5 -0.5t-29 -4t-21.5 -9.5
t-11 -20t-7 -32t-1 -48v-301zM47 274v301q0 25 1 40.5t6 27t9 16.5t18 8t25 3.5t37 0.5q57 0 74 -13.5t17 -57.5l-7 -305q0 -47 8 -65.5t36 -18.5q34 0 46.5 16.5t12.5 59.5l-5 287q0 63 21.5 80t107.5 17q39 0 48 -12.5t9 -58.5v-322q0 -115 -60 -181t-170 -66
q-116 0 -175 65t-59 178zM51 821q0 53 34.5 80t89.5 27q63 0 96 -33q35 33 97 33q53 0 89 -27t36 -80q0 -52 -36 -79t-89 -27q-64 0 -97 33q-32 -33 -96 -33q-55 0 -89.5 27t-34.5 79zM68 821q0 -45 29.5 -68t77.5 -23q73 0 97 46q24 -46 96 -46q47 0 77.5 23t30.5 68
q0 46 -30.5 69.5t-77.5 23.5q-70 0 -96 -48q-26 48 -97 48q-48 0 -77.5 -23.5t-29.5 -69.5zM85 821q0 39 25 58.5t65 19.5t65 -19.5t25 -58.5q0 -38 -25 -57.5t-65 -19.5t-65 19.5t-25 57.5zM278 821q0 39 25 58.5t65 19.5q39 0 65 -20t26 -58t-26 -57.5t-65 -19.5
q-40 0 -65 19.5t-25 57.5z" />
    <glyph glyph-name="Yacute" unicode="&#xdd;" horiz-adv-x="638" 
d="M21 622q0 53 28 66.5t107 13.5q55 0 79.5 -8t36.5 -25.5t31 -66.5l4 -10l8 16q29 63 56.5 79t110.5 16q36 0 51.5 -1t32 -8t21.5 -22t5 -43q0 -27 -19 -65l-3 -6q-22 -45 -135 -253q0 -1 0.5 -3.5t0.5 -3.5q2 -78 2 -175q0 -85 -23.5 -104t-125.5 -19q-59 0 -85.5 19
t-26.5 79l5 205l-130 234q-31 54 -31 85zM39 622q0 -24 29 -76l133 -238q-6 -93 -6 -210q0 -49 22.5 -64.5t71.5 -15.5q90 0 110.5 16t20.5 89q0 96 -2 174v13q107 197 136 257l3 5q18 39 18 57q0 21 -4.5 32.5t-18.5 16.5t-26.5 6t-43.5 1q-75 0 -100 -14.5t-51 -70.5
l-25 -56q-2 3 -19 52q-13 34 -19.5 47t-21 25t-33.5 14t-57 2q-68 0 -92.5 -10.5t-24.5 -51.5zM56 622q0 29 21 36.5t79 7.5q61 0 78 -12t36 -64l36 -93q19 50 40 96q23 49 45 61.5t91 12.5q32 0 44.5 -1.5t21.5 -9.5t9 -27q0 -17 -16 -49l-2 -5q-29 -60 -139 -260
q0 -1 0.5 -8t0.5 -10q2 -74 2 -174q0 -60 -18 -73.5t-96 -13.5q-41 0 -59 12t-18 50l6 213l-136 244q-26 50 -26 67zM166 796q0 35 56 120l-1 -1q32 51 56.5 73.5t50.5 22.5q30 0 69 -36l1 1q40 -37 40 -75q0 -24 -13.5 -46t-48.5 -62l1 2q-72 -91 -119 -91q-31 0 -58 27
l1 -2q-35 31 -35 67zM181 796q0 -28 30 -54h-1q22 -22 48 -22q39 0 106 85q32 37 45 57t13 39q0 32 -34 63q-36 31 -60 31q-39 0 -94 -88q-53 -80 -53 -111zM197 796q0 26 50 103v-1q27 43 45.5 62t35.5 19q20 0 50 -28v1q29 -26 29 -51q0 -15 -11.5 -32.5t-42.5 -53.5
q-63 -79 -95 -79q-19 0 -37 18q-24 21 -24 42z" />
    <glyph glyph-name="Thorn" unicode="&#xde;" horiz-adv-x="467" 
d="M10 98v476q0 34 1 55t8 36.5t12.5 22.5t24.5 11t33 4.5t49 0.5q70 0 95 -19.5t26 -79.5q134 -8 183 -55.5t49 -176.5q0 -128 -54 -180t-178 -61v-9q0 -82 -28.5 -102.5t-120.5 -20.5q-61 0 -80.5 17.5t-19.5 80.5zM27 98q0 -52 16 -66t67 -14q82 0 107 17.5t25 87.5v26
q125 6 178.5 54t53.5 170q0 123 -48.5 166.5t-183.5 48.5v10q0 53 -21.5 70.5t-82.5 17.5q-30 0 -42.5 -0.5t-29 -4t-21.5 -9.5t-10.5 -19.5t-6.5 -31t-1 -47.5v-476zM45 98v476q0 37 2 54.5t14.5 27.5t26 11t50.5 1q51 0 69 -13.5t18 -56.5v-27q135 -4 183.5 -43.5
t48.5 -154.5q0 -80 -25.5 -124.5t-73.5 -62t-133 -20.5v-43q0 -58 -22 -72.5t-93 -14.5q-40 0 -52.5 11t-12.5 51zM225 353q32 1 44 5t12 16q0 17 -56 20v-41zM242 371v3h21q-1 -2 -21 -3z" />
    <glyph glyph-name="germandbls" unicode="&#xdf;" horiz-adv-x="547" 
d="M20 103v420q0 70 20.5 117.5t58 71t77.5 33t91 9.5q218 0 218 -192q0 -74 -52 -143v1q-29 -39 -29 -62q0 -2 31 -14q30 -12 45.5 -20t37.5 -25.5t32 -46t10 -67.5q0 -107 -52.5 -148t-149.5 -41q-83 0 -125 25q-23 -21 -110 -21q-56 0 -79.5 22.5t-23.5 80.5zM37 103
q0 -47 19.5 -66t66.5 -19q48 0 71.5 5t33.5 24q38 -33 130 -33q89 0 137 37t48 134q0 35 -9 60t-28.5 41t-34.5 23.5t-41 17.5q-43 17 -43 31q0 31 32 73q49 62 49 131q0 174 -201 174q-48 0 -85.5 -8.5t-72 -30.5t-53.5 -66t-19 -108v-420zM55 103v420q0 59 17.5 99.5
t49.5 60t66.5 27.5t78.5 8q183 0 183 -156q0 -62 -45 -121q-36 -49 -36 -83q0 -19 13.5 -28.5t41.5 -20.5q24 -9 36.5 -15.5t30.5 -20.5t26 -36t8 -52q0 -86 -43 -119t-124 -33q-73 0 -105 19.5t-32 59.5q0 12 5 32q5 21 14 27.5t16.5 4.5t26.5 -11h-1q30 -16 52 -16
q34 0 34 28q0 13 -11.5 20.5t-35.5 15.5q-28 11 -43 18.5t-34 28.5t-25 50l1 -216q0 -38 -20.5 -48t-76.5 -10q-37 0 -52.5 14.5t-15.5 52.5zM219 392q8 40 48 84v-1q28 34 28 52q0 26 -6 35.5t-20 9.5q-13 0 -22 -4t-18.5 -24t-9.5 -56v-96zM237 192v47q7 -7 14 -12.5
t16 -10.5t14 -7t18 -7t16 -6q36 -13 36 -19q0 -10 -17 -10q-15 0 -43 14h-1q-26 13 -39 13q-10 0 -14 -2zM237 468v20q0 66 32 66q9 0 9 -27q0 -11 -21 -36h1l-4 -3z" />
    <glyph glyph-name="agrave" unicode="&#xe0;" 
d="M18 87q0 28 7 49q46 173 68 266v-1l10 36l43 168l-1 -1q18 67 50 84.5t135 17.5q73 0 100 -17.5t39 -66.5l55 -217l69 -278l2 -16q4 -14 4 -24q0 -58 -28.5 -72.5t-120.5 -14.5q-26 0 -41.5 0.5t-28.5 5.5t-18.5 9t-12 18.5t-8.5 25t-8 38.5v-3l-1 4v-1q0 1 -1 3h-48
q-15 -69 -40.5 -84.5t-115.5 -15.5q-61 0 -85 15.5t-24 71.5zM35 87q0 -45 20.5 -57t71.5 -12q86 0 107.5 14.5t35.5 84.5v1h76l5 -18l-1 1q12 -59 25.5 -71t74.5 -12q82 0 106.5 11.5t24.5 57.5q0 7 -4 21l-1 14l-70 279l-54 216q-11 41 -34.5 56t-87.5 15
q-66 0 -95.5 -6.5t-45 -24t-26.5 -58.5v1q-2 -6 -8.5 -31t-16.5 -66t-18 -70l-9 -37v1l-68 -267v2q-8 -23 -8 -45zM53 87q0 21 8 40l-1 -1l67 267q9 33 21 81t20.5 81t10.5 40q13 49 39 62t112 13q56 0 76 -12t29 -45l55 -217l68 -275l2 -13q3 -10 3 -21q0 -34 -21.5 -42.5
t-91.5 -8.5q-50 0 -61.5 10t-21.5 58l-8 32h-105l-2 -16q-12 -59 -31 -71.5t-94 -12.5q-41 0 -57.5 9t-16.5 42zM182 911q0 33 58 90q23 20 52 20q27 0 50 -21t57 -74q55 -89 55 -121q0 -37 -38 -69q-29 -22 -54 -22q-26 0 -50.5 18.5t-68.5 69.5q-35 42 -48 63.5t-13 45.5z
M197 911q0 -14 8 -30t16 -26.5t33 -41.5q41 -48 63.5 -65.5t44.5 -17.5q20 0 45 19q31 26 31 56q0 31 -51 112q-33 49 -53 68.5t-42 19.5q-23 0 -45 -19l-7 -6l-1 -1q-42 -41 -42 -68zM213 911q0 24 30 51q29 27 49 27q17 0 35 -18t46 -63q50 -78 50 -103q0 -23 -26 -44
q-18 -15 -35 -15q-18 0 -38 16.5t-58 60.5q-30 36 -41.5 54t-11.5 34zM283 286h47q-6 23 -24 121l-8 -48z" />
    <glyph glyph-name="aacute" unicode="&#xe1;" 
d="M18 87q0 28 7 49q46 173 68 266v-1l10 36l43 168l-1 -1q18 67 50 84.5t135 17.5q73 0 100 -17.5t39 -66.5l55 -217l69 -278l2 -16q4 -14 4 -24q0 -58 -28.5 -72.5t-120.5 -14.5q-26 0 -41.5 0.5t-28.5 5.5t-18.5 9t-12 18.5t-8.5 25t-8 38.5v-3l-1 4v-1q0 1 -1 3h-48
q-15 -69 -40.5 -84.5t-115.5 -15.5q-61 0 -85 15.5t-24 71.5zM35 87q0 -45 20.5 -57t71.5 -12q86 0 107.5 14.5t35.5 84.5v1h76l5 -18l-1 1q12 -59 25.5 -71t74.5 -12q82 0 106.5 11.5t24.5 57.5q0 7 -4 21l-1 14l-70 279l-54 216q-11 41 -34.5 56t-87.5 15
q-66 0 -95.5 -6.5t-45 -24t-26.5 -58.5v1q-2 -6 -8.5 -31t-16.5 -66t-18 -70l-9 -37v1l-68 -267v2q-8 -23 -8 -45zM53 87q0 21 8 40l-1 -1l67 267q9 33 21 81t20.5 81t10.5 40q13 49 39 62t112 13q56 0 76 -12t29 -45l55 -217l68 -275l2 -13q3 -10 3 -21q0 -34 -21.5 -42.5
t-91.5 -8.5q-50 0 -61.5 10t-21.5 58l-8 32h-105l-2 -16q-12 -59 -31 -71.5t-94 -12.5q-41 0 -57.5 9t-16.5 42zM167 796q0 35 56 120l-1 -1q32 51 56.5 73.5t50.5 22.5q30 0 69 -36l1 1q40 -37 40 -75q0 -24 -13.5 -46t-48.5 -62l1 2q-72 -91 -119 -91q-31 0 -58 27l1 -2
q-35 31 -35 67zM182 796q0 -28 30 -54h-1q22 -22 48 -22q39 0 106 85q32 37 45 57t13 39q0 32 -34 63q-36 31 -60 31q-39 0 -94 -88q-53 -80 -53 -111zM198 796q0 26 50 103v-1q27 43 45.5 62t35.5 19q20 0 50 -28v1q29 -26 29 -51q0 -15 -11.5 -32.5t-42.5 -53.5
q-63 -79 -95 -79q-19 0 -37 18q-24 21 -24 42zM283 286h47q-6 23 -24 121l-8 -48z" />
    <glyph glyph-name="acircumflex" unicode="&#xe2;" 
d="M18 87q0 28 7 49q46 173 68 266v-1l10 36l43 168l-1 -1q18 67 50 84.5t135 17.5q73 0 100 -17.5t39 -66.5l55 -217l69 -278l2 -16q4 -14 4 -24q0 -58 -28.5 -72.5t-120.5 -14.5q-26 0 -41.5 0.5t-28.5 5.5t-18.5 9t-12 18.5t-8.5 25t-8 38.5v-3l-1 4v-1q0 1 -1 3h-48
q-15 -69 -40.5 -84.5t-115.5 -15.5q-61 0 -85 15.5t-24 71.5zM35 87q0 -45 20.5 -57t71.5 -12q86 0 107.5 14.5t35.5 84.5v1h76l5 -18l-1 1q12 -59 25.5 -71t74.5 -12q82 0 106.5 11.5t24.5 57.5q0 7 -4 21l-1 14l-70 279l-54 216q-11 41 -34.5 56t-87.5 15
q-66 0 -95.5 -6.5t-45 -24t-26.5 -58.5v1q-2 -6 -8.5 -31t-16.5 -66t-18 -70l-9 -37v1l-68 -267v2q-8 -23 -8 -45zM53 87q0 21 8 40l-1 -1l67 267q9 33 21 81t20.5 81t10.5 40q13 49 39 62t112 13q56 0 76 -12t29 -45l55 -217l68 -275l2 -13q3 -10 3 -21q0 -34 -21.5 -42.5
t-91.5 -8.5q-50 0 -61.5 10t-21.5 58l-8 32h-105l-2 -16q-12 -59 -31 -71.5t-94 -12.5q-41 0 -57.5 9t-16.5 42zM134 787q0 25 34 77q39 61 63 77t74 16q46 0 69 -14t58 -70v1q37 -56 37 -83q0 -38 -46 -68l-3 -3q-31 -17 -53 -17q-38 0 -65 35q-27 -33 -69 -33
q-23 0 -47 12q-30 17 -41 30.5t-11 39.5zM150 787q0 -21 9.5 -32t34.5 -25q22 -10 39 -10q38 0 63 35l-1 -1l8 11q5 -6 12 -16h-1q24 -31 53 -31q17 0 44 15l5 4l-2 -2q39 24 39 56q0 20 -34 75q-32 49 -53.5 62.5t-60.5 13.5q-43 0 -65 -15t-59 -71q-31 -49 -31 -69z
M166 787q0 15 29 61q33 52 52.5 65.5t57.5 13.5q35 0 53 -11.5t47 -57.5q31 -47 31 -67q0 -23 -31 -43l-4 -3q-21 -12 -34 -12q-22 0 -40 26q-1 1 -25 37q-14 -26 -20 -33q-19 -28 -49 -28q-15 0 -31 9v-1q-15 9 -20.5 13.5t-10.5 12t-5 18.5zM283 286h47q-6 23 -24 121
l-8 -48z" />
    <glyph glyph-name="atilde" unicode="&#xe3;" 
d="M18 87q0 28 7 49q46 173 68 266v-1l10 36l43 168l-1 -1q18 67 50 84.5t135 17.5q73 0 100 -17.5t39 -66.5l55 -217l69 -278l2 -16q4 -14 4 -24q0 -58 -28.5 -72.5t-120.5 -14.5q-26 0 -41.5 0.5t-28.5 5.5t-18.5 9t-12 18.5t-8.5 25t-8 38.5v-3l-1 4v-1q0 1 -1 3h-48
q-15 -69 -40.5 -84.5t-115.5 -15.5q-61 0 -85 15.5t-24 71.5zM35 87q0 -45 20.5 -57t71.5 -12q86 0 107.5 14.5t35.5 84.5v1h76l5 -18l-1 1q12 -59 25.5 -71t74.5 -12q82 0 106.5 11.5t24.5 57.5q0 7 -4 21l-1 14l-70 279l-54 216q-11 41 -34.5 56t-87.5 15
q-66 0 -95.5 -6.5t-45 -24t-26.5 -58.5v1q-2 -6 -8.5 -31t-16.5 -66t-18 -70l-9 -37v1l-68 -267v2q-8 -23 -8 -45zM53 87q0 21 8 40l-1 -1l67 267q9 33 21 81t20.5 81t10.5 40q13 49 39 62t112 13q56 0 76 -12t29 -45l55 -217l68 -275l2 -13q3 -10 3 -21q0 -34 -21.5 -42.5
t-91.5 -8.5q-50 0 -61.5 10t-21.5 58l-8 32h-105l-2 -16q-12 -59 -31 -71.5t-94 -12.5q-41 0 -57.5 9t-16.5 42zM91 771q0 42 49 80.5t107 38.5q57 0 101 -27h-2l4 -4q5 0 13 6q31 20 53 20q29 0 62 -27q29 -26 29 -56q0 -41 -52.5 -77.5t-115.5 -36.5q-62 0 -102 25l-11 -4
l-1 2q-34 -17 -50 -17q-27 0 -56 21q-28 27 -28 56zM108 771q0 -23 22 -46q25 -17 45 -17q15 0 45 15l12 4l7 4l3 -3l3 -1l-4 1q41 -25 98 -25q56 0 103.5 32t47.5 67q0 24 -23 46q-27 22 -51 22q-17 0 -42 -16q-13 -9 -25 -9l-12 7q-40 24 -90 24q-51 0 -95 -34t-44 -71z
M124 771q0 32 39 61.5t84 29.5q44 0 80 -23h1q16 -8 21 -8q17 0 35 12q20 13 32 13q17 0 39 -18q18 -18 18 -36q0 -31 -42 -58t-92 -27t-87 22l-1 1q-3 0 -3 2q-5 4 -9 4q-6 0 -16 -6l-8 -4l3 1q-26 -14 -43 -14q-16 0 -33 13q-18 16 -18 35zM239 714l3 -1l-2 2zM283 286h47
q-6 23 -24 121l-8 -48z" />
    <glyph glyph-name="adieresis" unicode="&#xe4;" 
d="M18 87q0 28 7 49q46 173 68 266v-1l10 36l43 168l-1 -1q18 67 50 84.5t135 17.5q73 0 100 -17.5t39 -66.5l55 -217l69 -278l2 -16q4 -14 4 -24q0 -58 -28.5 -72.5t-120.5 -14.5q-26 0 -41.5 0.5t-28.5 5.5t-18.5 9t-12 18.5t-8.5 25t-8 38.5v-3l-1 4v-1q0 1 -1 3h-48
q-15 -69 -40.5 -84.5t-115.5 -15.5q-61 0 -85 15.5t-24 71.5zM35 87q0 -45 20.5 -57t71.5 -12q86 0 107.5 14.5t35.5 84.5v1h76l5 -18l-1 1q12 -59 25.5 -71t74.5 -12q82 0 106.5 11.5t24.5 57.5q0 7 -4 21l-1 14l-70 279l-54 216q-11 41 -34.5 56t-87.5 15
q-66 0 -95.5 -6.5t-45 -24t-26.5 -58.5v1q-2 -6 -8.5 -31t-16.5 -66t-18 -70l-9 -37v1l-68 -267v2q-8 -23 -8 -45zM53 87q0 21 8 40l-1 -1l67 267q9 33 21 81t20.5 81t10.5 40q13 49 39 62t112 13q56 0 76 -12t29 -45l55 -217l68 -275l2 -13q3 -10 3 -21q0 -34 -21.5 -42.5
t-91.5 -8.5q-50 0 -61.5 10t-21.5 58l-8 32h-105l-2 -16q-12 -59 -31 -71.5t-94 -12.5q-41 0 -57.5 9t-16.5 42zM84 821q0 53 34.5 80t89.5 27q63 0 96 -33q34 33 97 33q53 0 89 -27t36 -80q0 -52 -36 -79t-89 -27q-64 0 -97 33q-32 -33 -96 -33q-55 0 -89.5 27t-34.5 79z
M101 821q0 -45 29.5 -68t77.5 -23q73 0 97 46q24 -46 96 -46q47 0 77.5 23t30.5 68q0 46 -30.5 69.5t-77.5 23.5q-71 0 -96 -48q-25 48 -97 48q-48 0 -77.5 -23.5t-29.5 -69.5zM118 821q0 39 25 58.5t65 19.5t65 -19.5t25 -58.5q0 -38 -25 -57.5t-65 -19.5t-65 19.5
t-25 57.5zM283 286h47q-6 23 -24 121l-8 -48zM311 821q0 39 25 58.5t65 19.5q39 0 65 -20t26 -58t-26 -57.5t-65 -19.5q-40 0 -65 19.5t-25 57.5z" />
    <glyph glyph-name="aring" unicode="&#xe5;" 
d="M18 87q0 28 7 49q46 173 68 266v-1l10 36l43 168l-1 -1q18 67 50 84.5t135 17.5q73 0 100 -17.5t39 -66.5l55 -217l69 -278l2 -16q4 -14 4 -24q0 -58 -28.5 -72.5t-120.5 -14.5q-26 0 -41.5 0.5t-28.5 5.5t-18.5 9t-12 18.5t-8.5 25t-8 38.5v-3l-1 4v-1q0 1 -1 3h-48
q-15 -69 -40.5 -84.5t-115.5 -15.5q-61 0 -85 15.5t-24 71.5zM35 87q0 -45 20.5 -57t71.5 -12q86 0 107.5 14.5t35.5 84.5v1h76l5 -18l-1 1q12 -59 25.5 -71t74.5 -12q82 0 106.5 11.5t24.5 57.5q0 7 -4 21l-1 14l-70 279l-54 216q-11 41 -34.5 56t-87.5 15
q-66 0 -95.5 -6.5t-45 -24t-26.5 -58.5v1q-2 -6 -8.5 -31t-16.5 -66t-18 -70l-9 -37v1l-68 -267v2q-8 -23 -8 -45zM53 87q0 21 8 40l-1 -1l67 267q9 33 21 81t20.5 81t10.5 40q13 49 39 62t112 13q56 0 76 -12t29 -45l55 -217l68 -275l2 -13q3 -10 3 -21q0 -34 -21.5 -42.5
t-91.5 -8.5q-50 0 -61.5 10t-21.5 58l-8 32h-105l-2 -16q-12 -59 -31 -71.5t-94 -12.5q-41 0 -57.5 9t-16.5 42zM175 840q0 60 38 97t95 37t96 -37t39 -97q0 -62 -38.5 -98.5t-96.5 -36.5q-57 0 -95 36.5t-38 98.5zM190 840q0 -55 33.5 -87.5t84.5 -32.5t85.5 32.5
t34.5 87.5q0 53 -34.5 85.5t-85.5 32.5q-50 0 -84 -32.5t-34 -85.5zM206 840q0 46 29 74.5t73 28.5q45 0 74.5 -28.5t29.5 -74.5q0 -48 -29.5 -76.5t-74.5 -28.5q-44 0 -73 28.5t-29 76.5zM283 286h47q-6 23 -24 121l-8 -48zM287 840q0 -23 21 -23q9 0 16 6.5t7 16.5
q0 21 -23 21q-21 0 -21 -21zM301 840q0 -10 7 -10q9 0 9 10q0 8 -9 8q-7 0 -7 -8z" />
    <glyph glyph-name="ae" unicode="&#xe6;" horiz-adv-x="804" 
d="M3 79q0 25 19 66l129 262l102 207q22 42 41.5 60t53.5 25t106 7q27 0 48 -3q11 1 43 1h166q27 0 38.5 -0.5t26 -3.5t19 -8t9.5 -16t6 -26t1 -40q0 -72 -9.5 -103t-41.5 -43q22 -10 29 -31.5t7 -64.5q0 -57 -5 -82.5t-23 -38.5q40 -8 52.5 -33.5t12.5 -76.5
q0 -93 -19 -114.5t-105 -21.5h-198q-14 -2 -64 -2q-25 0 -32 1q-35 3 -58 27q-21 23 -21 73h-51v-2q-30 -62 -60.5 -80.5t-110.5 -18.5q-31 0 -47.5 2t-33.5 9.5t-23.5 24t-6.5 44.5zM21 79q0 -41 21 -51.5t72 -10.5q74 0 101.5 17t55.5 74l4 10h79v-9q0 -51 16 -69
q19 -20 48 -22q6 -1 29 -1q48 0 62 2h200q73 0 89 18.5t16 99.5q0 51 -15 73t-65 22h-148v17h89q71 0 87 20.5t16 98.5q0 50 -14.5 68.5t-64.5 18.5h-114v18h101q71 0 89 25.5t18 111.5q0 55 -12.5 65.5t-69.5 10.5h-166q-36 0 -42 -1q-12 3 -49 3q-94 0 -125.5 -14.5
t-59.5 -67.5l-101 -206l-129 -263q-18 -39 -18 -58zM39 79q0 14 17 51l128 262l101 206q24 47 53 59.5t116 12.5q28 0 48 -3q12 1 43 1h166q44 0 53.5 -8t9.5 -50q0 -74 -14.5 -96.5t-73.5 -22.5h-120v-24q0 -5 0.5 -13t0.5 -17h132q39 0 50 -14.5t11 -54.5
q0 -66 -13.5 -83.5t-71.5 -17.5h-109l2 -47v-6h166q39 0 50.5 -18t11.5 -59q0 -68 -13.5 -84t-73.5 -16h-203q-13 -2 -59 -2q-20 0 -27 1q-24 2 -36 15q-12 14 -12 58v6v21h-109l-9 -22q-24 -49 -49 -64t-91 -15q-41 0 -58 7.5t-17 36.5zM336 298h38v91l-6 -15z" />
    <glyph glyph-name="ccedilla" unicode="&#xe7;" horiz-adv-x="495" 
d="M10 362q0 73 13.5 132.5t34 97.5t50 66t56 42.5t58 22.5t50 10t37.5 2q36 0 74 -9.5t71.5 -28.5t51 -53t7.5 -77q-27 -87 -99 -87q-20 0 -40 3q-1 0 -3 1h-2q-28 6 -44 6q-15 0 -24 -3t-19.5 -14t-16 -37.5t-5.5 -68.5q0 -58 7.5 -89t18 -38.5t28.5 -7.5q15 0 41 6l15 3
h-2q26 8 49 8q62 0 96 -77q17 -46 -13.5 -92t-96.5 -70q48 -39 48 -103q0 -48 -16 -90q-48 -111 -187 -111q-53 0 -104 17q-52 25 -52 88q0 56 26 80q-11 20 -11 53q0 31 18 88l1 4q-116 82 -116 326zM27 362q0 -241 122 -317l-2.5 -5t-2.5 -7t-2 -6q-17 -51 -17 -83
q0 -40 23 -57q-39 -15 -39 -76q0 -50 42 -71q45 -16 97 -16q128 0 171 101q15 37 15 82q0 77 -76 110q77 15 116.5 58.5t22.5 88.5q-27 66 -80 66q-18 0 -44 -7l1 1l-14 -3q-32 -8 -46 -8q-24 0 -37.5 8.5t-23.5 43.5t-10 102q0 48 6.5 79t20.5 43t25 15.5t30 3.5t42 -5
l3 -1h4q22 -4 40 -4q59 0 81 73q11 48 -20 83t-76 48.5t-90 13.5q-28 0 -54.5 -3.5t-71 -24t-76 -55t-56 -105t-24.5 -166.5zM44 362q0 91 23 158t53 99.5t71.5 52t66.5 23t51 3.5q41 0 81.5 -11.5t69.5 -40t20 -68.5q-19 -61 -66 -61q-17 0 -37 4h-7q-30 6 -45 6
q-22 0 -36 -4t-30.5 -18t-24.5 -48.5t-8 -89.5q0 -75 12 -114t29 -48.5t47 -9.5q14 0 49 7l14 3q25 7 40 7q41 0 65 -54q17 -46 -38.5 -87.5t-150.5 -41.5q-13 0 -19 1l-3 -17h2q4 0 5 1q20 1 42.5 -4t45 -16.5t37 -34t14.5 -52.5q0 -39 -13 -75q-38 -89 -156 -89
q-52 0 -95 17q-27 13 -27 51q0 65 70 65l18 -2q2 0 9 -1l11 -2q19 0 18 9q0 10 -4 12.5t-15 2.5q-13 0 -19 -1q-2 0 -5 -0.5t-4 -0.5q-63 -5 -63 51q0 27 16 76q9 23 16 31q-130 61 -130 311z" />
    <glyph glyph-name="egrave" unicode="&#xe8;" horiz-adv-x="487" 
d="M10 98v476q0 34 1 54.5t8 36.5t12.5 23t24.5 11t33.5 4.5t49.5 0.5h94q6 0 20 0.5t21 0.5h86q37 0 50.5 -1t26 -11t14.5 -27.5t2 -55.5q0 -73 -8.5 -104t-38.5 -42q20 -10 27 -32t7 -64q0 -55 -5 -81.5t-23 -39.5q38 -6 50 -32t12 -78q0 -93 -18 -114.5t-99 -21.5
q-225 0 -256 -1q-66 0 -78.5 15t-12.5 83zM27 98q0 -56 10 -68t64 -12l256 1q70 0 85 18.5t15 99.5q0 51 -14.5 73t-61.5 22h-139v17h85q64 0 80 21.5t16 97.5q0 50 -13.5 69t-60.5 19h-107v17h94q67 0 83.5 25.5t16.5 111.5q0 56 -12 66.5t-64 10.5h-86q-7 0 -21 -0.5
t-20 -0.5h-94q-30 0 -42.5 -0.5t-29 -4t-21.5 -9.5t-11 -19.5t-7 -31.5t-1 -47v-476zM44 98v476q0 37 2 54.5t15 27.5t27 11t51 1h56q12 0 38.5 0.5t40.5 0.5h86q41 0 50 -8t9 -51q0 -74 -14 -96.5t-69 -22.5h-111v-53h124q36 0 46.5 -15t10.5 -55q0 -64 -13 -82.5
t-66 -18.5h-102v-53h156q37 0 48 -18t11 -59q0 -68 -12.5 -84t-70.5 -16q-225 0 -256 -1q-41 0 -49 9.5t-8 52.5zM115 901q0 33 58 90q23 20 52 20q27 0 50 -21t57 -74q55 -89 55 -121q0 -37 -38 -69q-29 -22 -54 -22q-26 0 -50.5 18.5t-68.5 69.5q-35 42 -48 63.5t-13 45.5
zM130 901q0 -14 8 -30t16 -26.5t33 -41.5q41 -48 63.5 -65.5t44.5 -17.5q20 0 45 19q31 26 31 56q0 31 -51 112q-33 49 -53 68.5t-42 19.5q-23 0 -45 -19l-7 -6l-1 -1q-42 -41 -42 -68zM146 901q0 24 30 51q29 27 49 27q17 0 35 -18t46 -63q50 -78 50 -103q0 -23 -26 -44
q-18 -15 -35 -15q-18 0 -38 16.5t-58 60.5q-30 36 -41.5 54t-11.5 34z" />
    <glyph glyph-name="eacute" unicode="&#xe9;" horiz-adv-x="487" 
d="M10 98v476q0 34 1 54.5t8 36.5t12.5 23t24.5 11t33.5 4.5t49.5 0.5h94q6 0 20 0.5t21 0.5h86q37 0 50.5 -1t26 -11t14.5 -27.5t2 -55.5q0 -73 -8.5 -104t-38.5 -42q20 -10 27 -32t7 -64q0 -55 -5 -81.5t-23 -39.5q38 -6 50 -32t12 -78q0 -93 -18 -114.5t-99 -21.5
q-225 0 -256 -1q-66 0 -78.5 15t-12.5 83zM27 98q0 -56 10 -68t64 -12l256 1q70 0 85 18.5t15 99.5q0 51 -14.5 73t-61.5 22h-139v17h85q64 0 80 21.5t16 97.5q0 50 -13.5 69t-60.5 19h-107v17h94q67 0 83.5 25.5t16.5 111.5q0 56 -12 66.5t-64 10.5h-86q-7 0 -21 -0.5
t-20 -0.5h-94q-30 0 -42.5 -0.5t-29 -4t-21.5 -9.5t-11 -19.5t-7 -31.5t-1 -47v-476zM44 98v476q0 37 2 54.5t15 27.5t27 11t51 1h56q12 0 38.5 0.5t40.5 0.5h86q41 0 50 -8t9 -51q0 -74 -14 -96.5t-69 -22.5h-111v-53h124q36 0 46.5 -15t10.5 -55q0 -64 -13 -82.5
t-66 -18.5h-102v-53h156q37 0 48 -18t11 -59q0 -68 -12.5 -84t-70.5 -16q-225 0 -256 -1q-41 0 -49 9.5t-8 52.5zM100 796q0 35 56 120l-1 -1q32 51 56.5 73.5t50.5 22.5q30 0 69 -36l1 1q40 -37 40 -75q0 -24 -13.5 -46t-48.5 -62l1 2q-72 -91 -119 -91q-31 0 -58 27l1 -2
q-35 31 -35 67zM115 796q0 -28 30 -54h-1q22 -22 48 -22q39 0 106 85q32 37 45 57t13 39q0 32 -34 63q-36 31 -60 31q-39 0 -94 -88q-53 -80 -53 -111zM131 796q0 26 50 103v-1q27 43 45.5 62t35.5 19q20 0 50 -28v1q29 -26 29 -51q0 -15 -11.5 -32.5t-42.5 -53.5
q-63 -79 -95 -79q-19 0 -37 18q-24 21 -24 42z" />
    <glyph glyph-name="ecircumflex" unicode="&#xea;" horiz-adv-x="487" 
d="M10 98v476q0 34 1 54.5t8 36.5t12.5 23t24.5 11t33.5 4.5t49.5 0.5h94q6 0 20 0.5t21 0.5h86q37 0 50.5 -1t26 -11t14.5 -27.5t2 -55.5q0 -73 -8.5 -104t-38.5 -42q20 -10 27 -32t7 -64q0 -55 -5 -81.5t-23 -39.5q38 -6 50 -32t12 -78q0 -93 -18 -114.5t-99 -21.5
q-225 0 -256 -1q-66 0 -78.5 15t-12.5 83zM27 98q0 -56 10 -68t64 -12l256 1q70 0 85 18.5t15 99.5q0 51 -14.5 73t-61.5 22h-139v17h85q64 0 80 21.5t16 97.5q0 50 -13.5 69t-60.5 19h-107v17h94q67 0 83.5 25.5t16.5 111.5q0 56 -12 66.5t-64 10.5h-86q-7 0 -21 -0.5
t-20 -0.5h-94q-30 0 -42.5 -0.5t-29 -4t-21.5 -9.5t-11 -19.5t-7 -31.5t-1 -47v-476zM44 98v476q0 37 2 54.5t15 27.5t27 11t51 1h56q12 0 38.5 0.5t40.5 0.5h86q41 0 50 -8t9 -51q0 -74 -14 -96.5t-69 -22.5h-111v-53h124q36 0 46.5 -15t10.5 -55q0 -64 -13 -82.5
t-66 -18.5h-102v-53h156q37 0 48 -18t11 -59q0 -68 -12.5 -84t-70.5 -16q-225 0 -256 -1q-41 0 -49 9.5t-8 52.5zM89 787q0 25 34 77q39 61 63 77t74 16q46 0 69 -14t58 -70v1q37 -56 37 -83q0 -38 -46 -68l-3 -3q-31 -17 -53 -17q-38 0 -65 35q-27 -33 -69 -33
q-23 0 -47 12q-30 17 -41 30.5t-11 39.5zM105 787q0 -21 9.5 -32t34.5 -25q22 -10 39 -10q38 0 63 35l-1 -1l8 11q5 -6 12 -16h-1q24 -31 53 -31q17 0 44 15l5 4l-2 -2q39 24 39 56q0 20 -34 75q-32 49 -53.5 62.5t-60.5 13.5q-43 0 -65 -15t-59 -71q-31 -49 -31 -69z
M121 787q0 15 29 61q33 52 52.5 65.5t57.5 13.5q35 0 53 -11.5t47 -57.5q31 -47 31 -67q0 -23 -31 -43l-4 -3q-21 -12 -34 -12q-22 0 -40 26q-1 1 -25 37q-14 -26 -20 -33q-19 -28 -49 -28q-14 0 -31 9v-1q-15 9 -20.5 13.5t-10.5 12t-5 18.5z" />
    <glyph glyph-name="edieresis" unicode="&#xeb;" horiz-adv-x="487" 
d="M15 98v476q0 34 1 54.5t8 36.5t12.5 23t24.5 11t33.5 4.5t49.5 0.5h94q6 0 20 0.5t21 0.5h86q37 0 50.5 -1t26 -11t14.5 -27.5t2 -55.5q0 -73 -8.5 -104t-38.5 -42q20 -10 27 -32t7 -64q0 -55 -5 -81.5t-23 -39.5q38 -6 50 -32t12 -78q0 -93 -18 -114.5t-99 -21.5
q-225 0 -256 -1q-66 0 -78.5 15t-12.5 83zM16 821q0 53 34.5 80t89.5 27q63 0 96 -33q34 33 97 33q53 0 89 -27t36 -80q0 -52 -36 -79t-89 -27q-64 0 -97 33q-32 -33 -96 -33q-55 0 -89.5 27t-34.5 79zM32 98q0 -56 10 -68t64 -12l256 1q70 0 85 18.5t15 99.5q0 51 -14.5 73
t-61.5 22h-139v17h85q64 0 80 21.5t16 97.5q0 50 -13.5 69t-60.5 19h-107v17h94q67 0 83.5 25.5t16.5 111.5q0 56 -11.5 66.5t-64.5 10.5h-86q-7 0 -21 -0.5t-20 -0.5h-94q-30 0 -42.5 -0.5t-29 -4t-21.5 -9.5t-11 -19.5t-7 -31.5t-1 -47v-476zM33 821q0 -45 29.5 -68
t77.5 -23q73 0 97 46q24 -46 96 -46q47 0 77.5 23t30.5 68q0 46 -30.5 69.5t-77.5 23.5q-71 0 -96 -48q-25 48 -97 48q-48 0 -77.5 -23.5t-29.5 -69.5zM49 98v476q0 37 2 54.5t15 27.5t27 11t51 1h56q12 0 38.5 0.5t40.5 0.5h86q41 0 50 -8t9 -51q0 -74 -14 -96.5t-69 -22.5
h-111v-53h124q36 0 46.5 -15t10.5 -55q0 -64 -13 -82.5t-66 -18.5h-102v-53h156q37 0 48 -18t11 -59q0 -68 -12.5 -84t-70.5 -16q-225 0 -256 -1q-41 0 -49 9.5t-8 52.5zM50 821q0 39 25 58.5t65 19.5t65 -19.5t25 -58.5q0 -38 -25 -57.5t-65 -19.5t-65 19.5t-25 57.5z
M243 821q0 39 25 58.5t65 19.5q39 0 65 -20t26 -58t-26 -57.5t-65 -19.5q-40 0 -65 19.5t-25 57.5z" />
    <glyph glyph-name="igrave" unicode="&#xec;" horiz-adv-x="240" 
d="M-27 901q0 33 58 90q23 20 52 20q27 0 50 -21t57 -74q55 -89 55 -121q0 -37 -38 -69q-29 -22 -54 -22q-26 0 -50.5 18.5t-68.5 69.5q-35 42 -48 63.5t-13 45.5zM-12 901q0 -14 8 -30t16 -26.5t33 -41.5q41 -48 63.5 -65.5t44.5 -17.5q20 0 45 19q31 26 31 56
q0 31 -51 112q-33 49 -53 68.5t-42 19.5q-23 0 -45 -19l-7 -6l-1 -1q-42 -41 -42 -68zM4 98v476q0 34 1.5 55t8 36.5t12 22.5t23 11t30.5 4.5t44 0.5q55 0 73 -20.5t18 -85.5v-475q0 -80 -25.5 -101.5t-97.5 -21.5q-59 0 -73 16.5t-14 81.5zM4 901q0 24 30 51q29 27 49 27
q17 0 35 -18t46 -63q50 -78 50 -103q0 -23 -26 -44q-18 -15 -35 -15q-18 0 -38 16.5t-58 60.5q-30 36 -41.5 54t-11.5 34zM19 98q0 -54 11.5 -67t60.5 -13q64 0 86.5 18t22.5 87v475q0 54 -15.5 71t-61.5 17q-39 0 -54 -1.5t-29.5 -12.5t-17.5 -33t-3 -65v-476zM33 98v476
q0 36 2.5 54.5t15 27.5t25.5 10.5t47 1.5q37 0 50 -13.5t13 -56.5v-475q0 -57 -20 -72t-75 -15q-39 0 -48.5 10.5t-9.5 51.5z" />
    <glyph glyph-name="iacute" unicode="&#xed;" horiz-adv-x="240" 
d="M-23 796q0 35 56 120l-1 -1q32 51 56.5 73.5t50.5 22.5q30 0 69 -36l1 1q40 -37 40 -75q0 -24 -13.5 -46t-48.5 -62l1 2q-72 -91 -119 -91q-31 0 -58 27l1 -2q-35 31 -35 67zM-8 796q0 -28 30 -54h-1q22 -22 48 -22q39 0 106 85q32 37 45 57t13 39q0 32 -34 63
q-36 31 -60 31q-39 0 -94 -88q-53 -80 -53 -111zM4 98v476q0 34 1.5 55t8 36.5t12 22.5t23 11t30.5 4.5t44 0.5q55 0 73 -20.5t18 -85.5v-475q0 -80 -25.5 -101.5t-97.5 -21.5q-59 0 -73 16.5t-14 81.5zM8 796q0 26 50 103v-1q27 43 45.5 62t35.5 19q20 0 50 -28v1
q29 -26 29 -51q0 -15 -11.5 -32.5t-42.5 -53.5q-63 -79 -95 -79q-19 0 -37 18q-24 21 -24 42zM19 98q0 -54 11.5 -67t60.5 -13q64 0 86.5 18t22.5 87v475q0 54 -15.5 71t-61.5 17q-39 0 -54 -1.5t-29.5 -12.5t-17.5 -33t-3 -65v-476zM33 98v476q0 36 2.5 54.5t15 27.5
t25.5 10.5t47 1.5q37 0 50 -13.5t13 -56.5v-475q0 -57 -20 -72t-75 -15q-39 0 -48.5 10.5t-9.5 51.5z" />
    <glyph glyph-name="icircumflex" unicode="&#xee;" horiz-adv-x="240" 
d="M-55 787q0 25 34 77q39 61 63 77t74 16q46 0 69 -14t58 -70v1q37 -56 37 -83q0 -38 -46 -68l-3 -3q-31 -17 -53 -17q-38 0 -65 35q-27 -33 -69 -33q-23 0 -47 12q-30 17 -41 30.5t-11 39.5zM-39 787q0 -21 9.5 -32t34.5 -25q22 -10 39 -10q38 0 63 35l-1 -1l8 11
q5 -6 12 -16h-1q24 -31 53 -31q17 0 44 15l5 4l-2 -2q39 24 39 56q0 20 -34 75q-32 49 -53.5 62.5t-60.5 13.5q-43 0 -65 -15t-59 -71q-31 -49 -31 -69zM-23 787q0 15 29 61q33 52 52.5 65.5t57.5 13.5q35 0 53 -11.5t47 -57.5q31 -47 31 -67q0 -23 -31 -43l-4 -3
q-21 -12 -34 -12q-22 0 -40 26q-1 1 -25 37q-14 -26 -20 -33q-19 -28 -49 -28q-14 0 -31 9v-1q-15 9 -20.5 13.5t-10.5 12t-5 18.5zM4 98v476q0 34 1.5 55t8 36.5t12 22.5t23 11t30.5 4.5t44 0.5q55 0 73 -20.5t18 -85.5v-475q0 -80 -25.5 -101.5t-97.5 -21.5
q-59 0 -73 16.5t-14 81.5zM19 98q0 -54 11.5 -67t60.5 -13q64 0 86.5 18t22.5 87v475q0 54 -15.5 71t-61.5 17q-39 0 -54 -1.5t-29.5 -12.5t-17.5 -33t-3 -65v-476zM33 98v476q0 36 2.5 54.5t15 27.5t25.5 10.5t47 1.5q37 0 50 -13.5t13 -56.5v-475q0 -57 -20 -72t-75 -15
q-39 0 -48.5 10.5t-9.5 51.5z" />
    <glyph glyph-name="idieresis" unicode="&#xef;" horiz-adv-x="240" 
d="M-107 821q0 53 34.5 80t89.5 27q63 0 96 -33q35 33 97 33q53 0 89 -27t36 -80q0 -52 -36 -79t-89 -27q-64 0 -97 33q-32 -33 -96 -33q-55 0 -89.5 27t-34.5 79zM-90 821q0 -45 29.5 -68t77.5 -23q73 0 97 46q24 -46 96 -46q47 0 77.5 23t30.5 68q0 46 -30.5 69.5
t-77.5 23.5q-70 0 -96 -48q-26 48 -97 48q-48 0 -77.5 -23.5t-29.5 -69.5zM-73 821q0 39 25 58.5t65 19.5t65 -19.5t25 -58.5q0 -38 -25 -57.5t-65 -19.5t-65 19.5t-25 57.5zM4 98v476q0 34 1.5 55t8 36.5t12 22.5t23 11t30.5 4.5t44 0.5q55 0 73 -20.5t18 -85.5v-475
q0 -80 -25.5 -101.5t-97.5 -21.5q-59 0 -73 16.5t-14 81.5zM19 98q0 -54 11.5 -67t60.5 -13q64 0 86.5 18t22.5 87v475q0 54 -15.5 71t-61.5 17q-39 0 -54 -1.5t-29.5 -12.5t-17.5 -33t-3 -65v-476zM33 98v476q0 36 2.5 54.5t15 27.5t25.5 10.5t47 1.5q37 0 50 -13.5
t13 -56.5v-475q0 -57 -20 -72t-75 -15q-39 0 -48.5 10.5t-9.5 51.5zM120 821q0 39 25 58.5t65 19.5q39 0 65 -20t26 -58t-26 -57.5t-65 -19.5q-40 0 -65 19.5t-25 57.5z" />
    <glyph glyph-name="eth" unicode="&#xf0;" horiz-adv-x="524" 
d="M11 272q0 22 1.5 34.5t7 30t19.5 28.5t37 18v191q0 34 1 54.5t8 36.5t12.5 23t25 11t34 4.5t50.5 0.5q51 0 83 -1t72.5 -4.5t65 -10t54 -18.5t46.5 -29.5t35 -43t27 -59t14.5 -77.5t5.5 -98q0 -72 -10.5 -126.5t-27.5 -93t-48 -65t-63 -42t-83 -23.5t-96.5 -10.5
t-113.5 -2.5q-24 0 -38.5 1t-26 6t-16 9t-7.5 18.5t-3.5 25.5t-0.5 38v84q-45 4 -55 20t-10 70zM28 272q0 -43 12.5 -57t53.5 -16v-101q0 -56 10 -68t64 -12q57 0 96 1.5t83.5 7t73.5 16t59.5 27.5t49 42.5t34 60.5t22 82.5t6.5 107.5q0 51 -5.5 92.5t-14 73.5t-25.5 56
t-33.5 40.5t-44.5 28t-51.5 18t-62 9.5t-69.5 4t-79 1q-31 0 -43.5 -0.5t-29.5 -4t-21.5 -9.5t-10.5 -19.5t-7 -31t-1 -47.5v-204q-23 -5 -37.5 -14.5t-20 -25t-7 -27t-1.5 -31.5zM46 272q0 18 1 27.5t6.5 23t20 21.5t37.5 11v219q0 37 2 54.5t15.5 27.5t27.5 11t51 1
q46 0 75.5 -1t66 -4t59 -9t49.5 -16.5t42.5 -26.5t31.5 -38.5t24.5 -52.5t13.5 -69t5 -88q0 -65 -9.5 -114.5t-25 -84t-44.5 -58.5t-58 -37.5t-76 -21t-88.5 -9.5t-104.5 -2q-41 0 -49 9.5t-8 52.5v119q-46 1 -55.5 9.5t-9.5 45.5zM297 199h10q54 0 68.5 32.5t14.5 141.5
q0 32 -0.5 46.5t-3.5 32t-8 23.5t-16 12.5t-26 7.5t-39 1v-140q46 -3 46 -68q0 -61 -46 -71v-18zM315 372v106q40 -2 48.5 -20.5t8.5 -84.5q0 -74 -5 -105t-22 -43q16 22 16 63q0 69 -46 84zM333 383q13 -7 22 -18v8q0 62 -7 73q-5 7 -15 10v-73z" />
    <glyph glyph-name="ntilde" unicode="&#xf1;" horiz-adv-x="626" 
d="M13 98v476q0 34 1.5 55t9 36.5t13.5 22.5t25.5 11t34.5 4.5t50 0.5q31 0 50.5 -2t46 -9t47 -25t35.5 -46q4 58 32.5 70t132.5 12q66 0 80 -18.5t14 -87.5v-475q0 -78 -36.5 -100.5t-118.5 -22.5q-45 0 -76.5 19.5t-64.5 81.5l-7 9l-11 26l1 -13q0 -83 -29.5 -103
t-137.5 -20q-24 0 -38.5 1t-26 6t-16 9t-7.5 18.5t-3.5 25.5t-0.5 38zM31 98q0 -56 10 -68t64 -12q97 0 123 17t26 88q-1 37 -2 93q26 -58 52 -106q30 -57 58 -74.5t68 -17.5q29 0 46.5 1.5t37 7.5t30 17t17.5 30.5t7 48.5v475q0 58 -11.5 73t-65.5 15q-41 0 -58 -0.5
t-39 -4t-28 -9t-13.5 -19.5t-8.5 -31.5t-1 -47.5v-29l-16 37v-1l-2 4l-9 20q-14 28 -32.5 45.5t-44 24.5t-44 9t-48.5 2t-43 -0.5t-30 -4t-22.5 -9.5t-12 -19.5t-7.5 -31.5t-1 -47v-476zM48 98v476q0 36 3 54.5t16.5 27.5t28 10.5t51.5 1.5q27 0 44.5 -1.5t40.5 -7.5
t40 -21.5t28 -39.5q37 -83 61 -143v119q0 69 19.5 81.5t110.5 12.5q42 0 50.5 -12t8.5 -58v-475q0 -56 -28.5 -71.5t-91.5 -15.5q-34 0 -58.5 16t-52.5 67q-41 77 -86 182l4 -178q0 -59 -23 -73t-109 -14q-41 0 -49 9.5t-8 52.5zM101 771q0 42 49 80.5t107 38.5
q57 0 101 -27h-2l4 -4q5 0 13 6q31 20 53 20q29 0 62 -27q29 -26 29 -56q0 -41 -52.5 -77.5t-115.5 -36.5q-62 0 -102 25l-11 -4l-1 2q-34 -17 -50 -17q-27 0 -56 21q-28 27 -28 56zM118 771q0 -23 22 -46q25 -17 45 -17q15 0 45 15l12 4l7 4l3 -3l3 -1l-4 1q41 -25 98 -25
q56 0 103.5 32t47.5 67q0 24 -23 46q-27 22 -51 22q-17 0 -42 -16q-13 -9 -25 -9l-12 7q-40 24 -90 24q-51 0 -95 -34t-44 -71zM134 771q0 32 39 61.5t84 29.5q44 0 80 -23h1q16 -8 21 -8q17 0 35 12q20 13 32 13q17 0 39 -18q18 -18 18 -36q0 -31 -42 -58t-92 -27t-87 22
l-1 1q-3 0 -3 2q-5 4 -9 4q-6 0 -16 -6l-8 -4l3 1q-26 -14 -43 -14q-16 0 -33 13q-18 16 -18 35zM249 714l3 -1l-2 2zM282 110q0 -3 4 -9z" />
    <glyph glyph-name="ograve" unicode="&#xf2;" horiz-adv-x="618" 
d="M11 337q0 170 78 271.5t219 101.5t207 -95.5t66 -265.5q0 -164 -70 -258.5t-200 -94.5q-137 0 -218.5 83t-81.5 258zM28 337q0 -166 77 -245t206 -79q122 0 187 90t65 246q0 161 -61.5 252t-193.5 91q-133 0 -206.5 -96.5t-73.5 -258.5zM46 337q0 154 68.5 245.5
t193.5 91.5q123 0 180 -86t57 -239q0 -148 -60 -233t-174 -85q-121 0 -193 75t-72 231zM168 901q0 33 58 90q23 20 52 20q27 0 50 -21t57 -74q55 -89 55 -121q0 -37 -38 -69q-29 -22 -54 -22q-26 0 -50.5 18.5t-68.5 69.5q-35 42 -48 63.5t-13 45.5zM183 901q0 -14 8 -30
t16 -26.5t33 -41.5q41 -48 63.5 -65.5t44.5 -17.5q20 0 45 19q31 26 31 56q0 31 -51 112q-33 49 -53 68.5t-42 19.5q-23 0 -45 -19l-7 -6l-1 -1q-42 -41 -42 -68zM199 901q0 24 30 51q29 27 49 27q17 0 35 -18t46 -63q50 -78 50 -103q0 -23 -26 -44q-18 -15 -35 -15
q-18 0 -38 16.5t-58 60.5q-30 36 -41.5 54t-11.5 34zM230 341q0 -95 17 -125.5t60 -30.5q33 0 45 39t12 126q0 90 -11.5 129.5t-47.5 39.5q-43 0 -59 -41t-16 -137zM247 341q0 86 12.5 123t45.5 37q25 0 33 -35t8 -116q0 -77 -8.5 -112t-30.5 -35q-34 0 -47 27t-13 111z
M265 341q0 -73 9 -96.5t33 -23.5q22 0 22 129q0 70 -5 101.5t-19 31.5q-23 0 -31.5 -32.5t-8.5 -109.5z" />
    <glyph glyph-name="oacute" unicode="&#xf3;" horiz-adv-x="618" 
d="M11 337q0 170 78 271.5t219 101.5t207 -95.5t66 -265.5q0 -164 -70 -258.5t-200 -94.5q-137 0 -218.5 83t-81.5 258zM28 337q0 -166 77 -245t206 -79q122 0 187 90t65 246q0 161 -61.5 252t-193.5 91q-133 0 -206.5 -96.5t-73.5 -258.5zM46 337q0 154 68.5 245.5
t193.5 91.5q123 0 180 -86t57 -239q0 -148 -60 -233t-174 -85q-121 0 -193 75t-72 231zM153 796q0 35 56 120l-1 -1q32 51 56.5 73.5t50.5 22.5q30 0 69 -36l1 1q40 -37 40 -75q0 -24 -13.5 -46t-48.5 -62l1 2q-72 -91 -119 -91q-31 0 -58 27l1 -2q-35 31 -35 67zM168 796
q0 -28 30 -54h-1q22 -22 48 -22q39 0 106 85q32 37 45 57t13 39q0 32 -34 63q-36 31 -60 31q-39 0 -94 -88q-53 -80 -53 -111zM184 796q0 26 50 103v-1q27 43 45.5 62t35.5 19q20 0 50 -28v1q29 -26 29 -51q0 -15 -11.5 -32.5t-42.5 -53.5q-63 -79 -95 -79q-19 0 -37 18
q-24 21 -24 42zM230 341q0 -95 17 -125.5t60 -30.5q33 0 45 39t12 126q0 90 -11.5 129.5t-47.5 39.5q-43 0 -59 -41t-16 -137zM247 341q0 86 12.5 123t45.5 37q25 0 33 -35t8 -116q0 -77 -8.5 -112t-30.5 -35q-34 0 -47 27t-13 111zM265 341q0 -73 9 -96.5t33 -23.5
q22 0 22 129q0 70 -5 101.5t-19 31.5q-23 0 -31.5 -32.5t-8.5 -109.5z" />
    <glyph glyph-name="ocircumflex" unicode="&#xf4;" horiz-adv-x="618" 
d="M11 337q0 170 78 271.5t219 101.5t207 -95.5t66 -265.5q0 -164 -70 -258.5t-200 -94.5q-137 0 -218.5 83t-81.5 258zM28 337q0 -166 77 -245t206 -79q122 0 187 90t65 246q0 161 -61.5 252t-193.5 91q-133 0 -206.5 -96.5t-73.5 -258.5zM46 337q0 154 68.5 245.5
t193.5 91.5q123 0 180 -86t57 -239q0 -148 -60 -233t-174 -85q-121 0 -193 75t-72 231zM142 787q0 25 34 77q39 61 63 77t74 16q46 0 69 -14t58 -70v1q37 -56 37 -83q0 -38 -46 -68l-3 -3q-31 -17 -53 -17q-38 0 -65 35q-27 -33 -69 -33q-23 0 -47 12q-30 17 -41 30.5
t-11 39.5zM158 787q0 -21 9.5 -32t34.5 -25q22 -10 39 -10q38 0 63 35l-1 -1l8 11q5 -6 12 -16h-1q24 -31 53 -31q17 0 44 15l5 4l-2 -2q39 24 39 56q0 20 -34 75q-32 49 -53.5 62.5t-60.5 13.5q-43 0 -65 -15t-59 -71q-31 -49 -31 -69zM174 787q0 15 29 61q33 52 52.5 65.5
t57.5 13.5q35 0 53 -11.5t47 -57.5q31 -47 31 -67q0 -23 -31 -43l-4 -3q-21 -12 -34 -12q-22 0 -40 26q-1 1 -25 37q-14 -26 -20 -33q-19 -28 -49 -28q-15 0 -31 9v-1q-15 9 -20.5 13.5t-10.5 12t-5 18.5zM230 341q0 -95 17 -125.5t60 -30.5q33 0 45 39t12 126
q0 90 -11.5 129.5t-47.5 39.5q-43 0 -59 -41t-16 -137zM247 341q0 86 12.5 123t45.5 37q25 0 33 -35t8 -116q0 -77 -8.5 -112t-30.5 -35q-34 0 -47 27t-13 111zM265 341q0 -73 9 -96.5t33 -23.5q22 0 22 129q0 70 -5 101.5t-19 31.5q-23 0 -31.5 -32.5t-8.5 -109.5z" />
    <glyph glyph-name="otilde" unicode="&#xf5;" horiz-adv-x="618" 
d="M11 337q0 170 78 271.5t219 101.5t207 -95.5t66 -265.5q0 -164 -70 -258.5t-200 -94.5q-137 0 -218.5 83t-81.5 258zM28 337q0 -166 77 -245t206 -79q122 0 187 90t65 246q0 161 -61.5 252t-193.5 91q-133 0 -206.5 -96.5t-73.5 -258.5zM46 337q0 154 68.5 245.5
t193.5 91.5q123 0 180 -86t57 -239q0 -148 -60 -233t-174 -85q-121 0 -193 75t-72 231zM111 771q0 42 49 80.5t107 38.5q57 0 101 -27h-2l4 -4q5 0 13 6q31 20 53 20q29 0 62 -27q29 -26 29 -56q0 -41 -52.5 -77.5t-115.5 -36.5q-62 0 -102 25l-11 -4l-1 2q-34 -17 -50 -17
q-27 0 -56 21q-28 27 -28 56zM128 771q0 -23 22 -46q25 -17 45 -17q15 0 45 15l12 4l7 4l3 -3l3 -1l-4 1q41 -25 98 -25q56 0 103.5 32t47.5 67q0 24 -23 46q-27 22 -51 22q-17 0 -42 -16q-13 -9 -25 -9l-12 7q-40 24 -90 24q-51 0 -95 -34t-44 -71zM144 771q0 32 39 61.5
t84 29.5q44 0 80 -23h1q16 -8 21 -8q17 0 35 12q20 13 32 13q17 0 39 -18q18 -18 18 -36q0 -31 -42 -58t-92 -27t-87 22l-1 1q-3 0 -3 2q-5 4 -9 4q-6 0 -16 -6l-8 -4l3 1q-26 -14 -43 -14q-16 0 -33 13q-18 16 -18 35zM230 341q0 -95 17 -125.5t60 -30.5q33 0 45 39t12 126
q0 90 -11.5 129.5t-47.5 39.5q-43 0 -59 -41t-16 -137zM247 341q0 86 12.5 123t45.5 37q25 0 33 -35t8 -116q0 -77 -8.5 -112t-30.5 -35q-34 0 -47 27t-13 111zM259 714l3 -1l-2 2zM265 341q0 -73 9 -96.5t33 -23.5q22 0 22 129q0 70 -5 101.5t-19 31.5q-23 0 -31.5 -32.5
t-8.5 -109.5z" />
    <glyph glyph-name="odieresis" unicode="&#xf6;" horiz-adv-x="618" 
d="M11 337q0 170 78 271.5t219 101.5t207 -95.5t66 -265.5q0 -164 -70 -258.5t-200 -94.5q-137 0 -218.5 83t-81.5 258zM28 337q0 -166 77 -245t206 -79q122 0 187 90t65 246q0 161 -61.5 252t-193.5 91q-133 0 -206.5 -96.5t-73.5 -258.5zM46 337q0 154 68.5 245.5
t193.5 91.5q123 0 180 -86t57 -239q0 -148 -60 -233t-174 -85q-121 0 -193 75t-72 231zM63 821q0 53 34.5 80t89.5 27q63 0 96 -33q35 33 97 33q53 0 89 -27t36 -80q0 -52 -36 -79t-89 -27q-64 0 -97 33q-32 -33 -96 -33q-55 0 -89.5 27t-34.5 79zM80 821q0 -45 29.5 -68
t77.5 -23q73 0 97 46q24 -46 96 -46q47 0 77.5 23t30.5 68q0 46 -30.5 69.5t-77.5 23.5q-70 0 -96 -48q-26 48 -97 48q-48 0 -77.5 -23.5t-29.5 -69.5zM97 821q0 39 25 58.5t65 19.5t65 -19.5t25 -58.5q0 -38 -25 -57.5t-65 -19.5t-65 19.5t-25 57.5zM230 341
q0 -95 17 -125.5t60 -30.5q33 0 45 39t12 126q0 90 -11.5 129.5t-47.5 39.5q-43 0 -59 -41t-16 -137zM247 341q0 86 12.5 123t45.5 37q25 0 33 -35t8 -116q0 -77 -8.5 -112t-30.5 -35q-34 0 -47 27t-13 111zM265 341q0 -73 9 -96.5t33 -23.5q22 0 22 129q0 70 -5 101.5
t-19 31.5q-23 0 -31.5 -32.5t-8.5 -109.5zM290 821q0 39 25 58.5t65 19.5q39 0 65 -20t26 -58t-26 -57.5t-65 -19.5q-40 0 -65 19.5t-25 57.5z" />
    <glyph glyph-name="divide" unicode="&#xf7;" horiz-adv-x="356" 
d="M-6 325q0 62 13 74t70 12h45q-37 31 -37 95q0 60 30.5 89.5t80.5 29.5t80.5 -29.5t30.5 -89.5q0 -64 -38 -95h13q24 0 39 -1.5t27.5 -3.5t19 -9.5t11 -13t6 -22.5t2 -28.5t0.5 -39.5q0 -61 -14.5 -73.5t-73.5 -12.5h-31q39 -33 39 -95q0 -60 -30.5 -90t-80.5 -30
t-80.5 30t-30.5 90q0 63 38 95h-27q-68 0 -85 22.5t-17 95.5zM11 325q0 -61 14.5 -80.5t70.5 -19.5h203q48 0 60 10t12 58q0 69 -12.5 84.5t-76.5 15.5h-205q-46 0 -56 -9.5t-10 -58.5zM27 325q0 37 7.5 44t42.5 7h205q52 0 62 -13t10 -70q0 -36 -9 -43.5t-46 -7.5h-203
q-45 0 -57 16t-12 67zM101 112q0 -51 26.5 -76.5t68.5 -25.5t68 25.5t26 76.5q0 50 -26 75t-68 25t-68.5 -25.5t-26.5 -74.5zM127 581q-26 -25 -26 -75t26.5 -75t68.5 -25t68 25t26 75t-26 75.5t-68 25.5t-69 -26zM118 112q0 41 21.5 61.5t56.5 20.5t56 -20.5t21 -61.5
q0 -42 -21 -63t-56 -21t-56.5 21t-21.5 63zM139 443q-21 21 -21 63t21.5 62.5t56.5 20.5t56 -20.5t21 -62.5t-21 -62.5t-56 -20.5t-57 20z" />
    <glyph glyph-name="oslash" unicode="&#xf8;" horiz-adv-x="565" 
d="M11 119q0 41 23 74q-21 62 -21 149q0 173 79 274.5t221 101.5q53 0 94 -15q21 30 37.5 42t39.5 12q27 0 43.5 -13.5t32.5 -43.5q18 -33 26 -48.5t14.5 -36t6.5 -37.5q0 -36 -32 -83q0 -2 -3 -5q14 -57 14 -136q0 -166 -69.5 -261.5t-200.5 -95.5q-41 0 -99 13
q-42 -45 -80 -45q-60 0 -105 82q-21 42 -21 72zM28 119q0 -28 19 -63q41 -72 90 -72q37 0 74 46q52 -15 105 -15q122 0 187.5 90.5t65.5 248.5q0 80 -15 142l7 9q28 39 28 73q0 31 -45 113q-26 48 -60 48q-18 0 -32.5 -12.5t-37.5 -45.5q-42 18 -101 18q-134 0 -208 -96.5
t-74 -260.5q0 -89 22 -152q-25 -37 -25 -71zM46 119q0 31 27 68q-25 69 -25 155q0 156 70 247.5t195 91.5q65 0 107 -23l8 12q34 51 56 51q24 0 45 -39q42 -78 42 -104q0 -25 -24 -62q-6 -9 -13 -16q17 -58 17 -146q0 -149 -60.5 -234.5t-174.5 -85.5q-56 0 -112 17
q-35 -49 -67 -49q-39 0 -74 63q-17 31 -17 54zM235 401q48 63 89 123q-10 2 -15 2q-38 0 -54 -29.5t-20 -95.5zM305 189h6q24 0 36.5 19t17.5 61l-26 -34l-13 -18z" />
    <glyph glyph-name="ugrave" unicode="&#xf9;" horiz-adv-x="585" 
d="M12 274v301q0 35 1 56t8 37t13 23t25 11t34 4.5t50 0.5q79 0 102.5 -20.5t23.5 -87.5l-7 -305q0 -47 9 -47q14 0 19 8.5t5 31.5l-5 286q0 47 4.5 70t22.5 39.5t48.5 20.5t88.5 4q63 0 77.5 -19t14.5 -88v-322q0 -133 -69 -207.5t-196 -74.5q-133 0 -201 74t-68 204z
M30 274q0 -122 63.5 -191.5t187.5 -69.5q119 0 183.5 70.5t64.5 194.5v322q0 57 -12 73t-63 16q-68 0 -97.5 -9t-39 -31t-9.5 -75q4 -194 4 -287q0 -33 -8.5 -45.5t-32.5 -12.5q-17 0 -22 15t-5 51l7 305q0 55 -20.5 72t-87.5 17q-31 0 -43.5 -0.5t-29 -4t-21.5 -9.5
t-11 -20t-7 -32t-1 -48v-301zM47 274v301q0 25 1 40.5t6 27t9 16.5t18 8t25 3.5t37 0.5q57 0 74 -13.5t17 -57.5l-7 -305q0 -47 8 -65.5t36 -18.5q34 0 46.5 16.5t12.5 59.5l-5 287q0 63 21.5 80t107.5 17q39 0 48 -12.5t9 -58.5v-322q0 -115 -60 -181t-170 -66
q-116 0 -175 65t-59 178zM143 901q0 33 58 90q23 20 52 20q27 0 50 -21t57 -74q55 -89 55 -121q0 -37 -38 -69q-29 -22 -54 -22q-26 0 -50.5 18.5t-68.5 69.5q-35 42 -48 63.5t-13 45.5zM158 901q0 -14 8 -30t16 -26.5t33 -41.5q41 -48 63.5 -65.5t44.5 -17.5q20 0 45 19
q31 26 31 56q0 31 -51 112q-33 49 -53 68.5t-42 19.5q-23 0 -45 -19l-7 -6l-1 -1q-42 -41 -42 -68zM174 901q0 24 30 51q29 27 49 27q17 0 35 -18t46 -63q50 -78 50 -103q0 -23 -26 -44q-18 -15 -35 -15q-18 0 -38 16.5t-58 60.5q-30 36 -41.5 54t-11.5 34z" />
    <glyph glyph-name="uacute" unicode="&#xfa;" horiz-adv-x="585" 
d="M12 274v301q0 35 1 56t8 37t13 23t25 11t34 4.5t50 0.5q79 0 102.5 -20.5t23.5 -87.5l-7 -305q0 -47 9 -47q14 0 19 8.5t5 31.5l-5 286q0 47 4.5 70t22.5 39.5t48.5 20.5t88.5 4q63 0 77.5 -19t14.5 -88v-322q0 -133 -69 -207.5t-196 -74.5q-133 0 -201 74t-68 204z
M30 274q0 -122 63.5 -191.5t187.5 -69.5q119 0 183.5 70.5t64.5 194.5v322q0 57 -12 73t-63 16q-68 0 -97.5 -9t-39 -31t-9.5 -75q4 -194 4 -287q0 -33 -8.5 -45.5t-32.5 -12.5q-17 0 -22 15t-5 51l7 305q0 55 -20.5 72t-87.5 17q-31 0 -43.5 -0.5t-29 -4t-21.5 -9.5
t-11 -20t-7 -32t-1 -48v-301zM47 274v301q0 25 1 40.5t6 27t9 16.5t18 8t25 3.5t37 0.5q57 0 74 -13.5t17 -57.5l-7 -305q0 -47 8 -65.5t36 -18.5q34 0 46.5 16.5t12.5 59.5l-5 287q0 63 21.5 80t107.5 17q39 0 48 -12.5t9 -58.5v-322q0 -115 -60 -181t-170 -66
q-116 0 -175 65t-59 178zM128 796q0 35 56 120l-1 -1q32 51 56.5 73.5t50.5 22.5q30 0 69 -36l1 1q40 -37 40 -75q0 -24 -13.5 -46t-48.5 -62l1 2q-72 -91 -119 -91q-31 0 -58 27l1 -2q-35 31 -35 67zM143 796q0 -28 30 -54h-1q22 -22 48 -22q39 0 106 85q32 37 45 57t13 39
q0 32 -34 63q-36 31 -60 31q-39 0 -94 -88q-53 -80 -53 -111zM159 796q0 26 50 103v-1q27 43 45.5 62t35.5 19q20 0 50 -28v1q29 -26 29 -51q0 -15 -11.5 -32.5t-42.5 -53.5q-63 -79 -95 -79q-19 0 -37 18q-24 21 -24 42z" />
    <glyph glyph-name="ucircumflex" unicode="&#xfb;" horiz-adv-x="585" 
d="M12 274v301q0 35 1 56t8 37t13 23t25 11t34 4.5t50 0.5q79 0 102.5 -20.5t23.5 -87.5l-7 -305q0 -47 9 -47q14 0 19 8.5t5 31.5l-5 286q0 47 4.5 70t22.5 39.5t48.5 20.5t88.5 4q63 0 77.5 -19t14.5 -88v-322q0 -133 -69 -207.5t-196 -74.5q-133 0 -201 74t-68 204z
M30 274q0 -122 63.5 -191.5t187.5 -69.5q119 0 183.5 70.5t64.5 194.5v322q0 57 -12 73t-63 16q-68 0 -97.5 -9t-39 -31t-9.5 -75q4 -194 4 -287q0 -33 -8.5 -45.5t-32.5 -12.5q-17 0 -22 15t-5 51l7 305q0 55 -20.5 72t-87.5 17q-31 0 -43.5 -0.5t-29 -4t-21.5 -9.5
t-11 -20t-7 -32t-1 -48v-301zM47 274v301q0 25 1 40.5t6 27t9 16.5t18 8t25 3.5t37 0.5q57 0 74 -13.5t17 -57.5l-7 -305q0 -47 8 -65.5t36 -18.5q34 0 46.5 16.5t12.5 59.5l-5 287q0 63 21.5 80t107.5 17q39 0 48 -12.5t9 -58.5v-322q0 -115 -60 -181t-170 -66
q-116 0 -175 65t-59 178zM113 787q0 25 34 77q39 61 63 77t74 16q46 0 69 -14t58 -70v1q37 -56 37 -83q0 -38 -46 -68l-3 -3q-31 -17 -53 -17q-38 0 -65 35q-27 -33 -69 -33q-23 0 -47 12q-30 17 -41 30.5t-11 39.5zM129 787q0 -21 9.5 -32t34.5 -25q22 -10 39 -10
q38 0 63 35l-1 -1l8 11q5 -6 12 -16h-1q24 -31 53 -31q17 0 44 15l5 4l-2 -2q39 24 39 56q0 20 -34 75q-32 49 -53.5 62.5t-60.5 13.5q-43 0 -65 -15t-59 -71q-31 -49 -31 -69zM145 787q0 15 29 61q33 52 52.5 65.5t57.5 13.5q35 0 53 -11.5t47 -57.5q31 -47 31 -67
q0 -23 -31 -43l-4 -3q-21 -12 -34 -12q-22 0 -40 26q-1 1 -25 37q-14 -26 -20 -33q-19 -28 -49 -28q-14 0 -31 9v-1q-15 9 -20.5 13.5t-10.5 12t-5 18.5z" />
    <glyph glyph-name="udieresis" unicode="&#xfc;" horiz-adv-x="585" 
d="M12 274v301q0 35 1 56t8 37t13 23t25 11t34 4.5t50 0.5q79 0 102.5 -20.5t23.5 -87.5l-7 -305q0 -47 9 -47q14 0 19 8.5t5 31.5l-5 286q0 47 4.5 70t22.5 39.5t48.5 20.5t88.5 4q63 0 77.5 -19t14.5 -88v-322q0 -133 -69 -207.5t-196 -74.5q-133 0 -201 74t-68 204z
M30 274q0 -122 63.5 -191.5t187.5 -69.5q119 0 183.5 70.5t64.5 194.5v322q0 57 -12 73t-63 16q-68 0 -97.5 -9t-39 -31t-9.5 -75q4 -194 4 -287q0 -33 -8.5 -45.5t-32.5 -12.5q-17 0 -22 15t-5 51l7 305q0 55 -20.5 72t-87.5 17q-31 0 -43.5 -0.5t-29 -4t-21.5 -9.5
t-11 -20t-7 -32t-1 -48v-301zM47 274v301q0 25 1 40.5t6 27t9 16.5t18 8t25 3.5t37 0.5q57 0 74 -13.5t17 -57.5l-7 -305q0 -47 8 -65.5t36 -18.5q34 0 46.5 16.5t12.5 59.5l-5 287q0 63 21.5 80t107.5 17q39 0 48 -12.5t9 -58.5v-322q0 -115 -60 -181t-170 -66
q-116 0 -175 65t-59 178zM51 821q0 53 34.5 80t89.5 27q63 0 96 -33q35 33 97 33q53 0 89 -27t36 -80q0 -52 -36 -79t-89 -27q-64 0 -97 33q-32 -33 -96 -33q-55 0 -89.5 27t-34.5 79zM68 821q0 -45 29.5 -68t77.5 -23q73 0 97 46q24 -46 96 -46q47 0 77.5 23t30.5 68
q0 46 -30.5 69.5t-77.5 23.5q-70 0 -96 -48q-26 48 -97 48q-48 0 -77.5 -23.5t-29.5 -69.5zM85 821q0 39 25 58.5t65 19.5t65 -19.5t25 -58.5q0 -38 -25 -57.5t-65 -19.5t-65 19.5t-25 57.5zM278 821q0 39 25 58.5t65 19.5q39 0 65 -20t26 -58t-26 -57.5t-65 -19.5
q-40 0 -65 19.5t-25 57.5z" />
    <glyph glyph-name="yacute" unicode="&#xfd;" horiz-adv-x="638" 
d="M21 622q0 53 28 66.5t107 13.5q55 0 79.5 -8t36.5 -25.5t31 -66.5l4 -10l8 16q29 63 56.5 79t110.5 16q36 0 51.5 -1t32 -8t21.5 -22t5 -43q0 -27 -19 -65l-3 -6q-22 -45 -135 -253q0 -1 0.5 -3.5t0.5 -3.5q2 -78 2 -175q0 -85 -23.5 -104t-125.5 -19q-59 0 -85.5 19
t-26.5 79l5 205l-130 234q-31 54 -31 85zM39 622q0 -24 29 -76l133 -238q-6 -93 -6 -210q0 -49 22.5 -64.5t71.5 -15.5q90 0 110.5 16t20.5 89q0 96 -2 174v13q107 197 136 257l3 5q18 39 18 57q0 21 -4.5 32.5t-18.5 16.5t-26.5 6t-43.5 1q-75 0 -100 -14.5t-51 -70.5
l-25 -56q-2 3 -19 52q-13 34 -19.5 47t-21 25t-33.5 14t-57 2q-68 0 -92.5 -10.5t-24.5 -51.5zM56 622q0 29 21 36.5t79 7.5q61 0 78 -12t36 -64l36 -93q19 50 40 96q23 49 45 61.5t91 12.5q32 0 44.5 -1.5t21.5 -9.5t9 -27q0 -17 -16 -49l-2 -5q-29 -60 -139 -260
q0 -1 0.5 -8t0.5 -10q2 -74 2 -174q0 -60 -18 -73.5t-96 -13.5q-41 0 -59 12t-18 50l6 213l-136 244q-26 50 -26 67zM166 796q0 35 56 120l-1 -1q32 51 56.5 73.5t50.5 22.5q30 0 69 -36l1 1q40 -37 40 -75q0 -24 -13.5 -46t-48.5 -62l1 2q-72 -91 -119 -91q-31 0 -58 27
l1 -2q-35 31 -35 67zM181 796q0 -28 30 -54h-1q22 -22 48 -22q39 0 106 85q32 37 45 57t13 39q0 32 -34 63q-36 31 -60 31q-39 0 -94 -88q-53 -80 -53 -111zM197 796q0 26 50 103v-1q27 43 45.5 62t35.5 19q20 0 50 -28v1q29 -26 29 -51q0 -15 -11.5 -32.5t-42.5 -53.5
q-63 -79 -95 -79q-19 0 -37 18q-24 21 -24 42z" />
    <glyph glyph-name="thorn" unicode="&#xfe;" horiz-adv-x="467" 
d="M10 98v476q0 34 1 55t8 36.5t12.5 22.5t24.5 11t33 4.5t49 0.5q70 0 95 -19.5t26 -79.5q134 -8 183 -55.5t49 -176.5q0 -128 -54 -180t-178 -61v-9q0 -82 -28.5 -102.5t-120.5 -20.5q-61 0 -80.5 17.5t-19.5 80.5zM27 98q0 -52 16 -66t67 -14q82 0 107 17.5t25 87.5v26
q125 6 178.5 54t53.5 170q0 123 -48.5 166.5t-183.5 48.5v10q0 53 -21.5 70.5t-82.5 17.5q-30 0 -42.5 -0.5t-29 -4t-21.5 -9.5t-10.5 -19.5t-6.5 -31t-1 -47.5v-476zM45 98v476q0 37 2 54.5t14.5 27.5t26 11t50.5 1q51 0 69 -13.5t18 -56.5v-27q135 -4 183.5 -43.5
t48.5 -154.5q0 -80 -25.5 -124.5t-73.5 -62t-133 -20.5v-43q0 -58 -22 -72.5t-93 -14.5q-40 0 -52.5 11t-12.5 51zM225 353q32 1 44 5t12 16q0 17 -56 20v-41zM242 371v3h21q-1 -2 -21 -3z" />
    </font>
</defs>
</svg>
