<?xml version="1.0" standalone="no"?>
<!DOCTYPE svg PUBLIC "-//W3C//DTD SVG 1.1//EN" "http://www.w3.org/Graphics/SVG/1.1/DTD/svg11.dtd" >
<svg xmlns="http://www.w3.org/2000/svg" xmlns:xlink="http://www.w3.org/1999/xlink" version="1.1">
<metadata>
Created by FontForge 20170731 at Thu Oct 17 08:15:01 2013
 By Aleksey,,,
Created by www-data with FontForge 2.0 (http://fontforge.sf.net)
</metadata>
<defs>
<font id="TheTypingofaMadman" horiz-adv-x="60" >
  <font-face 
    font-family="The Typing of a Madman"
    font-weight="500"
    font-stretch="normal"
    units-per-em="1000"
    panose-1="2 0 6 3 0 0 0 0 0 0"
    ascent="800"
    descent="-200"
    x-height="392"
    cap-height="604"
    bbox="28.6786 -200.333 775 804"
    underline-thickness="50"
    underline-position="-200"
    unicode-range="U+0020-2265"
  />
<missing-glyph horiz-adv-x="364" 
d="M33 0v666h265v-666h-265zM66 33h199v600h-199v-600z" />
    <glyph glyph-name=".notdef" horiz-adv-x="364" 
d="M33 0v666h265v-666h-265zM66 33h199v600h-199v-600z" />
    <glyph glyph-name=".null" horiz-adv-x="0" 
 />
    <glyph glyph-name="nonmarkingreturn" horiz-adv-x="333" 
 />
    <glyph glyph-name="space" unicode=" " horiz-adv-x="365" 
 />
    <glyph glyph-name="exclam" unicode="!" horiz-adv-x="265" 
d="M131 71q0 7 -11 16q-10 8 -17 1.5t0 -16.5q3 -5 10 -7t12.5 -0.5t5.5 6.5zM161 138q-2 7 -3 -3q-2 -19 1 -20q1 -1 2 3q4 9 0 20zM133 155q2 15 -10 19q-6 2 -7 0q0 -1 1 -2q6 -6 -8 -17q-8 -6 -9 -9.5t6 -10.5q8 -8 16 -2.5t11 22.5zM176 472q-6 0 -8.5 -46t2.5 -62
t6 -2q1 10 2 44q2 66 -2 66zM116 517q-1 -12 3 -11q5 0 3 13q0 2 -1 3q-2 6 -4 2q-1 -2 -1 -7zM107 250q1 -4 -2.5 -17.5t-4 -23t9.5 -9.5q12 0 32 -12q12 -8 19.5 -7.5t24.5 8.5q25 11 29 20q5 7 13 7q22 0 -14 -28q-5 -4 -11 -8q-20 -14 -26 -23t-6 -28q0 -14 -4.5 -28.5
t-5 -19.5t7.5 -23q15 -22 5 -26q-4 -1 -13 6q-10 9 -27 5q-18 -5 -39 16q-15 15 -21 16t-20 -8q-19 -14 -24 -9q-1 1 1 4t7 7t12 8q23 14 25.5 36t-16.5 45q-18 23 -11 25q5 2 19 -11q16 -14 16 -11q1 1 3 30.5t4 58.5t4 29q2 4 -11.5 136.5t-20.5 175.5q-4 34 4 30
q6 -4 8 0.5t3 11.5t5 7q5 0 15 -34t10 -53q0 -18 4 -17q9 2 11 35v11q0 46 11 70q6 16 8.5 3.5t6.5 -91.5q5 -113 7 -116q3 -5 7 18q8 47 8 96q1 62 13 59q5 -1 9 -18q6 -23 -3.5 -198.5t-17.5 -183.5q-6 -6 -8 18q-1 15 -1 42q0 55 -3 55q-2 0 -5 -8q-11 -24 -14 -60
q-1 -11 -3 -19.5t-5 -13t-5 -3.5q-5 1 -6.5 16t-6.5 16q-7 0 -7 -14z" />
    <glyph glyph-name="quotedbl" unicode="&#x22;" horiz-adv-x="218" 
d="M52 408q-12 0 -21 106q-5 58 7 55q5 -2 12 -15q10 -18 13.5 -62t-4.5 -48q-5 -1 -4.5 -10.5t2 -17t-4.5 -8.5zM171 576q8 0 14 -21.5t2 -32.5q-3 -3 -11 -61t-13 -61q-10 -6 -7 81q3 79 15 95z" />
    <glyph glyph-name="numbersign" unicode="#" horiz-adv-x="695" 
d="M305 138q-2 7 -3 -3q-2 -19 1 -20q1 -1 2 3q4 9 0 20zM238 194q7 2 -3 3q-19 2 -20 -1q-1 -1 3 -2q9 -4 20 0zM199 214q-14 0 -36 -6q-12 -4 -13 -5l9 -1q14 0 36 6q12 4 13 5zM406 251q2 -5 14 -1q8 2 1 4q-2 1 -5 1q-11 0 -10 -4zM542 282q7 2 -3 3q-19 2 -20 -1
q-1 -1 3 -2q9 -4 20 0zM449 314q-2 7 -3 -3q-2 -19 1 -20q1 -1 2 3q4 9 0 20zM427 274q-1 18 -0.5 44t-0.5 51.5t-4 29.5q-6 0 -51 -13q-36 -11 -39.5 -20t-1.5 -77v-39zM494 336q-8 68 -14 66q-2 -2 1 -34q4 -53 11 -64q3 -5 4 3q0 8 -2 29zM354 410q-20 -2 -27.5 -8
t-0.5 -18q3 0 49 16q30 9 31 12q1 2 -19 1zM350 426q7 2 -3 3q-19 2 -20 -1q-1 -1 3 -2q9 -4 20 0zM284 541q-1 -12 3 -11q5 0 3 13q0 2 -1 3q-2 6 -4 2q-1 -2 -1 -7zM281 598q-2 9 -3 -2q-3 -30 1 -30q1 0 2 4q4 13 0 28zM241 602q-2 7 -3 -3q-2 -19 1 -20q1 -1 2 3
q4 9 0 20zM659 288q0 -8 -21 -8q-16 0 -16 -3q0 -1 4 -4q22 -14 -12 -23q-9 -2 -21 -4q-43 -6 -61 -15t-13 -23q5 -16 -5 -16q-9 0 -4 -22q2 -13 7 -46.5t6 -39.5l-11 28q-7 17 -8 17q-2 0 1 -47q4 -57 -2 -72q-5 -12 -11 0q-2 5 -5 14q-10 29 -20.5 90t-16.5 84
q-91 -3 -103 -10q-7 0 -6.5 -29.5t10.5 -110.5q3 -23 -4 -40q-5 -11 -8 7q-1 7 -1 17l-2 25q-1 -2 -2 -15q-3 -24 -9 -22q-9 3 -11 46l-2 28q-1 -3 -2 -16q-4 -36 -11.5 -27.5t-14.5 57.5q-8 44 -12 52t-19 8q-18 0 -66 -12q-39 -11 -47 -11.5t-9 6.5q0 6 35 15q22 5 20 8
q0 1 -4 1q-25 0 -73 -14q-59 -15 -63 -7q-3 5 31 15l34 9l-24 6q-13 3 -14 5q0 4 26 12q7 2 17 5q45 16 92 22q42 7 48.5 15.5t0.5 51.5l-7 51l-26 -6q-90 -20 -82 -6q5 10 28 10q20 0 50.5 8.5t30.5 13.5q0 6 -7 17q-7 9 -31 6.5t-108 -19.5q-62 -13 -71 -4q-7 7 3 11
q9 3 53 12q7 1 11 4.5t2 6.5q-2 4 10 6q9 2 24 2q44 0 100 18q-7 85 -21 138q-26 96 -12 104q3 2 5 -1t2 -7.5t2 -8.5t5 -3q8 0 12 -18q2 -10 3 2q1 5 1 14q1 28 8.5 30t9.5 -26q0 -22 7 -38q5 -13 7 6v20q1 39 8 39q7 -4 23 -93.5t20 -144.5q8 1 30.5 4t40.5 5.5t22 4.5
q4 4 -12 100q-18 109 -8 100q3 -3 11 -27q1 -2 2 -6q4 -16 5 -17l3 12v5q1 17 2 17q2 1 5 -8q4 -10 6 -10.5t7 6.5q6 9 12 -12q3 -8 5 -21q28 -125 41 -136q6 -6 54 5q125 28 121 13q-7 -11 -79 -22q-8 -1 -14.5 -3t-9.5 -4t-2 -4q3 -4 -12 -9q-9 -3 -29 -7q-19 -5 -20 -6
q-4 -16 13 -119q140 -4 148 -12z" />
    <glyph glyph-name="dollar" unicode="$" horiz-adv-x="362" 
d="M178 161q-20 9 -52 14q-7 1 -7.5 0t5.5 -5l2 -2q14 -9 52 -7zM38 229q0 -14 24 -45.5t34 -31.5q5 0 -23 38q-32 42 -34 42q-1 0 -1 -3zM238 184q18 8 16.5 51.5t-16.5 53.5l-15 19v-66q0 -58 4 -60q3 -1 11 2zM180 174q0 1 3 49t2 74.5t-9 30.5q-8 8 -9 -4q-1 -10 1 -46
q4 -55 -1.5 -56.5t-12.5 52.5l-6 50l-12 -62q-5 -17 -7 -29t-0.5 -21t1.5 -13.5t7.5 -9l10 -6t15 -5t17.5 -4.5zM102 402q0 -8 14 -19q8 -6 9 -7l-7 12q-3 4 -6 8.5t-5.5 7t-2.5 3.5q-2 -3 -2 -5zM315 392q2 1 3 7.5t-1.5 12t-6.5 4.5q-3 -1 -3.5 -3.5t0.5 -6t2.5 -7t3 -5.5
t2.5 -2zM303 437q-1 -12 3 -11q5 0 3 13q0 2 -1 3q-2 6 -4 2q-1 -2 -1 -7zM126 431q0 -19 7.5 -18t10.5 21q4 27 3 28q-2 3 -7.5 -2.5t-9.5 -14t-4 -14.5zM196 363q3 3 -4 63q-6 45 -10 45q-5 -1 -11 -56q-5 -45 8 -50q13 -6 17 -2zM275 482q-19 13 -15 -4q6 -22 22 -40
q3 -3 4 -2q5 -3 5 5q1 19 -12 37q-2 3 -4 4zM273 516q-5 15 -31 11q-15 -2 -15 -8q-1 -5 13 -10q34 -8 34 1q0 2 -1 6zM198 561q0 31 8 31t8 -28q0 -20 4 -23.5t24 -2.5q26 2 30 -2q53 -68 58 -121q5 -46 -2 -50q-8 -4 -50 59q-18 27 -28.5 41t-18.5 20t-11 -1t-4.5 -22.5
t0.5 -43.5q2 -53 6.5 -66t29.5 -38q24 -25 29 -36.5t5 -45.5q0 -35 -4.5 -44t-27.5 -24q-32 -19 -32 -40q0 -20 -8 -20q-6 0 -10 14q-1 4 -2 -2q-2 -9 -3 -35q-1 -44 -8 -45q-8 0 -11 52l-2 44h-64l-2 -38q-2 -35 -10 -37q-8 -3 -7 35v2q1 25 -4 36.5t-28 35.5
q-33 33 -33 62q0 28 8 28q5 0 7.5 -7.5t10.5 -4.5q4 2 11.5 -4t12.5 -16q15 -25 26 -24q4 0 4 6q0 8 21 151l-19 14q-20 16 -15 44t33 57q17 17 22.5 29t5.5 33q0 34 8 34t8 -29q0 -23 4 -24q2 0 8 5q12 10 12 41z" />
    <glyph glyph-name="percent" unicode="%" horiz-adv-x="563" 
d="M362 132q-39 29 -38 14q0 -13 22 -28q4 -3 9 -5q19 -9 54 -8t44 11q7 9 5 9q-3 0 -16 -5q-24 -9 -40.5 -7t-39.5 19zM388 144q14 -1 16 2t-5 6q-15 7 -22 0q-2 -4 1 -6t10 -2zM468 163q19 15 17 20.5t-21 -17.5l-15 -18zM349 178q0 -8 8.5 -14t12.5 -2q7 0 -8 13
q-12 10 -13 3zM523 230q-3 11 -4 -3q-1 -24 2 -24q1 0 2 3q4 11 0 24zM493 241q0 25 -5 31t-12 0.5t-19 -19.5q-8 -10 -13 -15q-9 -10 -19 -22t-17 -22t-9 -12q-8 -9 -6.5 -12.5t15.5 -10.5q15 -7 23 -3.5t30 24.5q20 20 26 31.5t6 29.5zM469 291q0 5 -18 5q-17 0 -48 -29
t-35 -49q-6 -22 7 -31q7 -5 13 2q81 91 81 102zM421 314q13 5 -1 5q-13 0 -24 -13l-7 -10q2 0 8 5q10 8 24 13zM317 142q0 25 19 78t38 88q-43 -51 -53 -50q-5 3 14.5 25t49 41t48.5 14q14 -3 29.5 -4t20.5 -2.5t12.5 -10t16.5 -29.5q22 -46 21 -77t-25 -61
q-32 -39 -58 -53.5t-57 -10.5q-76 8 -76 52zM37 340q0 -25 32.5 -38t55.5 2q3 7 -13 8q-25 0 -43 20q-31 30 -32 8zM170 370q14 14 10 17q-4 4 -14 -13q-8 -13 -7 -13.5t11 9.5zM59 390q-3 11 -4 -3q-1 -24 2 -24q1 0 2 3q4 11 0 24zM172 348q15 13 27.5 33t11.5 37
q-2 6 -6 -4q-1 -3 -2 -8q-3 -18 -27 -48q-16 -19 -14 -19q1 0 10 9zM214 453q-1 -12 3 -11q5 0 3 13q0 2 -1 3q-2 6 -4 2q-1 -2 -1 -7zM197 457q0 14 -6 18q-10 6 -54 -47t-44 -70q0 -10 12 -16t22 -1q10 7 40 56t30 60zM165 516q0 4 -11 4q-7 0 -23 -32t-11 -37q1 -1 6 4.5
t11.5 14.5t12.5 18.5t10.5 17.5t4.5 10zM85 395q-1 1 26 77q17 48 10 47q-2 -1 -6 -5q-19 -21 -38 -94q-11 -45 -1 -41q9 5 9 16zM229 439q0 -63 -61 -117q-24 -21 -38 -27.5t-33 -6.5q-49 0 -61.5 26t4.5 94q8 33 18.5 54t38.5 64q28 37 58 33t52 -40t22 -80zM224 168
q5 0 37.5 49.5t39.5 66.5q6 17 5 19l-7 -8q-5 -7 -19 -29q-36 -59 -47.5 -78.5t-8.5 -19.5zM264 288q5 0 37 51t60 103q41 75 33 69q-11 -8 -78 -123q-27 -46 -41.5 -73t-10.5 -27zM448 596q32 56 37 53q8 -6 -46 -107q-91 -172 -119 -241q-26 -66 -121 -187
q-25 -31 -32 -26q-3 3 2 14q4 35 38 100t39 78q13 34 47 96q99 174 112 183q6 5 10 -7q2 -5 18 20q7 10 15 24z" />
    <glyph glyph-name="ampersand" unicode="&#x26;" horiz-adv-x="496" 
d="M355 151q10 -10 14 -5q3 4 -7 8q-2 1 -3 1q-8 4 -8.5 3t4.5 -7zM271 176q-4 -4 14 -20q8 -6 7 -3t-7 11q-12 12 -14 12zM289 192q-3 -3 13 -14q31 -21 36 -18q3 1 -10 11q-3 2 -7 5q-23 16 -32 16zM206 181q10 12 -1 12q-14 -1 -27 -16q-12 -13 -9 -13q1 0 11 2
q17 4 26 15zM55 236q0 -22 3 -20q5 4 3 26q-1 5 -2 8q-2 12 -4 -2v-12zM268 224q7 0 25 29q19 29 14.5 29.5t-24.5 -27.5q-24 -31 -15 -31zM287 312q-6 0 -17.5 -20t-7.5 -24q1 -5 13 12q20 31 12 32zM175 254q-31 54 -64 102q-21 -41 -27.5 -101.5t11.5 -84.5q24 -27 70 13
l28 23l-28 30q-25 26 -20 26q3 1 11 -2zM428 389q5 5 1 4q-12 -1 -29 -14q-9 -7 -10 -8l15 6q20 9 23 12zM118 413q-1 -12 3 -11q5 0 3 13q0 2 -1 3q-2 6 -4 2q-1 -2 -1 -7zM53 307q1 13 29.5 54t24.5 63q-4 0 -34 -37q-19 -22 -25.5 -37t-8.5 -41q-3 -26 0.5 -30.5t8 6.5
t5.5 22zM284 453q5 5 1 4q-12 -1 -29 -14q-9 -7 -10 -8l15 6q20 9 23 12zM333 509q0 9 -1.5 10t-5.5 -6t-15 -27l-19 -34q41 44 41 57zM331 562q-2 7 -3 -3q-2 -19 1 -20q1 -1 2 3q4 9 0 20zM172 528q3 1 4 -14q0 -10 -1 -38q-1 -44 2 -44q11 0 58.5 37.5t54.5 51.5
q11 21 11 41t-10 28t-44 16q-23 6 -31.5 3.5t-25.5 -20.5q-25 -27 -26 -51q0 -10 8 -10zM195 611q11 8 16 16q3 5 1 5q-5 1 -20 -18l-15 -18zM269 628q-12 12 -27 12q-10 -1 -11 -2t3 -4q4 -2 11 -6q31 -18 29 -8q0 2 -5 8zM317 622q0 -18 21 -39q14 -15 15.5 -23.5
t-5.5 -36.5q-9 -39 -22 -54q-10 -13 -68 -41t-73 -28q-8 0 -10 -6.5t2 -27.5q4 -28 22.5 -62.5t37.5 -51.5q12 -10 14 -9t2 21q0 41 51 85.5t111 55.5q54 11 50.5 -1.5t-62.5 -40.5q-23 -11 -41.5 -35.5t-49.5 -85.5l-17 -35q53 -35 68 -39q11 0 42 -25.5t27 -31.5
q-7 -10 -36 -3t-53 25l-30 21q44 -44 42 -54q-5 -5 -59 24q-39 20 -50 22.5t-30 -6.5q-31 -15 -70.5 -12t-70.5 23l-36 23q-1 7 -3.5 40t-4 50.5t-2.5 48t2 33.5q4 22 40.5 59.5t47.5 32.5q5 -1 7.5 -1t4 7t2 18t0.5 32q0 59 10.5 92.5t35.5 55.5q20 17 30.5 20t42.5 -1
q38 -5 51.5 -13t13.5 -26z" />
    <glyph glyph-name="quotesingle" unicode="'" horiz-adv-x="103" 
d="M54 421q0 12 -9 54.5t-13 69t3 41.5q5 4 21 -1q13 -5 15 -18.5t1 -74.5q-2 -87 -9 -94q-6 -6 -8 7q-1 6 -1 16z" />
    <glyph glyph-name="parenleft" unicode="(" horiz-adv-x="413" 
d="M94 89q4 -4 -4 15q-26 63 -41 81q-4 5 -2 -6q1 -1 1 -3q11 -53 33 -81q9 -10 13 -6zM49 290q-2 12 -3 -2q-2 -43 1 -45q1 0 2 7q4 22 0 40zM57 386q-2 7 -3 -3q-2 -19 1 -20q1 -1 2 3q4 9 0 20zM191 552q-3 0 -48 -41q-28 -27 -51 -67t-15 -48q1 -2 14 13t34 43t44 62
q7 10 12.5 19t8 14t1.5 5zM251 564q11 14 1 13q-15 -1 -36 -23q-37 -37 -31 -42q3 -3 24 14q28 22 42 38zM126 524q34 36 37.5 49t-45.5 -39q-73 -80 -64 -104q3 -8 17 17q2 3 3 5q20 40 52 72zM242 664q11 0 -4 -19q-6 -9 -20 -24q-8 -9 -11.5 -15t-2.5 -8t7 -0.5t16 6.5
q20 11 85 13t70 -8q4 -6 -11 -11q-17 -6 -46 -6q-26 0 -76 -45q-76 -69 -102 -96t-49 -62q-27 -42 -30 -74.5t15 -90.5q8 -26 12 -44.5t8 -31.5t17 -40q37 -77 100 -89q38 -9 39 -29q0 -5 -11 -6t-26 3t-28 10q-27 14 -75.5 55t-61.5 61q-27 44 -26 184t28 186
q10 16 89.5 96.5t93.5 84.5z" />
    <glyph glyph-name="parenright" unicode=")" horiz-adv-x="338" 
d="M133 12q0 11 -15 -1q-5 -3 -9 -9q-7 -8 -7 -9t14 6q17 9 17 13zM184 23q15 25 10 24q-4 -1 -21 -21q-19 -21 -44 -40q-24 -17 -11 -17q13 -1 32.5 15t33.5 39zM269 130q8 14 5 24q-4 14 -4 0q0 -4 -5 -24l-3 -10zM291 214q-3 11 -4 -3q-1 -24 2 -24q1 0 2 3q4 11 0 24z
M269 208q0 28 -8 40q-4 6 -6 -5q-1 -10 -1 -39q0 -40 6 -42q8 -2 9 46zM213 96q24 36 28 50t2 60l-3 42q-1 -1 -1 -5q-1 -24 -18.5 -80t-31.5 -85q-14 -28 -12 -29t17 20q8 10 19 27zM277 329q0 43 -3.5 69t-8 37.5t-18.5 40.5q-3 -35 7.5 -121t18.5 -105q1 -1 2 9t1.5 29
t0.5 41zM214 504q10 -26 14 -23q5 2 -5 20q-2 4 -6 8q-7 9 -8 10zM101 595q0 -4 45 -65q46 -61 83 -158v37q0 36 -21.5 79.5t-48.5 59.5q-27 17 -25 25q1 4 14 -1q8 -2 8 -1.5t-3 3.5q-5 5 -18 11t-23.5 9.5t-10.5 0.5zM69 613q1 2 8 1.5t19.5 -4t25.5 -8.5q9 -3 10 -1
q0 2 -2 5q-6 10 0 10q10 0 23 -16q15 -16 29 -20q16 -5 53.5 -59.5t51.5 -94.5q17 -48 20 -138q4 -79 -6 -123.5t-42 -94.5q-29 -45 -78.5 -101t-56.5 -52q-5 1 2 12t15.5 21t6.5 10q-1 0 -47 -8q-63 -12 -71 4q-5 10 25 25q38 20 63 45.5t52 71.5q38 64 41 94q4 32 11 37
q11 7 7 61t-20 100q-13 41 -50.5 101.5t-73.5 99.5q-16 18 -16 22z" />
    <glyph glyph-name="asterisk" unicode="*" horiz-adv-x="502" 
d="M320 346q7 2 -3 3q-19 2 -20 -1q-1 -1 3 -2q9 -4 20 0zM172 362q9 2 -2 3q-30 3 -30 -1q0 -1 4 -2q13 -4 28 0zM61 246q-2 3 20 20t45 33.5t23 17.5q-1 8 -56 -30q-24 -16 -27 -7q-3 6 13 18q14 11 10 13q-4 1 -32 2h-9l-18 1q1 1 28 6q11 2 18 3q73 12 66 22
q-4 6 -36 10q-45 5 -45 13q6 6 146 18q-53 58 -87 79q-27 19 -27 25q0 8 12 -2q7 -6 22 -4t19 -10q10 -16 63 -53q-21 24 -49.5 65t-24.5 46q1 2 13 -10.5t28 -31.5t32 -38.5t27.5 -32t12.5 -11.5q8 7 8 108l10 -120l2 78q2 75 10 77t9 -61l2 -62q1 16 4 48t4 48
q1 -17 4 -51t4 -51q3 2 19.5 15.5t25 21t22 19.5t21.5 21t12 16q11 21 19 21q6 -2 -7 -21q-10 -16 -9 -17q1 0 13 6q18 9 27 6t-11 -14q-19 -10 -60 -42q-28 -22 -28 -25q0 -4 51 9q12 3 12 -4q1 -8 -12 -10h-5q-17 -1 -106 -55q35 1 127 -6q56 -4 56 -14v-2q-4 -11 -83 -11
q-80 0 -80 -8q-3 -2 23.5 -31t53.5 -57l27 -27q-30 -10 -57 21q-15 17 -16 17q-2 1 18 -33q30 -48 21 -44t-46 60l-43 66q-7 -193 -20 -214q-8 -8 -9 7q-1 60 -8 148.5t-10 91.5q-3 4 -65 -28t-98 -55q-19 -12 -19 -4z" />
    <glyph glyph-name="plus" unicode="+" horiz-adv-x="508" 
d="M306 208q6 1 2 28q-2 12 -6 12q-8 0 0 -32zM360 275q2 -5 14 -1q8 2 1 4q-2 1 -5 1q-11 0 -10 -4zM435 282q11 3 -3 4q-24 1 -24 -2q0 -1 3 -2q11 -4 24 0zM259 322q-2 7 -3 -3q-2 -19 1 -20q1 -1 2 3q4 9 0 20zM260 496q8 -4 27.5 -77t23.5 -112q86 6 100 1q17 -7 33 -5
q15 3 15 -4q0 -1 -1 -2q-5 -9 9 -9q27 -1 -6 -10q-27 -7 -74 -14q-54 -8 -62 -11.5t-5 -19.5q7 -35 10 -82t-1 -55q-9 -14 -16 9q-4 12 -5 31q0 28 -7 44q-4 7 -4 -8q0 -12 2 -44q4 -60 -3 -61q-8 -1 -14 69q-9 112 -23 112q-8 0 -3 -78q4 -70 -2 -64l-1 2q-6 19 -9.5 66
t-8.5 67q-7 0 -30.5 -1t-43.5 -1.5t-42.5 -1t-38 0.5t-19.5 4q0 7 -17 7q-12 0 -13.5 1t2.5 3q3 1 8 3q12 5 12 6t-12 2q-4 0 2 2q15 5 62 11q114 16 132 20q-2 133 13 187l6 -48q15 -132 33 -132q5 0 7 6.5t-0.5 21.5t-8 38.5t-15.5 59.5q-5 17 -8.5 33t-4 24t0.5 9z" />
    <glyph glyph-name="comma" unicode="," horiz-adv-x="195" 
d="M90 80q33 0 11 22q-15 14 -25 4q-9 -9 -4.5 -17.5t18.5 -8.5zM62 117q3 -10 13 5q8 12 0 11q-3 0 -7 -3q-6 -4 -6 -13zM150 129q0 13 -12 17.5t-19 -5.5q-7 -8 5 -28q13 -17 19.5 -8.5t6.5 24.5zM86 162q0 -8 6 -12t15 0q14 5 2 14q-14 10 -21 2q-2 -2 -2 -4zM63 169
q0 19 37 10q31 -8 53 -29q11 -10 12 -16.5t-6 -25.5q-10 -26 -4 -38q3 -4 1 -5t-7 1q-7 2 -8.5 -2.5t0.5 -19.5q4 -34 -8.5 -47t-48.5 -12q-32 1 -32 2t18 5q24 6 40.5 23.5t14.5 35.5q-2 11 -7 13.5t-21 1.5q-25 -4 -31 6t-21 -5q-13 -12 -15 -5q-1 6 9 16q7 7 15.5 39.5
t8.5 51.5z" />
    <glyph glyph-name="hyphen" unicode="-" horiz-adv-x="334" 
d="M240 248q-1 -2 2.5 -3.5t9.5 -2.5t13 -1.5l14 -1t13 -1.5t9.5 -2.5t2.5 -3.5q0 -8 -141 -8q-167 0 -125 13q13 4 46 9q50 8 102.5 8.5t53.5 -6.5z" />
    <glyph glyph-name="period" unicode="." horiz-adv-x="212" 
d="M103 92q7 -3 8 3q0 9 -8 9q-5 0 -6.5 -1.5t-1 -3t2.5 -3.5t5 -4zM71 125q0 -11 3.5 -12.5t8.5 6.5q5 6 -4 12q-8 5 -8 -6zM119 114q0 -14 9 -9q7 4 11 16q8 22 -1 20q-10 -2 -17 -18q-2 -5 -2 -9zM127 161q0 5 -8 6.5t-17 -1t-12 -7.5q-4 -7 -0.5 -13t11 -6.5t14.5 4.5
q12 12 12 17zM107 176q37 0 56 13t19 5q0 -7 -15 -22q-12 -7 -15.5 -36.5t-8.5 -36.5q-7 -10 4 -19q15 -13 11 -18q-3 -4 -17 5q-19 11 -44 15.5t-30 -2.5q-3 -8 -18 -8q-12 0 0 14q13 13 13.5 40.5t-10.5 40.5t-22 53q3 -3 8.5 -9t8.5 -9l8 -8t10 -7.5t11.5 -5.5t14 -4
t16.5 -1z" />
    <glyph glyph-name="slash" unicode="/" horiz-adv-x="416" 
d="M179 236q-8 -20 -4 -19q7 2 13 20q2 6 0 8q-2 1 -4.5 -1.5t-4.5 -7.5zM190 258q1 -3 9 9q17 29 13 34q-1 1 -3.5 -2t-5.5 -9l-6 -12t-5 -11.5t-2 -8.5zM375 800q23 0 -4 -98q-6 -21 -9 -34t-4 -21.5t0.5 -11.5t4.5 -3q5 0 6 -3.5t-3 -17t-13 -35.5t-27 -64l-64 -152
q-110 -265 -124 -280q-3 -1 -38 -82q-16 -37 -20 -37q-2 1 0 17q4 20 1 20.5t-4 -1t-8 -14.5l-3 -4.5t-2.5 -4.5t-3 -5.5t-2.5 -4.5q-21 -34 -26 -35q-7 -1 15 51q32 73 116.5 283t116.5 279q42 95 42 124q0 21 20.5 73.5t32.5 60.5z" />
    <glyph glyph-name="zero" unicode="0" horiz-adv-x="573" 
d="M317 88q3 7 -7 8q-13 -1 -13 -8q0 -9 8.5 -8t11.5 8zM267 107q2 -5 14 -1q8 2 1 4q-2 1 -5 1q-11 0 -10 -4zM271 69q-10 13 -38 29q-22 13 -22 11q0 -1 6 -11q11 -17 39 -30q24 -12 23 -9q0 1 -8 10zM416 144q-5 0 -19 -16q-12 -13 -51 -40q-31 -21 -22 -24
q7 -5 50.5 35.5t41.5 44.5zM277 136q3 6 -5 7q-14 3 -16 -4q0 -3 8 -7t13 4zM201 105q-17 31 -25 33.5t-23 -18.5q-11 -17 -12 -23.5t7 -23.5q22 -41 60 -52.5t85 10.5l32 15q-88 -7 -124 59zM289 127q0 -13 19 -2q12 6 19 17q10 16 8 16.5t-24 -11.5q-22 -10 -22 -20z
M200 160q-17 4 16 -27q5 -5 16 -15q10 -9 11 -10q-34 50 -43 52zM326 112q5 0 32.5 33.5t37.5 52.5q7 11 2 9q-6 -3 -23 -21q-43 -47 -50 -70q-1 -4 1 -4zM449 209q1 19 -19 -19q-9 -17 -13 -26q31 34 32 45zM257 235q0 17 -8.5 15.5t-19.5 -19.5q-14 -24 -4 -48
q7 -15 14 -19t26 -4q30 0 34 8t-18 30q-24 26 -24 37zM165 176q0 7 -9.5 30t-11.5 34q-6 36 -7 6q-1 -16 10 -43t18 -27zM176 188q-10 52 -22 88q-4 -34 22 -88zM380 140q17 18 48 73.5t35 78.5q-7 -6 -42.5 -68.5t-39.5 -67.5q-30 -40 -22 -36q4 2 21 20zM341 184
q13 -2 39 55t27 92q-1 1 -12 -19.5t-27 -53.5q-38 -74 -27 -74zM142 338q-2 7 -3 -3q-2 -19 1 -20q1 -1 2 3q4 9 0 20zM124 344q-7 0 -9.5 -47.5t0.5 -99t10 -61.5q5 -8 17 8q8 10 7 19.5t-13 33.5q-18 38 -14 92q2 34 2.5 39t-0.5 16zM258 400q10 29 5 28q-6 -1 -26 -47
q-24 -57 -31 -145q32 33 38 90q6 52 14 74zM169 410q2 -9 7 6q10 30 5 30q-2 3 -6 -6q-7 -16 -6 -30zM398 232q7 0 33 63t29 87q5 37 -2 61q-4 14 -6 14q-4 -1 -11 -38q-2 -7 -21.5 -88t-21.5 -99zM309 192q8 -3 37 47t54.5 115t22.5 98l-2 34q-86 -101 -137 -172
q-19 -28 -22 -38t3 -29q8 -24 20.5 -39.5t23.5 -15.5zM518 424q4 36 -5 65q-4 15 -7 -6q-1 -13 -1 -39q0 -59 -12 -111q-13 -48 -10 -51q7 -7 27 93q6 30 8 49zM399 487q-22 -32 -18 -30q9 5 36 44q11 15 7 14q-1 1 -8.5 -7t-16.5 -21zM489 476q-4 28 -13 48l-9 15
q-1 -1 2 -11q7 -27 12 -72q3 -29 7 -30q5 -1 1 50zM305 542q17 23 14 24q-5 2 -33 -36q-18 -25 -40 -74t-21 -62q5 5 40 73t40 75zM374 608q-1 0 -29 -34q-23 -29 -55 -115.5t-33 -122.5v-28q16 23 74 104t82 119q5 7 -15 41.5t-24 35.5zM433 611q-13 21 -21.5 26.5
t-14.5 -3.5q-2 -4 8.5 -19t23.5 -27.5t16 -9.5q6 6 -12 33zM361 626q-15 11 -23 6t-25 -28q-3 -4 -4 -6q-33 -45 -31.5 -49t39.5 31q44 40 44 46zM315 640q-5 0 -42.5 -47t-51.5 -71q-11 -20 -28 -91t-16 -99v-40q13 61 52.5 165.5t62.5 138.5q3 5 9 13t10 13t5 8
q6 10 -1 10zM375 664q-8 0 2 -12q14 -16 15 -6q0 10 -10 16q-3 2 -7 2zM293 664q-7 0 -29.5 -24.5t-22.5 -32.5q0 -9 6 -2q0 1 13 14.5t24.5 27.5t8.5 17zM233 8q-28 0 -39.5 4.5t-28.5 21.5q-27 28 -31 38q-2 5 -4.5 6t-4.5 -2q-6 -12 -17.5 -30t-24 -36.5t-24.5 -34.5
t-20 -25.5t-9 -7.5q2 22 90 160l-12 64q-15 76 -3.5 142.5t57.5 159.5q27 53 47 106q38 103 100 112q70 9 129 -42q34 -28 37 -28l11 19q2 5 7 15q29 59 34 60q4 -19 -24 -66l21 24q21 25 20 15q-2 -11 -28 -52l-29 -46l18 -39q30 -61 18 -161.5t-59 -182.5q-23 -39 -27 -64
q-5 -33 -75 -81.5t-129 -48.5z" />
    <glyph glyph-name="one" unicode="1" horiz-adv-x="369" 
d="M129 470q-3 11 -4 -3q-1 -24 2 -24q1 0 2 3q4 11 0 24zM169 502q-2 19 -3 -3q-3 -61 1 -60q1 0 2 7q4 26 0 56zM163 596q0 -11 11 -7q19 8 1 -351l-6 -134q26 -2 100 12q68 7 70 5q0 -8 -24 -13q-28 -6 -29 -15q0 -5 15 -5q13 0 12 -3q0 -2 -6 -5q-12 -8 -74 -8
q-40 0 -51 -2.5t-11 -11.5q-1 -12 -8 -3l-2 2q-6 8 -22.5 9.5t-59.5 0.5q-53 -1 -49 1q1 0 5 1q22 3 49 12.5t39 12.5q17 5 23 10.5t7 20.5q1 16 0 16.5t-6 -13.5q-5 -13 -6 -13q-4 1 -4 161q0 136 -4 127v-2q-7 -34 -16.5 -31.5t-9.5 38.5t-5 36q-3 0 -7 -4q-7 -6 -9.5 -5
t-2.5 10t-2 9q-3 1 -14 -14q-16 -20 -16 -10q3 8 23 43.5t22 60.5q4 49 14 45q6 -2 10 -23q4 -23 10 -24q9 0 9 39q0 34 5 39q6 5 12.5 0.5t6.5 -14.5z" />
    <glyph glyph-name="two" unicode="2" horiz-adv-x="473" 
d="M165 51q-2 2 -43 8q-32 4 -32 1q1 -1 4 -3q11 -9 58 -9q17 0 13 3zM254 101q-1 4 -11 3.5t-26.5 -6t-30.5 -12.5q-24 -14 -25 -16q0 -3 14 -4q14 -2 46.5 13t32.5 22zM333 152q0 2 -13 -10t-24 -25t-9 -13q0 -1 13 11t24 24.5t9 12.5zM93 160q-16 0 -19.5 -5.5
t-3.5 -31.5v-37q105 8 126 21q14 7 11 11t-41 20q-50 22 -73 22zM116 170q11 3 -3 4q-24 1 -24 -2q0 -1 3 -2q11 -4 24 0zM279 157q2 -8 36 30q13 14 10 13q-4 0 -16 -10.5t-22 -21t-8 -11.5zM346 186q5 14 2 16q-3 1 -44.5 -41.5t-39.5 -44.5q4 -4 41 27.5t41 42.5z
M413 376q0 20 -7 36q-4 9 -5 10l-2 -12v-2q0 -20 7 -36q4 -9 5 -10l2 12v2zM421 434q-8 42 -15 52q-6 9 -5 1q1 -11 15 -66q7 -29 9 -27q3 2 -4 40zM371 498q-1 4 -2 9l-1.5 7.5t-1.5 5.5t-2.5 4.5l-4 4t-5.5 5t-8 5.5q-19 13 -19 7q1 -8 24 -34q20 -20 20 -14zM363 558
q2 -6 5 -9q4 -4 5 2q0 5 -6 11q-6 5 -7 4.5t3 -8.5zM289 562q-6 9 -21 5.5t-22 -14.5q-10 -18 -6.5 -20t26.5 9q11 5 18 11t5 9zM382 572q2 -15 21 -42q9 -13 9 -6q0 6 -5 22q-9 22 -21 29q-4 2 -4 -3zM304 584q-14 0 -15.5 -2t6.5 -10q12 -12 29 -6q10 3 5 11q-3 7 -25 7z
M319 592q28 0 56 -6q22 -4 22 -1q0 2 -6 9q-9 11 -41.5 13.5t-47.5 -7.5q0 -7 17 -8zM126 40q-41 0 -48 16q-9 16 -20 16q-13 0 -20.5 17.5t-7.5 45.5q0 22 4.5 30.5t21.5 18.5q57 35 109 -7q34 -27 48.5 -32.5t28 1t44.5 36.5q33 32 45 51t24 59q40 134 -5 198
q-29 41 -40.5 46.5t-41.5 -9.5q-31 -16 -50.5 -33t-19.5 -28q0 -5 -3.5 -7t-7.5 -1q-10 1 -35 -27.5t-31 -48.5q-4 -19 -17 -32q-14 -16 -23 -14q-4 1 3 10q8 8 25 52q16 41 66.5 109.5t70.5 75.5q10 4 26 14t31.5 14.5t40.5 4.5q40 0 52 -12t34 -74q19 -51 10 -57
q-9 -5 -1 -55q9 -52 -2 -97t-48 -107q-40 -67 -57 -84q-8 -9 -10.5 -14.5t2 -9.5t15 -5.5t30.5 -1.5q45 0 67 -14q6 -4 2 -7q-2 -2 -76 2q-70 5 -90 -6q-21 -13 -66.5 -23.5t-79.5 -10.5z" />
    <glyph glyph-name="three" unicode="3" horiz-adv-x="455" 
d="M268 139q-25 -13 -24 -18q3 -6 28 6q13 6 18 13q19 16 17 17t-39 -18zM384 206q22 33 18 46q-3 12 -12 -11q-10 -21 -60 -77q-42 -46 -35 -46q2 0 9 4q37 19 80 84zM412 370q0 15 -8 18q-8 4 -8 -2t8 -18q3 -5 4.5 -6.5t2.5 0.5t1 8zM294 391q-25 -7 -25 -9t58 -2
q52 0 52 6q1 2 -1 4q-17 19 -84 1zM377 249q11 20 11.5 66t-18.5 54q-16 8 -55.5 4t-64.5 -17q-12 -6 -25.5 -9.5t-20.5 -8.5t-17 -20q-18 -25 -21 -15q-8 1 106 173q32 50 30 50q-7 -4 -35.5 -17t-51.5 -25t-37 -21q-24 -17 -61.5 -25.5t-54.5 -16.5q-31 -15 -32 -8
q-1 6 15 19q48 40 195 98q111 43 112 35q1 -3 -6 -11q-9 -10 -36 -60.5t-35 -60.5q-17 -20 -13 -25t32 2q37 8 72 3t48 -21q9 -11 10.5 -26t-1.5 -57q-9 -111 -85 -177q-28 -24 -55.5 -31.5t-72.5 -2.5q-39 5 -65.5 29.5t-32.5 62.5q-4 28 2 32t23 -16q13 -14 9 -14
q-2 -1 -8 2q-14 5 -14 -2q2 -10 30 -37q26 -23 46.5 -25.5t57.5 13.5q29 14 68 48.5t51 57.5z" />
    <glyph glyph-name="four" unicode="4" horiz-adv-x="636" 
d="M342 398q0 -38 8 -38t3 34q-7 44 -9 34q-2 -6 -2 -30zM204 446q-3 11 -4 -3q-1 -24 2 -24q1 0 2 3q4 11 0 24zM220 576q6 -1 -1 -96t-15 -138q14 1 53.5 5t50.5 5q13 0 15.5 13t2.5 90q0 115 10 110q4 -2 8 -35q19 -153 28 -164q5 -5 94 6q40 5 66 8t43 3.5t24 -1.5t7 -6
q0 -8 -33 -8q-30 -1 -201 -27v-201l-6 96q-11 97 -16 100q-8 0 -8 -129q-1 -123 -8 -123q-8 12 -8 250q-8 -1 -26.5 -4t-33.5 -5.5t-31.5 -6.5t-27 -8.5t-13.5 -10.5q-12 -13 -12 -2q0 8 -13 10t-63 -1q-76 -4 -76 0q10 7 150 32l6 112q6 112 15 102q4 -4 7 -44l3 -23
q0 6 1 37q2 54 8 54z" />
    <glyph glyph-name="five" unicode="5" horiz-adv-x="388" 
d="M218 96q4 7 2 7t-18 -7l-10 -6q1 -1 8 -1q14 0 18 7zM169 102q17 2 20 5.5t-2 6.5t-13 5q-46 -10 -45 -15q0 -1 2 -2q7 -4 38 0zM46 129q0 -15 26 -24t27 -5q1 3 -16 16q-4 3 -9 7q-25 19 -27 14q-1 -2 -1 -8zM62 164q0 -11 18.5 -23.5t41.5 -16.5q18 -3 18 -2q1 2 -9 8
q-65 45 -68 37q-1 -1 -1 -3zM324 184q-1 4 -19 -17q-11 -14 -6 -15q2 -1 9 6.5t12 16t4 9.5zM312 194q23 31 20 39t-14 -12q-9 -19 -61 -53q-57 -36 -57 -44q1 -6 22 -1q22 4 41.5 19.5t48.5 51.5zM263 360q-10 0 14 -16l2 -2q31 -21 31 -15q1 4 -16 17q-20 16 -31 16z
M224 368q26 0 26 4q0 2 -4 4q-14 9 -34.5 7.5t-34.5 -12.5q-12 -10 -10 -10q1 0 9 2q20 5 48 5zM358 538q3 -6 -84.5 -38.5t-140.5 -46.5l6 -33q7 -42 20 -42q4 0 9 4q17 13 49.5 12t61.5 -15q40 -19 55.5 -51.5t15.5 -94.5q0 -57 -12.5 -75.5t-73.5 -50.5l-57 -30
q-145 13 -164 27q-11 8 -13 35t8 33q8 4 3 42q-4 31 -1 31q5 0 24 -38q13 -28 43.5 -48.5t57.5 -21.5q17 -1 68.5 31.5t72.5 57.5q37 43 -2 80q-54 50 -108 40q-20 -5 -27.5 -9.5t-8.5 -14.5q-3 -22 -14 -10q-6 7 -10.5 0.5t-8.5 -25.5l-4 -19q-11 48 -12 122
q-1 40 -3.5 47.5t-14.5 4.5t-13 -1t6 16q14 25 20.5 31t14.5 0q8 -7 45 10q34 18 83 31q25 7 50.5 11t42 3.5t16.5 -5.5z" />
    <glyph glyph-name="six" unicode="6" horiz-adv-x="409" 
d="M253 240q10 0 12.5 -5.5t0.5 -24.5q-1 -21 -5 -25.5t-21 -4.5t-21.5 5t-5.5 27q-2 24 1 25q2 0 6 -5q9 -13 13 -2q4 10 20 10zM260 3q0 5 -17 7t-24 -3q-12 -5 5 -7q30 -2 36 3zM148 8q21 7 3 7q-15 -1 -43 -7q-4 -1 -10 -2q-10 -2 -11 -3l9 -1h8q22 0 44 6zM212 19
q0 6 -13 7.5t-20 -3.5q-13 -6 7 -7q28 -1 26 3zM297 36q16 12 10 11q-5 -1 -23 -11q-18 -11 -11 -11q11 -1 24 11zM97 182q-3 11 -4 -3q-1 -24 2 -24q1 0 2 3q4 11 0 24zM356 141q9 45 6 61q-2 12 -6 -6q-1 -5 -3 -14q-5 -31 -19 -64t-29 -45q-7 -7 -51 -25q-27 -10 -27 -15
q1 -1 3 -1q17 0 47.5 15t47.5 31q22 22 31 63zM100 209q1 -16 10 2q8 18 4 18q-7 7 -12 -8q-2 -6 -2 -12zM260 320q-27 0 -37.5 -5.5t-30.5 -28.5q-27 -32 -55.5 -88t-24.5 -69q3 -12 39 -51q30 -32 47 -33.5t69 22.5q68 33 78 143q7 72 -9.5 91t-75.5 19zM202 320
q-4 0 -29 -28.5t-25 -33.5q0 -4 6 3q0 1 13 15t24.5 28t10.5 16zM340 350q0 -15 24 -58q6 -10 8 -10q4 13 -18 54q-12 25 -14 14zM329 338q-17 22 -69 7q-10 -3 -10 -4q-1 -2 10 -4q6 -1 19 -3q38 -5 50 -15q11 -10 10 -1q0 7 -10 20zM276 365q0 7 -12 1q-6 -2 -8 -6
q-2 -5 3 -4q1 0 4 1q13 4 13 8zM184 384q-4 0 -24.5 -32.5t-18.5 -34.5q0 -3 11 11q32 47 32 56zM241 448q-3 0 -37 -58q-27 -50 -22 -46q6 2 33 49t26 55zM70 252q4 -1 11.5 10.5l15 23t12.5 10.5q8 0 24 38q14 32 43 78q25 38 91 104t83 70q4 1 10 2t9.5 2t5.5 1
q7 0 -26 -28q-61 -53 -117 -163q-20 -39 -35 -59q-10 -11 -8 -11.5t20 8.5q25 13 29 26q9 19 87 7q34 -6 45.5 -38t7.5 -115q-3 -85 -17 -116q-13 -30 -4 -30q19 0 -29 -35q-14 -10 -32 -21q-34 -22 -48 -27t-34 0q-32 6 -84 4q-38 -2 -46 0t-8 14q0 11 6 14t26 3t26 3
t3 10.5t-17 23.5q-20 25 -29 45q-4 9 -8.5 14t-7.5 3q-2 0 -3.5 2t-2 6t-1 8.5t-0.5 11v11v10.5v8l-18 -32q-20 -37 -20 -20q-1 16 17 59q22 52 19 58q-4 7 4 7z" />
    <glyph glyph-name="seven" unicode="7" horiz-adv-x="486" 
d="M173 -16q4 0 17 38q14 39 9 40q-2 1 -10 -20q-22 -58 -16 -58zM191 122q9 -1 21 42q5 17 3 18q-2 3 -16 -26q-11 -31 -8 -34zM263 192q-5 0 -12.5 -17.5t-5.5 -24.5q2 -8 10 10q12 29 8 32zM297 284q-13 -27 -10 -27q6 2 22 36q7 16 4 16q-1 1 -5.5 -5.5t-10.5 -19.5z
M197 491q2 -6 16 -1q7 3 0 4q-2 1 -5 1q-11 0 -11 -4zM429 232q-11 0 -75 -17q-42 -12 -53 -18.5t-14 -21.5q-5 -23 -15 -23q-7 0 -40 -71.5t-41 -106.5q-5 -19 -10 -19q-5 5 -15 -9q-16 -21 -15 0q0 13 8 41q13 50 9 51q-2 0 -9 -3q-12 -5 -11 11q1 19 23 73q25 60 18 67
t-40 0q-40 -10 -49 2q-3 5 7 12q9 6 47 15t53 9q8 0 70.5 87t68.5 87q13 0 55 93q9 16 -168 -21q-26 -6 -53 -12q-16 -4 -15 2q0 1 1 3q6 9 -18 9q-23 0 -40 -27q-17 -24 -17 -40q0 -13 -16 -13q-14 0 -15 4q0 3 10 34q10 28 6.5 35t-27.5 7q-20 0 -19 5q1 8 39 14
q35 5 53 29q25 34 25 17q0 -4 -2 -13q-2 -12 -0.5 -15.5t9.5 -1.5q137 23 245 30q-26 -24 -40 -35l26 5q25 5 29 -3t-10 -34q-13 -26 -8 -25q18 13 -10 -50q-16 -34 -54 -110q-14 -27 -17 -33q1 -1 22 -0.5t52 2.5q66 3 67 -2q0 -2 -4 -7q-11 -13 -23 -13z" />
    <glyph glyph-name="eight" unicode="8" horiz-adv-x="456" 
d="M290 96q9 13 -29 2q-3 -1 -7 -2l-2 -1q-11 -3 -12 -4l19 -2q27 -2 31 7zM178 97q21 0 72.5 10.5t56.5 15.5q4 4 -17 3q-64 -2 -113 -17q-7 -2 -10 -4q-11 -7 -1 -8h12zM77 126q0 6 -7 22q-4 11 -6 11t-2 -13q0 -18 8 -22q7 -1 7 2zM396 171q11 8 16 16q3 5 1 5
q-5 1 -20 -18l-15 -18zM399 202q6 6 6.5 52t-5.5 52q-3 4 -5 -17q-4 -61 2 -86q1 -4 2 -1zM314 352q-2 0 6.5 -18t20.5 -38.5t17 -26.5q8 -10 8 -48q0 -32 4 -32q1 -1 4 3q11 18 8 125q-5 3 -21 12t-29 15.5t-18 7.5zM212 384q-2 0 -48 -46q-78 -81 -78 -149q0 -22 3.5 -32
t16.5 -20q19 -16 41.5 -16t76.5 14q83 23 130 29q14 168 -142 220zM173 378q13 17 4 14q-15 -7 -65 -54q-93 -87 -68 -140q7 -14 8 -13t1 17q1 24 23.5 63t51.5 67q36 34 45 46zM334 368q-24 20 -59.5 34t-41.5 5q-5 -9 3.5 -14t61.5 -25l64 -23zM168 448q-4 -4 13 -20
q7 -6 7 -3q0 2 -6 11q-12 12 -14 12zM166 474q0 -9 16 -21.5t24 -10.5q12 1 -17 22q-25 18 -23 10zM150 460q9 2 7.5 10.5t-7.5 17.5q-7 7 -8 -6q0 -18 8 -22zM338 540l24 19h-9h-9.5t-8 -0.5t-7.5 -1.5t-5.5 -3t-5 -5t-2.5 -7q-4 -17 -1 -18t24 16zM166 518q0 -19 30 -41.5
t44 -14.5q18 10 39.5 41t30.5 57h-59q-49 -1 -67 -10t-18 -32zM262 432q0 -7 28 -16q41 -14 114 -79q12 -10 15 -25t3 -62q0 -60 -8 -77t-48 -38q-36 -18 -63 -41q-17 -14 -30 -18t-38 -4q-65 0 -167 43q-14 3 -14 27q0 21 -12 37t-12 44.5t12 53.5q4 8 13 19t18 20.5
t24.5 24t24 22t25 22t19.5 17.5q-16 16 -21 22.5t-12.5 23t-8.5 36.5q-3 58 35 85.5t113 20.5l46 -4q29 67 36 68q3 -3 -8 -32q-7 -17 -9 -22t-1.5 -11t3 -7t11.5 -6q10 -5 18 -1.5t25 22.5q26 29 32 21q7 -10 -25.5 -50t-77.5 -78q-16 -13 -30.5 -26.5t-22 -21.5t-7.5 -10z
" />
    <glyph glyph-name="nine" unicode="9" horiz-adv-x="360" 
d="M293 66q1 61 -31 170q5 -104 15 -146q7 -25 3 -53t4 -32q5 -4 7 18q2 15 2 43zM174 232q21 0 35 16q17 18 2 14q-9 -3 -30 -15q-21 -11 -21 -13t14 -2zM156 248q14 0 14 4q0 2 -1 3q-16 10 -31 12q-19 5 -19 1q0 -1 5 -7q11 -13 32 -13zM292 208q0 28 -11 56q-7 18 -9 17
q-6 -3 9 -61q7 -28 9 -30l2 12v6zM92 275q-16 14 -15 6q2 -10 16 -22q8 -6 11 -2q3 3 -12 18zM220 277q10 10 7 24q-2 8 -3 8q-1 1 -2 -3l-6 -24q-3 -9 -2 -9q2 0 6 4zM37 364q0 -38 7 -39q8 0 11 53q3 55 1 60q-2 4 -5 -5q-14 -34 -14 -69zM276 452q0 34 -7 44q-6 8 -7 -7
q-3 -30 7 -53q6 -12 7 -1v17zM245 488q4 0 5.5 1t1.5 4.5t-2.5 10.5t-7.5 19q-14 32 -24 35q-3 1 -3 -3t2 -12q17 -55 28 -55zM186 568q-60 0 -65 -8q-4 -8 3 -8q9 0 9 -8t-9 -8q-10 0 -27 -22q-16 -21 -19.5 -102t10.5 -102q9 -14 38 -26t54 -12q58 0 24 192zM181 584
q0 6 -20 7.5t-41 -1t-22 -8.5q0 -1 -2.5 -8t-5 -14.5l-4.5 -13.5q-7 -25 -4.5 -24.5t18.5 26.5q10 19 18.5 23.5t30.5 4.5q32 0 32 8zM142 600q43 0 67.5 -14.5t50.5 -55.5q16 -25 20.5 -45t7.5 -73q3 -76 26 -213q28 -175 8 -157q-2 2 -5 6q-6 9 -8 -6v-16q0 -42 -16 -40
q-6 0 -12 7q-12 14 -27.5 102.5t-18.5 151.5q-38 -22 -58 -33l-47 20q-96 37 -100 136q-2 36 17 83t22 65q8 42 15 60q6 15 15 18.5t43 3.5z" />
    <glyph glyph-name="colon" unicode=":" horiz-adv-x="252" 
d="M146 44q7 -3 8 3q0 9 -8 9q-5 0 -6.5 -1.5t-1 -3t2.5 -3.5t5 -4zM108 104q-5 0 -6.5 -1t-0.5 -3.5t5 -7.5q12 -12 17 -12q6 0 2 12q-6 12 -17 12zM68 152q-3 -3 7.5 -19t15.5 -13q11 3 -15 27q-8 7 -8 5zM67 126q-3 7 -5.5 13.5t-3.5 12t-0.5 9.5t3.5 5t7.5 -1t12 -8
t16.5 -16q41 -47 70 -24q8 6 18 9t17.5 2t7.5 -6q0 -8 -20 -26q-15 -13 -19.5 -33t6.5 -26t12 -34q0 -16 -7 -15q-4 0 -8 4q-5 8 -12 4q-9 -4 -35 13q-28 17 -41 7q-9 -7 -9 0q0 4 2 18q3 30 -8 48q-15 21 -4 24q9 3 0 20zM124 347q1 -6 15 -1q9 4 -4 5q-11 0 -11 -4z
M62 400q-17 16 -11 22q6 7 25 -18q3 -4 7 -10q13 -21 22.5 -25.5t33.5 -2.5q54 3 83 12l-26 -18q-17 -11 -21 -20t-3 -28q2 -30 17 -47q17 -19 9 -22t-27 15q-43 39 -112 8q-31 -15 -29 -6q2 8 28 28q25 19 29.5 33.5t-9.5 32.5q-7 10 -7 24t-9 22z" />
    <glyph glyph-name="semicolon" unicode=";" horiz-adv-x="207" 
d="M126 170q22 21 16 2q-2 -6 -6 -15q-10 -21 0 -38q13 -20 6 -20q-3 0 -10 3q-10 4 -10 2t9 -16q12 -18 30 -22q29 -4 2 -27q-8 -8 -24 -19q-40 -29 -43 -38q-4 -12 -10 -4q-4 10 54 68q-3 4 -11 16t-11.5 14.5t-13 6.5t-22 2t-32.5 -9q-27 -9 -6 6q9 8 10.5 16t-2.5 28
q-6 22 -4 28.5t17 11.5q41 15 52 6q2 -3 0 -6q-2 -5 1 -3q2 2 8 7zM122 343q0 7 -4 10t-11 1.5t-14 -6.5q-12 -9 -9 -10q2 -1 16 -2q22 0 22 7zM81 424q15 0 19 -9q3 -10 25.5 -10.5t29.5 8.5q9 11 17 11t-7 -17q-11 -12 -12.5 -36.5t7.5 -38.5q3 -6 5.5 -16.5t2.5 -19
t-3 -8.5q-5 0 -21 20q-15 19 -37 15q-24 -6 -28 4q-6 9 -26 -4q-25 -16 -23 -6q1 8 21 30q24 28 20 53q-3 15 -1 19.5t11 4.5z" />
    <glyph glyph-name="less" unicode="&#x3c;" horiz-adv-x="792" 
d="M491 64q-60 32 -64 32q-32 -14 5 -30q18 -8 61 -21q48 -15 50 -12q2 4 -52 31zM326 85q-58 23 -66 25t-20 -4q-12 -7 127 -60q108 -41 184 -61q106 -30 114 -33q32 -12 26 -4q-4 4 -23 17q-38 26 -121 52t-87 13q-3 -10 -35 9q-43 25 -99 46zM390 112q14 -7 15.5 -5.5
t-7.5 8.5q-21 15 -24 10q0 -4 16 -13zM190 154q0 5 -21 18q-17 11 -16 5q8 -12 30 -22q7 -4 7 -1zM116 191q-27 20 -37 23t-23 -5q-8 -5 19 -19q8 -4 20 -9q50 -22 53 -19q1 1 -8 9.5t-24 19.5zM118 233q-1 -3 14 -15.5t33.5 -26t33 -26t13.5 -15.5q-2 -6 48 -27.5t55 -16.5
q2 1 -17 15q-91 69 -93 70q-13 11 -10 13q3 7 -20 20q-38 22 -53 15q-4 -1 -4 -6zM92 268q-36 21 -58 30q1 -1 7.5 -8t10.5 -11t10 -9t11.5 -7t9.5 -1q10 4 9 6zM282 326q16 11 13 11q-8 1 -69 -34q-40 -24 -39 -26q0 -1 3 0q33 9 92 49zM433 360q-29 0 -47 -5.5t-48 -22.5
q-46 -26 -43 -28q6 0 92.5 25t89.5 28t-44 3zM470 429q0 3 -2 3q-8 0 -72 -46l-12 -10q5 0 45.5 25t40.5 28zM472 464q30 18 22 17q-23 -5 -118 -59q-34 -19 -31 -20q2 -3 47.5 19.5t79.5 42.5zM662 562q0 -14 -162 -127l-96 -67h49q101 0 -24 -37q-19 -6 -44 -13
q-116 -32 -146 -48q-40 -20 -40 -33q0 -5 10 -5q12 0 51 -23q167 -98 298 -166q108 -55 122 -69q17 -17 52 -32q31 -14 29 -19q-10 -4 -238 57q-204 53 -459 197q-18 10 -26.5 20.5t-6 18.5t15.5 12l17 6q-35 30 -34 56v22q59 -31 78 -32q16 0 119 67q74 49 184.5 107.5
t154.5 72.5q43 17 56 25q40 23 40 10z" />
    <glyph glyph-name="equal" unicode="=" horiz-adv-x="692" 
d="M140 146q9 2 -2 3q-30 3 -30 -1q0 -1 4 -2q13 -4 28 0zM404 178q14 2 -3 3q-48 3 -48 -1q1 -1 7 -2q21 -4 44 0zM560 202q16 2 -2 3q-51 3 -57 -1l7 -2q26 -4 52 0zM662 209q0 -7 -30 -11q-15 -2 -125 -25q-160 -35 -341 -45q-91 -5 -113.5 -3t-22.5 15q0 10 46 15
q41 5 86 17q48 13 272 39q26 3 81.5 3.5t101 -1t45.5 -4.5zM97 304q-67 0 -67 8q0 7 154 9q229 2 217 10q-6 4 -91 5q-118 2 -168 8q-28 5 6 5q20 0 66 -2q128 -4 268 -4q127 -1 128 -4q0 -2 -22 -6q-13 -3 -23.5 -5.5t-16 -6t-4.5 -5.5q-8 -6 -77.5 -10.5t-145.5 -7.5
t-88 -5q-57 -9 -62 2q-5 9 -74 9z" />
    <glyph glyph-name="greater" unicode="&#x3e;" horiz-adv-x="644" 
d="M264 115q2 -6 16 -1q7 3 0 4q-2 1 -5 1q-11 0 -11 -4zM262 138q44 11 47 14q2 3 -1 7q-11 -2 -64 -17.5t-52 -18.5q-2 -2 0.5 -2.5t7.5 1.5q3 1 12 3.5t24.5 6t25.5 6.5zM502 172q0 8 -41.5 -0.5t-92.5 -24t-78 -27.5q39 1 119 21.5t93 30.5zM573 208q19 11 36 -2
q12 -8 -3 -13q-5 -1 -11 -1q-20 0 -25 -9q2 -6 10 -7q15 0 0 -11q-31 -25 -362 -82q-109 -18 -132 -26q-20 -7 -38 -5.5t-18 9.5q0 10 93 48.5t161 55.5q83 22 138 25q57 3 70 10q5 2 -20 18q-27 18 -80 45q-178 93 -226 136q-27 25 -18 25t38.5 -16t175.5 -100
q142 -81 170 -94t41 -6z" />
    <glyph glyph-name="question" unicode="?" horiz-adv-x="427" 
d="M194 -16q10 0 7 12q-8 21 -22 7q-5 -6 0 -12.5t15 -6.5zM226 8q3 1 4 7t-1 11.5t-7 5.5q-10 -1 -1 -18q3 -7 5 -6zM210 56q4 8 -5 8t-7 -8q0 -5 1.5 -6.5t3 -1t3.5 2.5t4 5zM244 48q-5 0 -6.5 -16.5t1 -36.5t7.5 -29q11 -20 2 -21q-7 -1 -18 13q-11 13 -25.5 13t-30.5 5
q-18 10 -27 1q-11 -10 -15 -8t-4 19q0 21 14 24q14 5 19.5 21t-0.5 33q-4 12 -2 13.5t10 -6.5q8 -10 22 -3t22 2q14 -7 40 -2q23 5 22 -1q-2 -8 -28 -20zM298 332q-8 -20 -4 -19q7 2 13 20q2 6 0 8q-1 1 -4 -1.5t-5 -7.5zM324 434q16 36 10 62q-3 15 -5 15q-3 1 -15 -46
q-17 -64 -8 -61q5 1 18 30zM382 480q8 33 1.5 61.5t-21.5 42.5q-10 10 -10 5t10 -37q15 -45 12 -108zM334 592q0 16 -17 24q-13 7 -12 4q0 -2 9 -19q20 -41 20 -9zM255 642q-46 20 -102 4.5t-75 -54.5q-3 -6 7 -3q11 3 39 17q55 27 95 28q38 2 36 8zM158 666q57 12 145 -30
q65 -31 84 -72t2 -116q-7 -34 -45 -102t-61 -89t-39 -59t-27 -39q-5 -1 0 15q1 4 4.5 16.5t4.5 17.5q5 17 2 16q-5 -2 -17 -36q-10 -24 -15 -23q-7 8 38 123q12 30 12 62q0 36 10 39q3 1 5 -5l2 -6q2 -5 9 12q4 12 14 47q14 46 17 46q10 11 6.5 46.5t-16.5 57.5
q-15 26 -39 32.5t-68 -3.5q-80 -17 -117 -67q-17 -23 -22 -77.5t7 -83.5q20 -48 8 -55q-10 -6 -18 23q-11 35 -13 99q-4 83 7.5 115t55.5 62q45 31 64 34z" />
    <glyph glyph-name="at" unicode="@" horiz-adv-x="666" 
d="M464 90q7 2 -3 3q-19 2 -20 -1q-1 -1 3 -2q9 -4 20 0zM441 78q-3 0 -41.5 4t-50 5t-39.5 5t-45 8t-31 9q-10 4 -10.5 2t4.5 -12q19 -37 54 -45.5t99 8.5zM285 138q0 5 -21 18q-17 11 -16 5q8 -12 30 -22q7 -4 7 -1zM258 234q4 5 -14 14q-11 6 -13 7q-3 0 4 -8l4 -4
q13 -13 19 -9zM101 285q0 -1 3.5 -7.5t10 -19t11.5 -22.5q19 -37 47.5 -58t82.5 -43q-25 31 -88 91.5t-67 58.5zM481 312q-2 0 -30.5 -37.5t-34.5 -34.5q-14 0 -6 10q4 6 15 17q20 20 20 31q0 8 -31 -26q-36 -42 -24 -59q4 -5 13 -5q18 0 48.5 38t29.5 66zM475 354
q-2 7 -3 -3q-2 -19 1 -20q1 -1 2 3q4 9 0 20zM380 272q10 5 18 30.5t6 43.5q-2 19 -3.5 20t-3.5 -4.5t-10 -31.5q-6 -21 -9 -31t-4 -17t0.5 -8.5t5.5 -1.5zM312 328q-16 51 -24 52q-5 0 -12 -17q-9 -23 -10 -67t8 -46q5 -1 13 3t14 9t15 13.5t11 9.5zM341 318q0 10 -20 54
q-17 32 -16 25q3 -24 20 -71q14 -35 16 -8zM253 302q0 24 32 111q0 3 -28 3q-39 0 -54 -51t11 -80q21 -24 30 -20.5t9 37.5zM357 356q6 14 7 34t-7 30q-7 4 -7 -38q0 -31 3 -32q2 0 4 6zM341 398q0 24 -5 25q-7 0 -9 -17q-1 -12 5 -20q6 -11 8 -4q0 4 1 16zM257 432
q21 -13 27 -5q5 7 -6 11q-6 2 -14 1l-16 -2q0 -1 9 -5zM208 431q15 10 12 16q-2 5 -16 -13q-7 -10 -6.5 -10.5t10.5 7.5zM45 418q0 -42 8 -46q6 -4 5 13q0 10 -2 25q-7 54 -9 42q-2 -6 -2 -34zM424 430q-21 24 -40 30q-11 3 -11 -1q0 -5 23 -41t30 -55.5t7 -54.5l11 30
q10 29 6 48t-26 44zM75 462q-2 23 -3 -1q-2 -81 2 -81q0 1 1 10q4 33 0 72zM101 516q-5 -5 -7.5 -22t-3.5 -39t-1 -47.5v-47.5v-40l93 -92q-30 57 -44.5 109t-18.5 129q-4 62 -8 62q-3 1 -10 -12zM469 457q0 22 -9.5 47.5t-23.5 32.5q-10 6 -12.5 4t1.5 -15q3 -10 25 -54
q13 -27 17 -27q2 0 2 12zM157 345q0 22 20.5 62t37.5 51q19 12 101 12q70 -1 93 -11t44 -49q13 -24 16 -23q6 4 -26 72q-30 66 -32 77q-4 19 -45 38q-46 21 -112 16t-109 -33q-18 -12 -19.5 -39t11.5 -109q13 -86 18 -81q2 2 2 17zM289 614q-38 2 -76 -4t-53 -20q-2 -2 1 -2
q4 -1 16 4q10 4 112 22zM375 630q-11 8 -70.5 9t-79.5 -6q-13 -5 8 -9q8 -1 20 -2q56 -4 130 -27q8 -2 9.5 0.5t-0.5 10.5q-4 11 -17 24zM405 605q-1 -8 41 -41.5t42 -40.5q5 -17 5 -122q0 -80 -3 -100t-20 -47q-21 -35 -40 -45q-16 -8 -39 -8t-32 9t-40 -1q-37 -12 -100 -4
q47 -40 95 -69q31 -19 47 -23.5t52 -2.5q58 2 82 13t46 46q24 41 24 51q0 12 9 16q5 4 14 20.5t16.5 32.5t18 38.5t13.5 28.5q-7 -88 -29.5 -136.5t-84.5 -105.5q-35 -33 -31 -37q2 -2 -5 -5q-4 -2 -10 -3q-63 -13 -79 -16q-73 -16 -103.5 -13t-55.5 30q-114 119 -172 222
q-28 48 -32.5 64.5t-1.5 49.5q8 65 21.5 93.5t59.5 73.5q57 55 85 65q21 7 102 9q47 1 63 -2t26 -13q16 -16 16 -27z" />
    <glyph glyph-name="A" unicode="A" horiz-adv-x="564" 
d="M310 472q-6 0 -3 -10q2 -10 -8.5 -43t-24.5 -69.5t-15 -40.5l-6 -23q112 4 135 13q-4 17 -27 64.5t-28 64.5q-15 44 -23 44zM343 616q8 0 1 -18q-11 -31 -2.5 -68.5t42.5 -107.5q46 -96 46 -105t42.5 -16.5t53.5 -0.5q7 1 8 -2q1 -5 -9 -8q-4 -2 -8 -2q-14 0 -11 -8
q3 -5 -13 -8q-6 -1 -13 -1q-20 -1 -19 -4l3 -1q8 -2 11.5 -6t1 -8t-10.5 -6q-8 -1 -7 -8t11 -29t15 -47t17 -47q19 -32 10 -34q-4 -1 -14 12q-16 20 -45.5 71.5t-34.5 65.5q-3 11 -11 14.5t-35 3.5q-18 0 -40 -2t-47.5 -4.5t-38.5 -3.5q-43 -92 -89 -170q-15 -23 -15 -17
t-9 0l-3 -3q-15 -12 -11 4q2 12 15 38q12 23 9 22q-1 0 -3 -2q-11 -14 -16 -9q-4 5 7.5 33.5t21.5 41.5q11 11 15 28q0 1 1 3l1 7q-3 -3 -47 -67l-1 -1l-1 -1l-1 -1v-1l-1 -1l-1 -1v-1l-1 -1l-1 -1v-1l-1 -1l-1 -1v-1l-1 -1l-1 -1v-1l-1 -1l-1 -1v-1l-1 -1l-1 -1
q-8 -12 -15.5 -21.5t-13.5 -16.5t-9.5 -11t-4.5 -3q1 8 17 35.5t39.5 66t26.5 44.5q-77 12 -100 8q-18 -4 -18 4q1 6 21.5 8.5t21.5 6.5q9 9 107 27l57 111q44 86 52.5 118t-7.5 54q-23 31 -4 30q5 0 13 -3q14 -6 17 -4.5t-1 14.5q-1 5 -5 18.5t-5 19.5q-4 17 -2 16
q5 -1 17 -37q9 -24 12 -24q2 0 5 11q5 18 14 18z" />
    <glyph glyph-name="B" unicode="B" horiz-adv-x="447" 
d="M255 88q0 13 -24 0q-3 -2 -8 -5q-11 -6 -11 -8q1 -2 5 0q5 2 14.5 3t15.5 3t8 7zM319 116q0 10 -15 0q-5 -4 -10 -10q-7 -8 -7 -9t14 6q18 9 18 13zM149 204q0 18 -6 32q-7 15 -7 3.5t7 -31.5q4 -12 5 -13zM327 236q0 40 -10 50q-11 10 -50 8.5t-88 -15.5
q-22 -6 -25.5 -10.5t0.5 -22.5q1 -3 9 -81q5 -60 16 -59q2 0 3 1q1 0 11.5 3.5t23 7t24.5 6.5q86 25 86 112zM373 282q3 -12 5 -13q5 -1 3 15q0 13 -5 14q-4 4 -4 -3q0 -4 1 -13zM349 242q-6 49 -11 54t-6 -19q0 -11 1 -28q4 -62 -15 -93q3 4 9.5 11.5t8.5 10.5l7 10.5t5 13
t2 17.5t-1 23zM337 339q2 -5 14 -1q8 2 1 4q-2 1 -5 1q-11 0 -10 -4zM281 355q2 -5 14 -1q8 2 1 4q-2 1 -5 1q-11 0 -10 -4zM331 380q5 13 0.5 16.5t-12.5 -7.5q-10 -11 -1 -16q10 -6 13 7zM343 391q0 -16 1.5 -18.5t9.5 2.5q14 14 17 35q6 27 -5 34q-8 4 -15 -10
q-8 -14 -8 -43zM319 448q6 14 5 16q-2 1 -7 -7q-16 -23 -11 -25q4 0 13 16zM311 493q-1 -12 3 -11q5 0 3 13q0 2 -1 3q-2 6 -4 2q-1 -2 -1 -7zM105 524q15 20 12 19q-22 -6 -30 -24q-8 -14 -3 -15q6 0 21 20zM287 473q0 32 -24 56q-15 14 -26 18t-36 4q-78 0 -93 -49.5
t15 -135.5l12 -38l61 41q62 42 76.5 58.5t14.5 45.5zM290 576q-4 -4 11 -26q7 -9 7 -5q0 3 -5 15q-9 16 -13 16zM212 560q27 0 38 -4.5t25 -21.5q20 -24 19 -13v3q-5 23 -47.5 42.5t-63.5 1.5q-7 -7 7 -8h22zM241 603q2 -5 14 -1q8 2 1 4q-2 1 -5 1q-11 0 -10 -4zM407 460
q0 -13 -6 -13q-9 3 -11 23q-2 26 -8 42q-3 10 -4 -3t1 -45q4 -68 -7 -84q-8 -10 -5.5 -15.5t22.5 -16.5q22 -13 25.5 -21t1.5 -40q-4 -91 -48 -161.5t-95 -69.5q-9 1 -9.5 2.5t11.5 11.5l10 10l-9 -3q-15 -5 -76 -18q-19 -4 -16 -17q1 -9 -5.5 -12.5t-17 -1.5t-18.5 10
q-13 13 -10 16q5 7 0 12.5t-16 5.5q-14 1 -14 3q0 1 10 8q17 14 6 29q-5 7 -19.5 73.5t-17.5 72.5q-3 14 -7.5 45t-10 58t-13.5 49q-24 68 -21 120q1 22 9 17q6 -4 4 17t-10 55q-3 12 2 11q8 -2 12 -14q1 -3 0 -6q1 -21 24 -49q93 73 184 71h36l-28 12q-28 12 -47.5 11
t-44.5 -16q-28 -18 -33 -13q-1 1 2.5 4.5t11 9t16.5 11.5q35 21 62 16q32 -5 69 -26t57 -45q16 -19 33.5 -65.5t17.5 -70.5z" />
    <glyph glyph-name="C" unicode="C" horiz-adv-x="535" 
d="M211 58q0 5 -21 18q-17 11 -16 5q8 -12 30 -22q7 -4 7 -1zM264 87q-56 21 -56 12q0 -3 5 -11q10 -17 39 -25.5t64 -3.5q58 8 62 16q1 3 -28 0q-41 -5 -86 12zM167 118q21 -22 20 -16q-2 12 -27 39q-11 12 -13 8q0 -6 20 -31zM115 162q0 -8 14 -19q8 -6 9 -7l-7 12
q-3 4 -6 8.5t-5.5 7t-2.5 3.5q-2 -3 -2 -5zM51 274q0 -16 27 -66q8 -14 10 -14q8 -2 -23 59q-12 22 -14 21zM161 186q4 4 -22 55q-20 42 -23 42t13 -43q11 -29 19.5 -43.5t12.5 -10.5zM83 272q0 12 -8 24q-8 11 -8 0q0 -12 8 -24q8 -11 8 0zM131 315q0 -19 20 -63
q14 -29 16 -27l-1 3q-1 4 -7 25.5t-9 34.5q-12 45 -16 46q-3 1 -3 -19zM92 365q-1 -12 3 -11q5 0 3 13q0 2 -1 3q-2 6 -4 2q-1 -2 -1 -7zM67 342q9 32 6 58l-3 15q-2 -2 -10 -41q-12 -60 -5 -59q4 0 12 27zM47 372q1 8 7 41t9.5 57t1.5 36q-3 22 -11 -7q-12 -42 -9 -83z
M118 463q20 69 18 71t-12 -12t-20 -34t-13 -32q-7 -23 -1 -42q5 -12 12 5q5 10 16 44zM197 520q3 0 46 28q34 23 33.5 26.5t-34.5 -14.5q-33 -18 -45 -35q-4 -5 0 -5zM75 510q0 -13 44 31q9 10 19 21q24 28 17 30q-4 0 -24 -10q-14 -7 -35 -34t-21 -38zM451 538q0 15 -5 26
t-19 21t-19 13t-25 12q43 -43 58 -70q6 -11 7.5 -11.5t2.5 9.5zM350 600q-27 27 -101 -5q-61 -25 -81.5 -45.5t-31.5 -65.5q-3 -12 -1 -12q3 0 26 32q29 41 73.5 66t87.5 24q36 -2 28 6zM227 599q26 12 24 15q0 1 -4 1q-16 1 -43.5 -13.5t-31.5 -25.5q-1 -7 0 -7.5t8 5.5
q5 5 47 25zM102 574q15 14 24 19t22 9t27 11q34 16 80 34q-128 10 -165 -64l-17 -34zM468 456q-8 0 -13 16q-4 14 -53 56q-39 32 -63.5 38.5t-52.5 -10t-77 -65.5q-94 -95 -71 -105q9 -4 9 -23q0 -23 17 -79t33 -88q31 -63 75 -74.5t169 10.5q28 6 43 21q18 18 21 10
q3 -6 -11 -25q-13 -18 -54.5 -48.5t-79.5 -50.5q-54 -29 -128.5 -3.5t-108.5 83.5q-28 46 -42 63q-20 26 -28.5 57.5t-17.5 110.5q-8 70 -2 111t35 104q20 42 43.5 62.5t61.5 27.5q55 11 106.5 2.5t116.5 -41.5q43 -21 54 -37t13 -56q2 -43 6 -49q6 -5 5.5 -11.5t-6.5 -6.5z
" />
    <glyph glyph-name="D" unicode="D" horiz-adv-x="555" 
d="M212 174q-3 11 -4 -3q-1 -24 2 -24q1 0 2 3q4 11 0 24zM395 180q16 12 10 11q-5 -1 -23 -11q-18 -11 -11 -11q11 -1 24 11zM486 226q2 -1 -6.5 -11t-16 -20t-3.5 -11q11 -3 35.5 35t20.5 59q-2 16 -18 -19zM205 212q0 20 -6 60q-4 23 -6 23q-1 0 -1 -11q0 -20 6 -60
q4 -23 6 -23q1 0 1 11zM143 381q-1 -12 3 -11q5 0 3 13q0 2 -1 3q-2 6 -4 2q-1 -2 -1 -7zM172 446q-3 11 -4 -3q-1 -24 2 -24q1 0 2 3q4 11 0 24zM428 479q-82 40 -202 -1q-16 -5 -23.5 -10.5t-10 -22.5t0 -41t9.5 -75q25 -181 34 -190q3 -3 8 2q11 11 29 11q8 0 23.5 4.5
t35.5 13t37 15.5t37.5 16.5t27.5 12.5l26 59q33 76 25 129.5t-57 76.5zM446 493q3 5 -12 13t-17 5q-2 -2 8 -8l2 -2q15 -12 19 -8zM182 495q0 -14 32 5q12 7 11 9q0 1 -3 1q-40 -2 -40 -15zM181 520q114 24 183 24q47 0 60.5 -3.5t32.5 -22.5q62 -59 67 -194
q2 -48 -0.5 -65.5t-14.5 -38.5q-19 -33 -55 -50q-42 -21 -112.5 -50.5t-88.5 -34.5q-23 -5 -23 -21t-9 -16q-6 0 -7 11q0 12 -33 15q-26 2 -27 3t3 4q2 0 12 5q20 9 20.5 11.5t-35.5 1.5q-10 -1 -16 -1q-52 -2 -52 5q0 9 43 9q45 0 53 9t0 52q-6 32 -26 112t-24 101
q-5 25 -10.5 31.5t-20.5 6.5q-19 0 -21 5t9 19l-1 1q-5 -4 -15 -16q-27 -29 -27 -39t-8 -10q-34 0 71 105l-11 37q-18 57 -9 66q5 4 13 -12q5 -10 11 -26l13 -38q-1 8 -5 45.5t-7 52.5q-6 26 2 26q6 -2 19.5 -60.5t15.5 -60.5q10 -16 11 -2q1 10 -4 28q-16 55 0 55
q3 1 6 -12q2 -8 6 -30q8 -38 11 -38z" />
    <glyph glyph-name="E" unicode="E" horiz-adv-x="600" 
d="M149 162q0 21 -5 24q-2 1 -3.5 -12t-1.5 -35.5t1 -51.5q2 -94 11 -101q6 -5 21 5q7 1 6 16.5t-6 41t-11 50t-10 43t-2 20.5zM126 333q-1 -12 3 -11q5 0 3 13q0 2 -1 3q-2 6 -4 2q-1 -2 -1 -7zM108 404q2 34 -13 80q-3 -41 13 -80zM102 509q-1 -12 3 -11q5 0 3 13
q0 2 -1 3q-2 6 -4 2q-1 -2 -1 -7zM281 571q42 15 39 18q0 1 -3 1q-19 0 -102.5 -26.5t-91.5 -34.5q-14 -14 2 -13q14 2 49 15q73 29 107 40zM569 624q-4 -5 -23.5 -8.5t-24.5 -12.5q-9 -14 -189 -57q-187 -46 -198 -48q-14 -3 -16 -10t2 -39q4 -35 19.5 -105t19.5 -106
l18 18q14 13 71.5 38.5t73.5 25.5q12 0 68 26t73 26h10l11 -1q-1 0 -15 -5q-13 -4 -22 -7q-51 -16 -48 -28t-51 -30q-34 -11 -86.5 -42.5t-69.5 -39.5q-20 -8 -23.5 -13.5t0.5 -23.5q8 -43 23.5 -108.5t16.5 -65.5q29 14 159.5 61.5t159.5 60.5q20 9 20 1t-17 -22
q-28 -23 -231 -101l-84 -33l4 -37q2 -20 -1 -28.5t-8.5 -1t-9.5 27.5q-9 41 -48 14q-34 -23 -50 -15q-14 8 12 29l20 17q-17 207 -20 216q-3 2 -31.5 -10t-32.5 -9q-7 2 14 15l14 7q22 11 29 18t5 17q-21 143 -48 240q-29 105 -33 127q-5 31 1 30q9 -2 22 -54l12 -54v44
q0 23 4 32t9 0.5t7 -31.5q3 -30 14 -31q8 0 9 20v1l3 14q0 -1 2 -11q3 -20 17 -14q49 21 122 38t131 22q93 8 111 15q34 13 66 7q8 -3 7 -6z" />
    <glyph glyph-name="F" unicode="F" horiz-adv-x="420" 
d="M126 368q-7 0 -7.5 -29t6.5 -63q4 -17 5 -17q2 0 3 47q2 62 -7 62zM124 442q-7 44 -9 47q-2 2 -3 -9q-1 -10 -1 -34v-26t1 -15.5t3.5 -7t5.5 -0.5q10 4 3 45zM81 506q-5 29 -13 30q-6 0 -6 -18q0 -23 22 -114q0 80 -3 102zM54 549q2 -9 12 4q8 10 3 11q-4 4 -9.5 -1.5
t-5.5 -13.5zM60 584q0 10 -6 32q-4 12 -5 13l-1 -9q0 -18 6 -32q6 -15 6 -4zM168 635q2 -6 16 -1q7 3 0 4q-2 1 -5 1q-11 0 -11 -4zM30 658q0 23 7 20q9 -2 22 -40q11 -36 15 -44q5 -5 16.5 4t11.5 17t1 8.5t6 -5.5q6 -10 18 3q29 35 105 35q38 0 74 12q50 19 63 10
q3 -2 1 -6t2 -4q2 0 6 1q12 3 12 -2q0 -6 -72 -24.5t-93 -18.5q-7 0 -17 -4.5t-23.5 -13t-23.5 -15.5t-23.5 -17.5t-17.5 -12.5q21 -85 22 -127q0 -26 2 -26q7 0 58 24q70 29 75 19q1 -2 1 -5q0 -16 -98 -46q-23 -8 -27 -13t0 -26q5 -41 10 -139q4 -73 2.5 -93t-10.5 -29
q-8 -8 -13 -10t-7.5 2t-3 10.5t-1.5 18.5v6.5t-0.5 6.5t-1 7.5t-0.5 7.5q-5 43 -7 44q-2 0 -5 -9q-6 -15 -10 4q-2 13 -6 48q-7 87 -16.5 105t-41.5 7q-7 -2 -7 0q0 3 15 15q24 21 22 29q-6 21 -24 136.5t-18 129.5z" />
    <glyph glyph-name="G" unicode="G" horiz-adv-x="570" 
d="M256 113q30 1 28 3q-26 9 -69 6q-7 -2 -7 -3q9 -6 48 -6zM384 136q-10 -7 -3 -8q12 1 15 8q4 8 1.5 8t-13.5 -8zM448 161q0 15 -16 -5q-9 -9 -4 -9q9 -1 19 9q3 3 1 5zM192 130q0 5 -34 31q-26 20 -25 16q0 -1 2 -3q6 -8 20 -19.5t25.5 -19.5t11.5 -5zM240 147
q0 2 -44 35q-47 36 -43 24q1 -5 21 -24q9 -8 25 -18t28.5 -15.5t12.5 -1.5zM453 290q-2 7 -3 -3q-2 -19 1 -20q1 -1 2 3q4 9 0 20zM68 242q2 5 -8 70q-9 55 -11 56q-2 0 -5 -18q-7 -31 -1 -65.5t25 -42.5zM120 397q-1 -12 3 -11q5 0 3 13q0 2 -1 3q-2 6 -4 2q-1 -2 -1 -7z
M120 222q-38 61 -49 166l-5 37q0 -6 2 -53q3 -74 12.5 -110.5t31.5 -52.5q21 -16 22 -12q0 3 -14 25zM128 472q0 22 -32 -12q-13 -13 -15 -25t2 -52q9 -79 15 -76q3 1 0 38q-4 53 13 85q17 34 17 42zM155 484q4 11 -3 11.5t-8 -7.5v-4q0 -26 11 0zM93 474q15 14 28 20.5
t27 21.5q17 19 9 19q-20 0 -38.5 -15t-28 -30t-21.5 -38zM273 552q-26 0 -38 -6t-37 -33q-38 -38 -38 -50q2 -9 12 10q7 13 21 22t38 18t31 12q26 11 42 11q7 0 10.5 2.5t1.5 5.5q-3 8 -43 8zM388 560q-6 -1 7 -12q18 -12 24 -12q6 1 -7 12q-18 12 -24 12zM64 489
q0 -13 2 -12q3 1 18 25q13 20 22.5 27.5t27.5 11.5q14 2 54 11q16 4 15 6q-3 5 -71 -9q-37 -8 -52.5 -21.5t-15.5 -38.5zM128 316q0 -21 25 -55.5t60 -60.5q6 -5 22 -18t22 -17t19.5 -11t27.5 -8.5t32 0.5q30 4 62 17.5t36 23.5q3 10 -9 59q-8 35 -13 41.5t-19 2.5
q-20 -4 -14 5t-19 9q-14 0 -18 2.5t-1 10.5t20 9.5t75 -0.5q88 -3 101 -12q8 -6 -4 -8.5t-37 -2t-27 0.5q9 -156 24 -214q16 -58 10 -62q-4 -5 -32 59l-20 47q-2 3 -32 -11q-33 -14 -120 -17q-63 -3 -80.5 -1t-39.5 17q-26 17 -49.5 39.5t-54.5 56t-45 47.5q15 247 33 261
q8 16 48.5 29t83.5 13q37 0 81 12q70 20 80 4q4 -7 34 -15q15 -4 36 -17t35 -26t10 -17q-11 -6 -67 20q50 -45 66 -72q14 -23 5 -21q-11 2 -51 44l-47 50q-91 -1 -189 -51q-60 -127 -60 -163z" />
    <glyph glyph-name="H" unicode="H" horiz-adv-x="464" 
d="M332 296q-7 0 -7 -38q0 -30 3 -32q3 -3 8 36q4 34 -4 34zM370 338q6 10 2 29q-3 13 -8 -5q0 -2 -1 -5q-7 -26 0 -29q2 -1 4 4q2 3 3 6zM339 378q-2 12 -3 -1q-2 -39 2 -40q0 -1 1 5q4 18 0 36zM374 405q-1 -12 3 -11q5 0 3 13q0 2 -1 3q-2 6 -4 2q-1 -2 -1 -7zM168 320
q126 0 140 7q11 7 27 130q16 118 21 129q7 -9 2 -190q31 132 38 172q6 34 8 34q2 1 5 -5q5 -9 -3 -106.5t-19 -162.5h13q33 1 34 -5q1 -2 -5 -7q-12 -12 -25 -12q-16 0 -23.5 -22.5t-15.5 -94.5q-17 -137 -39 -121q-2 2 -5 7q-5 15 -5 101t2 122q-38 2 -146 -10l4 -37
q9 -65 11.5 -116.5t-4.5 -52.5q-9 0 -14 32q-5 30 -11 28q-3 -2 -6 14q-2 16 -6 67q-4 56 -7 56q-3 3 -50 -8q-44 -11 -56 -3q-13 9 25 25q46 20 66 21q11 0 14 6t3 28t-13 107t-24 137q-5 25 2 25q9 1 17 -29l8 -30v34q1 37 6 35q10 -4 15 -91q3 -49 9 -124t7 -90z" />
    <glyph glyph-name="I" unicode="I" horiz-adv-x="804" 
d="M752 589q24 3 21 -2q-5 -8 -45 -14t-99 -22t-119 -25l-108 -18q4 -260 7 -306q4 -4 86.5 16.5t116.5 33.5q63 22 66 13q-2 -6 -34 -18.5t-34 -17.5q-5 -7 -51 -19q-95 -25 -175 -52l-4 -40q-6 -50 -15 -50q-7 1 -7 39q0 35 -3 40t-19 2q-12 -2 -46 -8.5t-52.5 -10
t-47 -11t-51.5 -15.5q-109 -38 -109 -17q0 10 75 34t146 38q58 11 105 27l4 101q11 209 0 209l-40 -13q-40 -13 -81 -25t-41 -9q0 4 -18 -2.5t-35.5 -13.5t-17.5 -4q-6 5 17 16q28 13 106 37l40 12q-43 -2 -129 -17t-117 -25q-14 -5 -14 2q-2 9 47.5 21t109.5 22t110.5 18
t50.5 10q13 2 16 10t2 39q-2 56 2 56q2 1 6 -10q9 -17 9 24q4 -18 10 -59.5t7 -50.5q248 43 352 55z" />
    <glyph glyph-name="J" unicode="J" horiz-adv-x="586" 
d="M351 80q6 39 -1 37q-4 -1 -13 -19q-11 -21 -41 -49t-55 -39q-16 -7 -16 -9q0 -1 30 0l1 1h1h1h1h1h1h1h1q43 3 62 20t26 58zM252 32q19 4 56 63.5t38 93.5q-4 -5 -34.5 -63.5t-42.5 -67.5q-24 -26 -17 -26zM67 168q-4 27 -13 52q0 -43 6 -52q7 -10 7 -6v6zM270 506
q7 2 -3 3q-19 2 -20 -1q-1 -1 3 -2q9 -4 20 0zM300 537q0 6 -5 6q-6 0 -39 -8q-66 -16 -66 -20q5 -5 57.5 5.5t52.5 16.5zM554 615q1 -2 1.5 -3.5t0 -3l-1 -3t-2.5 -2.5t-4 -2.5t-5 -2.5t-5 -2.5t-5.5 -3t-6.5 -2.5q-19 -8 -21 -11q3 -2 9 -2q17 -1 17 -5q-1 -9 -36 -12h-11
q-56 0 -126 -29q-34 -16 -32 -24q5 -5 69.5 2.5t84.5 14.5q10 4 10.5 3t-8.5 -9q-2 -6 -78.5 -19.5t-79.5 -16.5q13 -67 26 -174q2 -15 4 2q1 6 1 16q0 42 8 42q7 0 11.5 -22t4 -57.5t-5.5 -72.5q-4 -29 -6 -80.5t-9.5 -79.5t-30.5 -49q-15 -12 -66 -16q-41 -3 -42 -6
q0 -1 15 -5q23 -5 21 -12q0 -1 -1 -2q-7 -7 -40 9q-45 22 -46 13q0 -5 8 -17q16 -25 9 -24q-6 1 -20 20q-19 24 -43 40q-53 32 -82 144q-13 52 -3 58q7 5 5 35.5t-11 53.5q-5 12 3 13q8 -3 10 -12q0 -24 31 -113t47 -108q19 -24 41 -39t39 -15q16 0 50.5 36.5t51.5 71.5
q29 60 32.5 97t-10.5 121q-18 102 -13 120q3 11 0 14.5t-19 3.5q-22 0 -58 -12q-46 -16 -57 -11q-3 2 6 6q4 3 11 5l28 10q-76 -2 -95 12q-12 9 3 15q10 5 41 13q53 16 123 26q109 17 157.5 28.5t100.5 34.5z" />
    <glyph glyph-name="K" unicode="K" horiz-adv-x="749" 
d="M492 160q8 0 -4 8q-34 23 -32 18q0 -2 8 -9q21 -17 28 -17zM356 280q-3 -2 19.5 -19.5t53.5 -37t47 -25.5q-12 20 -51.5 46t-68.5 36zM205 344q-12 0 -12 -1t12 -7q2 -1 3 -2q25 -14 24 -6q-1 2 -4 7q-4 9 -23 9zM248 437q0 5 -18 -4l-14 -7q-9 -5 -15 -8
q-45 -23 -42 -32q0 -2 5 -2t44.5 25t39.5 28zM212 437q49 24 46.5 26t-54.5 -20q-54 -23 -54 -27q0 -1 2 -3q4 -4 60 24zM88 493q-1 -12 3 -11q5 0 3 13q0 2 -1 3q-2 6 -4 2q-1 -2 -1 -7zM584 612q0 5 -6 2q-5 -2 -34 -18q-32 -16 -30 -20q7 0 38.5 16t31.5 20zM384 531
q5 0 44.5 19.5t80 41t43.5 22.5q14 6 14 8q-1 5 -51 -14q-26 -9 -78.5 -40t-52.5 -37zM640 668q9 11 2 11q-5 0 -22 -7q-2 -1 -19 -8t-33 -13.5t-30.5 -14t-15.5 -10.5q4 -4 57 15t61 27zM64 342q0 4 25 21t23 25q0 8 -8 9t-7 13q1 18 -42 190q-23 97 -23 98q-6 35 1 38
q3 1 6 -5q2 -6 5 -17q15 -64 47 -146q5 -13 5 -10q0 10 4 10q9 1 15 -22q1 -2 1 -4q8 -37 19.5 -69.5t17.5 -32.5q10 0 89 30q82 29 114 63q17 18 38.5 32.5t50.5 31t43 25.5q30 20 96.5 47.5t75.5 23.5t17 3.5t11 7.5q8 0 4 -7q-3 -3 3 -4q3 0 9 1q22 6 12.5 -3t-48.5 -31
q-56 -32 -68 -49q-2 -3 1 -4q2 0 11 4q72 32 80 22q3 -4 -14 -14q-23 -14 -66 -31q-54 -21 -164 -78.5t-170 -95.5q-62 -38 -72 -38q-21 -1 31 -32q53 -31 98 -45q59 -18 162 -96q37 -29 71 -47q40 -21 47 -37q3 -7 -5 -7q-4 0 -10 2q-8 2 -10.5 0.5t-0.5 -7.5
q4 -11 -10 -11q-16 1 -36 15q-21 14 -115.5 65t-124.5 74q-120 94 -132 84q-10 -10 33 -172q21 -86 18 -108q-2 -17 -4 -17q-1 -1 -12 31q-9 29 -12 29q-2 0 -2 -12q-1 -19 -5 -19q-4 4 -27 97t-28 128q-5 38 -24 45q-11 4 -11.5 6t9.5 6q14 6 14 14t-24 -9q-30 -19 -32 -11
z" />
    <glyph glyph-name="L" unicode="L" horiz-adv-x="664" 
d="M98 66q18 0 32 6q15 7 3.5 7t-31.5 -7q-12 -4 -13 -5zM238 228q23 60 10 96q1 -15 -0.5 -30.5t-5 -36t-4.5 -29.5zM256 339q9 1 12 58q1 16 -1 16q-3 1 -9 -33q-4 -39 -2 -41zM308 594q-2 7 -3 -3q-2 -19 1 -20q1 -1 2 3q4 9 0 20zM30 54q-2 10 71.5 29t120.5 23
q-4 46 4.5 125.5t25 185.5t18.5 119q11 77 30 128q2 7 6 -6q3 -7 4 -18q4 -26 6 -27l2 19q1 19 4 18q1 0 2 -5q15 -53 -74 -463q-13 -62 -9 -68q10 -6 75 9q31 7 80.5 11.5t121.5 8t84 4.5q13 1 26 3l2 -2q-9 -3 -16 -6q-26 -11 -32.5 -13.5t-26.5 -8t-33 -7t-62.5 -10
t-103.5 -18.5q-110 -18 -115 -23q-2 -2 -6.5 -18.5t-11.5 -17.5q-3 -1 -4.5 0.5t-1.5 5.5t2 11q5 20 -8.5 25t-50.5 -3q-29 -7 -60.5 -11t-49 -4t-20.5 4z" />
    <glyph glyph-name="M" unicode="M" horiz-adv-x="616" 
d="M227 469q-1 -12 3 -11q5 0 3 13q0 2 -1 3q-2 6 -4 2q-1 -2 -1 -7zM243 491q3 -2 5 3q5 15 0 31q-3 8 -6 -6q-1 -3 -2 -7q-4 -18 3 -21zM275 600q4 0 5 -3.5t-0.5 -14.5t-6.5 -29t-14 -51q-10 -34 -10.5 -53.5t5.5 -54.5q8 -48 36 -145t33 -97q6 0 11 22q3 19 52 126
q46 104 55.5 135t1.5 55q-10 27 -8 49q1 15 2 15t9 -26l11 -36v40q2 28 4 29q2 0 5 -13q4 -17 5.5 -18t8.5 10q14 23 14 8q0 -12 -9 -37q-11 -27 -5.5 -58t55.5 -209q12 -43 31.5 -128t19.5 -94q0 -20 -11 8q-8 20 -16 52q-7 31 -42.5 151t-42.5 149q-10 42 -15 42
q-2 0 -5.5 -6t-7.5 -17t-7 -23q-3 -11 -30 -74.5t-49 -123t-18 -74.5q1 -6 4 -21t5 -21q3 -14 2 -15q-1 -2 -11 11q-6 7 -10 9t-6 -1q-28 -69 -36 -63q-7 4 8 63q13 57 7 76q-47 149 -63 222q-11 42 -15 42q-7 0 -26 -50.5t-31 -98.5q-11 -43 -37 -123t-32 -87q-3 -3 -7 1
q-3 0 10.5 41l27 82t11.5 41q-1 1 -13.5 -24.5t-33 -69.5t-41.5 -91q-6 -13 -11.5 -23t-9 -15.5t-4.5 -4.5q-8 7 78 190q68 145 90 241q8 35 8 50t-8 37q-12 37 -11 51q1 10 9 -8q3 -7 6 -18q10 -32 15 -33q2 0 4 7q3 17 -15 54q-16 34 -8 33q7 -3 34 -57q1 2 12 22
t18.5 31.5t12.5 13.5z" />
    <glyph glyph-name="N" unicode="N" horiz-adv-x="407" 
d="M363 146q-2 12 -3 -1q-2 -39 2 -40q0 -1 1 5q4 18 0 36zM238 243q0 -6 29 -39q5 -5 12 -13q9 -11 10 -11l-4 10q-3 5 -5 8q-18 34 -36 46q-6 4 -6 -1zM51 386l-1 32v-315l1 35q4 128 0 248zM70 546q-1 -14 26 -60q7 -13 9 -14q4 0 -6 28q-22 51 -27 50q-2 0 -2 -4z
M41 592q5 0 9.5 -4.5t4.5 -9.5q0 -9 1 -8.5t5 10.5q4 11 10 5q8 -11 66 -143q35 -79 98 -165q82 -110 110 -153q13 51 13 244q0 180 8 192q3 21 6 -79q8 -268 4 -422q0 -15 -1 -11q-3 -3 -10 8q-5 7 -5 -5q-1 -11 1 -38q4 -48 -2 -48q-7 -2 -16 64q-6 50 -19.5 78t-53.5 74
q-22 25 -32 40t-20 36t-24 43q-25 40 -60 100q-41 71 -48 76q-8 6 -11 -11q-5 -22 -7 -227q-4 -262 -9 -270q-9 -14 -14 14q-9 50 -13 316q-2 107 -2 159.5t1 86t3 41t7 7.5z" />
    <glyph glyph-name="O" unicode="O" horiz-adv-x="385" 
d="M96 88q-5 -5 12 -26q7 -10 7 -5q-1 4 -6 15q-9 16 -13 16zM62 173q-1 -12 3 -11q5 0 3 13q0 2 -1 3q-2 6 -4 2q-1 -2 -1 -7zM272 115q14 9 38.5 52t21.5 61q-2 17 -20 -14q-7 -13 -19 -37q-35 -69 -21 -62zM331 302q-3 11 -4 -3q-1 -24 2 -24q1 0 2 3q4 11 0 24zM59 302
q-2 19 -3 -2q-2 -68 2 -67l1 9q4 29 0 60zM310 292q16 67 7 79q-5 5 -7 -12q-1 -10 0 -38q1 -23 0 -29zM87 452q8 2 17 63q3 19 1 19t-12 -38q-11 -39 -6 -44zM239 505q-55 73 -85 40q-33 -36 -62 -140q-18 -67 -15.5 -155.5t23.5 -131.5q31 -65 75 -56q23 5 43 27.5
t46 75.5q23 44 28.5 66t7.5 79q3 71 -7.5 105.5t-53.5 89.5zM141 560q-5 0 -9 -7t-7 -16t-5 -11q-5 -8 -3 -8q6 2 20 24q9 16 4 18zM152 568q10 -1 12 2q4 4 -6 9q-9 3 -13 -3q-4 -8 7 -8zM165 600q-11 0 0 -8q12 -8 24 -8q11 0 0 8q-12 8 -24 8zM170 24q-62 0 -111 96
q-22 43 -26 60.5t-2 67.5q5 87 35 207t50 127q11 3 24 16q29 29 88 -25q34 -31 70 -90.5t41 -89.5q2 -16 9 -43t6 -37t-5 -60q-19 -116 -86 -161q-30 -20 -49 -44q-17 -24 -44 -24z" />
    <glyph glyph-name="P" unicode="P" horiz-adv-x="381" 
d="M269 352q-3 0 -15 -12q-8 -9 -46 -36q-36 -24 -23 -24q6 -4 46.5 32t37.5 40zM241 296q21 0 67 42q17 17 21.5 28.5t3.5 44.5q-1 71 -10 67q-5 -3 -12 -39q-11 -56 -17.5 -71t-29.5 -41q-7 -8 -13 -15.5t-8.5 -11.5t-1.5 -4zM308 482q5 20 -31 50l15 -34q9 -22 12 -24
q2 -1 3 4q1 2 1 4zM126 392q0 -112 4 -112q44 11 94 53.5t62 77.5q7 24 0.5 58.5t-22.5 52.5q-13 15 -49 12.5t-71 -21.5q-13 -7 -15.5 -24.5t-2.5 -96.5zM226 558q-18 0 -32 -6q-15 -7 -3.5 -7t31.5 7q12 4 13 5zM110 161v21q0 39 -5 44.5t-35 -2.5q-12 -3 -19 -5
q-20 -3 -19 3q5 8 42 17q36 9 34.5 13t-38.5 -1q-37 -4 -39 2q-2 8 29 13q5 1 11 1l41 6l-4 96q-4 102 -18 107q-9 4 -33 -24q-26 -30 -27 -20q0 17 36.5 52t75.5 56q58 30 95 26t75 -44q32 -35 37 -88.5t-20 -90.5q-12 -18 -30.5 -30t-62.5 -31q-74 -32 -90 -36
q-11 -2 -14 -14.5t-4 -65.5q-2 -74 -10 -76t-8 71z" />
    <glyph glyph-name="Q" unicode="Q" horiz-adv-x="675" 
d="M255 30q-3 8 -52 9.5t-57 -5.5q-9 -8 23 -23q23 -11 40 -11q21 1 35.5 10t10.5 20zM341 40q10 8 3 8q-10 -1 -19 -8q-10 -8 -3 -8q11 1 19 8zM297 40q14 1 6 10q-8 10 -15 5q-2 -2 -3 -7q0 -8 12 -8zM241 56q3 4 -5 6q-24 6 -49 -1q-6 -3 -6 -5q1 -8 29.5 -7.5t30.5 7.5z
M169 66q5 2 -7 8q-11 6 -12 3q-1 -1 4 -6q10 -10 15 -5zM117 82q0 -22 16 -35q7 -6 11 0q6 10 -11 30q-14 18 -15 13q-1 -2 -1 -8zM137 109q12 -4 11 -1q0 2 -11 12q-12 9 -12 2q2 -9 12 -13zM61 123q0 -5 20 -36t24 -31q1 0 -2 12.5t-7 25t-5 13.5l-7 5q-7 6 -14.5 10.5
t-8.5 0.5zM87 40q9 0 9 4q-1 5 -18 26q-23 28 -27 54q-1 18 -3 18l-5 -14q-11 -38 1 -63t43 -25zM531 176l-90 -58q-92 -62 -72 -60q10 1 49 18q42 19 68 42t45 58zM399 151q13 11 20 19q4 6 1 6q-5 0 -24 -22l-19 -22zM153 146q4 4 -7 39q-8 26 -10 27q-2 0 -4 -7
q0 -2 -1 -4q-5 -18 11 -46q7 -13 11 -9zM90 230q-2 9 -3 -2q-3 -30 1 -30q1 0 2 4q4 13 0 28zM610 248q-8 0 -42.5 -46t-34.5 -56q2 -6 20.5 13.5t37 47.5t19.5 41zM50 238q-3 11 -4 -3q-1 -24 2 -24q1 0 2 3q4 11 0 24zM573 249q0 21 -44 -26q-35 -35 -82 -68
q-50 -36 -49 -41q1 -3 31 15q31 19 87.5 66t56.5 54zM517 245q0 25 -30 -7q-28 -30 -31 -50q-1 -4 2 -4q8 0 33.5 26t25.5 35zM213 112q8 0 7 11q-2 12 -19 78q-18 71 -24 77q-1 1 -6 -3.5t-10 -13.5q-8 -14 -9 -25.5t5 -40.5q7 -32 24 -57.5t32 -25.5zM509 272q5 0 7 5.5
t1 11.5t-4 7q-2 1 -5 -6q-9 -17 1 -18zM617 312q-5 0 -17.5 -20.5t-9.5 -23.5q2 -5 13 12q19 31 14 32zM127 298q-12 -22 -10 -94q24 53 22 84q-2 20 -3 21t-5 -5q-2 -2 -4 -6zM539 252q43 39 40 56q-2 14 -15 -1q-17 -21 -25 -55zM84 269q10 8 6 32q-1 10 -3 13l-2 -8
q0 -12 -5 -32q-3 -9 -2 -9q2 0 6 4zM605 352q-8 0 -8 -22q-1 -16 4 -14q8 1 11 20q4 15 -7 16zM483 368q-4 0 -18 -38q-34 -95 -164 -201q-14 -11 -14.5 -12.5t6.5 -0.5q2 1 4 1q21 5 88.5 59t79.5 74q8 13 14.5 56t3.5 62zM284 133q53 34 113 109.5t70 135.5q-2 6 -10 -9
q-2 -4 -4 -9q-24 -61 -138 -182q-50 -52 -41 -51q2 1 10 6zM501 412q-2 -56 12 -68q7 -6 9.5 -4.5t2.5 13.5q0 25 -24 59zM548 432q-7 -3 -5 -54t10 -68q18 20 24.5 46.5t-9.5 55.5q-16 20 -20 20zM241 432q-19 -6 -57.5 -54t-33.5 -78q2 -15 5 -15q5 0 42 67q20 34 32.5 57
t11.5 23zM613 398q0 16 -16 30q-15 15 -16 8q0 -5 8 -27q9 -25 18 -25q6 0 6 14zM161 409q17 34 7 34q-5 0 -13 -9q-17 -20 -21 -47q-1 -9 3 -9q1 0 3 1q7 4 21 30zM129 442q13 13 10 22t-14 -13q-8 -17 -6 -17q1 -1 10 8zM511 470q-47 38 -25 -7q5 -10 13 -25l30 -49l2 31
q2 20 -2 29.5t-18 20.5zM420 438q-28 28 -64 49q-22 13 -28 13.5t-17 -11.5q-17 -17 -37 -43.5t-28.5 -39.5t-35.5 -56t-29 -47q2 -6 9.5 -26t13.5 -35t10 -18q2 -2 18.5 -41t20.5 -41q4 -4 33.5 25t65.5 71.5t57 73.5q38 58 40 77.5t-29 48.5zM285 480q16 22 13 23
q-2 0 -33 -32q-27 -27 -19 -26q1 1 4 2q18 9 35 33zM275 504q-10 0 -34.5 -20.5t-31.5 -35.5q-2 -5 -5.5 -11.5t-4.5 -9.5l-1 -3q0 -5 58 57q22 23 19 23zM461 434q0 10 -17 38t-27 34q-7 5 -80 5q36 -18 86 -57q36 -29 38 -20zM606 528q-3 -5 23 -27q6 -6 7 -5t-11 16
q-14 16 -19 16zM378 520q22 0 23 3q0 2 -4 5q-12 8 -25.5 8t-18.5 -8q-3 -5 10 -7q6 -1 15 -1zM521 488q9 0 -18 25q-13 12 -22 17q-31 16 -58 16q-6 -1 -6 -3q4 -6 50 -30.5t54 -24.5zM439 555q2 -5 14 -1q8 2 1 4q-2 1 -5 1q-11 0 -10 -4zM521 544q9 0 60 -33
q41 -26 41 -23q0 2 -13 15q-25 25 -85 52q-27 12 -26 6q0 -2 2 -4q11 -13 21 -13zM423 562q7 2 -3 3q-19 2 -20 -1q-1 -1 3 -2q9 -4 20 0zM281 560q3 8 -4 8q-10 0 -12 -8q-3 -8 4 -8q10 0 12 8zM237 568q-5 0 -24 -15.5t-35 -32t-13 -18.5q-1 -8 47 36q33 30 25 30z
M169 550q5 17 -3 17q-10 0 -39 -22t-52 -74.5t-27 -106.5q-2 -38 2 -36q2 4 26 46t29 60t32 59.5t32 56.5zM210 576q-6 0 -14 -5.5t-13 -12t-2 -9.5q-2 -6 18 8q25 18 11 19zM402 624q-61 18 -106 21q-34 4 -45.5 1.5t-25.5 -16.5q-26 -26 -19 -33.5t53 -3.5q138 16 225 -13
q59 -20 63 -16q2 2 -6.5 7t-24 11.5t-34 14t-40 15t-40.5 12.5zM645 325q1 -8 -7.5 -16.5t-8.5 -13.5q0 -7 8 -3q7 4 7 2q0 -3 -15 -34q-16 -32 -16 -42q0 -13 -53 -64q-38 -37 -81.5 -62.5t-140.5 -66.5q-18 -7 -26.5 -14t-6.5 -12t11 -5h17t8 -7q0 -11 -12 -11
q-11 0 -11 -5t10 -28q6 -16 11 -37t6 -34.5t-3 -15.5q-16 2 -49 78q-19 42 -20 43q-29 3 -64 6q-63 7 -75 24q-10 14 -38 18.5t-40 13.5l-25 15v143q-2 121 5.5 178t31.5 109q31 71 94 92q16 5 39.5 38.5t35.5 39.5q19 10 37.5 8.5t94.5 -18.5q159 -36 240 -104
q20 -16 26.5 -27t7.5 -29q1 -22 -4 -23t-38 24q-21 15 -76 43q19 -50 52 -68q29 -16 41 -35.5t4 -36.5q-9 -19 0 -29q7 -8 14 14l7 16q0 -2 -2 -13q-5 -27 -8 -35q-5 -14 2 -10q10 5 10 -6z" />
    <glyph glyph-name="R" unicode="R" horiz-adv-x="556" 
d="M495 -122q-28 52 -32 50.5t20 -54.5q19 -38 25 -36q4 9 -13 40zM142 178q1 -61 25 -102q-2 16 -7.5 53t-7.5 55q-4 39 -7 37.5t-3 -43.5zM277 256q-16 1 -1 -21t44.5 -53.5t30.5 -33.5q-65 102 -74 108zM210 248q11 -1 12 2q0 2 -5 6q-17 8 -19 0q0 -8 12 -8zM270 273
q0 15 -23 0q-11 -8 -2 -12q7 -5 16 -0.5t9 12.5zM339 340q7 26 -3.5 25.5t-50.5 -28.5q-48 -32 -68 -47q-8 -5 -9 -6l7 -1q3 0 10 1q23 2 28 11q6 9 19 5q14 -6 38 8.5t29 31.5zM116 378q-2 16 -3 -2q-3 -47 1 -52l2 6q4 22 0 48zM359 342q9 8 5 47q-2 27 -3 28l-5 -9
q-12 -36 -4 -62q3 -8 7 -4zM158 330q0 -27 18 -33q14 -5 33.5 5.5t82.5 54.5q34 24 40.5 44t-11.5 45q-25 37 -138 -4l-35 -13q8 -45 10 -99zM108 462q-3 11 -4 -3q-1 -24 2 -24q1 0 2 3q4 11 0 24zM350 441q0 29 -26.5 41t-57.5 -2q-11 -6 -1 -7h19q22 -1 30.5 -5.5
t19.5 -21.5q12 -20 14 -20q2 7 2 15zM246 495q-10 0 -36 -11q-18 -8 -17 -10q2 -3 37 10q18 7 18 10q0 1 -2 1zM94 505q0 73 8 74q6 0 19 -29q5 -10 12.5 -44t11.5 -42q5 0 38 20q36 20 83 20q66 0 85.5 -17.5t26.5 -85.5l6 -51l-89 -90q15 -26 51.5 -81.5t60 -97
t44.5 -89.5q11 -26 28.5 -56t28 -53.5t16.5 -52.5q6 -30 -3 -28q-15 3 -51 72q-73 139 -106.5 193.5t-65.5 86.5q-44 46 -51 65q-8 20 -41 23l-34 3l6 -121q5 -107 -1 -108q-5 1 -18 36q-4 10 -13 34.5t-12 34.5t-9 31t-9 44.5t-6 55.5q-9 99 -16 114q-4 10 -19 -18
q0 -2 -1 -3q-13 -30 -22 -34q-3 -1 -3 4q1 4 3 11q4 10 0 7q-2 -2 -8 -9q-12 -14 -14 -3q2 16 64 104v80z" />
    <glyph glyph-name="S" unicode="S" horiz-adv-x="492" 
d="M374 108q10 12 6 26q-3 14 -14 -8l-2 -4q-13 -23 -6 -26q5 -2 16 12zM114 142q-6 17 -13 24q-6 4 -6 -2q0 -9 16 -28l16 -20zM313 96q10 0 26 22t23 44q3 10 -1.5 21t-16.5 25.5t-14 17.5q3 -28 2 -55.5t-14 -46.5q-18 -27 -5 -28zM430 188q2 10 -4 19t-13 13t-20.5 10.5
t-17.5 8.5q11 -26 23 -72q7 -27 11 -28q3 -1 10 9q11 15 11 40zM294 325q0 -9 37 -38.5t69 -46.5q29 -15 37.5 -23.5t8.5 -23.5q0 -23 -18 -50q-28 -43 -26 -44q1 0 11 9q41 36 41 82q0 27 -28 60.5t-68 53.5q-61 30 -64 21zM129 403q-4 12 -8 12q-4 1 -3 -8t8 -11q5 -2 4 3
q0 1 -1 4zM402 399q-3 20 -17 34q-9 8 -9 1q0 -4 3 -15q11 -45 22 -49q8 -2 1 29zM150 434q0 15 -8 18q-9 6 -8 -8q0 -24 16 -42q21 -21 22 -16q0 4 -9 16q-13 19 -13 32zM291 336q21 0 63 -18t63 -37q11 -10 12 -8t-3 15q-18 57 -36 68q-7 4 -25 37q-15 30 -44.5 63.5
t-51.5 44.5q-39 20 -90 1q-16 -6 -18.5 -11.5t0.5 -27.5q6 -37 18 -55t37 -29q32 -15 39 -29q8 -14 36 -14zM312 528q-15 0 -2 -8q22 -14 22 -5q0 2 -2 5q-3 8 -18 8zM212 536q21 0 23 2q1 2 -10 10q-16 12 -27 12q-15 0 -41 -19.5t-35 -37.5q-15 -29 -11 -29t17 20
q27 42 84 42zM296 536q25 0 33.5 -4t17.5 -21q8 -19 60 -83q58 -73 45 -66q-5 2 -17 13l-19 18q0 -15 13.5 -62.5t12.5 -66.5q0 -11 10 -36.5t10 -45.5q0 -35 -21 -61.5t-69 -50.5q-39 -20 -77.5 -18.5t-114.5 26.5q-61 19 -80 44q-14 20 -42 82t-28 74q0 27 28 -16l4 -6
q22 -37 29 -29q3 4 6 15q2 10 11.5 23.5t19 22t12.5 5.5q5 -5 -13 -26q-59 -75 85 -141q47 -21 63.5 -21t30.5 20q32 48 1 115q-13 30 -25 41.5t-50 30.5q-52 26 -96 54q-31 19 -36.5 28t-5.5 39q0 34 15 66.5t39 51.5q21 16 46 16t44 -15q22 -16 58 -16z" />
    <glyph glyph-name="T" unicode="T" horiz-adv-x="716" 
d="M313 440q12 4 12 5.5t-11 0.5q-16 -1 -64.5 -7.5t-59.5 -9.5q-3 -1 1 -1q10 -1 46 1q57 4 76 11zM384 450q7 2 -3 3q-19 2 -20 -1q-1 -1 3 -2q9 -4 20 0zM424 458q7 2 -3 3q-19 2 -20 -1q-1 -1 3 -2q9 -4 20 0zM456 467q2 -6 16 -1q7 3 0 4q-2 1 -5 1q-11 0 -11 -4z
M326 542q2 16 6 14q9 -5 10 -30q0 -34 14 -38.5t94 4.5q124 14 179 17t57 -3q-8 -8 -59 -16.5t-60 -13.5q-11 -5 -102.5 -21.5t-100.5 -19.5q-5 -3 6 -41q12 -43 23 -133.5t12 -154.5t-8 -74q-11 0 -28 142q-6 42 -12 42q-7 0 -7 34q0 43 -10.5 106t-18.5 66q-9 4 -139 -13
q-144 -18 -150 -14q-2 1 -2 5q0 8 32 8q31 0 39 15t39 20q152 25 168 34q10 6 13 21q5 32 5 44z" />
    <glyph glyph-name="U" unicode="U" horiz-adv-x="539" 
d="M261 -16q-22 1 -66 34q1 -3 6 -12.5t8.5 -14t9 -11t12 -9.5t14.5 -3q24 0 28 8q1 4 -2 6t-10 2zM301 40q5 10 1 13.5t-24 4.5l-31 2l16 -22q12 -18 19.5 -17.5t18.5 19.5zM369 47q10 19 4.5 24.5t-21.5 -5.5q-9 -6 -18.5 -25t-5.5 -23q7 -7 19 2t22 27zM254 16q7 0 0 14
q-20 34 -43 52q-6 5 -6 2q0 -10 21 -39t28 -29zM285 72q21 0 27 4.5t13 24.5q12 38 0 30q-5 -2 -12 -11q-15 -17 -46 -21q-26 -3 -24 -11q2 -11 32 -15q5 -1 10 -1zM361 80q19 0 35 67q10 36 7 42q-9 8 -26 -33q-5 -11 -10 -26q-5 -16 -8 -25t-3.5 -15t0.5 -8t5 -2zM155 106
q-11 18 -37 80.5t-32 85.5l-6 19q-1 -1 2 -27q5 -40 52 -137q24 -49 29 -45q3 5 -8 24zM123 212q7 3 -20 70q-8 18 -9 17q-2 -17 20 -72q7 -15 9 -15zM400 209q14 12 11 72l-2 59q-5 -48 -17 -117q-4 -21 -2 -21q2 -1 10 7zM51 554q-2 7 -3 -3q-2 -19 1 -20q1 -1 2 3
q4 9 0 20zM477 309q18 42 14 137.5t-24 129.5l-20 44q0 -20 -0.5 -118.5t0.5 -170t5 -79.5q1 0 25 57zM445 201q0 -30 -23.5 -95t-43.5 -92q-17 -21 -27 -27.5t-28 -7.5q-27 0 -42 -13q-22 -23 -47.5 -11t-44.5 55q-16 35 -38.5 68.5t-40.5 70.5q-23 47 -30 71.5t-12 84.5
q-10 97 -15 113q-8 24 -17 107.5t-5 88.5q8 8 18 -16q7 -17 24 -68l26 -78l4 44l2 17q1 -7 2 -47q2 -79 35.5 -194.5t64.5 -149.5q20 -22 46.5 -17t66.5 37q25 20 52.5 124.5t40.5 229.5q3 26 8 73t6 57q4 38 8 38q7 -1 31.5 -55t32.5 -89q17 -71 6 -150t-44 -124
q-16 -21 -16 -45z" />
    <glyph glyph-name="V" unicode="V" horiz-adv-x="504" 
d="M279 280q-5 0 -40.5 -49t-32.5 -52q0 -4 16 16q44 57 57 83v2zM298 299q19 15 17 20.5t-21 -17.5l-15 -18zM66 448q0 12 -7 28q-6 11 -7 4q0 -12 7 -28q6 -11 7 -4zM43 560q14 0 23 -30q2 -28 52 -143.5t57 -140.5q12 -46 20 -46q7 0 33 38q21 29 91 109.5t100 123.5
q51 72 55 66q7 -20 -42.5 -103.5t-111.5 -157.5q-51 -59 -82 -105q-19 -27 -22 -37.5t3 -25.5q10 -25 1 -28q-5 -1 -13 10q-4 6 -5.5 8t-3.5 2t-3 -2l-4 -8q-6 -15 -9 -4q-4 10 -15 -4q-7 -10 -8.5 -9t-1.5 15q0 42 -81 280q-38 111 -44 154q-3 26 -1 32t12 6z" />
    <glyph glyph-name="W" unicode="W" horiz-adv-x="570" 
d="M430 213q-1 -12 3 -11q5 0 3 13q0 2 -1 3q-2 6 -4 2q-1 -2 -1 -7zM365 488q13 0 -32 -108l-17 -41q10 -25 36.5 -94t30.5 -79q2 -6 5 -10t6 -5.5t4 -0.5q6 6 26 80q13 47 59.5 168t54.5 129q3 -35 -4 -87t-20 -84q-57 -143 -100 -265l24 -71q11 -32 16.5 -51.5t6 -32
t-2.5 -17t-11 -5.5t-14 7t-11 29q-12 44 -29 85l-27 -55q-22 -47 -29 -44q-1 0 -1 2q0 20 15 54t18 45q10 28 9 42.5t-16 53.5q-6 15 -18.5 50.5t-23 63t-18.5 43.5q-2 3 -11 -11q-7 -11 -25 -46q-25 -49 -29 -49q-11 0 -29.5 -48.5t-17.5 -72.5q3 -30 -3 -36q-4 -1 -5 7
q0 32 -30 -22q-9 -16 -21 -41q-17 -33 -29.5 -53.5t-13.5 -18.5q-6 6 44 123l27 66q-68 205 -110 303q-32 73 -11 73q9 0 0 15q-8 18 -8 35q0 15 28 -53q44 -106 99 -271l21 -62q58 132 77 196q11 36 12 52.5t-5 42.5q-9 39 -5 43q9 9 20 -15q3 -7 5 -16q4 -17 6 -18t10 9
q14 19 16 5q2 -8 -4 -23q-9 -22 -5 -26q1 -1 4.5 4t8.5 14.5t10.5 21t11 24.5t9.5 24q9 22 16 22z" />
    <glyph glyph-name="X" unicode="X" horiz-adv-x="631" 
d="M467 56q-7 0 11 -25q7 -9 11 -12q3 -1 3 2q0 4 -7 14q-13 21 -18 21zM465 124q0 -6 32 -68q25 -49 30 -47t-18 51q-30 62 -42 67q-2 1 -2 -3zM285 168q-6 0 -40 -46t-45 -69l-16 -33q83 86 101 148zM373 152q1 7 -11 34t-17 36l-7 10q-1 -1 -1 -12q0 -12 14.5 -40
t21.5 -28zM467 174q-24 43 -37 60q-4 6 -4 3q0 -5 12 -27q24 -43 37 -60q4 -6 4 -3q0 5 -12 27zM379 280q-7 0 11 -25q7 -9 11 -12q3 -1 3 2q0 4 -7 14q-13 21 -18 21zM317 318q2 -6 5 -9q5 -4 6 2q0 5 -7 11q-6 5 -7 4.5t3 -8.5zM315 392q-4 -4 13 -20q7 -6 7 -3q0 2 -6 11
q-12 12 -14 12zM246 378q-59 81 -63 81q-4 -1 19 -41q20 -35 42.5 -69t39.5 -54.5t21 -17.5q7 4 0 16t-59 85zM97 650q0 6 6 5q7 -1 78.5 -81.5t120.5 -143.5q21 -27 32 -39.5t20 -21.5t11.5 -7.5t6.5 4.5q10 19 73 98q90 115 140 153q16 13 16 5q0 -13 -49.5 -92
t-101.5 -148q-54 -70 -52 -79q2 -7 38 -57q33 -47 79.5 -135t41.5 -93q-6 -4 -13 6q-6 8 -6 3q0 -2 2 -11q3 -10 10 -44q4 -18 2.5 -19.5t-13.5 9.5q-9 8 -22 12.5t-20 17.5q-10 19 -16.5 15.5t0.5 -23.5q12 -34 5 -33q-9 1 -37 53q-41 78 -127 197l-31 -59
q-14 -28 -44 -67.5t-56 -65.5t-29 -19q-2 5 6.5 24.5t6.5 22.5q-1 1 -7.5 -7t-17 -23t-21.5 -33q-62 -95 -78 -117.5t-20 -19.5q-7 4 17 37q55 83 39 88q-9 3 24 45q22 28 61.5 89.5t63.5 90.5q42 51 45 66t-20 48q-36 54 -80 131t-44 86q0 11 7 6q4 -3 10 -9q11 -11 2 12
q-8 18 -38 78l-22 45h1z" />
    <glyph glyph-name="Y" unicode="Y" horiz-adv-x="414" 
d="M179 214q24 22 10 23t-25 -12q-2 -4 -3 -7q-9 -21 -5 -22t23 18zM251 299q4 -6 14 13q8 16 4 16q-3 0 -12 -12q-11 -12 -6 -17zM305 404q10 26 3 25q-7 -2 -31 -40q-48 -75 -27 -58q6 5 17 18q30 33 38 55zM191 315q-4 17 -37.5 70t-48.5 71l-24 28q21 -40 63 -106
t47 -63zM101 480q1 -1 1 3q0 5 -2 19q-2 23 -1 23q2 0 6 -11q6 -15 61 -89q45 -59 60.5 -65.5t34.5 26.5q10 19 66 93q7 1 7 -6q0 -5 -5 -20t-3 -15t25 22q29 27 32 24q5 -5 -24 -46q-23 -33 -61 -107q-20 -41 -25.5 -58.5t-1.5 -32.5q4 -18 1.5 -21.5t-13.5 -0.5
q-12 3 -15 -6q-3 -12 -3 -114q0 -115 -7 -115q-2 0 -4 3q-11 14 -15 8q-6 10 -6 233l-12.5 -12.5t-18 -17.5t-18 -16.5t-17 -13.5t-11.5 -5q-2 7 5.5 28t22.5 54l15 33q-96 173 -104 185q-23 34 -19 41q4 3 -10 30t-11 30q2 4 23 -23q7 -9 23 -30q23 -30 24 -30z" />
    <glyph glyph-name="Z" unicode="Z" horiz-adv-x="805" 
d="M497 393q15 9 25 15.5t19 12t12.5 8.5t1.5 3q-22 -1 -153.5 -73t-147.5 -92q-5 -6 20 5q87 39 223 121zM505 379q8 -4 58.5 24t59.5 45q-1 0 -6.5 -2.5t-12.5 -6t-16 -8.5t-19 -10.5t-19 -11.5t-17.5 -11t-15 -9t-9.5 -7zM351 465q12 6 4 6q-66 -6 -180 -39
q-37 -11 -34 -14q8 -3 102.5 18t107.5 29zM529 467q25 11 10 11q-10 0 -48 -6q-69 -10 -153 -38q-19 -6 -17 -7q4 -4 96.5 14t111.5 26zM632 483q23 7 24 10q0 1 -9 2q-22 0 -52 -15q-19 -10 -19 -11q1 -3 56 14zM709 514q9 2 -2 3q-30 3 -30 -1q0 -1 4 -2q13 -4 28 0z
M567 521q94 -1 206 22q4 -17 -2 -24.5t-29 -10.5q-8 -1 -15.5 -3t-10.5 -4t-2 -3q5 -5 -9 -20q-9 -10 -6 -10q3 -1 31 11q43 18 44 15q1 -1 1 -5q0 -9 -30 -18q-39 -14 -130 -65q-186 -106 -384 -196q-98 -45 -193 -110q80 -5 99 5q16 8 295 17.5t314 2.5q61 -12 -7 -21
q-32 -4 -68 -5q104 0 104 -12q0 -9 -66 -5q-74 6 -372 6q-219 0 -262.5 2t-43.5 12q0 14 26 33q20 14 13 14q-1 0 -3 -1q-5 -2 -15 -5.5t-13 -4.5q-9 -4 -7 0q1 2 3 4q18 14 68 34q32 13 59.5 32t58.5 46.5t46 38.5q33 25 114.5 70.5t123.5 61.5q44 17 43 20q0 2 -101 -16
q-20 -3 -36 -6q-88 -14 -170 -22.5t-125 -13.5q-79 -11 -83 -7q-13 12 32 33q51 23 158 49l60 14l-70 4q-76 5 -71 9.5t83 0.5q60 -4 176 14t166 17z" />
    <glyph glyph-name="asciicircum" unicode="^" horiz-adv-x="474" 
d="M238 472q15 32 13 52q-2 12 -11 -11q-2 -5 -5 -12q-19 -58 -11 -53q4 2 14 24zM357 334q0 -9 5 -4q2 11 -23.5 102t-26.5 98q-4 35 -13 32q-5 -1 -12 -19q-6 -18 -1.5 -34.5t32.5 -76.5q39 -87 39 -98zM264 557q4 -2 11 10q16 29 16 49q0 13 -13 -12q-2 -3 -4 -7
q-13 -33 -10 -40zM301 665q-12 -19 -6 -24q6 -6 13 7q3 5 3 12q4 18 1 19.5t-11 -14.5zM334 736q4 -3 4.5 -22t-4 -47.5t-11.5 -44.5q-12 -24 -3.5 -69.5t51.5 -188.5q33 -108 38 -142q2 -23 19 -54q25 -48 11 -48q-6 0 -49 90.5t-78 179.5q-40 98 -44 98t-47.5 -91.5
t-56.5 -127.5q-10 -31 -24 -35q-11 -3 -40 -52t-44 -92q-15 -42 -21 -42q-23 0 72 188q114 228 114 298q0 15 2.5 20.5t8.5 3.5q8 -3 8 7q-1 18 -22 58q-15 25 -11 43q1 11 3 10q3 -1 10 -18q11 -26 18 -26t7 -19q0 -24 8 -23.5t16 25.5q10 31 1 58q-14 40 -7 40q3 0 12 -19
l14 -31q35 70 45 73z" />
    <glyph glyph-name="underscore" unicode="_" horiz-adv-x="707" 
d="M634 -46q7 2 -3 3q-19 2 -20 -1q-1 -1 3 -2q9 -4 20 0zM269 -46q23 2 -1 3q-81 2 -81 -2q1 0 10 -1q33 -4 72 0zM550 -30q9 2 -2 3q-30 3 -30 -1q0 -1 4 -2q13 -4 28 0zM565 -56q-97 0 -181 -12q-58 -9 -108 -14t-79 -4.5t-29 5.5q0 9 -74 9q-60 0 -63 6q-4 7 46 10h11
q34 1 35 3q0 1 -6 4q-1 1 -5 3q-15 7 -1 9q11 2 49 5q45 4 45 5q1 1 -5 2q-28 2 -60 9q-19 5 4 5q62 0 152 -14q42 -7 156 1q97 8 139 6t79 -19q9 -3 6 -11q-5 -8 -111 -8z" />
    <glyph glyph-name="grave" unicode="`" horiz-adv-x="284" 
d="M30 518q0 11 16 -2q2 -2 6 -5l16 -13q0 1 -9 12q-16 19 -8 18q9 -2 34 -27q67 -68 133 -59q36 5 36 -2q-2 -7 -22 -9t-23 -7q-11 -11 -55 5.5t-84 44t-40 44.5z" />
    <glyph glyph-name="a" unicode="a" horiz-adv-x="511" 
d="M420 128q-3 -7 19 -39q6 -9 8 -9q2 1 -10 24q-12 24 -17 24zM113 102q-7 3 -30 13.5t-30 13.5q36 -33 55 -32q10 0 10 2q0 1 -5 3zM151 127q12 6 5 8q-3 0 -14 1q-17 0 -18 -4q0 -2 3 -5q8 -8 24 0zM157 110q71 37 92 66q-9 -1 -43.5 -26t-48.5 -40zM333 184q13 24 8 23
q-3 -1 -13 -13q-9 -11 -60.5 -44.5t-70.5 -40.5q-19 -8 -6 -10q13 -3 37 5q29 10 62 34.5t43 45.5zM345 231q-11 -6 -41 -31.5t-35 -29.5q-17 -12 -13 -13q1 0 5 2q8 1 45 33.5t39 38.5zM102 320q-7 0 -30 -46.5t-28 -68.5q-6 -11 -0.5 -26.5t8.5 -20.5t14 -17t14 -17
q-26 103 5 156q6 10 10.5 19.5t6 15t0.5 5.5zM393 281q0 36 -11 51q-8 12 -8 0q0 -8 4 -31q6 -54 12 -50q3 2 3 30zM187 368q-11 0 -43 -39.5t-38 -61.5q-24 -87 9 -110q40 -28 84 7.5t49 98.5q2 32 -1.5 43t-23.5 32q-26 30 -36 30zM307 335q-21 26 -39 32.5t-60 10.5
l28 -37q48 -62 14 -127l-15 -30q75 45 85 54q24 21 21.5 39.5t-34.5 57.5zM356 379q-4 12 -8 12q-4 1 -3 -8t8 -11q5 -2 4 3q0 1 -1 4zM139 392q-17 0 -53 -50t-26 -60q5 -5 5 4q0 10 45 57q42 45 33 48q-1 1 -4 1zM300 390q-23 15 -38 16.5t-41 -10.5l-24 -10q44 1 64 -3.5
t41 -24.5q26 -25 27 -16q0 3 -1 11q-2 18 -28 37zM257 424q17 0 35 -9q13 -7 13 -6.5t-11 14.5q-12 14 -27.5 16.5t-21.5 -7.5q-2 -3 1.5 -5.5t10.5 -2.5zM305 438q0 10 5 10q9 -1 14 -20q2 -8 7 -14t10 -6t17 -16t24 -37q20 -35 24 -50t1 -43q-7 -72 56 -166q25 -37 17 -58
q-2 -6 -8 -6q-7 2 -19 16t-29 39t-19 27l-2 -28q-5 -56 -22 -5q-4 13 -8 31q-12 49 -18 51q-3 1 -13 -7q-66 -49 -92.5 -60.5t-78.5 -12.5q-82 -3 -111.5 21.5t-29.5 95.5q0 35 5.5 55.5t24.5 58.5q25 51 47.5 73.5t42.5 17.5q18 -5 57 18q64 40 89 15q9 -9 9 0z" />
    <glyph glyph-name="b" unicode="b" horiz-adv-x="344" 
d="M132 98q7 2 -3 3q-19 2 -20 -1q-1 -1 3 -2q9 -4 20 0zM287 181q8 3 10.5 54.5t-2.5 60.5q-4 0 -11 -65q-7 -55 -2 -55q1 0 5 5zM258 241q-2 72 -31 78q-20 -1 -52 -18.5t-48 -36.5q-14 -16 -17.5 -30.5t-3.5 -58.5q0 -47 2.5 -54.5t15.5 -5.5q42 8 47 9q34 5 60.5 41
t26.5 76zM248 336q3 2 12.5 -5.5t18.5 -14.5t11 -5q-1 9 -16 26t-24 7q-13 -8 -2 -8zM83 16q-4 -3 -8.5 42t-8.5 90.5t-6 43.5q-3 0 -15 -14q-15 -20 -15 -6q-1 11 11 34q11 22 12.5 38t-3.5 65q-6 60 -12 89q-3 23 4 21q8 -2 12 -33q4 -41 6 -42q3 0 3 93q-1 115 9 117
q7 1 11 -70q0 -7 1 -19l2 -28q1 5 1 43q1 30 1 50q3 130 10 121q10 -12 8 -180v-175q1 1 16 12.5t18.5 14t17 11t21.5 11.5t20.5 6.5t25.5 4.5q51 4 56 0q10 -5 21.5 -48.5t11.5 -74.5q0 -35 -17 -60q-14 -21 -44 -43.5t-52 -29.5q-5 -1 -32 -15t-49 -13q-22 0 -26 -4
t-4 -24q0 -28 -7 -28z" />
    <glyph glyph-name="c" unicode="c" horiz-adv-x="304" 
d="M160 344q-13 0 -4 -6q3 -3 9 -5q8 -3 7 1q-1 7 -8 10q-2 1 -4 0zM145 312q-19 0 -29.5 -5.5t-26.5 -22.5q-16 -19 -20.5 -32t-4.5 -40q0 -42 8 -62q12 -31 55.5 -46.5t73.5 0.5q7 2 32 45t35 43q16 0 -8 -43q-19 -33 -43 -55q-22 -20 -33.5 -25t-39.5 -5q-29 0 -41 5.5
t-37 30.5l-36 36l6 74q5 65 17 88.5t54 46.5q38 19 28 29t-2 9q5 0 18 -6q11 -6 59 -25l-6 -70q-7 -95 -17 -95q-1 0 -3 1q-5 7 -2 50.5t-1 52.5q-3 13 -9.5 17t-26.5 4z" />
    <glyph glyph-name="d" unicode="d" horiz-adv-x="361" 
d="M278 168q0 13 -22 0q-6 -3 -16 -9q-34 -22 -21 -19q8 1 42 15l14 5q3 0 3 8zM270 193q0 15 -16 -5q-9 -9 -4 -9q9 -1 19 9q3 3 1 5zM55 221q-1 -12 3 -11q5 0 3 13q0 2 -1 3q-2 6 -4 2q-1 -2 -1 -7zM101 193q-19 27 -29 75q-2 -57 15 -79q21 -27 25 -20q3 5 -11 24z
M192 375q-17 9 -22.5 7.5t-28.5 -20.5q-35 -29 -44.5 -74t9.5 -81.5t58 -43.5q16 -3 26 1.5t31 24.5q28 27 32 40.5t-2 59.5q-4 34 -17 52.5t-42 33.5zM124 392q-5 0 -21.5 -21t-23.5 -35q-6 -13 -5 -13q2 -1 16 17q4 5 11 13.5t11 13.5t7.5 12t4.5 13zM233 480
q-6 -1 -2 -28q2 -12 6 -12q8 0 0 31q-2 10 -4 9zM223 557q-1 -12 3 -11q5 0 3 13q0 2 -1 3q-2 6 -4 2q-1 -2 -1 -7zM216 675q4 -9 8 -41t10 -44q8 -15 32 -101t34 -129q3 -12 10.5 -27.5t11.5 -32t2 -41.5q-3 -41 5 -102q3 -31 1.5 -43.5t-7.5 -2t-13 41.5q-11 40 -14 37
q-4 -4 7 -41q10 -42 2 -44q-5 0 -12 21q-8 22 -12.5 24t-21.5 -10t-76 -12q-153 2 -153 97q0 44 35.5 109.5t58.5 65.5q6 0 32 13.5t43 6.5l25 -6q-11 78 -14 180q0 23 0.5 42t2 29.5t3.5 9.5z" />
    <glyph glyph-name="e" unicode="e" horiz-adv-x="483" 
d="M245 325q10 8 6 36q-2 15 -4 15q0 1 -1 -4q0 -8 -5 -36q-4 -14 -1 -14q1 0 5 3zM227 391q5 -17 8 -8q4 12 -4 19q-6 6 -6 0q0 -3 2 -11zM182 424q-20 0 -58 -27.5t-51 -52.5q-11 -21 -11 -49.5t10 -36.5q8 -7 29 4.5t28 9.5q15 0 49 23t42 39q7 15 -4 52q-7 25 -13 31.5
t-21 6.5zM127 448q-10 0 -36 -26q-17 -17 -14 -16q1 1 4 3q2 1 16 10.5t20 14.5q20 14 10 14zM61 362q2 -8 24 17q22 24 58.5 43.5t47.5 12.5q11 -8 -1 7q-10 14 -17.5 13t-35.5 -20q-76 -52 -76 -73zM101 225q0 -5 38 -30q23 -14 37.5 -18t40.5 -2q40 3 57 20q6 7 47.5 35
t47.5 40q4 10 24.5 23t25.5 8q4 0 -24.5 -27t-57 -54.5t-23.5 -27.5q15 0 57 30t58 52q19 26 22 26l2 -6v-10q0 -26 -43 -63t-117 -75q-63 -32 -77.5 -36t-47.5 2q-57 13 -93 67t-43 139q-3 34 -0.5 47.5t18.5 35.5q37 53 90 64q46 10 74 -4t48 -57q19 -41 13.5 -61
t-43.5 -51q-45 -37 -88 -49q-43 -11 -43 -18z" />
    <glyph glyph-name="f" unicode="f" horiz-adv-x="399" 
d="M228 120q1 0 -2 14.5t-9 35.5q-26 92 -29 93q-1 0 2 -31q3 -29 17 -70.5t21 -41.5zM92 322q7 2 -3 3q-19 2 -20 -1q-1 -1 3 -2q9 -4 20 0zM336 412q3 37 -4 72.5t-23 51.5q-11 11 -11 -1q0 -9 8 -29q4 -10 9.5 -26.5t11.5 -37.5t9 -30zM180 568q-4 0 -11.5 -22.5
t-7.5 -35.5t3 -13q7 0 13 39q3 16 3.5 23t-0.5 9zM201 558q-1 5 7.5 9.5t16.5 8.5t8 9q-11 18 -29 -5q-14 -18 -8 -26q5 -5 5 4zM297 567q0 6 -8.5 17t-23 26.5t-16.5 17.5l9 -26q9 -25 29 -38q10 -7 10 3zM233 612q7 -3 8 3q0 9 -8 9q-5 0 -6.5 -1.5t-1 -3t2.5 -3.5t5 -4z
M136 398q3 -11 4 52v174q-9 0 -10.5 -102t6.5 -124zM225 632q6 -1 8 2q2 5 -8 10q-7 3 -8 -3q0 -9 8 -9zM207 635q-9 22 -39 4q-15 -8 -15 -49q1 -33 4 -33q2 -1 6 7q1 2 23.5 30.5t20.5 40.5zM369 510q0 -12 -14 -4q-4 3 -7 6t-5 -5q-1 -12 1 -59q3 -73 -7 -71q-7 2 -20 53
q-16 61 -52 134q6 -68 13 -110q6 -31 -3 -30q-9 2 -14 27v3q-4 29 -8 50.5t-8 35.5t-7.5 20.5t-6.5 5.5q-33 -9 -43 -140l-5 -82q6 -1 29 0q66 1 65 -7q0 -2 -4 -5q-9 -11 -45 -17q-35 -4 -35 -8q0 -1 21 -81q11 -40 16.5 -62.5t8 -36.5t1 -18.5t-5.5 -4.5q-3 -2 -12.5 10
t-18.5 23.5t-12 9.5q-2 -3 -6 6q-3 5 -4 12q-10 54 -39 137q-6 1 -29 3q-83 7 -83 17q0 1 1 3q0 7 18 9t53.5 2h36.5q-26 87 -26 203q0 48 3.5 63t19.5 34q20 24 42.5 26.5t60.5 -16.5q35 -18 62 -62t48 -56q20 -11 20 -18z" />
    <glyph glyph-name="g" unicode="g" horiz-adv-x="322" 
d="M133 -103q22 9 3 15q-10 4 -16 6q-21 8 -25 4t9 -20q9 -13 29 -5zM158 -50q0 -6 11 -6q18 1 44 41.5t22 72.5q-3 1 -5 -8q-1 -17 -10 -18q-4 -1 -5 4q-1 3 -1 6q0 5 -14 -16q-41 -62 -42 -76zM198 184q-10 -7 -3 -8q12 1 15 8q4 8 1.5 8t-13.5 -8zM230 232q0 11 -3.5 16
t-8.5 1.5t-8 -14.5q-8 -25 3 -26q10 -1 15 14q2 5 2 9zM148 176q9 0 -10 21q-19 20 -22 49q-2 20 -4 21q-1 2 -3 -4l-2 -4q-7 -19 8.5 -51t32.5 -32zM122 348q-8 -20 -4 -19q7 2 13 20q2 6 0 8q-1 1 -4 -1.5t-5 -7.5zM254 362q0 15 -8 18q-8 4 -8 -2t8 -18q3 -5 4.5 -6.5
t2.5 0.5t1 8zM134 250q0 -50 42 -50q20 0 31.5 69.5t-3.5 102.5q-7 14 -21 18.5t-21 -5.5q-7 -12 -17.5 -62t-10.5 -73zM94 246q0 42 15 89t31 56q13 8 9 12q-8 9 -29 -28q-13 -23 -26 -57q-24 -60 -23.5 -86t27.5 -50q41 -38 45 -33q1 2 -19 21q-22 19 -26 30t-4 46z
M250 407q-6 10 -22 18q-12 6 -12 4q0 -1 1 -4q6 -10 22 -18q12 -6 12 -4q0 1 -1 4zM278 150q0 -108 -17 -146q-4 -10 -8 -7q-7 3 -7 -3q0 -8 -38 -53q-39 -46 -69 -54q-28 -7 -39 -0.5t-22 37.5t-29 58q-26 41 -11 42q9 0 0 15q-8 18 -8 27q0 12 5 0q3 -10 14 -10
q8 0 25 -41q11 -27 29 -49t30 -22q8 0 52 86t48 108q5 24 0.5 28t-19.5 -9t-44 -16q-22 -4 -33.5 -0.5t-34.5 22.5q-32 26 -39.5 48.5t3.5 65.5q14 57 38.5 98t44.5 41q15 0 25 14q13 16 39.5 11.5t48.5 -26.5q46 -46 24 -144q-8 -38 -8 -121z" />
    <glyph glyph-name="h" unicode="h" horiz-adv-x="304" 
d="M105 319q9 25 5 24q-3 -1 -11 -11q-9 -11 -6 -25q3 -13 12 12zM227 276q-9 63 -17 72q-10 14 -3 -11q3 -12 14 -42q6 -17 6 -19zM91 467v-106l35 15q53 25 86 8q14 -7 26.5 -31t12.5 -44q0 -19 8 -23q6 -2 13 -54q6 -40 -13 -99t-21 -83q-4 -45 -12 -58q-9 -17 -12 3.5
t4 48.5q9 37 8 99.5t-11 112.5q-13 62 -27.5 85t-33 10t-43.5 -64q-18 -38 -23 -58t-5 -58q0 -59 -7 -59t-11 -14q-2 -7 -4 26q0 18 -1 44q-2 73 -5 74q-2 0 -9 -12q-17 -31 -16 -15q0 13 13 46q11 31 13.5 60.5t1.5 114.5q-2 128 4 138q5 8 17 4q7 -3 9.5 -24t2.5 -87z" />
    <glyph glyph-name="i" unicode="i" horiz-adv-x="154" 
d="M60 120q-2 0 -3 -3.5t-2 -9.5t-1.5 -13.5t-1 -14t-1.5 -12.5t-3 -9t-4 -2q-8 6 -3.5 180.5t15.5 239.5l10 -52q8 -43 6 -173.5t-12 -130.5zM100 535q3 23 -9 30q-5 3 -9 -4q-3 -2 -0.5 -10.5t4 -12.5t6 -12.5t5.5 -9.5zM61 581q2 -9 12 4q8 10 3 11q-4 4 -9.5 -1.5
t-5.5 -13.5zM101 617q0 7 -12 7q-10 0 -7 -12q4 -9 11.5 -7t7.5 12zM113 480q-2 0 -28 24q-25 25 -36 16q-15 -12 -15 1q1 8 9 21q8 12 8.5 19.5t-7.5 20.5q-17 34 -13 34q1 0 8 -6q13 -10 18 -2q3 6 -4 8t-4 8q5 9 32.5 7.5t35.5 -11.5q10 -11 4 -76q-5 -64 -8 -64z" />
    <glyph glyph-name="j" unicode="j" horiz-adv-x="369" 
d="M260 -10q5 13 1 13t-23 -20q-18 -19 -17 -19.5t14 5.5q23 12 25 21zM167 -48q22 0 61 40q34 34 34 37q1 2 -24 -18q-8 -7 -21 -17q-42 -35 -62 -32q-13 2 -14 -1q-1 -5 19 -8q3 -1 7 -1zM312 183q0 -111 -22 -166t-81 -73q-12 0 -31 -13q-38 -27 -83 27q-22 26 -45 83
t-19 73q6 22 15 1q3 -6 5 -16q11 -42 45 -104q10 -19 12 -17q2 5 -13.5 50t-14.5 49q0 16 8 6.5t13 -30.5q6 -34 22 -55.5t36 -21.5q23 0 67 40t55 70q8 26 5 134.5t-14 165.5q-9 45 -3 64q2 7 3.5 9.5t3.5 1.5t5 -7q10 -17 20.5 -108.5t10.5 -162.5zM247 496q8 0 13 5t4 11
t-7 8q-5 0 -17 -12q-4 -5 -4.5 -7.5t2 -3.5t9.5 -1zM287 536q10 17 0 16q-9 -1 -12 -12q-3 -9 -2.5 -13.5t5 -2t9.5 11.5zM236 522q4 -3 8 7q6 16 1 20q-2 2 -6 -5q-1 -2 -2 -5q-5 -13 -1 -17zM240 570q0 5 -6.5 5t-11.5 -5q-6 -5 -6 -46q19 30 24 46zM312 608q0 18 -16 8
q-9 -5 -19 -18q-31 -42 -14 -46q7 0 28 24t21 32zM200 642q0 10 15 -14l2 -2q18 -25 26 -20q5 4 4 -3q-1 -18 1 -19q8 0 8 6q0 3 15 24q10 12 17.5 14.5t26.5 -0.5q10 -2 15.5 -3.5t7.5 -3.5t1.5 -4.5t-4.5 -6.5q-11 -13 -41 -94q-9 -23 -16 -27.5t-36 -5.5h-39q3 84 13 98
q11 7 -3 32t-13 29z" />
    <glyph glyph-name="k" unicode="k" horiz-adv-x="395" 
d="M185 229l-6 6q-38 43 -39 34q0 -2 2 -7q3 -6 43 -33zM94 365q-1 -12 3 -12q5 1 2 12q0 3 -1 5q-3 4 -4 -5zM210 184q-6 -2 -28 19t-24 21q-6 0 -4 -78q2 -72 -5 -54q-6 14 -15 81l-7 55v-46q-1 -49 -8 -45q-8 5 -13 64q-4 65 -8 69q-5 5 -32 -13q-28 -17 -32 -15t10 28
q25 48 29.5 67.5t0.5 64.5q-2 22 -9 71.5t-17.5 119.5t-15.5 105q-4 30 0 29q9 -2 18 -50q1 -1 1 -3q9 -53 16 -58q4 -1 17 -57.5t25 -115t13 -61.5q1 -5 3 -6t9 1.5t16.5 7.5t27.5 16q56 34 55 27q0 -6 -39 -32q-50 -34 -70 -69q28 13 49.5 30t57.5 53q57 57 61 51
q2 -3 -18 -27q-20 -25 -17 -28q-1 -5 -18 -22.5t-39.5 -38.5t-28.5 -27l35 -35q42 -43 42 -33q1 5 -12 22q-18 24 -14 28t37.5 -32.5t53.5 -67.5q21 -32 35 -43q24 -21 14 -28q-1 -1 -4 -1q-3 -1 -70 56.5t-71 55.5q-5 -1 25 -30q30 -26 60.5 -62t30.5 -46q0 -9 -39 29l-5 5
q-43 38 -45 28q0 -11 -2 -11q-1 -1 -8 9q-1 2 -3 4q-11 18 -21 18z" />
    <glyph glyph-name="l" unicode="l" horiz-adv-x="192" 
d="M86 178q-2 7 -3 -3q-2 -19 1 -20q1 -1 2 3q4 9 0 20zM105 14q1 12 -11.5 28.5t-12.5 25.5q0 14 -14 10q-10 -1 -13 10.5t-7 58.5q-4 71 -13 76q-8 -15 -2 206q4 148 10 135q7 -21 9 3q1 16 2 17q1 6 5 66q2 36 4 -1q2 -23 3 -69q5 -116 11 -116q9 14 14 -14
q8 -36 12 -166q2 -59 4 -89t6.5 -49.5t10.5 -18.5t17 3q21 12 22 4t-24 -25q-26 -18 -30.5 -32t5.5 -42q9 -21 0 -30q-7 -4 -8 9z" />
    <glyph glyph-name="m" unicode="m" horiz-adv-x="491" 
d="M238 199q8 41 2 40q-2 -1 -6 -11q-5 -19 -4 -38q1 -15 2 -15t6 24zM452 244q0 10 -7 40q-5 16 -5 17l-1 -13q0 -18 6 -40q7 -22 7 -4zM67 294q-2 9 -3 -2q-3 -30 1 -30q1 0 2 4q4 13 0 28zM357 389q-1 11 -22.5 -5.5t-37.5 -32.5q56 32 60 38zM392 400q-8 0 -7.5 -2.5
t10.5 -9.5q11 -4 20 -32.5t16 -32.5q4 -3 4 4q1 22 -19 54q-13 19 -24 19zM209 416q-11 0 -11 -5t10 -25q12 -24 17 -62q5 -32 9 -31q2 0 5 6q9 17 1 67t-31 50zM146 416q-11 0 -33 -31.5t-29 -58.5q-6 -23 -4 -26q1 -2 5 5t8 20q11 29 38 60q28 31 15 31zM146 448
q-26 -4 -54.5 -43t-22.5 -73q7 12 37 66q9 16 17 21t25 5q27 0 20 10q-7 11 -22 14zM233 413q4 -3 7.5 -8t5.5 -9t3.5 -11t2 -11t1 -13t0.5 -13v-15v-15l43 44q25 28 39.5 38t34.5 13q32 5 50 -13q16 -18 28.5 -74.5t12.5 -112.5q0 -64 -10 -63q-4 1 -8 20q-2 10 -4 -4
q-1 -6 -1 -17q-1 -39 -6 -37q-10 5 -12 101v3q0 19 -1 34.5t-2 26t-4 23t-3.5 17.5t-5.5 17.5t-5.5 14.5t-8 17.5t-8.5 18.5l-30 -16q-52 -28 -74 -62t-29 -99q-5 -37 -13.5 -70.5t-13.5 -33.5q-6 0 -15.5 35.5t-9.5 58.5q0 32 10 55q8 23 -1 73.5t-22 55.5
q-25 10 -57 -36.5t-43 -106.5q-5 -30 -11 -45.5t-9 -29.5t-3 -53q0 -63 -8 -63t-8 53q-2 46 -9 46q-4 -2 -5 10q-3 19 1 96q5 109 10 143t16 34t11 -16q0 -17 18 5q2 2 4 5q48 60 89 13q11 -11 21 -8q9 3 32 -16z" />
    <glyph glyph-name="n" unicode="n" horiz-adv-x="255" 
d="M207 309q-1 -12 3 -11q5 0 3 13q0 2 -1 3q-2 6 -4 2q-1 -2 -1 -7zM206 338q1 16 -10 36t-25 18q-11 -1 -12 -1.5t3 -3.5q1 -1 7 -4q15 -8 26 -34q8 -18 10 -14q1 1 1 3zM78 375v-33l16 20q14 19 38 29t47 7q26 -3 35.5 -39.5t10.5 -130.5q1 -146 -16 -145q-1 0 -3 1
q-6 1 -4 10t1 10q-6 0 -17 -25q-12 -23 -16 -22q-6 1 16 48q20 43 19 103q-2 86 -9 81q-5 -4 -6 -65q-2 -86 -8 -100q-5 -12 -6 -12t-2 12q-1 9 -3 9q-1 -1 -2 -3q-3 -10 -11 -10q-1 1 -0.5 7t3 17.5t6.5 24.5q11 35 14 96.5t-4 81.5q-7 12 -21 12t-32.5 -13t-30.5 -32
q-11 -17 -13 -30.5t1 -44.5q8 -64 -5 -61q-3 1 -7 7q-5 7 -7 -6q-1 -6 -1 -15q-1 -61 -13 -65q-3 -1 -5 3q-5 10 -1 27q4 13 1 13q-2 0 -4 -1q-5 -4 -7 14q-6 48 8 118q9 46 1 103q-7 57 -3 61q1 1 5 -5q4 -7 9 -22q6 -20 8 -19q1 0 1 3q1 16 6 15q9 -5 11 -34z" />
    <glyph glyph-name="o" unicode="o" horiz-adv-x="386" 
d="M197 240q-4 -1 -6 6q-5 14 3 15q1 0 3 -1q7 -3 8 -11.5t-8 -8.5zM159 112q-26 6 -37 13l-3 1q1 -2 8 -8q17 -15 37 -13l13 2l-15 4l-1 1h-2zM237 136q-10 -7 -3 -8q12 1 15 8q5 8 2 8t-14 -8zM161 138q5 2 -7 8q-11 6 -12 3q-1 -1 4 -6q10 -10 15 -5zM80 152
q-4 -4 11 -26q7 -9 7 -5q0 3 -5 15q-9 16 -13 16zM37 172q0 -21 18 -44.5t34 -23.5q2 0 -18 36q-34 62 -34 32zM117 190q0 -6 4 -12t8.5 -8t7.5 0l-2 7q-12 20 -17 20q-2 0 -1 -7zM325 199q10 23 4 21q-7 -3 -28 -38q-22 -35 -20 -35t16 13q20 18 28 39zM66 234q-2 7 -3 -3
q-2 -19 1 -20q1 -1 2 3q4 9 0 20zM104 229q7 62 -4 47l-2 -2q-7 -10 -9.5 -41.5t2.5 -38.5q4 -6 8 8q3 9 5 27zM285 258q0 27 -4.5 34.5t-25.5 18.5q-69 34 -91 15q-32 -26 -37.5 -62.5t16.5 -75.5q26 -47 82 -33q23 6 41.5 38t18.5 65zM213 344q3 -6 25.5 -12t26.5 -8
q10 -4 11 -3q0 1 -4 6q-5 6 -20 12t-26 7.5t-13 -2.5zM129 368q-7 0 -31 -27t-29 -41q-13 -35 2 -20q9 10 29 39q8 12 15.5 24t11 18.5t2.5 6.5zM199 392q45 0 42 -7q-4 -9 13 -14q45 -13 80 -75q34 -59 14 -98q-13 -24 -41.5 -56.5t-44.5 -40.5q-44 -22 -116 -16.5
t-100 33.5q-16 16 -16 39t15 97q17 86 76 120q32 18 78 18z" />
    <glyph glyph-name="p" unicode="p" horiz-adv-x="362" 
d="M148 116q9 12 2 12q-9 -1 -18 -12q-9 -12 -1 -12t17 12zM192 175q-7 0 -32 -20q-15 -13 -10 -13q7 0 34 21q14 10 8 12zM48 -66q2 14 10.5 59.5t13.5 84t3 64.5l-3 46q-20 -53 -28 -178q-9 -121 -3 -112q3 3 7 36zM248 200q-5 0 -48.5 -46t-43.5 -52q-1 -18 42 28
q48 51 50 70zM231 199q15 10 12 16q-2 5 -16 -13q-7 -10 -6.5 -10.5t10.5 7.5zM311 363q-19 20 -24 11q-2 -4 2 -12q7 -18 10 -49q2 -28 5 -29q2 0 9 13q22 42 -2 66zM220 229q0 11 16 43q15 30 14.5 39t-19.5 28q-19 20 -8 21q13 0 25 -18t12 -36t-16 -50q-13 -27 -9 -27
q1 0 5 1q23 8 34 63t-7 73q-23 23 -82 -18q-32 -23 -44.5 -26.5t-18.5 8.5q-2 7 -3 -23q-3 -76 4 -125l5 -38q88 66 92 85zM85 365q-1 -12 3 -11q5 0 3 13q0 2 -1 3q-2 6 -4 2q-1 -2 -1 -7zM203 384q-12 0 -37.5 -16t-25.5 -24q0 -13 20 0q8 5 23 16q31 24 20 24zM206 397
q29 6 29 9q0 1 -11 1q-23 0 -47.5 -10.5t-36.5 -25.5q-8 -11 -7.5 -11t13.5 11q19 15 60 26zM108 388v-36l27 30q17 19 29 24.5t41 7.5t44 -1.5t42 -20.5q29 -18 35 -26.5t6 -33.5q0 -22 -10.5 -43.5t-46.5 -75.5q-49 -72 -76 -98.5t-52 -26.5q-17 0 -20 -5t-3 -30
q0 -50 -7 -52q-6 -1 -10 39l-3 22q-1 -6 -2 -72q-2 -102 -9 -102q-12 10 -20 132l-6 -44q-31 -207 -36 -109q-1 34 1 104q3 100 21 180t21 157q4 95 13 106q20 17 21 -26z" />
    <glyph glyph-name="q" unicode="q" horiz-adv-x="498" 
d="M302 -11q19 -28 14 -6q-2 12 -10 32q-7 20 -10 21q-3 0 -5 -7q-5 -14 11 -40zM120 155q2 -5 14 -1q8 2 1 4q-2 1 -5 1q-11 0 -10 -4zM47 160q-3 -5 23 -27q6 -6 7 -5t-11 16q-14 16 -19 16zM181 143q49 28 55 57q-12 -2 -29.5 -21t-25.5 -36zM238 269q-1 -12 3 -11
q5 0 3 13q0 2 -1 3q-2 6 -4 2q-1 -2 -1 -7zM289 218q4 -5 11 10q18 41 15 81q-1 16 -8 22q-8 12 -11 0q-3 -10 -6 -47q-5 -62 -1 -66zM229 290q-2 39 -7.5 52.5t-27.5 27.5q-14 10 -20 6.5t-24 -32.5q-22 -37 -39.5 -87t-12.5 -65q4 -14 30 -18q17 -3 28 3t36 32
q29 29 33.5 39.5t3.5 41.5zM262 350q0 23 -14 35q-10 9 -11 3q0 -4 4 -20q7 -38 16 -36q5 0 5 18zM158 389q0 11 -26 -2q-8 -4 -15 -9q-21 -17 -37 -85t-5 -89q7 -14 12 2q2 7 2 20t15 48t33.5 73t20.5 42zM207 400q-12 2 -3 -10l22 -22q2 7 -4.5 21t-14.5 11zM416 128
q-42 0 -42 -29q0 -19 -9 -19q-6 2 -6 11.5t6 23t14 19.5q26 18 67 -3q18 -9 21 -16t-1 -37q-8 -62 -18.5 -89t-35.5 -46q-22 -17 -30.5 -19t-25.5 5q-47 20 -72.5 63t-33.5 118q-6 50 -8 50q-3 0 -41 -20t-87 -21.5t-68 17.5q-16 16 -16 61.5t16 90.5q16 43 16 57
q0 15 29.5 40t58.5 34q31 10 56 12q37 0 81.5 -50.5t36.5 -101.5q-7 -43 -22 -63q-23 -31 -13 -93t47 -127q17 -31 34 -33.5t42 23.5q16 17 23 32.5t11 45.5q7 40 1.5 52t-31.5 12z" />
    <glyph glyph-name="r" unicode="r" horiz-adv-x="266" 
d="M92 180q2 50 -6 76q-4 13 -5 14l-2 -14v-4q1 -24 13 -72zM176 405q-9 24 -38 1q-12 -9 -4 -11q4 0 18 -1q11 0 16.5 1t7.5 3.5t0 6.5zM186 376q-4 0 -6.5 -5.5t-2.5 -16t1 -19.5t2 -20.5t1 -14.5l-9 38q-7 27 -12 32.5t-23 5.5q-16 0 -23.5 -4.5t-15.5 -18.5
q-11 -26 -8 -35q6 -16 11.5 -118t0.5 -107q-2 -2 -4.5 -1t-4.5 4.5t-3 9.5q-2 9 -6.5 15t-8.5 5q-12 -2 -16 42q-1 5 -3.5 22.5t-6 39.5t-7.5 48t-6.5 50.5t-4 44.5t0 32t6.5 11q8 0 8 -18q0 -12 1 -12.5t8 9.5l2 2q8 11 10.5 10t6.5 -17q6 -22 8 -22t28 28q26 30 48.5 28.5
t46.5 -34.5q25 -32 29 -60q6 -30 -1 -33q-2 -1 -4 3l-3 9q-7 24 -20 45.5t-20 21.5z" />
    <glyph glyph-name="s" unicode="s" horiz-adv-x="362" 
d="M85 104q-16 0 2 -41q16 -37 37 -53q7 -5 31 -8t45.5 -2t21.5 6q0 3 -8.5 8.5t-19.5 8.5q-14 4 -57 40.5t-52 40.5zM180 93q-48 0 -49 -6q0 -2 5 -9q11 -17 46 -35q44 -23 70 -17.5t25 38.5q-1 28 -7 37t-20 1q-16 -9 -70 -9zM158 121q10 0 -4 7q-26 12 -26 6q0 -2 6 -6
q10 -7 24 -7zM263 173q-1 -12 3 -11q5 0 3 13q0 2 -1 3q-2 6 -4 2q-1 -2 -1 -7zM212 283q-14 4 -82 4q68 -29 86 -30q14 -1 13 9q0 12 -17 17zM162 248q-40 33 -54 41q-10 5 -10.5 4t6.5 -12q13 -21 58 -33zM79 365q-1 -12 3 -11q5 0 3 13q0 2 -1 3q-2 6 -4 2q-1 -2 -1 -7z
M128 400q23 15 14 15q-35 -3 -43 -20q-4 -10 0 -10q5 1 29 15zM294 382q0 11 -23 27t-36 15q-15 -1 6 -12l8 -4q33 -16 39 -26q6 -8 6 0zM254 440q-24 15 -84 0q-16 -4 1 -6q9 0 35 -1q51 0 50 4q0 1 -2 3zM110 348q0 -40 76 -50q35 -5 42 -9t8 -21q4 -24 18 -40
q20 -22 27.5 -45.5t10.5 -69.5q4 -54 -4 -74t-37 -34q-23 -11 -69.5 -12.5t-64.5 8.5q-16 7 -35.5 49t-19.5 66t-16 34q-18 11 -16 20q1 6 15 -2q16 -8 19 0q5 5 55.5 -14t53.5 -18q16 0 32.5 20t16.5 40q0 25 -11 34.5t-39 9.5q-46 0 -69 25.5t-30 84.5q-3 26 0.5 36
t22.5 29q30 28 56 33q35 8 72.5 7t51.5 -11q13 -9 37.5 -73.5t17.5 -72.5q-1 -1 -3 0.5t-4.5 5.5t-4.5 9q-11 26 -46.5 53t-71.5 37q-14 5 -52.5 -18.5t-38.5 -36.5z" />
    <glyph glyph-name="t" unicode="t" horiz-adv-x="274" 
d="M139 330q-2 7 -3 -3q-2 -19 1 -20q1 -1 2 3q4 9 0 20zM85 398q0 2 -16.5 115.5t-15.5 116.5q0 10 7 9q8 0 12 -13q1 -4 1 1q1 11 -1 41q-4 53 2 50q9 -5 19 -90q17 -134 20 -135q2 0 5 31q1 5 2 16q6 64 8 74q2 7 2 -7q1 -18 0 -76q-4 -105 2 -114q5 -8 48 8q60 22 63 13
q3 -6 -35 -25q-11 -6 -26.5 -12t-19.5 -9t-10 -8t-5.5 -14.5t1.5 -21.5t6 -36q5 -25 8 -155t7 -153q4 -10 3 -11q-1 0 -4 3q-8 8 -21.5 57.5t-17.5 86.5q-4 40 -12 42q-4 0 -5.5 6.5t-3 12t-7.5 3.5q-3 -1 -5 11t-2.5 35.5t-0.5 41.5v44.5v29.5l-32 6q-33 5 -31 13q2 7 27 7
q28 0 28 6z" />
    <glyph glyph-name="u" unicode="u" horiz-adv-x="344" 
d="M190 80q0 16 -24 0q-7 -7 6 -8q18 0 18 8zM172 64q-18 0 -32 14q-13 12 -13 7q-1 -3 8 -28q7 -20 19 -24t26 9q22 22 -8 22zM283 110q-3 11 -4 -3q-1 -24 2 -24q1 0 2 3q4 11 0 24zM171 96q16 0 23 4t12 17q8 23 6.5 24t-32.5 1q-39 0 -48 5q-13 6 -13.5 1.5t11.5 -28.5
q7 -15 15.5 -19.5t25.5 -4.5zM110 122q6 -1 -24 56q-12 22 -15 22q-2 0 3 -18q8 -28 30 -56q6 -8 6 -4zM79 256q0 -28 7 -44q6 -14 6 -4v12q0 22 -6 44l-6 12q-1 -1 -1 -20zM70 285q1 40 -7 64q-5 13 -6 -5q0 -14 2 -44q5 -65 8 -65t3 50zM270 374q0 30 11 32q5 1 8 -5
q4 -4 -2 -96t-1 -97q4 5 20 -78q13 -73 3 -66q-3 1 -7 8q-6 9 -7 -7q-1 -7 -1 -21q0 -33 -5 -31q-9 5 -20 85q-9 70 -16 70t-7 -15q-1 -12 -22.5 -47.5t-22.5 -45.5q-4 -19 -20 -33q-17 -16 -36 -5t-24 40q-3 28 -19 46q-57 65 -70 252q-3 49 -1.5 59t14.5 11q17 2 22 -18
q5 -19 16 -14q7 2 8 -2t-1 -17q-4 -26 10 -111q11 -64 16.5 -78t24.5 -25q26 -14 51 -7q16 4 22.5 12t12.5 30q10 40 10 102q1 63 10 64q4 1 13 -8q9 -3 10 16z" />
    <glyph glyph-name="v" unicode="v" horiz-adv-x="340" 
d="M294 434q-1 19 8 21q5 2 7 -7q1 -3 1 -9q1 -29 -36 -162.5t-68 -226.5q66 -143 64 -158q-1 -5 -7 -1q-9 6 -34 69q-26 63 -36 63q-5 0 -9 -16q-3 -16 -14 -12q-10 3 -24 -29q-11 -28 -15 -27q-8 5 15 78l22 65q-24 38 -84 176q-72 170 -49 164q1 0 2 -1q10 -6 10 -19t6 0
q3 8 14 -14q10 -19 30 -70q77 -192 86 -192q1 0 2 2t4 13t8 28t9 31q43 152 59 163q5 3 4 -13q-1 -6 -2 -14l-1 -18q2 2 12 38q16 55 16 78z" />
    <glyph glyph-name="w" unicode="w" horiz-adv-x="534" 
d="M375 157q-1 -12 3 -11q5 0 3 13q0 2 -1 3q-2 6 -4 2q-1 -2 -1 -7zM431 181q-1 -12 3 -11q5 0 3 13q0 2 -1 3q-2 6 -4 2q-1 -2 -1 -7zM439 213q-1 -12 3 -11q5 0 3 13q0 2 -1 3q-2 6 -4 2q-1 -2 -1 -7zM401 259q14 39 9 113q-10 -72 -20 -112q-8 -35 -4 -32q4 2 15 31z
M342 -40q-4 4 11 63t13 63q0 18 -5 18q-9 0 -18 -40q-11 -44 -21 -47q-11 -3 10 68l13 52l-27 52q-32 59 -42 61q-6 0 -10 -18q0 -3 -1 -6q-6 -33 -19 -58q-17 -36 -36 -130q-3 -14 -12 -19.5t-18 1t-11 20.5q-4 28 -40.5 115.5t-42.5 109.5q-38 135 -50 135q-9 2 -5 10
q3 6 11 6q11 0 32 -43.5t64 -154.5q13 -32 24.5 -60t18.5 -43t8 -14q10 18 63 207l-23 42q-26 47 -14 44q7 -1 25 -23q13 -16 21 -22t12.5 -3t8.5 14q7 20 32 43q12 10 12 4q0 -7 -16 -39q-16 -30 -15 -45.5t18 -45.5q25 -44 39 -97q4 6 7 13t5 12.5t4.5 14t3.5 13.5
t3.5 16.5t3.5 17t4 21t4 22.5q14 84 16 90q8 21 15 -14q8 -43 4 -78q4 9 13 35.5t17 46t14 26.5q5 3 17 35t18 33q5 -3 -0.5 -48t-14.5 -76q-7 -25 -19 -121t-23 -126q-20 -54 -16 -76q2 -11 1 -12q0 -1 -10 10q-11 15 -24 11q-12 -5 -15 8q-1 5 -6 -6t-11 -34
q-14 -54 -21 -54z" />
    <glyph glyph-name="x" unicode="x" horiz-adv-x="357" 
d="M320 478q11 0 3 -4q-11 -4 -11 -16q-1 -9 -18 -38t-18 -38q-1 -14 -40 -64q-30 -39 -31.5 -55.5t22.5 -54.5q69 -108 69 -118q-2 -2 -14.5 0t-12.5 -4q-4 -12 -37 29q-21 26 -37 55l-20 37q-64 -70 -120 -138q-24 -29 -25 -16q0 16 30 55q34 47 31 54q-1 19 62 86l-22 38
q-55 94 -42 98q4 0 14 -10q5 -5 7 -4t2 11q0 16 20 -19q28 -49 51 -75q2 3 22 34t32.5 49.5t31 45.5t31.5 42.5t20 19.5z" />
    <glyph glyph-name="y" unicode="y" horiz-adv-x="305" 
d="M146 4q-25 -19 -16 -20q13 -1 33 16l4 4q23 20 13 19q-9 -1 -34 -19zM169 104q-6 0 -3 -8q4 -8 13 -8q10 4 -1 13q-6 4 -9 3zM75 248q0 -14 7 -24t7 -4q-1 19 -11 30q-3 4 -3 -2zM266 277q0 -116 8 -119q9 -4 -21 -70q-28 -64 -61 -100t-63 -35q-32 1 -57.5 12t-26.5 24
q-2 22 -10 33q-10 18 -1 22q8 4 8 -4q0 -9 20 -29q18 -18 38.5 -14t66.5 33q57 37 37 47q-6 3 -17 3q-13 0 -25.5 9.5t-36.5 39.5q-37 46 -50 67q-15 28 -22 95t3 81q8 12 51 10q-5 -6 -16 -17t-12 -16t-0.5 -21.5t7.5 -45.5q14 -58 26 -84.5t36 -51.5q25 -26 51 -26
q23 0 28.5 15t9.5 93q0 3 9 118q6 50 12 46q8 -8 8 -115z" />
    <glyph glyph-name="z" unicode="z" horiz-adv-x="799" 
d="M254 94q0 -7 14 -2q15 6 77 20t77 19q26 8 25 10q-1 3 -69 -9q-124 -21 -124 -38zM446 424q0 -8 42 -3q34 4 34 0q0 -2 -5 -6q-14 -12 -31 -43q-15 -27 -72 -88q-59 -63 -127 -150q-8 -10 -6.5 -11t14.5 4q17 7 95 16q129 17 271 41q115 20 107 13q-2 -3 -17 -8
q-27 -10 -38 -24q-10 -16 -93 -30q-168 -30 -248 -51q-22 -5 -22 2q0 4 -35.5 -2t-71.5 -12.5t-35 -4.5q5 10 55 63.5t55 61.5l20 28q-47 -31 -89 -74q-36 -37 -41 -32q-5 6 39.5 51t95.5 88t63 43q8 0 42 46q45 58 42 64q-2 4 -28 -1q-44 -8 -205 -57t-219 -60q-8 0 -8 6
t66 24q81 23 202 65q143 49 147 46q1 0 1 -5z" />
    <glyph glyph-name="braceleft" unicode="{" horiz-adv-x="296" 
d="M161 -141q1 -6 15 -1q9 4 -4 5q-11 0 -11 -4zM250 -132q2 6 -0.5 9t-9.5 2q-39 -5 -37 -16q6 -9 24.5 -7t22.5 12zM150 -128q12 0 -16 26q-29 27 -41 46q-14 22 -13.5 13.5t16.5 -35.5q28 -50 54 -50zM164 546q13 13 9 19q-2 1 -6 -3t-8 -12q-6 -11 -7 -13q0 -2 8 5z
M150 152q21 0 21 -10q-1 -11 -25 -17q-17 -4 -32 -35.5t-22 -75.5q-4 -26 -1.5 -37t17.5 -31q31 -43 50.5 -54t59.5 -6l47 4q-10 -41 0 -45q2 -1 -1 -2q-13 -2 -46 0q-77 4 -114.5 36.5t-45.5 102.5q-4 32 -0.5 49t19.5 52l24 52q-23 14 -71 42q55 39 73 39q15 0 15 6
q0 7 -31 37q-34 33 -32 17q1 -6 9 -21q8 -14 4 -25q-3 -9 -13 12q-16 38 -16 69q0 29 17 81.5t36 78.5q6 8 32 54.5t40 57.5q11 10 22 7q7 -2 9 -6.5t-0.5 -12t-10 -18t-20.5 -24.5q-36 -40 -57 -81q-17 -37 -28 -44q-7 -4 -7.5 -33.5t4.5 -57.5q6 -27 32 -53
q19 -19 28.5 -22.5t32.5 -0.5q27 5 28 1q1 -3 -6 -9q-18 -18 -124 -51q55 -26 83 -26z" />
    <glyph glyph-name="braceright" unicode="}" horiz-adv-x="77" 
d="M41 -18q-2 -11 -5 48q-9 236 -5 473q1 77 5 61q8 -8 11 -302q2 -280 -6 -280z" />
    <glyph glyph-name="asciitilde" unicode="~" horiz-adv-x="353" 
d="M256 136q-7 16 -12.5 24t-7.5 7t-0.5 -10.5t6.5 -26.5q15 -46 24 -166v46v49t-2.5 44.5t-7.5 32.5zM228 249q1 -16 10 2t5 18q-7 7 -13 -8q-2 -6 -2 -12zM177 504q-3 0 0 -13t9 -27.5t10 -18.5q8 -8 7.5 -2t-11.5 32q-11 29 -15 29zM287 232q26 0 31 -3t5 -15
q0 -8 -8 -14.5t-16.5 -10t-23.5 -8.5t-19 -7l16 -33q28 -57 18 -131.5t-49 -98.5q-26 -16 -71 -15q-19 2 -18 8q3 8 29 8q49 0 63 41q20 57 -8 145q-16 48 -16 63q0 4 5 9.5t14 10.5t17 9.5t18 9.5l14 7h-28q-31 1 -37 13t0 58l7 54q-56 96 -74 138q-7 20 -33 55
q-19 28 -40 34.5t-37 -9.5q-9 -9 -15 -3t17 29t44 19q20 -4 24 -13q3 -8 37 -40q32 -28 63 -91q19 -40 24 -62t6 -77l2 -80h39z" />
    <glyph glyph-name="uni0093" horiz-adv-x="513" 
d="M237 313q-4 19 -29.5 30.5t-54.5 7.5q26 -5 38 -12t31 -32q7 -9 13.5 -16.5t11 -11.5t5.5 -3q1 4 -8 17t-7 20zM381 215q0 -8 -18 -24.5t-33 -22.5q-41 -16 -55.5 -4.5t-29.5 70.5q-10 38 -34 70t-43 32q-16 0 -34 -16.5t-61 -71.5q-40 -53 -43 -38t15.5 50.5t46.5 66.5
q23 26 33.5 31t48.5 5q36 0 48 -3.5t26 -19.5q14 -14 17.5 -27.5t3.5 -49.5q0 -43 9 -61t30 -18q15 0 89 100q37 48 58 72t25 20q9 -9 -10 -44t-51 -70q-38 -42 -38 -47z" />
    <glyph glyph-name="uni0094" horiz-adv-x="312" 
d="M66 482q5 1 1 17q-4 11 -9 -2q-7 -10 0 -16q3 -4 8 1zM45 504q4 -1 6.5 4.5t1.5 12t-3 7.5l-5 -5q-9 -17 0 -19zM77 549q0 7 -12 1q-6 -2 -8 -6q-2 -5 3 -4q1 0 4 1q13 4 13 8zM117 532q0 -20 8 -24q8 -5 24 -37t16 -43q0 -13 -5 -12q-8 0 -18 28q-8 22 -15.5 26.5
t-37.5 3.5q-40 -1 -50 5.5t-8 34.5q4 36 14 40q18 7 34 7t27 -8t11 -21zM212 504q6 -1 8.5 6.5t-2.5 9.5t-9 -8q-3 -7 3 -8zM254 600q7 0 -1 -15q-19 -35 10 -75q22 -31 19 -59q-2 -11 -10 -8q-6 3 -10.5 -4t-9 -15t-8.5 -8q-5 0 -6.5 6t1 12.5t7.5 7.5q10 3 4 32
q-9 47 -25 21q-5 -8 -17 -4q-6 4 -13.5 -5t-13.5 -19.5t-10 -10.5q-6 0 3 17q9 14 15 40q8 23 -5 23q-12 0 -7 8q4 6 10 4t11.5 -0.5t4.5 10.5q-1 13 16 16q20 4 24 15t11 11z" />
    <glyph glyph-name="cent" unicode="&#xa2;" horiz-adv-x="511" 
d="M157 184q-13 0 -4 -6q3 -3 9 -5q8 -3 8 1q-1 7 -9 10q-2 1 -4 0zM176 192q13 0 66 82q15 23 9 20q-9 -3 -45 -44q-45 -51 -38 -56q2 -2 8 -2zM96 258q-5 54 -8 49q-1 -3 -2 -31q-2 -35 7 -50q3 -4 4 3q1 8 -1 29zM302 341q0 11 -17 -11q-6 -7 -7 -9t2 0q2 1 8 6
q14 12 14 14zM130 350q10 16 8 17.5t-16 -12.5q-15 -15 -13.5 -76t17.5 -80q16 -21 15 -6q-1 9 -11 33q-12 28 -12 67.5t12 56.5zM298 379q4 10 -14 13q-38 7 -90 -14q-8 -3 -14 -6q-36 -19 -45.5 -37.5t-4.5 -58.5q6 -55 18 -57q13 -2 63 55q6 6 13 14q70 79 74 91z
M230 409q9 5 -1 6q-3 1 -8 1q-18 0 -36 -12q-11 -9 -8 -10q2 0 17 3q27 6 36 12zM198 182q38 -38 103 -38q46 0 74.5 12t52.5 41q25 30 30 25q7 -7 -8.5 -29.5t-39.5 -38.5q-23 -16 -39 -18.5t-73 -1.5q-92 2 -104 4q-15 1 -24 -5t-28 -31q-29 -37 -70 -117q-11 -3 -6 13
q2 8 12 28q9 19 7 20q-3 0 16.5 27t39 54.5t17.5 27.5q0 25 -55 -35q-8 -9 -17 -20q-23 -26 -38.5 -41.5t-16.5 -14.5q-4 3 5 14.5t53 63.5l39 46l-20 22q-30 32 -36 56.5t6 67.5q7 25 23.5 43t55.5 44q57 38 135 16q19 -5 24.5 -2t17.5 27l45 84q29 52 33 49q5 -4 -35 -81
q-66 -127 -33 -95q19 19 71 91q56 78 64 78q12 0 -53 -83q-19 -25 -16 -26q2 0 9 4q23 12 22 7q-2 -7 -41 -42l-49 -44q47 -44 47 -59q0 -12 -4 -12t-32 24l-28 25q-28 -32 -80 -100.5t-56 -79.5z" />
    <glyph glyph-name="sterling" unicode="&#xa3;" horiz-adv-x="409" 
d="M154 119q-23 0 -56 -23q50 10 60 17q0 6 -4 6zM245 325q3 5 -50 2q-31 -2 -29 -7q0 -3 18 -3.5t37.5 2.5t23.5 6zM200 528q-19 0 -38 -20t-20 -40q-3 -53 3 -49q3 2 9 25q11 40 36 62q21 21 10 22zM374 478q0 -8 -18 5q-22 15 -53.5 30t-43.5 15q-16 0 -43.5 -17
t-35.5 -33q-11 -21 -19.5 -63t-4.5 -57q4 -13 17 -15.5t69 -4.5q78 -2 97 -3.5t19 -6.5q0 -6 -66 -15q-43 -6 -64 -9.5t-34.5 -6.5t-16 -5.5t-0.5 -6.5q3 -8 18 -71q6 -27 10 -37.5t10 -21.5t21 -13.5t31.5 -4.5t52.5 -2q59 -1 59 -4q0 -1 -13 -5q-24 -8 -82 -4
q-45 4 -68.5 -1.5t-43.5 -24.5q-15 -14 -43 -20.5t-37 2.5q-10 11 -4 29.5t22 26.5q24 12 87 10q-28 45 -34 95q-6 44 -9 47q-4 2 -17 0.5t-38.5 -6.5t-50.5 -13q-17 -5 -18 4q0 8 11 9q10 1 26.5 16.5t26.5 17.5q34 7 40.5 22.5t-1.5 67.5q-8 57 -1 82t36 42q17 10 36 13
t66 2q68 -2 52 -6l-24 -5q72 -40 76 -54z" />
    <glyph glyph-name="section" unicode="&#xa7;" horiz-adv-x="804" 
d="M422 267q0 -12 -3.5 -15.5t-14.5 -1.5q-16 2 -19 11.5t9 21.5t20 7.5t8 -23.5zM456 -45q3 -3 7 6q6 15 2 15q-2 0 -7 -9t-2 -12zM406 -104q0 12 23.5 54t24.5 46q4 17 27 60t27 60q-28 -1 -70.5 0t-83.5 -0.5t-44 -7.5q-8 -10 0.5 -51t18.5 -41t43 -70q28 -59 33 -54
q1 1 1 4zM442 160q1 1 2 4q1 4 0 3q-4 -2 -22 -7l-14 -6q1 0 12 -1q18 -2 22 7zM364 160q-20 10 -40.5 36.5t-31.5 51.5q-2 4 -3 -3q-2 -9 -1 -31q4 -47 11 -54q10 -7 95 -17zM518 201q0 17 -0.5 31.5t-1.5 22.5v8q-2 0 -30 -57q-9 -18 -14.5 -28t-9.5 -17t-11 -10
l-10.5 -4.5t-17 -3.5t-21.5 -4q66 -11 94 -5q16 3 19 11.5t3 55.5zM479 285q-1 -12 3 -11q5 0 3 13q0 2 -1 3q-2 6 -4 2q-1 -2 -1 -7zM268 290q-2 16 -3 -2q-3 -51 1 -57l2 7q4 26 0 52zM444 350q-15 16 -35 17.5t-37 -10t-31 -30.5t-18 -43t3 -48q13 -42 58 -55.5t74 14.5
q14 13 16.5 26t-2.5 38t-6 37q-2 34 -22 54zM743 234q-107 97 -153 121l-52 28q2 -106 11 -134q4 -16 -0.5 -55.5t-2.5 -47.5q10 -10 126 51zM406 384q57 0 90 -52q9 -13 11 -14q1 0 0 4q-3 5 -3.5 19t-3 24.5t-10.5 10.5q-9 1 -13 13t-12 14q-15 5 -84 4.5t-78 -6.5
q-11 -8 -14 -63q-1 -42 2 -40q1 0 1 2q11 38 42.5 61t71.5 23zM432 418q13 2 -3 3q-41 3 -38 -1q0 -1 5 -2q18 -4 36 0zM366 582q0 -10 -28 -51q-32 -46 -38 -112q12 2 54 8t74.5 11t40.5 7q4 9 -22 95t-40 110q-3 3 -13 -11t-19 -31.5t-9 -25.5zM406 706q0 14 6 14
q13 0 57 -102t56 -160q7 -30 12.5 -40t17.5 -13q25 -7 85.5 -51t83.5 -73q29 -39 40 -35q5 2 7.5 -3.5t2.5 -16.5q0 -16 -8 -24t-40 -25q-37 -20 -84 -35t-50 -7q0 2 -9.5 2t-20.5 -4q-17 -5 -25.5 -14t-16.5 -31q-14 -35 -12 -45q-1 -12 -13.5 -40t-35.5 -73t-27 -52
q-19 -40 -29 -38q-5 2 -5 13t-8 7q-8 -3 -24 30q-33 67 -52 83q-10 9 -22.5 57.5t-17.5 57.5q-13 22 -8 32q3 5 -6 7q-5 1 -13 1q-21 0 -90 24t-99 41q-28 17 -28 31q0 11 15 4q11 -4 40 -21q55 -32 118 -43t65 -9q3 2 -6 30q-8 28 -8 117v24q1 56 -9 60.5t-69 -24.5
q-15 -8 -24 -12q-73 -36 -122 -94v22q0 14 12 26.5t54 40.5q64 43 116 58q34 10 42.5 16.5t12.5 23.5q8 35 29 81t38 64q23 25 47.5 65t24.5 53z" />
    <glyph glyph-name="copyright" unicode="&#xa9;" horiz-adv-x="546" 
d="M249 171q-27 -4 -42 5q-13 6 -12.5 3.5t16.5 -15.5q19 -17 37.5 -18t21.5 16q1 9 -3 10.5t-18 -1.5zM328 448q-6 0 6 -24q9 -15 14 -16q2 -1 3 2q1 7 -7 21q-8 17 -16 17zM344 367q0 19 -13.5 41.5t-27.5 27.5q-10 4 -21.5 -3t-35.5 -30q-36 -35 -49 -62.5t-13 -68.5
q0 -43 9 -57.5t37 -14.5t38.5 6.5t15.5 27.5q6 26 15 26q5 0 5 -13q0 -10 2 -11.5t10 4.5q12 10 12 3q-1 -10 -20 -33q-17 -20 -26 -46q-4 -15 -11 -19.5t-25 -6.5q-19 -1 -28 3.5t-26 24.5q-36 43 -38 90t30 116q17 38 36 56t58 32q28 10 41.5 10.5t26.5 -9.5
q15 -12 19 -50.5t-9 -49.5q-6 -5 -8 -6t-3 1.5t-1 10.5zM278 106q14 2 -3 3q-48 3 -48 -1q1 -1 7 -2q21 -4 44 0zM472 234q8 13 4 24q-4 14 -4 0q0 -4 -5 -24l-2 -10q1 1 7 10zM464 270q11 47 5 46q-4 -1 -13 -26q-9 -27 -34 -68t-46 -65q-33 -37 30 9q23 17 35.5 39
t22.5 65zM159 520q-3 0 -43 -34q-29 -26 -49 -59t-19 -55q1 -11 7 5q1 3 2 7q14 52 74 106q32 30 28 30zM391 528q-6 0 -6 -2q1 -4 31 -34q28 -28 30.5 -25t-23.5 33q-26 28 -32 28zM191 504q-14 0 -55 -37q-37 -34 -50.5 -73.5t-13.5 -114.5v-69l31 -28q60 -54 173 -54
q40 0 51.5 4t29.5 22q62 62 115 208q-32 92 -69 127q-27 26 -40 31t-62 6q-67 3 -81 -9q-20 -13 -29 -13zM508 218v236q-31 48 -64 73.5t-88 22.5h-40q63 -6 93 -21t51 -63q15 -34 20 -57.5t6 -85.5l3 -96q-3 -4 -15.5 -17.5t-18 -19l-17 -17t-19 -17.5t-18.5 -14.5
t-21 -13.5t-21 -9q-54 -17 -53 -26q1 -7 30 -3q34 4 79.5 33t68.5 61zM516 336q0 -95 -2.5 -115t-20.5 -44q-26 -36 -72 -65.5t-94 -29.5q-158 0 -262 97l-35 33q1 12 1.5 44t1.5 54t3.5 49t6.5 44.5t10 24.5q19 37 60 71.5t91 54.5q36 14 116 12q75 -2 111 -17.5t62 -54.5
q17 -25 20 -46t3 -112z" />
    <glyph glyph-name="guillemotleft" unicode="&#xab;" horiz-adv-x="381" 
d="M215 345q0 -18 -46 -66t-71 -56l-28 -9l31 -14q29 -13 63.5 -45t34.5 -46q0 -11 -23 11l-10 10q-41 44 -131 74q-13 4 13 19q10 5 29 14q79 38 114 105q12 24 20 16q4 -3 4 -13zM319 128q10 -13 13.5 -4.5t-7.5 18.5q-13 13 -14 4q0 -6 8 -18zM317 368q12 0 -18 -43
q-18 -28 -12 -28q8 -1 33 31q26 33 30 29q6 -7 -20 -35t-59 -51l-47 -33q73 -62 95 -78q19 -14 22 -31t-2 -40q-97 97 -139 119q-39 21 -28 29q4 4 17 7q47 11 94 80q31 44 34 44z" />
    <glyph glyph-name="degree" unicode="&#xb0;" horiz-adv-x="262" 
d="M125 450q14 3 -1 7q-3 0 -6 1q-17 3 -16 -2q1 -6 14 -7q5 -1 9 1zM131 472q17 0 23 6t-5 17q-10 10 -25 -7q-5 -5 -6.5 -7.5l-3 -5t1.5 -3t5.5 -0.5h9.5zM168 510q0 29 -13 9q-4 -9 4 -17q9 -9 9 8zM114 536q-7 0 -17.5 -24.5t-5.5 -29.5q4 -4 14 3.5t16.5 19t4.5 18.5
q-6 13 -12 13zM79 519q10 42 5 47q-3 3 -8 -8q-12 -29 -10 -57q1 -13 2.5 -14t4.5 9q2 7 6 23zM153 534q16 18 -7 36q-20 16 -31 5l-2 -2q-9 -10 10.5 -29.5t29.5 -9.5zM128 600q8 0 15 -1.5t11 -3t9.5 -6.5t7 -6.5t7 -9t6.5 -8.5q36 32 43 30q4 -6 -14 -20q-19 -15 -23 -61
q-4 -31 -1.5 -44.5t19.5 -35.5q26 -34 23 -41.5t-19 13.5q-8 9 -14 22l-23 35q-2 -1 -8.5 -6.5t-9 -7l-10 -6t-10.5 -5.5t-11 -4t-11.5 -1.5t-12.5 1.5q-18 4 -25.5 0t-19.5 -19q-18 -23 -26 -23q-7 0 16 30q16 21 18 29.5t-6 27.5q-7 18 -7 29.5t7 33.5q8 25 7 31.5
t-12 14.5q-16 12 -5 12q8 0 23 -8q15 -9 20 0q4 8 36 8z" />
    <glyph glyph-name="uni00B5" unicode="&#xb5;" horiz-adv-x="802" 
d="M244 10q-2 7 -3 -3q-2 -19 1 -20q1 -1 2 3q4 9 0 20zM451 134q21 9 -10 10q-37 1 -36 -4q-5 -5 -40 -12l-22 -6q2 -1 40 1q51 3 68 11zM203 173q-38 21 -72 32q-26 9 -26 7q-1 -1 9 -9q18 -15 58 -33t54 -17q13 0 -14 15q-4 2 -9 5zM716 212q0 -14 -22 -17.5t-41 7.5
q-17 9 -28 5.5t-56 -29.5q-74 -43 -116.5 -55t-111.5 -9q-77 4 -77 -5q0 -4 7 -11q9 -9 8.5 -71t-9.5 -67q-11 -6 -57 12l12 155q-57 8 -126 51.5t-69 70.5q0 9 4 9q7 0 167 -72q58 -26 77.5 -30t70.5 -2q67 3 113 23q122 55 147 57q13 2 13 18q0 10 2 11q1 0 5 -6
q4 -18 41 13q19 15 16 18q0 6 15 10q11 3 45 5q25 1 24 -5q-1 -7 -32 -12q-12 -1 -12 -2q-1 -2 19 -1q29 1 27 -7q-4 -9 -35 -9q-33 0 -58 -21q-25 -20 -23.5 -25.5t29.5 -1.5q13 2 19.5 2t9 -2t2.5 -7z" />
    <glyph glyph-name="guillemotright" unicode="&#xbb;" horiz-adv-x="404" 
d="M314 240q4 7 2 7t-22 -16q-13 -10 -13.5 -11.5t11.5 3.5q18 9 22 17zM182 365q0 10 2 9.5t10 -11.5q12 -16 12 -25q0 -8 25 -27.5t54 -34.5q20 -10 27 -10.5t24 9.5q22 13 22 6q2 -4 -11 -12q-2 -1 0 -1t9 1q22 5 17 -4q-7 -11 -51 -37q-82 -49 -97 -103q-4 -18 -10 -17
q-2 1 -3 2q-8 8 10.5 48t41.5 64l24 24l-23 12q-31 16 -57 50t-26 57zM180 208q6 0 13.5 8.5t14.5 7.5q8 0 -6 -16t-26 -16q-15 0 -49 -22t-48 -40q-17 -24 -22 -45q-4 -18 -10 -17q-2 1 -3 2q-10 10 7 41.5t47 60.5l37 35l-28 25q-27 24 -52 73.5t-25 80.5q1 28 8 26
q6 -2 8 -27t6 -27q7 -2 20 -32q13 -28 51 -56.5t63 -29.5h24l-20 -16q-20 -16 -10 -16z" />
    <glyph glyph-name="questiondown" unicode="&#xbf;" horiz-adv-x="332" 
d="M292 -43q6 15 1 14q-6 -1 -22 -21q-17 -20 -15 -21q2 0 13 6q20 12 23 22zM62 28q-2 -59 20 -80q24 -23 32 -20q5 2 -6 14q-10 12 -46 86zM185 -46q-52 56 -66 107v2l-6 19q-1 -1 -2 -36q-1 -37 9 -54t52 -50q25 -20 28 -13q3 6 -15 25zM110 120q15 38 12 39q-2 1 -10 -9
q-11 -13 -19 -52t-5 -66l4 -36q-3 68 18 124zM139 350q2 -6 5 -9q4 -4 5 2q0 5 -6 11q-6 5 -7 4.5t3 -8.5zM174 360q11 22 4 22q-4 -1 -14 -8q-15 -10 -7 -21q7 -11 17 7zM161 397q12 4 7 13q-7 10 -16 4q-4 -2 -6 -7q-10 -13 4 -13q5 1 11 3zM129 417q20 16 5 15
q-15 0 -21 -9q-1 -2 -1 -3q-6 -18 3 -14q5 2 14 11zM249 456q7 0 -21 -30q-30 -32 -30 -52t-11 -29q-11 -10 -12 -75q0 -36 7 -34q12 8 12 -6q0 -13 -11 -25q-17 -19 -33 -61t-16 -70q0 -40 35.5 -87t59.5 -39q18 5 36.5 43t14.5 63q-4 23 4 25q7 2 13 -17q5 -25 5 -68
q0 -32 -3 -43t-16 -21q-32 -25 -107 -22t-104 30q-25 23 -17.5 84.5t43.5 141.5q23 49 36 64q12 13 17 33.5t1.5 35.5t-14.5 15q-10 0 -22 12q-8 7 -15.5 5t-27.5 -17q-40 -27 -43 -16q0 7 37 31q33 21 24 26q-1 0 -3 1q-14 3 -4 7q3 1 8 3q16 5 16.5 8.5t-10.5 29.5
q-18 45 -7 43q2 0 5 -2q7 -4 39.5 -4.5t37.5 -8.5q7 -11 24 -8t30 19q13 15 22 15z" />
    <glyph glyph-name="Agrave" unicode="&#xc0;" horiz-adv-x="425" 
d="M350 144q8 -10 8 -3q-1 11 -8 19q-8 10 -8 3q1 -10 8 -19zM146 296q-4 0 -19 -26t-13 -28q3 -3 8 0t10.5 11t8.5 19l4 12t2 9t-1 3zM218 240q75 0 76 -7q0 -4 -13 -11q-13 -3 0 -4q3 -1 6 -1h22q-10 23 -29 71.5t-35.5 87.5t-27.5 58q-15 -33 -71 -180q-4 -10 10 -12
q11 -2 62 -2zM158 586q2 7 13 -6q11 -16 22 -14q4 1 9 -6t8 -18q9 -27 23 -24q11 2 13 -5t-8 -13q-8 -5 8 -34q6 -10 38 -90t44 -95q20 -24 13 -30q-2 -2 -7 1t-4 -3q0 -16 19 -40q4 -5 7 -7q12 -10 5 -10q-9 0 9 -54q18 -57 23 -77t-1 -21q-5 0 -33 57t-36 85
q-5 17 -22.5 22t-89.5 9l-83 5q-27 -59 -87 -145q-4 -4 -7 1q-5 5 11 28q21 29 43 69t19 43q-9 9 -36 -36l-6 -10q-23 -41 -32 -41q-11 1 13 49q15 30 11 48q-4 16 10 16q15 0 66 86t72 144q-2 5 -16 35t-22.5 51.5t-8.5 29.5zM142 690q0 15 34 -21q12 -13 31 -35
q91 -105 86 -110q-3 -4 -41 34.5t-74 81.5t-36 50z" />
    <glyph glyph-name="Aacute" unicode="&#xc1;" horiz-adv-x="439" 
d="M363 149q-1 -12 3 -11q5 0 3 13q0 2 -1 3q-2 6 -4 2q-1 -2 -1 -7zM316 218q7 2 -3 3q-19 2 -20 -1q-1 -1 3 -2q9 -4 20 0zM164 219q2 -6 16 -1q7 3 0 4q-2 1 -5 1q-11 0 -11 -4zM282 370q0 -10 18.5 -62t22.5 -52q2 0 2.5 3.5t-2.5 13.5l-7.5 25t-13.5 40q-15 41 -19 37
q-1 0 -1 -5zM178 246q4 -4 27 -3.5t53 4t37 7.5q5 5 -2 33t-19 64.5t-14 43.5q-33 -64 -58 -105q-24 -39 -24 -44zM238 392q-4 0 -52 -73.5t-46 -76.5q1 -1 5.5 4.5t11.5 15t15.5 21.5t18 25t17.5 25.5t15 23.5t10 17q2 5 4 9t2 6.5t-1 2.5zM305 408q0 22 -7 32
q-3 5 -4.5 6.5t-2.5 -1t0 -9.5q0 -16 7 -32q4 -9 5 -10l2 12v2zM378 256q15 0 20.5 -3.5t0.5 -8.5t-19 -10l-22 -9q1 -1 9 -3q21 -6 21 -10q0 -2 -3 -4q-6 -5 -5.5 -15t9.5 -39q9 -27 13 -42.5t6 -24.5t1 -12t-5 -3q-5 0 -11.5 14.5t-14 28t-14.5 10.5q-9 -1 -15.5 12
t-13.5 49q-4 16 -12 19t-48 3q-43 0 -90 -5q-27 -4 -37 -14.5t-44 -71.5q-46 -85 -46 -91q0 -10 -8 -10t-8 18q0 14 8 32t50 92q39 70 24 66q-5 -2 -20 -18l-16 -18q7 18 4.5 28.5t-29.5 14.5l-33 7q56 0 82 2q83 123 117 168q14 18 16 28t-2 30q-7 30 1 35q3 3 7 -6
q2 -3 3 -7q7 -22 19 -10q8 7 21 27q21 34 30 25t-6 -32q-9 -16 -8.5 -32.5t10.5 -77.5q16 -89 25.5 -110.5t32.5 -21.5zM216 536q-5 0 -29.5 -16t-31.5 -16q-11 0 19 22q24 16 82 76q49 53 83 58q30 5 36 13q3 7 12 7q28 0 -34 -42q-2 -2 -5 -4q-17 -12 -65.5 -49.5
t-66.5 -48.5z" />
    <glyph glyph-name="Acircumflex" unicode="&#xc2;" horiz-adv-x="488" 
d="M122 184q7 14 5.5 15.5t-8.5 -7.5q-15 -21 -10 -24q4 0 13 16zM182 320q-4 0 -24 -40.5t-20 -48.5q0 -17 15 15q5 10 13 28q9 22 13 34t3 12zM307 281q-8 13 -31 64.5t-25 56.5q-1 1 -3 -2t-5.5 -9t-7 -14.5t-8 -19.5t-8.5 -23q-37 -102 -31 -102q1 0 3 2q2 3 64.5 9.5
t64.5 7.5q3 5 -13 30zM206 385q12 22 9 22q-3 1 -20 -28q-12 -20 -10 -22q3 -4 14 13q4 8 7 15zM412 268q42 6 45 0q1 -3 -5 -6q-13 -7 -40 -10q-52 -6 -55.5 -15.5t26.5 -65.5q35 -68 35 -79q0 -13 -6 -12q-8 1 -13 22q-7 31 -68 136l-47 -8q-90 -14 -103 -21t-31 -38
q-3 -6 -5 -9q-32 -56 -37 -56q-3 1 1 18q5 17 3.5 18.5t-13.5 -9.5q-15 -13 -25 -42q-11 -27 -18 -27q-5 2 -4.5 15t7 35.5t16.5 44.5q15 36 15 40q2 4 -11 4q-6 0 -21 -1q-28 -1 -29 1q0 2 5 4q11 9 37 9q17 0 25 7t21 37q20 45 65 121q31 52 37 68.5t0 32.5q-10 31 -2 29
q5 -1 13 -12t10 -9.5t3 18.5l2 15q1 -1 2 -9q1 -7 5 -11t7 -2q5 2 5 -8q0 -7 -2 -22q-3 -23 3 -45t30 -78q23 -53 34 -70.5t21 -16.5q36 4 62 7zM324 576q-4 -4 13 -20q7 -6 7 -3q0 2 -6 11q-12 12 -14 12zM192 587q11 8 16 16q3 5 1 5q-5 1 -20 -18l-15 -18zM266 702
q4 17 11 7q5 -8 5 -23q0 -29 30.5 -71t55.5 -49q27 -7 27 -17q0 -5 -12 -5q-11 0 -15 -9q-5 -16 -40 19q-26 27 -41 57q-19 37 -25 37q-3 1 -6 -7q-5 -15 -67.5 -78t-77.5 -69q-16 -6 -15 1q2 14 66 83q74 79 77 100q2 4 3.5 10.5t2 10t2.5 6.5t4.5 2.5t7.5 -4.5q7 -11 7 -1
z" />
    <glyph glyph-name="Adieresis" unicode="&#xc4;" horiz-adv-x="414" 
d="M208 370q5 30 1 29q-2 0 -8 -17q-6 -19 -32.5 -65.5t-34.5 -64.5l-17 -40q31 29 57.5 74.5t33.5 83.5zM193 394q13 25 10 36q-2 12 -7 -3q0 -2 -1 -5q-5 -16 -11 -36q-1 -5 1 -4q2 2 8 12zM61 101q0 -8 -16 -19q-15 -9 -15 -4q1 4 15 32q11 21 18 55.5t25 61.5
q33 49 76 163.5t36 132.5q-2 8 -1 9.5t8 -0.5q6 -2 13 6t18 28q14 29 18 29q2 0 3 -9q4 -18 -8 -32q-20 -23 -24 -40t3 -40q10 -31 20 -36t32 -76q18 -62 49 -120q27 -50 24 -60t15 -50q22 -46 12 -44q-4 0 -13 13q-24 34 -76.5 137.5t-65.5 148.5q-23 -83 -67 -143
q-99 -134 -99 -143zM127 608q-13 0 -15.5 5t-0.5 25q4 31 10 36q10 6 30 4q14 -2 17 -5t-1 -17q-6 -21 -4 -43q1 -18 -3 -18q-1 -1 -5 3q-10 10 -28 10zM279 662q2 35 4.5 41t17.5 5q22 -2 26 -2q4 -2 8 -42q2 -30 -0.5 -35t-15.5 -1q-20 4 -31 -5q-9 -7 -10 6q0 8 1 33z
" />
    <glyph glyph-name="Aring" unicode="&#xc5;" horiz-adv-x="492" 
d="M49 106q1 -9 23 31q40 74 38 82q-2 2 -9 -8t-16 -26t-17.5 -32.5t-14 -30t-4.5 -16.5zM303 330q0 9 -12 27q-8 11 -8 8t5 -19q9 -26 13 -26q2 0 2 10zM241 442q-7 22 -20 2q-6 -9 -16 -30q-14 -29 -31 -86t-13 -61q1 -1 72 3q25 2 37 3t20.5 3t8 4.5t-0.5 6.5
q-39 98 -57 155zM407 110q0 -14 -10 -3q-8 9 -13 27q-13 34 -36 74q-20 33 -28.5 38.5t-41.5 7.5q-43 4 -85 -2q-28 -4 -37.5 -9t-17.5 -21q-21 -43 -59 -104.5t-43 -61.5q-9 6 -1 43.5t30 92.5t43 84q18 25 39 76q63 149 78 154q11 4 64 -80.5t106 -189.5q38 -77 60 -114
q10 -17 6 -23q-15 -15 -43 41q-9 17 -20 43q-35 82 -38 76q-2 -4 13 -45q34 -89 34 -104zM249 560q-33 0 -30 -8q5 -8 22.5 -8t29.5 8q9 6 -6 8h-16zM231 588q8 12 2 12q-10 -1 -18 -12q-8 -12 -2 -12q10 1 18 12zM311 610q1 22 -3 22q-2 0 -17 -20q-1 -2 -2 -3
q-12 -15 -12.5 -21t7.5 -13q17 -15 24 11q3 10 3 24zM268 627q-17 -14 -11 -14q11 0 25 14q5 5 4 8q-3 3 -18 -8zM211 632q12 -8 12 -2q-1 10 -12 18q-12 8 -12 2q1 -10 12 -18zM177 656q-2 0 -2 -36q0 -28 9 -35t23 10q9 12 -9 36q-18 25 -21 25zM143 616q5 43 4 46
q-3 4 -6 -6q-6 -19 -5 -50q0 -3 1 -9l1 -14q1 2 3 18q1 9 2 15zM274 670q-17 9 -41 13t-28 -1q-4 -14 39 -57l23 18q9 8 12.5 11t4.5 6t-1.5 5t-8.5 5zM359 673q0 -7 -16 -11q-10 -2 -13 -10t-3 -30q0 -39 -8 -58q-8 -22 5 -40q12 -20 5 -23q-8 -4 -17 14q-8 13 -19 15
t-60 1q-14 0 -34.5 -0.5t-30.5 -1t-11 -0.5q-8 -4 -38 -29q-38 -32 -38 -23t38 43q38 33 35 38q-1 3 -9 5q-20 2 -18 50t14 59q16 25 10 60q2 -3 7.5 -11t9 -12t11 -7.5t14.5 3.5q19 12 54.5 5t55.5 -26q22 -22 27 -13q3 5 10 7.5t13 1t6 -6.5z" />
    <glyph glyph-name="AE" unicode="&#xc6;" horiz-adv-x="670" 
d="M297 238q-2 9 -3 -2q-3 -30 1 -30q1 0 2 4q4 13 0 28zM293 285q-1 -12 3 -12q5 1 2 12q0 3 -1 5q-3 4 -4 -5zM173 306l9 15q26 53 19 53q-3 3 -21 -42q-8 -21 -7 -26zM276 264q0 158 -2 168q-4 -7 -24.5 -49.5t-34.5 -62.5q-25 -36 -20 -46t47 -10h34zM224 448
q-4 0 -12.5 -17t-5.5 -20q1 -3 7 7q15 27 11 30zM276 485q0 32 -18 -13q-9 -20 -19 -53q-25 -74 -18 -69q7 7 31 65.5t24 69.5zM266 534q8 -8 10 6q4 20 8 20q8 0 8 -18q1 -18 11 -4q14 19 19 13q2 -3 -1 -11q-2 -7 3.5 -8.5t25.5 0.5q51 6 224 12q-25 -21 -42.5 -27
t-68.5 -9q-71 -4 -155 -13v-73q0 -68 7 -82t38 -6q44 12 106 19.5t82 2.5q19 -4 19 -8q-1 -9 -214 -41q-24 -4 -29.5 -15.5t8.5 -25.5q10 -10 1 -10q-6 0 -14 -67.5t-3 -72.5q4 -4 75 12q62 14 256 14q-19 -2 -76 -5.5t-86.5 -6t-69.5 -9t-64 -15.5l71 4q19 1 30.5 1h20.5
t12.5 -1.5t2.5 -3.5q-6 -6 -92 -13t-91 -11q-30 -9 -82 3q49 19 53 19q7 8 7 146l-48 -4q-46 -3 -43 3q3 7 -4 7q-3 0 -11.5 -9t-14.5 -21q-9 -17 -46.5 -63.5t-55.5 -66.5q-2 -2 -9 8q-4 5 -5.5 6.5t-2 0t-1.5 -6.5q0 -14 -5 -2q-4 11 32 52q27 32 67.5 110.5t55.5 128.5
q10 34 31 66q17 26 13 28q-2 1 -10 1q-9 0 -9 3q0 4 19 23q29 29 37 20z" />
    <glyph glyph-name="Ccedilla" unicode="&#xc7;" horiz-adv-x="508" 
d="M246 39q-14 0 -24 -7t-3 -7.5t23 7.5q14 7 4 7zM280 114q7 2 -3 3q-19 2 -20 -1q-1 -1 3 -2q9 -4 20 0zM296 123q2 -6 16 -1q7 3 0 4q-2 1 -5 1q-11 0 -11 -4zM382 164q17 17 15 18.5t-27 -12.5q-27 -15 -80 -35q72 8 92 29zM65 192q-5 10 -15 92l-6 -35q-4 -23 -2 -32
t13 -20t11 -8q1 0 -1 3zM81 228q9 56 0 104q-19 -37 0 -104zM400 480q-3 -5 20 -26q8 -7 9 -6q0 2 -11 16q-14 16 -18 16zM238 509q0 10 -50 -22q-38 -25 -37 -28q0 -2 13 3q12 4 43 24t31 23zM478 419q0 -34 -8 -31q-5 3 -8 36.5t-10 37.5q-9 7 -10 -9q0 -10 2 -31
q3 -42 -5 -43q-8 2 -9 27q0 22 -36 55t-66 38q-69 11 -94 -8q-13 -10 -10 -10t49 13q6 2 9 1t2 -5q-7 -9 -52 -21q-29 -7 -46 -18.5t-43 -38.5l-41 -43v-79q0 -77 8.5 -107t33.5 -38q61 -22 159.5 9.5t121.5 80.5q13 28 13 39q-1 14 9 18q5 2 7 -6v-5q0 -17 13 -11
q10 4 2 -15q-18 -45 -64 -99q-7 -9 -14 -16q-29 -28 -42 -34t-51 -8q-34 -2 -45.5 -6.5t-22.5 -19.5q-16 -23 -16 -26q0 -4 32 0q64 7 64 -58q0 -33 -22 -54q-26 -25 -59 -29q-15 -2 -15 6q0 9 13 9q17 0 38 18.5t21 33.5q0 44 -29 44q-16 0 -66 -23t-67 -38q-13 -6 -14 -1
q0 14 18 28q22 16 58 62t32 52q-4 7 -54 13q-35 5 -48 12t-43 38q-43 44 -43 65q0 27 15 72.5t35 83.5q24 43 73.5 93.5t77.5 60.5q20 7 38.5 8.5t34.5 -2.5t28.5 -9l30 -12t29.5 -11q36 -12 62 -34q15 -13 19.5 -23t4.5 -32z" />
    <glyph glyph-name="Egrave" unicode="&#xc8;" horiz-adv-x="523" 
d="M465 152q3 5 -6 7q-21 4 -54 -7l-10 -5q1 -1 26 -2h1q39 -2 43 7zM493 162q0 -19 -49 -32.5t-179 -30.5q-24 -3 -73 -16q-28 -7 -34.5 -12.5t-4.5 -20.5l1 -16q-1 0 -9 20q-7 16 -13.5 20.5t-17.5 1.5q-13 -4 -13.5 -2.5t11.5 10.5q10 9 11 15t-5 24q-5 9 -15 73t-22 70
q-9 4 -9.5 7t7.5 9q7 8 6.5 25.5t-8.5 84.5q-9 70 -13.5 85.5t-18.5 19.5l-15 5l13 1q11 1 15 6t4 21v26q2 -8 3 -18.5t2.5 -14t4 -8.5t10.5 -7t18.5 -4l31.5 -6q19 -3 92 -10.5t136.5 -16.5t84.5 -18q16 -7 16 -9q1 -2 -16 -2q-10 1 -44 2q-19 1 -148 14t-157 12
q-1 -3 -1 -13.5t1.5 -32t4.5 -43.5q8 -71 17.5 -79.5t62.5 5.5q42 11 84 15t52 -2q8 -6 -1 -12.5t-32 -12t-43.5 -9t-48 -7.5t-31.5 -5l-40 -7q2 -97 12 -133q5 -21 10 -24.5t24 0.5q16 3 29 7.5t26 7.5t39 5q42 3 88 19q20 7 56 12.5t60 5.5t28 -5zM141 685q0 -11 14 -22
q7 -6 8 -7l-4 7q-1 1 -2 3q-12 14 -7 19q1 1 6.5 -4t14 -14.5t17.5 -20.5q10 -13 17 -22t13 -16l9 -10.5t7.5 -8l6 -6t7.5 -6.5t9 -7q28 -23 16 -21q-18 3 -58 32q-53 39 -68 37q-18 -1 -29.5 19.5t-9.5 48.5q1 10 17 10t16 -11z" />
    <glyph glyph-name="Eacute" unicode="&#xc9;" horiz-adv-x="489" 
d="M362 120q11 5 4 6h-16q-24 0 -64 -6q-4 -1 -10 -2q-15 -2 -16 -3l22 -1h16q50 0 64 6zM372 324q-94 -22 -256 -20l5 -30q20 -140 27 -150q3 -4 13 -4q29 0 110 13.5t108 15.5q62 5 62 0q0 -2 -7 -10q-35 -35 -148 -35q-52 0 -105.5 -9t-76.5 -22q-14 -7 -17.5 -2.5
t7.5 15.5q7 7 -3 5q-4 0 -9 -1q-17 -3 -18 5q0 9 15 16q6 2 11 1q19 0 28 13.5t4 36.5q0 1 -6 41.5t-13 70.5t-15 30q-10 0 -10.5 7.5t8.5 13.5q14 8 -14 101q-13 45 -30 48q-28 4 7 13q43 11 121 16q70 4 129 3t66 -7q6 -6 -9 -9q-23 -5 -126 -9q-127 -4 -132 -9
q-3 -4 4 -61.5t12 -74.5q4 -15 10 -3q12 19 168 39t166 4q5 -9 -13 -13q-12 -3 -43 -8q-29 -4 -28 -8l2 -1q9 -2 12 -6.5t-1.5 -9t-14.5 -6.5zM232 608q-4 1 -40 -20t-41 -17q-5 5 7 13q6 2 36.5 28.5t35.5 27.5q5 0 36 24q46 36 46 20q0 -6 -10 -20q-15 -21 -37 -38.5
t-33 -17.5z" />
    <glyph glyph-name="Ecircumflex" unicode="&#xca;" horiz-adv-x="458" 
d="M224 111q-11 0 -41.5 -11.5t-37.5 -18.5q-12 -12 6 -6q13 4 41 17q34 16 32 19zM363 152q-4 1 -108 -44.5t-108 -43.5q-20 1 -28 22t-15 96q-5 45 -16 112t-12 129q0 67 -14 78q-10 8 6 10q13 1 52 2q60 0 116 7q86 11 84 0q-4 -8 -26 -8q-16 0 -16 -4q0 -6 40 -13
q14 -2 -19 -2q-27 0 -81 1l-134 4v-63q1 -48 4 -45q0 1 1 4q10 51 16 -7q7 -61 3 -101l17 15q13 12 14 8q0 -1 -1 -6q-3 -7 5 -6q11 0 60 13q77 21 80 16q1 -2 1 -5q0 -7 -38 -16q-30 -7 -78 -21.5t-51 -16.5q-2 -2 7 -75t13 -86q2 -6 7.5 -4t20.5 12q24 16 103 37.5
t103 33.5q55 23 57 17q0 -4 -14.5 -12.5t-28.5 -16.5t-13 -13q0 -8 -9 -8zM172 680q0 -17 20.5 -36.5t39.5 -19.5q17 -2 16 -8q-6 -10 -30 -7.5t-40 15.5l-20 15q-10 -29 -32.5 -44.5t-66.5 -23.5q-29 -5 -29 -2q0 2 7 9q14 14 51 30q22 10 32 20t20 32q15 37 26 36
q6 -1 6 -16z" />
    <glyph glyph-name="Edieresis" unicode="&#xcb;" horiz-adv-x="560" 
d="M124 288q0 -1 59 15.5l118 33t59 13.5q7 -7 -28 -22q-39 -17 -110 -34l-103 -27q0 -1 -1.5 -29t-4.5 -43t-7 -15q-2 1 -3.5 -1t-2 -6.5l-1 -9t-0.5 -11v-11.5v-11v-8q106 7 173 23q38 10 98 14t85 9q25 3 29 3t13.5 -6.5t21.5 -9.5l11 -5q0 -2 -47 -7q-59 -4 -168 -22
q-131 -21 -155 -23.5t-56 1.5q-36 6 -38 16q-1 5 13 5q10 -5 11 33q0 20 -2 65q-1 27 -1 34l-32 -2q-25 -2 -25 3t31 16l26 9q0 10 -1 38t-2 52t-2 50.5t-3 44.5t-5 23q-22 8 19 21q2 0 4 1q11 3 158.5 10t155.5 8q6 1 6.5 -0.5t-3.5 -5.5q-21 -9 -223 -13q60 1 139.5 -1
t91.5 -9q11 -7 -182 -16q-86 -4 -143 -4q6 -46 15 -135q5 -54 12 -54zM163 592q0 11 -16 0q-5 -3 -6.5 -4.5t0.5 -2.5t8 -1q14 0 14 8zM179 606q0 -9 8 -17t8 -15q0 -10 -10 0q-7 8 -21 0.5t-24 0.5q-15 8 -18 5t-3 31q0 25 3 29.5t19 3.5q38 -3 38 -38zM264 646q-6 10 2 10
q10 0 13 -8q1 -4 20 -1q7 1 6 -2q0 -1 -1 -3q-2 -4 0 -5.5t8 0.5q8 2 11.5 -2t3.5 -17q0 -16 -4.5 -20t-22.5 -4q-26 0 -38 -10q-11 -10 -16.5 -5t7.5 15q11 8 14.5 24.5t-3.5 27.5z" />
    <glyph glyph-name="Iacute" unicode="&#xcd;" horiz-adv-x="595" 
d="M267 250q7 21 -29 160q-14 52 -16 48q-1 -2 1 -18q15 -98 39 -179q4 -14 5 -11zM453 530q0 -13 -64 -23q-27 -5 -27 -8q0 -1 7 -4q13 -5 -50 -6h-13q-26 0 -40.5 -1t-23 -2.5t-10.5 -3.5t0 -6q21 -66 43 -187t18 -178l26 4q77 13 132.5 20t84 7.5t29.5 -5.5
q0 -8 -23.5 -14t-106.5 -19q-104 -16 -111 -20t-7 -40q-3 6 -10 17t-10 17q-157 -45 -198 -49q-18 -2 -55 -9q-9 -3 -12 -1.5t-1 6.5q2 8 61 29.5t133 41.5q35 9 45.5 14.5t8.5 15.5q-2 11 -20 78.5t-33 131t-17 86.5l-6 65q-1 0 -44.5 -3t-70 -3t-27.5 6t15.5 7.5t34 3
t17.5 5.5q4 4 100.5 17t100.5 16q25 11 51 7q10 -2 3 -6q-4 -3 3 -4q8 -1 26 1q41 3 41 -4zM325 704q3 7 9 8t10.5 -5t4.5 -16q2 -16 8 -15q8 3 8 -2q-1 -14 -87 -60t-111 -46q-22 0 -17 8q6 9 45 21q46 12 88 56t42 51z" />
    <glyph glyph-name="Icircumflex" unicode="&#xce;" horiz-adv-x="696" 
d="M340 107q2 -6 16 -1q7 3 0 4q-2 1 -5 1q-11 0 -11 -4zM298 496q-7 0 -7 -38q0 -26 3 -28q6 -2 10 35q1 5 1 9q0 22 -7 22zM332 515q2 -6 16 -1q7 3 0 4q-2 1 -5 1q-11 0 -11 -4zM292 515q2 -6 16 -1q7 3 0 4q-2 1 -5 1q-11 0 -11 -4zM236 514q10 -5 32 0q9 2 -1 3
q-5 1 -13 1q-22 1 -21 -3q1 0 3 -1zM542 512q52 0 52 -9q-1 -3 -23.5 -4t-57.5 0t-69.5 2.5t-67.5 3t-44 1.5q-10 -288 -18 -333q-9 -40 -6 -42q7 -7 121 -21t161 -14q76 0 76 -8t-18 -12q-26 -6 -322 -2.5t-296 10.5q2 7 80 14l-40 11q-28 7 -26 9q4 6 92 -10
q70 -11 142 -10l-38 4q-39 4 -38 12q1 6 26 7q10 1 -12 4q-24 3 -74 8l-112 10q7 0 78.5 -2.5t119.5 -2t46 7.5q9 329 9 356l-109 8q-127 11 -117 18q7 6 99 7q140 2 153 7q10 4 11 20v8q4 28 9 27q4 -4 4 -15.5t-2 -31.5l-2 -20q154 -18 213 -18zM299 662q9 10 5 14
q-1 1 -2.5 0t-3.5 -3.5t-3 -6.5q-3 -8 -2.5 -8.5t6.5 4.5zM416 592q-21 0 -46 18.5t-39 43.5q-11 19 -15 19q-2 1 -2 -3q0 -14 -30 -47t-52 -44q-25 -12 -44 -7q-14 3 -9 9t38 28q31 20 44.5 36t28.5 48q25 50 32 47q6 -4 3 -18q-5 -19 23 -56.5t54 -47.5q33 -13 31 -21
q-2 -5 -17 -5z" />
    <glyph glyph-name="Idieresis" unicode="&#xcf;" horiz-adv-x="730" 
d="M356 274q-10 60 -17 82q-3 7 -4 -3q-3 -41 11 -111q1 -7 3 -13q7 -29 11 -27q6 3 -4 72zM252 597q-1 -12 3 -11q5 0 3 13q0 2 -1 3q-2 6 -4 2q-1 -2 -1 -7zM294 656q7 0 -6 -15q-16 -18 -17 -45t13 -40q16 -14 16 -30q0 -13 18 -13.5t98 11.5q132 20 119 6q-1 -1 -3 -2
q-5 -5 -108 -20.5t-106 -16.5q-10 -4 5 -45q37 -97 59 -288q51 14 90 12q24 -1 111.5 10t104.5 17q12 6 12 -3q0 -10 -24 -15t-127 -19q-145 -19 -376 -87q-23 -6 -23 -2q0 1 1 5q4 9 -3.5 12t-7.5 6q-2 4 50 17t107 25.5t56 12.5q8 2 5 19q-5 22 -13 20q-5 0 -6 -14
q-1 -7 -3 2q-2 10 -4 33q-7 52 -36 135q-36 103 -26 98q4 -2 18 -38q16 -42 19 -40q1 13 -8.5 63.5t-13.5 54.5t-43 0t-174 -23q-39 -5 -38 1q1 9 39 15q5 1 9 1q41 6 50 13t24 5q9 -2 74 4q40 5 49 8.5t9 16.5q0 28 -21 36.5t-55 -4.5q-10 -4 -11.5 -3t4.5 9q10 13 11 33
t-7 36q-10 18 -1 18q5 0 8.5 -8.5t11.5 -4.5q12 4 12 -3q0 -14 19 -5q9 4 17 13q14 16 22 16zM359 600q10 -1 12 2q4 4 -6 9q-9 3 -13 -3q-4 -8 7 -8zM380 620q7 -3 8 3q0 9 -8 9q-5 0 -6.5 -1.5t-1 -3t2.5 -3.5t5 -4zM396 614q0 -18 -5 -22t-25 -6q-30 -2 -46 -16
q-12 -10 -13 -9q0 1 4 11q7 17 11 33t3.5 25.5t-4.5 9.5q-17 0 9 10q37 13 52 13q6 0 2 -6q-4 -8 4 -13q8 -4 8 -30z" />
    <glyph glyph-name="Eth" unicode="&#xd0;" horiz-adv-x="484" 
d="M353 159q15 16 12 16q-5 0 -32 -24q-21 -20 -15 -18q1 0 3 1q19 11 32 25zM341 179q0 -14 26 19q24 31 27 48q5 27 2 30q-1 2 -15 -20t-27 -47t-13 -30zM409 392q-2 0 0 -84q1 -75 6 -76q2 0 9 9q17 22 18 44t-13 59q-18 48 -20 48zM376 448q-4 -5 11 -18q8 -7 9 -5.5
t-7 11.5q-12 12 -13 12zM373 417q0 6 -35 23q-41 18 -42 15t23 -15q34 -19 47 -38q14 -18 13 -10q0 3 -3 13q-3 9 -3 12zM198 472q-32 0 -36.5 -3t-0.5 -19q4 -13 11 -65t9 -74q-2 -3 23 -7q10 -2 33 -5q45 -7 45 -9q-4 -3 -23 -5.5t-47.5 -5t-33.5 -3.5q-11 -61 -17 -177
l51 15q62 16 84.5 35t54.5 79q38 72 38 96q0 28 -26 60t-70 58q-50 30 -95 30zM149 488q0 -8 39 -8q28 0 29 4q0 1 -4 4q-12 8 -38 8t-26 -8zM277 492q-9 1 -44 9l-12 2q0 -1 12 -8q16 -10 67.5 -28.5t54.5 -15.5t-11 12t-34 17.5t-33 11.5zM274 512q-13 0 -12 -2
q0 -4 27 -9q18 -4 17 -1q0 1 -5 4q-12 8 -27 8zM85 34q0 10 -11.5 13.5t-12.5 8.5q-1 4 5.5 6t14.5 2t14.5 2.5t5.5 6.5q0 8 12 18q14 11 24 83l3 15q12 71 6 81q-5 8 -39 5q-6 -1 -9 -1q-52 -4 -64 8q-8 8 5 11q10 3 47 6l63 6q1 49 -16 107q-11 35 -16.5 44t-15.5 6
q-13 -4 -19 3q-4 5 6 6q2 1 5 1q16 0 16 8q0 18 -30 -5q-22 -17 -24 -5q-2 13 17 26l8 4q18 7 16 26q-1 10 3.5 14.5t12 2.5t16.5 -11q12 -11 79 -6q46 3 62.5 0.5t43.5 -16.5q41 -21 67.5 -51.5t48.5 -81.5q31 -74 22 -107t-77 -104q-28 -30 -50 -43.5t-75 -33.5
q-83 -32 -108 -37q-29 -6 -41 -18q-15 -13 -15 0z" />
    <glyph glyph-name="Ntilde" unicode="&#xd1;" horiz-adv-x="394" 
d="M63 197q-3 -36 3 -41q3 -2 5 5q7 17 0 44l-8 39v-47zM84 244q1 19 -3 53t-10 78t-8 61q1 -12 3 -49.5t3.5 -58.5t5 -46.5t9.5 -37.5zM73 488q0 -7 0.5 -13t3.5 -12.5t5 -11t8 -12t8.5 -10.5t11.5 -13t13 -14q37 -42 35 -33.5t-43 65.5q-40 54 -42 54zM53 542q4 15 12 0
q4 -7 4 -14q0 -9 43 -68q41 -54 108 -170.5t101 -165.5q9 379 11 402q7 8 10 -10q5 -25 10 -166q2 -95 10 -248q5 -70 -2 -70q-9 0 -41 50q-51 76 -103.5 150.5t-88.5 121.5t-39 44q-3 -4 4.5 -137t13.5 -184q2 -35 -4 -34q-5 3 -8.5 20t-12.5 17q-12 0 -19 14q-6 11 -8 -1
q-1 -6 -2 -17q0 -8 -2 1q-3 26 -6 115q-2 101 -11 232q-4 55 -3 71t10 24q13 11 13 23zM248 563q2 -5 14 -1q8 2 1 4q-2 1 -5 1q-11 0 -10 -4zM349 680q0 -14 -22 -55.5t-36 -54.5q-25 -23 -42 -15.5t-30 47.5q-14 42 -26.5 43.5t-35.5 -37.5q-8 -14 -18 -25t-16 -13
q-9 -2 -9 4q0 4 8 24q12 30 32.5 48t42.5 18q38 0 52 -58q5 -22 11 -22q8 0 25 21t32 49q20 36 29 34q3 -1 3 -8z" />
    <glyph glyph-name="Oacute" unicode="&#xd3;" horiz-adv-x="630" 
d="M208 66q7 2 -3 3q-19 2 -20 -1q-1 -1 3 -2q9 -4 20 0zM430 132q-1 2 -2 3q-49 -21 -89 -49q-8 -6 -5 -6q9 0 52.5 23.5t43.5 28.5zM386 126q15 9 8 9q-8 -1 -32 -13q-19 -10 -80.5 -13t-95.5 5q-13 3 -10 0t22 -11q42 -19 67 -20.5t62 14.5q41 17 59 29zM153 89
q2 5 -29 31q-26 23 -26 18q0 -2 3 -8q7 -13 27.5 -29t24.5 -12zM105 163q-4 12 -8 12q-4 1 -3 -8t8 -11q5 -2 4 3q0 1 -1 4zM446 179q0 4 -2 4q-4 -1 -62 -24q-41 -17 -62 -20t-76 -1q-50 2 -69 5.5t-35 16.5q-20 15 -18 10q0 -2 4 -6q36 -44 138 -44q41 0 63 4.5t60 22.5
q59 27 59 32zM412 91q30 15 65 54.5t47 74.5q-4 4 -32.5 -25.5t-39.5 -48.5q-13 -27 -42 -43q-25 -15 -24.5 -20.5t26.5 8.5zM494 138q0 -10 27 22q16 20 21 32q10 23 6 42q-3 25 -9 -8q-2 -13 -22.5 -47.5t-22.5 -40.5zM103 285q-1 -12 3 -11q5 0 3 13q0 2 -1 3q-2 6 -4 2
q-1 -2 -1 -7zM476 344q-18 35 -36 47q-13 8 -13 5q0 -4 18 -32q16 -25 20.5 -41.5t4.5 -53.5q1 -49 5 -49q2 0 7 7q13 18 11 52t-17 65zM38 220q0 -55 10.5 -77t46.5 -42l27 -15l-18 20q-30 33 -35.5 104.5t16.5 140.5q18 51 14 55q-2 3 -11.5 -11t-20.5 -35.5t-17 -39.5
q-12 -34 -12 -100zM118 234q0 -26 3.5 -36t17.5 -21q41 -32 111 -32t144 32l64 27l2 40q4 52 -19 102.5t-61 72.5q-20 13 -80 13q-51 -1 -74 -13.5t-53 -55.5q-24 -34 -31 -31q-5 3 -10 -11q-14 -34 -14 -87zM586 332q5 29 1 40t-28 36l-33 36q31 -66 37 -119q5 -42 12 -38
q6 4 11 45zM225 440q-10 0 -27 -14t-25 -28q-5 -10 0 -8q6 3 22 18q6 6 15 13.5t13.5 11.5t5.5 5q0 1 -4 2zM118 330l12 18q7 11 14 24q28 49 55 67q19 13 33.5 15.5t61.5 -0.5q55 -3 89 -16t71 -44q48 -40 48 -120q0 -38 4 -38q2 -1 8 7q12 17 12 64q0 30 -4.5 47t-20.5 42
q-48 80 -140 103q-73 19 -112.5 7.5t-73.5 -61.5q-17 -25 -37 -65t-20 -50zM172 499q11 8 16 16q3 5 1 5q-5 1 -20 -18l-15 -18zM503 455q-13 19 -68 45.5t-85 31.5l-15 1q2 -2 27 -11q90 -34 130 -75q22 -22 25 -19.5t-14 27.5zM30 222q0 59 3.5 80t20.5 54q34 67 82 123.5
t78 64.5q31 8 96 5q76 -3 120.5 -23t104.5 -78l65 -63q-8 -97 -21 -111q-14 -14 -20 -59q-5 -28 -12.5 -41.5t-30.5 -34.5q-77 -68 -197 -84q-166 -21 -264 61l-25 22v84zM414 661q0 7 -12 1q-6 -2 -8 -6q-2 -5 3 -4q1 0 4 1q13 4 13 8zM438 665q0 -7 -86 -44.5t-109 -41.5
q-20 -3 -18 1q0 1 5 4q72 48 128 77q11 6 30 9t34.5 1.5t15.5 -6.5z" />
    <glyph glyph-name="Ocircumflex" unicode="&#xd4;" horiz-adv-x="497" 
d="M166 33q10 0 -4 7q-26 12 -26 6q0 -2 6 -6q10 -7 24 -7zM240 90q12 2 -2 3q-39 3 -44 -1l6 -2q22 -4 40 0zM72 104q-4 -4 13 -19q7 -7 7 -4q0 2 -6 11q-12 12 -14 12zM143 98q-30 21 -47 24q-17 5 -15 -2q3 -14 47 -38q6 -3 11 -6q58 -27 112 -16t71 50q-2 2 -41 -18
q-71 -39 -138 6zM306 57q12 -2 55.5 29.5t42.5 53.5q-4 4 -52.5 -37.5t-45.5 -45.5zM356 123q11 8 16 16q3 5 1 5q-5 1 -20 -18l-15 -18zM345 158q4 8 2 8q-3 1 -26 -24l-18 -20l16 11q23 15 26 25zM70 188q-5 -29 8 -48q5 -8 11 -3q2 5 -19 51zM388 171q11 8 16 16q3 5 1 5
q-5 1 -20 -18l-15 -18zM398 222q1 7 -6 9.5t-10 -2.5q-3 -14 -25 -65q39 42 41 58zM414 139q0 -26 13 -10q12 16 23 53q12 46 10 50q-2 6 -14 -13q-28 -51 -32 -80zM426 218q13 28 10 36q-3 14 -13 -9q-15 -34 -8 -39q2 -2 8 7q2 3 3 5zM374 242q8 9 3 21q-5 10 -9 4
q-3 -4 -2 -15q1 -16 2 -17.5t4 3.5q1 1 2 4zM46 200q7 62 5 68q-1 5 -4 -4q-10 -35 -9 -88l2 -16q2 3 6 40zM91 258q-2 16 -3 -2q-2 -60 2 -57l1 7q4 26 0 52zM430 304q0 17 -32 52q0 -111 7 -116q6 0 15.5 24t9.5 40zM390 322q0 28 -3.5 38.5t-17.5 19.5q-16 10 -18 9.5
t2 -14.5q2 -6 5.5 -28t8 -38.5t11.5 -21.5q9 -7 11 7q1 8 1 28zM386 384q8 0 -4 8q-34 23 -32 18q0 -2 8 -9q21 -17 28 -17zM358 244q0 76 -89 143q-32 24 -75 27q-29 3 -38 0.5t-17 -15.5q-32 -52 -33 -160q0 -48 2.5 -65.5t11.5 -27.5q15 -17 52 -26.5t71 -5.5
q24 2 37.5 10t38.5 34q28 28 33.5 41t5.5 45zM294 424q-26 13 -66.5 20.5t-47.5 -0.5q-1 -2 4.5 -6t17 -9t26.5 -10q54 -18 89 -57q32 -35 32 -26q0 3 -2 10q-8 35 -18.5 50.5t-34.5 27.5zM432 368q15 0 -8 34q-10 15 -23 28q-36 34 -35 23q0 -9 25 -41q33 -44 41 -44z
M350 443q-21 21 -32 21q-9 -1 -5 -6q3 -2 9 -7q14 -11 32 -21l9 -3q0 1 -12 15zM138 462q20 23 17.5 24.5t-29.5 -16.5q-55 -38 -65 -130q50 90 77 122zM266 496q-6 0 2 -7q1 0 2 -1q12 -8 20 -8t-4 8t-20 8zM54 354q0 90 75 134q43 25 85.5 24t110.5 -27q62 -25 91 -50.5
t33 -60.5q3 -32 13 -98q9 -61 0.5 -97t-41.5 -71q-25 -27 -69.5 -51.5t-68.5 -24.5q-15 0 -37 -12q-46 -27 -116 4.5t-92 89.5q-10 26 -8.5 86t12.5 86q12 30 12 68zM270 610q0 8 -18 -8q-6 -7 -35.5 -25.5t-34.5 -26.5q0 -7 -29.5 -18t-36.5 -7q-8 4 2 16q5 7 2.5 9
t-15.5 3l-15 1l17 4l1 1h2q47 10 89.5 42.5t50.5 65.5q4 18 22 27q24 12 27.5 9t-6.5 -25q-8 -18 6.5 -50t39.5 -51l23 -17l-28 2q-20 1 -42 17.5t-22 30.5z" />
    <glyph glyph-name="Odieresis" unicode="&#xd6;" horiz-adv-x="509" 
d="M138 125q-48 25 -47 16q0 -4 8 -13q13 -14 53 -27t67 -12q14 1 15 2l-21 6q-2 0 -4 1q-35 7 -71 27zM137 155q13 -13 17 -9.5t-13 13.5q-13 7 -13.5 7t9.5 -11zM391 184q0 7 -3 7t-25 -23q-20 -21 -15 -24q8 0 25.5 16.5t17.5 23.5zM233 144q32 0 67 10.5t51 23.5
q0 4 -63 0q-67 -3 -101 13q-36 17 -44 17q-18 0 3 -27q6 -7 13 -14q16 -16 27.5 -19.5t46.5 -3.5zM109 202q-2 7 -3 -3q-2 -19 1 -20q1 -1 2 3q4 9 0 20zM90 220q0 -22 2 -20q5 4 2 27q0 4 -1 7q-2 11 -3 -2v-12zM439 216q10 19 7 42q-1 17 -2.5 17.5t-5.5 -10.5
q-2 -6 -6 -19q-13 -44 -4 -44q4 0 11 14zM93 294q-3 11 -4 -3q-1 -24 2 -24q1 0 2 3q4 11 0 24zM74 264q6 60 0 55q-2 -2 -6 -17q-8 -32 -4.5 -68.5t16.5 -50.5l16 -19q-1 2 -5 8t-5 8t-4 7.5t-3.5 7.5t-2.5 7.5t-2 9t-1 10t-1 12.5t0.5 13.5t1.5 16.5zM104 343q10 23 3 23
q-2 0 -6 -4q-5 -3 -5 -21q0 -12 1.5 -11.5t6.5 13.5zM469 244v31.5v33.5t-2.5 30t-7.5 21l-12 20q7 -22 22 -136zM83 364q14 28 10 32q-2 2 -10 -9q-3 -6 -8 -15q-17 -28 -10 -32q1 -1 4 2t7 9t7 13zM187 424q-14 -4 -37 -34t-12 -45q1 -4 34 49q18 29 15 30zM114 395
q3 -4 11 10q10 16 7 18q-2 3 -13 -11q-10 -12 -5 -17zM127 265q0 -23 6 -31t36 -23q37 -19 84 -24.5t78 5.5q19 6 23.5 11.5t5.5 22.5q2 31 8 50l4 12q2 -1 1 -30q-2 -43 6 -40q8 2 10.5 45.5t-2.5 78.5q-3 17 -3.5 22.5t-12.5 14t-25.5 12.5t-54.5 17q-13 4 -28 9t-25 8.5
t-12 4.5q-7 3 -38 -36t-48 -72q-13 -26 -13 -57zM331 429q-30 12 -80 10q65 -30 87 -35q23 -5 21 4q-1 10 -28 21zM290 450q13 2 -3 3q-40 3 -38 -1q0 -1 5 -2q18 -4 36 0zM197 448q18 0 22 8q5 8 -5.5 8t-22.5 -8q-7 -7 6 -8zM259 488q7 -6 39 -8.5t41 -7.5
q21 -8 19.5 -3.5t-23.5 15.5q-28 15 -64 12q-13 -1 -13 -6q0 -1 1 -2zM479 297q0 -40 -4 -56t-18 -38q-22 -32 -64.5 -69.5t-63.5 -43.5q-32 -9 -106.5 -6t-99.5 14q-24 11 -35.5 24.5t-36.5 60.5q-21 38 -21 93.5t22 95.5q24 45 43 64.5t59 41.5q34 19 51 22.5t67 1.5
q49 -1 64.5 -6t42.5 -26q31 -23 69 -71q22 -30 26.5 -44t4.5 -58zM311 647q0 4 0.5 5.5t2.5 1.5t4.5 -2l7.5 -6q14 -12 38.5 -13.5t29.5 9.5q4 9 9 4q6 -4 -8 -26q-10 -15 -9.5 -23t13.5 -30q20 -35 12 -37q-5 -1 -19 23q-17 25 -17 16q3 -8 -10 -8q-5 0 -17 1q-24 3 -25 -2
q-11 -17 -12 -5q-2 11 6 31q6 21 4.5 27.5t-6 15.5t-4.5 18zM159 666q0 16 19 -3q6 -6 13 -15q14 -20 27 -23t19 13q4 12 9 -1q1 -3 2 -8q5 -18 -2 -46t-7 -37q0 -15 -1.5 -16.5t-9.5 8.5q-9 11 -22 13.5t-19 -7.5q-8 -11 -13.5 -8t1.5 15q9 17 7.5 49t-11.5 45
q-12 16 -12 21z" />
    <glyph glyph-name="multiply" unicode="&#xd7;" horiz-adv-x="691" 
d="M138 40q3 7 -3 8q-9 0 -9 -8q0 -5 1.5 -6.5t3 -1t3.5 2.5t4 5zM574 74q0 -8 8.5 -14t12.5 -2q7 0 -8 13q-12 10 -13 3zM476 167q10 -10 14 -5q3 4 -7 8q-2 1 -3 1q-8 4 -8.5 3t4.5 -7zM94 14q-2 3 35 48t37 46t-10 -2.5t-24 -9.5q-51 -24 -53 -15q-1 2 3 6q7 6 39 17
q32 13 95.5 67.5t79.5 64.5l-51 40q-74 57 -144.5 131.5t-70.5 94.5q0 1 13.5 -7t39 -24t57.5 -37q19 -12 25 -4q1 8 23 -6.5t44.5 -30.5t23.5 -12q5 -1 15 -7.5t23 -18t24 -21t24 -22.5t17 -16q6 4 30.5 23t43.5 33t25 16q5 0 34 20q42 29 42 14q0 -5 -46 -35t-45 -37
q-1 -2 1 -2q7 0 32 19q39 29 81.5 53.5t46.5 20.5t28 12q28 20 29 9q1 -5 -9 -16q-14 -14 -14 -32q0 -15 -79 -76q-77 -60 -85 -69q-19 -21 -3 -44q6 -8 62 -64q102 -102 93 -108q-5 -4 -46 16q-27 12 -27 11t13 -11q19 -16 14 -21q-3 -3 -49.5 29t-92 65t-46.5 33
q-9 6 -88 -49q-120 -87 -121 -70q0 3 2 8q4 11 -1 11q-7 0 -37 -23q-49 -34 -53 -18z" />
    <glyph glyph-name="Oslash" unicode="&#xd8;" horiz-adv-x="705" 
d="M202 168q-14 1 5 -14q7 -6 25 -18q13 -9 15 -11q-38 42 -45 43zM104 108q1 1 19 18t29 28.5t11 15.5q-6 -1 -59 -62zM218 184q-13 3 5 -16q8 -8 27 -25q11 -9 12 -11q-1 1 -12 17t-19 25t-13 10zM391 217q-43 53 -67 77q-14 -4 -98 -92l21 -29q33 -43 75 -61.5t76 -4.5
q19 8 26.5 11.5t14 11t6 11.5t-7.5 17t-16 23.5t-30 35.5zM169 206q0 13 -10.5 38t-12.5 40l-4 19q-1 -2 1 -29q4 -51 18 -69q5 -7 8 1zM256 268q-47 -56 -37 -53q13 6 75 87q16 20 13 19q-5 -2 -51 -53zM363 332q16 -27 59.5 -88.5t67.5 -75.5q10 0 21.5 40.5t11.5 71.5
q0 41 -11 66.5t-39 45.5q-33 24 -38 24t-38.5 -39.5t-33.5 -44.5zM529 362q8 -2 -21 50q-11 19 -14 19.5t5 -20.5q10 -25 18 -38.5t12 -10.5zM398 415q15 10 12 16q-2 5 -16 -13q-7 -10 -6.5 -10.5t10.5 7.5zM484 400q2 0 2.5 2.5t-1 7.5t-3.5 10q-7 16 -12.5 19t-12.5 -5
q-4 -4 7.5 -19t19.5 -15zM195 240q5 4 24 22t44.5 42.5t30.5 29.5l-45 57q-17 21 -25 29.5t-15.5 15t-12.5 0.5t-9.5 -14.5t-11.5 -29.5q-16 -44 -10 -89t30 -63zM438 447q15 10 12 16q-2 5 -16 -13q-7 -10 -6.5 -10.5t10.5 7.5zM310 380q-3 4 -21 29t-31.5 41t-20.5 20
q-36 11 73 -90zM259 477q0 -6 34 -53.5t38 -47.5q5 0 35.5 32t27.5 35t-29 16q-14 7 -40 13t-44.5 7.5t-21.5 -2.5zM360 503q-43 8 -54.5 7.5t-30.5 -8.5q-11 -5 -11 -7q-1 -2 18 -5q5 0 17 -2q49 -6 79 -23q26 -13 32.5 -13.5t17.5 9.5q7 6 9.5 8t2 5t-3 5t-10.5 6
q-13 8 -66 18zM202 500q1 10 -41 48q33 -49 41 -48zM662 648q19 0 -39 -57q-26 -25 -72 -67l-32 -30q4 2 39.5 23.5t51.5 32.5q24 17 24 9q1 -4 -32.5 -26.5t-67.5 -45t-35 -25.5q0 -7 32 -55q20 -32 26 -48.5t6 -42.5q0 -33 -14.5 -86.5t-28.5 -72.5q-8 -9 -3 -20.5
t33 -47.5q19 -26 83 -103q42 -49 42 -60q0 -17 -128 128q-4 5 -8 9l-52 59q-24 -19 -31.5 -24t-30.5 -12t-58 -9q-57 -4 -76.5 2t-68.5 42l-42 31q-147 -143 -149 -144q-5 0 8 22.5t34.5 53.5t39.5 53l41 49q-35 42 -37 92q-2 36 6 65.5t41 102.5l15 35q-72 105 -86 121
q-21 23 -13 29q4 3 17 -9q6 -5 12.5 -7t10.5 -1.5t8 -3t6 -12.5q4 -18 45 -52q28 -25 38.5 -29t27.5 2q32 11 90.5 8.5t91.5 -16.5l39 -17q102 72 148 116q40 38 48 38z" />
    <glyph glyph-name="Ugrave" unicode="&#xd9;" horiz-adv-x="478" 
d="M192 112q-6 0 -3 -8q4 -8 13 -8q10 4 -1 13q-6 4 -9 3zM225 127q-28 0 -28 -3q0 -2 10 -6q17 -8 36 0q15 7 4 8q-6 1 -22 1zM271 104q17 0 34 24q15 21 13 21.5t-29 -18.5q-30 -21 -30 -24q3 -3 12 -3zM272 157q5 5 1 4q-12 -1 -29 -14q-9 -7 -10 -8l15 6q20 9 23 12z
M286 144q7 0 22.5 16t23.5 30q6 11 3 10q-5 -2 -30 -28q-24 -24 -19 -28zM156 200q-5 -5 12 -26q7 -10 7 -5q-1 4 -6 15q-9 16 -13 16zM156 228q-12 47 -29 75q-3 6 -3 2q0 -2 1 -5q16 -80 29 -88q4 -3 4 4q0 4 -2 12zM74 541q-1 -12 3 -11q5 0 3 13q0 2 -1 3q-2 6 -4 2
q-1 -2 -1 -7zM106 520q7 0 7 -69q0 -44 6 -73t20.5 -66.5t21.5 -59.5q14 -47 28 -61.5t44 -14.5q19 0 29.5 7.5t30.5 34.5q31 41 65.5 111t34.5 113q0 28 2.5 37t9.5 9t10.5 7t8.5 6t3 -19t4 -18q9 0 12 14q3 12 4 4q1 -2 1 -6q-19 -145 -80 -260q-14 -27 -23 -43t-19 -31.5
t-15.5 -23t-16 -15.5t-16 -10t-19.5 -5t-22.5 -3.5t-29.5 -2.5t-37 -4q-65 149 -81 222q-3 17 -29.5 105t-28.5 114q4 4 8 -5.5t31 -89.5q21 -61 23 -61q1 0 -2 29q-3 33 -11 72t-12 70q-6 53 6 49q10 -3 17 -33t15 -30zM175 680q6 0 39 -30t61.5 -60t22.5 -30q-16 5 -40 22
t-43 25q-28 12 -35 20.5t-9 26.5q-4 26 4 26z" />
    <glyph glyph-name="Uacute" unicode="&#xda;" horiz-adv-x="403" 
d="M201 152q1 8 -7 8q-12 0 -17 -8q-4 -6 7 -8q13 0 17 8zM261 181q0 11 -17 -11q-6 -7 -7 -9t2 0q2 1 8 6q14 12 14 14zM144 158q-7 5 -26 30q-13 16 -15 18q-2 1 -1 -4q1 -3 3 -10q4 -16 20.5 -32.5t22.5 -11.5q5 5 -4 10zM294 206q10 10 5 14q-1 1 -2.5 0t-3.5 -3.5
t-3 -6.5q-3 -8 -2.5 -8.5t6.5 4.5zM275 220q-13 -27 -10 -27q6 2 22 36q7 16 4 16q-1 1 -5.5 -5.5t-10.5 -19.5zM311 250q3 -2 7 6q8 17 5 29q-1 6 -7 -7q-2 -3 -3 -6q-6 -18 -2 -22zM335 338q8 -1 11 31q2 14 -0.5 13.5t-7.5 -19.5q-6 -22 -3 -25zM333 488q0 56 7 56
q15 0 24 -19t9 -51q0 -36 -18 -118.5t-34 -121.5q-21 -49 -67.5 -81t-98.5 -33q-48 0 -64.5 14.5t-35.5 72.5q-14 44 -18.5 77.5t-5.5 105.5q0 12 -0.5 28.5t-0.5 24v19.5t0.5 17t1 13t1.5 11.5t2 9t3 9.5t4.5 8.5t5.5 9.5l6 -24q3 -14 4 -15l2 9q0 18 7 18q8 0 4 -110
q-2 -78 1 -101t16 -54q15 -33 18 -33q2 -1 3 14q1 12 2 13t4 -4q2 -6 8 -25q16 -55 32.5 -58.5t60.5 38.5q50 48 83.5 127.5t33.5 152.5zM205 586q-3 3 24 33t57 56.5t33 21.5q10 -11 2.5 -25.5t-28.5 -25.5q-28 -15 -46 -42q-19 -29 -35 -28q-7 1 -7 10z" />
    <glyph glyph-name="Ucircumflex" unicode="&#xdb;" horiz-adv-x="504" 
d="M208 34q8 11 -9 24q-21 15 -29 7q-6 -8 10 -23q19 -18 28 -8zM298 80q4 9 7.5 16.5t4.5 11.5l2 4l-43 -37q-30 -29 -20 -31q22 -14 49 36zM242 112q10 8 3 8q-10 -1 -19 -8q-10 -8 -3 -8q11 1 19 8zM114 147q0 -6 20.5 -40.5t24.5 -34.5q3 11 -8 31.5t-23.5 34t-13.5 9.5
zM233 136q-5 0 -13.5 4.5t-15 8.5t-16.5 12t-12 9l13 -24q11 -20 20.5 -24t24.5 6q13 8 -1 8zM122 160q29 0 -14 67q-30 50 -50 97q4 -35 30 -110q18 -54 34 -54zM173 269q-12 58 -17 58q-4 0 2 -37q5 -35 21 -77.5t27 -52.5q5 -4 5 0q-1 5 -9 21q-16 28 -29 88zM391 416
q-3 -1 -15 -37.5t-24 -75t-12 -39.5q-2 -7 0 -6t12 9q28 25 38 107q1 11 2 20.5t0.5 15.5t-1.5 6zM120 402q-2 13 -3 -3q-3 -41 1 -38q1 0 2 5q4 18 0 36zM146 354q-5 120 -11 124q-8 9 2 -144q6 -78 11 -98q6 -28 19 -47q11 -16 11 -10q0 7 -13 31q-12 23 -19 144zM424 506
q-2 7 -3 -3q-2 -19 1 -20q1 -1 2 3q4 9 0 20zM81 432q0 12 -11 60q-7 26 -10 47.5t-1.5 33t6.5 11.5q6 0 12 -50q5 -61 28 -162q0 13 -0.5 57.5t0 78t3.5 41.5q3 5 5 -4q0 -4 1 -13q2 -15 4 -16q1 -1 2 2q4 10 11 9.5t7 -11.5q0 -12 7 -12t12 -62q9 -99 31.5 -182.5
t43.5 -97.5q19 -12 31 -5.5t32 39.5q24 41 65.5 170.5t41.5 163.5q0 38 10 44q4 2 5 -4q2 -5 2 -12q0 -10 3 -11l2 3q10 26 15 -7q3 -18 3 -49q0 -55 6 -55q1 0 3 3q8 14 15 14q14 -3 0 -40.5t-34.5 -80.5t-20.5 -51q-8 -28 -38.5 -84t-34.5 -64q-35 -78 -51 -96.5t-37 -7.5
q-18 9 -31 -3q-15 -13 -23 -13q-11 0 -41 40.5t-48 80.5q-39 88 -52.5 152.5t-23.5 210.5l-1 19q1 -1 2 -11q4 -32 12 -40q5 -5 5 4q1 7 -2 24q-8 56 -10 72q-3 29 0 26q8 -6 21 -86q12 -81 21 -85q2 -1 2 9zM317 624q-5 -5 12 -26q7 -10 7 -5q-1 4 -6 15q-9 16 -13 16z
M307 696q5 0 11 -30q5 -29 32 -56q9 -9 13.5 -14t6 -8.5t0.5 -5.5t-5 -4q-14 -5 -34 6.5t-27 30.5l-10 24l-51 -39q-73 -57 -73 -32q0 3 9 12t21 15q14 7 56 51t51 50z" />
    <glyph glyph-name="Udieresis" unicode="&#xdc;" horiz-adv-x="470" 
d="M316 109q-1 3 -10 2.5t-25 -4t-29 -8.5q-22 -9 -76 -11q-39 -2 -39 -4q-1 -1 15 -8q49 -23 119 9q45 20 45 24zM106 131q4 6 -9 19q-15 14 -5 -4q4 -8 8 -12t6 -3zM324 134q18 14 14 30q-2 12 -9 7q-4 -4 -20 -21q-21 -24 -15.5 -30t30.5 14zM301 194q6 11 4 13.5
t-9 -7.5q-6 -10 -34 -23t-54 -18l-15 -4q4 0 30 2q37 3 52.5 10.5t25.5 26.5zM264 140q-9 0 -28 1t-24 1.5t-18 2t-18.5 4t-16 7.5t-19.5 12t-22 17q-41 34 -42 26t34 -57q14 -21 25 -27.5t35 -11.5q16 0 22 -1.5t20 3t18.5 6.5t17 8.5t16.5 8.5zM342 216q4 15 0.5 15.5
t-8.5 -13.5q-2 -10 -8 -21q-1 -3 0 -4t4 1q8 5 12 22zM69 276q0 -18 17 -48q5 -9 5 -4q1 1 -11 36q-7 22 -10 20q-1 -1 -1 -4zM396 249q0 -30 -9 -37q-3 -2 -5 6q-1 4 -2 12v22q-24 -39 -30 -88q-4 -34 0 -34q2 -1 9 5q31 27 50 112q13 59 9 63q-5 5 -12 -12
q-10 -23 -10 -49zM397 324q30 54 19 112q-24 -54 -19 -112zM415 504q-5 0 -11.5 -19.5t-5.5 -30.5q1 -21 10 10q12 42 7 40zM380 491q0 15 0.5 22t3.5 8.5t6.5 0.5t11 -3.5t14.5 -2.5q10 0 14 -7t7 -29q8 -57 -4 -158t-34 -150q-17 -41 -80.5 -78.5t-114.5 -37.5
q-91 0 -126 74q-22 47 -39 131.5t-5 88.5q10 3 10 71q0 67 8 67q9 0 9 -10q0 -13 5 0q3 9 10 10q9 0 -1 -17q-9 -16 -4 -84t19 -114q20 -68 65.5 -93t98.5 6t74 62q9 13 -1 13q-6 -1 -15 -5q-17 -8 -24 1q-4 4 6 6q2 1 5 1q16 0 31 22q14 19 32 93t18 112zM292 632
q0 -10 20 8q21 19 20 10q-1 -6 -15 -24q-16 -19 -8 -39q7 -19 6 -21.5t-13 -2.5q-11 0 -37 -6q-19 -5 -19 -1q0 1 5 7q11 13 11 54q1 32 5 33q2 0 5 -5q10 -12 14 -7q2 2 4 0t2 -6zM125 597q-1 -12 3 -11q5 0 3 13q0 2 -1 3q-2 6 -4 2q-1 -2 -1 -7zM180 600q-1 -16 8 -16
t12 11q1 5 -2 10q-4 13 -11 11t-7 -16zM210 672q11 0 3 -10q-2 -2 -5 -6q-9 -11 -10 -17.5t6 -23.5t6.5 -22.5t-8.5 -11.5q-12 -10 -8 -21q2 -7 0 -6.5t-12 8.5q-16 14 -24.5 12.5t-27.5 -20.5q-21 -20 -23 -13q-2 5 11 18q10 11 0 15t-10 17.5t9 22.5q8 4 -5 20t-8 20
q4 6 15 -8q13 -17 38 -15t33 21q9 20 20 20z" />
    <glyph glyph-name="Yacute" unicode="&#xdd;" horiz-adv-x="375" 
d="M330 464q8 0 -4 -17.5t-59 -78.5q-50 -65 -59 -84q-16 -35 -16 -131v-16q0 -100 -9 -96q-4 2 -8 49l-2 50q0 -2 -0.5 -12.5t-1 -17t-1 -17.5t-1.5 -18t-2.5 -14t-3.5 -9.5t-5 -1.5q-10 3 -8 23q2 18 5.5 118t5.5 125q-72 104 -85 116q-3 0 1.5 -12t14.5 -33t24 -44
q27 -47 21 -47t-34.5 47t-34.5 67q-4 12 -17 37t-17 43q-7 31 2 29.5t30 -33.5q14 -21 36.5 -50t51.5 -65.5t37 -46.5q2 12 2 40q0 -1 1 -4q7 -24 11 -24q5 1 29 43q9 15 14 24q75 127 95 114q9 -6 -33 -59q-48 -64 -71 -102q45 51 63 78q21 30 28 30zM211 592q-4 0 -29 -28
t-31 -28t10.5 22t43 51t47.5 47q54 48 52 26q-1 -8 -10 -24q-8 -13 -41 -39.5t-42 -26.5z" />
    <glyph glyph-name="germandbls" unicode="&#xdf;" horiz-adv-x="366" 
d="M113 141q0 -12 12 -16q8 -3 8 0q1 2 -4 11q-16 29 -16 5zM321 186q9 15 6 28q-2 9 -3 9t-2 -9q0 -4 -6 -28l-2 -10q1 1 7 10zM141 224q3 7 -3 8q-9 0 -9 -8q0 -5 1.5 -6.5t3 -1t3.5 2.5t4 5zM105 164q6 20 6 67.5t-6 68.5q-6 22 -6 -64q1 -81 6 -72zM169 152
q0 -26 3 -29.5t22 0.5q5 1 8.5 1.5t6.5 0.5t4 -0.5t2 -1.5t0.5 -2.5l-1.5 -4.5q-3 -7 0 -7t21 8q58 25 73.5 84.5t-33.5 112.5q-19 18 -27.5 19t-42.5 -11q-32 -11 -58 -7q-21 4 -22 -3q-2 -9 25 -77q19 -49 19 -83zM259 352q-3 -5 20 -26q8 -7 9 -6q0 2 -11 16
q-14 16 -18 16zM228 352q-8 0 -14 -6q-14 -10 -89 -16q84 0 97 10t6 12zM241 356q7 -3 8 3q0 9 -8 9q-5 0 -6.5 -1.5t-1 -3t2.5 -3.5t5 -4zM182 380q-32 24 -53 0q-8 -9 4 -11q7 -1 25 -1q32 1 32 4q0 2 -8 8zM281 384q10 16 6 16q-6 -1 -20 -20q-9 -11 -4 -12q9 0 18 16z
M222 375q-6 9 -23 18q-12 6 -12 4q0 -1 1 -4q6 -9 23 -18q12 -6 12 -4q0 1 -1 4zM125 392q3 8 -7 8q-13 -1 -13 -8q0 -9 8.5 -8t11.5 8zM288 464q3 12 -12 39.5t-23 32.5q-3 0 -4 -3.5t1 -8t5 -7.5q8 -8 20 -39q9 -24 11 -24q2 -1 2 10zM166 414q7 -4 26 -7.5t29 -11.5
q17 -12 35 -3q15 8 15.5 12.5t-14.5 36.5q-8 17 -15 52t-27 56q-16 17 -28.5 24t-33.5 8q-29 3 -52.5 -7t-30.5 -28q-7 -17 9 -105q6 -38 10 -34q4 7 38 10t39 -3zM141 600q1 8 -7 8q-12 0 -17 -8q-4 -6 7 -8q13 0 17 8zM91 608q-8 0 -14 -8.5t-2 -12.5q0 -7 13 8
q10 12 3 13zM147 640q-33 0 -48 -11q-6 -4 2 -6h4q7 -1 34 1q17 1 59 -25.5t65 -53.5l19 -21q-19 46 -66 84q-38 32 -69 32zM145 96q0 5 -20 14q-13 7 -17.5 4t-10.5 -24q-8 -32 -8 -40q0 -9 -7.5 -9.5t-12.5 7.5q-3 2 -6.5 2.5t-6.5 0l-6 -1t-4 0t-1 3t2 7.5t7 13
q23 42 17.5 167t-33.5 219q-8 25 -7.5 41.5t8.5 52.5q8 35 14.5 49t22.5 25q68 47 126 7q79 -56 94 -112q9 -32 8.5 -76.5t-10.5 -63.5q-8 -16 -6 -26.5t19 -45.5q25 -54 28 -90q2 -29 -3 -40.5t-37 -45.5l-44 -46q-100 4 -106 8z" />
    <glyph glyph-name="agrave" unicode="&#xe0;" horiz-adv-x="387" 
d="M179 112q18 0 22 8q5 8 -5.5 7.5t-22.5 -7.5q-7 -7 6 -8zM139 122q11 3 -3 4q-24 1 -24 -2q0 -1 3 -2q11 -4 24 0zM194 148q15 11 7 11q-7 1 -22 -8q-13 -8 -48 -4q-24 3 -24 1l6 -3q19 -9 43.5 -8t37.5 11zM72 152q-10 10 -22 28q-9 12 -11 12t-2 -12q0 -16 12.5 -32.5
t27.5 -21.5q12 -3 12 1q0 5 -17 25zM250 177q15 29 9 31t-23 -26q-22 -34 -20 -36q5 -5 14.5 4t19.5 27zM46 221q-1 -12 3 -11q5 0 3 13q0 2 -1 3q-2 6 -4 2q-1 -2 -1 -7zM102 286q6 16 4 17t-14 -13q-45 -52 -26 -101q13 -31 21 21l2 12q5 45 13 64zM248 233q6 21 -11 52
q-1 1 -2 4q-8 14 -9 14t1 -7q7 -26 10 -52q4 -24 6 -24q1 0 5 13zM195 322q-46 13 -65 -6t-28 -90q-5 -47 1 -56.5t43 -9.5q75 0 75 72q0 31 -7.5 56.5t-18.5 33.5zM109 326q0 9 -16 -3q-5 -4 -9 -9q-22 -27 -17 -28q3 0 17 13q25 25 25 27zM152 363q2 -5 14 -1q8 2 1 4
q-2 1 -5 1q-11 0 -10 -4zM261 323q0 -20 8 -23q7 -8 20 -45.5t20 -46.5q36 -48 47 -95q3 -16 -2 -16q-2 0 -4 2q-7 5 -58 95l-32 -38q-40 -46 -72.5 -55.5t-90.5 7.5q-48 14 -59 32.5t-6 77.5q5 56 17 78.5t53 53.5q28 19 64 25t44 -8q5 -8 12 2q8 12 25 -10q14 -18 14 -36z
M68 526q5 2 9 14.5t18 9.5q11 -2 15.5 -8.5t7.5 -23.5q9 -51 76 -88q38 -20 36 -28q0 -2 -5 -2q-8 0 -37 14.5t-48 27.5t-39 32t-29.5 34.5t-3.5 17.5z" />
    <glyph glyph-name="aacute" unicode="&#xe1;" horiz-adv-x="395" 
d="M136 162q7 2 -3 3q-19 2 -20 -1q-1 -1 3 -2q9 -4 20 0zM120 136q-22 0 -41 11.5t-25 27.5q-5 14 -6 14t-2 -23q-1 -21 3.5 -26.5t26.5 -12.5q33 -9 46 -1q11 7 10.5 8t-12.5 2zM251 282q-2 12 -3 -1q-2 -39 2 -40q0 -1 1 5q4 18 0 36zM63 328q-8 0 -17 -22.5t-8 -43.5
q1 -16 2 -16t9 27q11 40 15 46q5 9 -1 9zM153 352q-22 0 -32.5 -5t-25.5 -23q-19 -22 -28.5 -57t-1.5 -58q8 -26 63.5 -31.5t77.5 16.5q12 12 14 22.5t-2 45.5q-1 5 -2.5 19t-2.5 18.5t-3.5 15t-5 13.5t-7 9.5t-10.5 8.5t-14.5 4t-19.5 2zM189 368q15 -10 16 1t-9 15
q-3 1 -7 0q-9 0 -13 -1.5t-2.5 -4t5 -4.5zM320 88q-14 0 -35.5 24.5t-31.5 52.5q-6 14 -9 15.5t-13 -6.5q-22 -20 -69 -41t-70 -21q-40 0 -50.5 20t-11.5 94q-1 73 11.5 94t77.5 55q59 30 84 19.5t51 -74.5q13 -31 13 -66t-6 -69q66 -57 86 -62q18 -5 18 -11q1 -10 -29 -6
q-21 2 -22 0q-1 -1 8 -8q13 -9 8 -10h-10zM230 535q20 8 30 8q7 1 7 -2q-1 -3 -7 -11q-13 -14 4 -3q3 2 8 5q30 19 29 2q0 -4 -2 -9q-4 -11 -35 -20q-11 -1 -77.5 -43.5t-74.5 -43.5q-3 3 22 30.5t55.5 55t40.5 31.5z" />
    <glyph glyph-name="acircumflex" unicode="&#xe2;" horiz-adv-x="401" 
d="M151 112q-3 7 -38 7q-24 0 -25 -2q-1 -1 7 -5q27 -12 51 -6q8 2 5 6zM307 67q0 31 -23 56q-15 17 -21 3q-4 -10 10.5 -42t25.5 -40q6 -3 7 11q1 5 1 12zM231 120q11 -2 12 8q0 7 -7 8q-8 2 -12 -6.5t7 -9.5zM263 148q4 12 -5 11.5t-7 -11.5q0 -9 2 -11t4.5 1t5.5 10z
M215 140q27 23 17 23q-7 0 -31 -14q-35 -20 -35 -27q1 -8 28 5q13 5 21 13zM109 138q-15 18 -34 66l2 -31q2 -31 22 -39q13 -5 14 -3q0 1 -4 7zM259 232q8 -10 8 -3q-1 11 -8 19q-8 10 -8 3q1 -10 8 -19zM236 261q-1 -12 3 -11q5 0 3 13q0 2 -1 3q-2 6 -4 2q-1 -2 -1 -7z
M174 344q-9 0 -29 -24.5t-37 -56.5q-17 -31 -14.5 -61.5t22.5 -50.5q16 -16 33 -14t45 23l33 24v58q0 41 -3 53t-19 27q-22 22 -31 22zM121 321q25 28 23.5 29.5t-29.5 -24.5q-25 -25 -40.5 -57.5t-14.5 -60.5q1 -20 2 -20q3 0 17 51q0 2 1 4q13 48 41 78zM371 58
q0 -12 -19 -5q-8 4 -16 10q-10 9 -12 0q-1 -5 -1 -18q0 -29 -7 -29q-8 0 -30 27.5t-28 45.5q-5 15 -12 17.5t-29 -0.5q-18 -2 -42 -10t-49 -8q-31 0 -55 25q-17 17 -20.5 29.5t-2.5 55.5q1 53 12 84.5t39 63.5q27 30 59 32q9 1 25 2.5t19 1.5q4 1 5.5 -0.5t-0.5 -4.5t5.5 -9
t18.5 -10q60 -21 68 -127q4 -41 10.5 -59.5t28.5 -53.5q33 -51 33 -60zM187 550q0 -28 45 -74.5t86 -61.5q13 -6 13 -13q-1 -21 -61 23t-98 79q-23 -23 -77 -54q-27 -16 -36.5 -18t-19.5 6q-16 12 -2 21q10 6 40 17q33 12 55.5 29t22.5 29t11 23q21 26 21 -6z" />
    <glyph glyph-name="adieresis" unicode="&#xe4;" horiz-adv-x="360" 
d="M181 148q7 9 6 11t-9 -5q-5 -5 -73 -16q69 0 76 10zM251 208q-4 -2 -39.5 -42t-45.5 -42q-13 -7 -13 -9q1 -3 30 -3q32 0 45.5 13t20.5 53q1 8 2 15t1 11t-1 4zM209 338q-20 14 -66.5 -4.5t-68.5 -48.5q-14 -19 -19 -63.5t6 -57.5q9 -12 51 -12q73 2 118 64
q10 14 10.5 24t-9.5 44q-13 49 -22 54zM267 252v26t-0.5 27.5t-4 19.5t-10.5 16q-14 11 -14.5 10.5t6.5 -13.5q15 -25 23 -86zM221 360q0 8 -38 8q-12 0 -23 -2.5t-22 -8.5t-16.5 -10t-17.5 -13.5t-15 -12.5q62 31 98 31q34 0 34 8zM117 368q-10 -7 -3 -8q12 1 15 8q5 8 2 8
t-14 -8zM53 526q-1 3 8 -4q24 -19 24 -14q0 4 13 -9q13 -14 16 -7q4 10 8.5 17t8.5 9t6 0q3 -10 -23 -62q45 -48 62 -48t29 -8q5 -3 6.5 -4.5t-0.5 -2.5t-8 -1q-18 -2 -7 -10q7 -6 17 -6q16 0 66 -43l-8 -124l32 -37q37 -42 25 -40q-6 0 -23 14l-22 17q16 -31 40 -61
q12 -14 4 -14t-20 14q-11 13 -44 76q-14 -117 -149 -65q-59 23 -75.5 57t-0.5 100q11 42 40.5 77t66.5 48q12 4 -16 25q-25 20 -36 16q-9 -3 -10.5 -1t0.5 12q5 10 -13 45zM235 496q-17 0 6 -38q5 -9 12 -18q30 -37 23 -37q-5 -1 -26 23q-41 46 -57 22q-11 -17 -13 -6
q-2 8 5 22q8 16 8 24t-8 24q-12 26 -12 30q2 5 15 -12q27 -32 47 -9q9 10 9 -2q-2 -17 -9 -23z" />
    <glyph glyph-name="aring" unicode="&#xe5;" horiz-adv-x="394" 
d="M160 72q14 0 30.5 13.5t26.5 32.5q6 10 -1 9q-8 0 -20 -12q-13 -13 -49 -17t-53 6q-14 7 -13 2q5 -9 34 -21.5t45 -12.5zM102 172q0 -13 15.5 -29t26.5 -14q13 3 -15 28q-27 25 -27 15zM214 80q10 0 37.5 34.5t31.5 51.5q2 15 8 32q2 9 0 9q-3 0 -20 -20
q-11 -13 -26.5 -39t-25 -47t-5.5 -21zM86 182q0 -38 7 -41q4 -4 4 15q-1 40 -8 57q-2 5 -3 -2v-29zM276 258q-2 7 -3 -3q-2 -19 1 -20q1 -1 2 3q4 9 0 20zM227 178q16 14 19 44t-8 50q-7 8 -8 -8q0 -23 -22 -108zM68 148q-3 25 11 78t15 64q0 14 -7 14q-8 0 -17.5 -56
t-5.5 -78zM126 325q0 11 -17 -11q-6 -7 -7 -9t2 0q2 1 8 6q14 12 14 14zM260 220q5 107 -32 116q-10 0 -10 -3t14 -21q20 -28 28 -92zM198 324q-8 10 -23.5 11.5t-19.5 -6.5q-5 -7 5 -11q8 -3 -2 -4q-2 -1 -6 -1q-26 -1 -32.5 -40.5t11.5 -85.5q12 -31 28 -37t29 16
q13 19 17 82t-7 76zM224 354q7 2 -3 3q-19 2 -20 -1q-1 -1 3 -2q9 -4 20 0zM142 357q-1 10 -21 0q-11 -6 -5 -7q3 -1 10 0q16 4 16 7zM205 368q23 0 35 -5.5t32 -23.5q30 -29 30 -53q0 -27 27 -83q43 -91 31 -91q-6 0 -21 28q-23 40 -17 15q2 -12 11 -37q4 -13 7 -23.5
t3.5 -16.5t-1.5 -6q-9 6 -42 116l-8 -31q-8 -29 -37.5 -61t-55.5 -36q-81 -11 -124.5 30.5t-44.5 122.5q0 32 5.5 48.5t26.5 48.5q32 48 46 58q12 5 27 5t35.5 -2.5t34.5 -2.5zM182 472q14 1 6 14q-8 12 -12 5q-2 -2 -2 -6q0 -13 8 -13zM212 502q-3 -18 2 -17q6 1 7 15
q1 5 -1 9q-3 14 -7 -1q0 -3 -1 -6zM146 488q8 -14 16 2q10 19 0 28l-4 2q-8 0 -12.5 -12t0.5 -20zM191 507q3 -2 5 3q5 15 0 31q-3 8 -6 -6q-1 -3 -2 -7q-4 -18 3 -21zM90 597q-22 17 -13 19q11 2 26 -12q2 -2 3 -4q10 -13 43.5 -16.5t42.5 -8.5q18 -9 40 5q21 14 32 10
q9 -3 -15 -16q-2 -1 -5 -2q-22 -10 -24 -15.5t7 -21.5q22 -41 2 -61q-10 -6 4 -31t11 -29q-3 -9 -17 16q-8 16 -13.5 19.5t-15.5 -1.5q-16 -8 -44 -8q-13 0 -22 5.5t-12 9.5t-8.5 17.5t-6.5 16.5l-22 -18q-24 -20 -25.5 -13t23.5 27q17 14 23 25t7 33q2 23 -1.5 32t-19.5 22
z" />
    <glyph glyph-name="ae" unicode="&#xe6;" horiz-adv-x="539" 
d="M424 107q2 -5 14 -1q8 2 1 4q-2 1 -5 1q-11 0 -10 -4zM398 130q6 0 -9 9q-43 24 -64 28q-4 1 -3 -1q5 -8 37 -23t39 -13zM132 176q-39 0 -39 -8q-1 -13 42 -6q26 5 25 10q0 4 -28 4zM61 204q-11 12 -13 12q-2 -1 -3 -12q0 -5 4 -8.5t9 -3.5q15 0 3 12zM229 221
q3 -10 13 5q8 12 0 11q-3 0 -7 -3q-6 -4 -6 -13zM67 242q-2 7 -3 -3q-2 -19 1 -20q1 -1 2 3q4 9 0 20zM262 309q-1 -12 3 -11q5 0 3 13q0 2 -1 3q-2 6 -4 2q-1 -2 -1 -7zM64 320q-5 0 -16 -30t-9 -40q1 -8 8 7q17 39 18 61q0 3 -1 2zM453 331q1 -12 9 -6q10 7 6 15
q-1 3 -7 4q-8 0 -8 -13zM404 367q-29 10 -41.5 5.5t-45.5 -36.5q-50 -48 -35 -63q4 -5 14 -4q30 0 50 1q38 3 60 25q24 24 23.5 44t-25.5 28zM311 349q28 26 22 26q-4 0 -25 -11q-13 -7 -23.5 -21.5t-5.5 -19.5q3 -1 32 26zM237 328q0 40 -7.5 45.5t-37.5 -12.5
q-32 -20 -45.5 -43t-13.5 -57t8 -47.5t28 -13.5q27 0 47.5 38.5t20.5 89.5zM124 200q9 0 0 17q-10 16 -3 59q5 36 22 59t54 42q19 10 21 12q-7 2 -13 2q-19 -1 -51.5 -19.5t-49.5 -39.5q-16 -19 -19 -51t8 -56.5t31 -24.5zM453 377q0 -16 17 -27q30 -19 -30 -66
q-58 -44 -120 -44q-37 0 -34 -17q5 -26 86 -63q8 -4 16 -7q43 -18 55 -8q11 10 17 1q6 -10 22 2q15 11 21 11t6 -13q-1 -16 -36.5 -37t-61.5 -21q-30 0 -67 16q-38 16 -44 7q-13 -21 -27 27q-2 6 -4 14q-7 28 -11.5 33.5t-18.5 1.5q-51 -12 -73 -28q-19 -14 -42.5 -14
t-37.5 14q-15 15 -30 19q-19 4 -25 50t9 74q24 47 99 90q24 14 38 17.5t36 0.5q35 -3 45 -16q5 -8 14 -7.5t37 8.5q57 17 100.5 11.5t43.5 -29.5z" />
    <glyph glyph-name="ccedilla" unicode="&#xe7;" horiz-adv-x="363" 
d="M84 150q-21 21 -24 54q-5 48 -17 -10q-5 -20 1 -32t26 -22q28 -15 29 -10q0 4 -15 20zM192 376q21 9 41.5 14t42.5 0.5t29 -23.5q2 -6 5.5 -13t5 -10.5t0.5 -4.5q-4 -2 -33.5 18.5t-34.5 18.5q-30 0 -95.5 -53.5t-72.5 -84.5q-5 -20 8.5 -53t29.5 -42q17 -9 69 -4t75 18
q29 17 46 45q26 39 25 19q0 -5 -3 -16q-5 -21 -30.5 -49t-39.5 -28q-23 0 -68 -26.5t-76 -52.5l63 -3q40 -2 52 -4.5t13 -11.5q7 -37 -24.5 -60.5t-93.5 -27.5q-51 -3 -54 8q-2 5 7 8q9 2 33 2q40 0 74.5 12.5t39.5 29.5q4 16 1 19q1 1 -17 2t-44 2l-52 2t-44 2t-17 3
q0 2 54 42q41 29 40 35q0 3 -7 3q-59 0 -93 29t-4 89q15 30 67.5 81.5t81.5 64.5z" />
    <glyph glyph-name="egrave" unicode="&#xe8;" horiz-adv-x="368" 
d="M227 139q18 8 18 10q0 4 -60 -7q-3 0 -6 -1l-52 -9q68 -6 100 7zM238 178q-16 -1 -35.5 0.5t-42 6t-38 8t-38.5 10t-28 7.5q2 -3 7.5 -12t8 -13.5t8.5 -11.5t11 -10t12.5 -6t16.5 -3q121 0 144 17q11 8 -1 9q-7 0 -25 -2zM67 296q7 14 5.5 15.5t-8.5 -7.5
q-15 -21 -10 -24q4 0 13 16zM235 300q8 4 8 16t-8 16q-5 3 -7 -6q-1 -4 -1 -10q2 -17 8 -16zM216 308q5 36 -5.5 41.5t-51.5 -12.5q-26 -12 -44 -29.5t-13 -25.5q6 -10 31 -13t48 4q19 5 26 11.5t9 23.5zM255 358q-31 16 -28 4q3 -13 27 -31q12 -8 15 -5q18 17 -14 32z
M266 384q-15 0 -1 -8q3 -1 7 -3q6 -2 7 0q2 5 -8 10q-3 2 -5 1zM211 372q7 -3 8 3q0 9 -8 9q-5 0 -6.5 -1.5t-1 -3t2.5 -3.5t5 -4zM218 400q50 0 61.5 -7t11.5 -35q0 -35 -14 -51.5t-61 -39.5q-89 -42 -105 -19q-6 10 -20 7.5t-19 -13.5q-5 -13 3.5 -19.5t46.5 -17.5
q48 -14 95 -12.5t75 17.5q31 17 31 24q0 6 8 6q22 0 -15 -42q-23 -27 -20 -35q4 -11 -47 -31t-83 -20q-38 0 -77 26q-31 22 -42 38.5t-16 51.5q-4 25 7.5 55t28.5 38l36 18q47 24 61 34t12 17q-1 3 0.5 5t6.5 3t13 1.5t22 0.5zM112 552q8 0 45.5 -26t37.5 -31q0 -7 12 -7
q11 0 20 -16q5 -10 4.5 -13t-7.5 -3q-14 0 -64.5 35t-51.5 47q-1 5 0.5 9.5t3.5 4.5z" />
    <glyph glyph-name="eacute" unicode="&#xe9;" horiz-adv-x="307" 
d="M164 122q11 3 -3 4q-24 1 -24 -2q0 -1 3 -2q11 -4 24 0zM72 158q2 -5 3.5 -10.5t2 -6.5t3 -4t5 -4.5t10.5 -5.5q11 -6 12 -5q2 1 -14 19q-22 26 -23 27t-1 0q-1 -3 2 -10zM250 336q-14 16 -20 15t-11 -20q-5 -20 -1 -23.5t24 4.5q16 6 17.5 9.5t-9.5 14.5zM111 340
q-17 -21 -22 -33t-3 -34q85 27 114 31q8 0 4 30q-2 22 -6.5 26.5t-28.5 5.5q-23 2 -33 -2.5t-25 -23.5zM231 375q-23 20 -69 17l28 -11q53 -20 54 -18q-2 2 -13 12zM98 248q-16 0 -18.5 -4t0.5 -24q11 -70 70 -80q26 -4 61 0t53 14q14 7 13 -2q0 -6 -9 -17t-44 -25t-56 -14
q-24 0 -54.5 10.5t-40.5 22.5q-14 16 -17 67q-4 52 -15 52q-19 2 -6 18q13 14 21 8q3 -2 5 4q1 3 1 9q0 25 27 61t53 46q15 5 49 5q57 1 77 -55q11 -29 -3.5 -43t-72.5 -31q-73 -22 -94 -22zM263 536q22 0 -6 -18q-13 -9 -33 -18q-41 -17 -68 -42q-22 -21 -22 -9q0 33 63 72
q35 23 47 19t19 -4z" />
    <glyph glyph-name="ecircumflex" unicode="&#xea;" horiz-adv-x="340" 
d="M38 213q0 -4 25 -33q34 -38 36 -26q0 3 -2 9t-17 20t-28.5 24t-13.5 6zM79 222q-5 20 -19 24q-14 2 -13 -5q0 -7 12 -23q19 -27 22 -13q1 5 -2 17zM190 281q12 7 6 6q-11 0 -34 -11l-16 -9q1 -1 12 2q24 6 32 12zM70 288q0 22 -3 23q-2 0 -11 -9q-10 -10 -9.5 -24
t11.5 -14q12 0 12 24zM262 336q4 -1 6.5 4.5t1.5 12t-3 7.5l-5 -5q-9 -17 0 -19zM243 368q-5 0 -9 -4.5t-4 -9.5q0 -12 -14 -28q-10 -12 -7 -12q1 0 6 2q11 4 26 28q5 8 7 12.5t2 7.5t-1.5 3.5t-5.5 0.5zM222 366q0 9 -17.5 10.5t-41 -4t-39.5 -16.5q-18 -13 -32 -36
t-14 -41q0 -16 44 1q17 6 34 16q30 17 48 36t18 34zM218 392q22 -13 27 -5q5 7 -6 11q-6 3 -15 1q-13 0 -15 -1t3 -3zM219 407q30 0 44.5 -15.5t14.5 -39.5q0 -16 12 -16q29 0 -12 -26q-58 -36 -130 -55q-55 -13 -59 -17q-7 -7 9.5 -35.5t30.5 -33.5q19 -7 25 -16
q6 -11 42 -8t66 19q53 27 48 16q-4 -9 -54 -41q-32 -20 -44 -23t-41 0q-43 6 -77 23.5t-48 40.5t-16 65.5t10 65.5q8 17 47.5 46t69.5 39q29 11 62 11zM278 432q-11 0 -37.5 26t-26.5 36q0 11 -7 10q-8 -1 -13 -16q-4 -13 -51.5 -46.5t-61.5 -33.5q-16 0 -9 10q5 7 20 13
q29 14 57 39.5t38 49.5q6 13 12 20.5t9 6.5q2 -2 4.5 0.5t2.5 6.5q1 5 3 -4q1 -5 3 -16q4 -22 12.5 -36t35.5 -44q19 -22 9 -22z" />
    <glyph glyph-name="edieresis" unicode="&#xeb;" horiz-adv-x="332" 
d="M206 321q0 12 -12 0l-2 -2q-11 -11 -47 -28q-26 -13 -26 -16q0 -1 11 1q21 4 48.5 20.5t27.5 24.5zM220 358q-2 9 -3 -2q-3 -30 1 -30q1 0 2 4q4 13 0 28zM159 400q-18 0 -60.5 -54t-32.5 -64q4 -5 46.5 10.5t63.5 29.5q40 28 6 62q-16 16 -23 16zM238 346q0 -34 -38 -58
t-102 -31q-35 -4 -42 -7.5t-8 -19.5q-3 -23 28 -54q22 -23 34 -27.5t51 -4.5q53 0 53 13q0 11 14 8q16 -5 34 15q27 28 37 18q3 -2 3 -8q0 -11 -16 -24.5t-42 -24.5q-29 -13 -34 -21q-4 -8 -31 -8q-23 0 -79.5 20t-63.5 30q-12 75 3 122t71 110q26 29 40.5 34.5t30.5 -7.5
q39 -36 48 -47.5t9 -27.5zM83 498q-1 22 -1 24.5t11 -2.5t19 -2q6 2 9.5 -1t4.5 -7t4 -3.5t8 8.5q11 16 18 11q2 -4 -14.5 -26.5t-10.5 -30.5q6 -14 -9 -8q-14 5 -25 -12q-16 -22 -22 -16q-3 4 4 16q9 18 4 49zM205 536q9 0 12 -7q5 -7 35 0q15 4 22.5 5.5t12.5 1.5t6 -1.5
t1 -5.5q0 -8 -24 -11q-42 -9 -12 -51q17 -22 10 -24q-3 -1 -13 8q-15 13 -28 8q-13 -4 -13 10q0 15 -10 5q-14 -14 -17 -9t11 19q13 13 14.5 19.5t-4.5 16.5q-11 16 -3 16z" />
    <glyph glyph-name="igrave" unicode="&#xec;" horiz-adv-x="234" 
d="M126 338q0 48 6 50q3 0 9 -3q15 -8 24 -79q27 -204 16 -223q-7 -9 -1 -13q4 -6 -4 -6t-17 26q-10 29 -21.5 116t-11.5 132zM30 581q0 6 27 -15q11 -8 31 -24q34 -28 83 -54q33 -17 33 -22q0 -2 -7 -2q-18 0 -55 24q-11 7 -17.5 11t-11 5.5t-6.5 0.5t-3 -5q-5 -24 -30 1
q-10 10 -27 41t-17 39z" />
    <glyph glyph-name="iacute" unicode="&#xed;" horiz-adv-x="291" 
d="M84 274q-2 7 -3 -3q-2 -19 1 -20q1 -1 2 3q4 9 0 20zM60 292q-2 37 5 75t19 57q8 0 29.5 -161t14.5 -168q-8 -8 -17 27q-3 9 -5 21q-5 27 -38 102t-38 95q0 16 13 -12l2 -4zM62 465q0 10 42 37.5t88 47.5q67 29 69 23q0 -2 -1 -6q-2 -7 -20.5 -17.5t-72.5 -34.5
q-58 -26 -79 -41q-24 -17 -26 -9z" />
    <glyph glyph-name="icircumflex" unicode="&#xee;" horiz-adv-x="289" 
d="M117 222q0 37 -8 47q-7 7 -10.5 57t2.5 54q3 2 6.5 -2.5t4.5 -11.5q2 -11 2 2v14q-2 35 7 33q4 -1 8 -17q1 -4 5.5 -23.5t6.5 -30.5q13 -54 13 -213q1 -73 -5 -67q-7 9 -9 80q-2 58 -5 54q-6 -23 -13 -11q-5 9 -5 35zM165 574q0 10 15 10q10 0 11.5 -6.5t-0.5 -31.5
q-2 -28 2.5 -38t31.5 -38q36 -40 34 -42q-3 -3 -37 17q-19 11 -28 22t-15 31q-8 24 -13 23q-5 -14 -67 -49.5t-69 -28.5q-1 1 9.5 9.5t28.5 19.5q31 19 64 53.5t33 48.5z" />
    <glyph glyph-name="idieresis" unicode="&#xef;" horiz-adv-x="266" 
d="M93 300q1 133 7 133q3 0 10 -37v-24q17 51 19 51q5 -5 16 -118q13 -115 4 -124q-7 -1 -8 12q0 13 -3 13q-10 -3 -17 -52q-4 -34 -12 -34q-5 0 -8 8t-4.5 29t-2.5 55t-1 88zM201 553q5 14 12 14q9 1 -4 -23q-13 -25 -11 -44.5t20 -45.5q22 -31 18 -35q-3 -2 -16 14
t-26.5 32.5t-16.5 14.5q-4 2 -25 -22.5t-24 -22.5q-3 13 39 63l-17 23q-21 29 -15 29q4 0 14 -9q13 -13 29.5 -9t22.5 21zM93 540q28 28 32 24q3 -3 -16 -24q-17 -18 -14 -39q4 -21 -12 -26q-15 -3 -34 -26q-19 -21 -20 -9t17 34q11 18 10.5 22.5t-6 13.5t-5.5 18q0 12 10 1
q1 -2 2 -3q8 -10 12.5 -8t23.5 22z" />
    <glyph glyph-name="ntilde" unicode="&#xf1;" horiz-adv-x="333" 
d="M255 274q-2 16 -3 -2q-2 -60 2 -57l1 7q4 26 0 52zM102 300q-8 -20 -4 -19q7 2 13 20q2 6 0 8q-1 1 -4 -1.5t-5 -7.5zM249 312q0 14 -18 42q-6 10 -6 5q-4 0 14 -35q8 -16 10 -12zM200 364q1 1 -1.5 2.5t-7.5 3.5q-10 4 -30 -15t-32 -43q-5 -10 -1 -9q6 2 30 24
q39 36 42 37zM155 376q-4 0 -15.5 -12t-19.5 -24.5t-6 -14.5q0 -3 12 9.5t22.5 27t6.5 14.5zM233 385q0 7 -25 7q-19 0 -20 -2q1 -3 9 -9q11 -8 23.5 -7t12.5 11zM257 88q-7 0 -3 26q3 18 1 19q-2 0 -5 -5q-4 -7 -7 8q-2 15 -2 60q0 111 -23 148q-6 9 -22.5 -0.5t-38.5 -34
t-45 -58.5q-26 -39 -32.5 -57.5t-10.5 -65.5q-5 -58 -10 -54q-8 6 -9 122q-2 106 -13 143q-12 40 -4 48q7 -1 8 -15q1 -17 2 -18t4 4q2 2 4 6q8 11 9.5 10t5.5 -18q9 -44 7 -112l20 54q15 45 32.5 67.5t46.5 32.5q55 20 68 -4q6 -12 25 -84q13 -49 14 -71.5t-6 -74.5
q-11 -76 -16 -76zM269 473q7 12 2 11q-7 0 -22 -17t-14 -17q1 -1 12 5q19 9 22 18zM121 512q-12 0 -29.5 -16.5t-22.5 -33.5q-4 -12 -10.5 -14t-13.5 8q-10 14 25 44.5t59 34.5q17 3 43 -47q19 -37 26 -38q3 -4 28 16t49.5 41t26.5 19q4 -4 -11.5 -35.5t-26.5 -40.5
q-9 -8 -92 -20q-2 3 -7.5 16t-10 22.5t-11 20.5t-12 17t-10.5 6z" />
    <glyph glyph-name="ograve" unicode="&#xf2;" horiz-adv-x="360" 
d="M174 110q-39 9 -44 10q-21 5 -22 4l7 -7q1 0 2 -1q17 -11 44 -11q18 1 17 3q0 1 -4 2zM208 88q20 0 41 16.5t15 30.5q-9 -5 -42 -24q-31 -17 -32 -20q-1 -2 6 -3h12zM248 146q25 25 15 28q-9 3 -36 -16q-27 -20 -27 -24q0 -3 10 -4q17 -3 38 16zM76 130q-20 19 -22 106
l-10 -27q-24 -62 10 -84q30 -18 32 -10q1 4 -10 15zM308 191q17 28 11 65.5t-28 58.5q-26 23 -25 14q0 -8 17 -35q13 -22 13 -59.5t-4 -69.5zM266 242q0 68 -53 90q-27 11 -58 12t-40 -10q-26 -32 -32.5 -96t15.5 -86q18 -19 46.5 -16.5t55.5 16t46.5 39t19.5 51.5zM214 368
q-2 7 -30.5 8t-29.5 -8q-1 -2 5 -4q22 -8 48 -3q8 3 7 7zM30 169q0 43 32.5 110.5t61.5 86.5q26 17 58.5 17.5t53.5 -15.5q20 -16 28 -16q8 -1 29 -21t28 -33q15 -28 6.5 -79.5t-31.5 -64.5q-6 -4 -24 -36.5t-27 -35.5q-18 -6 -93.5 5t-95.5 23q-18 11 -22 19.5t-4 39.5z
M74 538q0 33 57 -26l4 -4q38 -42 77 -60q21 -11 22 -13t-4 -2q-29 0 -92.5 43t-63.5 62z" />
    <glyph glyph-name="oacute" unicode="&#xf3;" horiz-adv-x="383" 
d="M294 173q0 11 -17 -11q-6 -7 -7 -9t2 0q2 1 8 6q14 12 14 14zM300 230q-3 11 -4 -3q-1 -24 2 -24q1 0 2 3q4 11 0 24zM286 227q0 33 -8 45q-5 8 -7 -6q-1 -8 -1 -26q1 -44 -26 -84l11 11t12 12.5t9 12t7.5 16.5t2.5 19zM161 136q23 0 54.5 20.5t39.5 40.5q12 32 3.5 75.5
t-30.5 61.5q-12 10 -36 13.5t-38 -2.5q-19 -8 -46 -39q-51 -56 -33 -113q8 -20 35.5 -38.5t50.5 -18.5zM81 314q3 6 8.5 14.5t8 13t5.5 9.5t4 7l1 2q-31 -5 -56.5 -77t-7.5 -104q7 -12 9 8q1 10 1 30q0 33 5 50t22 47zM296 370q-19 20 -32 26.5t-39 9.5q-11 0 -17 1t-14 -2
t-11.5 -3.5t-10 -5t-9 -6.5t-8.5 -7.5t-9 -7.5q38 14 70 -6q22 -14 57.5 -62t37.5 -65q1 -19 7 6.5t7 53.5q1 22 -4.5 34.5t-24.5 33.5zM215 416q58 0 88.5 -30.5t30.5 -87.5q0 -32 -10.5 -73.5t-23.5 -62.5q-19 -28 -81.5 -38t-119.5 7q-44 14 -56.5 29.5t-12.5 55.5
q0 60 22 103.5t56 52.5q18 3 44 25q24 19 63 19zM197 432q-15 0 -15 6q0 8 22 12q20 5 43 22t19 24q-2 6 11.5 13.5t28.5 14.5t15 11q8 15 26 -3q9 -7 4.5 -12.5t-27.5 -15.5q-12 -5 -60 -36.5t-67 -35.5z" />
    <glyph glyph-name="ocircumflex" unicode="&#xf4;" horiz-adv-x="337" 
d="M99 148q0 -3 26 -20q52 -32 84 2l17 18h-127zM243 156q2 -2 -6.5 -12t-16 -20t-4.5 -12q16 -3 40.5 30t24.5 55q-4 3 -21 -15.5t-17 -25.5zM70 172q-19 33 -23 34q-2 1 0 -9q2 -5 4 -12q15 -51 40 -65q23 -13 27 -7q2 3 -9 11q-16 11 -39 48zM53 227q9 -1 11 44
q1 17 -1 16q-3 -1 -9 -26q-4 -31 -1 -34zM227 334q24 -50 24 -98q0 -40 4 -40q3 0 8 7q11 14 11.5 52t-9.5 50q-22 26 -36 30q-2 1 -2 -1zM156 160q55 0 67 11.5t12 61.5q0 90 -39 111q-18 10 -28 5.5t-35 -32.5q-32 -35 -40.5 -53.5t-7.5 -47.5q2 -35 15 -45.5t56 -10.5z
M146 360q-15 0 -33 -16t-27 -37q-17 -42 -8 -39q3 2 10 12q17 24 42 50q30 30 16 30zM213 361q-7 7 -48 13q-16 0 -23 1.5t-17 -4.5t-13.5 -8t-12 -10t-12.5 -11l20 13q40 25 94 4q15 -5 16 -4t-4 6zM307 223q0 -67 -50 -106q-18 -14 -34 -17.5t-58 -3.5q-40 0 -57 3.5
t-34 14.5q-33 22 -40.5 48t1.5 92q9 79 34 115q4 6 10.5 16.5t9.5 15t8.5 10t12.5 7t16 0.5q2 -2 1.5 -3.5t-3.5 -4t-7 -3.5q-15 -5 -23 -16q-5 -8 4 -6l6 2q88 33 145.5 -21.5t57.5 -142.5zM171 540q0 -13 26 -40.5t46 -35.5q24 -11 24 -17q0 -17 -38 -1q-19 8 -37 22
l-37 29l-18 -19q-10 -11 -33 -26.5t-42 -25t-19 -4.5q3 9 50 53t51 54q9 24 20 23q7 0 7 -12z" />
    <glyph glyph-name="odieresis" unicode="&#xf6;" horiz-adv-x="324" 
d="M177 143q0 5 -19.5 8.5t-42 6t-25.5 5.5h-4q2 -2 16 -10q22 -13 46 -16t29 6zM55 162q10 -16 13.5 -12.5t-9.5 16.5q-11 10 -11 9.5t7 -13.5zM260 187q13 25 7 24q-7 -1 -37 -37l-36 -42q56 32 66 55zM283 238q-3 11 -4 -3q-1 -24 2 -24q1 0 2 3q4 11 0 24zM260 239
q11 24 5.5 49.5t-20.5 41.5q-10 11 -11 9q-1 0 1 -3q8 -15 11 -64q4 -43 6 -43t8 10zM151 352q-23 0 -31.5 -5.5t-24.5 -30.5q-19 -31 -26.5 -65t1.5 -51q17 -31 61.5 -38t71.5 17q14 12 18.5 24t6.5 47q2 38 -1 49.5t-20 28.5q-24 24 -56 24zM127 112q-39 0 -52 3.5
t-26 16.5q-15 15 -17.5 29t-0.5 71q1 54 5.5 71.5t21.5 41.5q25 34 44 40q49 13 97.5 -2.5t71.5 -51.5q18 -29 21 -79q3 -34 0 -47t-17 -32q-46 -61 -148 -61zM99 516q16 12 17 10.5t-1 -30.5q-2 -22 1.5 -30.5t18.5 -18.5q6 -5 12 -8.5t9.5 -5t4.5 -0.5q8 11 22.5 42.5
t5.5 38.5q-9 12 -1 14q7 1 11 -7q1 -2 1 -3q3 -9 13.5 -4.5t23.5 10.5t14 2q4 -4 -12 -13q-15 -8 -12 -37q2 -25 -6 -28q-3 -1 -6 6q-1 1 -1 2q0 14 -15 7q-13 -7 -18 -23q-7 -22 -17.5 -22.5t-35.5 19.5q-26 20 -26 10q0 -8 -17 -5t-21 -7q-4 -11 -11 -11q-8 0 9 30
q11 21 11 27t-10 17q-12 13 -8 14q3 0 12 -3q18 -4 32 7z" />
    <glyph glyph-name="divide" unicode="&#xf7;" horiz-adv-x="482" 
d="M228 80q6 -1 8 2q2 5 -8 10q-7 3 -8 -3q0 -9 8 -9zM269 113q4 16 -2 15q-8 -2 -13 -18q-1 -4 -1 -8q-1 -6 2 -6q7 0 14 17zM212 84q-2 10 -36 2q2 2 7 6.5t10 8t9.5 8.5t4 9t-4.5 8q-3 6 -15.5 9t-14.5 9q0 6 5.5 7.5t13.5 -1.5t13 -10q6 -8 12.5 -6.5t19.5 12.5
q14 12 34.5 11.5t34.5 6.5q19 12 19 4q-1 -6 -15 -15q-19 -14 -30 -45t-1 -43q6 -8 5 -9t-11 4q-5 2 -20.5 5t-27 7.5t-12.5 11.5zM40 265q13 6 208 4.5t201 -8.5q2 -1 2.5 -4.5t-1.5 -4.5q-7 -7 -279 -25q-60 -4 -75.5 -2.5t-28.5 14.5q-20 18 -30 18q-12 0 -1 6zM275 416
q6 -1 8.5 6.5t-2.5 9.5t-9 -8q-3 -7 3 -8zM247 432q20 -1 21 9q0 6 -15 7q-18 0 -21 -8q-3 -5 7 -7q4 -1 8 -1zM297 368q18 -13 11 -16q-11 -2 -20 8q-6 9 -16 0q-11 -10 -46 -2q-24 4 -29 8.5t-4 21.5q2 33 6.5 45.5t16.5 16.5q38 11 69 0q9 -4 9.5 -10t-6.5 -26
q-8 -21 -6.5 -28.5t15.5 -17.5z" />
    <glyph glyph-name="ugrave" unicode="&#xf9;" horiz-adv-x="460" 
d="M238 136q10 8 3 8q-10 -1 -19 -8q-10 -8 -3 -8q11 1 19 8zM315 206q9 1 3 23q-5 15 -8 4q-1 -3 -2 -9q-6 -21 -1 -22q2 0 8 4zM84 128q8 0 1 22q-12 31 -29 118v-60q-1 -45 5.5 -62.5t22.5 -17.5zM356 262q-2 9 -3 -2q-3 -30 1 -30q1 0 2 4q4 13 0 28zM326 300
q-15 25 -19 26q-4 2 13 -40q13 -34 18 -31q1 1 2 3q4 15 -14 42zM430 78q0 -23 -38 27q-9 12 -20 28q-38 54 -45 57q-8 4 -51 -36q-32 -29 -46.5 -35.5t-57.5 -10.5q-86 -8 -110 11t-24 95q0 72 20 156q6 24 11 22q10 -4 7 -45q-2 -20 -7 -33q-7 -16 -3 -16q2 0 6 4
q7 5 9 -9q1 -10 2 -39q0 -55 16 -90q11 -22 18 -27t25 -4q41 3 140 56l2 53q2 44 -11.5 85.5t-35.5 61.5q-15 13 -10 20q7 4 10.5 3.5t11.5 -4.5t14 -4q14 -1 19 -6q4 -9 38 -52q34 -44 44.5 -69t5.5 -51q-5 -25 28 -83q32 -55 32 -65zM62 490q0 8 -16 26t-16 26
q0 12 34 -16q29 -24 62 -44q27 -14 30 -28q2 -14 -6 -13q-9 2 -36 22q-31 23 -42 19q-10 -3 -10 8z" />
    <glyph glyph-name="uacute" unicode="&#xfa;" horiz-adv-x="350" 
d="M113 128q-29 0 -49 18q-18 16 -18 9q-1 -9 20 -30q16 -17 36.5 -20t31.5 11q9 10 -4 11q-5 1 -17 1zM161 156q4 12 1 11q-2 0 -12 -11q-9 -12 -2 -12q9 2 13 12zM214 217q0 9 -1.5 12.5t-4.5 0.5t-5 -12t-11 -30t-10 -24q32 35 32 53zM202 242q6 21 2 36q-2 10 -6 -6
q-2 -4 -3 -11q-6 -36 0 -36q3 0 7 17zM319 72q-9 -1 -24.5 22t-31.5 52t-24 36l-16 19q-30 -53 -40 -57q-7 0 -36 -29q-18 -18 -28 -22.5t-24 -0.5q-43 10 -57 59q-8 29 -8 108t8 94q9 16 18 15q7 -1 2 -14q-8 -20 -10 -73t5 -79q11 -40 39.5 -48t63.5 20q20 16 27 75
q12 101 24 103q6 1 15 -24q6 -21 16 -64q13 -53 49 -118q40 -74 32 -74zM241 526q5 16 29 16q18 -1 18 -6q0 -6 -37 -47q-20 -22 -53 -44.5t-38 -17.5q0 5 41 48.5t40 50.5z" />
    <glyph glyph-name="ucircumflex" unicode="&#xfb;" horiz-adv-x="319" 
d="M153 135q1 2 -1.5 4t-8.5 4t-13 3q-21 2 -21 -2q-1 -2 3 -6q7 -9 22 -10t19 7zM44 318q-2 14 -3 -3q-3 -48 1 -48q1 1 2 7q4 21 0 44zM70 267q0 -56 18 -79q11 -14 19 -17t29 0q52 6 69 33.5t17 98.5q0 65 12 62q3 0 7 -10q5 -17 5 -43q0 -37 35 -122q11 -27 7 -29
q-5 -2 -17 25q-3 6 -5 12l-14 36q-17 -38 -52 -80t-55 -42q-29 0 -49.5 17.5t-40.5 58.5q-16 32 -20.5 52.5t-4.5 57.5q0 57 9 88q7 30 15 29t9 -33q1 -22 3 -22q1 0 2 10q2 9 4.5 14t5.5 4q6 -4 -1 -34t-7 -87zM166 558q-3 -11 34.5 -58t37.5 -53q0 -20 -56 49
q-21 25 -30 40q-3 -4 -13.5 -21t-18 -28t-17.5 -21t-18 -10q-11 0 -11 3t18 24q27 31 43 60q31 57 31 15z" />
    <glyph glyph-name="udieresis" unicode="&#xfc;" horiz-adv-x="308" 
d="M102 98q0 3 -20 30q-11 15 -16 19.5t-4 -1.5t8 -25q12 -31 32 -23zM102 139q-9 10 -21 43q-7 21 -9 21q-1 1 -2 -11q0 -21 22 -54q16 -23 23.5 -27.5t28.5 -4.5q13 0 23.5 6.5t16 13t14 20t11.5 18.5l-17 -14q-18 -16 -48.5 -20t-41.5 9zM213 134q13 13 31 59t16 66
q-1 15 -10 -9q-2 -6 -4 -14q-10 -35 -30 -80q-16 -31 -13 -31q2 0 10 9zM53 174q3 -8 3 30q0 108 -6 136q-2 9 -3 -39v-29q0 -82 6 -98zM45 416q4 -3 8 -18.5t8 -37.5t5 -28q2 4 6 15.5t7.5 21.5t7.5 20.5t8 17.5t7 9q6 0 6 -3q0 -4 -19 -53q-17 -42 -16.5 -77t20.5 -94
q9 -28 15 -34.5t24 -8.5q43 -4 65 29t44 137q16 77 23 77q2 0 4 -2q10 -10 10 -57q0 -80 -24 -143.5t-62 -88.5q-19 -13 -32.5 -15t-44.5 3l-48 6l-15 44q-13 37 -19 118.5t0 123.5q5 38 12 38zM70 520q8 0 8 -8t26 -4l18 1l-1 -1q-9 -4 -7 -31q2 -17 -0.5 -21t-12.5 -2
q-15 4 -15 13q-1 4 -12 -7q-7 -7 -9 -2q-7 4 4 17q10 13 1 28q-9 17 0 17zM190 537q-7 13 -1 15q7 1 12 -8q1 -2 1 -4q2 -7 10.5 -6.5t9.5 -5.5q0 -10 21 -4q15 4 16 1q1 -2 -3 -7q-11 -14 -10.5 -34.5t11.5 -34.5q18 -23 8 -22q-9 1 -23 18l-19 23l-21 -19q-20 -20 -20 -11
q0 10 8 14q8 5 8 37.5t-8 47.5z" />
    <glyph glyph-name="yacute" unicode="&#xfd;" horiz-adv-x="432" 
d="M186 16q4 7 2 7t-22 -16q-13 -10 -13.5 -11.5t10.5 3.5q19 10 23 17zM266 134q13 32 10 44q-2 7 -8 -7q-3 -8 -7 -22q-15 -52 -8 -41q4 5 13 26zM181 208q-6 0 -3 -8q4 -8 13 -8q10 4 -1 13q-6 4 -9 3zM252 258q-14 -10 -34 -10t-39 8q-22 8 -20 -1q1 -8 23 -26
q16 -13 24 -15t22 3q34 13 34 39q0 12 -10 2zM146 238q-24 43 -35 52q-3 3 -3 -2q2 -9 14 -30q24 -43 35 -52q3 -3 3 2q-2 9 -14 30zM287 301q-1 -12 3 -12q5 1 2 12q0 3 -1 5q-3 4 -4 -5zM350 360q7 14 5.5 15.5t-8.5 -7.5q-15 -21 -10 -24q4 0 13 16zM219 184h-30l13 -24
q21 -40 9 -40q-8 0 -24 20q-13 16 -36.5 39.5t-37 45t-24.5 58.5q-18 59 -36 95q-10 21 -9.5 37.5t11.5 16.5q7 0 7 -12q0 -14 10 -33t17 -19q10 0 21 -26q10 -23 49 -50.5t62 -27.5q19 0 28.5 16t14.5 55q6 47 21 49q4 0 8 -6q9 -15 15 11q2 11 2 28q0 22 7 23q8 0 10 -26
l4 -26l19 40q14 31 18 30q2 0 3 -4q2 -8 3.5 -9.5t4 0t7.5 9.5q11 15 16 8q5 -5 -23 -65t-48 -87q-21 -27 -23 -82q-3 -57 -25 -100q-19 -38 -56.5 -83t-61.5 -58q-20 -10 -55.5 -11t-58.5 8q-22 8 -21 17q1 5 14 5q26 0 71.5 11t58.5 21q15 10 38 52t31 72q4 16 0 19t-24 3
zM182 463q0 8 29 26q34 21 60 49q12 13 20.5 20t14 8.5t9 -1.5t6.5 -10q5 -13 -3 -22t-43 -27q-40 -19 -60 -35q-33 -27 -33 -8z" />
    <glyph glyph-name="ydieresis" unicode="&#xff;" horiz-adv-x="512" 
d="M252 53q0 11 -17 -11q-6 -7 -7 -9t2 0q2 1 8 6q14 12 14 14zM234 58l32 45q-9 -6 -57.5 -47t-55.5 -46q-28 -21 -16 -22q8 0 31 11q31 13 66 59zM292 148q15 18 4 9q-14 -10 -64 -58l-64 -61q116 101 124 110zM277 216q-23 0 -39 6q-10 4 -10.5 2.5t7.5 -10.5
q9 -11 32 -13.5t29 7.5q3 5 -6 7q-5 1 -13 1zM175 344q-9 -2 0 -27q5 -14 7 -5q1 3 0 12q-4 20 -7 20zM381 456q-8 0 -13 -5t-4 -11t7 -8q5 0 17 12q4 5 4.5 7.5t-2 3.5t-9.5 1zM284 488q0 8 -12 8t-12 -8t12 -8t12 8zM388 485q2 -9 12 4q8 10 3 11q-6 6 -12 -5
q-3 -5 -3 -10zM244 508q0 10 -2 10q-2 1 -17 -10q-13 -11 -10 -12h11q18 0 18 12zM346 560q9 0 18 -16q16 -29 70 6q20 12 24 5q6 -6 -4 -9q-41 -12 -37 -84q0 -5 -14.5 -19.5t-6.5 -22.5q9 -11 -3 -61q-9 -43 -7 -43t11 12q6 7 20 36.5t21 35.5q23 5 -43 -119q0 -2 -1 -3
l45 38q45 38 43 31q-2 -10 -64 -70q-40 -39 -61.5 -67t-45.5 -74q-42 -81 -126 -170l-39 5q-27 3 -38.5 -0.5t-37.5 -22.5q-43 -33 -40 -21q2 8 25 32q18 19 23 29t1 23q-5 19 5 22q8 1 13 -13q6 -12 10 -12q5 0 88.5 76t93.5 90q7 10 5 12t-18 0q-21 -3 -33 5t-49 47
q-24 26 -31 44.5t-10.5 44t-16.5 53.5q-21 47 -15 49q4 2 21 -31l18 -34l2 44q3 50 9.5 49t10.5 -51q4 -66 19 -113t33 -54q100 -38 139 89q29 96 0 96q-16 0 -21 17q-2 7 -4.5 9.5t-5.5 1.5t-8 -6q-8 -6 -12.5 -4.5t-13.5 12.5q-13 16 -32 12q-19 -5 -28 8q-10 13 -36 6
q-38 -12 -30 4q10 19 43 39q3 2 5 3q24 13 20 31q-3 20 8 19q9 -2 23 -17q10 -10 10.5 -15t-7.5 -9l-7 -5q1 -1 11 1q39 10 62 15l-2 2q-9 12 -2 12zM350 544q-4 -4 -10 -11.5t-10 -11.5q-17 -21 -20 -31.5t5 -24.5q7 -12 19 -2q12 9 17 38.5t-1 42.5z" />
    <glyph glyph-name="Aogonek" unicode="&#x104;" horiz-adv-x="611" 
d="M427 226q11 3 -3 4q-24 1 -24 -2q0 -1 3 -2q11 -4 24 0zM248 226q7 2 -3 3q-19 2 -20 -1q-1 -1 3 -2q9 -4 20 0zM241 240q61 0 63 5q1 3 -2 9q-5 9 -13.5 33t-18.5 55.5t-14 41.5q-48 -69 -83 -144h68zM321 332q36 -75 35 -68q0 13 -45 108q-20 42 -25 44q-2 -3 35 -84z
M230 406q10 10 6 14q-1 1 -2.5 0t-4 -3.5t-3.5 -6.5q-3 -8 -2.5 -8.5t6.5 4.5zM285 497q-8 -25 -4 -23q8 5 22 47q6 18 3 21q-1 1 -2.5 0t-3.5 -4t-3 -7q-3 -11 -12 -34zM229 450q1 5 -27.5 78t-28.5 78q0 30 48 -46q36 -57 45 -57q3 0 3 8t17 28q11 14 15.5 15.5t12.5 -5.5
q11 -11 10.5 -22t-16.5 -42l-18 -36q63 -135 76 -171q9 -26 24.5 -29.5t71.5 7.5q38 8 50 0q5 -3 -8 -8q-5 -2 -15 -4q-28 -6 -20 -12q13 -9 -8 -14q-10 -3 -29 -6q-35 -6 -35 -13q2 -21 16.5 -70t26.5 -72l25 21q19 16 47.5 30.5t33.5 9.5q3 -3 -39 -55q-45 -53 -54 -71.5
t5 -33.5q15 -16 43.5 -10.5t54.5 30.5q25 25 25 15t-28 -38q-26 -23 -55.5 -27t-52.5 14q-12 10 -13.5 17.5t4.5 27.5t5 26.5t-12 8.5q-7 1 -10.5 4.5t-1.5 5.5q4 7 -25 74.5t-41 79.5q-10 10 -25.5 11t-76.5 -5q-96 -8 -97 -8q-11 0 -52 -72q-41 -73 -52 -73q-11 1 17 49
l8 14q28 46 26 64q-1 11 -7 14.5t-28 3.5q-33 0 -34 7q-1 9 38 10l27 2q-1 1 -14 5q-16 4 -17 6q0 2 31 10q26 7 36 17t30 48q28 56 28 65q-1 6 19.5 48.5t20.5 47.5z" />
    <glyph glyph-name="aogonek" unicode="&#x105;" horiz-adv-x="405" 
d="M230 17q30 15 -5 15q-11 0 -14 -2.5t-1 -9.5q5 -11 20 -3zM122 88q7 0 22.5 16t23.5 30q6 11 3 10q-5 -2 -30 -28q-24 -24 -19 -28zM193 138q14 14 11 22q-3 9 -14 -13q-8 -17 -6 -17q1 0 9 8zM221 192q0 -13 1.5 -13.5t12.5 7.5l2 2q10 9 18 33t4 40q-3 3 -12.5 -10
t-17.5 -31.5t-8 -27.5zM230 276q0 -24 3 -24q2 0 6 9q8 17 -1 32q-7 12 -8 0v-17zM213 244q7 19 7 43.5t-12 33.5q-11 9 -11 2q0 -5 3 -23q6 -36 6 -52q0 -12 1 -14q1 -1 2 2q2 3 4 8zM129 384q-19 0 -47.5 -80.5t-28.5 -133.5q0 -62 28.5 -67t75.5 47l42 45q-7 86 -15 133
q-4 17 -2.5 21t10.5 1q15 -4 11 0q-9 11 -50 28q-18 7 -24 6zM81 384q-10 0 -19 -24t-7 -45q1 -13 3 -13q3 0 16 36q18 46 7 46zM205 376q-37 19 -39 15q-1 -2 18 -12q21 -10 42 -45q21 -32 29 -24q10 10 -6 31t-44 35zM283 32q-7 0 -35 -17q-21 -13 -22 -16.5t11 -12.5
q15 -10 39.5 -6.5t41.5 17.5q15 14 19 4q3 -10 -10 -25q-14 -18 -55 -22q-28 -2 -37 0.5t-17 15.5q-15 21 -18 44q-4 19 0 22.5t28 3.5q42 0 46.5 6.5t-23.5 28.5q-32 25 -36 43q-1 11 -6 11q-6 0 -37 -25q-64 -50 -103.5 -22t-38.5 124q0 47 10.5 109t19.5 71q13 14 86 21
q18 1 50 -13t50 -32q15 -13 18 -26t4 -60q0 -47 -3.5 -61.5t-18.5 -35.5q-19 -25 -18 -38.5t24 -42.5q15 -20 33.5 -25t29.5 9q7 8 29 64q22 52 29 48.5t-13 -56.5q-13 -37 -38 -71.5t-39 -34.5z" />
    <glyph glyph-name="Cacute" unicode="&#x106;" horiz-adv-x="444" 
d="M218 144q13 5 -6 7h-20q-42 0 -38 -7q4 -8 26 -8t38 8zM140 129q7 3 -40 48q-40 38 -41 28q-1 -6 13 -35q7 -14 32.5 -29.5t35.5 -11.5zM71 237q-1 -12 3 -11q5 0 3 13q0 2 -1 3q-2 6 -4 2q-1 -2 -1 -7zM65 358q6 19 3 18q-4 -2 -17 -32q-14 -33 -12 -124q19 116 26 138z
M230 517q0 4 -6 2q-19 -1 -51 -24.5t-49 -49.5l-17 -25q56 52 93 74q30 19 30 23zM406 545q0 -17 -45 -12q-8 1 -7 0q1 -3 22 -10q38 -11 38 -17q-1 -6 -32 -4t-66 10q-28 6 -40 4t-44 -18q-48 -24 -92.5 -68.5t-53.5 -78.5q-13 -50 4 -110.5t49 -72.5q18 -8 69 -8
q31 0 50.5 6t57.5 26q15 9 29 15.5t21.5 9.5t7.5 1q0 -13 -33 -43.5t-65 -46.5q-71 -35 -140.5 -17t-94.5 79q-11 26 -11 87q0 38 4 56t18 42q22 38 70 93t67 62q11 10 211 20q6 2 6 -5zM381 663q-21 -18 -38 -26t-41 -26q-41 -29 -45 -25q1 6 30 27.5t31 24.5q11 11 43 34
q33 26 39 17q5 -6 -19 -26z" />
    <glyph glyph-name="cacute" unicode="&#x107;" horiz-adv-x="317" 
d="M124 178q-18 12 -31 25q-13 11 -13 6q0 -1 1 -2q3 -10 31 -25l16 -7q-1 1 -4 3zM77 274q-2 13 -3 -3q-3 -41 1 -38q1 0 2 5q4 18 0 36zM264 325q-1 -12 3 -11q5 0 3 13q0 2 -1 3q-2 6 -4 2q-1 -2 -1 -7zM89 322q4 13 2 13q-3 0 -23 -19q-21 -20 -20 -42l3 -14q0 1 2 10
q2 13 17.5 28.5t18.5 23.5zM209 370q7 2 -3 3q-19 2 -20 -1q-1 -1 3 -2q9 -4 20 0zM245 192q-20 0 -30 8q-5 3 -6.5 5t0.5 3.5t8 4.5q13 5 35.5 -0.5t28.5 -14.5q9 -13 3 -24.5t-31 -29.5q-45 -33 -94.5 -22.5t-91.5 60.5q-51 60 -33 132q4 16 14.5 22.5t66.5 28.5
q47 18 80 19t42 -16q4 -9 27 -21.5t23 -28.5q-1 -74 -61 -59q-17 5 -19 10q-1 3 5 5q8 2 23 0q23 -4 27 4.5t-9 36.5q-11 26 -65 34.5t-74 -11.5q-7 -7 -8.5 -9.5t0.5 -4t10 -4.5q15 -5 -3 -14q-16 -9 -21.5 -34.5t3.5 -47.5t60 -48q41 -21 63 -21t35 21q7 10 5.5 13
t-13.5 3zM191 511q0 11 14 27q12 14 20.5 7.5t-0.5 -22.5q-6 -11 -49 -54q-33 -32 -43 -34t-34 12h20q16 1 44 25.5t28 38.5z" />
    <glyph glyph-name="Ccaron" unicode="&#x10c;" horiz-adv-x="444" 
d="M248 83q2 -6 16 -1q7 3 0 4q-2 1 -5 1q-11 0 -11 -4zM334 148q11 11 7 11l-7 -3q-7 -4 -18 -10t-22 -11q-45 -23 -100 -23q-44 -1 -44 -5q-1 -1 8 -5q34 -13 93 2t83 44zM395 168q-6 0 -9 -8q-4 -7 -58 -40q-45 -26 -41 -31q3 -4 44 14q19 8 39 29t25 36zM60 218
q-2 7 -3 -3q-2 -19 1 -20q1 -1 2 3q4 9 0 20zM192 496q-6 0 -21.5 -11t-27.5 -23.5t-9 -15.5q-1 -8 37 24q29 25 21 26zM301 504q28 0 29 4q0 1 -4 4q-23 15 -64 4t-63 -39q-8 -9 3 -5q7 2 24 11q38 21 75 21zM319 488q-20 0 -79 -22t-82 -38q-23 -17 -48.5 -51.5
t-38.5 -69.5q-9 -23 -1 -80q4 -33 10.5 -48t21.5 -29q16 -16 29.5 -19t57.5 -3q105 0 152 51q25 27 34 21q4 -4 -6 -20q-13 -20 -5 -19q6 1 24 17q25 24 25 6q1 -22 -33 -61q-33 -37 -114.5 -49t-131.5 14q-58 30 -81 67t-23 101q0 46 20 86t86 125q17 22 65 46q46 21 80 21
t75 -20q27 -14 37 -23.5t15 -28.5q9 -34 2.5 -35.5t-27.5 16.5q-9 8 -14 12q-43 33 -50 33zM390 696q0 -8 -20 -13q-19 -4 -55.5 -43.5t-31.5 -50.5q6 -15 -8 -14q-23 3 -59 37q-37 34 -60 45q-15 6 -24 18.5t-3 18.5q4 4 46 -20t56 -39l17 -18q68 63 98 76q44 20 44 3z" />
    <glyph glyph-name="ccaron" unicode="&#x10d;" horiz-adv-x="315" 
d="M173 118q-21 -13 -54 -13t-54 13l-22 13q40 -43 63 -43q19 0 47.5 12t35.5 23q2 3 -1 3q-4 0 -15 -8zM123 127q-1 1 -10 7q-54 39 -55 31q-1 -4 7 -15q15 -20 58 -23zM127 357q0 10 -16 -11q-6 -7 -7 -9t2 0q2 1 8 6q13 11 13 14zM164 393q4 7 -2 7q-8 0 -23 -12
q-11 -8 -10.5 -9t13.5 3q18 4 22 11zM55 212q0 -15 7.5 -24.5t31.5 -25.5q63 -43 101 -15q15 10 25 7q6 -4 25.5 17t21.5 21q18 0 -19 -38q-29 -30 -64 -52q-49 -31 -93.5 -22t-55.5 53q-14 53 9 122.5t75 131.5q32 39 32 43q0 11 -22.5 34.5t-43.5 33.5q-24 16 -24 20
q11 4 40 -11.5t43 -32.5l16 -21q6 5 30 31t44 40.5t32 10.5q17 1 19 -1l-5 -3q-3 -1 -8 -3q-15 -4 -15 -6q0 -1 2 -1q0 -6 -18.5 -26.5t-50.5 -52t-32 -32.5q36 -4 58 -18.5t39 -45.5q15 -30 6 -30q-4 0 -12 9q-11 16 -35 30q-15 10 -22.5 10t-29.5 -11q-40 -20 -73.5 -64.5
t-33.5 -77.5z" />
    <glyph glyph-name="Dcaron" unicode="&#x10e;" horiz-adv-x="513" 
d="M206 155q2 -5 14 -1q8 2 1 4q-2 1 -5 1q-11 0 -10 -4zM135 168q-15 -2 -5 -11q7 -6 14 -5q14 2 5 11q-7 6 -14 5zM255 162q23 -3 50.5 9t33.5 28l-75 -23q-36 -14 -9 -14zM371 200q0 10 -6 5q-3 -2 -14 -14q-11 -13 -11 -14t14 6q17 9 17 17zM124 214q0 -30 9 -30
q4 0 6 14q0 12 -8 30q-6 13 -7 2v-16zM435 273q0 11 -5.5 14t-12.5 -5q-6 0 -6 -25q-1 -14 5 -14q3 0 7 5q12 12 12 25zM475 271q0 29 -3.5 41t-13.5 21q-15 13 -15 9q0 -2 4 -14q7 -25 10 -55q4 -25 0.5 -33.5t-22.5 -24.5q-24 -20 -15 -23t35 17q13 10 16.5 21t3.5 41z
M279 442q27 -16 69 -71q36 -45 46 -45q3 7 -14.5 31.5t-16.5 30.5q-4 21 -79 60q-27 14 -32 14q-4 0 14 -12q5 -3 13 -8zM243 497q-39 19 -38 12q0 -1 2 -5q3 -7 46 -28q33 -16 32 -10q-3 9 -36 28q-3 2 -6 3zM115 381q1 -34 44 -197q89 -2 131 20q19 10 41 16t36 20
q10 10 10.5 19t-5.5 31q-14 47 -109 134.5t-144 97.5q-4 1 -37 10q-15 6 -15 -9q1 -34 20 -79q5 -12 8 -12q9 6 15 -15q5 -16 5 -36zM31 591q-1 18 4 17q8 -2 16 -27l9 -27l71 -4q52 -2 71 -8.5t78 -41.5q73 -44 103 -74q40 -43 63 -64q28 -27 32.5 -38.5t4.5 -52.5
q0 -37 -3 -47.5t-18 -22.5q-20 -15 -53 -25t-50 -18q-44 -20 -185 -35q-32 -4 -41.5 -7.5t-9.5 -12.5q0 -15 -8 -15q-10 0 -19 96q-4 43 -20 112q-24 106 -37 249q-2 24 -8 46zM99 697q0 18 46 -20q20 -16 42 -39q52 -54 59 -54t23 20q17 21 45 35q19 9 40 15t34.5 7
t14.5 -5q0 -8 -9 -8q-13 0 -56 -24.5t-63 -42.5q-23 -21 -15 -34q10 -16 4 -17q-9 -1 -22 19q-5 8 -71.5 73t-71.5 75z" />
    <glyph glyph-name="dcaron" unicode="&#x10f;" horiz-adv-x="482" 
d="M415 382q9 10 5 14q-1 1 -2.5 0t-3.5 -3.5t-3 -6.5q-3 -8 -2.5 -8.5t6.5 4.5zM444 536q14 0 6 -6q-5 -3 -10.5 -76t-11.5 -76q-14 -15 -44 -28q-8 -2 -8 0l23.5 47l26.5 53q-2 2 -9 7t-10.5 8t-8.5 9t-4 10.5t4 11.5q12 16 0 16q-8 0 -8 9q0 6 17 3.5t19 3.5q4 8 18 8z
M176 103q12 -9 32 -2q16 6 6 9q-6 2 -24 1q-28 -1 -28 -2q1 -1 14 -6zM240 111q-21 -24 -8 -23q12 0 21 15l2 6q7 20 5 22q-2 1 -20 -20zM89 139q-4 12 -8 12q-4 1 -3 -8t8 -11q5 -2 4 3q0 1 -1 4zM102 153q0 -25 63 -25q43 0 40 3t-28.5 9.5t-50 10.5t-24.5 2zM122 320
q-4 0 -12.5 -17t-5.5 -20q1 -3 7 7q15 27 11 30zM80 298q13 27 10 28.5t-22 -22.5q-25 -28 -28 -89t20 -74q9 -3 7 61q-1 64 13 96zM262 266q0 22 -34 46q-43 31 -42 22q1 -3 10 -12q19 -19 40 -46q21 -25 23.5 -25t2.5 15zM205 291q-16 17 -25 26.5t-15.5 14t-10 4
t-6.5 -5.5q-87 -142 -32 -164q32 -11 134 -9q5 51 -1.5 72t-43.5 62zM248 333q-5 9 -30 14l-20 3q46 -38 54 -31q3 3 -4 14zM271 518q1 -7 7 6q11 26 5 26q-2 2 -6 -6q-7 -15 -6 -26zM296 584q2 0 3 -1t1.5 -4t0 -8.5t-2.5 -14.5t-4.5 -21.5t-6.5 -30.5q-9 -39 -9 -86.5
t11 -67.5q7 -13 13.5 -76.5t11.5 -76.5q4 -10 2.5 -12t-8.5 1q-15 6 -18 -18q-3 -20 7 -44q12 -28 4 -28t-15 18q-4 11 -6 12t-5 -5q-2 -4 -6 -15q-11 -26 -24 -30q-12 -4 -64.5 8t-75.5 24q-26 12 -33 12q-15 0 -28.5 25.5t-13.5 53.5q2 117 68 146q21 9 28 14
q19 11 51.5 18.5t47.5 3.5l21 -5v65q0 41 4 60t18 44q20 39 28 39z" />
    <glyph glyph-name="Eogonek" unicode="&#x118;" horiz-adv-x="439" 
d="M328 104q11 7 19 14q10 10 5 10q-7 -1 -28 -21l-23 -21zM366 154q5 5 -5 5q-12 0 -28 -7q-21 -9 6 -6q23 4 27 8zM220 315q2 -5 14 -1q8 2 1 4q-2 1 -5 1q-11 0 -10 -4zM336 488q-22 0 -81 -15.5t-106 -33.5q-41 -15 -51 -15q-9 0 -5 -30q4 -31 9 -72q4 -38 11 -40
q1 1 7 4t17.5 9t20.5 11q51 27 152 43q54 8 49 -1q0 -2 -2 -3q-13 -12 -100 -43t-146 -47q10 -55 10 -118q0 -22 3 -28t12 -3q2 1 17.5 5.5t39.5 12t46 14.5q139 44 145 26q5 -9 11 -14q6 -4 -11.5 -21.5t-58.5 -50.5q-20 -16 -20 -47q0 -26 12 -30t55 8q38 11 36 -1
q-1 -4 -11 -13q-12 -10 -104 -7q0 8 -1 24.5t-1 29.5v27t3 23.5t8 12.5q12 13 6 13q-6 1 -64 -14q-115 -30 -120 -37q-1 -2 1 -7q4 -12 -4 -16q-4 -2 -6 1t-2 10q0 11 -7 14t-37 3q-42 0 -39 8q3 5 33 10q23 4 26.5 9.5t4.5 36.5q0 40 -6 40q-3 -1 -5 10q-1 7 -2 23
q-2 31 -6 31q-6 0 -6 26q0 33 -8 86t-13 57q-8 5 -1.5 29.5t19.5 31.5q10 7 12.5 5.5t2.5 -15.5q0 -20 4 -20q3 1 41.5 16t73.5 26.5t47 10.5q15 0 49.5 10.5t52.5 3.5q22 -9 9 -15q-7 -4 -22 -4z" />
    <glyph glyph-name="eogonek" unicode="&#x119;" horiz-adv-x="347" 
d="M74 141q11 -14 12 -12q1 1 -4 17q-5 14 -7 22q-7 24 -9 26q-3 -2 -3 -14q0 -24 11 -39zM61 230q-2 11 -6 10q-8 -2 -8 -26q0 -19 2 -19q1 0 5 9q7 16 7 26zM198 317q0 11 -17 -11q-6 -7 -7 -9t2 0q2 1 8 6q14 12 14 14zM190 331q0 1 2.5 8.5t3.5 13t-4 7.5
q-3 1 -7.5 -6.5t-5 -15t3.5 -10.5q7 0 7 3zM159 360q-12 4 -37 -25t-39 -57q26 4 52 25t33 42q4 15 -9 15zM165 376q6 -1 8.5 6.5t-2.5 9.5t-9 -8q-3 -7 3 -8zM222 346q0 -23 -5.5 -32t-28.5 -23q-33 -22 -68 -33q-20 -7 -26.5 -12t-3.5 -12q4 -13 -5 -19q-8 -4 0 -43.5
t21 -57.5q14 -18 69 -14.5t94 24.5q40 24 47 17q4 -4 -8.5 -17.5t-36 -29t-46.5 -26.5q-60 -29 -58 -47q2 -13 41 -13q26 0 26 -6q0 -10 -37 -13h-9q-26 -1 -30 2t-6 23q-3 27 12 39q11 8 5 10q-3 0 -22 1q-20 0 -31.5 5.5t-27.5 24.5q-29 31 -43 62q-7 16 -11.5 44t-4 50
t6.5 22q9 0 21 31q12 26 49.5 64t55.5 43q20 4 22.5 3.5t19.5 -15.5q18 -14 18 -52z" />
    <glyph glyph-name="Ecaron" unicode="&#x11a;" horiz-adv-x="556" 
d="M332 464q11 7 3 7q-8 -1 -27 -7l-13 -6l9 -1q18 0 28 7zM208 474q78 0 72 3q-44 8 -152 4q-25 -1 -23 -3q11 -4 103 -4zM36 499q0 1 6 1.5t17 -0.5t23 -2q52 -5 174 -5t142 5q24 7 22 -1q-3 -11 -46 -30q-32 -14 -54 -16.5t-106 -0.5q-37 1 -59 1t-34 -1.5t-15.5 -3.5
t-2.5 -6q38 -147 45 -154q4 -8 48 5q68 19 192 43q16 3 15 0q-1 -2 -3 -4q-17 -17 -176 -62q-57 -16 -67.5 -28.5t-1.5 -53.5q1 -6 13 -64q2 -12 7 -15t19 1q22 4 24 13q4 7 14 7q7 0 49 12q170 55 201 74q34 22 42 12q7 -7 -23 -23q-3 -1 -7 -3q-21 -9 -35.5 -19.5
t-28.5 -18t-46 -14.5q-21 -5 -106.5 -37t-115.5 -35q-29 -3 -30 5q-1 5 12 10q7 2 10.5 17.5t1.5 29.5t-8 14q-5 0 -8 -24t-9 -24q-8 0 -4 40q6 58 -5 94l-37 -7q-54 -10 -55 -4q0 1 2 4q4 4 20 9t42 11t30 7q-5 49 -31.5 128.5t-41.5 95.5q-15 13 -15 17zM92 665
q0 16 35 -3q25 -13 44 -33q25 -27 55 -80q1 2 4 17.5t6.5 24t8.5 9.5q7 0 3 -14q-2 -5 1 -4t13 12q16 17 43.5 32.5t31.5 10.5q3 -3 -44 -49q-48 -45 -51 -66q-1 -11 -5 -11q-6 -1 -40 47q-44 61 -73 79q-32 21 -32 28z" />
    <glyph glyph-name="ecaron" unicode="&#x11b;" horiz-adv-x="343" 
d="M62 222q0 14 -8 26q-7 8 -8 -10q0 -18 9 -26q6 2 7 10zM71 295q10 23 3 23q-2 0 -6 -4q-5 -3 -5 -21q0 -12 1.5 -11.5t6.5 13.5zM248 302q8 8 4 19q-2 10 -7 -6q-6 -18 -1 -17q2 1 4 4zM150 352q-30 0 -37.5 -4.5t-18.5 -29.5q-7 -17 -10.5 -26.5t-4 -16t2 -9t8.5 -2.5
q19 0 60 10.5t54 18.5q17 10 18 26.5t-15 24.5q-18 8 -57 8zM30 235q4 51 35.5 96t81.5 45q32 0 64 -12t48 -29t7 -31q-9 -15 -65.5 -36.5t-86.5 -22.5h-41q29 -60 47 -70q20 -11 70.5 -8.5t77.5 15.5q30 15 41 4q5 -6 2 -11t-19 -15q-27 -16 -99 -16h-73q-1 1 -17.5 14
t-25.5 21t-22 20t-19 21t-6 15zM126 411q2 6 -43.5 50.5t-44.5 49.5q0 9 8 9q10 0 38.5 -27.5t38.5 -45.5l12 -23l33 22t48 30t29 12q28 0 -19 -30q-8 -5 -17 -10q-46 -26 -49 -41q-1 -5 -3 -7.5t-4 -3.5t-6 -0.5t-6 1t-6.5 2t-5.5 1.5q-3 0 -3 11z" />
    <glyph glyph-name="gbreve" unicode="&#x11f;" horiz-adv-x="491" 
d="M190 -78q10 -5 33 1q7 1 -2 2q-4 1 -12 1q-23 1 -21 -3zM303 -33q17 14 26 26q6 7 3 7q-5 -1 -32 -30l-27 -30zM125 -6q0 -10 18 -28l11 -9q0 1 -2 3q-7 9 -18 28q-9 16 -9 6zM349 38q10 10 6 14t-9 -8q-1 -1 -1 -2q-3 -8 -2.5 -8.5t6.5 4.5zM369 92q-8 -20 -4 -19
q7 2 13 20q2 6 0 8q-2 1 -4.5 -1.5t-4.5 -7.5zM368 116q15 36 11 50q-2 9 -8 -7q-16 -40 -19 -72q0 -8 3 -3q4 7 13 32zM365 213q-1 -12 3 -11q5 0 3 13q0 2 -1 3q-2 6 -4 2q-1 -2 -1 -7zM109 217q0 -16 9 -20.5t44 -8.5l39 -4q-64 27 -75 41q-3 7 -7 7.5t-7 -4t-3 -11.5z
M37 208q0 -16 26.5 -31t55.5 -19l-22 31q-30 46 -12 94q7 18 5 20q-3 1 -20 -17q-33 -35 -33 -78zM112 312q-6 0 -13 -20t-5 -34q1 -27 9 8zM162 352q-3 0 -15.5 -14t-17.5 -24q-6 -12 -4 -11q7 2 33 40q6 10 4 9zM385 276q8 6 11 40t-3 44q-4 -5 -5.5 -12.5t-3 -21.5
t-3.5 -25q-5 -31 -3 -32q1 0 7 7zM133 250q0 -31 57.5 -40.5t94.5 16.5q18 12 23.5 21.5t6.5 34.5t-2.5 35.5t-19.5 26.5q-20 21 -47 24t-49 -13q-19 -13 -41.5 -50.5t-22.5 -54.5zM442 370q-2 12 -3 -1q-2 -39 2 -40q0 -1 1 5q4 18 0 36zM333 286v-34l16 20q21 26 16 56
t-33 44q-25 13 -57 11q-27 -1 -27 -2t18 -6q29 -8 48 -33.5t19 -55.5zM364 381q-27 15 -28 10q0 -3 13 -14q20 -15 27 -11t-12 15zM461 427q0 -134 -38 -307q-17 -76 -29 -93.5t-89 -74.5q-39 -30 -56.5 -39t-36.5 -9q-27 0 -56 22.5t-48 58.5q-23 46 -12 52q2 1 6 -2
q5 -3 6 -1q0 2 -2 8q-6 16 -2 15q10 -3 35 -49q23 -40 38.5 -52t43.5 -12q31 0 59 34.5t47 95.5q9 30 17 66t10 58.5t-2 25.5q-4 0 -50 -23q-59 -29 -100 -39.5t-85 -7.5q-56 3 -73 18t-13 56q2 28 11.5 42.5t49.5 51.5q56 54 72 54q13 0 49 15q83 37 149 14l34 -12l5 29
q7 36 8.5 36t2.5 -36q1 -48 10 -49q7 0 11 29q1 11 5 35t4 25q5 27 10 25q9 -2 9 -60zM293 521q0 16 -20 -15q-11 -18 -36 -45q-16 -19 -9 -17q1 0 2 1q11 6 37 37t26 39zM186 440q13 0 38.5 26t46.5 60t29 19q9 -17 -10 -53q-6 -13 -16 -24l-25 -32q4 4 28.5 25t42 35
t25.5 16q6 0 -14.5 -20t-48 -42t-39.5 -27q-21 -9 -56 -4t-61 21q-20 13 -47 51t-22 47q2 2 4.5 2.5t5 0l5 -1t4 1t1.5 5.5q0 7 3 1q1 -3 2 -7q12 -55 55 -80q33 -20 49 -20z" />
    <glyph glyph-name="dotlessi" unicode="&#x131;" horiz-adv-x="129" 
d="M44 469q0 17 4 17q8 1 11 -33q1 -4 1 -7q1 -24 3 -22q1 0 2 12q3 19 7 26.5t9 2.5t10 -22q12 -43 6.5 -196t-20.5 -209q-3 -12 -5 -15t-5 -2t-12 9q-12 10 -15 41t-8 175q-6 202 3 202t9 21z" />
    <glyph glyph-name="IJ" unicode="&#x132;" horiz-adv-x="737" 
d="M184 117q-1 -12 3 -11q5 0 3 13q0 2 -1 3q-2 6 -4 2q-1 -2 -1 -7zM335 151q0 -19 11 -26q4 -3 7 1q4 6 -7 22q-10 11 -11 3zM366 144q8 0 39 66q3 6 0 6q-7 -1 -30 -22q-25 -21 -20 -36q6 -14 11 -14zM452 212q-8 -20 -4 -19q7 2 13 20q2 6 0 8q-1 1 -4 -1.5t-5 -7.5z
M205 222q-2 14 -3 -3q-3 -48 1 -48q1 1 2 7q4 21 0 44zM237 270q-2 23 -3 -1q-2 -81 2 -81q0 1 1 10q4 33 0 72zM487 252q18 42 14 82l-3 20q0 -3 -1 -14q0 -5 -10 -88zM478 372q-1 57 -7.5 57t-10.5 -57q-5 -75 -9.5 -99.5t-15.5 -32.5q-13 -13 -11 -35q1 -16 2 -17t4 4
q2 4 11 24q39 84 37 156zM192 496q6 38 1 38q-2 0 -7 -4q-3 -2 -4.5 -8t-1 -15t1.5 -16.5t2.5 -17.5t1.5 -13zM229 544q-13 0 -16 -6t0 -26q3 -22 12 -24q6 -1 6 15q0 11 5 28q5 13 -7 13zM477 550q-3 11 -4 -3q-1 -24 2 -24q1 0 2 3q4 11 0 24zM452 512q6 0 2 33
q-2 16 -5 15q-5 1 -5 -11.5t3 -25t5 -11.5zM455 620q0 20 8 20t8 -21q0 -13 3 -15.5t13 0.5q14 5 15 -3q-3 -8 -13 -10q-25 0 -1 -4q53 -9 129 -10q94 -2 90 -9q-11 -8 -218 -8q6 -96 15 -151q11 -68 6 -108.5t-31 -92.5q-19 -39 -32 -55t-34 -28q-38 -23 -58.5 -20.5
t-35.5 31.5q-29 57 -7 42q2 -1 3 -2q5 -8 23 3.5t41.5 33t26.5 23.5l2 88q1 111 9 112q5 1 6 -56q2 -56 4 -57l6 15v2q7 28 3.5 117t-11.5 97q-7 7 -62.5 8t-80.5 -5q-18 -5 -22.5 -13.5t-7.5 -49.5q-1 -16 -5 -43t-7 -45.5t-2 -40.5t7 -37q14 -32 5.5 -114t-27.5 -82
q-10 0 -14 -13q-1 -6 5 -9.5t26 -6.5t53 -6t92 -7q70 -4 72 -11q-13 -6 -145.5 -16t-138.5 -11q-35 -6 -50 6q-22 19 14 22q11 1 22 0q0 405 -2 432q-2 0 -58 -20q-76 -27 -69 -17q6 8 71 41q58 30 58 38q0 7 13 3q10 -4 38.5 6.5t28.5 18.5q0 7 78 7q83 1 110.5 7t27.5 24z
" />
    <glyph glyph-name="ij" unicode="&#x133;" horiz-adv-x="354" 
d="M251 -69q12 12 8 26q-2 13 -10 -1q-1 -3 -3 -7q-13 -28 -5 -27q3 0 10 9zM258 33q6 40 -3.5 39t-18.5 -42q-9 -37 -24.5 -64.5t-29.5 -32.5q-7 -2 2 -3h12q47 0 62 103zM253 349q2 41 7 -7q7 -73 12 -222q5 -89 1.5 -134.5t-12 -58t-33.5 -18.5q-18 -4 -31 -1t-40 18
q-42 22 -50 38q-3 4 2 4q4 0 12 -3q17 -8 44 -11q19 -3 25.5 1t16.5 26q43 100 34 193q-14 162 -9 165q2 1 7 -6q11 -13 12 -6q1 4 2 22zM68 386q0 54 8 54t8 -11q0 -12 12 -16q7 -3 9.5 -28.5t2.5 -106.5q0 -221 -17 -209q-6 3 -8 69q-1 49 -3 49q-2 1 -8 -20
q-3 -11 -13 -49q-10 -39 -18 -38q-6 1 -2 30q10 61 19.5 150t9.5 126zM260 503q1 -19 10 -9q11 13 4 22q-2 3 -6 4q-8 0 -8 -17zM284 510q2 -24 17 -8q14 18 10 29q-9 9 -18 2t-9 -23zM219 514q-3 17 -17 20q-8 2 -10.5 -1.5t-1.5 -14.5q3 -17 17 -20q8 -2 10.5 1.5
t1.5 14.5zM309 544q11 0 14.5 -9.5t-2 -22.5t-17.5 -22q-24 -19 -19 -31q2 -3 7 -3q8 0 8 -6q-2 -6 -13 -5.5t-25.5 7.5t-18.5 14q-6 11 -9 11t-15 -11q-15 -12 -15 -9q0 1 3 9q6 16 -11 20q-10 3 -13 9t-1 24q2 20 7 25t27 6q30 3 40 11q8 7 11 6.5t14 -11.5q14 -12 28 -12
zM68 512q8 0 8 12t-8 12t-8 -12t8 -12zM43 573q-10 11 -6.5 18.5t18.5 -9.5q23 -26 48 -27q13 0 13 9q0 12 8 12q15 0 -4 -32q-12 -22 -12 -38q0 -11 -4.5 -14.5t-18.5 -3.5q-23 0 -36 -18q-12 -17 -17 -12q-3 4 -1.5 14.5t6 20t7.5 7.5t4 7q5 31 -3 60q-1 5 -2 6z" />
    <glyph glyph-name="Lslash" unicode="&#x141;" horiz-adv-x="571" 
d="M144 93q12 14 -35 -5q-4 -2 -10 -4q-5 -3 -6 -3q4 1 16.5 3.5t22 4.5t12.5 4zM187 112q-7 0 -19 -14l-3 -3q-5 -8 -4 -7q1 0 7 4q3 3 5 4q4 3 8.5 6t7 5.5t3.5 2.5q-3 2 -5 2zM273 120q0 11 -16 0q-5 -3 -6.5 -4.5t0.5 -2.5t8 -1q14 0 14 8zM246 352q-3 0 -4.5 -2t0.5 -3
q4 -2 27 10t28 9q-4 -10 -147 -88q1 -10 3 -47.5t4.5 -65.5t5.5 -34q5 -5 108 35q52 19 63 15q13 -6 160 44q43 15 47 7q1 -1 -2 -4t-9 -6.5t-13 -5.5q-31 -12 -51 -30q-42 -41 -180 -78q-84 -22 -103 -32q-21 -11 -24 -2q-1 5 -38 0t-74 -15q-14 -3 -14 3q5 11 104 52
q3 34 -5 86t-18 56q-1 0 -19 -11t-24 -8q-5 3 -19 -5.5t-21 -5.5q-8 4 31 31q2 2 4 3l9 6q30 20 32 33.5t-16 73.5q-2 7 -3 11q-8 23 -20.5 95t-11.5 84q2 15 14 -13q5 -14 17 -48q8 -22 10 -26l-4 40q-4 35 0 33q9 -5 20 -85q14 -100 17 -63q1 16 7 -4q7 -24 7 -47v-30
q2 1 25.5 18.5t41 27t21.5 3.5q7 -9 28 8q21 18 26 13q3 -2 -5 -11.5t-19 -18t-16 -8.5z" />
    <glyph glyph-name="lslash" unicode="&#x142;" horiz-adv-x="234" 
d="M134 72q-17 0 -22 -9q-10 -15 -14 14q-5 30 -5 113q0 114 -7 114q-2 1 -15 -11l-26 -24t-15 -10q-3 4 16 30.5t31 36.5q12 8 12 100q0 60 2 85.5t12 44.5q12 -38 19 -110q6 -63 12 -67q8 -4 35 18q36 27 35 11q-1 -19 -44 -54l-30 -24q7 -221 15 -244q3 -8 0.5 -11
t-11.5 -3z" />
    <glyph glyph-name="Nacute" unicode="&#x143;" horiz-adv-x="396" 
d="M338 166q-2 9 -3 -2q-3 -30 1 -30q1 0 2 4q4 13 0 28zM74 246q-3 11 -4 -3q-1 -24 2 -24q1 0 2 3q4 11 0 24zM71 420q0 -22 2 -20q5 4 2 27q0 4 -1 7q-2 11 -3 -2v-12zM41 528q8 0 11.5 16t8.5 16q8 0 8 -7q0 -6 48 -89.5t55 -87.5q20 -23 74 -100.5t67 -108.5
q11 36 21 157q15 187 24 190q2 0 4 -3q10 -11 2 -87q-2 -20 -5 -177.5t-9 -182.5q-7 3 -79 119t-75 119q-13 18 -16 10q0 -2 -1 -6q-2 -12 -25 24q-1 3 -3 6q-37 64 -45 68q-5 2 -8 -9q-5 -16 -8 -140q-4 -163 -9 -181q-4 -13 -8.5 -17t-8 2t-3.5 19q0 14 -1.5 15.5
t-9.5 -7.5q-17 -21 -15 -7q0 8 7 31q12 40 11.5 202t-12.5 184q-5 10 -7.5 16t-2.5 9.5t2.5 5t7.5 1.5zM293 688q4 0 16 -12q11 -12 0 -32q-9 -17 -47 -50.5t-48 -33.5q-14 0 -7 13q3 6 10 11q5 2 37.5 52t38.5 52z" />
    <glyph glyph-name="nacute" unicode="&#x144;" horiz-adv-x="336" 
d="M68 323q4 -6 14 13q8 16 4 16q-3 0 -12 -12q-11 -12 -6 -17zM256 392q-7 -2 11 -22q11 -12 13 -10t-6 16q-9 16 -18 16zM267 512q-8 0 -13.5 -8.5t-1.5 -12.5q0 -6 11 6q13 13 4 15zM270 520q20 0 20 -7q1 -5 -39.5 -44t-68.5 -60h49q45 0 60 -12t15 -47q0 -20 -15 -80
t-32 -110.5t-22 -47.5q-5 2 -5 9t-5 7q-1 10 26 86t27 88q0 25 -2.5 34.5t-16.5 24.5t-25.5 19t-38.5 4q-35 0 -56.5 -13t-42.5 -47q-13 -21 -13 -38q0 -20 18 -170q5 -35 -1 -33q-8 1 -17 51l-9 46v-42q-1 -41 -9.5 -41.5t-8.5 39.5q0 36 -13 129q-23 171 -10 180q2 1 4 -2
t3 -8.5t1 -12.5q0 -29 16 -68q6 -14 6 -5q1 6 55 33q34 17 49.5 29t25.5 31q-57 -34 -66 -32q-4 1 11 11q11 8 28 17q48 26 65 54t37 28z" />
    <glyph glyph-name="Ncaron" unicode="&#x147;" horiz-adv-x="487" 
d="M361 109q0 11 -17 28l-12 12q0 -1 4 -9q19 -36 24 -34q1 0 1 3zM163 400q-3 1 9 -23t26 -49l13 -24q16 0 -20 59q-21 36 -28 37zM241 310q36 -58 36 -53q1 12 -78 147q-69 118 -79 118q-1 0 -2 -1q-10 -18 50 -101q38 -52 73 -110zM105 572q21 -23 29 -35.5t17.5 -30.5
t23.5 -40q34 -52 99.5 -169t92.5 -161q6 24 16 181.5t15 184.5q5 25 10 25q8 1 5 -45l-1 -31q1 3 4 19q8 43 13 40q9 -4 -4 -73q-2 -13 -5 -26q-13 -54 -9 -97l3 -25q1 0 9 47q13 69 16.5 82.5t9.5 13.5q8 0 8.5 -25t-6 -64.5t-18.5 -78.5q-17 -56 -24 -143.5t-12 -115.5
q-121 227 -149 263q-7 9 10 -31q28 -67 85 -183q3 -6 -5 -6q-11 7 -45.5 70.5t-39.5 69.5q-13 16 -37 60.5t-59 115.5t-40 80l-5 -160q-2 -81 -3.5 -120.5t-3 -59.5t-2.5 -22t-4 -2q-6 0 -4 138q1 99 -2 105q-2 4 -6 -17q-5 -27 -14 -100q-16 -134 -32 -126q-6 2 -10 27
q-4 31 15 102q19 74 19 193q0 117 8 122q7 3 9 -32t1 -64q1 6 2.5 24l2.5 30t4 25t6 17q9 9 7 48zM137 713q0 22 37 -12q29 -26 56 -66q25 -37 32 -37q3 0 7 7q6 11 29 35.5t45 44t24 16.5q0 -6 -46.5 -60.5t-44.5 -63.5q-3 -20 -21 -32q-11 -7 -13 -6t2 15q4 17 -8.5 36
t-60.5 72q-38 43 -38 51z" />
    <glyph glyph-name="ncaron" unicode="&#x148;" horiz-adv-x="305" 
d="M251 336q-2 0 -2.5 -2.5t0.5 -7.5t3 -10q12 -26 13 -13q1 19 -9 30q-2 4 -5 3zM215 346q5 2 -7 8q-11 6 -12 3q-1 -1 4 -6q10 -10 15 -5zM155 371q0 15 -30 -6q-26 -17 -38 -38t-11 -21q1 -1 12 7q21 15 44 34.5t23 23.5zM275 281q0 -42 -15 -118t-25 -86q-13 -13 -12 7
q1 13 9 44q13 54 7.5 106.5t-26.5 77.5q-35 42 -74.5 15.5t-39.5 -93.5q0 -43 -8 -46q-8 -4 -8 -78q0 -69 -8 -66q-10 4 -16 94q-2 34 -14.5 114t-13.5 106q4 4 8 -8q5 -13 11 -54q6 -35 7 -26q1 1 1 4q1 24 15 52.5t33 42.5q21 16 61 12t75 -27l33 -21v-52zM267 545
q0 -9 -8 -13q-11 -7 -43 -51.5t-39 -64.5l-11 -26q-90 110 -123 162q-9 15 -4 15q2 0 5 -1q9 -5 28.5 -29t48.5 -62.5t32 -42.5l25 39q24 37 66 67q23 16 23 7z" />
    <glyph glyph-name="OE" unicode="&#x152;" horiz-adv-x="659" 
d="M276 80q-2 7 -18.5 8t-17.5 -8q-2 -8 22 -8q14 3 14 8zM282 99q2 -5 14 -1q8 2 1 4q-2 1 -5 1q-11 0 -10 -4zM220 98q12 1 13 2.5t-5 4.5l-27 9q-45 15 -41 5q1 -5 18 -14q18 -11 42 -7zM405 262q-3 11 -4 -3q-1 -24 2 -24q1 0 2 3q4 11 0 24zM392 232q0 56 -12 56
q-11 0 -16 -81t-1 -85q6 -6 15 19q14 42 14 91zM115 176q2 6 -14 53t-16 48q-3 15 -5 -1v-6q-1 -15 14 -54.5t21 -39.5zM71 306q1 60 -4 61q-2 0 -7 -16q-6 -18 -5 -44t8 -43q6 -16 7 7q1 12 1 35zM344 452q-3 -36 8 -84t23 -48q11 0 6 36q-6 42 -37 96zM288 492
q0 12 -38 12q-73 -1 -109 -49q-44 -58 -49 -102t22 -121q20 -57 28 -69t38 -26q44 -21 140 -27v33v46.5t-0.5 48t-3 37t-6.5 13.5q-10 0 0 10q12 12 10 67.5t-16 82.5q-16 32 -16 44zM96 462q0 -6 34 21q37 29 70 44q22 10 21 14q0 8 -42 -9q-1 0 -3 -1q-22 -9 -51 -34
t-29 -35zM442 488q86 0 130 -6q54 -8 7 -13q-33 -3 -105 -4h-98q2 -20 7.5 -43.5t15 -57t12.5 -44.5h65q92 0 92 -17q-8 -7 -157 -7q7 -66 -3 -114q-9 -49 0 -54q8 -4 4 -15q-10 -16 49 -2q17 4 39 10q103 28 102 19q0 -1 -6 -4l-10 -6q1 -1 16 1q26 3 27 -6q1 -5 -11 -8
q-34 -10 -121.5 -22t-100.5 -9q-5 3 -16 -4q-11 -9 -78 -14q-48 -4 -66 -1.5t-47 15.5q-24 11 -40.5 24t-24.5 23t-24 32.5t-29 38.5l-41 52q10 108 26 140q15 32 19 50q4 21 35 54.5t54 44.5q26 11 84 11q39 0 52.5 -3.5t24.5 -14.5q9 -10 15.5 -21t7.5 -14.5t12 -7
t27 -3.5h55z" />
    <glyph glyph-name="oe" unicode="&#x153;" horiz-adv-x="516" 
d="M172 106q9 2 -2 3q-30 3 -30 -1q0 -1 4 -2q13 -4 28 0zM425 112q4 3 -5 6q-30 6 -66 0q-11 -3 -9 -6q3 -8 40 -8t40 8zM303 128q-1 -7 27 -32q11 -10 10.5 -7.5t-15.5 19.5q-18 20 -22 20zM225 132q-13 -10 -8 -11q10 -1 20 11q10 11 6.5 11t-18.5 -11zM185 136q4 5 -6 7
q-24 5 -34 -2q-2 -2 0 -5q4 -8 20 -8t20 8zM113 103l-10 10q-34 38 -34 25q0 -2 2 -7q4 -18 42 -28zM441 140q-13 -10 -8 -11q10 -1 20 11q10 11 6.5 11t-18.5 -11zM116 143q-14 21 -24 21q-4 0 -1 -9q4 -11 20 -20q10 -5 11 -4t-6 12zM285 160q-10 23 -15 23q-6 -2 2 -20
q5 -9 11 -12q8 -7 9 -6.5t-7 15.5zM254 206q10 10 6 14q-1 1 -2.5 0t-4 -3.5t-3.5 -6.5q-3 -8 -2.5 -8.5t6.5 4.5zM55 214q-7 75 -9 16q-2 -33 6 -40q2 -2 3 2q1 6 0 22zM441 256q20 21 18 22t-30 -15q-30 -16 -64 -16q-26 0 -26 -2t6 -5q57 -24 96 16zM457 326
q-6 17 -12.5 23t-7.5 -2.5t3 -26.5q7 -26 13 -26q2 0 4 2q9 9 0 30zM421 339q-7 19 -24.5 20.5t-53.5 -15.5q-24 -11 -29 -18t-3 -28q1 -22 6.5 -26t32.5 -6q53 -4 70 13.5t1 59.5zM269 357q0 -13 13 -13t10 10q-5 14 -17 12q-6 -1 -6 -9zM177 376q-40 0 -57.5 -19.5
t-22.5 -70.5q-5 -52 1 -73.5t32 -41.5l28 -21l34 23q40 29 51 82.5t-14 94.5q-11 17 -19.5 21.5t-32.5 4.5zM101 381q0 10 -16 -11q-6 -7 -7 -9t2 0q2 1 8 6q13 11 13 14zM385 224q-21 0 -37 5t-24 10.5t-22 17.5l-9 -16q-7 -14 2.5 -41t29.5 -47q25 -25 75.5 -13.5
t69.5 45.5q12 23 15 8q2 -13 -8 -43q-12 -35 -30 -48t-62 -18q-41 -5 -59 1.5t-37 34.5l-21 31q-2 -2 -10.5 -12t-14.5 -16.5t-13.5 -12.5t-12.5 -6q-8 0 -20 -12q-16 -19 -71 -3q-44 12 -54.5 19.5t-13 28t-14.5 40.5q-12 21 -13.5 32.5t4.5 36.5q31 131 48 143t85 10.5
t95 -13.5q7 -3 16 -8.5t13.5 -7t12 -3t15.5 0t19 6.5q17 8 29.5 8.5t39.5 -5.5q44 -10 57 -26t8 -52q-6 -40 -26.5 -57.5t-61.5 -17.5z" />
    <glyph glyph-name="Rcaron" unicode="&#x158;" horiz-adv-x="407" 
d="M316 136q-2 -6 29 -33q8 -8 9 -7q0 2 -15 20q-18 20 -23 20zM261 144q-4 -4 13 -19q7 -7 7 -4q0 2 -6 11q-12 12 -14 12zM215 304q3 6 -5 7q-14 3 -16 -4q0 -3 8 -7t13 4zM126 282q30 -3 27 7q-2 10 -25 15q-5 1 -9 1q-29 6 -28 -6t21 -16q7 -2 14 -1zM215 278
q2 1 23.5 5t29 10t6.5 17q-3 2 -8.5 0t-13 -6.5t-14 -9t-14 -9.5t-9.5 -7zM305 304q15 5 26 22t6 38l-2 30l-18 -25q-9 -11 -14 -26.5t-4.5 -27t6.5 -11.5zM299 395q0 -17 7 -15.5t11 19.5q3 16 -13 31q-14 12 -14 10t3 -10q6 -16 6 -35zM283 402q0 15 -19.5 41.5
t-30.5 28.5q-7 -1 3 -14q12 -14 30 -46q12 -23 15 -24q2 -1 2 14zM199 457q-9 7 -19 15.5t-14 10t-8 4.5t-7.5 -0.5t-7 -5.5t-12 -11.5t-16.5 -17.5q-26 -26 -31 -37.5t-4 -39.5q2 -36 7 -47q3 -5 16 -7t24.5 -0.5t11.5 6.5q0 10 14 12.5t24 -5.5q22 -19 67 11q16 11 17 17
t-9 31q-15 37 -53 64zM198 531q-68 28 -74 21q-2 -2 7 -8t59.5 -22.5t60.5 -23.5q17 -12 15 -8q-1 2 -6 8q-12 14 -62 33zM132 506q-8 10 -75 48l6 -47q7 -60 12 -65t33 22q32 32 24 42zM155 240q-11 0 -44 8q-10 2 -11 -10q-1 -8 3 -64q6 -78 -4 -78q-8 0 -3 -52
q4 -52 -5 -52t-9 42q0 30 -3 31q-2 0 -4 -5q-8 -19 -12 5q-5 21 -12 107q-33 380 -13 424q4 9 5.5 11t2.5 -0.5t2 -12.5q3 -16 17 -28q9 -7 9 -5q0 1 -3 5q-5 9 5 9q9 0 48 -8q55 -11 100.5 -34.5t62.5 -50.5q5 -7 23.5 -32t27.5 -43t13 -40q5 -29 -7.5 -45t-62.5 -44
l-46 -26q32 -32 78.5 -86t60.5 -76q7 -12 1 -18.5t-17 1.5q-5 4 -7 4.5t-3 -2.5t-1 -10q0 -17 -9 -17q-11 0 -54 49t-66 89q-23 38 -32 46t-31 8zM364 696q7 0 7 -6q0 -7 -48 -22q-41 -11 -97 -49q-56 -39 -75 -36q-5 1 -1 8q6 10 -16.5 32.5t-59.5 42.5q-12 7 -22.5 14
t-16 11.5t-4.5 6.5q5 5 53 -20.5t67 -43.5l20 -19q40 23 105 51.5t88 29.5z" />
    <glyph glyph-name="rcaron" unicode="&#x159;" horiz-adv-x="336" 
d="M146 318q0 11 35.5 34.5t52.5 23.5q19 0 38 -18t14 -32q-5 -13 -13 -13t-15 14q-8 16 -24 20.5t-32 -3.5q-28 -15 -36.5 -71.5t8.5 -118.5q9 -35 7 -41.5t-19 -2.5q-10 3 -13 13t-3 42q0 38 -16 90.5t-38 86.5q-12 18 -5 24q5 5 16 -9q10 -13 11 -9q0 2 1 13q1 10 2 9
q3 -1 9 -20q12 -40 19 -37q1 0 1 5zM299 520q7 0 7 -11q2 -8 -40.5 -25t-43.5 -21q-5 -7 -19 -7q-15 0 -33 -20q-32 -34 -32 -10q0 11 -35 42t-54 38q-10 4 -15 8t-4 7q2 1 9 0.5t20 -3.5t26 -8q36 -13 47.5 -23.5t22.5 -37.5q25 21 73.5 45.5t70.5 25.5z" />
    <glyph glyph-name="Sacute" unicode="&#x15a;" horiz-adv-x="445" 
d="M254 140q17 17 14.5 18t-26.5 -15q-25 -16 -60 -16q-26 0 -27 -2q1 -2 11 -6q21 -8 46.5 -2t41.5 23zM278 209q0 21 -13 32q-10 8 -11 5q0 -2 4 -14q11 -37 17 -36q2 1 3 13zM398 398q0 15 -12 21q-9 4 -9 -1q0 -3 5 -12q10 -19 13 -20q3 6 3 12zM154 331q-7 9 -12.5 19
t-9 26t-4.5 23.5t-3.5 31.5t-3.5 29l-7 -38q-5 -33 7 -63t37 -46q14 -9 14 -6q-1 4 -18 24zM390 437q0 7 -24 35q-20 23 -20 18q-1 -2 1 -8q4 -18 29 -40q14 -13 14 -5zM321 499q-12 12 -66 13t-64 -10q-6 -8 7 -8q8 -1 26 0q40 3 76 -8q35 -12 33 -2q-1 4 -12 15zM304 522
q7 2 -3 3q-19 2 -20 -1q-1 -1 3 -2q9 -4 20 0zM407 352q-7 0 -40 48q-29 41 -53.5 56.5t-69.5 19.5q-59 7 -82.5 -21.5t-0.5 -80.5q11 -24 68 -82q41 -41 49 -54t8 -42q0 -63 -48 -88q-19 -10 -48 -11.5t-50 6.5q-20 7 -49 37t-41 56q-21 45 -20 80q0 9 4 10q1 0 2 -1
q10 -5 10 -19t35.5 -61.5t53.5 -57.5q33 -19 76 -6.5t43 40.5q0 67 -100 120q-23 13 -37.5 41.5t-14.5 63.5q0 32 5.5 43.5t36.5 40.5q35 33 72 46.5t77.5 2.5t76.5 -49q14 -15 27.5 -49.5t16 -59.5t-6.5 -29zM174 577q1 6 -9 3q-7 -2 -7 2q0 11 82 43q47 18 62 45
q16 26 38 26q24 -1 45 -18q8 -6 4 -9q-13 -10 -90 -38t-97 -43q-26 -19 -28 -11z" />
    <glyph glyph-name="sacute" unicode="&#x15b;" horiz-adv-x="311" 
d="M196 99q1 -6 15 -1q9 4 -4 5q-11 0 -11 -4zM82 118q0 -13 13 -21.5t30 -6.5q13 1 13.5 2.5t-5.5 5.5q-3 2 -19 12q-32 19 -32 8zM262 119q11 24 5 27q-5 2 -13 -13q-3 -5 -5 -10q-13 -28 -5 -27q6 1 18 23zM90 303q0 -12 11 -25t25 -17q10 -4 10 -1q0 2 -14 18
q-23 25 -26 30q-6 6 -6 -5zM82 367q1 -3 5 -2t12 6q38 26 79 0l20 -13l-19 17q-20 19 -58.5 15.5t-38.5 -23.5zM234 147q0 16 -18 31t-68 40q-39 19 -56.5 44.5t-22.5 67.5q-4 31 -1.5 39.5t18.5 20.5q39 31 85 9q22 -10 50.5 -52t28.5 -63q0 -18 -2 -19t-13 12
q-7 8 -18.5 27.5t-23.5 31.5t-31 16q-56 12 -60 -5.5t45 -58.5q16 -13 26.5 -22.5t21.5 -21t15.5 -16t19.5 -22t22 -24.5q24 -26 27.5 -41t-9.5 -35q-15 -21 -79.5 -31t-92.5 5q-15 7 -38.5 51t-28.5 71q-5 34 5 34q7 0 11 -24q3 -17 13.5 -29.5t38.5 -34.5q37 -28 61 -33.5
t53 5.5q21 9 21 27zM263 528q12 0 16.5 -3.5t0 -9t-16.5 -11.5q-4 -2 -34.5 -23.5t-58.5 -36t-42 -10.5l-26 2q78 34 115 67q27 25 46 25z" />
    <glyph glyph-name="scedilla" unicode="&#x15f;" horiz-adv-x="272" 
d="M211 -21q10 12 7 11q-5 0 -27 -19q-16 -15 -12 -14q1 0 5 2q19 8 27 20zM194 10q9 2 -2 3q-30 3 -30 -1q0 -1 4 -2q13 -4 28 0zM201 118q-2 9 -3 -2q-3 -30 1 -30q1 0 2 4q4 13 0 28zM79 296q-9 -1 0 -27q5 -14 6 -6q1 4 0 13q-4 20 -6 20zM176 358q-20 17 -55 1.5
t-44 -32.5q-1 -5 0 -6t4 3q7 10 42 22t46 8q9 -3 9 0q0 1 -2 4zM109 368q13 5 24 12q11 6 31 -2q4 -2 7 -3q25 -10 48 -43q32 -47 21 -46q-5 1 -21 17t-27.5 20.5t-36.5 4.5q-33 0 -51 -5q-15 -9 -12.5 -27.5t22 -42.5t45.5 -39t42.5 -42.5t17.5 -57.5q0 -29 -7.5 -39.5
t-30.5 -15.5q-36 -6 -78 -31q6 0 23 -0.5t31.5 -1t30 -2t24 -4.5t7.5 -8q0 -10 11 -14q10 -3 -13 -28t-69.5 -30t-86.5 12q-28 13 -30 19q-1 3 4 3q10 0 36 -10q53 -21 100 10q26 17 -4 24q-11 2 -28 2q-63 1 -63 21q-1 12 27 25l28 13l-33 16q-29 14 -51.5 47.5t-15.5 53.5
q8 25 21 6q5 -8 12 -24q15 -34 51 -56q42 -25 55.5 -24.5t15.5 29.5q4 40 -7 58t-55 46q-49 31 -62 55.5t1 58.5q11 28 46 43z" />
    </font>
</defs>
</svg>
