<?xml version="1.0" encoding="utf-8"?>
<!-- Generator: Adobe Illustrator 22.0.1, SVG Export Plug-In . SVG Version: 6.00 Build 0)  -->
<svg version="1.1" id="Layer_1" xmlns="http://www.w3.org/2000/svg" xmlns:xlink="http://www.w3.org/1999/xlink" x="0px" y="0px"
	 viewBox="0 0 555.7 614" style="enable-background:new 0 0 555.7 614;" xml:space="preserve">
<style type="text/css">
	.st0{fill:#FFFFFF;}
	.st1{clip-path:url(#SVGID_2_);}
	.st2{stroke:#000000;stroke-width:3;stroke-miterlimit:10;}
</style>
<rect x="0" class="st0" width="555.7" height="614"/>
<g>
	<defs>
		<rect id="SVGID_1_" x="0" width="555.7" height="614"/>
	</defs>
	<clipPath id="SVGID_2_">
		<use xlink:href="#SVGID_1_"  style="overflow:visible;"/>
	</clipPath>
	<g class="st1">
		<path class="st2" d="M226.2,454.5c-32,0-61.9-10.5-84.1-29.5c-25-21.5-38.3-52.2-38.3-88.7s13.3-67.2,38.3-88.7
			c22.2-19.1,52.1-29.6,84.2-29.6c32,0,61.9,10.5,84,29.5c25,21.5,38.2,52.2,38.2,88.7s-13.2,67.2-38.3,88.7
			C288.1,444,258.3,454.5,226.2,454.5z M226.3,220c-31.6,0-61,10.3-82.9,29.1c-24.6,21.1-37.6,51.2-37.6,87.1s13,66,37.6,87.1
			c21.8,18.7,51.2,29.1,82.8,29.1s61-10.3,82.8-29.1c24.6-21.1,37.6-51.2,37.6-87.1s-13-66.1-37.5-87.2
			C287.3,230.3,257.9,220,226.3,220z"/>
	</g>
	<g class="st1">
		<path class="st2" d="M325.7,381.4c-32,0-61.9-10.5-84.1-29.5c-25-21.5-38.3-52.2-38.3-88.7s13.3-67.2,38.3-88.7
			c22.2-19.1,52.1-29.6,84.2-29.6c32,0,61.9,10.5,84,29.5c25,21.5,38.2,52.2,38.2,88.7s-13.2,67.2-38.3,88.7
			C387.6,370.9,357.8,381.4,325.7,381.4z M325.8,146.9c-31.6,0-61,10.3-82.9,29.1c-24.6,21.1-37.6,51.2-37.6,87.1s13,66,37.6,87.1
			c21.8,18.7,51.2,29.1,82.8,29.1s61-10.3,82.8-29.1c24.6-21.1,37.6-51.2,37.6-87.1s-13-66.1-37.5-87.2
			C386.8,157.3,357.4,146.9,325.8,146.9z"/>
	</g>
	<g class="st1">
		<path class="st2" d="M326.3,343.9c-21.9,0-42.4-7.2-57.7-20.3c-17.2-14.7-26.3-35.6-26.3-60.5c0-24.8,9.1-45.7,26.4-60.5
			c15.4-13.1,35.9-20.3,57.9-20.3c39.8,0,82.6,25.3,82.6,80.8c0,25-9,46-25.9,60.6C368.3,336.8,348.1,343.9,326.3,343.9z
			 M326.6,184.4c-21.5,0-41.6,7-56.6,19.8c-16.8,14.4-25.7,34.7-25.7,58.9s8.9,44.6,25.6,58.9c14.9,12.8,35,19.8,56.4,19.8
			c38.9,0,80.9-24.6,80.9-78.7C407.2,209,365.4,184.4,326.6,184.4z"/>
	</g>
	<g class="st1">
		<path class="st2" d="M325.7,290.2c-7.4,0-14.3-2.4-19.4-6.8c-5.8-4.9-8.9-12-8.9-20.3c0-17.9,14.5-27.3,28.8-27.3
			c7.3,0,14.2,2.4,19.2,6.8c5.7,4.9,8.7,12.1,8.7,20.6c0,8.4-3.1,15.4-8.9,20.3C340,287.8,333.1,290.2,325.7,290.2z M326.2,237.9
			c-13.3,0-26.8,8.7-26.8,25.3c0,17.2,13.7,25.1,26.3,25.1s26.3-7.8,26.3-25.1c0-7.9-2.8-14.5-8-19
			C339.4,240.1,333,237.9,326.2,237.9z"/>
	</g>
	<g class="st1">
		<g>
			<path d="M91,91.7H75.2l-2.5,10.8H58.5l17.6-68H90l17.6,68h-14L91,91.7z M88.6,81l-5.5-24.4L77.5,81H88.6z"/>
			<path d="M151.6,91.7h-15.9l-2.5,10.8h-14.1l17.6-68h13.9l17.6,68h-14.1L151.6,91.7z M149.2,81l-5.5-24.4L138.2,81H149.2z"/>
			<path d="M224.6,102.5h-14.1l-7.2-27.3H197v27.3h-13.9v-68H204c6,0,10.8,1.4,14.6,4.1c4.2,3,6.3,7.2,6.3,12.6v7.3
				c0,5.5-2.1,9.7-6.3,12.7c-0.6,0.5-1.3,0.9-2,1.3L224.6,102.5z M211.1,51.2c0-2.3-0.6-3.9-1.9-4.9c-1.1-0.8-2.8-1.2-5.2-1.2h-7
				v19.3h7.1c2.4,0,4.1-0.4,5.2-1.2c1.3-0.9,1.9-2.5,1.9-4.9L211.1,51.2L211.1,51.2z"/>
		</g>
		<g>
			<path d="M282.5,35.7h9.5v40.8c0,6.6-0.6,11.5-1.8,14.7c-1.2,3.2-2.9,5.7-5.3,7.4c-2.3,1.7-5.2,2.6-8.6,2.6c-4.5,0-8-1.7-10.6-5.2
				s-3.8-8.8-3.9-15.8l8.9-1.4c0.1,3.8,0.5,6.5,1.3,8.1c1,2.2,2.5,3.3,4.6,3.3c2,0,3.4-0.8,4.4-2.4c0.9-1.6,1.4-5.1,1.4-10.5V35.7
				H282.5z"/>
			<path d="M349.5,100.2h-10.3l-4.1-14.6h-18.8l-3.9,14.6h-10.1l18.3-64.5h10L349.5,100.2z M332,74.7l-6.5-23.9l-6.4,23.9H332z"/>
			<path d="M359.5,100.2V35.7h15.2c5.7,0,9.4,0.3,11.1,0.9c2.8,1,5.1,3.1,6.9,6.4c1.8,3.3,2.7,7.5,2.7,12.6c0,4.7-0.8,8.6-2.3,11.7
				c-1.6,3.2-3.5,5.4-5.9,6.6c-2.3,1.3-6.4,1.9-12.1,1.9H369v24.3L359.5,100.2L359.5,100.2z M369,46.6V65h5.2c3.5,0,5.9-0.3,7.2-0.8
				c1.3-0.6,2.3-1.6,3.1-3c0.8-1.5,1.2-3.2,1.2-5.4c0-2.1-0.4-4-1.3-5.4c-0.8-1.5-1.9-2.5-3.1-3s-3.8-0.8-7.8-0.8
				C373.5,46.6,369,46.6,369,46.6z"/>
			<path d="M446,100.2h-10.3l-4.1-14.6h-18.8l-3.9,14.6h-10.1l18.3-64.5h10L446,100.2z M428.5,74.7L422,50.8l-6.4,23.9H428.5z"/>
			<path d="M456.2,100.2V35.7h9.2l19.2,43.1V35.7h8.8v64.5h-9.5L465,58.1v42.1H456.2z"/>
		</g>
	</g>
	<g class="st1">
		<path class="st2" d="M104.4,707.3c-27.3,0-52.8-8.8-71.7-24.7C11.3,664.7,0,639,0,608.5s11.3-56.2,32.7-74.2
			c18.9-16,44.4-24.8,71.8-24.8c27.3,0,52.8,8.8,71.6,24.7c21.3,18,32.6,43.7,32.6,74.2s-11.3,56.2-32.7,74.2
			C157.2,698.6,131.7,707.3,104.4,707.3z M104.5,511.2c-26.9,0-52,8.6-70.7,24.3c-21,17.6-32.1,42.8-32.1,72.8s11.1,55.2,32.1,72.8
			c18.6,15.6,43.7,24.3,70.6,24.3s52-8.6,70.6-24.3c21-17.6,32.1-42.8,32.1-72.8c0-30-11.1-55.3-32-72.9
			C156.5,519.9,131.4,511.2,104.5,511.2z"/>
	</g>
	<g class="st1">
		<path class="st2" d="M104.9,676c-18.7,0-36.2-6-49.2-17c-14.7-12.3-22.4-29.8-22.4-50.6c0-20.7,7.8-38.2,22.5-50.6
			c13.1-11,30.6-17,49.4-17c33.9,0,70.4,21.2,70.4,67.6c0,20.9-7.7,38.5-22.1,50.7C140.7,670,123.5,676,104.9,676z M105.1,542.6
			c-18.3,0-35.5,5.9-48.3,16.6c-14.3,12-21.9,29-21.9,49.3s7.6,37.3,21.8,49.3c12.7,10.7,29.8,16.6,48.1,16.6
			c33.2,0,69-20.6,69-65.8C173.9,563.2,138.2,542.6,105.1,542.6z"/>
	</g>
	<g class="st1">
		<path class="st2" d="M104.4,631.1c-6.3,0-12.2-2-16.5-5.7c-4.9-4.1-7.6-10-7.6-17c0-15,12.4-22.8,24.6-22.8c6.2,0,12.1,2,16.4,5.7
			c4.9,4.1,7.4,10.1,7.4,17.2c0,7-2.6,12.9-7.6,17C116.6,629.1,110.7,631.1,104.4,631.1z M104.8,587.3c-11.3,0-22.9,7.3-22.9,21.2
			c0,14.4,11.7,21,22.4,21s22.4-6.5,22.4-21c0-6.6-2.4-12.1-6.8-15.9C116.1,589.2,110.6,587.3,104.8,587.3z"/>
	</g>
	<g class="st1">
		<path class="st2" d="M277.7,707.3c-27.3,0-52.8-8.8-71.7-24.7c-21.3-18-32.7-43.7-32.7-74.2s11.3-56.2,32.7-74.2
			c18.9-16,44.4-24.8,71.8-24.8c27.3,0,52.8,8.8,71.6,24.7c21.3,18,32.6,43.7,32.6,74.2s-11.3,56.2-32.7,74.2
			C330.5,698.6,305.1,707.3,277.7,707.3z M277.8,511.2c-26.9,0-52,8.6-70.7,24.3c-21,17.6-32.1,42.8-32.1,72.8s11.1,55.2,32.1,72.8
			c18.6,15.6,43.7,24.3,70.6,24.3s52-8.6,70.6-24.3c21-17.6,32.1-42.8,32.1-72.8c0-30-11.1-55.3-32-72.9
			C329.8,519.9,304.8,511.2,277.8,511.2z"/>
	</g>
	<g class="st1">
		<path class="st2" d="M278.2,676c-18.7,0-36.2-6-49.2-17c-14.7-12.3-22.4-29.8-22.4-50.6c0-20.7,7.8-38.2,22.5-50.6
			c13.1-11,30.6-17,49.4-17c33.9,0,70.4,21.2,70.4,67.6c0,20.9-7.7,38.5-22.1,50.7C314,670,296.8,676,278.2,676z M278.5,542.6
			c-18.3,0-35.5,5.9-48.3,16.6c-14.3,12-21.9,29-21.9,49.3s7.6,37.3,21.8,49.3c12.7,10.7,29.8,16.6,48.1,16.6
			c33.2,0,69-20.6,69-65.8C347.2,563.2,311.6,542.6,278.5,542.6z"/>
	</g>
	<g class="st1">
		<path class="st2" d="M277.7,631.1c-6.3,0-12.2-2-16.5-5.7c-4.9-4.1-7.6-10-7.6-17c0-15,12.4-22.8,24.6-22.8c6.2,0,12.1,2,16.4,5.7
			c4.9,4.1,7.4,10.1,7.4,17.2c0,7-2.6,12.9-7.6,17C289.9,629.1,284,631.1,277.7,631.1z M278.1,587.3c-11.3,0-22.9,7.3-22.9,21.2
			c0,14.4,11.7,21,22.4,21c10.7,0,22.4-6.5,22.4-21c0-6.6-2.4-12.1-6.8-15.9C289.4,589.2,283.9,587.3,278.1,587.3z"/>
	</g>
	<g class="st1">
		<path class="st2" d="M451.4,711.2c-27.3,0-52.8-8.8-71.7-24.7c-21.3-18-32.7-43.7-32.7-74.2c0-30.5,11.3-56.2,32.7-74.2
			c18.9-16,44.4-24.8,71.8-24.8c27.3,0,52.8,8.8,71.6,24.7c21.3,18,32.6,43.7,32.6,74.2s-11.3,56.2-32.7,74.2
			C504.2,702.5,478.8,711.2,451.4,711.2z M451.5,515.2c-26.9,0-52,8.6-70.7,24.3c-21,17.6-32.1,42.8-32.1,72.8
			c0,30,11.1,55.2,32.1,72.8c18.6,15.6,43.7,24.3,70.6,24.3s52-8.6,70.6-24.3c21-17.6,32.1-42.8,32.1-72.8c0-30-11.1-55.3-32-72.9
			C503.5,523.9,478.4,515.2,451.5,515.2z"/>
	</g>
	<g class="st1">
		<path class="st2" d="M451.9,679.9c-18.7,0-36.2-6-49.2-17c-14.7-12.3-22.4-29.8-22.4-50.6c0-20.7,7.8-38.2,22.5-50.6
			c13.1-11,30.6-17,49.4-17c33.9,0,70.4,21.2,70.4,67.6c0,20.9-7.7,38.5-22.1,50.7C487.7,674,470.5,679.9,451.9,679.9z M452.2,546.5
			c-18.3,0-35.5,5.9-48.3,16.6c-14.3,12-21.9,29-21.9,49.3c0,20.2,7.6,37.3,21.8,49.3c12.7,10.7,29.8,16.6,48.1,16.6
			c33.2,0,69-20.6,69-65.8C520.9,567.1,485.3,546.5,452.2,546.5z"/>
	</g>
	<g class="st1">
		<path class="st2" d="M451.4,635c-6.3,0-12.2-2-16.5-5.7c-4.9-4.1-7.6-10-7.6-17c0-15,12.4-22.8,24.6-22.8c6.2,0,12.1,2,16.4,5.7
			c4.9,4.1,7.4,10.1,7.4,17.2c0,7-2.6,12.9-7.6,17C463.6,633,457.7,635,451.4,635z M451.8,591.3c-11.3,0-22.9,7.3-22.9,21.2
			c0,14.4,11.7,21,22.4,21c10.7,0,22.4-6.5,22.4-21c0-6.6-2.4-12.1-6.8-15.9C463.1,593.1,457.6,591.3,451.8,591.3z"/>
	</g>
</g>
</svg>
