<?xml version="1.0" encoding="utf-8"?>
<!-- Generator: Adobe Illustrator 22.0.1, SVG Export Plug-In . SVG Version: 6.00 Build 0)  -->
<svg version="1.1" id="Layer_1" xmlns="http://www.w3.org/2000/svg" xmlns:xlink="http://www.w3.org/1999/xlink" x="0px" y="0px"
	 viewBox="0 0 555.7 614" style="enable-background:new 0 0 555.7 614;" xml:space="preserve">
<style type="text/css">
	.st0{fill:#FFFFFF;stroke:#FFFFFF;stroke-miterlimit:10;}
	.st1{fill:#FFFFFF;}
	.st2{stroke:#000000;stroke-width:3;stroke-miterlimit:10;}
	.st3{fill:none;stroke:#000000;stroke-width:13;stroke-miterlimit:10;}
	.st4{fill:#231F20;stroke:#FFFFFF;stroke-width:3;stroke-miterlimit:10;}
</style>
<rect x="0" class="st0" width="555.7" height="614"/>
<rect x="0" class="st1" width="555.7" height="614"/>
<g>
	<path class="st2" d="M310.4,247.6c-22.2-19-52-29.5-84-29.5c-32,0-61.9,10.5-84.2,29.6c-25.1,21.5-38.3,52.2-38.3,88.7
		c0,36.5,13.2,67.2,38.3,88.7c22.2,19,52.1,29.5,84.1,29.5c32,0,61.9-10.5,84.1-29.5c25-21.5,38.3-52.1,38.3-88.7
		C348.6,299.7,335.4,269.1,310.4,247.6z M309,423.4c-21.8,18.7-51.2,29.1-82.8,29.1s-61-10.3-82.8-29.1
		c-24.6-21.1-37.6-51.2-37.6-87.1c0-35.9,13-66,37.6-87.1c21.9-18.8,51.3-29.1,82.9-29.1c31.5,0,60.9,10.3,82.7,29
		c24.6,21.1,37.6,51.2,37.6,87.2C346.6,372.2,333.6,402.3,309,423.4z"/>
	<path class="st2" d="M346.6,336.3c0,35.9-13,66-37.6,87.1c-21.8,18.7-51.2,29.1-82.8,29.1s-61-10.3-82.8-29.1
		c-24.6-21.1-37.6-51.2-37.6-87.1c0-35.9,13-66,37.6-87.1c21.9-18.8,51.3-29.1,82.9-29.1c31.5,0,60.9,10.3,82.7,29
		C333.6,270.2,346.6,300.3,346.6,336.3z"/>
</g>
<path class="st3" d="M214.1,215.5c-36,83.8,33.6,177.5,123.8,168.5"/>
<path class="st3" d="M256.4,218.6C216.2,281,276.5,362,347.5,342.8"/>
<path class="st3" d="M305.8,244.6c-20.1,21.4,6,55.9,31.8,43.3"/>
<g>
	<g>
		<path d="M91,91.7H75.2l-2.5,10.8H58.5l17.6-68H90l17.6,68H93.6L91,91.7z M88.6,81l-5.5-24.4L77.5,81H88.6z"/>
		<path d="M151.6,91.7h-15.9l-2.5,10.8h-14.1l17.6-68h13.9l17.6,68h-14.1L151.6,91.7z M149.2,81l-5.5-24.4L138.2,81H149.2z"/>
		<path d="M224.6,102.5h-14.1l-7.2-27.3H197v27.3h-13.9v-68h20.9c6,0,10.8,1.4,14.6,4.1c4.2,3,6.3,7.2,6.3,12.6v7.3
			c0,5.5-2.1,9.7-6.3,12.7c-0.6,0.5-1.3,0.9-2,1.3L224.6,102.5z M211.1,51.2c0-2.3-0.6-3.9-1.9-4.9c-1.1-0.8-2.8-1.2-5.2-1.2H197
			v19.3h7.1c2.4,0,4.1-0.4,5.2-1.2c1.3-0.9,1.9-2.5,1.9-4.9V51.2z"/>
	</g>
	<g>
		<path d="M282.5,35.7h9.5v40.8c0,6.6-0.6,11.5-1.8,14.7c-1.2,3.2-2.9,5.7-5.3,7.4c-2.3,1.7-5.2,2.6-8.6,2.6c-4.5,0-8-1.7-10.6-5.2
			c-2.6-3.5-3.8-8.8-3.9-15.8l8.9-1.4c0.1,3.8,0.5,6.5,1.3,8.1c1,2.2,2.5,3.3,4.6,3.3c2,0,3.4-0.8,4.4-2.4c0.9-1.6,1.4-5.1,1.4-10.5
			V35.7z"/>
		<path d="M349.5,100.2h-10.3l-4.1-14.6h-18.8l-3.9,14.6h-10.1l18.3-64.5h10L349.5,100.2z M332,74.7l-6.5-23.9l-6.4,23.9H332z"/>
		<path d="M359.5,100.2V35.7h15.2c5.7,0,9.4,0.3,11.1,0.9c2.8,1,5.1,3.1,6.9,6.4c1.8,3.3,2.7,7.5,2.7,12.6c0,4.7-0.8,8.6-2.3,11.7
			c-1.6,3.2-3.5,5.4-5.9,6.6c-2.3,1.3-6.4,1.9-12.1,1.9H369v24.3H359.5z M369,46.6v18.4h5.2c3.5,0,5.9-0.3,7.2-0.8
			c1.3-0.6,2.3-1.6,3.1-3c0.8-1.5,1.2-3.2,1.2-5.4c0-2.1-0.4-4-1.3-5.4c-0.8-1.5-1.9-2.5-3.1-3c-1.2-0.5-3.8-0.8-7.8-0.8H369z"/>
		<path d="M446,100.2h-10.3l-4.1-14.6h-18.8l-3.9,14.6h-10.1l18.3-64.5h10L446,100.2z M428.5,74.7l-6.5-23.9l-6.4,23.9H428.5z"/>
		<path d="M456.2,100.2V35.7h9.2l19.2,43.1V35.7h8.8v64.5h-9.5L465,58.1v42.1H456.2z"/>
	</g>
</g>
<g>
	<path class="st4" d="M326.3,343.9c-21.9,0-42.4-7.2-57.7-20.3c-17.2-14.7-26.3-35.6-26.3-60.5c0-24.8,9.1-45.7,26.4-60.5
		c15.4-13.1,35.9-20.3,57.9-20.3c39.8,0,82.6,25.3,82.6,80.8c0,25-9,46-25.9,60.6C368.3,336.8,348.1,343.9,326.3,343.9z
		 M326.6,184.4c-21.5,0-41.6,7-56.6,19.8c-16.8,14.4-25.7,34.7-25.7,58.9c0,24.2,8.9,44.6,25.6,58.9c14.9,12.8,35,19.8,56.4,19.8
		c38.9,0,80.9-24.6,80.9-78.7C407.2,209,365.4,184.4,326.6,184.4z"/>
</g>
<g>
	<path class="st4" d="M325.7,290.2c-7.4,0-14.3-2.4-19.4-6.8c-5.8-4.9-8.9-12-8.9-20.3c0-17.9,14.5-27.3,28.8-27.3
		c7.3,0,14.2,2.4,19.2,6.8c5.7,4.9,8.7,12.1,8.7,20.6c0,8.4-3.1,15.4-8.9,20.3C340,287.8,333.1,290.2,325.7,290.2z M326.2,237.9
		c-13.3,0-26.8,8.7-26.8,25.3c0,17.2,13.7,25.1,26.3,25.1s26.3-7.8,26.3-25.1c0-7.9-2.8-14.5-8-19
		C339.4,240.1,333,237.9,326.2,237.9z"/>
</g>
<g>
	<path class="st4" d="M325.7,381.4c-32,0-61.9-10.5-84.1-29.5c-25-21.5-38.3-52.2-38.3-88.7c0-36.5,13.3-67.2,38.3-88.7
		c22.2-19.1,52.1-29.6,84.2-29.6c32,0,61.9,10.5,84,29.5c25,21.5,38.2,52.2,38.2,88.7c0,36.5-13.2,67.2-38.3,88.7
		C387.6,370.9,357.8,381.4,325.7,381.4z M325.8,146.9c-31.6,0-61,10.3-82.9,29.1c-24.6,21.1-37.6,51.2-37.6,87.1
		c0,35.9,13,66,37.6,87.1c21.8,18.7,51.2,29.1,82.8,29.1s61-10.3,82.8-29.1c24.6-21.1,37.6-51.2,37.6-87.1c0-35.9-13-66.1-37.5-87.2
		C386.8,157.3,357.4,146.9,325.8,146.9z"/>
</g>
<g>
	<path d="M107.7,530.9c0,30.4-19.6,35.3-38.4,35.3h-26v-70.5h26C88.1,495.7,107.7,500.6,107.7,530.9z M91.7,530.9
		c0-20.2-9.9-21.2-22.4-21.2h-10v42.5h10C81.8,552.2,91.7,551.2,91.7,530.9z"/>
	<path d="M161.8,494.7c22.3,0,35.9,15.7,35.9,36.2c0,20.6-13.6,36.3-35.9,36.3c-22.4,0-36-15.7-36-36.3
		C125.8,510.4,139.4,494.7,161.8,494.7z M161.8,553.2c13.3,0,19.9-8.7,19.9-22.3c0-13.5-6.6-22.2-19.9-22.2s-20,8.7-20,22.2
		C141.8,544.5,148.5,553.2,161.8,553.2z"/>
	<path d="M217.8,495.7h31.5l21.3,66.5h4l-3-10v-56.5h16v70.5h-31.5l-21.3-66.5h-4l3,10v56.5h-16L217.8,495.7L217.8,495.7z"/>
	<path d="M356.8,543.6h-28.6l-6.3,22.6h-16.2l20.3-70.5h33l20.4,70.5h-16.2L356.8,543.6z M352.9,529.6l-8.4-29.9h-4l-8.4,29.9H352.9
		z"/>
	<path d="M444.6,509.7h-23v56.5h-16v-56.5h-23.1v-14h62.1V509.7z"/>
	<path d="M462.7,495.7H513v14h-34.3v14.2H508v14h-29.3v14.3H513v14h-50.3L462.7,495.7L462.7,495.7z"/>
</g>
</svg>
