<svg id="Layer_1" data-name="Layer 1" xmlns="http://www.w3.org/2000/svg" viewBox="0 0 555.68 613.95"><title>blm</title><rect width="555.68" height="613.95" fill="#f8ed47"/><path d="M279.91,491.2H63.18c-5.07,0-5.07,0-5.08-5.05,0-2.19.12-4.4,0-6.58s.84-2.88,2.84-2.83c2.78.06,5.55,0,8.33,0h427.9c4.94,0,4.94,0,5,4.89,0,9.58,0,9.58-9.62,9.58Z"/><path d="M134,443.88v-4.8c0-22.31-.06-44.62.07-66.92,0-3.09-.85-4-3.9-3.87-4.58.25-9.19.07-14.32.07v4.72c0,22.3-.08,44.61.07,66.92,0,3.43-1,4.35-4.32,4.17-4.93-.26-9.89-.07-15.3-.07V368.61H77.89v75.28H58.36c-.07-1.45-.18-2.68-.18-3.92v-80.1c0-7.25,3.81-11.08,11.1-11.11H93.9c6.81,0,8.26.74,12.17,6.4,2.41-5.42,6.85-6.61,12.25-6.46,8.31.22,16.64,0,25,.07,6.36,0,10.29,3.75,10.31,10q.09,41.43,0,82.87a20.27,20.27,0,0,1-.24,2.2Z"/><path d="M501.83,528.63v14h-4q-217.92,0-435.85.06c-2.92,0-4.24-.56-4-3.78s.06-6.65.06-10.25Z"/><path d="M58.11,502.89H501.74v14H63.91c-6.61,0-5.72.59-5.8-5.69C58.08,508.56,58.11,505.92,58.11,502.89Z"/><path d="M108.91,132.64c5.66,2.67,7.06,7,7,12.26-.12,8,0,16-.06,23.93s-3.89,11.61-11.78,11.61c-14,0-28-.08-42,.06-2.93,0-4-.62-4-3.81q.18-43.87,0-87.75c0-3,.65-4,3.82-4,14.45.17,28.9,0,43.35.09,6.25,0,10.36,3.74,10.5,10,.2,9.24.15,18.5,0,27.74C115.74,127.13,113.79,130.56,108.91,132.64Zm-31,28H96V142.71H77.94Zm0-38.08h18V105h-18Z"/><path d="M234.74,180.44v-6c0-9.47-.1-19,.06-28.43,0-2.93-.93-3.8-3.78-3.67-4.71.21-9.42,0-14.44,0-.09,1.68-.21,3-.21,4.37,0,9.94-.13,19.89,0,29.82.06,3.12-1,4-4,3.87-5-.21-10.1-.06-15.37-.06-.08-1.56-.18-2.68-.18-3.8V95.09c0-6.07,3.78-10,9.85-10.06q18.72-.11,37.45,0c6.12,0,9.92,3.9,9.93,10q0,40.92.07,81.84c0,2.68-.71,3.68-3.49,3.57C245.62,180.3,240.54,180.44,234.74,180.44Zm0-75.73c-5.75,0-11.14,0-16.53.07a2.32,2.32,0,0,0-1.67,1.58c-.13,5.36-.08,10.74-.08,16.39,5.82,0,11.11.07,16.39-.08a2.62,2.62,0,0,0,1.81-1.81c.1-5.27,0-10.55,0-16.15Z"/><path d="M165.68,444.08V359.31c0-6.75,3.73-10.53,10.44-10.54h36.74c5.93,0,10,3.83,10,9.58q.07,41.76,0,83.53c0,.56-.12,1.12-.21,1.95h-19.1v-11c0-7.85,0-15.71.1-23.56,0-2.36-.66-3.32-3.15-3.22-4,.18-8.09.21-12.13,0-2.7-.14-3.3.95-3.28,3.42.11,10.28-.06,20.57.12,30.85,0,3.08-.91,4-3.94,3.85C176.23,443.93,171.17,444.08,165.68,444.08Zm37.83-57.55c0-5.66.07-10.84-.07-16,0-.72-1-2-1.63-2-5.39-.16-10.79-.09-16.63-.09,0,5.65-.08,10.93.1,16.2,0,.66,1.38,1.81,2.15,1.83,5.17.16,10.36.08,16.08.08Z"/><path d="M442,348.76h45.87c7.41,0,11,3.65,11,11,0,8.32-.16,16.64.07,25,.15,5.24-1.3,9.31-6.63,11.62,5.12,2.48,6.76,6.38,6.63,11.67-.26,10.51-.07,21-.07,31.54v4.29H479.74c-.09-1.74-.24-3.32-.25-4.91,0-9.71-.07-19.41.06-29.12,0-2.73-.59-4-3.63-3.8a90.82,90.82,0,0,1-11.43,0c-2.75-.15-3.62.76-3.58,3.51.14,10.17.06,20.34.07,30.5v3.88H442Zm37.39,19.63c-5.87,0-11.15-.09-16.43.11-.7,0-1.89,1.5-1.93,2.34-.2,4.37-.22,8.75,0,13.11a3.45,3.45,0,0,0,2.23,2.47c4.59.24,9.21.2,13.81,0,.79,0,2.19-1.12,2.21-1.76C479.51,379.44,479.43,374.17,479.43,368.39Z"/><path d="M343.9,236.85H325.72v18.3h27.34c6.32,0,10.37,3.65,10.46,10q.28,18.56,0,37.11c-.08,6.46-4.15,10.09-10.63,10.09H316.14c-6.13,0-10.17-4-10.22-10.11,0-5.31-.11-10.64.1-15.95,0-.94,1.28-2.61,2-2.64,5.63-.22,11.28-.12,17.29-.12v9.12h18.53c0-5.51.1-10.91-.14-16.3,0-.63-1.92-1.66-3-1.68-8-.13-16-.1-23.93-.05-4.56,0-8.19-1.52-10-5.9a12.63,12.63,0,0,1-.85-4.71q-.1-18.19,0-36.41c0-6.14,3.94-10.36,10.09-10.43q18.72-.21,37.45,0c6.09.07,9.86,3.93,10.08,10.09.19,5.43,0,10.87.08,16.3,0,1.9-.65,2.75-2.6,2.73-4.86-.06-9.71-.07-14.57,0-2,0-2.64-.88-2.56-2.75C344,241.43,343.9,239.36,343.9,236.85Z"/><path d="M335.15,180.43V85.28h19.21v37c2.75,1.15,3.79.14,4.62-1.94,4.15-10.38,8.56-20.66,12.55-31.11,1.24-3.23,2.85-4.4,6.29-4.21,5.59.3,11.21.08,17.5.08-6,12.88-11.67,25-17.43,37.43a61.93,61.93,0,0,1,6.79.8,9,9,0,0,1,7.43,9.12c.06,15,0,30.06.07,45.09,0,2.27-.74,3.05-3,3-4.38-.13-8.79-.2-13.17,0-2.74.13-3.31-1-3.29-3.46.08-10.17-.06-20.35.09-30.52,0-3-.64-4.37-4-4.14-4.59.31-9.21.08-14.16.08-.12,1.6-.3,2.93-.3,4.27,0,10-.07,20.11,0,30.17,0,2.56-.6,3.75-3.5,3.61C345.68,180.26,340.5,180.43,335.15,180.43Z"/><path d="M237.07,217.08h9c14.68,0,29.36.1,44-.08,3.42,0,4.4,1,4.18,4.31a102.27,102.27,0,0,0,0,12.13c.14,2.69-.91,3.31-3.41,3.28-10.28-.11-20.57,0-30.85,0h-3.63v18.36H284.8c0,6.18.08,12-.13,17.85,0,.57-1.8,1.51-2.78,1.53-7.27.14-14.56.1-21.84.11h-3.69v18.36h37.71v19.15h-57Z"/><path d="M392.29,424.48h35.14c1.71,0,2.88.2,2.84,2.39-.1,5.54,0,11.08,0,16.94h-57V349h57c0,6,.09,11.86-.14,17.7,0,.6-2,1.6-3,1.61-10.17.12-20.34.07-30.52.07h-4.08v18.17h12.05c4.62,0,9.25-.07,13.86.13.9,0,2.46,1.2,2.49,1.89.2,5.64.11,11.28.11,17.47H392.29Z"/><path d="M322.73,113.7H303.5v-8.84h-18v55.78h18.1c0-2.23.08-4.4,0-6.55s.61-2.93,2.76-2.88q6.93.15,13.87,0c2.15,0,2.79.87,2.77,2.9-.08,5.55.1,11.1-.05,16.64-.15,5.76-4.23,9.66-10,9.68q-18.74.07-37.46,0a9.62,9.62,0,0,1-9.82-9.41V95c0-5.65,3.82-9.76,9.43-9.81q19.25-.19,38.49,0c4.62,0,8.87,3.21,9.12,7.45C323,99.53,322.73,106.56,322.73,113.7Z"/><path d="M227.81,217.08c-1.94,7.2-3.69,13.74-5.48,20.26q-8,29.34-16.11,58.67c-1.24,4.56-2.51,9.11-3.67,13.69-.51,2-1.52,2.74-3.65,2.67-4.73-.17-9.48-.14-14.21,0-2,.05-2.82-.57-3.34-2.52q-10.9-40.39-22-80.77c-1-3.83-2.14-7.66-3.36-12,7.3,0,13.86-.1,20.42.13.73,0,1.79,1.83,2,3,4.48,21.07,8.86,42.16,13.46,64.17,2-9.43,3.81-18,5.59-26.53q3.94-19,7.82-37.93c.41-2,1.19-2.93,3.42-2.88C214.93,217.17,221.12,217.08,227.81,217.08Z"/><path d="M77.83,292.93H93.19c6.47,0,12.94.07,19.41,0,2.29,0,3.37.61,3.29,3.14-.15,5.27,0,10.56,0,16H58.36c-.08-1.18-.2-2.3-.2-3.41q0-43.86-.06-87.72c0-2.94.64-4.18,3.82-4a103.76,103.76,0,0,0,12.47,0c2.81-.14,3.49.89,3.48,3.57-.09,22.54,0,45.08-.06,67.61Z"/><path d="M127.81,85.08c5.93,0,11.79,0,17.64.08.56,0,1.36,1,1.6,1.68a8.75,8.75,0,0,1,.1,2.75V160.7h37.77c0,6.29.06,12.15-.09,18,0,.58-1.31,1.62-2,1.62-18.23.09-36.47.07-55,.07Z"/><path d="M342.27,443.94H322.65V368.5H304V349.08H360.9c0,5.88.1,11.63-.13,17.36,0,.69-1.82,1.82-2.83,1.85-5.07.2-10.16.09-15.67.09Z"/><path d="M234.54,368.39V349.08c1-.09,2-.26,3-.26q25.31,0,50.61-.06c2.65,0,3.74.63,3.59,3.47-.22,4.26-.17,8.55,0,12.82.1,2.55-.75,3.5-3.35,3.43-5.06-.16-10.13-.05-15.59-.05v75.65c-6.14,0-11.88.07-17.62-.1-.68,0-1.53-1.24-1.94-2.07a6.25,6.25,0,0,1-.07-2.4V368.38Z"/><path d="M147.16,312.17H127.75V217.08c6,0,11.84-.05,17.69.08.57,0,1.4,1,1.61,1.72a11.5,11.5,0,0,1,.11,3.1v90.19Z"/></svg>