<svg id="Layer_1" data-name="Layer 1" xmlns="http://www.w3.org/2000/svg" viewBox="0 0 555.68 613.95"><title>blm</title><path d="M1.64,615.87V1.92H557.32v614ZM281.55,493.13H494.11c9.65,0,9.65,0,9.62-9.58,0-4.88,0-4.89-5-4.89H70.88c-2.78,0-5.55.06-8.33,0-2-.05-3,.66-2.84,2.83s0,4.39,0,6.58c0,5,0,5.05,5.08,5.05ZM135.64,445.8H155a20.91,20.91,0,0,0,.24-2.2q0-41.43,0-82.87c0-6.29-3.95-10-10.31-10-8.32-.05-16.65.15-25-.07-5.4-.15-9.84,1-12.25,6.46-3.91-5.66-5.36-6.4-12.17-6.4-8.21,0-16.41,0-24.62,0-7.29,0-11.09,3.86-11.1,11.11q0,40.05,0,80.1c0,1.24.11,2.47.18,3.92H79.53V370.53H97.94V446c5.41,0,10.37-.19,15.3.07,3.29.18,4.34-.74,4.32-4.17-.15-22.31-.07-44.62-.07-66.92v-4.69c5.13,0,9.74.18,14.32-.07,3.05-.16,3.92.78,3.9,3.87-.13,22.3-.07,44.61-.07,66.92Zm367.83,84.75H59.74c0,3.6.22,7-.06,10.25s1,3.78,4,3.78q217.92-.09,435.85-.06h4ZM59.75,504.81c0,3,0,5.67,0,8.31.08,6.28-.81,5.69,5.8,5.69H503.38v-14Zm50.8-370.25c4.88-2.08,6.83-5.51,6.89-9.85.14-9.24.19-18.5,0-27.74-.14-6.25-4.25-10-10.5-10-14.45,0-28.9.08-43.35-.09-3.17,0-3.83,1-3.82,4q.15,43.88,0,87.75c0,3.19,1.06,3.83,4,3.81,14-.14,28-.06,42-.06,7.89,0,11.73-3.75,11.78-11.61s-.06-15.95.06-23.93C117.61,141.57,116.21,137.23,110.55,134.56Zm125.83,47.8c5.8,0,10.88-.14,16,.06,2.78.11,3.5-.89,3.49-3.57-.09-27.28,0-54.56-.07-81.84,0-6.11-3.81-10-9.93-10q-18.72-.1-37.45,0c-6.07,0-9.85,4-9.85,10.06q0,40.75,0,81.5c0,1.12.1,2.24.18,3.8,5.27,0,10.33-.15,15.37.06,3,.13,4-.75,4-3.87-.18-9.93-.07-19.88-.05-29.82,0-1.34.12-2.69.21-4.37,5,0,9.73.16,14.44-.05,2.85-.13,3.83.74,3.78,3.67-.16,9.47-.06,19-.06,28.43ZM167.32,446c5.49,0,10.55-.17,15.6.07,3,.14,4-.77,3.94-3.85-.18-10.28,0-20.57-.12-30.85,0-2.47.58-3.56,3.28-3.42,4,.21,8.09.18,12.13,0,2.49-.1,3.19.86,3.15,3.22-.12,7.85-.09,15.71-.1,23.56,0,3.66,0,7.32,0,11h19.13c.09-.83.21-1.39.21-1.95q0-41.78,0-83.53c0-5.75-4.08-9.56-10-9.58q-18.37-.06-36.74,0c-6.71,0-10.44,3.79-10.44,10.54V446Zm276.36-95.34v95.18h18.94V442c0-10.16.07-20.33-.07-30.5,0-2.75.83-3.66,3.58-3.51a92.74,92.74,0,0,0,11.43,0c3-.2,3.67,1.07,3.63,3.8-.13,9.71-.07,19.41-.06,29.12,0,1.59.16,3.17.25,4.91h19.18v-4.29c0-10.52-.19-21,.07-31.54.13-5.29-1.51-9.19-6.63-11.67,5.33-2.31,6.78-6.38,6.63-11.62-.23-8.32-.06-16.64-.07-25,0-7.38-3.6-11-11-11-12.94,0-25.88,0-38.82,0ZM345.54,238.77c0,2.51.07,4.58,0,6.65-.08,1.87.57,2.78,2.56,2.75,4.86-.07,9.71-.06,14.57,0,2,0,2.63-.83,2.6-2.73-.07-5.43.11-10.87-.08-16.3-.22-6.16-4-10-10.08-10.09q-18.72-.23-37.45,0c-6.15.07-10.07,4.29-10.09,10.43q0,18.21,0,36.41a12.49,12.49,0,0,0,.85,4.71c1.85,4.38,5.48,5.93,10,5.9,8-.05,16-.08,23.93.05,1,0,2.94,1,3,1.68.24,5.39.14,10.79.14,16.3H327V285.4c-6,0-11.66-.1-17.29.12-.75,0-2,1.7-2,2.64-.21,5.31-.14,10.64-.1,15.95.05,6.13,4.09,10.11,10.22,10.11h36.76c6.48,0,10.55-3.63,10.63-10.09q.25-18.56,0-37.11c-.09-6.3-4.14-9.9-10.46-9.95-2.31,0-4.62,0-6.93,0H327.36v-18.3Zm-8.75-56.42c5.35,0,10.53-.17,15.68.06,2.9.14,3.52-1,3.5-3.61-.09-10.06-.05-20.12,0-30.17,0-1.34.18-2.67.3-4.27,4.95,0,9.57.23,14.16-.08,3.37-.23,4,1.1,4,4.14-.15,10.17,0,20.35-.09,30.52,0,2.41.55,3.59,3.29,3.46,4.38-.21,8.79-.14,13.17,0,2.26.07,3-.71,3-3-.08-15,0-30.06-.07-45.09a9,9,0,0,0-7.43-9.12,62.51,62.51,0,0,0-6.79-.8C385.26,112,390.93,99.85,396.93,87c-6.29,0-11.91.22-17.5-.08-3.44-.19-5.05,1-6.29,4.21-4,10.45-8.4,20.73-12.55,31.11-.83,2.08-1.87,3.09-4.62,1.94V87.2H336.79ZM238.71,219v95h57V294.84H258V276.48h3.68c7.28,0,14.57,0,21.84-.11,1,0,2.76-1,2.78-1.53.21-5.83.13-11.67.13-17.85H258v-18.4h3.69c10.28,0,20.57-.07,30.85,0,2.5,0,3.55-.59,3.41-3.28a102.27,102.27,0,0,1,0-12.13c.22-3.28-.76-4.35-4.18-4.31-14.67.18-29.35.08-44,.08ZM393.93,426.4V408h28.64c0-6.19.09-11.83-.11-17.47,0-.69-1.59-1.85-2.49-1.89-4.61-.2-9.24-.12-13.86-.13-4,0-8,0-12.05,0V370.3h4.08c10.18,0,20.35.05,30.52-.07,1.07,0,3-1,3-1.61.23-5.84.14-11.7.14-17.7h-57v94.79h57c0-5.86-.07-11.4,0-16.94,0-2.19-1.13-2.41-2.84-2.39-6.59,0-13.18,0-19.77,0ZM324.37,115.62c0-7.14.31-14.17-.11-21.16-.25-4.24-4.5-7.42-9.12-7.45-12.83-.08-25.66-.1-38.49,0-5.61,0-9.43,4.16-9.43,9.81q0,37.8,0,75.6a9.62,9.62,0,0,0,9.82,9.88q18.73.1,37.46,0c5.8,0,9.88-3.92,10-9.68.15-5.54,0-11.09.05-16.64,0-2-.62-2.94-2.77-2.9q-6.93.16-13.87,0c-2.15,0-2.87.83-2.76,2.88s0,4.32,0,6.55h-18.1V106.78h18v8.84ZM229.45,219c-6.69,0-12.88.1-19.07-.05-2.23-.05-3,.89-3.42,2.88q-3.84,19-7.82,37.93c-1.78,8.55-3.6,17.1-5.59,26.53-4.6-22-9-43.1-13.46-64.17-.23-1.12-1.29-2.92-2-3-6.56-.23-13.12-.13-20.42-.13,1.22,4.35,2.31,8.18,3.36,12q11,40.35,22,80.71c.52,1.95,1.38,2.57,3.34,2.52,4.73-.13,9.48-.16,14.21,0,2.13.07,3.14-.68,3.65-2.67,1.16-4.58,2.43-9.13,3.67-13.69q8.05-29.34,16.11-58.67C225.76,232.73,227.51,226.19,229.45,219Zm-150,75.86v-4.74c0-22.53,0-45.07.06-67.61,0-2.68-.67-3.71-3.48-3.57a105.87,105.87,0,0,1-12.47,0c-3.18-.2-3.83,1-3.82,4,.1,29.24.05,58.48.06,87.72,0,1.11.12,2.23.2,3.41h57.47c0-5.49-.11-10.78,0-16,.08-2.53-1-3.17-3.29-3.14-6.47.08-12.94,0-19.41,0ZM129.45,87v95.32c18.54,0,36.78,0,55-.07.7,0,2-1,2-1.62.15-5.86.09-11.72.09-18H148.79V91.52a8.65,8.65,0,0,0-.1-2.75c-.24-.69-1-1.67-1.6-1.68C141.24,87,135.38,87,129.45,87ZM343.91,445.86V370.3c5.51,0,10.6.11,15.67-.09,1,0,2.8-1.16,2.83-1.85.23-5.73.13-11.48.13-17.36H305.6v19.42h18.69v75.44ZM236.18,370.31h18.65v7q0,32.07,0,64.13a6.16,6.16,0,0,0,.07,2.4c.41.83,1.26,2.05,1.94,2.07,5.74.17,11.48.1,17.62.1V370.3c5.46,0,10.53-.11,15.59.05,2.6.07,3.45-.88,3.35-3.43-.17-4.27-.22-8.56,0-12.82.15-2.84-.94-3.48-3.59-3.47-16.87.1-33.74.05-50.61.06-1,0-2,.17-3,.26ZM148.8,314.09V223.93a11.38,11.38,0,0,0-.11-3.1c-.21-.7-1-1.71-1.61-1.72-5.85-.13-11.71-.08-17.69-.08v95.06Z" transform="translate(-1.64 -1.92)" fill="#fff200"/><path d="M281.55,493.12H64.82c-5.07,0-5.07,0-5.08-5.05,0-2.19.12-4.4,0-6.58s.84-2.88,2.84-2.83c2.78.06,5.55,0,8.33,0h427.9c4.94,0,4.94,0,5,4.89,0,9.58,0,9.58-9.62,9.58Z" transform="translate(-1.64 -1.92)"/><path d="M135.64,445.8V441c0-22.31-.06-44.62.07-66.92,0-3.09-.85-4-3.9-3.87-4.58.25-9.19.07-14.32.07V375c0,22.3-.08,44.61.07,66.92,0,3.43-1,4.35-4.32,4.17-4.93-.26-9.89-.07-15.3-.07V370.53H79.53v75.28H60c-.07-1.45-.18-2.68-.18-3.92q0-40,0-80.1c0-7.25,3.81-11.08,11.1-11.11,8.21,0,16.41,0,24.62,0,6.81,0,8.26.74,12.17,6.4,2.41-5.42,6.85-6.61,12.25-6.46,8.31.22,16.64,0,25,.07,6.36,0,10.29,3.75,10.31,10q.09,41.43,0,82.87a20.91,20.91,0,0,1-.24,2.2Z" transform="translate(-1.64 -1.92)"/><path d="M503.47,530.55v14h-4q-217.92,0-435.85.06c-2.92,0-4.24-.56-4-3.78s.06-6.65.06-10.25Z" transform="translate(-1.64 -1.92)"/><path d="M59.75,504.81H503.38v14H65.55c-6.61,0-5.72.59-5.8-5.69C59.72,510.48,59.75,507.84,59.75,504.81Z" transform="translate(-1.64 -1.92)"/><path d="M110.55,134.56c5.66,2.67,7.06,7,7,12.26-.12,8,0,16-.06,23.93s-3.89,11.61-11.78,11.61c-14,0-28-.08-42,.06-2.93,0-4-.62-4-3.81q.18-43.87,0-87.75c0-3,.65-4,3.82-4,14.45.17,28.9,0,43.35.09,6.25,0,10.36,3.74,10.5,10,.2,9.24.15,18.5,0,27.74C117.38,129.05,115.43,132.48,110.55,134.56Zm-31,27.95H97.65V144.63H79.58Zm0-38.08h18V106.87h-18Z" transform="translate(-1.64 -1.92)"/><path d="M236.38,182.36v-6c0-9.47-.1-19,.06-28.43.05-2.93-.93-3.8-3.78-3.67-4.71.21-9.42.05-14.44.05-.09,1.68-.21,3-.21,4.37,0,9.94-.13,19.89.05,29.82.06,3.12-1,4-4,3.87-5-.21-10.1-.06-15.37-.06-.08-1.56-.18-2.68-.18-3.8q0-40.76,0-81.5c0-6.07,3.78-10,9.85-10.06q18.72-.1,37.45,0c6.12,0,9.92,3.9,9.93,10,0,27.28,0,54.56.07,81.84,0,2.68-.71,3.68-3.49,3.57C247.26,182.22,242.18,182.36,236.38,182.36Zm0-75.73c-5.75,0-11.14,0-16.53.07a2.32,2.32,0,0,0-1.67,1.58c-.13,5.36-.08,10.74-.08,16.39,5.82,0,11.11.07,16.39-.08a2.64,2.64,0,0,0,1.81-1.81C236.4,117.51,236.33,112.23,236.33,106.63Z" transform="translate(-1.64 -1.92)"/><path d="M167.32,446V361.23c0-6.75,3.73-10.53,10.44-10.54q18.38,0,36.74,0c5.93,0,10,3.83,10,9.58q.08,41.76,0,83.53c0,.56-.12,1.12-.21,1.95H205.19c0-3.68,0-7.34,0-11,0-7.85,0-15.71.1-23.56,0-2.36-.66-3.32-3.15-3.22-4,.18-8.09.21-12.13,0-2.7-.14-3.3.95-3.28,3.42.11,10.28-.06,20.57.12,30.85,0,3.08-.91,4-3.94,3.85C177.87,445.85,172.81,446,167.32,446Zm37.83-57.55c0-5.66.07-10.84-.07-16,0-.72-1-2-1.63-2-5.39-.16-10.79-.09-16.63-.09,0,5.65-.08,10.93.1,16.2,0,.66,1.38,1.81,2.15,1.83C194.24,388.55,199.43,388.47,205.15,388.47Z" transform="translate(-1.64 -1.92)"/><path d="M443.68,350.68h7.05c12.94,0,25.88,0,38.82,0,7.41,0,11,3.65,11,11,0,8.32-.16,16.64.07,25,.15,5.24-1.3,9.31-6.63,11.62,5.12,2.48,6.76,6.38,6.63,11.67-.26,10.51-.07,21-.07,31.54v4.29H481.38c-.09-1.74-.24-3.32-.25-4.91,0-9.71-.07-19.41.06-29.12,0-2.73-.59-4-3.63-3.8a92.74,92.74,0,0,1-11.43,0c-2.75-.15-3.62.76-3.58,3.51.14,10.17.06,20.34.07,30.5v3.88H443.68Zm37.39,19.63c-5.87,0-11.15-.09-16.43.11-.7,0-1.89,1.5-1.93,2.34-.2,4.37-.22,8.75,0,13.11a3.45,3.45,0,0,0,2.23,2.47c4.59.24,9.21.2,13.81,0,.79,0,2.19-1.12,2.21-1.76C481.15,381.36,481.07,376.09,481.07,370.31Z" transform="translate(-1.64 -1.92)"/><path d="M345.54,238.77H327.36v18.3h20.41c2.31,0,4.62,0,6.93,0,6.32.05,10.37,3.65,10.46,9.95q.29,18.56,0,37.11c-.08,6.46-4.15,10.09-10.63,10.09H317.78c-6.13,0-10.17-4-10.22-10.11,0-5.31-.11-10.64.1-15.95,0-.94,1.28-2.61,2-2.64,5.63-.22,11.28-.12,17.29-.12v9.12h18.53c0-5.51.1-10.91-.14-16.3,0-.63-1.92-1.66-3-1.68-8-.13-16-.1-23.93-.05-4.56,0-8.19-1.52-10-5.9a12.49,12.49,0,0,1-.85-4.71q-.1-18.19,0-36.41c0-6.14,3.94-10.36,10.09-10.43q18.72-.21,37.45,0c6.09.07,9.86,3.93,10.08,10.09.19,5.43,0,10.87.08,16.3,0,1.9-.65,2.75-2.6,2.73-4.86-.06-9.71-.07-14.57,0-2,0-2.64-.88-2.56-2.75C345.61,243.35,345.54,241.28,345.54,238.77Z" transform="translate(-1.64 -1.92)"/><path d="M336.79,182.35V87.2H356v37c2.75,1.15,3.79.14,4.62-1.94,4.15-10.38,8.56-20.66,12.55-31.11,1.24-3.23,2.85-4.4,6.29-4.21,5.59.3,11.21.08,17.5.08-6,12.88-11.67,25-17.43,37.43a62.51,62.51,0,0,1,6.79.8,9,9,0,0,1,7.43,9.12c.06,15,0,30.06.07,45.09,0,2.27-.74,3.05-3,3-4.38-.13-8.79-.2-13.17,0-2.74.13-3.31-1.05-3.29-3.46.08-10.17-.06-20.35.09-30.52,0-3-.64-4.37-4-4.14-4.59.31-9.21.08-14.16.08-.12,1.6-.3,2.93-.3,4.27,0,10.05-.07,20.11,0,30.17,0,2.56-.6,3.75-3.5,3.61C347.32,182.18,342.14,182.35,336.79,182.35Z" transform="translate(-1.64 -1.92)"/><path d="M238.71,219h9c14.68,0,29.36.1,44-.08,3.42,0,4.4,1,4.18,4.31a102.27,102.27,0,0,0,0,12.13c.14,2.69-.91,3.31-3.41,3.28-10.28-.11-20.57,0-30.85,0H258V257h28.44c0,6.18.08,12-.13,17.85,0,.57-1.8,1.51-2.78,1.53-7.27.14-14.56.1-21.84.11H258v18.36h37.71V314h-57Z" transform="translate(-1.64 -1.92)"/><path d="M393.93,426.4H409.3c6.59,0,13.18,0,19.77,0,1.71,0,2.88.2,2.84,2.39-.1,5.54,0,11.08,0,16.94h-57V350.92h57c0,6,.09,11.86-.14,17.7,0,.6-2,1.6-3,1.61-10.17.12-20.34.07-30.52.07h-4.08v18.17c4,0,8,0,12.05,0,4.62,0,9.25-.07,13.86.13.9,0,2.46,1.2,2.49,1.89.2,5.64.11,11.28.11,17.47H393.93Z" transform="translate(-1.64 -1.92)"/><path d="M324.37,115.62H305.14v-8.84h-18v55.78h18.1c0-2.23.08-4.4,0-6.55s.61-2.93,2.76-2.88q6.93.15,13.87,0c2.15,0,2.79.87,2.77,2.9-.08,5.55.1,11.1-.05,16.64-.15,5.76-4.23,9.66-10,9.68q-18.74.07-37.46,0a9.62,9.62,0,0,1-9.82-9.88q0-37.8,0-75.6c0-5.65,3.82-9.76,9.43-9.81,12.83-.13,25.66-.11,38.49,0,4.62,0,8.87,3.21,9.12,7.45C324.68,101.45,324.37,108.48,324.37,115.62Z" transform="translate(-1.64 -1.92)"/><path d="M229.45,219c-1.94,7.2-3.69,13.74-5.48,20.26q-8,29.34-16.11,58.67c-1.24,4.56-2.51,9.11-3.67,13.69-.51,2-1.52,2.74-3.65,2.67-4.73-.17-9.48-.14-14.21,0-2,.05-2.82-.57-3.34-2.52Q172.08,271.37,161,231c-1-3.83-2.14-7.66-3.36-12,7.3,0,13.86-.1,20.42.13.73,0,1.79,1.83,2,3,4.48,21.07,8.86,42.16,13.46,64.17,2-9.43,3.81-18,5.59-26.53q3.95-19,7.82-37.93c.41-2,1.19-2.93,3.42-2.88C216.57,219.09,222.76,219,229.45,219Z" transform="translate(-1.64 -1.92)"/><path d="M79.47,294.85H94.83c6.47,0,12.94.07,19.41,0,2.29,0,3.37.61,3.29,3.14-.15,5.27,0,10.56,0,16H60c-.08-1.18-.2-2.3-.2-3.41,0-29.24,0-58.48-.06-87.72,0-2.94.64-4.18,3.82-4a105.87,105.87,0,0,0,12.47,0c2.81-.14,3.49.89,3.48,3.57-.09,22.54,0,45.08-.06,67.61Z" transform="translate(-1.64 -1.92)"/><path d="M129.45,87c5.93,0,11.79-.05,17.64.08.56,0,1.36,1,1.6,1.68a8.65,8.65,0,0,1,.1,2.75v71.11h37.77c0,6.29.06,12.15-.09,18,0,.58-1.31,1.62-2,1.62-18.23.09-36.47.07-55,.07Z" transform="translate(-1.64 -1.92)"/><path d="M343.91,445.86H324.29V370.42H305.6V351h56.94c0,5.88.1,11.63-.13,17.36,0,.69-1.82,1.82-2.83,1.85-5.07.2-10.16.09-15.67.09Z" transform="translate(-1.64 -1.92)"/><path d="M236.18,370.31V351c1-.09,2-.26,3-.26,16.87,0,33.74,0,50.61-.06,2.65,0,3.74.63,3.59,3.47-.22,4.26-.17,8.55,0,12.82.1,2.55-.75,3.5-3.35,3.43-5.06-.16-10.13-.05-15.59-.05V446c-6.14,0-11.88.07-17.62-.1-.68,0-1.53-1.24-1.94-2.07a6.16,6.16,0,0,1-.07-2.4q0-32.07,0-64.13v-7Z" transform="translate(-1.64 -1.92)"/><path d="M148.8,314.09H129.39V219c6,0,11.84-.05,17.69.08.57,0,1.4,1,1.61,1.72a11.38,11.38,0,0,1,.11,3.1v90.16Z" transform="translate(-1.64 -1.92)"/><path d="M79.58,162.51V144.63H97.65v17.88Z" transform="translate(-1.64 -1.92)" fill="#fff200"/><path d="M79.62,124.43V106.87h18v17.56Z" transform="translate(-1.64 -1.92)" fill="#fff200"/><path d="M236.33,106.63c0,5.6.07,10.88-.08,16.15a2.64,2.64,0,0,1-1.81,1.81c-5.28.15-10.57.08-16.39.08,0-5.65-.05-11,.08-16.39a2.32,2.32,0,0,1,1.67-1.58C225.19,106.58,230.58,106.63,236.33,106.63Z" transform="translate(-1.64 -1.92)" fill="#fff200"/><path d="M205.15,388.47c-5.72,0-10.91.08-16.08-.09-.77,0-2.13-1.17-2.15-1.83-.18-5.27-.1-10.55-.1-16.2,5.84,0,11.24-.07,16.63.09.59,0,1.61,1.3,1.63,2C205.22,377.63,205.15,382.81,205.15,388.47Z" transform="translate(-1.64 -1.92)" fill="#fff200"/><path d="M481.07,370.31c0,5.78.08,11.05-.1,16.31,0,.64-1.42,1.73-2.21,1.76-4.6.16-9.22.2-13.81,0a3.45,3.45,0,0,1-2.23-2.47c-.23-4.36-.21-8.74,0-13.11,0-.84,1.23-2.31,1.93-2.34C469.92,370.22,475.2,370.31,481.07,370.31Z" transform="translate(-1.64 -1.92)" fill="#fff200"/></svg>