<?xml version="1.0" encoding="utf-8"?>
<!-- Generator: Adobe Illustrator 22.0.1, SVG Export Plug-In . SVG Version: 6.00 Build 0)  -->
<svg version="1.1" id="Layer_1" xmlns="http://www.w3.org/2000/svg" xmlns:xlink="http://www.w3.org/1999/xlink" x="0px" y="0px"
	 viewBox="0 0 555.7 614" style="enable-background:new 0 0 555.7 614;" xml:space="preserve">
<style type="text/css">
	.st0{fill:#F8ED47;}
</style>
<rect class="st0" width="555.7" height="614"/>
<title>blm</title>
<path d="M134,443.9v-4.8c0-22.3-0.1-44.6,0.1-66.9c0-3.1-0.9-4-3.9-3.9c-4.6,0.2-9.2,0.1-14.3,0.1v4.7c0,22.3-0.1,44.6,0.1,66.9
	c0,3.4-1,4.4-4.3,4.2c-4.9-0.3-9.9-0.1-15.3-0.1v-75.5H77.9v75.3H58.4c-0.1-1.5-0.2-2.7-0.2-3.9c0-26.7,0-53.4,0-80.1
	c0-7.2,3.8-11.1,11.1-11.1c8.2,0,16.4,0,24.6,0c6.8,0,8.3,0.7,12.2,6.4c2.4-5.4,6.8-6.6,12.2-6.5c8.3,0.2,16.6,0,25,0.1
	c6.4,0,10.3,3.8,10.3,10c0.1,27.6,0.1,55.2,0,82.9c0,0.7-0.1,1.5-0.2,2.2L134,443.9z"/>
<path d="M108.9,132.6c5.7,2.7,7.1,7,7,12.3c-0.1,8,0,16-0.1,23.9s-3.9,11.6-11.8,11.6c-14,0-28-0.1-42,0.1c-2.9,0-4-0.6-4-3.8
	c0.1-29.2,0.1-58.5,0-87.8c0-3,0.7-4,3.8-4c14.4,0.2,28.9,0,43.3,0.1c6.2,0,10.4,3.7,10.5,10c0.2,9.2,0.2,18.5,0,27.7
	C115.7,127.1,113.8,130.6,108.9,132.6z M77.9,160.6H96v-17.9H77.9L77.9,160.6z M77.9,122.5h18V105h-18V122.5z"/>
<path d="M234.7,180.4v-6c0-9.5-0.1-19,0.1-28.4c0.1-2.9-0.9-3.8-3.8-3.7c-4.7,0.2-9.4,0.1-14.4,0.1c-0.1,1.7-0.2,3-0.2,4.4
	c0,9.9-0.1,19.9,0.1,29.8c0.1,3.1-1,4-4,3.9c-5-0.2-10.1-0.1-15.4-0.1c-0.1-1.6-0.2-2.7-0.2-3.8c0-27.2,0-54.3,0-81.5
	c0-6.1,3.8-10,9.9-10.1c12.5-0.1,25-0.1,37.4,0c6.1,0,9.9,3.9,9.9,10c0,27.3,0,54.6,0.1,81.8c0,2.7-0.7,3.7-3.5,3.6
	C245.6,180.3,240.5,180.4,234.7,180.4z M234.7,104.7c-5.8,0-11.1,0-16.5,0.1c-0.8,0.2-1.4,0.8-1.7,1.6c-0.1,5.4-0.1,10.7-0.1,16.4
	c5.8,0,11.1,0.1,16.4-0.1c0.9-0.3,1.6-0.9,1.8-1.8C234.8,115.6,234.7,110.3,234.7,104.7L234.7,104.7z"/>
<path d="M165.7,444.1v-84.8c0-6.8,3.7-10.5,10.4-10.5c12.3,0,24.5,0,36.7,0c5.9,0,10,3.8,10,9.6c0.1,27.8,0.1,55.7,0,83.5
	c0,0.6-0.1,1.1-0.2,2h-19.1c0-3.7,0-7.3,0-11c0-7.9,0-15.7,0.1-23.6c0-2.4-0.7-3.3-3.1-3.2c-4,0.2-8.1,0.2-12.1,0
	c-2.7-0.1-3.3,1-3.3,3.4c0.1,10.3-0.1,20.6,0.1,30.9c0,3.1-0.9,4-3.9,3.9C176.2,443.9,171.2,444.1,165.7,444.1z M203.5,386.5
	c0-5.7,0.1-10.8-0.1-16c0-0.7-1-2-1.6-2c-5.4-0.2-10.8-0.1-16.6-0.1c0,5.6-0.1,10.9,0.1,16.2c0,0.7,1.4,1.8,2.1,1.8
	C192.6,386.6,197.8,386.5,203.5,386.5L203.5,386.5z"/>
<path d="M442,348.8h7c12.9,0,25.9,0,38.8,0c7.4,0,11,3.6,11,11c0,8.3-0.2,16.6,0.1,25c0.1,5.2-1.3,9.3-6.6,11.6
	c5.1,2.5,6.8,6.4,6.6,11.7c-0.3,10.5-0.1,21-0.1,31.5v4.3h-19.2c-0.1-1.7-0.2-3.3-0.2-4.9c0-9.7-0.1-19.4,0.1-29.1
	c0-2.7-0.6-4-3.6-3.8c-3.8,0.2-7.6,0.2-11.4,0c-2.8-0.1-3.6,0.8-3.6,3.5c0.1,10.2,0.1,20.3,0.1,30.5v3.9H442V348.8z M479.4,368.4
	c-5.9,0-11.1-0.1-16.4,0.1c-0.7,0-1.9,1.5-1.9,2.3c-0.2,4.4-0.2,8.8,0,13.1c0.3,1.2,1.1,2.1,2.2,2.5c4.6,0.2,9.2,0.2,13.8,0
	c0.8,0,2.2-1.1,2.2-1.8C479.5,379.4,479.4,374.2,479.4,368.4z"/>
<path d="M343.9,236.9h-18.2v18.3h20.4c2.3,0,4.6,0,6.9,0c6.3,0,10.4,3.6,10.5,9.9c0.2,12.4,0.2,24.7,0,37.1
	c-0.1,6.5-4.1,10.1-10.6,10.1h-36.7c-6.1,0-10.2-4-10.2-10.1c0-5.3-0.1-10.6,0.1-16c0-0.9,1.3-2.6,2-2.6c5.6-0.2,11.3-0.1,17.3-0.1
	v9.1h18.5c0-5.5,0.1-10.9-0.1-16.3c0-0.6-1.9-1.7-3-1.7c-8-0.1-16-0.1-23.9,0c-4.6,0-8.2-1.5-10-5.9c-0.6-1.5-0.9-3.1-0.9-4.7
	c-0.1-12.1-0.1-24.3,0-36.4c0-6.1,3.9-10.4,10.1-10.4c12.5-0.1,25-0.1,37.5,0c6.1,0.1,9.9,3.9,10.1,10.1c0.2,5.4,0,10.9,0.1,16.3
	c0,1.9-0.6,2.8-2.6,2.7c-4.9-0.1-9.7-0.1-14.6,0c-2,0-2.6-0.9-2.6-2.8C344,241.4,343.9,239.4,343.9,236.9z"/>
<path d="M335.1,180.4V85.3h19.2v37c2.8,1.2,3.8,0.1,4.6-1.9c4.1-10.4,8.6-20.7,12.5-31.1c1.2-3.2,2.9-4.4,6.3-4.2
	c5.6,0.3,11.2,0.1,17.5,0.1c-6,12.9-11.7,25-17.4,37.4c2.3,0.1,4.5,0.4,6.8,0.8c4.4,0.8,7.6,4.7,7.4,9.1c0.1,15,0,30.1,0.1,45.1
	c0,2.3-0.7,3.1-3,3c-4.4-0.1-8.8-0.2-13.2,0c-2.7,0.1-3.3-1.1-3.3-3.5c0.1-10.2-0.1-20.4,0.1-30.5c0-3-0.6-4.4-4-4.1
	c-4.6,0.3-9.2,0.1-14.2,0.1c-0.1,1.6-0.3,2.9-0.3,4.3c0,10.1-0.1,20.1,0,30.2c0,2.6-0.6,3.8-3.5,3.6
	C345.7,180.3,340.5,180.4,335.1,180.4z"/>
<path d="M237.1,217.1h9c14.7,0,29.4,0.1,44-0.1c3.4,0,4.4,1,4.2,4.3c-0.2,4-0.2,8.1,0,12.1c0.1,2.7-0.9,3.3-3.4,3.3
	c-10.3-0.1-20.6,0-30.9,0h-3.6v18.4h28.4c0,6.2,0.1,12-0.1,17.8c0,0.6-1.8,1.5-2.8,1.5c-7.3,0.1-14.6,0.1-21.8,0.1h-3.7v18.4h37.7
	v19.2h-57L237.1,217.1z"/>
<path d="M392.3,424.5h15.4c6.6,0,13.2,0,19.8,0c1.7,0,2.9,0.2,2.8,2.4c-0.1,5.5,0,11.1,0,16.9h-57V349h57c0,6,0.1,11.9-0.1,17.7
	c0,0.6-2,1.6-3,1.6c-10.2,0.1-20.3,0.1-30.5,0.1h-4.1v18.2c4,0,8,0,12,0c4.6,0,9.2-0.1,13.9,0.1c0.9,0,2.5,1.2,2.5,1.9
	c0.2,5.6,0.1,11.3,0.1,17.5h-28.7V424.5z"/>
<path d="M322.7,113.7h-19.2v-8.8h-18v55.8h18.1c0-2.2,0.1-4.4,0-6.6s0.6-2.9,2.8-2.9c4.6,0.1,9.2,0.1,13.9,0c2.1,0,2.8,0.9,2.8,2.9
	c-0.1,5.6,0.1,11.1,0,16.6c-0.1,5.8-4.2,9.7-10,9.7c-12.5,0-25,0-37.5,0c-5.3,0.1-9.7-4.1-9.8-9.4c0-0.2,0-0.3,0-0.5
	c0-25.2,0-50.4,0-75.6c0-5.7,3.8-9.8,9.4-9.8c12.8-0.1,25.7-0.1,38.5,0c4.6,0,8.9,3.2,9.1,7.4C323,99.5,322.7,106.6,322.7,113.7z"/>
<path d="M227.8,217.1c-1.9,7.2-3.7,13.7-5.5,20.3c-5.3,19.6-10.7,39.1-16.1,58.7c-1.2,4.6-2.5,9.1-3.7,13.7c-0.5,2-1.5,2.7-3.6,2.7
	c-4.7-0.2-9.5-0.1-14.2,0c-2,0-2.8-0.6-3.3-2.5c-7.3-26.9-14.6-53.9-22-80.8c-1-3.8-2.1-7.7-3.4-12c7.3,0,13.9-0.1,20.4,0.1
	c0.7,0,1.8,1.8,2,3c4.5,21.1,8.9,42.2,13.5,64.2c2-9.4,3.8-18,5.6-26.5c2.6-12.7,5.2-25.3,7.8-37.9c0.4-2,1.2-2.9,3.4-2.9
	C214.9,217.2,221.1,217.1,227.8,217.1z"/>
<path d="M77.8,292.9h15.4c6.5,0,12.9,0.1,19.4,0c2.3,0,3.4,0.6,3.3,3.1c-0.2,5.3,0,10.6,0,16H58.4c-0.1-1.2-0.2-2.3-0.2-3.4
	c0-29.2,0-58.5-0.1-87.7c0-2.9,0.6-4.2,3.8-4c4.2,0.2,8.3,0.2,12.5,0c2.8-0.1,3.5,0.9,3.5,3.6c-0.1,22.5,0,45.1-0.1,67.6L77.8,292.9
	z"/>
<path d="M127.8,85.1c5.9,0,11.8-0.1,17.6,0.1c0.6,0,1.4,1,1.6,1.7c0.2,0.9,0.2,1.8,0.1,2.8v71.1h37.8c0,6.3,0.1,12.1-0.1,18
	c0,0.6-1.3,1.6-2,1.6c-18.2,0.1-36.5,0.1-55,0.1L127.8,85.1z"/>
<path d="M342.3,443.9h-19.6v-75.4H304v-19.4h56.9c0,5.9,0.1,11.6-0.1,17.4c0,0.7-1.8,1.8-2.8,1.9c-5.1,0.2-10.2,0.1-15.7,0.1V443.9z
	"/>
<path d="M234.5,368.4v-19.3c1-0.1,2-0.3,3-0.3c16.9,0,33.7,0,50.6-0.1c2.6,0,3.7,0.6,3.6,3.5c-0.2,4.3-0.2,8.5,0,12.8
	c0.1,2.5-0.8,3.5-3.4,3.4c-5.1-0.2-10.1,0-15.6,0v75.6c-6.1,0-11.9,0.1-17.6-0.1c-0.7,0-1.5-1.2-1.9-2.1c-0.2-0.8-0.2-1.6-0.1-2.4
	c0-21.4,0-42.8,0-64.1v-7L234.5,368.4z"/>
<path d="M147.2,312.2h-19.4v-95.1c6,0,11.8-0.1,17.7,0.1c0.6,0,1.4,1,1.6,1.7c0.2,1,0.2,2.1,0.1,3.1V312.2L147.2,312.2z"/>
<g>
	<path d="M107.4,534.9c0,30.4-19.6,35.3-38.4,35.3H43v-70.5h26C87.8,499.7,107.4,504.6,107.4,534.9z M91.4,534.9
		c0-20.2-9.9-21.2-22.4-21.2H59v42.5h10C81.5,556.2,91.4,555.2,91.4,534.9z"/>
	<path d="M161.5,498.7c22.3,0,35.9,15.7,35.9,36.2c0,20.6-13.6,36.3-35.9,36.3c-22.4,0-36-15.7-36-36.3
		C125.5,514.4,139.1,498.7,161.5,498.7z M161.5,557.2c13.3,0,19.9-8.7,19.9-22.3c0-13.5-6.6-22.2-19.9-22.2s-20,8.7-20,22.2
		C141.5,548.5,148.2,557.2,161.5,557.2z"/>
	<path d="M217.5,499.7H249l21.3,66.5h4l-3-10v-56.5h16v70.5h-31.5l-21.3-66.5h-4l3,10v56.5h-16V499.7z"/>
	<path d="M356.5,547.6h-28.6l-6.3,22.6h-16.2l20.3-70.5h33l20.4,70.5h-16.2L356.5,547.6z M352.6,533.6l-8.4-29.9h-4l-8.4,29.9H352.6
		z"/>
	<path d="M444.3,513.7h-23v56.5h-16v-56.5h-23.1v-14h62.1V513.7z"/>
	<path d="M462.4,499.7h50.3v14h-34.3v14.2h29.3v14h-29.3v14.3h34.3v14h-50.3V499.7z"/>
</g>
</svg>
