<?xml version="1.0" encoding="utf-8"?>
<!-- Generator: Adobe Illustrator 22.0.1, SVG Export Plug-In . SVG Version: 6.00 Build 0)  -->
<svg version="1.1" id="Layer_1" xmlns="http://www.w3.org/2000/svg" xmlns:xlink="http://www.w3.org/1999/xlink" x="0px" y="0px"
	 viewBox="0 0 1080 1080" enable-background="new 0 0 1080 1080" xml:space="preserve">
<g>
	<path fill="none" stroke="#FF3557" stroke-width="42" stroke-linecap="round" stroke-miterlimit="10" d="M1420,512
		c14.5,2.2,33.4,2.5,47.4-8.6c24.5-19.4,11.8-56.2,36.6-75.4c15.8-12.2,38.5-11,51.7-6.5c32.4,11.2,37.7,64.7,47.4,142.3
		c3.1,24.5,5.8,55.9,15.1,103.5c8.8,45.1,14.7,60.6,28,66.8c19,8.9,46.3-4.6,62.5-19.4c31.4-28.7,27.7-68.5,32.3-178.9
		c5.3-126.1,14-165.2,43.1-194c6.2-6.1,29.6-29.3,51.7-23.7c34.5,8.6,43.7,81.1,47.4,109.9c11.7,91.6-17.4,129.6,12.9,174.6
		c12.3,18.2,36.3,40.5,58.2,36.6c0,0,16-2.8,60.4-79.8c14.4-15.8,28.7-31.6,43.1-47.4"/>
</g>
<path fill="none" stroke="#FF3557" stroke-width="41" stroke-miterlimit="10" d="M1412,1733c15.1,0,30.1,0,45.2,0
	c23.7-39.4,47.3-78.7,71-118.1c50.9,125.7,101.8,251.3,152.7,377c43.7-159.2,87.5-318.3,131.2-477.5
	c47.3,115.6,94.7,231.2,142,346.8c19.4-31.8,38.7-63.7,58.1-95.5c17.9-6.7,35.9-13.4,53.8-20.1"/>
<path fill="none" stroke="#FF3557" stroke-width="41" stroke-miterlimit="10" d="M126.5,1754.6c27.6,5.3,55.2,10.7,82.8,16
	c0-39.2,0-78.3,0-117.5c53.4-2.7,106.8-5.3,160.2-8c0,122.8,0,245.6,0,368.4c59.6,0,119.2,0,178.8,0c2.7-173.5,5.3-347,8-520.5
	c48,9.8,96.1,19.6,144.1,29.4c9.8,120.1,19.6,240.2,29.4,360.4c51.6,5.3,103.2,10.7,154.8,16c0-48.9,0-97.9,0-146.8
	c23.1,0,46.3,0,69.4,0"/>
<g>
	<g>
		<line fill="none" stroke="#FF3557" stroke-width="24" stroke-miterlimit="10" x1="76" y1="552" x2="90.8" y2="549.8"/>
		<path fill="none" stroke="#FF3557" stroke-width="24" stroke-miterlimit="10" stroke-dasharray="35.7037,35.7037" d="M126.1,544.4
			L149,541c10.1-1.5,20.1-3,30.1-4.5"/>
		<path fill="none" stroke="#FF3557" stroke-width="24" stroke-miterlimit="10" d="M196.8,533.9c4.9-0.7,9.9-1.5,14.8-2.2
			c-0.2-5-0.3-10-0.5-15"/>
		<path fill="none" stroke="#FF3557" stroke-width="24" stroke-miterlimit="10" stroke-dasharray="36.392,36.392" d="M209.9,480.3
			c-0.6-18.2-1.2-36.4-1.8-54.6"/>
		<path fill="none" stroke="#FF3557" stroke-width="24" stroke-miterlimit="10" d="M207.5,407.6c-0.2-5-0.3-10-0.5-15
			c3.2,3.8,6.4,7.7,9.6,11.5"/>
		<path fill="none" stroke="#FF3557" stroke-width="24" stroke-miterlimit="10" stroke-dasharray="29.2702,29.2702" d="M235.4,426.5
			C320,527.4,404.7,628.4,489.3,729.3"/>
		<path fill="none" stroke="#FF3557" stroke-width="24" stroke-miterlimit="10" d="M498.8,740.5c3.2,3.8,6.4,7.7,9.6,11.5
			c-0.1-5-0.2-10-0.3-15"/>
		<path fill="none" stroke="#FF3557" stroke-width="24" stroke-miterlimit="10" stroke-dasharray="30.3386,30.3386" d="M507.4,706.7
			c-2.5-116.3-5.1-232.6-7.6-348.8"/>
		<path fill="none" stroke="#FF3557" stroke-width="24" stroke-miterlimit="10" d="M499.4,342.7c-0.1-5-0.2-10-0.3-15
			c3.5,3.6,6.9,7.2,10.4,10.8"/>
		<path fill="none" stroke="#FF3557" stroke-width="24" stroke-miterlimit="10" stroke-dasharray="27.9555,27.9555" d="M528.8,358.7
			c87,90.9,173.9,181.8,261,272.6"/>
		<path fill="none" stroke="#FF3557" stroke-width="24" stroke-miterlimit="10" d="M799.4,641.5c3.5,3.6,6.9,7.2,10.4,10.8
			c-1.2-4.9-2.3-9.7-3.5-14.6"/>
		<path fill="none" stroke="#FF3557" stroke-width="24" stroke-miterlimit="10" stroke-dasharray="29.7292,29.7292" d="M799.4,608.8
			c-3.5-14.5-6.9-28.9-10.4-43.4"/>
		<path fill="none" stroke="#FF3557" stroke-width="24" stroke-miterlimit="10" d="M785.5,551c-1.2-4.9-2.3-9.7-3.5-14.6
			c5-0.5,10-1,14.9-1.5"/>
		<path fill="none" stroke="#FF3557" stroke-width="24" stroke-miterlimit="10" stroke-dasharray="29.6907,29.6907" d="M826.5,532.1
			c16.9-1.7,33.7-3.3,50.6-5l53.1-0.1"/>
		<line fill="none" stroke="#FF3557" stroke-width="24" stroke-miterlimit="10" x1="945" y1="527" x2="960" y2="527"/>
	</g>
</g>
</svg>
