<?xml version="1.0" encoding="utf-8"?>
<!-- Generator: Adobe Illustrator 22.0.1, SVG Export Plug-In . SVG Version: 6.00 Build 0)  -->
<svg version="1.1" id="Layer_1" xmlns="http://www.w3.org/2000/svg" xmlns:xlink="http://www.w3.org/1999/xlink" x="0px" y="0px"
	 viewBox="0 0 1080 1080" enable-background="new 0 0 1080 1080" xml:space="preserve">
<g>
	<g>
		<g>
			<path fill="none" stroke="#FF3557" stroke-width="26" stroke-miterlimit="10" d="M208,512c4.6,0.7,9.7,1.2,14.9,1.2"/>
			<path fill="none" stroke="#FF3557" stroke-width="26" stroke-miterlimit="10" stroke-dasharray="30.4361,30.4361" d="M252,505.8
				c1.1-0.7,2.3-1.5,3.4-2.4c24.5-19.4,11.8-56.2,36.6-75.4c15.8-12.2,38.5-11,51.7-6.5c32.4,11.2,37.7,64.7,47.4,142.3
				c3.1,24.5,5.8,55.9,15.1,103.5c8.8,45.1,14.7,60.6,28,66.8c19,8.9,46.3-4.6,62.5-19.4c31.4-28.7,27.7-68.5,32.3-178.9
				c5.3-126.1,14-165.2,43.1-194c6.2-6.1,29.6-29.3,51.7-23.7c34.5,8.6,43.7,81.1,47.4,109.9c11.7,91.6-17.4,129.6,12.9,174.6
				c12.3,18.2,36.3,40.5,58.2,36.6c0,0,16-2.8,60.4-79.8c7.6-8.3,15.2-16.7,22.8-25"/>
			<path fill="none" stroke="#FF3557" stroke-width="26" stroke-miterlimit="10" d="M835.7,523.1c3.4-3.7,6.7-7.4,10.1-11.1"/>
		</g>
	</g>
</g>
<path fill="none" stroke="#FF3557" stroke-width="41" stroke-miterlimit="10" d="M200,1733c15.1,0,30.1,0,45.2,0
	c23.7-39.4,47.3-78.7,71-118.1c50.9,125.7,101.8,251.3,152.7,377c43.7-159.2,87.5-318.3,131.2-477.5
	c47.3,115.6,94.7,231.2,142,346.8c19.4-31.8,38.7-63.7,58.1-95.5c17.9-6.7,35.9-13.4,53.8-20.1"/>
<path fill="none" stroke="#FF3557" stroke-width="41" stroke-miterlimit="10" d="M-1085.5,1754.6c27.6,5.3,55.2,10.7,82.8,16
	c0-39.2,0-78.3,0-117.5c53.4-2.7,106.8-5.3,160.2-8c0,122.8,0,245.6,0,368.4c59.6,0,119.2,0,178.8,0c2.7-173.5,5.3-347,8-520.5
	c48,9.8,96.1,19.6,144.1,29.4c9.8,120.1,19.6,240.2,29.4,360.4c51.6,5.3,103.2,10.7,154.8,16c0-48.9,0-97.9,0-146.8
	c23.1,0,46.3,0,69.4,0"/>
<path fill="none" stroke="#FF3557" stroke-width="42" stroke-miterlimit="10" d="M-1063,541c20.9-3.1,41.7-6.2,62.6-9.3
	c-1.5-46.4-3.1-92.7-4.6-139.1C-904.6,512.4-804.1,632.2-703.6,752c-3.1-141.4-6.2-282.9-9.3-424.3
	c103.6,108.2,207.1,216.4,310.7,324.6c-9.3-38.6-18.5-77.3-27.8-115.9c31.7-3.1,63.4-6.2,95.1-9.3"/>
</svg>
