<?xml version="1.0" encoding="utf-8"?>
<!-- Generator: Adobe Illustrator 22.0.1, SVG Export Plug-In . SVG Version: 6.00 Build 0)  -->
<svg version="1.1" id="Layer_1" xmlns="http://www.w3.org/2000/svg" xmlns:xlink="http://www.w3.org/1999/xlink" x="0px" y="0px"
	 viewBox="0 0 1080 1080" enable-background="new 0 0 1080 1080" xml:space="preserve">
<g>
	<path fill="none" stroke="#FF3557" stroke-width="42" stroke-linecap="round" stroke-miterlimit="10" d="M1420-675
		c14.5,2.2,33.4,2.5,47.4-8.6c24.5-19.4,11.8-56.2,36.6-75.4c15.8-12.2,38.5-11,51.7-6.5c32.4,11.2,37.7,64.7,47.4,142.3
		c3.1,24.5,5.8,55.9,15.1,103.5c8.8,45.1,14.7,60.6,28,66.8c19,8.9,46.3-4.6,62.5-19.4c31.4-28.7,27.7-68.5,32.3-178.9
		c5.3-126.1,14-165.2,43.1-194c6.2-6.1,29.6-29.3,51.7-23.7c34.5,8.6,43.7,81.1,47.4,109.9c11.7,91.6-17.4,129.6,12.9,174.6
		c12.3,18.2,36.3,40.5,58.2,36.6c0,0,16-2.8,60.4-79.8c14.4-15.8,28.7-31.6,43.1-47.4"/>
</g>
<path fill="none" stroke="#FF3557" stroke-width="41" stroke-miterlimit="10" d="M1412,546c15.1,0,30.1,0,45.2,0
	c23.7-39.4,47.3-78.7,71-118.1c50.9,125.7,101.8,251.3,152.7,377c43.7-159.2,87.5-318.3,131.2-477.5
	c47.3,115.6,94.7,231.2,142,346.8c19.4-31.8,38.7-63.7,58.1-95.5c17.9-6.7,35.9-13.4,53.8-20.1"/>
<g>
	<g>
		<path fill="none" stroke="#FF3557" stroke-width="24" stroke-miterlimit="10" d="M126.5,567.6c4.9,0.9,9.8,1.9,14.7,2.8"/>
		<path fill="none" stroke="#FF3557" stroke-width="24" stroke-miterlimit="10" stroke-dasharray="18.1106,18.1106" d="M159,573.9
			c8.9,1.7,17.8,3.4,26.7,5.2"/>
		<path fill="none" stroke="#FF3557" stroke-width="24" stroke-miterlimit="10" d="M194.6,580.8c4.9,0.9,9.8,1.9,14.7,2.8
			c0-5,0-10,0-15"/>
		<path fill="none" stroke="#FF3557" stroke-width="24" stroke-miterlimit="10" stroke-dasharray="29.1667,29.1667" d="M209.3,539.4
			c0-14.6,0-29.2,0-43.7"/>
		<path fill="none" stroke="#FF3557" stroke-width="24" stroke-miterlimit="10" d="M209.3,481.1c0-5,0-10,0-15c5-0.3,10-0.5,15-0.8"
			/>
		<path fill="none" stroke="#FF3557" stroke-width="24" stroke-miterlimit="10" stroke-dasharray="26.0799,26.0799" d="M250.3,464
			c30.4-1.5,60.8-3,91.2-4.5"/>
		<path fill="none" stroke="#FF3557" stroke-width="24" stroke-miterlimit="10" d="M354.5,458.9c5-0.3,10-0.5,15-0.8c0,5,0,10,0,15"
			/>
		<path fill="none" stroke="#FF3557" stroke-width="24" stroke-miterlimit="10" stroke-dasharray="30.7636,30.7636" d="M369.5,503.9
			c0,97.4,0,194.8,0,292.3"/>
		<path fill="none" stroke="#FF3557" stroke-width="24" stroke-miterlimit="10" d="M369.5,811.5c0,5,0,10,0,15c5,0,10,0,15,0"/>
		<path fill="none" stroke="#FF3557" stroke-width="24" stroke-miterlimit="10" stroke-dasharray="29.76,29.76" d="M414.3,826.5
			c34.7,0,69.4,0,104.2,0"/>
		<path fill="none" stroke="#FF3557" stroke-width="24" stroke-miterlimit="10" d="M533.3,826.5c5,0,10,0,15,0c0.1-5,0.2-10,0.2-15"
			/>
		<path fill="none" stroke="#FF3557" stroke-width="24" stroke-miterlimit="10" stroke-dasharray="28.8566,28.8566" d="M549,782.6
			c2.3-149.1,4.6-298.1,6.9-447.2"/>
		<path fill="none" stroke="#FF3557" stroke-width="24" stroke-miterlimit="10" d="M556.1,321c0.1-5,0.2-10,0.2-15
			c4.9,1,9.8,2,14.7,3"/>
		<path fill="none" stroke="#FF3557" stroke-width="24" stroke-miterlimit="10" stroke-dasharray="23.4137,23.4137" d="M593.9,313.7
			c26.8,5.5,53.5,10.9,80.3,16.4"/>
		<path fill="none" stroke="#FF3557" stroke-width="24" stroke-miterlimit="10" d="M685.7,332.4c4.9,1,9.8,2,14.7,3
			c0.4,5,0.8,10,1.2,14.9"/>
		<path fill="none" stroke="#FF3557" stroke-width="24" stroke-miterlimit="10" stroke-dasharray="30.1452,30.1452" d="M704.1,380.4
			c7.8,95.1,15.5,190.2,23.3,285.4"/>
		<path fill="none" stroke="#FF3557" stroke-width="24" stroke-miterlimit="10" d="M728.6,680.8c0.4,5,0.8,10,1.2,15
			c5,0.5,9.9,1,14.9,1.5"/>
		<path fill="none" stroke="#FF3557" stroke-width="24" stroke-miterlimit="10" stroke-dasharray="25.1249,25.1249" d="M769.7,699.9
			c29.2,3,58.3,6,87.5,9.1"/>
		<path fill="none" stroke="#FF3557" stroke-width="24" stroke-miterlimit="10" d="M869.7,710.3c5,0.5,9.9,1,14.9,1.5c0-5,0-10,0-15
			"/>
		<path fill="none" stroke="#FF3557" stroke-width="24" stroke-miterlimit="10" stroke-dasharray="23.36,23.36" d="M884.6,673.4
			c0-27.3,0-54.5,0-81.8"/>
		<path fill="none" stroke="#FF3557" stroke-width="24" stroke-miterlimit="10" d="M884.6,580c0-5,0-10,0-15c5,0,10,0,15,0"/>
		<path fill="none" stroke="#FF3557" stroke-width="24" stroke-miterlimit="10" d="M939,565c5,0,10,0,15,0"/>
	</g>
</g>
<path fill="none" stroke="#FF3557" stroke-width="42" stroke-miterlimit="10" d="M149-646c20.9-3.1,41.7-6.2,62.6-9.3
	c-1.5-46.4-3.1-92.7-4.6-139.1C307.4-674.6,407.9-554.8,508.4-435c-3.1-141.4-6.2-282.9-9.3-424.3
	c103.6,108.2,207.1,216.4,310.7,324.6c-9.3-38.6-18.5-77.3-27.8-115.9c31.7-3.1,63.4-6.2,95.1-9.3"/>
</svg>
