<?xml version="1.0" encoding="utf-8"?>
<!-- Generator: Adobe Illustrator 22.0.1, SVG Export Plug-In . SVG Version: 6.00 Build 0)  -->
<svg version="1.1" id="Layer_1" xmlns="http://www.w3.org/2000/svg" xmlns:xlink="http://www.w3.org/1999/xlink" x="0px" y="0px"
	 viewBox="0 0 1080 1080" enable-background="new 0 0 1080 1080" xml:space="preserve">
<g>
	<path fill="none" stroke="#FF3557" stroke-width="42" stroke-linecap="round" stroke-miterlimit="10" d="M208-675
		c14.5,2.2,33.4,2.5,47.4-8.6c24.5-19.4,11.8-56.2,36.6-75.4c15.8-12.2,38.5-11,51.7-6.5c32.4,11.2,37.7,64.7,47.4,142.3
		c3.1,24.5,5.8,55.9,15.1,103.5c8.8,45.1,14.7,60.6,28,66.8c19,8.9,46.3-4.6,62.5-19.4c31.4-28.7,27.7-68.5,32.3-178.9
		c5.3-126.1,14-165.2,43.1-194c6.2-6.1,29.6-29.3,51.7-23.7c34.5,8.6,43.7,81.1,47.4,109.9c11.7,91.6-17.4,129.6,12.9,174.6
		c12.3,18.2,36.3,40.5,58.2,36.6c0,0,16-2.8,60.4-79.8c14.4-15.8,28.7-31.6,43.1-47.4"/>
</g>
<g>
	<g>
		<path fill="none" stroke="#FF3557" stroke-width="24" stroke-miterlimit="10" d="M200,546c5,0,10,0,15,0"/>
		<path fill="none" stroke="#FF3557" stroke-width="24" stroke-miterlimit="10" d="M230.2,546c5,0,10,0,15,0
			c2.6-4.3,5.2-8.6,7.7-12.9"/>
		<path fill="none" stroke="#FF3557" stroke-width="24" stroke-miterlimit="10" stroke-dasharray="35.9331,35.9331" d="M271.4,502.3
			c9.3-15.4,18.5-30.8,27.8-46.2"/>
		<path fill="none" stroke="#FF3557" stroke-width="24" stroke-miterlimit="10" d="M308.5,440.8c2.6-4.3,5.2-8.6,7.7-12.9
			c1.9,4.6,3.8,9.3,5.6,13.9"/>
		<path fill="none" stroke="#FF3557" stroke-width="24" stroke-miterlimit="10" stroke-dasharray="28.9808,28.9808" d="M332.7,468.7
			c41.7,103,83.4,205.9,125.1,308.9"/>
		<path fill="none" stroke="#FF3557" stroke-width="24" stroke-miterlimit="10" d="M463.3,791c1.9,4.6,3.8,9.3,5.6,13.9
			c1.3-4.8,2.6-9.6,4-14.5"/>
		<path fill="none" stroke="#FF3557" stroke-width="24" stroke-miterlimit="10" stroke-dasharray="31.0131,31.0131" d="M481.1,760.5
			c37-134.6,74-269.1,110.9-403.7"/>
		<path fill="none" stroke="#FF3557" stroke-width="24" stroke-miterlimit="10" d="M596.1,341.9c1.3-4.8,2.6-9.6,4-14.5
			c1.9,4.6,3.8,9.3,5.7,13.9"/>
		<path fill="none" stroke="#FF3557" stroke-width="24" stroke-miterlimit="10" stroke-dasharray="31.3405,31.3405" d="M617.7,370.3
			c37.6,91.8,75.2,183.7,112.8,275.5"/>
		<path fill="none" stroke="#FF3557" stroke-width="24" stroke-miterlimit="10" d="M736.4,660.3c1.9,4.6,3.8,9.3,5.7,13.9
			c2.6-4.3,5.2-8.5,7.8-12.8"/>
		<path fill="none" stroke="#FF3557" stroke-width="24" stroke-miterlimit="10" stroke-dasharray="27.8434,27.8434" d="M764.4,637.6
			c11.9-19.6,23.9-39.3,35.8-58.9c8.9-3.3,17.8-6.7,26.7-10"/>
		<path fill="none" stroke="#FF3557" stroke-width="24" stroke-miterlimit="10" d="M839.9,563.9c4.7-1.8,9.4-3.5,14.1-5.3"/>
	</g>
</g>
<path fill="none" stroke="#FF3557" stroke-width="41" stroke-miterlimit="10" d="M-1085.5,567.6c27.6,5.3,55.2,10.7,82.8,16
	c0-39.2,0-78.3,0-117.5c53.4-2.7,106.8-5.3,160.2-8c0,122.8,0,245.6,0,368.4c59.6,0,119.2,0,178.8,0c2.7-173.5,5.3-347,8-520.5
	c48,9.8,96.1,19.6,144.1,29.4c9.8,120.1,19.6,240.2,29.4,360.4c51.6,5.3,103.2,10.7,154.8,16c0-48.9,0-97.9,0-146.8
	c23.1,0,46.3,0,69.4,0"/>
<path fill="none" stroke="#FF3557" stroke-width="42" stroke-miterlimit="10" d="M-1063-646c20.9-3.1,41.7-6.2,62.6-9.3
	c-1.5-46.4-3.1-92.7-4.6-139.1C-904.6-674.6-804.1-554.8-703.6-435c-3.1-141.4-6.2-282.9-9.3-424.3
	c103.6,108.2,207.1,216.4,310.7,324.6c-9.3-38.6-18.5-77.3-27.8-115.9c31.7-3.1,63.4-6.2,95.1-9.3"/>
</svg>
